M48
INCH,TZ
T1C0.0120
T2C0.0315
T3C0.0591
%
G90
G05
T1
X68918Y-70433
X68918Y-73858
X68918Y-94055
X68918Y-95039
X68937Y-71437
X68937Y-72717
X68939Y-148156
X69038Y-147795
X69068Y-92697
X69158Y-146752
X69278Y-146240
X69364Y-91280
X69398Y-144744
X69560Y-144259
X69680Y-142697
X69816Y-142283
X69843Y-105827
X70079Y-140748
X72156Y-137697
X73510Y-138000
X73819Y-139715
X73819Y-142333
X74311Y-143917
X74321Y-144705
X74321Y-146280
X74331Y-101283
X74339Y-102295
X74343Y-104283
X74465Y-71810
X74470Y-91476
X74504Y-61961
X74540Y-68730
X74543Y-58961
X74734Y-144895
X74774Y-140541
X74969Y-118626
X75020Y-117290
X75170Y-118360
X75394Y-82175
X75404Y-144291
X75604Y-83179
X75630Y-145108
X75679Y-146673
X75856Y-84203
X76093Y-85197
X76102Y-146575
X76250Y-147244
X76430Y-112130
X77283Y-94301
X77293Y-111413
X77323Y-146040
X77390Y-138550
X77431Y-115192
X77530Y-93376
X77530Y-111137
X77772Y-92799
X77776Y-72362
X77786Y-111417
X77953Y-71004
X77988Y-72083
X78002Y-117033
X78018Y-111137
X78160Y-143190
X78263Y-71874
X78293Y-111413
X78445Y-120015
X78524Y-71726
X78538Y-111137
X78573Y-122102
X78780Y-91450
X78786Y-111409
X78809Y-114208
X78907Y-59459
X78917Y-58484
X79006Y-61476
X79006Y-62470
X79020Y-63850
X79024Y-90232
X79038Y-111153
X79193Y-144931
X79252Y-81673
X79258Y-143904
X79469Y-144685
X79478Y-82677
X79705Y-83691
X79774Y-146250
X79931Y-84675
X79990Y-146565
X80197Y-81181
X80217Y-118598
X80433Y-104813
X80440Y-106270
X80451Y-111558
X80457Y-106787
X80459Y-103720
X80530Y-113740
X80532Y-119415
X80541Y-118450
X80650Y-120419
X80669Y-68740
X80669Y-116600
X80679Y-111275
X80758Y-115842
X80830Y-124520
X80847Y-114247
X80860Y-125270
X80925Y-115212
X80933Y-67701
X80943Y-111543
X81199Y-111263
X81220Y-117940
X81327Y-104493
X81340Y-64720
X81420Y-125260
X81430Y-113400
X81455Y-111523
X81630Y-121020
X81685Y-104973
X81693Y-121413
X81695Y-111228
X81742Y-116334
X81917Y-104110
X81947Y-111499
X82038Y-114011
X82116Y-115674
X82130Y-125280
X82173Y-62171
X82195Y-111208
X82687Y-114228
X82805Y-112879
X82933Y-91240
X82972Y-92579
X82972Y-93976
X82992Y-70394
X82992Y-95315
X83012Y-71516
X83012Y-72657
X83031Y-73780
X83051Y-105768
X83089Y-143353
X83520Y-119440
X83524Y-80679
X83610Y-121410
X83620Y-119830
X83620Y-121810
X83640Y-122180
X83650Y-120240
X83711Y-80157
X83855Y-79675
X84016Y-79144
X84020Y-124250
X84186Y-78671
X84396Y-78140
X84606Y-77666
X84620Y-122800
X84819Y-62049
X84841Y-111499
X84860Y-117330
X84870Y-115500
X84920Y-126630
X85043Y-61839
X85079Y-143287
X85093Y-111165
X85346Y-102291
X85349Y-111464
X85502Y-117023
X85567Y-101539
X85589Y-111161
X85601Y-114159
X85676Y-119224
X85827Y-101283
X85849Y-111420
X86050Y-59150
X86091Y-111145
X86190Y-58820
X86310Y-111810
X86472Y-58020
X86500Y-111460
X86657Y-119267
X86840Y-119810
X86857Y-104587
X87077Y-121039
X87254Y-121944
X87270Y-69291
X87277Y-103287
X87430Y-122770
X87480Y-63878
X87610Y-123210
X87625Y-102067
X87690Y-62579
X87750Y-124510
X87870Y-125763
X87900Y-61299
X87900Y-100820
X87949Y-142493
X88030Y-136160
X88040Y-134320
X88110Y-59941
X88120Y-126609
T2
X72110Y-101280
X72110Y-102280
X72110Y-103280
X72110Y-104280
X72110Y-105280
X72110Y-106280
X73110Y-100780
X73110Y-101780
X73110Y-102780
X73110Y-103780
X73110Y-104780
X73110Y-105780
X72180Y-91380
X72180Y-92380
X72180Y-93380
X72180Y-94380
X72180Y-95380
X73180Y-90880
X73180Y-91880
X73180Y-92880
X73180Y-93880
X73180Y-94880
X72260Y-68780
X72260Y-69780
X72260Y-70780
X72260Y-71780
X72260Y-72780
X72260Y-73780
X73260Y-68280
X73260Y-69280
X73260Y-70280
X73260Y-71280
X73260Y-72280
X73260Y-73280
X82090Y-146870
X82590Y-147870
X83090Y-146870
X83590Y-147870
X72260Y-58980
X72260Y-59980
X72260Y-60980
X72260Y-61980
X72260Y-62980
X72260Y-63980
X73260Y-58480
X73260Y-59480
X73260Y-60480
X73260Y-61480
X73260Y-62480
X73260Y-63480
X72200Y-78200
X72200Y-79200
X72200Y-80200
X72200Y-81200
X72200Y-82200
X72200Y-83200
X72200Y-84200
X72200Y-85200
X73200Y-77700
X73200Y-78700
X73200Y-79700
X73200Y-80700
X73200Y-81700
X73200Y-82700
X73200Y-83700
X73200Y-84700
T3
X81539Y-147461
X72551Y-57929
X72491Y-77149
X72401Y-100229
X72471Y-90329
X72551Y-67729
T0
M30
