M48
INCH,TZ
T1C0.0157
T2C0.0315
T3C0.0591
%
G90
G05
T1
X21027Y-57373
X23200Y-57207
X25600Y-57200
X28000Y-57200
X28550Y-57550
X52714Y-45700
X57000Y-57400
X59300Y-57400
X61700Y-57400
X65400Y-44800
X65400Y-45600
X66900Y-57300
X67200Y-44400
X67300Y-41472
X67682Y-41294
X68000Y-45200
X70562Y-41188
X70657Y-54250
X70764Y-47759
X71254Y-48502
X71886Y-47759
X71900Y-45500
X76600Y-43800
X76600Y-45300
X79450Y-45015
X82700Y-41600
X83100Y-46050
X83775Y-45477
X83775Y-47759
X84425Y-45477
X84677Y-48116
X84927Y-48421
X85000Y-45900
X85127Y-41480
X85272Y-47937
X85450Y-45750
X85956Y-47937
X86100Y-45693
X86948Y-46823
X87244Y-48700
X87300Y-57650
X87341Y-46819
X87578Y-57928
X87950Y-45750
X88287Y-44368
X88960Y-44328
X89334Y-46934
X91600Y-57300
X93600Y-45900
X93800Y-57300
X94172Y-45854
X94850Y-43350
X95356Y-44330
X96150Y-45350
X96200Y-57300
X98434Y-41190
X98500Y-41600
X99308Y-56742
X101050Y-44964
X101700Y-44964
X102240Y-44955
X103100Y-44965
X103269Y-44208
X104445Y-54855
X105096Y-55579
X105500Y-56025
X105796Y-54873
X105925Y-56350
X107850Y-57150
X107900Y-44750
X108250Y-44500
X111600Y-54000
X111600Y-55200
X119975Y-55025
X120450Y-44650
X120450Y-47000
X125800Y-57300
X126400Y-54000
X126400Y-55400
X128200Y-57300
X130600Y-57300
X132639Y-43175
X132925Y-42582
X133211Y-42875
X133400Y-56084
X133650Y-58000
X133750Y-57050
X133806Y-42715
X134000Y-41900
X134927Y-56527
X135650Y-41190
X136050Y-58250
X136750Y-49560
X137827Y-52902
X138450Y-41150
X138700Y-41900
X138824Y-41463
X139150Y-41900
X139397Y-48947
X139822Y-41172
X140100Y-41450
X140101Y-44261
X140450Y-41900
X140775Y-42225
X140918Y-44300
X142250Y-41450
X142375Y-49275
X142850Y-54364
X143204Y-48523
X144450Y-55050
T2
X79431Y-43801
X79931Y-42801
X80431Y-43801
X80931Y-42801
X81431Y-43801
X81931Y-42801
X82431Y-43801
X82931Y-42801
X83431Y-43801
X83931Y-42801
X84431Y-43801
X84931Y-42801
X85431Y-43801
X85931Y-42801
X86431Y-43801
X86931Y-42801
X16750Y-52690
X16750Y-53690
X17750Y-53190
X17750Y-54190
X139068Y-43270
X139068Y-44270
X139068Y-45270
X139068Y-46270
X139068Y-47270
X139068Y-48270
X140068Y-43770
X140068Y-44770
X140068Y-45770
X140068Y-46770
X140068Y-47770
X140068Y-48770
X134763Y-43890
X134763Y-44890
X134763Y-45890
X134763Y-46890
X134763Y-47890
X134763Y-48890
X135763Y-44390
X135763Y-45390
X135763Y-46390
X135763Y-47390
X135763Y-48390
X135763Y-49390
X143148Y-42990
X143148Y-43990
X143148Y-44990
X143148Y-45990
X143148Y-46990
X143148Y-47990
X144148Y-43490
X144148Y-44490
X144148Y-45490
X144148Y-46490
X144148Y-47490
X144148Y-48490
X90856Y-43856
X91356Y-42856
X91856Y-43856
X92356Y-42856
X92856Y-43856
X93356Y-42856
X93856Y-43856
X94356Y-42856
X94856Y-43856
X95356Y-42856
X95856Y-43856
X96356Y-42856
X58345Y-43714
X58845Y-42714
X59345Y-43714
X59845Y-42714
X60345Y-43714
X60845Y-42714
X61345Y-43714
X61845Y-42714
X62345Y-43714
X62845Y-42714
X63345Y-43714
X63845Y-42714
X100648Y-43856
X101148Y-42856
X101648Y-43856
X102148Y-42856
X102648Y-43856
X103148Y-42856
X103648Y-43856
X104148Y-42856
X104648Y-43856
X105148Y-42856
X105648Y-43856
X106148Y-42856
X147113Y-43670
X147113Y-44670
X147113Y-45670
X147113Y-46670
X147113Y-47670
X148113Y-44170
X148113Y-45170
X148113Y-46170
X148113Y-47170
X148113Y-48170
X69250Y-43781
X69750Y-42781
X70250Y-43781
X70750Y-42781
X71250Y-43781
X71750Y-42781
X72250Y-43781
X72750Y-42781
X73250Y-43781
X73750Y-42781
T3
X87482Y-43510
X17341Y-52139
X139777Y-42719
X135472Y-43339
X143857Y-42439
X96908Y-43565
X64396Y-43423
X106699Y-43565
X147822Y-43119
X74301Y-43490
T0
M30
