G04 #@! TF.GenerationSoftware,KiCad,Pcbnew,5.1.5-52549c5~84~ubuntu18.04.1*
G04 #@! TF.CreationDate,2020-02-28T01:04:35-05:00*
G04 #@! TF.ProjectId,DA_Board_1,44415f42-6f61-4726-945f-312e6b696361,rev?*
G04 #@! TF.SameCoordinates,Original*
G04 #@! TF.FileFunction,Soldermask,Top*
G04 #@! TF.FilePolarity,Negative*
%FSLAX46Y46*%
G04 Gerber Fmt 4.6, Leading zero omitted, Abs format (unit mm)*
G04 Created by KiCad (PCBNEW 5.1.5-52549c5~84~ubuntu18.04.1) date 2020-02-28 01:04:35*
%MOMM*%
%LPD*%
G04 APERTURE LIST*
%ADD10C,0.100000*%
G04 APERTURE END LIST*
D10*
G36*
X81654400Y-159003900D02*
G01*
X76552400Y-159003900D01*
X76552400Y-150901900D01*
X81654400Y-150901900D01*
X81654400Y-159003900D01*
G37*
G36*
X125304300Y-158978500D02*
G01*
X120202300Y-158978500D01*
X120202300Y-150876500D01*
X125304300Y-150876500D01*
X125304300Y-158978500D01*
G37*
G36*
X45484800Y-158851500D02*
G01*
X40382800Y-158851500D01*
X40382800Y-150749500D01*
X45484800Y-150749500D01*
X45484800Y-158851500D01*
G37*
G36*
X212502500Y-158788000D02*
G01*
X207400500Y-158788000D01*
X207400500Y-150686000D01*
X212502500Y-150686000D01*
X212502500Y-158788000D01*
G37*
G36*
X343553800Y-158762600D02*
G01*
X338451800Y-158762600D01*
X338451800Y-150660600D01*
X343553800Y-150660600D01*
X343553800Y-158762600D01*
G37*
G36*
X256190500Y-158724500D02*
G01*
X251088500Y-158724500D01*
X251088500Y-150622500D01*
X256190500Y-150622500D01*
X256190500Y-158724500D01*
G37*
G36*
X299878500Y-158648300D02*
G01*
X294776500Y-158648300D01*
X294776500Y-150546300D01*
X299878500Y-150546300D01*
X299878500Y-158648300D01*
G37*
G36*
X168814500Y-158622900D02*
G01*
X163712500Y-158622900D01*
X163712500Y-150520900D01*
X168814500Y-150520900D01*
X168814500Y-158622900D01*
G37*
G36*
X119259604Y-151855347D02*
G01*
X119296144Y-151866432D01*
X119329821Y-151884433D01*
X119359341Y-151908659D01*
X119383567Y-151938179D01*
X119401568Y-151971856D01*
X119412653Y-152008396D01*
X119417000Y-152052538D01*
X119417000Y-153001462D01*
X119412653Y-153045604D01*
X119401568Y-153082144D01*
X119383567Y-153115821D01*
X119359341Y-153145341D01*
X119329821Y-153169567D01*
X119296144Y-153187568D01*
X119259604Y-153198653D01*
X119215462Y-153203000D01*
X117766538Y-153203000D01*
X117722396Y-153198653D01*
X117685856Y-153187568D01*
X117652179Y-153169567D01*
X117622659Y-153145341D01*
X117598433Y-153115821D01*
X117580432Y-153082144D01*
X117569347Y-153045604D01*
X117565000Y-153001462D01*
X117565000Y-152052538D01*
X117569347Y-152008396D01*
X117580432Y-151971856D01*
X117598433Y-151938179D01*
X117622659Y-151908659D01*
X117652179Y-151884433D01*
X117685856Y-151866432D01*
X117722396Y-151855347D01*
X117766538Y-151851000D01*
X119215462Y-151851000D01*
X119259604Y-151855347D01*
G37*
G36*
X180231100Y-152820500D02*
G01*
X176629100Y-152820500D01*
X176629100Y-150938500D01*
X180231100Y-150938500D01*
X180231100Y-152820500D01*
G37*
G36*
X219842400Y-152680800D02*
G01*
X216240400Y-152680800D01*
X216240400Y-150798800D01*
X219842400Y-150798800D01*
X219842400Y-152680800D01*
G37*
G36*
X131615500Y-152566500D02*
G01*
X128013500Y-152566500D01*
X128013500Y-150684500D01*
X131615500Y-150684500D01*
X131615500Y-152566500D01*
G37*
G36*
X265625900Y-152274400D02*
G01*
X262023900Y-152274400D01*
X262023900Y-150392400D01*
X265625900Y-150392400D01*
X265625900Y-152274400D01*
G37*
G36*
X349941200Y-152071200D02*
G01*
X346339200Y-152071200D01*
X346339200Y-150189200D01*
X349941200Y-150189200D01*
X349941200Y-152071200D01*
G37*
G36*
X306939000Y-151817200D02*
G01*
X303337000Y-151817200D01*
X303337000Y-149935200D01*
X306939000Y-149935200D01*
X306939000Y-151817200D01*
G37*
G36*
X89705500Y-151804500D02*
G01*
X86103500Y-151804500D01*
X86103500Y-149922500D01*
X89705500Y-149922500D01*
X89705500Y-151804500D01*
G37*
G36*
X378023000Y-150772900D02*
G01*
X369921000Y-150772900D01*
X369921000Y-145670900D01*
X378023000Y-145670900D01*
X378023000Y-150772900D01*
G37*
G36*
X67950900Y-150463400D02*
G01*
X66348900Y-150463400D01*
X66348900Y-146361400D01*
X67950900Y-146361400D01*
X67950900Y-150463400D01*
G37*
G36*
X70950900Y-150463400D02*
G01*
X69348900Y-150463400D01*
X69348900Y-146361400D01*
X70950900Y-146361400D01*
X70950900Y-150463400D01*
G37*
G36*
X293884604Y-149067347D02*
G01*
X293921144Y-149078432D01*
X293954821Y-149096433D01*
X293984341Y-149120659D01*
X294008567Y-149150179D01*
X294026568Y-149183856D01*
X294037653Y-149220396D01*
X294042000Y-149264538D01*
X294042000Y-150213462D01*
X294037653Y-150257604D01*
X294026568Y-150294144D01*
X294008567Y-150327821D01*
X293984341Y-150357341D01*
X293954821Y-150381567D01*
X293921144Y-150399568D01*
X293884604Y-150410653D01*
X293840462Y-150415000D01*
X292391538Y-150415000D01*
X292347396Y-150410653D01*
X292310856Y-150399568D01*
X292277179Y-150381567D01*
X292247659Y-150357341D01*
X292223433Y-150327821D01*
X292205432Y-150294144D01*
X292194347Y-150257604D01*
X292190000Y-150213462D01*
X292190000Y-149264538D01*
X292194347Y-149220396D01*
X292205432Y-149183856D01*
X292223433Y-149150179D01*
X292247659Y-149120659D01*
X292277179Y-149096433D01*
X292310856Y-149078432D01*
X292347396Y-149067347D01*
X292391538Y-149063000D01*
X293840462Y-149063000D01*
X293884604Y-149067347D01*
G37*
G36*
X119259604Y-149055347D02*
G01*
X119296144Y-149066432D01*
X119329821Y-149084433D01*
X119359341Y-149108659D01*
X119383567Y-149138179D01*
X119401568Y-149171856D01*
X119412653Y-149208396D01*
X119417000Y-149252538D01*
X119417000Y-150201462D01*
X119412653Y-150245604D01*
X119401568Y-150282144D01*
X119383567Y-150315821D01*
X119359341Y-150345341D01*
X119329821Y-150369567D01*
X119296144Y-150387568D01*
X119259604Y-150398653D01*
X119215462Y-150403000D01*
X117766538Y-150403000D01*
X117722396Y-150398653D01*
X117685856Y-150387568D01*
X117652179Y-150369567D01*
X117622659Y-150345341D01*
X117598433Y-150315821D01*
X117580432Y-150282144D01*
X117569347Y-150245604D01*
X117565000Y-150201462D01*
X117565000Y-149252538D01*
X117569347Y-149208396D01*
X117580432Y-149171856D01*
X117598433Y-149138179D01*
X117622659Y-149108659D01*
X117652179Y-149084433D01*
X117685856Y-149066432D01*
X117722396Y-149055347D01*
X117766538Y-149051000D01*
X119215462Y-149051000D01*
X119259604Y-149055347D01*
G37*
G36*
X65083500Y-150361800D02*
G01*
X63481500Y-150361800D01*
X63481500Y-146259800D01*
X65083500Y-146259800D01*
X65083500Y-150361800D01*
G37*
G36*
X62083500Y-150361800D02*
G01*
X60481500Y-150361800D01*
X60481500Y-146259800D01*
X62083500Y-146259800D01*
X62083500Y-150361800D01*
G37*
G36*
X148227600Y-150336400D02*
G01*
X146625600Y-150336400D01*
X146625600Y-146234400D01*
X148227600Y-146234400D01*
X148227600Y-150336400D01*
G37*
G36*
X154275600Y-150336400D02*
G01*
X152673600Y-150336400D01*
X152673600Y-146234400D01*
X154275600Y-146234400D01*
X154275600Y-150336400D01*
G37*
G36*
X157275600Y-150336400D02*
G01*
X155673600Y-150336400D01*
X155673600Y-146234400D01*
X157275600Y-146234400D01*
X157275600Y-150336400D01*
G37*
G36*
X151227600Y-150336400D02*
G01*
X149625600Y-150336400D01*
X149625600Y-146234400D01*
X151227600Y-146234400D01*
X151227600Y-150336400D01*
G37*
G36*
X145158400Y-150336400D02*
G01*
X143556400Y-150336400D01*
X143556400Y-146234400D01*
X145158400Y-146234400D01*
X145158400Y-150336400D01*
G37*
G36*
X142158400Y-150336400D02*
G01*
X140556400Y-150336400D01*
X140556400Y-146234400D01*
X142158400Y-146234400D01*
X142158400Y-150336400D01*
G37*
G36*
X344440604Y-148430347D02*
G01*
X344477144Y-148441432D01*
X344510821Y-148459433D01*
X344540341Y-148483659D01*
X344564567Y-148513179D01*
X344582568Y-148546856D01*
X344593653Y-148583396D01*
X344598000Y-148627538D01*
X344598000Y-150076462D01*
X344593653Y-150120604D01*
X344582568Y-150157144D01*
X344564567Y-150190821D01*
X344540341Y-150220341D01*
X344510821Y-150244567D01*
X344477144Y-150262568D01*
X344440604Y-150273653D01*
X344396462Y-150278000D01*
X343447538Y-150278000D01*
X343403396Y-150273653D01*
X343366856Y-150262568D01*
X343333179Y-150244567D01*
X343303659Y-150220341D01*
X343279433Y-150190821D01*
X343261432Y-150157144D01*
X343250347Y-150120604D01*
X343246000Y-150076462D01*
X343246000Y-148627538D01*
X343250347Y-148583396D01*
X343261432Y-148546856D01*
X343279433Y-148513179D01*
X343303659Y-148483659D01*
X343333179Y-148459433D01*
X343366856Y-148441432D01*
X343403396Y-148430347D01*
X343447538Y-148426000D01*
X344396462Y-148426000D01*
X344440604Y-148430347D01*
G37*
G36*
X341640604Y-148430347D02*
G01*
X341677144Y-148441432D01*
X341710821Y-148459433D01*
X341740341Y-148483659D01*
X341764567Y-148513179D01*
X341782568Y-148546856D01*
X341793653Y-148583396D01*
X341798000Y-148627538D01*
X341798000Y-150076462D01*
X341793653Y-150120604D01*
X341782568Y-150157144D01*
X341764567Y-150190821D01*
X341740341Y-150220341D01*
X341710821Y-150244567D01*
X341677144Y-150262568D01*
X341640604Y-150273653D01*
X341596462Y-150278000D01*
X340647538Y-150278000D01*
X340603396Y-150273653D01*
X340566856Y-150262568D01*
X340533179Y-150244567D01*
X340503659Y-150220341D01*
X340479433Y-150190821D01*
X340461432Y-150157144D01*
X340450347Y-150120604D01*
X340446000Y-150076462D01*
X340446000Y-148627538D01*
X340450347Y-148583396D01*
X340461432Y-148546856D01*
X340479433Y-148513179D01*
X340503659Y-148483659D01*
X340533179Y-148459433D01*
X340566856Y-148441432D01*
X340603396Y-148430347D01*
X340647538Y-148426000D01*
X341596462Y-148426000D01*
X341640604Y-148430347D01*
G37*
G36*
X332077000Y-150260200D02*
G01*
X330475000Y-150260200D01*
X330475000Y-146158200D01*
X332077000Y-146158200D01*
X332077000Y-150260200D01*
G37*
G36*
X329077000Y-150260200D02*
G01*
X327475000Y-150260200D01*
X327475000Y-146158200D01*
X329077000Y-146158200D01*
X329077000Y-150260200D01*
G37*
G36*
X56115900Y-150234800D02*
G01*
X54513900Y-150234800D01*
X54513900Y-146132800D01*
X56115900Y-146132800D01*
X56115900Y-150234800D01*
G37*
G36*
X59115900Y-150234800D02*
G01*
X57513900Y-150234800D01*
X57513900Y-146132800D01*
X59115900Y-146132800D01*
X59115900Y-150234800D01*
G37*
G36*
X230170800Y-150171300D02*
G01*
X228568800Y-150171300D01*
X228568800Y-146069300D01*
X230170800Y-146069300D01*
X230170800Y-150171300D01*
G37*
G36*
X233170800Y-150171300D02*
G01*
X231568800Y-150171300D01*
X231568800Y-146069300D01*
X233170800Y-146069300D01*
X233170800Y-150171300D01*
G37*
G36*
X323209600Y-150158600D02*
G01*
X321607600Y-150158600D01*
X321607600Y-146056600D01*
X323209600Y-146056600D01*
X323209600Y-150158600D01*
G37*
G36*
X317113600Y-150158600D02*
G01*
X315511600Y-150158600D01*
X315511600Y-146056600D01*
X317113600Y-146056600D01*
X317113600Y-150158600D01*
G37*
G36*
X326209600Y-150158600D02*
G01*
X324607600Y-150158600D01*
X324607600Y-146056600D01*
X326209600Y-146056600D01*
X326209600Y-150158600D01*
G37*
G36*
X320113600Y-150158600D02*
G01*
X318511600Y-150158600D01*
X318511600Y-146056600D01*
X320113600Y-146056600D01*
X320113600Y-150158600D01*
G37*
G36*
X81798604Y-148303347D02*
G01*
X81835144Y-148314432D01*
X81868821Y-148332433D01*
X81898341Y-148356659D01*
X81922567Y-148386179D01*
X81940568Y-148419856D01*
X81951653Y-148456396D01*
X81956000Y-148500538D01*
X81956000Y-149949462D01*
X81951653Y-149993604D01*
X81940568Y-150030144D01*
X81922567Y-150063821D01*
X81898341Y-150093341D01*
X81868821Y-150117567D01*
X81835144Y-150135568D01*
X81798604Y-150146653D01*
X81754462Y-150151000D01*
X80805538Y-150151000D01*
X80761396Y-150146653D01*
X80724856Y-150135568D01*
X80691179Y-150117567D01*
X80661659Y-150093341D01*
X80637433Y-150063821D01*
X80619432Y-150030144D01*
X80608347Y-149993604D01*
X80604000Y-149949462D01*
X80604000Y-148500538D01*
X80608347Y-148456396D01*
X80619432Y-148419856D01*
X80637433Y-148386179D01*
X80661659Y-148356659D01*
X80691179Y-148332433D01*
X80724856Y-148314432D01*
X80761396Y-148303347D01*
X80805538Y-148299000D01*
X81754462Y-148299000D01*
X81798604Y-148303347D01*
G37*
G36*
X84598604Y-148303347D02*
G01*
X84635144Y-148314432D01*
X84668821Y-148332433D01*
X84698341Y-148356659D01*
X84722567Y-148386179D01*
X84740568Y-148419856D01*
X84751653Y-148456396D01*
X84756000Y-148500538D01*
X84756000Y-149949462D01*
X84751653Y-149993604D01*
X84740568Y-150030144D01*
X84722567Y-150063821D01*
X84698341Y-150093341D01*
X84668821Y-150117567D01*
X84635144Y-150135568D01*
X84598604Y-150146653D01*
X84554462Y-150151000D01*
X83605538Y-150151000D01*
X83561396Y-150146653D01*
X83524856Y-150135568D01*
X83491179Y-150117567D01*
X83461659Y-150093341D01*
X83437433Y-150063821D01*
X83419432Y-150030144D01*
X83408347Y-149993604D01*
X83404000Y-149949462D01*
X83404000Y-148500538D01*
X83408347Y-148456396D01*
X83419432Y-148419856D01*
X83437433Y-148386179D01*
X83461659Y-148356659D01*
X83491179Y-148332433D01*
X83524856Y-148314432D01*
X83561396Y-148303347D01*
X83605538Y-148299000D01*
X84554462Y-148299000D01*
X84598604Y-148303347D01*
G37*
G36*
X244904200Y-150069700D02*
G01*
X243302200Y-150069700D01*
X243302200Y-145967700D01*
X244904200Y-145967700D01*
X244904200Y-150069700D01*
G37*
G36*
X241904200Y-150069700D02*
G01*
X240302200Y-150069700D01*
X240302200Y-145967700D01*
X241904200Y-145967700D01*
X241904200Y-150069700D01*
G37*
G36*
X238935200Y-150069700D02*
G01*
X237333200Y-150069700D01*
X237333200Y-145967700D01*
X238935200Y-145967700D01*
X238935200Y-150069700D01*
G37*
G36*
X235935200Y-150069700D02*
G01*
X234333200Y-150069700D01*
X234333200Y-145967700D01*
X235935200Y-145967700D01*
X235935200Y-150069700D01*
G37*
G36*
X365934100Y-150035600D02*
G01*
X364052100Y-150035600D01*
X364052100Y-146433600D01*
X365934100Y-146433600D01*
X365934100Y-150035600D01*
G37*
G36*
X360654100Y-150035600D02*
G01*
X358772100Y-150035600D01*
X358772100Y-146433600D01*
X360654100Y-146433600D01*
X360654100Y-150035600D01*
G37*
G36*
X213246604Y-148176347D02*
G01*
X213283144Y-148187432D01*
X213316821Y-148205433D01*
X213346341Y-148229659D01*
X213370567Y-148259179D01*
X213388568Y-148292856D01*
X213399653Y-148329396D01*
X213404000Y-148373538D01*
X213404000Y-149822462D01*
X213399653Y-149866604D01*
X213388568Y-149903144D01*
X213370567Y-149936821D01*
X213346341Y-149966341D01*
X213316821Y-149990567D01*
X213283144Y-150008568D01*
X213246604Y-150019653D01*
X213202462Y-150024000D01*
X212253538Y-150024000D01*
X212209396Y-150019653D01*
X212172856Y-150008568D01*
X212139179Y-149990567D01*
X212109659Y-149966341D01*
X212085433Y-149936821D01*
X212067432Y-149903144D01*
X212056347Y-149866604D01*
X212052000Y-149822462D01*
X212052000Y-148373538D01*
X212056347Y-148329396D01*
X212067432Y-148292856D01*
X212085433Y-148259179D01*
X212109659Y-148229659D01*
X212139179Y-148205433D01*
X212172856Y-148187432D01*
X212209396Y-148176347D01*
X212253538Y-148172000D01*
X213202462Y-148172000D01*
X213246604Y-148176347D01*
G37*
G36*
X210446604Y-148176347D02*
G01*
X210483144Y-148187432D01*
X210516821Y-148205433D01*
X210546341Y-148229659D01*
X210570567Y-148259179D01*
X210588568Y-148292856D01*
X210599653Y-148329396D01*
X210604000Y-148373538D01*
X210604000Y-149822462D01*
X210599653Y-149866604D01*
X210588568Y-149903144D01*
X210570567Y-149936821D01*
X210546341Y-149966341D01*
X210516821Y-149990567D01*
X210483144Y-150008568D01*
X210446604Y-150019653D01*
X210402462Y-150024000D01*
X209453538Y-150024000D01*
X209409396Y-150019653D01*
X209372856Y-150008568D01*
X209339179Y-149990567D01*
X209309659Y-149966341D01*
X209285433Y-149936821D01*
X209267432Y-149903144D01*
X209256347Y-149866604D01*
X209252000Y-149822462D01*
X209252000Y-148373538D01*
X209256347Y-148329396D01*
X209267432Y-148292856D01*
X209285433Y-148259179D01*
X209309659Y-148229659D01*
X209339179Y-148205433D01*
X209372856Y-148187432D01*
X209409396Y-148176347D01*
X209453538Y-148172000D01*
X210402462Y-148172000D01*
X210446604Y-148176347D01*
G37*
G36*
X254264604Y-148176347D02*
G01*
X254301144Y-148187432D01*
X254334821Y-148205433D01*
X254364341Y-148229659D01*
X254388567Y-148259179D01*
X254406568Y-148292856D01*
X254417653Y-148329396D01*
X254422000Y-148373538D01*
X254422000Y-149822462D01*
X254417653Y-149866604D01*
X254406568Y-149903144D01*
X254388567Y-149936821D01*
X254364341Y-149966341D01*
X254334821Y-149990567D01*
X254301144Y-150008568D01*
X254264604Y-150019653D01*
X254220462Y-150024000D01*
X253271538Y-150024000D01*
X253227396Y-150019653D01*
X253190856Y-150008568D01*
X253157179Y-149990567D01*
X253127659Y-149966341D01*
X253103433Y-149936821D01*
X253085432Y-149903144D01*
X253074347Y-149866604D01*
X253070000Y-149822462D01*
X253070000Y-148373538D01*
X253074347Y-148329396D01*
X253085432Y-148292856D01*
X253103433Y-148259179D01*
X253127659Y-148229659D01*
X253157179Y-148205433D01*
X253190856Y-148187432D01*
X253227396Y-148176347D01*
X253271538Y-148172000D01*
X254220462Y-148172000D01*
X254264604Y-148176347D01*
G37*
G36*
X257064604Y-148176347D02*
G01*
X257101144Y-148187432D01*
X257134821Y-148205433D01*
X257164341Y-148229659D01*
X257188567Y-148259179D01*
X257206568Y-148292856D01*
X257217653Y-148329396D01*
X257222000Y-148373538D01*
X257222000Y-149822462D01*
X257217653Y-149866604D01*
X257206568Y-149903144D01*
X257188567Y-149936821D01*
X257164341Y-149966341D01*
X257134821Y-149990567D01*
X257101144Y-150008568D01*
X257064604Y-150019653D01*
X257020462Y-150024000D01*
X256071538Y-150024000D01*
X256027396Y-150019653D01*
X255990856Y-150008568D01*
X255957179Y-149990567D01*
X255927659Y-149966341D01*
X255903433Y-149936821D01*
X255885432Y-149903144D01*
X255874347Y-149866604D01*
X255870000Y-149822462D01*
X255870000Y-148373538D01*
X255874347Y-148329396D01*
X255885432Y-148292856D01*
X255903433Y-148259179D01*
X255927659Y-148229659D01*
X255957179Y-148205433D01*
X255990856Y-148187432D01*
X256027396Y-148176347D01*
X256071538Y-148172000D01*
X257020462Y-148172000D01*
X257064604Y-148176347D01*
G37*
G36*
X166761604Y-147541347D02*
G01*
X166798144Y-147552432D01*
X166831821Y-147570433D01*
X166861341Y-147594659D01*
X166885567Y-147624179D01*
X166903568Y-147657856D01*
X166914653Y-147694396D01*
X166919000Y-147738538D01*
X166919000Y-149187462D01*
X166914653Y-149231604D01*
X166903568Y-149268144D01*
X166885567Y-149301821D01*
X166861341Y-149331341D01*
X166831821Y-149355567D01*
X166798144Y-149373568D01*
X166761604Y-149384653D01*
X166717462Y-149389000D01*
X165768538Y-149389000D01*
X165724396Y-149384653D01*
X165687856Y-149373568D01*
X165654179Y-149355567D01*
X165624659Y-149331341D01*
X165600433Y-149301821D01*
X165582432Y-149268144D01*
X165571347Y-149231604D01*
X165567000Y-149187462D01*
X165567000Y-147738538D01*
X165571347Y-147694396D01*
X165582432Y-147657856D01*
X165600433Y-147624179D01*
X165624659Y-147594659D01*
X165654179Y-147570433D01*
X165687856Y-147552432D01*
X165724396Y-147541347D01*
X165768538Y-147537000D01*
X166717462Y-147537000D01*
X166761604Y-147541347D01*
G37*
G36*
X169561604Y-147541347D02*
G01*
X169598144Y-147552432D01*
X169631821Y-147570433D01*
X169661341Y-147594659D01*
X169685567Y-147624179D01*
X169703568Y-147657856D01*
X169714653Y-147694396D01*
X169719000Y-147738538D01*
X169719000Y-149187462D01*
X169714653Y-149231604D01*
X169703568Y-149268144D01*
X169685567Y-149301821D01*
X169661341Y-149331341D01*
X169631821Y-149355567D01*
X169598144Y-149373568D01*
X169561604Y-149384653D01*
X169517462Y-149389000D01*
X168568538Y-149389000D01*
X168524396Y-149384653D01*
X168487856Y-149373568D01*
X168454179Y-149355567D01*
X168424659Y-149331341D01*
X168400433Y-149301821D01*
X168382432Y-149268144D01*
X168371347Y-149231604D01*
X168367000Y-149187462D01*
X168367000Y-147738538D01*
X168371347Y-147694396D01*
X168382432Y-147657856D01*
X168400433Y-147624179D01*
X168424659Y-147594659D01*
X168454179Y-147570433D01*
X168487856Y-147552432D01*
X168524396Y-147541347D01*
X168568538Y-147537000D01*
X169517462Y-147537000D01*
X169561604Y-147541347D01*
G37*
G36*
X260819000Y-149075000D02*
G01*
X259817000Y-149075000D01*
X259817000Y-148173000D01*
X260819000Y-148173000D01*
X260819000Y-149075000D01*
G37*
G36*
X45489000Y-148769000D02*
G01*
X41887000Y-148769000D01*
X41887000Y-146887000D01*
X45489000Y-146887000D01*
X45489000Y-148769000D01*
G37*
G36*
X52093000Y-148769000D02*
G01*
X48491000Y-148769000D01*
X48491000Y-146887000D01*
X52093000Y-146887000D01*
X52093000Y-148769000D01*
G37*
G36*
X126016300Y-148033800D02*
G01*
X125014300Y-148033800D01*
X125014300Y-147131800D01*
X126016300Y-147131800D01*
X126016300Y-148033800D01*
G37*
G36*
X258819000Y-148025000D02*
G01*
X257817000Y-148025000D01*
X257817000Y-147123000D01*
X258819000Y-147123000D01*
X258819000Y-148025000D01*
G37*
G36*
X198900100Y-147727800D02*
G01*
X195298100Y-147727800D01*
X195298100Y-145845800D01*
X198900100Y-145845800D01*
X198900100Y-147727800D01*
G37*
G36*
X204323000Y-147715100D02*
G01*
X200721000Y-147715100D01*
X200721000Y-145833100D01*
X204323000Y-145833100D01*
X204323000Y-147715100D01*
G37*
G36*
X293884604Y-146267347D02*
G01*
X293921144Y-146278432D01*
X293954821Y-146296433D01*
X293984341Y-146320659D01*
X294008567Y-146350179D01*
X294026568Y-146383856D01*
X294037653Y-146420396D01*
X294042000Y-146464538D01*
X294042000Y-147413462D01*
X294037653Y-147457604D01*
X294026568Y-147494144D01*
X294008567Y-147527821D01*
X293984341Y-147557341D01*
X293954821Y-147581567D01*
X293921144Y-147599568D01*
X293884604Y-147610653D01*
X293840462Y-147615000D01*
X292391538Y-147615000D01*
X292347396Y-147610653D01*
X292310856Y-147599568D01*
X292277179Y-147581567D01*
X292247659Y-147557341D01*
X292223433Y-147527821D01*
X292205432Y-147494144D01*
X292194347Y-147457604D01*
X292190000Y-147413462D01*
X292190000Y-146464538D01*
X292194347Y-146420396D01*
X292205432Y-146383856D01*
X292223433Y-146350179D01*
X292247659Y-146320659D01*
X292277179Y-146296433D01*
X292310856Y-146278432D01*
X292347396Y-146267347D01*
X292391538Y-146263000D01*
X293840462Y-146263000D01*
X293884604Y-146267347D01*
G37*
G36*
X214560700Y-147551000D02*
G01*
X213558700Y-147551000D01*
X213558700Y-146649000D01*
X214560700Y-146649000D01*
X214560700Y-147551000D01*
G37*
G36*
X180231100Y-147540500D02*
G01*
X176629100Y-147540500D01*
X176629100Y-145658500D01*
X180231100Y-145658500D01*
X180231100Y-147540500D01*
G37*
G36*
X344392800Y-147487700D02*
G01*
X343390800Y-147487700D01*
X343390800Y-146585700D01*
X344392800Y-146585700D01*
X344392800Y-147487700D01*
G37*
G36*
X219842400Y-147400800D02*
G01*
X216240400Y-147400800D01*
X216240400Y-145518800D01*
X219842400Y-145518800D01*
X219842400Y-147400800D01*
G37*
G36*
X131615500Y-147286500D02*
G01*
X128013500Y-147286500D01*
X128013500Y-145404500D01*
X131615500Y-145404500D01*
X131615500Y-147286500D01*
G37*
G36*
X84576200Y-147271800D02*
G01*
X83574200Y-147271800D01*
X83574200Y-146369800D01*
X84576200Y-146369800D01*
X84576200Y-147271800D01*
G37*
G36*
X173895300Y-147132100D02*
G01*
X172893300Y-147132100D01*
X172893300Y-146230100D01*
X173895300Y-146230100D01*
X173895300Y-147132100D01*
G37*
G36*
X265625900Y-146994400D02*
G01*
X262023900Y-146994400D01*
X262023900Y-145112400D01*
X265625900Y-145112400D01*
X265625900Y-146994400D01*
G37*
G36*
X124016300Y-146983800D02*
G01*
X123014300Y-146983800D01*
X123014300Y-146081800D01*
X124016300Y-146081800D01*
X124016300Y-146983800D01*
G37*
G36*
X260819000Y-146975000D02*
G01*
X259817000Y-146975000D01*
X259817000Y-146073000D01*
X260819000Y-146073000D01*
X260819000Y-146975000D01*
G37*
G36*
X349941200Y-146791200D02*
G01*
X346339200Y-146791200D01*
X346339200Y-144909200D01*
X349941200Y-144909200D01*
X349941200Y-146791200D01*
G37*
G36*
X299967000Y-146569000D02*
G01*
X298965000Y-146569000D01*
X298965000Y-145667000D01*
X299967000Y-145667000D01*
X299967000Y-146569000D01*
G37*
G36*
X306939000Y-146537200D02*
G01*
X303337000Y-146537200D01*
X303337000Y-144655200D01*
X306939000Y-144655200D01*
X306939000Y-146537200D01*
G37*
G36*
X89705500Y-146524500D02*
G01*
X86103500Y-146524500D01*
X86103500Y-144642500D01*
X89705500Y-144642500D01*
X89705500Y-146524500D01*
G37*
G36*
X212560700Y-146501000D02*
G01*
X211558700Y-146501000D01*
X211558700Y-145599000D01*
X212560700Y-145599000D01*
X212560700Y-146501000D01*
G37*
G36*
X342392800Y-146437700D02*
G01*
X341390800Y-146437700D01*
X341390800Y-145535700D01*
X342392800Y-145535700D01*
X342392800Y-146437700D01*
G37*
G36*
X82576200Y-146221800D02*
G01*
X81574200Y-146221800D01*
X81574200Y-145319800D01*
X82576200Y-145319800D01*
X82576200Y-146221800D01*
G37*
G36*
X171895300Y-146082100D02*
G01*
X170893300Y-146082100D01*
X170893300Y-145180100D01*
X171895300Y-145180100D01*
X171895300Y-146082100D01*
G37*
G36*
X126016300Y-145933800D02*
G01*
X125014300Y-145933800D01*
X125014300Y-145031800D01*
X126016300Y-145031800D01*
X126016300Y-145933800D01*
G37*
G36*
X297967000Y-145519000D02*
G01*
X296965000Y-145519000D01*
X296965000Y-144617000D01*
X297967000Y-144617000D01*
X297967000Y-145519000D01*
G37*
G36*
X214560700Y-145451000D02*
G01*
X213558700Y-145451000D01*
X213558700Y-144549000D01*
X214560700Y-144549000D01*
X214560700Y-145451000D01*
G37*
G36*
X344392800Y-145387700D02*
G01*
X343390800Y-145387700D01*
X343390800Y-144485700D01*
X344392800Y-144485700D01*
X344392800Y-145387700D01*
G37*
G36*
X84576200Y-145171800D02*
G01*
X83574200Y-145171800D01*
X83574200Y-144269800D01*
X84576200Y-144269800D01*
X84576200Y-145171800D01*
G37*
G36*
X173895300Y-145032100D02*
G01*
X172893300Y-145032100D01*
X172893300Y-144130100D01*
X173895300Y-144130100D01*
X173895300Y-145032100D01*
G37*
G36*
X260090800Y-144887000D02*
G01*
X258338800Y-144887000D01*
X258338800Y-140975000D01*
X260090800Y-140975000D01*
X260090800Y-144887000D01*
G37*
G36*
X255010800Y-144887000D02*
G01*
X253258800Y-144887000D01*
X253258800Y-140975000D01*
X255010800Y-140975000D01*
X255010800Y-144887000D01*
G37*
G36*
X360717600Y-144650800D02*
G01*
X358835600Y-144650800D01*
X358835600Y-141048800D01*
X360717600Y-141048800D01*
X360717600Y-144650800D01*
G37*
G36*
X365997600Y-144650800D02*
G01*
X364115600Y-144650800D01*
X364115600Y-141048800D01*
X365997600Y-141048800D01*
X365997600Y-144650800D01*
G37*
G36*
X299967000Y-144469000D02*
G01*
X298965000Y-144469000D01*
X298965000Y-143567000D01*
X299967000Y-143567000D01*
X299967000Y-144469000D01*
G37*
G36*
X371866604Y-142588347D02*
G01*
X371903144Y-142599432D01*
X371936821Y-142617433D01*
X371966341Y-142641659D01*
X371990567Y-142671179D01*
X372008568Y-142704856D01*
X372019653Y-142741396D01*
X372024000Y-142785538D01*
X372024000Y-144234462D01*
X372019653Y-144278604D01*
X372008568Y-144315144D01*
X371990567Y-144348821D01*
X371966341Y-144378341D01*
X371936821Y-144402567D01*
X371903144Y-144420568D01*
X371866604Y-144431653D01*
X371822462Y-144436000D01*
X370873538Y-144436000D01*
X370829396Y-144431653D01*
X370792856Y-144420568D01*
X370759179Y-144402567D01*
X370729659Y-144378341D01*
X370705433Y-144348821D01*
X370687432Y-144315144D01*
X370676347Y-144278604D01*
X370672000Y-144234462D01*
X370672000Y-142785538D01*
X370676347Y-142741396D01*
X370687432Y-142704856D01*
X370705433Y-142671179D01*
X370729659Y-142641659D01*
X370759179Y-142617433D01*
X370792856Y-142599432D01*
X370829396Y-142588347D01*
X370873538Y-142584000D01*
X371822462Y-142584000D01*
X371866604Y-142588347D01*
G37*
G36*
X369066604Y-142588347D02*
G01*
X369103144Y-142599432D01*
X369136821Y-142617433D01*
X369166341Y-142641659D01*
X369190567Y-142671179D01*
X369208568Y-142704856D01*
X369219653Y-142741396D01*
X369224000Y-142785538D01*
X369224000Y-144234462D01*
X369219653Y-144278604D01*
X369208568Y-144315144D01*
X369190567Y-144348821D01*
X369166341Y-144378341D01*
X369136821Y-144402567D01*
X369103144Y-144420568D01*
X369066604Y-144431653D01*
X369022462Y-144436000D01*
X368073538Y-144436000D01*
X368029396Y-144431653D01*
X367992856Y-144420568D01*
X367959179Y-144402567D01*
X367929659Y-144378341D01*
X367905433Y-144348821D01*
X367887432Y-144315144D01*
X367876347Y-144278604D01*
X367872000Y-144234462D01*
X367872000Y-142785538D01*
X367876347Y-142741396D01*
X367887432Y-142704856D01*
X367905433Y-142671179D01*
X367929659Y-142641659D01*
X367959179Y-142617433D01*
X367992856Y-142599432D01*
X368029396Y-142588347D01*
X368073538Y-142584000D01*
X369022462Y-142584000D01*
X369066604Y-142588347D01*
G37*
G36*
X220394200Y-143953100D02*
G01*
X219092200Y-143953100D01*
X219092200Y-142651100D01*
X220394200Y-142651100D01*
X220394200Y-143953100D01*
G37*
G36*
X218437600Y-143934100D02*
G01*
X217035600Y-143934100D01*
X217035600Y-143132100D01*
X218437600Y-143132100D01*
X218437600Y-143934100D01*
G37*
G36*
X263471800Y-143692800D02*
G01*
X262069800Y-143692800D01*
X262069800Y-142890800D01*
X263471800Y-142890800D01*
X263471800Y-143692800D01*
G37*
G36*
X130236100Y-143680100D02*
G01*
X128834100Y-143680100D01*
X128834100Y-142878100D01*
X130236100Y-142878100D01*
X130236100Y-143680100D01*
G37*
G36*
X265453800Y-143673700D02*
G01*
X264151800Y-143673700D01*
X264151800Y-142371700D01*
X265453800Y-142371700D01*
X265453800Y-143673700D01*
G37*
G36*
X132180000Y-143661000D02*
G01*
X130878000Y-143661000D01*
X130878000Y-142359000D01*
X132180000Y-142359000D01*
X132180000Y-143661000D01*
G37*
G36*
X215259800Y-143490000D02*
G01*
X213507800Y-143490000D01*
X213507800Y-139578000D01*
X215259800Y-139578000D01*
X215259800Y-143490000D01*
G37*
G36*
X210179800Y-143490000D02*
G01*
X208427800Y-143490000D01*
X208427800Y-139578000D01*
X210179800Y-139578000D01*
X210179800Y-143490000D01*
G37*
G36*
X52093000Y-143489000D02*
G01*
X48491000Y-143489000D01*
X48491000Y-141607000D01*
X52093000Y-141607000D01*
X52093000Y-143489000D01*
G37*
G36*
X45489000Y-143489000D02*
G01*
X41887000Y-143489000D01*
X41887000Y-141607000D01*
X45489000Y-141607000D01*
X45489000Y-143489000D01*
G37*
G36*
X121991000Y-143261400D02*
G01*
X120239000Y-143261400D01*
X120239000Y-139349400D01*
X121991000Y-139349400D01*
X121991000Y-143261400D01*
G37*
G36*
X127071000Y-143261400D02*
G01*
X125319000Y-143261400D01*
X125319000Y-139349400D01*
X127071000Y-139349400D01*
X127071000Y-143261400D01*
G37*
G36*
X353820400Y-143234100D02*
G01*
X352518400Y-143234100D01*
X352518400Y-141932100D01*
X353820400Y-141932100D01*
X353820400Y-143234100D01*
G37*
G36*
X305407200Y-143172100D02*
G01*
X304005200Y-143172100D01*
X304005200Y-142370100D01*
X305407200Y-142370100D01*
X305407200Y-143172100D01*
G37*
G36*
X307414600Y-143153000D02*
G01*
X306112600Y-143153000D01*
X306112600Y-141851000D01*
X307414600Y-141851000D01*
X307414600Y-143153000D01*
G37*
G36*
X351851100Y-142994300D02*
G01*
X350449100Y-142994300D01*
X350449100Y-142192300D01*
X351851100Y-142192300D01*
X351851100Y-142994300D01*
G37*
G36*
X89914400Y-142975200D02*
G01*
X88612400Y-142975200D01*
X88612400Y-141673200D01*
X89914400Y-141673200D01*
X89914400Y-142975200D01*
G37*
G36*
X87932400Y-142968900D02*
G01*
X86530400Y-142968900D01*
X86530400Y-142166900D01*
X87932400Y-142166900D01*
X87932400Y-142968900D01*
G37*
G36*
X179919300Y-142772000D02*
G01*
X178617300Y-142772000D01*
X178617300Y-141470000D01*
X179919300Y-141470000D01*
X179919300Y-142772000D01*
G37*
G36*
X177962700Y-142753000D02*
G01*
X176560700Y-142753000D01*
X176560700Y-141951000D01*
X177962700Y-141951000D01*
X177962700Y-142753000D01*
G37*
G36*
X302204000Y-142715300D02*
G01*
X300452000Y-142715300D01*
X300452000Y-138803300D01*
X302204000Y-138803300D01*
X302204000Y-142715300D01*
G37*
G36*
X297124000Y-142715300D02*
G01*
X295372000Y-142715300D01*
X295372000Y-138803300D01*
X297124000Y-138803300D01*
X297124000Y-142715300D01*
G37*
G36*
X79522200Y-142613700D02*
G01*
X77770200Y-142613700D01*
X77770200Y-138701700D01*
X79522200Y-138701700D01*
X79522200Y-142613700D01*
G37*
G36*
X84602200Y-142613700D02*
G01*
X82850200Y-142613700D01*
X82850200Y-138701700D01*
X84602200Y-138701700D01*
X84602200Y-142613700D01*
G37*
G36*
X198900100Y-142447800D02*
G01*
X195298100Y-142447800D01*
X195298100Y-140565800D01*
X198900100Y-140565800D01*
X198900100Y-142447800D01*
G37*
G36*
X204323000Y-142435100D02*
G01*
X200721000Y-142435100D01*
X200721000Y-140553100D01*
X204323000Y-140553100D01*
X204323000Y-142435100D01*
G37*
G36*
X169730300Y-142245400D02*
G01*
X167978300Y-142245400D01*
X167978300Y-138333400D01*
X169730300Y-138333400D01*
X169730300Y-142245400D01*
G37*
G36*
X174810300Y-142245400D02*
G01*
X173058300Y-142245400D01*
X173058300Y-138333400D01*
X174810300Y-138333400D01*
X174810300Y-142245400D01*
G37*
G36*
X218437600Y-142034100D02*
G01*
X217035600Y-142034100D01*
X217035600Y-141232100D01*
X218437600Y-141232100D01*
X218437600Y-142034100D01*
G37*
G36*
X375537400Y-141895700D02*
G01*
X374235400Y-141895700D01*
X374235400Y-140593700D01*
X375537400Y-140593700D01*
X375537400Y-141895700D01*
G37*
G36*
X263471800Y-141792800D02*
G01*
X262069800Y-141792800D01*
X262069800Y-140990800D01*
X263471800Y-140990800D01*
X263471800Y-141792800D01*
G37*
G36*
X130236100Y-141780100D02*
G01*
X128834100Y-141780100D01*
X128834100Y-140978100D01*
X130236100Y-140978100D01*
X130236100Y-141780100D01*
G37*
G36*
X343238700Y-141755800D02*
G01*
X334626700Y-141755800D01*
X334626700Y-133783800D01*
X343238700Y-133783800D01*
X343238700Y-141755800D01*
G37*
G36*
X220394200Y-141753100D02*
G01*
X219092200Y-141753100D01*
X219092200Y-140451100D01*
X220394200Y-140451100D01*
X220394200Y-141753100D01*
G37*
G36*
X377644800Y-141597300D02*
G01*
X376242800Y-141597300D01*
X376242800Y-140795300D01*
X377644800Y-140795300D01*
X377644800Y-141597300D01*
G37*
G36*
X373298000Y-141544100D02*
G01*
X372296000Y-141544100D01*
X372296000Y-140642100D01*
X373298000Y-140642100D01*
X373298000Y-141544100D01*
G37*
G36*
X265453800Y-141473700D02*
G01*
X264151800Y-141473700D01*
X264151800Y-140171700D01*
X265453800Y-140171700D01*
X265453800Y-141473700D01*
G37*
G36*
X132180000Y-141461000D02*
G01*
X130878000Y-141461000D01*
X130878000Y-140159000D01*
X132180000Y-140159000D01*
X132180000Y-141461000D01*
G37*
G36*
X305407200Y-141272100D02*
G01*
X304005200Y-141272100D01*
X304005200Y-140470100D01*
X305407200Y-140470100D01*
X305407200Y-141272100D01*
G37*
G36*
X348513700Y-141185800D02*
G01*
X344601700Y-141185800D01*
X344601700Y-139433800D01*
X348513700Y-139433800D01*
X348513700Y-141185800D01*
G37*
G36*
X351851100Y-141094300D02*
G01*
X350449100Y-141094300D01*
X350449100Y-140292300D01*
X351851100Y-140292300D01*
X351851100Y-141094300D01*
G37*
G36*
X87932400Y-141068900D02*
G01*
X86530400Y-141068900D01*
X86530400Y-140266900D01*
X87932400Y-140266900D01*
X87932400Y-141068900D01*
G37*
G36*
X353820400Y-141034100D02*
G01*
X352518400Y-141034100D01*
X352518400Y-139732100D01*
X353820400Y-139732100D01*
X353820400Y-141034100D01*
G37*
G36*
X307414600Y-140953000D02*
G01*
X306112600Y-140953000D01*
X306112600Y-139651000D01*
X307414600Y-139651000D01*
X307414600Y-140953000D01*
G37*
G36*
X177962700Y-140853000D02*
G01*
X176560700Y-140853000D01*
X176560700Y-140051000D01*
X177962700Y-140051000D01*
X177962700Y-140853000D01*
G37*
G36*
X89914400Y-140775200D02*
G01*
X88612400Y-140775200D01*
X88612400Y-139473200D01*
X89914400Y-139473200D01*
X89914400Y-140775200D01*
G37*
G36*
X179919300Y-140572000D02*
G01*
X178617300Y-140572000D01*
X178617300Y-139270000D01*
X179919300Y-139270000D01*
X179919300Y-140572000D01*
G37*
G36*
X371298000Y-140494100D02*
G01*
X370296000Y-140494100D01*
X370296000Y-139592100D01*
X371298000Y-139592100D01*
X371298000Y-140494100D01*
G37*
G36*
X377644800Y-139697300D02*
G01*
X376242800Y-139697300D01*
X376242800Y-138895300D01*
X377644800Y-138895300D01*
X377644800Y-139697300D01*
G37*
G36*
X375537400Y-139695700D02*
G01*
X374235400Y-139695700D01*
X374235400Y-138393700D01*
X375537400Y-138393700D01*
X375537400Y-139695700D01*
G37*
G36*
X260660800Y-139612000D02*
G01*
X252688800Y-139612000D01*
X252688800Y-131000000D01*
X260660800Y-131000000D01*
X260660800Y-139612000D01*
G37*
G36*
X373298000Y-139444100D02*
G01*
X372296000Y-139444100D01*
X372296000Y-138542100D01*
X373298000Y-138542100D01*
X373298000Y-139444100D01*
G37*
G36*
X45289473Y-136968538D02*
G01*
X45417049Y-137021382D01*
X45531859Y-137098095D01*
X45629505Y-137195741D01*
X45706218Y-137310551D01*
X45759062Y-137438127D01*
X45786000Y-137573556D01*
X45786000Y-137711644D01*
X45759062Y-137847073D01*
X45706218Y-137974649D01*
X45629505Y-138089459D01*
X45531859Y-138187105D01*
X45417049Y-138263818D01*
X45289473Y-138316662D01*
X45154044Y-138343600D01*
X45015956Y-138343600D01*
X44880527Y-138316662D01*
X44752951Y-138263818D01*
X44638141Y-138187105D01*
X44540495Y-138089459D01*
X44463782Y-137974649D01*
X44410938Y-137847073D01*
X44384000Y-137711644D01*
X44384000Y-137573556D01*
X44410938Y-137438127D01*
X44463782Y-137310551D01*
X44540495Y-137195741D01*
X44638141Y-137098095D01*
X44752951Y-137021382D01*
X44880527Y-136968538D01*
X45015956Y-136941600D01*
X45154044Y-136941600D01*
X45289473Y-136968538D01*
G37*
G36*
X215829800Y-138215000D02*
G01*
X207857800Y-138215000D01*
X207857800Y-129603000D01*
X215829800Y-129603000D01*
X215829800Y-138215000D01*
G37*
G36*
X127641000Y-137986400D02*
G01*
X119669000Y-137986400D01*
X119669000Y-129374400D01*
X127641000Y-129374400D01*
X127641000Y-137986400D01*
G37*
G36*
X302774000Y-137440300D02*
G01*
X294802000Y-137440300D01*
X294802000Y-128828300D01*
X302774000Y-128828300D01*
X302774000Y-137440300D01*
G37*
G36*
X85172200Y-137338700D02*
G01*
X77200200Y-137338700D01*
X77200200Y-128726700D01*
X85172200Y-128726700D01*
X85172200Y-137338700D01*
G37*
G36*
X42749473Y-135698538D02*
G01*
X42877049Y-135751382D01*
X42991859Y-135828095D01*
X43089505Y-135925741D01*
X43166218Y-136040551D01*
X43219062Y-136168127D01*
X43246000Y-136303556D01*
X43246000Y-136441644D01*
X43219062Y-136577073D01*
X43166218Y-136704649D01*
X43089505Y-136819459D01*
X42991859Y-136917105D01*
X42877049Y-136993818D01*
X42749473Y-137046662D01*
X42614044Y-137073600D01*
X42475956Y-137073600D01*
X42340527Y-137046662D01*
X42212951Y-136993818D01*
X42098141Y-136917105D01*
X42000495Y-136819459D01*
X41923782Y-136704649D01*
X41870938Y-136577073D01*
X41844000Y-136441644D01*
X41844000Y-136303556D01*
X41870938Y-136168127D01*
X41923782Y-136040551D01*
X42000495Y-135925741D01*
X42098141Y-135828095D01*
X42212951Y-135751382D01*
X42340527Y-135698538D01*
X42475956Y-135671600D01*
X42614044Y-135671600D01*
X42749473Y-135698538D01*
G37*
G36*
X175380300Y-136970400D02*
G01*
X167408300Y-136970400D01*
X167408300Y-128358400D01*
X175380300Y-128358400D01*
X175380300Y-136970400D01*
G37*
G36*
X367229000Y-136840900D02*
G01*
X358617000Y-136840900D01*
X358617000Y-128868900D01*
X367229000Y-128868900D01*
X367229000Y-136840900D01*
G37*
G36*
X372504000Y-136270900D02*
G01*
X368592000Y-136270900D01*
X368592000Y-134518900D01*
X372504000Y-134518900D01*
X372504000Y-136270900D01*
G37*
G36*
X348513700Y-136105800D02*
G01*
X344601700Y-136105800D01*
X344601700Y-134353800D01*
X348513700Y-134353800D01*
X348513700Y-136105800D01*
G37*
G36*
X45289473Y-134428538D02*
G01*
X45417049Y-134481382D01*
X45531859Y-134558095D01*
X45629505Y-134655741D01*
X45706218Y-134770551D01*
X45759062Y-134898127D01*
X45786000Y-135033556D01*
X45786000Y-135171644D01*
X45759062Y-135307073D01*
X45706218Y-135434649D01*
X45629505Y-135549459D01*
X45531859Y-135647105D01*
X45417049Y-135723818D01*
X45289473Y-135776662D01*
X45154044Y-135803600D01*
X45015956Y-135803600D01*
X44880527Y-135776662D01*
X44752951Y-135723818D01*
X44638141Y-135647105D01*
X44540495Y-135549459D01*
X44463782Y-135434649D01*
X44410938Y-135307073D01*
X44384000Y-135171644D01*
X44384000Y-135033556D01*
X44410938Y-134898127D01*
X44463782Y-134770551D01*
X44540495Y-134655741D01*
X44638141Y-134558095D01*
X44752951Y-134481382D01*
X44880527Y-134428538D01*
X45015956Y-134401600D01*
X45154044Y-134401600D01*
X45289473Y-134428538D01*
G37*
G36*
X42749473Y-133158538D02*
G01*
X42877049Y-133211382D01*
X42991859Y-133288095D01*
X43089505Y-133385741D01*
X43166218Y-133500551D01*
X43219062Y-133628127D01*
X43246000Y-133763556D01*
X43246000Y-133901644D01*
X43219062Y-134037073D01*
X43166218Y-134164649D01*
X43089505Y-134279459D01*
X42991859Y-134377105D01*
X42877049Y-134453818D01*
X42749473Y-134506662D01*
X42614044Y-134533600D01*
X42475956Y-134533600D01*
X42340527Y-134506662D01*
X42212951Y-134453818D01*
X42098141Y-134377105D01*
X42000495Y-134279459D01*
X41923782Y-134164649D01*
X41870938Y-134037073D01*
X41844000Y-133901644D01*
X41844000Y-133763556D01*
X41870938Y-133628127D01*
X41923782Y-133500551D01*
X42000495Y-133385741D01*
X42098141Y-133288095D01*
X42212951Y-133211382D01*
X42340527Y-133158538D01*
X42475956Y-133131600D01*
X42614044Y-133131600D01*
X42749473Y-133158538D01*
G37*
G36*
X44351564Y-131421989D02*
G01*
X44542833Y-131501215D01*
X44542835Y-131501216D01*
X44714973Y-131616235D01*
X44861365Y-131762627D01*
X44976385Y-131934767D01*
X45055611Y-132126036D01*
X45096000Y-132329084D01*
X45096000Y-132536116D01*
X45055611Y-132739164D01*
X44976385Y-132930433D01*
X44976384Y-132930435D01*
X44861365Y-133102573D01*
X44714973Y-133248965D01*
X44542835Y-133363984D01*
X44542834Y-133363985D01*
X44542833Y-133363985D01*
X44351564Y-133443211D01*
X44148516Y-133483600D01*
X43941484Y-133483600D01*
X43738436Y-133443211D01*
X43547167Y-133363985D01*
X43547166Y-133363985D01*
X43547165Y-133363984D01*
X43375027Y-133248965D01*
X43228635Y-133102573D01*
X43113616Y-132930435D01*
X43113615Y-132930433D01*
X43034389Y-132739164D01*
X42994000Y-132536116D01*
X42994000Y-132329084D01*
X43034389Y-132126036D01*
X43113615Y-131934767D01*
X43228635Y-131762627D01*
X43375027Y-131616235D01*
X43547165Y-131501216D01*
X43547167Y-131501215D01*
X43738436Y-131421989D01*
X43941484Y-131381600D01*
X44148516Y-131381600D01*
X44351564Y-131421989D01*
G37*
G36*
X372504000Y-131190900D02*
G01*
X368592000Y-131190900D01*
X368592000Y-129438900D01*
X372504000Y-129438900D01*
X372504000Y-131190900D01*
G37*
G36*
X345042673Y-124776738D02*
G01*
X345170249Y-124829582D01*
X345285059Y-124906295D01*
X345382705Y-125003941D01*
X345459418Y-125118751D01*
X345512262Y-125246327D01*
X345539200Y-125381756D01*
X345539200Y-125519844D01*
X345512262Y-125655273D01*
X345459418Y-125782849D01*
X345382705Y-125897659D01*
X345285059Y-125995305D01*
X345170249Y-126072018D01*
X345042673Y-126124862D01*
X344907244Y-126151800D01*
X344769156Y-126151800D01*
X344633727Y-126124862D01*
X344506151Y-126072018D01*
X344391341Y-125995305D01*
X344293695Y-125897659D01*
X344216982Y-125782849D01*
X344164138Y-125655273D01*
X344137200Y-125519844D01*
X344137200Y-125381756D01*
X344164138Y-125246327D01*
X344216982Y-125118751D01*
X344293695Y-125003941D01*
X344391341Y-124906295D01*
X344506151Y-124829582D01*
X344633727Y-124776738D01*
X344769156Y-124749800D01*
X344907244Y-124749800D01*
X345042673Y-124776738D01*
G37*
G36*
X342502673Y-123506738D02*
G01*
X342630249Y-123559582D01*
X342745059Y-123636295D01*
X342842705Y-123733941D01*
X342919418Y-123848751D01*
X342972262Y-123976327D01*
X342999200Y-124111756D01*
X342999200Y-124249844D01*
X342972262Y-124385273D01*
X342919418Y-124512849D01*
X342842705Y-124627659D01*
X342745059Y-124725305D01*
X342630249Y-124802018D01*
X342502673Y-124854862D01*
X342367244Y-124881800D01*
X342229156Y-124881800D01*
X342093727Y-124854862D01*
X341966151Y-124802018D01*
X341851341Y-124725305D01*
X341753695Y-124627659D01*
X341676982Y-124512849D01*
X341624138Y-124385273D01*
X341597200Y-124249844D01*
X341597200Y-124111756D01*
X341624138Y-123976327D01*
X341676982Y-123848751D01*
X341753695Y-123733941D01*
X341851341Y-123636295D01*
X341966151Y-123559582D01*
X342093727Y-123506738D01*
X342229156Y-123479800D01*
X342367244Y-123479800D01*
X342502673Y-123506738D01*
G37*
G36*
X355977373Y-123201938D02*
G01*
X356104949Y-123254782D01*
X356219759Y-123331495D01*
X356317405Y-123429141D01*
X356394118Y-123543951D01*
X356446962Y-123671527D01*
X356473900Y-123806956D01*
X356473900Y-123945044D01*
X356446962Y-124080473D01*
X356394118Y-124208049D01*
X356317405Y-124322859D01*
X356219759Y-124420505D01*
X356104949Y-124497218D01*
X355977373Y-124550062D01*
X355841944Y-124577000D01*
X355703856Y-124577000D01*
X355568427Y-124550062D01*
X355440851Y-124497218D01*
X355326041Y-124420505D01*
X355228395Y-124322859D01*
X355151682Y-124208049D01*
X355098838Y-124080473D01*
X355071900Y-123945044D01*
X355071900Y-123806956D01*
X355098838Y-123671527D01*
X355151682Y-123543951D01*
X355228395Y-123429141D01*
X355326041Y-123331495D01*
X355440851Y-123254782D01*
X355568427Y-123201938D01*
X355703856Y-123175000D01*
X355841944Y-123175000D01*
X355977373Y-123201938D01*
G37*
G36*
X366340573Y-122490738D02*
G01*
X366468149Y-122543582D01*
X366582959Y-122620295D01*
X366680605Y-122717941D01*
X366757318Y-122832751D01*
X366810162Y-122960327D01*
X366837100Y-123095756D01*
X366837100Y-123233844D01*
X366810162Y-123369273D01*
X366757318Y-123496849D01*
X366680605Y-123611659D01*
X366582959Y-123709305D01*
X366468149Y-123786018D01*
X366340573Y-123838862D01*
X366205144Y-123865800D01*
X366067056Y-123865800D01*
X365931627Y-123838862D01*
X365804051Y-123786018D01*
X365689241Y-123709305D01*
X365591595Y-123611659D01*
X365514882Y-123496849D01*
X365462038Y-123369273D01*
X365435100Y-123233844D01*
X365435100Y-123095756D01*
X365462038Y-122960327D01*
X365514882Y-122832751D01*
X365591595Y-122717941D01*
X365689241Y-122620295D01*
X365804051Y-122543582D01*
X365931627Y-122490738D01*
X366067056Y-122463800D01*
X366205144Y-122463800D01*
X366340573Y-122490738D01*
G37*
G36*
X345042673Y-122236738D02*
G01*
X345170249Y-122289582D01*
X345285059Y-122366295D01*
X345382705Y-122463941D01*
X345459418Y-122578751D01*
X345512262Y-122706327D01*
X345539200Y-122841756D01*
X345539200Y-122979844D01*
X345512262Y-123115273D01*
X345459418Y-123242849D01*
X345382705Y-123357659D01*
X345285059Y-123455305D01*
X345170249Y-123532018D01*
X345042673Y-123584862D01*
X344907244Y-123611800D01*
X344769156Y-123611800D01*
X344633727Y-123584862D01*
X344506151Y-123532018D01*
X344391341Y-123455305D01*
X344293695Y-123357659D01*
X344216982Y-123242849D01*
X344164138Y-123115273D01*
X344137200Y-122979844D01*
X344137200Y-122841756D01*
X344164138Y-122706327D01*
X344216982Y-122578751D01*
X344293695Y-122463941D01*
X344391341Y-122366295D01*
X344506151Y-122289582D01*
X344633727Y-122236738D01*
X344769156Y-122209800D01*
X344907244Y-122209800D01*
X345042673Y-122236738D01*
G37*
G36*
X353437373Y-121931938D02*
G01*
X353564949Y-121984782D01*
X353679759Y-122061495D01*
X353777405Y-122159141D01*
X353854118Y-122273951D01*
X353906962Y-122401527D01*
X353933900Y-122536956D01*
X353933900Y-122675044D01*
X353906962Y-122810473D01*
X353854118Y-122938049D01*
X353777405Y-123052859D01*
X353679759Y-123150505D01*
X353564949Y-123227218D01*
X353437373Y-123280062D01*
X353301944Y-123307000D01*
X353163856Y-123307000D01*
X353028427Y-123280062D01*
X352900851Y-123227218D01*
X352786041Y-123150505D01*
X352688395Y-123052859D01*
X352611682Y-122938049D01*
X352558838Y-122810473D01*
X352531900Y-122675044D01*
X352531900Y-122536956D01*
X352558838Y-122401527D01*
X352611682Y-122273951D01*
X352688395Y-122159141D01*
X352786041Y-122061495D01*
X352900851Y-121984782D01*
X353028427Y-121931938D01*
X353163856Y-121905000D01*
X353301944Y-121905000D01*
X353437373Y-121931938D01*
G37*
G36*
X376411673Y-121677938D02*
G01*
X376539249Y-121730782D01*
X376654059Y-121807495D01*
X376751705Y-121905141D01*
X376828418Y-122019951D01*
X376881262Y-122147527D01*
X376908200Y-122282956D01*
X376908200Y-122421044D01*
X376881262Y-122556473D01*
X376828418Y-122684049D01*
X376751705Y-122798859D01*
X376654059Y-122896505D01*
X376539249Y-122973218D01*
X376411673Y-123026062D01*
X376276244Y-123053000D01*
X376138156Y-123053000D01*
X376002727Y-123026062D01*
X375875151Y-122973218D01*
X375760341Y-122896505D01*
X375662695Y-122798859D01*
X375585982Y-122684049D01*
X375533138Y-122556473D01*
X375506200Y-122421044D01*
X375506200Y-122282956D01*
X375533138Y-122147527D01*
X375585982Y-122019951D01*
X375662695Y-121905141D01*
X375760341Y-121807495D01*
X375875151Y-121730782D01*
X376002727Y-121677938D01*
X376138156Y-121651000D01*
X376276244Y-121651000D01*
X376411673Y-121677938D01*
G37*
G36*
X363800573Y-121220738D02*
G01*
X363928149Y-121273582D01*
X364042959Y-121350295D01*
X364140605Y-121447941D01*
X364217318Y-121562751D01*
X364270162Y-121690327D01*
X364297100Y-121825756D01*
X364297100Y-121963844D01*
X364270162Y-122099273D01*
X364217318Y-122226849D01*
X364140605Y-122341659D01*
X364042959Y-122439305D01*
X363928149Y-122516018D01*
X363800573Y-122568862D01*
X363665144Y-122595800D01*
X363527056Y-122595800D01*
X363391627Y-122568862D01*
X363264051Y-122516018D01*
X363149241Y-122439305D01*
X363051595Y-122341659D01*
X362974882Y-122226849D01*
X362922038Y-122099273D01*
X362895100Y-121963844D01*
X362895100Y-121825756D01*
X362922038Y-121690327D01*
X362974882Y-121562751D01*
X363051595Y-121447941D01*
X363149241Y-121350295D01*
X363264051Y-121273582D01*
X363391627Y-121220738D01*
X363527056Y-121193800D01*
X363665144Y-121193800D01*
X363800573Y-121220738D01*
G37*
G36*
X342502673Y-120966738D02*
G01*
X342630249Y-121019582D01*
X342745059Y-121096295D01*
X342842705Y-121193941D01*
X342919418Y-121308751D01*
X342972262Y-121436327D01*
X342999200Y-121571756D01*
X342999200Y-121709844D01*
X342972262Y-121845273D01*
X342919418Y-121972849D01*
X342842705Y-122087659D01*
X342745059Y-122185305D01*
X342630249Y-122262018D01*
X342502673Y-122314862D01*
X342367244Y-122341800D01*
X342229156Y-122341800D01*
X342093727Y-122314862D01*
X341966151Y-122262018D01*
X341851341Y-122185305D01*
X341753695Y-122087659D01*
X341676982Y-121972849D01*
X341624138Y-121845273D01*
X341597200Y-121709844D01*
X341597200Y-121571756D01*
X341624138Y-121436327D01*
X341676982Y-121308751D01*
X341753695Y-121193941D01*
X341851341Y-121096295D01*
X341966151Y-121019582D01*
X342093727Y-120966738D01*
X342229156Y-120939800D01*
X342367244Y-120939800D01*
X342502673Y-120966738D01*
G37*
G36*
X355977373Y-120661938D02*
G01*
X356104949Y-120714782D01*
X356219759Y-120791495D01*
X356317405Y-120889141D01*
X356394118Y-121003951D01*
X356446962Y-121131527D01*
X356473900Y-121266956D01*
X356473900Y-121405044D01*
X356446962Y-121540473D01*
X356394118Y-121668049D01*
X356317405Y-121782859D01*
X356219759Y-121880505D01*
X356104949Y-121957218D01*
X355977373Y-122010062D01*
X355841944Y-122037000D01*
X355703856Y-122037000D01*
X355568427Y-122010062D01*
X355440851Y-121957218D01*
X355326041Y-121880505D01*
X355228395Y-121782859D01*
X355151682Y-121668049D01*
X355098838Y-121540473D01*
X355071900Y-121405044D01*
X355071900Y-121266956D01*
X355098838Y-121131527D01*
X355151682Y-121003951D01*
X355228395Y-120889141D01*
X355326041Y-120791495D01*
X355440851Y-120714782D01*
X355568427Y-120661938D01*
X355703856Y-120635000D01*
X355841944Y-120635000D01*
X355977373Y-120661938D01*
G37*
G36*
X373871673Y-120407938D02*
G01*
X373999249Y-120460782D01*
X374114059Y-120537495D01*
X374211705Y-120635141D01*
X374288418Y-120749951D01*
X374341262Y-120877527D01*
X374368200Y-121012956D01*
X374368200Y-121151044D01*
X374341262Y-121286473D01*
X374288418Y-121414049D01*
X374211705Y-121528859D01*
X374114059Y-121626505D01*
X373999249Y-121703218D01*
X373871673Y-121756062D01*
X373736244Y-121783000D01*
X373598156Y-121783000D01*
X373462727Y-121756062D01*
X373335151Y-121703218D01*
X373220341Y-121626505D01*
X373122695Y-121528859D01*
X373045982Y-121414049D01*
X372993138Y-121286473D01*
X372966200Y-121151044D01*
X372966200Y-121012956D01*
X372993138Y-120877527D01*
X373045982Y-120749951D01*
X373122695Y-120635141D01*
X373220341Y-120537495D01*
X373335151Y-120460782D01*
X373462727Y-120407938D01*
X373598156Y-120381000D01*
X373736244Y-120381000D01*
X373871673Y-120407938D01*
G37*
G36*
X366340573Y-119950738D02*
G01*
X366468149Y-120003582D01*
X366582959Y-120080295D01*
X366680605Y-120177941D01*
X366757318Y-120292751D01*
X366810162Y-120420327D01*
X366837100Y-120555756D01*
X366837100Y-120693844D01*
X366810162Y-120829273D01*
X366757318Y-120956849D01*
X366680605Y-121071659D01*
X366582959Y-121169305D01*
X366468149Y-121246018D01*
X366340573Y-121298862D01*
X366205144Y-121325800D01*
X366067056Y-121325800D01*
X365931627Y-121298862D01*
X365804051Y-121246018D01*
X365689241Y-121169305D01*
X365591595Y-121071659D01*
X365514882Y-120956849D01*
X365462038Y-120829273D01*
X365435100Y-120693844D01*
X365435100Y-120555756D01*
X365462038Y-120420327D01*
X365514882Y-120292751D01*
X365591595Y-120177941D01*
X365689241Y-120080295D01*
X365804051Y-120003582D01*
X365931627Y-119950738D01*
X366067056Y-119923800D01*
X366205144Y-119923800D01*
X366340573Y-119950738D01*
G37*
G36*
X345042673Y-119696738D02*
G01*
X345170249Y-119749582D01*
X345285059Y-119826295D01*
X345382705Y-119923941D01*
X345459418Y-120038751D01*
X345512262Y-120166327D01*
X345539200Y-120301756D01*
X345539200Y-120439844D01*
X345512262Y-120575273D01*
X345459418Y-120702849D01*
X345382705Y-120817659D01*
X345285059Y-120915305D01*
X345170249Y-120992018D01*
X345042673Y-121044862D01*
X344907244Y-121071800D01*
X344769156Y-121071800D01*
X344633727Y-121044862D01*
X344506151Y-120992018D01*
X344391341Y-120915305D01*
X344293695Y-120817659D01*
X344216982Y-120702849D01*
X344164138Y-120575273D01*
X344137200Y-120439844D01*
X344137200Y-120301756D01*
X344164138Y-120166327D01*
X344216982Y-120038751D01*
X344293695Y-119923941D01*
X344391341Y-119826295D01*
X344506151Y-119749582D01*
X344633727Y-119696738D01*
X344769156Y-119669800D01*
X344907244Y-119669800D01*
X345042673Y-119696738D01*
G37*
G36*
X353437373Y-119391938D02*
G01*
X353564949Y-119444782D01*
X353679759Y-119521495D01*
X353777405Y-119619141D01*
X353854118Y-119733951D01*
X353906962Y-119861527D01*
X353933900Y-119996956D01*
X353933900Y-120135044D01*
X353906962Y-120270473D01*
X353854118Y-120398049D01*
X353777405Y-120512859D01*
X353679759Y-120610505D01*
X353564949Y-120687218D01*
X353437373Y-120740062D01*
X353301944Y-120767000D01*
X353163856Y-120767000D01*
X353028427Y-120740062D01*
X352900851Y-120687218D01*
X352786041Y-120610505D01*
X352688395Y-120512859D01*
X352611682Y-120398049D01*
X352558838Y-120270473D01*
X352531900Y-120135044D01*
X352531900Y-119996956D01*
X352558838Y-119861527D01*
X352611682Y-119733951D01*
X352688395Y-119619141D01*
X352786041Y-119521495D01*
X352900851Y-119444782D01*
X353028427Y-119391938D01*
X353163856Y-119365000D01*
X353301944Y-119365000D01*
X353437373Y-119391938D01*
G37*
G36*
X376411673Y-119137938D02*
G01*
X376539249Y-119190782D01*
X376654059Y-119267495D01*
X376751705Y-119365141D01*
X376828418Y-119479951D01*
X376881262Y-119607527D01*
X376908200Y-119742956D01*
X376908200Y-119881044D01*
X376881262Y-120016473D01*
X376828418Y-120144049D01*
X376751705Y-120258859D01*
X376654059Y-120356505D01*
X376539249Y-120433218D01*
X376411673Y-120486062D01*
X376276244Y-120513000D01*
X376138156Y-120513000D01*
X376002727Y-120486062D01*
X375875151Y-120433218D01*
X375760341Y-120356505D01*
X375662695Y-120258859D01*
X375585982Y-120144049D01*
X375533138Y-120016473D01*
X375506200Y-119881044D01*
X375506200Y-119742956D01*
X375533138Y-119607527D01*
X375585982Y-119479951D01*
X375662695Y-119365141D01*
X375760341Y-119267495D01*
X375875151Y-119190782D01*
X376002727Y-119137938D01*
X376138156Y-119111000D01*
X376276244Y-119111000D01*
X376411673Y-119137938D01*
G37*
G36*
X363800573Y-118680738D02*
G01*
X363928149Y-118733582D01*
X364042959Y-118810295D01*
X364140605Y-118907941D01*
X364217318Y-119022751D01*
X364270162Y-119150327D01*
X364297100Y-119285756D01*
X364297100Y-119423844D01*
X364270162Y-119559273D01*
X364217318Y-119686849D01*
X364140605Y-119801659D01*
X364042959Y-119899305D01*
X363928149Y-119976018D01*
X363800573Y-120028862D01*
X363665144Y-120055800D01*
X363527056Y-120055800D01*
X363391627Y-120028862D01*
X363264051Y-119976018D01*
X363149241Y-119899305D01*
X363051595Y-119801659D01*
X362974882Y-119686849D01*
X362922038Y-119559273D01*
X362895100Y-119423844D01*
X362895100Y-119285756D01*
X362922038Y-119150327D01*
X362974882Y-119022751D01*
X363051595Y-118907941D01*
X363149241Y-118810295D01*
X363264051Y-118733582D01*
X363391627Y-118680738D01*
X363527056Y-118653800D01*
X363665144Y-118653800D01*
X363800573Y-118680738D01*
G37*
G36*
X342502673Y-118426738D02*
G01*
X342630249Y-118479582D01*
X342745059Y-118556295D01*
X342842705Y-118653941D01*
X342919418Y-118768751D01*
X342972262Y-118896327D01*
X342999200Y-119031756D01*
X342999200Y-119169844D01*
X342972262Y-119305273D01*
X342919418Y-119432849D01*
X342842705Y-119547659D01*
X342745059Y-119645305D01*
X342630249Y-119722018D01*
X342502673Y-119774862D01*
X342367244Y-119801800D01*
X342229156Y-119801800D01*
X342093727Y-119774862D01*
X341966151Y-119722018D01*
X341851341Y-119645305D01*
X341753695Y-119547659D01*
X341676982Y-119432849D01*
X341624138Y-119305273D01*
X341597200Y-119169844D01*
X341597200Y-119031756D01*
X341624138Y-118896327D01*
X341676982Y-118768751D01*
X341753695Y-118653941D01*
X341851341Y-118556295D01*
X341966151Y-118479582D01*
X342093727Y-118426738D01*
X342229156Y-118399800D01*
X342367244Y-118399800D01*
X342502673Y-118426738D01*
G37*
G36*
X355977373Y-118121938D02*
G01*
X356104949Y-118174782D01*
X356219759Y-118251495D01*
X356317405Y-118349141D01*
X356394118Y-118463951D01*
X356446962Y-118591527D01*
X356473900Y-118726956D01*
X356473900Y-118865044D01*
X356446962Y-119000473D01*
X356394118Y-119128049D01*
X356317405Y-119242859D01*
X356219759Y-119340505D01*
X356104949Y-119417218D01*
X355977373Y-119470062D01*
X355841944Y-119497000D01*
X355703856Y-119497000D01*
X355568427Y-119470062D01*
X355440851Y-119417218D01*
X355326041Y-119340505D01*
X355228395Y-119242859D01*
X355151682Y-119128049D01*
X355098838Y-119000473D01*
X355071900Y-118865044D01*
X355071900Y-118726956D01*
X355098838Y-118591527D01*
X355151682Y-118463951D01*
X355228395Y-118349141D01*
X355326041Y-118251495D01*
X355440851Y-118174782D01*
X355568427Y-118121938D01*
X355703856Y-118095000D01*
X355841944Y-118095000D01*
X355977373Y-118121938D01*
G37*
G36*
X373871673Y-117867938D02*
G01*
X373999249Y-117920782D01*
X374114059Y-117997495D01*
X374211705Y-118095141D01*
X374288418Y-118209951D01*
X374341262Y-118337527D01*
X374368200Y-118472956D01*
X374368200Y-118611044D01*
X374341262Y-118746473D01*
X374288418Y-118874049D01*
X374211705Y-118988859D01*
X374114059Y-119086505D01*
X373999249Y-119163218D01*
X373871673Y-119216062D01*
X373736244Y-119243000D01*
X373598156Y-119243000D01*
X373462727Y-119216062D01*
X373335151Y-119163218D01*
X373220341Y-119086505D01*
X373122695Y-118988859D01*
X373045982Y-118874049D01*
X372993138Y-118746473D01*
X372966200Y-118611044D01*
X372966200Y-118472956D01*
X372993138Y-118337527D01*
X373045982Y-118209951D01*
X373122695Y-118095141D01*
X373220341Y-117997495D01*
X373335151Y-117920782D01*
X373462727Y-117867938D01*
X373598156Y-117841000D01*
X373736244Y-117841000D01*
X373871673Y-117867938D01*
G37*
G36*
X366340573Y-117410738D02*
G01*
X366468149Y-117463582D01*
X366582959Y-117540295D01*
X366680605Y-117637941D01*
X366757318Y-117752751D01*
X366810162Y-117880327D01*
X366837100Y-118015756D01*
X366837100Y-118153844D01*
X366810162Y-118289273D01*
X366757318Y-118416849D01*
X366680605Y-118531659D01*
X366582959Y-118629305D01*
X366468149Y-118706018D01*
X366340573Y-118758862D01*
X366205144Y-118785800D01*
X366067056Y-118785800D01*
X365931627Y-118758862D01*
X365804051Y-118706018D01*
X365689241Y-118629305D01*
X365591595Y-118531659D01*
X365514882Y-118416849D01*
X365462038Y-118289273D01*
X365435100Y-118153844D01*
X365435100Y-118015756D01*
X365462038Y-117880327D01*
X365514882Y-117752751D01*
X365591595Y-117637941D01*
X365689241Y-117540295D01*
X365804051Y-117463582D01*
X365931627Y-117410738D01*
X366067056Y-117383800D01*
X366205144Y-117383800D01*
X366340573Y-117410738D01*
G37*
G36*
X345042673Y-117156738D02*
G01*
X345170249Y-117209582D01*
X345285059Y-117286295D01*
X345382705Y-117383941D01*
X345459418Y-117498751D01*
X345512262Y-117626327D01*
X345539200Y-117761756D01*
X345539200Y-117899844D01*
X345512262Y-118035273D01*
X345459418Y-118162849D01*
X345382705Y-118277659D01*
X345285059Y-118375305D01*
X345170249Y-118452018D01*
X345042673Y-118504862D01*
X344907244Y-118531800D01*
X344769156Y-118531800D01*
X344633727Y-118504862D01*
X344506151Y-118452018D01*
X344391341Y-118375305D01*
X344293695Y-118277659D01*
X344216982Y-118162849D01*
X344164138Y-118035273D01*
X344137200Y-117899844D01*
X344137200Y-117761756D01*
X344164138Y-117626327D01*
X344216982Y-117498751D01*
X344293695Y-117383941D01*
X344391341Y-117286295D01*
X344506151Y-117209582D01*
X344633727Y-117156738D01*
X344769156Y-117129800D01*
X344907244Y-117129800D01*
X345042673Y-117156738D01*
G37*
G36*
X353437373Y-116851938D02*
G01*
X353564949Y-116904782D01*
X353679759Y-116981495D01*
X353777405Y-117079141D01*
X353854118Y-117193951D01*
X353906962Y-117321527D01*
X353933900Y-117456956D01*
X353933900Y-117595044D01*
X353906962Y-117730473D01*
X353854118Y-117858049D01*
X353777405Y-117972859D01*
X353679759Y-118070505D01*
X353564949Y-118147218D01*
X353437373Y-118200062D01*
X353301944Y-118227000D01*
X353163856Y-118227000D01*
X353028427Y-118200062D01*
X352900851Y-118147218D01*
X352786041Y-118070505D01*
X352688395Y-117972859D01*
X352611682Y-117858049D01*
X352558838Y-117730473D01*
X352531900Y-117595044D01*
X352531900Y-117456956D01*
X352558838Y-117321527D01*
X352611682Y-117193951D01*
X352688395Y-117079141D01*
X352786041Y-116981495D01*
X352900851Y-116904782D01*
X353028427Y-116851938D01*
X353163856Y-116825000D01*
X353301944Y-116825000D01*
X353437373Y-116851938D01*
G37*
G36*
X376411673Y-116597938D02*
G01*
X376539249Y-116650782D01*
X376654059Y-116727495D01*
X376751705Y-116825141D01*
X376828418Y-116939951D01*
X376881262Y-117067527D01*
X376908200Y-117202956D01*
X376908200Y-117341044D01*
X376881262Y-117476473D01*
X376828418Y-117604049D01*
X376751705Y-117718859D01*
X376654059Y-117816505D01*
X376539249Y-117893218D01*
X376411673Y-117946062D01*
X376276244Y-117973000D01*
X376138156Y-117973000D01*
X376002727Y-117946062D01*
X375875151Y-117893218D01*
X375760341Y-117816505D01*
X375662695Y-117718859D01*
X375585982Y-117604049D01*
X375533138Y-117476473D01*
X375506200Y-117341044D01*
X375506200Y-117202956D01*
X375533138Y-117067527D01*
X375585982Y-116939951D01*
X375662695Y-116825141D01*
X375760341Y-116727495D01*
X375875151Y-116650782D01*
X376002727Y-116597938D01*
X376138156Y-116571000D01*
X376276244Y-116571000D01*
X376411673Y-116597938D01*
G37*
G36*
X363800573Y-116140738D02*
G01*
X363928149Y-116193582D01*
X364042959Y-116270295D01*
X364140605Y-116367941D01*
X364217318Y-116482751D01*
X364270162Y-116610327D01*
X364297100Y-116745756D01*
X364297100Y-116883844D01*
X364270162Y-117019273D01*
X364217318Y-117146849D01*
X364140605Y-117261659D01*
X364042959Y-117359305D01*
X363928149Y-117436018D01*
X363800573Y-117488862D01*
X363665144Y-117515800D01*
X363527056Y-117515800D01*
X363391627Y-117488862D01*
X363264051Y-117436018D01*
X363149241Y-117359305D01*
X363051595Y-117261659D01*
X362974882Y-117146849D01*
X362922038Y-117019273D01*
X362895100Y-116883844D01*
X362895100Y-116745756D01*
X362922038Y-116610327D01*
X362974882Y-116482751D01*
X363051595Y-116367941D01*
X363149241Y-116270295D01*
X363264051Y-116193582D01*
X363391627Y-116140738D01*
X363527056Y-116113800D01*
X363665144Y-116113800D01*
X363800573Y-116140738D01*
G37*
G36*
X342502673Y-115886738D02*
G01*
X342630249Y-115939582D01*
X342745059Y-116016295D01*
X342842705Y-116113941D01*
X342919418Y-116228751D01*
X342972262Y-116356327D01*
X342999200Y-116491756D01*
X342999200Y-116629844D01*
X342972262Y-116765273D01*
X342919418Y-116892849D01*
X342842705Y-117007659D01*
X342745059Y-117105305D01*
X342630249Y-117182018D01*
X342502673Y-117234862D01*
X342367244Y-117261800D01*
X342229156Y-117261800D01*
X342093727Y-117234862D01*
X341966151Y-117182018D01*
X341851341Y-117105305D01*
X341753695Y-117007659D01*
X341676982Y-116892849D01*
X341624138Y-116765273D01*
X341597200Y-116629844D01*
X341597200Y-116491756D01*
X341624138Y-116356327D01*
X341676982Y-116228751D01*
X341753695Y-116113941D01*
X341851341Y-116016295D01*
X341966151Y-115939582D01*
X342093727Y-115886738D01*
X342229156Y-115859800D01*
X342367244Y-115859800D01*
X342502673Y-115886738D01*
G37*
G36*
X355977373Y-115581938D02*
G01*
X356104949Y-115634782D01*
X356219759Y-115711495D01*
X356317405Y-115809141D01*
X356394118Y-115923951D01*
X356446962Y-116051527D01*
X356473900Y-116186956D01*
X356473900Y-116325044D01*
X356446962Y-116460473D01*
X356394118Y-116588049D01*
X356317405Y-116702859D01*
X356219759Y-116800505D01*
X356104949Y-116877218D01*
X355977373Y-116930062D01*
X355841944Y-116957000D01*
X355703856Y-116957000D01*
X355568427Y-116930062D01*
X355440851Y-116877218D01*
X355326041Y-116800505D01*
X355228395Y-116702859D01*
X355151682Y-116588049D01*
X355098838Y-116460473D01*
X355071900Y-116325044D01*
X355071900Y-116186956D01*
X355098838Y-116051527D01*
X355151682Y-115923951D01*
X355228395Y-115809141D01*
X355326041Y-115711495D01*
X355440851Y-115634782D01*
X355568427Y-115581938D01*
X355703856Y-115555000D01*
X355841944Y-115555000D01*
X355977373Y-115581938D01*
G37*
G36*
X373871673Y-115327938D02*
G01*
X373999249Y-115380782D01*
X374114059Y-115457495D01*
X374211705Y-115555141D01*
X374288418Y-115669951D01*
X374341262Y-115797527D01*
X374368200Y-115932956D01*
X374368200Y-116071044D01*
X374341262Y-116206473D01*
X374288418Y-116334049D01*
X374211705Y-116448859D01*
X374114059Y-116546505D01*
X373999249Y-116623218D01*
X373871673Y-116676062D01*
X373736244Y-116703000D01*
X373598156Y-116703000D01*
X373462727Y-116676062D01*
X373335151Y-116623218D01*
X373220341Y-116546505D01*
X373122695Y-116448859D01*
X373045982Y-116334049D01*
X372993138Y-116206473D01*
X372966200Y-116071044D01*
X372966200Y-115932956D01*
X372993138Y-115797527D01*
X373045982Y-115669951D01*
X373122695Y-115555141D01*
X373220341Y-115457495D01*
X373335151Y-115380782D01*
X373462727Y-115327938D01*
X373598156Y-115301000D01*
X373736244Y-115301000D01*
X373871673Y-115327938D01*
G37*
G36*
X366340573Y-114870738D02*
G01*
X366468149Y-114923582D01*
X366582959Y-115000295D01*
X366680605Y-115097941D01*
X366757318Y-115212751D01*
X366810162Y-115340327D01*
X366837100Y-115475756D01*
X366837100Y-115613844D01*
X366810162Y-115749273D01*
X366757318Y-115876849D01*
X366680605Y-115991659D01*
X366582959Y-116089305D01*
X366468149Y-116166018D01*
X366340573Y-116218862D01*
X366205144Y-116245800D01*
X366067056Y-116245800D01*
X365931627Y-116218862D01*
X365804051Y-116166018D01*
X365689241Y-116089305D01*
X365591595Y-115991659D01*
X365514882Y-115876849D01*
X365462038Y-115749273D01*
X365435100Y-115613844D01*
X365435100Y-115475756D01*
X365462038Y-115340327D01*
X365514882Y-115212751D01*
X365591595Y-115097941D01*
X365689241Y-115000295D01*
X365804051Y-114923582D01*
X365931627Y-114870738D01*
X366067056Y-114843800D01*
X366205144Y-114843800D01*
X366340573Y-114870738D01*
G37*
G36*
X345042673Y-114616738D02*
G01*
X345170249Y-114669582D01*
X345285059Y-114746295D01*
X345382705Y-114843941D01*
X345459418Y-114958751D01*
X345512262Y-115086327D01*
X345539200Y-115221756D01*
X345539200Y-115359844D01*
X345512262Y-115495273D01*
X345459418Y-115622849D01*
X345382705Y-115737659D01*
X345285059Y-115835305D01*
X345170249Y-115912018D01*
X345042673Y-115964862D01*
X344907244Y-115991800D01*
X344769156Y-115991800D01*
X344633727Y-115964862D01*
X344506151Y-115912018D01*
X344391341Y-115835305D01*
X344293695Y-115737659D01*
X344216982Y-115622849D01*
X344164138Y-115495273D01*
X344137200Y-115359844D01*
X344137200Y-115221756D01*
X344164138Y-115086327D01*
X344216982Y-114958751D01*
X344293695Y-114843941D01*
X344391341Y-114746295D01*
X344506151Y-114669582D01*
X344633727Y-114616738D01*
X344769156Y-114589800D01*
X344907244Y-114589800D01*
X345042673Y-114616738D01*
G37*
G36*
X353437373Y-114311938D02*
G01*
X353564949Y-114364782D01*
X353679759Y-114441495D01*
X353777405Y-114539141D01*
X353854118Y-114653951D01*
X353906962Y-114781527D01*
X353933900Y-114916956D01*
X353933900Y-115055044D01*
X353906962Y-115190473D01*
X353854118Y-115318049D01*
X353777405Y-115432859D01*
X353679759Y-115530505D01*
X353564949Y-115607218D01*
X353437373Y-115660062D01*
X353301944Y-115687000D01*
X353163856Y-115687000D01*
X353028427Y-115660062D01*
X352900851Y-115607218D01*
X352786041Y-115530505D01*
X352688395Y-115432859D01*
X352611682Y-115318049D01*
X352558838Y-115190473D01*
X352531900Y-115055044D01*
X352531900Y-114916956D01*
X352558838Y-114781527D01*
X352611682Y-114653951D01*
X352688395Y-114539141D01*
X352786041Y-114441495D01*
X352900851Y-114364782D01*
X353028427Y-114311938D01*
X353163856Y-114285000D01*
X353301944Y-114285000D01*
X353437373Y-114311938D01*
G37*
G36*
X376411673Y-114057938D02*
G01*
X376539249Y-114110782D01*
X376654059Y-114187495D01*
X376751705Y-114285141D01*
X376828418Y-114399951D01*
X376881262Y-114527527D01*
X376908200Y-114662956D01*
X376908200Y-114801044D01*
X376881262Y-114936473D01*
X376828418Y-115064049D01*
X376751705Y-115178859D01*
X376654059Y-115276505D01*
X376539249Y-115353218D01*
X376411673Y-115406062D01*
X376276244Y-115433000D01*
X376138156Y-115433000D01*
X376002727Y-115406062D01*
X375875151Y-115353218D01*
X375760341Y-115276505D01*
X375662695Y-115178859D01*
X375585982Y-115064049D01*
X375533138Y-114936473D01*
X375506200Y-114801044D01*
X375506200Y-114662956D01*
X375533138Y-114527527D01*
X375585982Y-114399951D01*
X375662695Y-114285141D01*
X375760341Y-114187495D01*
X375875151Y-114110782D01*
X376002727Y-114057938D01*
X376138156Y-114031000D01*
X376276244Y-114031000D01*
X376411673Y-114057938D01*
G37*
G36*
X363800573Y-113600738D02*
G01*
X363928149Y-113653582D01*
X364042959Y-113730295D01*
X364140605Y-113827941D01*
X364217318Y-113942751D01*
X364270162Y-114070327D01*
X364297100Y-114205756D01*
X364297100Y-114343844D01*
X364270162Y-114479273D01*
X364217318Y-114606849D01*
X364140605Y-114721659D01*
X364042959Y-114819305D01*
X363928149Y-114896018D01*
X363800573Y-114948862D01*
X363665144Y-114975800D01*
X363527056Y-114975800D01*
X363391627Y-114948862D01*
X363264051Y-114896018D01*
X363149241Y-114819305D01*
X363051595Y-114721659D01*
X362974882Y-114606849D01*
X362922038Y-114479273D01*
X362895100Y-114343844D01*
X362895100Y-114205756D01*
X362922038Y-114070327D01*
X362974882Y-113942751D01*
X363051595Y-113827941D01*
X363149241Y-113730295D01*
X363264051Y-113653582D01*
X363391627Y-113600738D01*
X363527056Y-113573800D01*
X363665144Y-113573800D01*
X363800573Y-113600738D01*
G37*
G36*
X342502673Y-113346738D02*
G01*
X342630249Y-113399582D01*
X342745059Y-113476295D01*
X342842705Y-113573941D01*
X342919418Y-113688751D01*
X342972262Y-113816327D01*
X342999200Y-113951756D01*
X342999200Y-114089844D01*
X342972262Y-114225273D01*
X342919418Y-114352849D01*
X342842705Y-114467659D01*
X342745059Y-114565305D01*
X342630249Y-114642018D01*
X342502673Y-114694862D01*
X342367244Y-114721800D01*
X342229156Y-114721800D01*
X342093727Y-114694862D01*
X341966151Y-114642018D01*
X341851341Y-114565305D01*
X341753695Y-114467659D01*
X341676982Y-114352849D01*
X341624138Y-114225273D01*
X341597200Y-114089844D01*
X341597200Y-113951756D01*
X341624138Y-113816327D01*
X341676982Y-113688751D01*
X341753695Y-113573941D01*
X341851341Y-113476295D01*
X341966151Y-113399582D01*
X342093727Y-113346738D01*
X342229156Y-113319800D01*
X342367244Y-113319800D01*
X342502673Y-113346738D01*
G37*
G36*
X355977373Y-113041938D02*
G01*
X356104949Y-113094782D01*
X356219759Y-113171495D01*
X356317405Y-113269141D01*
X356394118Y-113383951D01*
X356446962Y-113511527D01*
X356473900Y-113646956D01*
X356473900Y-113785044D01*
X356446962Y-113920473D01*
X356394118Y-114048049D01*
X356317405Y-114162859D01*
X356219759Y-114260505D01*
X356104949Y-114337218D01*
X355977373Y-114390062D01*
X355841944Y-114417000D01*
X355703856Y-114417000D01*
X355568427Y-114390062D01*
X355440851Y-114337218D01*
X355326041Y-114260505D01*
X355228395Y-114162859D01*
X355151682Y-114048049D01*
X355098838Y-113920473D01*
X355071900Y-113785044D01*
X355071900Y-113646956D01*
X355098838Y-113511527D01*
X355151682Y-113383951D01*
X355228395Y-113269141D01*
X355326041Y-113171495D01*
X355440851Y-113094782D01*
X355568427Y-113041938D01*
X355703856Y-113015000D01*
X355841944Y-113015000D01*
X355977373Y-113041938D01*
G37*
G36*
X373871673Y-112787938D02*
G01*
X373999249Y-112840782D01*
X374114059Y-112917495D01*
X374211705Y-113015141D01*
X374288418Y-113129951D01*
X374341262Y-113257527D01*
X374368200Y-113392956D01*
X374368200Y-113531044D01*
X374341262Y-113666473D01*
X374288418Y-113794049D01*
X374211705Y-113908859D01*
X374114059Y-114006505D01*
X373999249Y-114083218D01*
X373871673Y-114136062D01*
X373736244Y-114163000D01*
X373598156Y-114163000D01*
X373462727Y-114136062D01*
X373335151Y-114083218D01*
X373220341Y-114006505D01*
X373122695Y-113908859D01*
X373045982Y-113794049D01*
X372993138Y-113666473D01*
X372966200Y-113531044D01*
X372966200Y-113392956D01*
X372993138Y-113257527D01*
X373045982Y-113129951D01*
X373122695Y-113015141D01*
X373220341Y-112917495D01*
X373335151Y-112840782D01*
X373462727Y-112787938D01*
X373598156Y-112761000D01*
X373736244Y-112761000D01*
X373871673Y-112787938D01*
G37*
G36*
X366340573Y-112330738D02*
G01*
X366468149Y-112383582D01*
X366582959Y-112460295D01*
X366680605Y-112557941D01*
X366757318Y-112672751D01*
X366810162Y-112800327D01*
X366837100Y-112935756D01*
X366837100Y-113073844D01*
X366810162Y-113209273D01*
X366757318Y-113336849D01*
X366680605Y-113451659D01*
X366582959Y-113549305D01*
X366468149Y-113626018D01*
X366340573Y-113678862D01*
X366205144Y-113705800D01*
X366067056Y-113705800D01*
X365931627Y-113678862D01*
X365804051Y-113626018D01*
X365689241Y-113549305D01*
X365591595Y-113451659D01*
X365514882Y-113336849D01*
X365462038Y-113209273D01*
X365435100Y-113073844D01*
X365435100Y-112935756D01*
X365462038Y-112800327D01*
X365514882Y-112672751D01*
X365591595Y-112557941D01*
X365689241Y-112460295D01*
X365804051Y-112383582D01*
X365931627Y-112330738D01*
X366067056Y-112303800D01*
X366205144Y-112303800D01*
X366340573Y-112330738D01*
G37*
G36*
X345042673Y-112076738D02*
G01*
X345170249Y-112129582D01*
X345285059Y-112206295D01*
X345382705Y-112303941D01*
X345459418Y-112418751D01*
X345512262Y-112546327D01*
X345539200Y-112681756D01*
X345539200Y-112819844D01*
X345512262Y-112955273D01*
X345459418Y-113082849D01*
X345382705Y-113197659D01*
X345285059Y-113295305D01*
X345170249Y-113372018D01*
X345042673Y-113424862D01*
X344907244Y-113451800D01*
X344769156Y-113451800D01*
X344633727Y-113424862D01*
X344506151Y-113372018D01*
X344391341Y-113295305D01*
X344293695Y-113197659D01*
X344216982Y-113082849D01*
X344164138Y-112955273D01*
X344137200Y-112819844D01*
X344137200Y-112681756D01*
X344164138Y-112546327D01*
X344216982Y-112418751D01*
X344293695Y-112303941D01*
X344391341Y-112206295D01*
X344506151Y-112129582D01*
X344633727Y-112076738D01*
X344769156Y-112049800D01*
X344907244Y-112049800D01*
X345042673Y-112076738D01*
G37*
G36*
X353437373Y-111771938D02*
G01*
X353564949Y-111824782D01*
X353679759Y-111901495D01*
X353777405Y-111999141D01*
X353854118Y-112113951D01*
X353906962Y-112241527D01*
X353933900Y-112376956D01*
X353933900Y-112515044D01*
X353906962Y-112650473D01*
X353854118Y-112778049D01*
X353777405Y-112892859D01*
X353679759Y-112990505D01*
X353564949Y-113067218D01*
X353437373Y-113120062D01*
X353301944Y-113147000D01*
X353163856Y-113147000D01*
X353028427Y-113120062D01*
X352900851Y-113067218D01*
X352786041Y-112990505D01*
X352688395Y-112892859D01*
X352611682Y-112778049D01*
X352558838Y-112650473D01*
X352531900Y-112515044D01*
X352531900Y-112376956D01*
X352558838Y-112241527D01*
X352611682Y-112113951D01*
X352688395Y-111999141D01*
X352786041Y-111901495D01*
X352900851Y-111824782D01*
X353028427Y-111771938D01*
X353163856Y-111745000D01*
X353301944Y-111745000D01*
X353437373Y-111771938D01*
G37*
G36*
X376411673Y-111517938D02*
G01*
X376539249Y-111570782D01*
X376654059Y-111647495D01*
X376751705Y-111745141D01*
X376828418Y-111859951D01*
X376881262Y-111987527D01*
X376908200Y-112122956D01*
X376908200Y-112261044D01*
X376881262Y-112396473D01*
X376828418Y-112524049D01*
X376751705Y-112638859D01*
X376654059Y-112736505D01*
X376539249Y-112813218D01*
X376411673Y-112866062D01*
X376276244Y-112893000D01*
X376138156Y-112893000D01*
X376002727Y-112866062D01*
X375875151Y-112813218D01*
X375760341Y-112736505D01*
X375662695Y-112638859D01*
X375585982Y-112524049D01*
X375533138Y-112396473D01*
X375506200Y-112261044D01*
X375506200Y-112122956D01*
X375533138Y-111987527D01*
X375585982Y-111859951D01*
X375662695Y-111745141D01*
X375760341Y-111647495D01*
X375875151Y-111570782D01*
X376002727Y-111517938D01*
X376138156Y-111491000D01*
X376276244Y-111491000D01*
X376411673Y-111517938D01*
G37*
G36*
X363800573Y-111060738D02*
G01*
X363928149Y-111113582D01*
X364042959Y-111190295D01*
X364140605Y-111287941D01*
X364217318Y-111402751D01*
X364270162Y-111530327D01*
X364297100Y-111665756D01*
X364297100Y-111803844D01*
X364270162Y-111939273D01*
X364217318Y-112066849D01*
X364140605Y-112181659D01*
X364042959Y-112279305D01*
X363928149Y-112356018D01*
X363800573Y-112408862D01*
X363665144Y-112435800D01*
X363527056Y-112435800D01*
X363391627Y-112408862D01*
X363264051Y-112356018D01*
X363149241Y-112279305D01*
X363051595Y-112181659D01*
X362974882Y-112066849D01*
X362922038Y-111939273D01*
X362895100Y-111803844D01*
X362895100Y-111665756D01*
X362922038Y-111530327D01*
X362974882Y-111402751D01*
X363051595Y-111287941D01*
X363149241Y-111190295D01*
X363264051Y-111113582D01*
X363391627Y-111060738D01*
X363527056Y-111033800D01*
X363665144Y-111033800D01*
X363800573Y-111060738D01*
G37*
G36*
X342502673Y-110806738D02*
G01*
X342630249Y-110859582D01*
X342745059Y-110936295D01*
X342842705Y-111033941D01*
X342919418Y-111148751D01*
X342972262Y-111276327D01*
X342999200Y-111411756D01*
X342999200Y-111549844D01*
X342972262Y-111685273D01*
X342919418Y-111812849D01*
X342842705Y-111927659D01*
X342745059Y-112025305D01*
X342630249Y-112102018D01*
X342502673Y-112154862D01*
X342367244Y-112181800D01*
X342229156Y-112181800D01*
X342093727Y-112154862D01*
X341966151Y-112102018D01*
X341851341Y-112025305D01*
X341753695Y-111927659D01*
X341676982Y-111812849D01*
X341624138Y-111685273D01*
X341597200Y-111549844D01*
X341597200Y-111411756D01*
X341624138Y-111276327D01*
X341676982Y-111148751D01*
X341753695Y-111033941D01*
X341851341Y-110936295D01*
X341966151Y-110859582D01*
X342093727Y-110806738D01*
X342229156Y-110779800D01*
X342367244Y-110779800D01*
X342502673Y-110806738D01*
G37*
G36*
X241139873Y-110720538D02*
G01*
X241267449Y-110773382D01*
X241382259Y-110850095D01*
X241479905Y-110947741D01*
X241556618Y-111062551D01*
X241609462Y-111190127D01*
X241636400Y-111325556D01*
X241636400Y-111463644D01*
X241609462Y-111599073D01*
X241556618Y-111726649D01*
X241479905Y-111841459D01*
X241382259Y-111939105D01*
X241267449Y-112015818D01*
X241139873Y-112068662D01*
X241004444Y-112095600D01*
X240866356Y-112095600D01*
X240730927Y-112068662D01*
X240603351Y-112015818D01*
X240488541Y-111939105D01*
X240390895Y-111841459D01*
X240314182Y-111726649D01*
X240261338Y-111599073D01*
X240234400Y-111463644D01*
X240234400Y-111325556D01*
X240261338Y-111190127D01*
X240314182Y-111062551D01*
X240390895Y-110947741D01*
X240488541Y-110850095D01*
X240603351Y-110773382D01*
X240730927Y-110720538D01*
X240866356Y-110693600D01*
X241004444Y-110693600D01*
X241139873Y-110720538D01*
G37*
G36*
X238599873Y-110720538D02*
G01*
X238727449Y-110773382D01*
X238842259Y-110850095D01*
X238939905Y-110947741D01*
X239016618Y-111062551D01*
X239069462Y-111190127D01*
X239096400Y-111325556D01*
X239096400Y-111463644D01*
X239069462Y-111599073D01*
X239016618Y-111726649D01*
X238939905Y-111841459D01*
X238842259Y-111939105D01*
X238727449Y-112015818D01*
X238599873Y-112068662D01*
X238464444Y-112095600D01*
X238326356Y-112095600D01*
X238190927Y-112068662D01*
X238063351Y-112015818D01*
X237948541Y-111939105D01*
X237850895Y-111841459D01*
X237774182Y-111726649D01*
X237721338Y-111599073D01*
X237694400Y-111463644D01*
X237694400Y-111325556D01*
X237721338Y-111190127D01*
X237774182Y-111062551D01*
X237850895Y-110947741D01*
X237948541Y-110850095D01*
X238063351Y-110773382D01*
X238190927Y-110720538D01*
X238326356Y-110693600D01*
X238464444Y-110693600D01*
X238599873Y-110720538D01*
G37*
G36*
X236059873Y-110720538D02*
G01*
X236187449Y-110773382D01*
X236302259Y-110850095D01*
X236399905Y-110947741D01*
X236476618Y-111062551D01*
X236529462Y-111190127D01*
X236556400Y-111325556D01*
X236556400Y-111463644D01*
X236529462Y-111599073D01*
X236476618Y-111726649D01*
X236399905Y-111841459D01*
X236302259Y-111939105D01*
X236187449Y-112015818D01*
X236059873Y-112068662D01*
X235924444Y-112095600D01*
X235786356Y-112095600D01*
X235650927Y-112068662D01*
X235523351Y-112015818D01*
X235408541Y-111939105D01*
X235310895Y-111841459D01*
X235234182Y-111726649D01*
X235181338Y-111599073D01*
X235154400Y-111463644D01*
X235154400Y-111325556D01*
X235181338Y-111190127D01*
X235234182Y-111062551D01*
X235310895Y-110947741D01*
X235408541Y-110850095D01*
X235523351Y-110773382D01*
X235650927Y-110720538D01*
X235786356Y-110693600D01*
X235924444Y-110693600D01*
X236059873Y-110720538D01*
G37*
G36*
X233519873Y-110720538D02*
G01*
X233647449Y-110773382D01*
X233762259Y-110850095D01*
X233859905Y-110947741D01*
X233936618Y-111062551D01*
X233989462Y-111190127D01*
X234016400Y-111325556D01*
X234016400Y-111463644D01*
X233989462Y-111599073D01*
X233936618Y-111726649D01*
X233859905Y-111841459D01*
X233762259Y-111939105D01*
X233647449Y-112015818D01*
X233519873Y-112068662D01*
X233384444Y-112095600D01*
X233246356Y-112095600D01*
X233110927Y-112068662D01*
X232983351Y-112015818D01*
X232868541Y-111939105D01*
X232770895Y-111841459D01*
X232694182Y-111726649D01*
X232641338Y-111599073D01*
X232614400Y-111463644D01*
X232614400Y-111325556D01*
X232641338Y-111190127D01*
X232694182Y-111062551D01*
X232770895Y-110947741D01*
X232868541Y-110850095D01*
X232983351Y-110773382D01*
X233110927Y-110720538D01*
X233246356Y-110693600D01*
X233384444Y-110693600D01*
X233519873Y-110720538D01*
G37*
G36*
X243679873Y-110720538D02*
G01*
X243807449Y-110773382D01*
X243922259Y-110850095D01*
X244019905Y-110947741D01*
X244096618Y-111062551D01*
X244149462Y-111190127D01*
X244176400Y-111325556D01*
X244176400Y-111463644D01*
X244149462Y-111599073D01*
X244096618Y-111726649D01*
X244019905Y-111841459D01*
X243922259Y-111939105D01*
X243807449Y-112015818D01*
X243679873Y-112068662D01*
X243544444Y-112095600D01*
X243406356Y-112095600D01*
X243270927Y-112068662D01*
X243143351Y-112015818D01*
X243028541Y-111939105D01*
X242930895Y-111841459D01*
X242854182Y-111726649D01*
X242801338Y-111599073D01*
X242774400Y-111463644D01*
X242774400Y-111325556D01*
X242801338Y-111190127D01*
X242854182Y-111062551D01*
X242930895Y-110947741D01*
X243028541Y-110850095D01*
X243143351Y-110773382D01*
X243270927Y-110720538D01*
X243406356Y-110693600D01*
X243544444Y-110693600D01*
X243679873Y-110720538D01*
G37*
G36*
X230979873Y-110720538D02*
G01*
X231107449Y-110773382D01*
X231222259Y-110850095D01*
X231319905Y-110947741D01*
X231396618Y-111062551D01*
X231449462Y-111190127D01*
X231476400Y-111325556D01*
X231476400Y-111463644D01*
X231449462Y-111599073D01*
X231396618Y-111726649D01*
X231319905Y-111841459D01*
X231222259Y-111939105D01*
X231107449Y-112015818D01*
X230979873Y-112068662D01*
X230844444Y-112095600D01*
X230706356Y-112095600D01*
X230570927Y-112068662D01*
X230443351Y-112015818D01*
X230328541Y-111939105D01*
X230230895Y-111841459D01*
X230154182Y-111726649D01*
X230101338Y-111599073D01*
X230074400Y-111463644D01*
X230074400Y-111325556D01*
X230101338Y-111190127D01*
X230154182Y-111062551D01*
X230230895Y-110947741D01*
X230328541Y-110850095D01*
X230443351Y-110773382D01*
X230570927Y-110720538D01*
X230706356Y-110693600D01*
X230844444Y-110693600D01*
X230979873Y-110720538D01*
G37*
G36*
X258389873Y-110720538D02*
G01*
X258517449Y-110773382D01*
X258632259Y-110850095D01*
X258729905Y-110947741D01*
X258806618Y-111062551D01*
X258859462Y-111190127D01*
X258886400Y-111325556D01*
X258886400Y-111463644D01*
X258859462Y-111599073D01*
X258806618Y-111726649D01*
X258729905Y-111841459D01*
X258632259Y-111939105D01*
X258517449Y-112015818D01*
X258389873Y-112068662D01*
X258254444Y-112095600D01*
X258116356Y-112095600D01*
X257980927Y-112068662D01*
X257853351Y-112015818D01*
X257738541Y-111939105D01*
X257640895Y-111841459D01*
X257564182Y-111726649D01*
X257511338Y-111599073D01*
X257484400Y-111463644D01*
X257484400Y-111325556D01*
X257511338Y-111190127D01*
X257564182Y-111062551D01*
X257640895Y-110947741D01*
X257738541Y-110850095D01*
X257853351Y-110773382D01*
X257980927Y-110720538D01*
X258116356Y-110693600D01*
X258254444Y-110693600D01*
X258389873Y-110720538D01*
G37*
G36*
X255849873Y-110720538D02*
G01*
X255977449Y-110773382D01*
X256092259Y-110850095D01*
X256189905Y-110947741D01*
X256266618Y-111062551D01*
X256319462Y-111190127D01*
X256346400Y-111325556D01*
X256346400Y-111463644D01*
X256319462Y-111599073D01*
X256266618Y-111726649D01*
X256189905Y-111841459D01*
X256092259Y-111939105D01*
X255977449Y-112015818D01*
X255849873Y-112068662D01*
X255714444Y-112095600D01*
X255576356Y-112095600D01*
X255440927Y-112068662D01*
X255313351Y-112015818D01*
X255198541Y-111939105D01*
X255100895Y-111841459D01*
X255024182Y-111726649D01*
X254971338Y-111599073D01*
X254944400Y-111463644D01*
X254944400Y-111325556D01*
X254971338Y-111190127D01*
X255024182Y-111062551D01*
X255100895Y-110947741D01*
X255198541Y-110850095D01*
X255313351Y-110773382D01*
X255440927Y-110720538D01*
X255576356Y-110693600D01*
X255714444Y-110693600D01*
X255849873Y-110720538D01*
G37*
G36*
X268549873Y-110720538D02*
G01*
X268677449Y-110773382D01*
X268792259Y-110850095D01*
X268889905Y-110947741D01*
X268966618Y-111062551D01*
X269019462Y-111190127D01*
X269046400Y-111325556D01*
X269046400Y-111463644D01*
X269019462Y-111599073D01*
X268966618Y-111726649D01*
X268889905Y-111841459D01*
X268792259Y-111939105D01*
X268677449Y-112015818D01*
X268549873Y-112068662D01*
X268414444Y-112095600D01*
X268276356Y-112095600D01*
X268140927Y-112068662D01*
X268013351Y-112015818D01*
X267898541Y-111939105D01*
X267800895Y-111841459D01*
X267724182Y-111726649D01*
X267671338Y-111599073D01*
X267644400Y-111463644D01*
X267644400Y-111325556D01*
X267671338Y-111190127D01*
X267724182Y-111062551D01*
X267800895Y-110947741D01*
X267898541Y-110850095D01*
X268013351Y-110773382D01*
X268140927Y-110720538D01*
X268276356Y-110693600D01*
X268414444Y-110693600D01*
X268549873Y-110720538D01*
G37*
G36*
X266009873Y-110720538D02*
G01*
X266137449Y-110773382D01*
X266252259Y-110850095D01*
X266349905Y-110947741D01*
X266426618Y-111062551D01*
X266479462Y-111190127D01*
X266506400Y-111325556D01*
X266506400Y-111463644D01*
X266479462Y-111599073D01*
X266426618Y-111726649D01*
X266349905Y-111841459D01*
X266252259Y-111939105D01*
X266137449Y-112015818D01*
X266009873Y-112068662D01*
X265874444Y-112095600D01*
X265736356Y-112095600D01*
X265600927Y-112068662D01*
X265473351Y-112015818D01*
X265358541Y-111939105D01*
X265260895Y-111841459D01*
X265184182Y-111726649D01*
X265131338Y-111599073D01*
X265104400Y-111463644D01*
X265104400Y-111325556D01*
X265131338Y-111190127D01*
X265184182Y-111062551D01*
X265260895Y-110947741D01*
X265358541Y-110850095D01*
X265473351Y-110773382D01*
X265600927Y-110720538D01*
X265736356Y-110693600D01*
X265874444Y-110693600D01*
X266009873Y-110720538D01*
G37*
G36*
X260929873Y-110720538D02*
G01*
X261057449Y-110773382D01*
X261172259Y-110850095D01*
X261269905Y-110947741D01*
X261346618Y-111062551D01*
X261399462Y-111190127D01*
X261426400Y-111325556D01*
X261426400Y-111463644D01*
X261399462Y-111599073D01*
X261346618Y-111726649D01*
X261269905Y-111841459D01*
X261172259Y-111939105D01*
X261057449Y-112015818D01*
X260929873Y-112068662D01*
X260794444Y-112095600D01*
X260656356Y-112095600D01*
X260520927Y-112068662D01*
X260393351Y-112015818D01*
X260278541Y-111939105D01*
X260180895Y-111841459D01*
X260104182Y-111726649D01*
X260051338Y-111599073D01*
X260024400Y-111463644D01*
X260024400Y-111325556D01*
X260051338Y-111190127D01*
X260104182Y-111062551D01*
X260180895Y-110947741D01*
X260278541Y-110850095D01*
X260393351Y-110773382D01*
X260520927Y-110720538D01*
X260656356Y-110693600D01*
X260794444Y-110693600D01*
X260929873Y-110720538D01*
G37*
G36*
X263469873Y-110720538D02*
G01*
X263597449Y-110773382D01*
X263712259Y-110850095D01*
X263809905Y-110947741D01*
X263886618Y-111062551D01*
X263939462Y-111190127D01*
X263966400Y-111325556D01*
X263966400Y-111463644D01*
X263939462Y-111599073D01*
X263886618Y-111726649D01*
X263809905Y-111841459D01*
X263712259Y-111939105D01*
X263597449Y-112015818D01*
X263469873Y-112068662D01*
X263334444Y-112095600D01*
X263196356Y-112095600D01*
X263060927Y-112068662D01*
X262933351Y-112015818D01*
X262818541Y-111939105D01*
X262720895Y-111841459D01*
X262644182Y-111726649D01*
X262591338Y-111599073D01*
X262564400Y-111463644D01*
X262564400Y-111325556D01*
X262591338Y-111190127D01*
X262644182Y-111062551D01*
X262720895Y-110947741D01*
X262818541Y-110850095D01*
X262933351Y-110773382D01*
X263060927Y-110720538D01*
X263196356Y-110693600D01*
X263334444Y-110693600D01*
X263469873Y-110720538D01*
G37*
G36*
X201959873Y-110580538D02*
G01*
X202087449Y-110633382D01*
X202202259Y-110710095D01*
X202299905Y-110807741D01*
X202376618Y-110922551D01*
X202429462Y-111050127D01*
X202456400Y-111185556D01*
X202456400Y-111323644D01*
X202429462Y-111459073D01*
X202376618Y-111586649D01*
X202299905Y-111701459D01*
X202202259Y-111799105D01*
X202087449Y-111875818D01*
X201959873Y-111928662D01*
X201824444Y-111955600D01*
X201686356Y-111955600D01*
X201550927Y-111928662D01*
X201423351Y-111875818D01*
X201308541Y-111799105D01*
X201210895Y-111701459D01*
X201134182Y-111586649D01*
X201081338Y-111459073D01*
X201054400Y-111323644D01*
X201054400Y-111185556D01*
X201081338Y-111050127D01*
X201134182Y-110922551D01*
X201210895Y-110807741D01*
X201308541Y-110710095D01*
X201423351Y-110633382D01*
X201550927Y-110580538D01*
X201686356Y-110553600D01*
X201824444Y-110553600D01*
X201959873Y-110580538D01*
G37*
G36*
X204499873Y-110580538D02*
G01*
X204627449Y-110633382D01*
X204742259Y-110710095D01*
X204839905Y-110807741D01*
X204916618Y-110922551D01*
X204969462Y-111050127D01*
X204996400Y-111185556D01*
X204996400Y-111323644D01*
X204969462Y-111459073D01*
X204916618Y-111586649D01*
X204839905Y-111701459D01*
X204742259Y-111799105D01*
X204627449Y-111875818D01*
X204499873Y-111928662D01*
X204364444Y-111955600D01*
X204226356Y-111955600D01*
X204090927Y-111928662D01*
X203963351Y-111875818D01*
X203848541Y-111799105D01*
X203750895Y-111701459D01*
X203674182Y-111586649D01*
X203621338Y-111459073D01*
X203594400Y-111323644D01*
X203594400Y-111185556D01*
X203621338Y-111050127D01*
X203674182Y-110922551D01*
X203750895Y-110807741D01*
X203848541Y-110710095D01*
X203963351Y-110633382D01*
X204090927Y-110580538D01*
X204226356Y-110553600D01*
X204364444Y-110553600D01*
X204499873Y-110580538D01*
G37*
G36*
X209579873Y-110580538D02*
G01*
X209707449Y-110633382D01*
X209822259Y-110710095D01*
X209919905Y-110807741D01*
X209996618Y-110922551D01*
X210049462Y-111050127D01*
X210076400Y-111185556D01*
X210076400Y-111323644D01*
X210049462Y-111459073D01*
X209996618Y-111586649D01*
X209919905Y-111701459D01*
X209822259Y-111799105D01*
X209707449Y-111875818D01*
X209579873Y-111928662D01*
X209444444Y-111955600D01*
X209306356Y-111955600D01*
X209170927Y-111928662D01*
X209043351Y-111875818D01*
X208928541Y-111799105D01*
X208830895Y-111701459D01*
X208754182Y-111586649D01*
X208701338Y-111459073D01*
X208674400Y-111323644D01*
X208674400Y-111185556D01*
X208701338Y-111050127D01*
X208754182Y-110922551D01*
X208830895Y-110807741D01*
X208928541Y-110710095D01*
X209043351Y-110633382D01*
X209170927Y-110580538D01*
X209306356Y-110553600D01*
X209444444Y-110553600D01*
X209579873Y-110580538D01*
G37*
G36*
X212119873Y-110580538D02*
G01*
X212247449Y-110633382D01*
X212362259Y-110710095D01*
X212459905Y-110807741D01*
X212536618Y-110922551D01*
X212589462Y-111050127D01*
X212616400Y-111185556D01*
X212616400Y-111323644D01*
X212589462Y-111459073D01*
X212536618Y-111586649D01*
X212459905Y-111701459D01*
X212362259Y-111799105D01*
X212247449Y-111875818D01*
X212119873Y-111928662D01*
X211984444Y-111955600D01*
X211846356Y-111955600D01*
X211710927Y-111928662D01*
X211583351Y-111875818D01*
X211468541Y-111799105D01*
X211370895Y-111701459D01*
X211294182Y-111586649D01*
X211241338Y-111459073D01*
X211214400Y-111323644D01*
X211214400Y-111185556D01*
X211241338Y-111050127D01*
X211294182Y-110922551D01*
X211370895Y-110807741D01*
X211468541Y-110710095D01*
X211583351Y-110633382D01*
X211710927Y-110580538D01*
X211846356Y-110553600D01*
X211984444Y-110553600D01*
X212119873Y-110580538D01*
G37*
G36*
X214659873Y-110580538D02*
G01*
X214787449Y-110633382D01*
X214902259Y-110710095D01*
X214999905Y-110807741D01*
X215076618Y-110922551D01*
X215129462Y-111050127D01*
X215156400Y-111185556D01*
X215156400Y-111323644D01*
X215129462Y-111459073D01*
X215076618Y-111586649D01*
X214999905Y-111701459D01*
X214902259Y-111799105D01*
X214787449Y-111875818D01*
X214659873Y-111928662D01*
X214524444Y-111955600D01*
X214386356Y-111955600D01*
X214250927Y-111928662D01*
X214123351Y-111875818D01*
X214008541Y-111799105D01*
X213910895Y-111701459D01*
X213834182Y-111586649D01*
X213781338Y-111459073D01*
X213754400Y-111323644D01*
X213754400Y-111185556D01*
X213781338Y-111050127D01*
X213834182Y-110922551D01*
X213910895Y-110807741D01*
X214008541Y-110710095D01*
X214123351Y-110633382D01*
X214250927Y-110580538D01*
X214386356Y-110553600D01*
X214524444Y-110553600D01*
X214659873Y-110580538D01*
G37*
G36*
X217199873Y-110580538D02*
G01*
X217327449Y-110633382D01*
X217442259Y-110710095D01*
X217539905Y-110807741D01*
X217616618Y-110922551D01*
X217669462Y-111050127D01*
X217696400Y-111185556D01*
X217696400Y-111323644D01*
X217669462Y-111459073D01*
X217616618Y-111586649D01*
X217539905Y-111701459D01*
X217442259Y-111799105D01*
X217327449Y-111875818D01*
X217199873Y-111928662D01*
X217064444Y-111955600D01*
X216926356Y-111955600D01*
X216790927Y-111928662D01*
X216663351Y-111875818D01*
X216548541Y-111799105D01*
X216450895Y-111701459D01*
X216374182Y-111586649D01*
X216321338Y-111459073D01*
X216294400Y-111323644D01*
X216294400Y-111185556D01*
X216321338Y-111050127D01*
X216374182Y-110922551D01*
X216450895Y-110807741D01*
X216548541Y-110710095D01*
X216663351Y-110633382D01*
X216790927Y-110580538D01*
X216926356Y-110553600D01*
X217064444Y-110553600D01*
X217199873Y-110580538D01*
G37*
G36*
X219739873Y-110580538D02*
G01*
X219867449Y-110633382D01*
X219982259Y-110710095D01*
X220079905Y-110807741D01*
X220156618Y-110922551D01*
X220209462Y-111050127D01*
X220236400Y-111185556D01*
X220236400Y-111323644D01*
X220209462Y-111459073D01*
X220156618Y-111586649D01*
X220079905Y-111701459D01*
X219982259Y-111799105D01*
X219867449Y-111875818D01*
X219739873Y-111928662D01*
X219604444Y-111955600D01*
X219466356Y-111955600D01*
X219330927Y-111928662D01*
X219203351Y-111875818D01*
X219088541Y-111799105D01*
X218990895Y-111701459D01*
X218914182Y-111586649D01*
X218861338Y-111459073D01*
X218834400Y-111323644D01*
X218834400Y-111185556D01*
X218861338Y-111050127D01*
X218914182Y-110922551D01*
X218990895Y-110807741D01*
X219088541Y-110710095D01*
X219203351Y-110633382D01*
X219330927Y-110580538D01*
X219466356Y-110553600D01*
X219604444Y-110553600D01*
X219739873Y-110580538D01*
G37*
G36*
X207039873Y-110580538D02*
G01*
X207167449Y-110633382D01*
X207282259Y-110710095D01*
X207379905Y-110807741D01*
X207456618Y-110922551D01*
X207509462Y-111050127D01*
X207536400Y-111185556D01*
X207536400Y-111323644D01*
X207509462Y-111459073D01*
X207456618Y-111586649D01*
X207379905Y-111701459D01*
X207282259Y-111799105D01*
X207167449Y-111875818D01*
X207039873Y-111928662D01*
X206904444Y-111955600D01*
X206766356Y-111955600D01*
X206630927Y-111928662D01*
X206503351Y-111875818D01*
X206388541Y-111799105D01*
X206290895Y-111701459D01*
X206214182Y-111586649D01*
X206161338Y-111459073D01*
X206134400Y-111323644D01*
X206134400Y-111185556D01*
X206161338Y-111050127D01*
X206214182Y-110922551D01*
X206290895Y-110807741D01*
X206388541Y-110710095D01*
X206503351Y-110633382D01*
X206630927Y-110580538D01*
X206766356Y-110553600D01*
X206904444Y-110553600D01*
X207039873Y-110580538D01*
G37*
G36*
X176099873Y-110530538D02*
G01*
X176227449Y-110583382D01*
X176342259Y-110660095D01*
X176439905Y-110757741D01*
X176516618Y-110872551D01*
X176569462Y-111000127D01*
X176596400Y-111135556D01*
X176596400Y-111273644D01*
X176569462Y-111409073D01*
X176516618Y-111536649D01*
X176439905Y-111651459D01*
X176342259Y-111749105D01*
X176227449Y-111825818D01*
X176099873Y-111878662D01*
X175964444Y-111905600D01*
X175826356Y-111905600D01*
X175690927Y-111878662D01*
X175563351Y-111825818D01*
X175448541Y-111749105D01*
X175350895Y-111651459D01*
X175274182Y-111536649D01*
X175221338Y-111409073D01*
X175194400Y-111273644D01*
X175194400Y-111135556D01*
X175221338Y-111000127D01*
X175274182Y-110872551D01*
X175350895Y-110757741D01*
X175448541Y-110660095D01*
X175563351Y-110583382D01*
X175690927Y-110530538D01*
X175826356Y-110503600D01*
X175964444Y-110503600D01*
X176099873Y-110530538D01*
G37*
G36*
X186259873Y-110530538D02*
G01*
X186387449Y-110583382D01*
X186502259Y-110660095D01*
X186599905Y-110757741D01*
X186676618Y-110872551D01*
X186729462Y-111000127D01*
X186756400Y-111135556D01*
X186756400Y-111273644D01*
X186729462Y-111409073D01*
X186676618Y-111536649D01*
X186599905Y-111651459D01*
X186502259Y-111749105D01*
X186387449Y-111825818D01*
X186259873Y-111878662D01*
X186124444Y-111905600D01*
X185986356Y-111905600D01*
X185850927Y-111878662D01*
X185723351Y-111825818D01*
X185608541Y-111749105D01*
X185510895Y-111651459D01*
X185434182Y-111536649D01*
X185381338Y-111409073D01*
X185354400Y-111273644D01*
X185354400Y-111135556D01*
X185381338Y-111000127D01*
X185434182Y-110872551D01*
X185510895Y-110757741D01*
X185608541Y-110660095D01*
X185723351Y-110583382D01*
X185850927Y-110530538D01*
X185986356Y-110503600D01*
X186124444Y-110503600D01*
X186259873Y-110530538D01*
G37*
G36*
X183719873Y-110530538D02*
G01*
X183847449Y-110583382D01*
X183962259Y-110660095D01*
X184059905Y-110757741D01*
X184136618Y-110872551D01*
X184189462Y-111000127D01*
X184216400Y-111135556D01*
X184216400Y-111273644D01*
X184189462Y-111409073D01*
X184136618Y-111536649D01*
X184059905Y-111651459D01*
X183962259Y-111749105D01*
X183847449Y-111825818D01*
X183719873Y-111878662D01*
X183584444Y-111905600D01*
X183446356Y-111905600D01*
X183310927Y-111878662D01*
X183183351Y-111825818D01*
X183068541Y-111749105D01*
X182970895Y-111651459D01*
X182894182Y-111536649D01*
X182841338Y-111409073D01*
X182814400Y-111273644D01*
X182814400Y-111135556D01*
X182841338Y-111000127D01*
X182894182Y-110872551D01*
X182970895Y-110757741D01*
X183068541Y-110660095D01*
X183183351Y-110583382D01*
X183310927Y-110530538D01*
X183446356Y-110503600D01*
X183584444Y-110503600D01*
X183719873Y-110530538D01*
G37*
G36*
X181179873Y-110530538D02*
G01*
X181307449Y-110583382D01*
X181422259Y-110660095D01*
X181519905Y-110757741D01*
X181596618Y-110872551D01*
X181649462Y-111000127D01*
X181676400Y-111135556D01*
X181676400Y-111273644D01*
X181649462Y-111409073D01*
X181596618Y-111536649D01*
X181519905Y-111651459D01*
X181422259Y-111749105D01*
X181307449Y-111825818D01*
X181179873Y-111878662D01*
X181044444Y-111905600D01*
X180906356Y-111905600D01*
X180770927Y-111878662D01*
X180643351Y-111825818D01*
X180528541Y-111749105D01*
X180430895Y-111651459D01*
X180354182Y-111536649D01*
X180301338Y-111409073D01*
X180274400Y-111273644D01*
X180274400Y-111135556D01*
X180301338Y-111000127D01*
X180354182Y-110872551D01*
X180430895Y-110757741D01*
X180528541Y-110660095D01*
X180643351Y-110583382D01*
X180770927Y-110530538D01*
X180906356Y-110503600D01*
X181044444Y-110503600D01*
X181179873Y-110530538D01*
G37*
G36*
X178639873Y-110530538D02*
G01*
X178767449Y-110583382D01*
X178882259Y-110660095D01*
X178979905Y-110757741D01*
X179056618Y-110872551D01*
X179109462Y-111000127D01*
X179136400Y-111135556D01*
X179136400Y-111273644D01*
X179109462Y-111409073D01*
X179056618Y-111536649D01*
X178979905Y-111651459D01*
X178882259Y-111749105D01*
X178767449Y-111825818D01*
X178639873Y-111878662D01*
X178504444Y-111905600D01*
X178366356Y-111905600D01*
X178230927Y-111878662D01*
X178103351Y-111825818D01*
X177988541Y-111749105D01*
X177890895Y-111651459D01*
X177814182Y-111536649D01*
X177761338Y-111409073D01*
X177734400Y-111273644D01*
X177734400Y-111135556D01*
X177761338Y-111000127D01*
X177814182Y-110872551D01*
X177890895Y-110757741D01*
X177988541Y-110660095D01*
X178103351Y-110583382D01*
X178230927Y-110530538D01*
X178366356Y-110503600D01*
X178504444Y-110503600D01*
X178639873Y-110530538D01*
G37*
G36*
X355977373Y-110501938D02*
G01*
X356104949Y-110554782D01*
X356219759Y-110631495D01*
X356317405Y-110729141D01*
X356394118Y-110843951D01*
X356446962Y-110971527D01*
X356473900Y-111106956D01*
X356473900Y-111245044D01*
X356446962Y-111380473D01*
X356394118Y-111508049D01*
X356317405Y-111622859D01*
X356219759Y-111720505D01*
X356104949Y-111797218D01*
X355977373Y-111850062D01*
X355841944Y-111877000D01*
X355703856Y-111877000D01*
X355568427Y-111850062D01*
X355440851Y-111797218D01*
X355326041Y-111720505D01*
X355228395Y-111622859D01*
X355151682Y-111508049D01*
X355098838Y-111380473D01*
X355071900Y-111245044D01*
X355071900Y-111106956D01*
X355098838Y-110971527D01*
X355151682Y-110843951D01*
X355228395Y-110729141D01*
X355326041Y-110631495D01*
X355440851Y-110554782D01*
X355568427Y-110501938D01*
X355703856Y-110475000D01*
X355841944Y-110475000D01*
X355977373Y-110501938D01*
G37*
G36*
X148399873Y-110360538D02*
G01*
X148527449Y-110413382D01*
X148642259Y-110490095D01*
X148739905Y-110587741D01*
X148816618Y-110702551D01*
X148869462Y-110830127D01*
X148896400Y-110965556D01*
X148896400Y-111103644D01*
X148869462Y-111239073D01*
X148816618Y-111366649D01*
X148739905Y-111481459D01*
X148642259Y-111579105D01*
X148527449Y-111655818D01*
X148399873Y-111708662D01*
X148264444Y-111735600D01*
X148126356Y-111735600D01*
X147990927Y-111708662D01*
X147863351Y-111655818D01*
X147748541Y-111579105D01*
X147650895Y-111481459D01*
X147574182Y-111366649D01*
X147521338Y-111239073D01*
X147494400Y-111103644D01*
X147494400Y-110965556D01*
X147521338Y-110830127D01*
X147574182Y-110702551D01*
X147650895Y-110587741D01*
X147748541Y-110490095D01*
X147863351Y-110413382D01*
X147990927Y-110360538D01*
X148126356Y-110333600D01*
X148264444Y-110333600D01*
X148399873Y-110360538D01*
G37*
G36*
X161099873Y-110360538D02*
G01*
X161227449Y-110413382D01*
X161342259Y-110490095D01*
X161439905Y-110587741D01*
X161516618Y-110702551D01*
X161569462Y-110830127D01*
X161596400Y-110965556D01*
X161596400Y-111103644D01*
X161569462Y-111239073D01*
X161516618Y-111366649D01*
X161439905Y-111481459D01*
X161342259Y-111579105D01*
X161227449Y-111655818D01*
X161099873Y-111708662D01*
X160964444Y-111735600D01*
X160826356Y-111735600D01*
X160690927Y-111708662D01*
X160563351Y-111655818D01*
X160448541Y-111579105D01*
X160350895Y-111481459D01*
X160274182Y-111366649D01*
X160221338Y-111239073D01*
X160194400Y-111103644D01*
X160194400Y-110965556D01*
X160221338Y-110830127D01*
X160274182Y-110702551D01*
X160350895Y-110587741D01*
X160448541Y-110490095D01*
X160563351Y-110413382D01*
X160690927Y-110360538D01*
X160826356Y-110333600D01*
X160964444Y-110333600D01*
X161099873Y-110360538D01*
G37*
G36*
X158559873Y-110360538D02*
G01*
X158687449Y-110413382D01*
X158802259Y-110490095D01*
X158899905Y-110587741D01*
X158976618Y-110702551D01*
X159029462Y-110830127D01*
X159056400Y-110965556D01*
X159056400Y-111103644D01*
X159029462Y-111239073D01*
X158976618Y-111366649D01*
X158899905Y-111481459D01*
X158802259Y-111579105D01*
X158687449Y-111655818D01*
X158559873Y-111708662D01*
X158424444Y-111735600D01*
X158286356Y-111735600D01*
X158150927Y-111708662D01*
X158023351Y-111655818D01*
X157908541Y-111579105D01*
X157810895Y-111481459D01*
X157734182Y-111366649D01*
X157681338Y-111239073D01*
X157654400Y-111103644D01*
X157654400Y-110965556D01*
X157681338Y-110830127D01*
X157734182Y-110702551D01*
X157810895Y-110587741D01*
X157908541Y-110490095D01*
X158023351Y-110413382D01*
X158150927Y-110360538D01*
X158286356Y-110333600D01*
X158424444Y-110333600D01*
X158559873Y-110360538D01*
G37*
G36*
X156019873Y-110360538D02*
G01*
X156147449Y-110413382D01*
X156262259Y-110490095D01*
X156359905Y-110587741D01*
X156436618Y-110702551D01*
X156489462Y-110830127D01*
X156516400Y-110965556D01*
X156516400Y-111103644D01*
X156489462Y-111239073D01*
X156436618Y-111366649D01*
X156359905Y-111481459D01*
X156262259Y-111579105D01*
X156147449Y-111655818D01*
X156019873Y-111708662D01*
X155884444Y-111735600D01*
X155746356Y-111735600D01*
X155610927Y-111708662D01*
X155483351Y-111655818D01*
X155368541Y-111579105D01*
X155270895Y-111481459D01*
X155194182Y-111366649D01*
X155141338Y-111239073D01*
X155114400Y-111103644D01*
X155114400Y-110965556D01*
X155141338Y-110830127D01*
X155194182Y-110702551D01*
X155270895Y-110587741D01*
X155368541Y-110490095D01*
X155483351Y-110413382D01*
X155610927Y-110360538D01*
X155746356Y-110333600D01*
X155884444Y-110333600D01*
X156019873Y-110360538D01*
G37*
G36*
X153479873Y-110360538D02*
G01*
X153607449Y-110413382D01*
X153722259Y-110490095D01*
X153819905Y-110587741D01*
X153896618Y-110702551D01*
X153949462Y-110830127D01*
X153976400Y-110965556D01*
X153976400Y-111103644D01*
X153949462Y-111239073D01*
X153896618Y-111366649D01*
X153819905Y-111481459D01*
X153722259Y-111579105D01*
X153607449Y-111655818D01*
X153479873Y-111708662D01*
X153344444Y-111735600D01*
X153206356Y-111735600D01*
X153070927Y-111708662D01*
X152943351Y-111655818D01*
X152828541Y-111579105D01*
X152730895Y-111481459D01*
X152654182Y-111366649D01*
X152601338Y-111239073D01*
X152574400Y-111103644D01*
X152574400Y-110965556D01*
X152601338Y-110830127D01*
X152654182Y-110702551D01*
X152730895Y-110587741D01*
X152828541Y-110490095D01*
X152943351Y-110413382D01*
X153070927Y-110360538D01*
X153206356Y-110333600D01*
X153344444Y-110333600D01*
X153479873Y-110360538D01*
G37*
G36*
X150939873Y-110360538D02*
G01*
X151067449Y-110413382D01*
X151182259Y-110490095D01*
X151279905Y-110587741D01*
X151356618Y-110702551D01*
X151409462Y-110830127D01*
X151436400Y-110965556D01*
X151436400Y-111103644D01*
X151409462Y-111239073D01*
X151356618Y-111366649D01*
X151279905Y-111481459D01*
X151182259Y-111579105D01*
X151067449Y-111655818D01*
X150939873Y-111708662D01*
X150804444Y-111735600D01*
X150666356Y-111735600D01*
X150530927Y-111708662D01*
X150403351Y-111655818D01*
X150288541Y-111579105D01*
X150190895Y-111481459D01*
X150114182Y-111366649D01*
X150061338Y-111239073D01*
X150034400Y-111103644D01*
X150034400Y-110965556D01*
X150061338Y-110830127D01*
X150114182Y-110702551D01*
X150190895Y-110587741D01*
X150288541Y-110490095D01*
X150403351Y-110413382D01*
X150530927Y-110360538D01*
X150666356Y-110333600D01*
X150804444Y-110333600D01*
X150939873Y-110360538D01*
G37*
G36*
X246451964Y-109643989D02*
G01*
X246590873Y-109701527D01*
X246643235Y-109723216D01*
X246815373Y-109838235D01*
X246961765Y-109984627D01*
X247045853Y-110110473D01*
X247076785Y-110156767D01*
X247156011Y-110348036D01*
X247196400Y-110551084D01*
X247196400Y-110758116D01*
X247156011Y-110961164D01*
X247082406Y-111138862D01*
X247076784Y-111152435D01*
X246961765Y-111324573D01*
X246815373Y-111470965D01*
X246643235Y-111585984D01*
X246643234Y-111585985D01*
X246643233Y-111585985D01*
X246451964Y-111665211D01*
X246248916Y-111705600D01*
X246041884Y-111705600D01*
X245838836Y-111665211D01*
X245647567Y-111585985D01*
X245647566Y-111585985D01*
X245647565Y-111585984D01*
X245475427Y-111470965D01*
X245329035Y-111324573D01*
X245214016Y-111152435D01*
X245208394Y-111138862D01*
X245134789Y-110961164D01*
X245094400Y-110758116D01*
X245094400Y-110551084D01*
X245134789Y-110348036D01*
X245214015Y-110156767D01*
X245244948Y-110110473D01*
X245329035Y-109984627D01*
X245475427Y-109838235D01*
X245647565Y-109723216D01*
X245699927Y-109701527D01*
X245838836Y-109643989D01*
X246041884Y-109603600D01*
X246248916Y-109603600D01*
X246451964Y-109643989D01*
G37*
G36*
X271321964Y-109643989D02*
G01*
X271460873Y-109701527D01*
X271513235Y-109723216D01*
X271685373Y-109838235D01*
X271831765Y-109984627D01*
X271915853Y-110110473D01*
X271946785Y-110156767D01*
X272026011Y-110348036D01*
X272066400Y-110551084D01*
X272066400Y-110758116D01*
X272026011Y-110961164D01*
X271952406Y-111138862D01*
X271946784Y-111152435D01*
X271831765Y-111324573D01*
X271685373Y-111470965D01*
X271513235Y-111585984D01*
X271513234Y-111585985D01*
X271513233Y-111585985D01*
X271321964Y-111665211D01*
X271118916Y-111705600D01*
X270911884Y-111705600D01*
X270708836Y-111665211D01*
X270517567Y-111585985D01*
X270517566Y-111585985D01*
X270517565Y-111585984D01*
X270345427Y-111470965D01*
X270199035Y-111324573D01*
X270084016Y-111152435D01*
X270078394Y-111138862D01*
X270004789Y-110961164D01*
X269964400Y-110758116D01*
X269964400Y-110551084D01*
X270004789Y-110348036D01*
X270084015Y-110156767D01*
X270114948Y-110110473D01*
X270199035Y-109984627D01*
X270345427Y-109838235D01*
X270517565Y-109723216D01*
X270569927Y-109701527D01*
X270708836Y-109643989D01*
X270911884Y-109603600D01*
X271118916Y-109603600D01*
X271321964Y-109643989D01*
G37*
G36*
X373871673Y-110247938D02*
G01*
X373999249Y-110300782D01*
X374114059Y-110377495D01*
X374211705Y-110475141D01*
X374288418Y-110589951D01*
X374341262Y-110717527D01*
X374368200Y-110852956D01*
X374368200Y-110991044D01*
X374341262Y-111126473D01*
X374288418Y-111254049D01*
X374211705Y-111368859D01*
X374114059Y-111466505D01*
X373999249Y-111543218D01*
X373871673Y-111596062D01*
X373736244Y-111623000D01*
X373598156Y-111623000D01*
X373462727Y-111596062D01*
X373335151Y-111543218D01*
X373220341Y-111466505D01*
X373122695Y-111368859D01*
X373045982Y-111254049D01*
X372993138Y-111126473D01*
X372966200Y-110991044D01*
X372966200Y-110852956D01*
X372993138Y-110717527D01*
X373045982Y-110589951D01*
X373122695Y-110475141D01*
X373220341Y-110377495D01*
X373335151Y-110300782D01*
X373462727Y-110247938D01*
X373598156Y-110221000D01*
X373736244Y-110221000D01*
X373871673Y-110247938D01*
G37*
G36*
X222511964Y-109503989D02*
G01*
X222680870Y-109573952D01*
X222703235Y-109583216D01*
X222875373Y-109698235D01*
X223021765Y-109844627D01*
X223110404Y-109977284D01*
X223136785Y-110016767D01*
X223216011Y-110208036D01*
X223256400Y-110411084D01*
X223256400Y-110618116D01*
X223216011Y-110821164D01*
X223136888Y-111012184D01*
X223136784Y-111012435D01*
X223021765Y-111184573D01*
X222875373Y-111330965D01*
X222703235Y-111445984D01*
X222703234Y-111445985D01*
X222703233Y-111445985D01*
X222511964Y-111525211D01*
X222308916Y-111565600D01*
X222101884Y-111565600D01*
X221898836Y-111525211D01*
X221707567Y-111445985D01*
X221707566Y-111445985D01*
X221707565Y-111445984D01*
X221535427Y-111330965D01*
X221389035Y-111184573D01*
X221274016Y-111012435D01*
X221273912Y-111012184D01*
X221194789Y-110821164D01*
X221154400Y-110618116D01*
X221154400Y-110411084D01*
X221194789Y-110208036D01*
X221274015Y-110016767D01*
X221300397Y-109977284D01*
X221389035Y-109844627D01*
X221535427Y-109698235D01*
X221707565Y-109583216D01*
X221729930Y-109573952D01*
X221898836Y-109503989D01*
X222101884Y-109463600D01*
X222308916Y-109463600D01*
X222511964Y-109503989D01*
G37*
G36*
X189031964Y-109453989D02*
G01*
X189212241Y-109528662D01*
X189223235Y-109533216D01*
X189395373Y-109648235D01*
X189541765Y-109794627D01*
X189625736Y-109920298D01*
X189656785Y-109966767D01*
X189736011Y-110158036D01*
X189776400Y-110361084D01*
X189776400Y-110568116D01*
X189736011Y-110771164D01*
X189657310Y-110961165D01*
X189656784Y-110962435D01*
X189541765Y-111134573D01*
X189395373Y-111280965D01*
X189223235Y-111395984D01*
X189223234Y-111395985D01*
X189223233Y-111395985D01*
X189031964Y-111475211D01*
X188828916Y-111515600D01*
X188621884Y-111515600D01*
X188418836Y-111475211D01*
X188227567Y-111395985D01*
X188227566Y-111395985D01*
X188227565Y-111395984D01*
X188055427Y-111280965D01*
X187909035Y-111134573D01*
X187794016Y-110962435D01*
X187793490Y-110961165D01*
X187714789Y-110771164D01*
X187674400Y-110568116D01*
X187674400Y-110361084D01*
X187714789Y-110158036D01*
X187794015Y-109966767D01*
X187825065Y-109920298D01*
X187909035Y-109794627D01*
X188055427Y-109648235D01*
X188227565Y-109533216D01*
X188238559Y-109528662D01*
X188418836Y-109453989D01*
X188621884Y-109413600D01*
X188828916Y-109413600D01*
X189031964Y-109453989D01*
G37*
G36*
X163871964Y-109283989D02*
G01*
X164063233Y-109363215D01*
X164063235Y-109363216D01*
X164235373Y-109478235D01*
X164381765Y-109624627D01*
X164492758Y-109790739D01*
X164496785Y-109796767D01*
X164576011Y-109988036D01*
X164616400Y-110191084D01*
X164616400Y-110398116D01*
X164576011Y-110601164D01*
X164505595Y-110771164D01*
X164496784Y-110792435D01*
X164381765Y-110964573D01*
X164235373Y-111110965D01*
X164063235Y-111225984D01*
X164063234Y-111225985D01*
X164063233Y-111225985D01*
X163871964Y-111305211D01*
X163668916Y-111345600D01*
X163461884Y-111345600D01*
X163258836Y-111305211D01*
X163067567Y-111225985D01*
X163067566Y-111225985D01*
X163067565Y-111225984D01*
X162895427Y-111110965D01*
X162749035Y-110964573D01*
X162634016Y-110792435D01*
X162625205Y-110771164D01*
X162554789Y-110601164D01*
X162514400Y-110398116D01*
X162514400Y-110191084D01*
X162554789Y-109988036D01*
X162634015Y-109796767D01*
X162638043Y-109790739D01*
X162749035Y-109624627D01*
X162895427Y-109478235D01*
X163067565Y-109363216D01*
X163067567Y-109363215D01*
X163258836Y-109283989D01*
X163461884Y-109243600D01*
X163668916Y-109243600D01*
X163871964Y-109283989D01*
G37*
G36*
X366340573Y-109790738D02*
G01*
X366468149Y-109843582D01*
X366582959Y-109920295D01*
X366680605Y-110017941D01*
X366757318Y-110132751D01*
X366810162Y-110260327D01*
X366837100Y-110395756D01*
X366837100Y-110533844D01*
X366810162Y-110669273D01*
X366757318Y-110796849D01*
X366680605Y-110911659D01*
X366582959Y-111009305D01*
X366468149Y-111086018D01*
X366340573Y-111138862D01*
X366205144Y-111165800D01*
X366067056Y-111165800D01*
X365931627Y-111138862D01*
X365804051Y-111086018D01*
X365689241Y-111009305D01*
X365591595Y-110911659D01*
X365514882Y-110796849D01*
X365462038Y-110669273D01*
X365435100Y-110533844D01*
X365435100Y-110395756D01*
X365462038Y-110260327D01*
X365514882Y-110132751D01*
X365591595Y-110017941D01*
X365689241Y-109920295D01*
X365804051Y-109843582D01*
X365931627Y-109790738D01*
X366067056Y-109763800D01*
X366205144Y-109763800D01*
X366340573Y-109790738D01*
G37*
G36*
X344404764Y-109070189D02*
G01*
X344596033Y-109149415D01*
X344596035Y-109149416D01*
X344768173Y-109264435D01*
X344914565Y-109410827D01*
X345023562Y-109573952D01*
X345029585Y-109582967D01*
X345108811Y-109774236D01*
X345149200Y-109977284D01*
X345149200Y-110184316D01*
X345108811Y-110387364D01*
X345049506Y-110530539D01*
X345029584Y-110578635D01*
X344914565Y-110750773D01*
X344768173Y-110897165D01*
X344596035Y-111012184D01*
X344596034Y-111012185D01*
X344596033Y-111012185D01*
X344404764Y-111091411D01*
X344201716Y-111131800D01*
X343994684Y-111131800D01*
X343791636Y-111091411D01*
X343600367Y-111012185D01*
X343600366Y-111012185D01*
X343600365Y-111012184D01*
X343428227Y-110897165D01*
X343281835Y-110750773D01*
X343166816Y-110578635D01*
X343146894Y-110530539D01*
X343087589Y-110387364D01*
X343047200Y-110184316D01*
X343047200Y-109977284D01*
X343087589Y-109774236D01*
X343166815Y-109582967D01*
X343172839Y-109573952D01*
X343281835Y-109410827D01*
X343428227Y-109264435D01*
X343600365Y-109149416D01*
X343600367Y-109149415D01*
X343791636Y-109070189D01*
X343994684Y-109029800D01*
X344201716Y-109029800D01*
X344404764Y-109070189D01*
G37*
G36*
X353437373Y-109231938D02*
G01*
X353564949Y-109284782D01*
X353679759Y-109361495D01*
X353777405Y-109459141D01*
X353854118Y-109573951D01*
X353906962Y-109701527D01*
X353933900Y-109836956D01*
X353933900Y-109975044D01*
X353906962Y-110110473D01*
X353854118Y-110238049D01*
X353777405Y-110352859D01*
X353679759Y-110450505D01*
X353564949Y-110527218D01*
X353437373Y-110580062D01*
X353301944Y-110607000D01*
X353163856Y-110607000D01*
X353028427Y-110580062D01*
X352900851Y-110527218D01*
X352786041Y-110450505D01*
X352688395Y-110352859D01*
X352611682Y-110238049D01*
X352558838Y-110110473D01*
X352531900Y-109975044D01*
X352531900Y-109836956D01*
X352558838Y-109701527D01*
X352611682Y-109573951D01*
X352688395Y-109459141D01*
X352786041Y-109361495D01*
X352900851Y-109284782D01*
X353028427Y-109231938D01*
X353163856Y-109205000D01*
X353301944Y-109205000D01*
X353437373Y-109231938D01*
G37*
G36*
X375773764Y-108511389D02*
G01*
X375965033Y-108590615D01*
X375965035Y-108590616D01*
X376137173Y-108705635D01*
X376283565Y-108852027D01*
X376384999Y-109003833D01*
X376398585Y-109024167D01*
X376477811Y-109215436D01*
X376518200Y-109418484D01*
X376518200Y-109625516D01*
X376477811Y-109828564D01*
X376399856Y-110016765D01*
X376398584Y-110019835D01*
X376283565Y-110191973D01*
X376137173Y-110338365D01*
X375965035Y-110453384D01*
X375965034Y-110453385D01*
X375965033Y-110453385D01*
X375773764Y-110532611D01*
X375570716Y-110573000D01*
X375363684Y-110573000D01*
X375160636Y-110532611D01*
X374969367Y-110453385D01*
X374969366Y-110453385D01*
X374969365Y-110453384D01*
X374797227Y-110338365D01*
X374650835Y-110191973D01*
X374535816Y-110019835D01*
X374534544Y-110016765D01*
X374456589Y-109828564D01*
X374416200Y-109625516D01*
X374416200Y-109418484D01*
X374456589Y-109215436D01*
X374535815Y-109024167D01*
X374549402Y-109003833D01*
X374650835Y-108852027D01*
X374797227Y-108705635D01*
X374969365Y-108590616D01*
X374969367Y-108590615D01*
X375160636Y-108511389D01*
X375363684Y-108471000D01*
X375570716Y-108471000D01*
X375773764Y-108511389D01*
G37*
G36*
X363800573Y-108520738D02*
G01*
X363928149Y-108573582D01*
X364042959Y-108650295D01*
X364140605Y-108747941D01*
X364217318Y-108862751D01*
X364270162Y-108990327D01*
X364297100Y-109125756D01*
X364297100Y-109263844D01*
X364270162Y-109399273D01*
X364217318Y-109526849D01*
X364140605Y-109641659D01*
X364042959Y-109739305D01*
X363928149Y-109816018D01*
X363800573Y-109868862D01*
X363665144Y-109895800D01*
X363527056Y-109895800D01*
X363391627Y-109868862D01*
X363264051Y-109816018D01*
X363149241Y-109739305D01*
X363051595Y-109641659D01*
X362974882Y-109526849D01*
X362922038Y-109399273D01*
X362895100Y-109263844D01*
X362895100Y-109125756D01*
X362922038Y-108990327D01*
X362974882Y-108862751D01*
X363051595Y-108747941D01*
X363149241Y-108650295D01*
X363264051Y-108573582D01*
X363391627Y-108520738D01*
X363527056Y-108493800D01*
X363665144Y-108493800D01*
X363800573Y-108520738D01*
G37*
G36*
X355339464Y-107495389D02*
G01*
X355530733Y-107574615D01*
X355530735Y-107574616D01*
X355702873Y-107689635D01*
X355849265Y-107836027D01*
X355952507Y-107990539D01*
X355964285Y-108008167D01*
X356043511Y-108199436D01*
X356083900Y-108402484D01*
X356083900Y-108609516D01*
X356043511Y-108812564D01*
X355999393Y-108919074D01*
X355964284Y-109003835D01*
X355849265Y-109175973D01*
X355702873Y-109322365D01*
X355530735Y-109437384D01*
X355530734Y-109437385D01*
X355530733Y-109437385D01*
X355339464Y-109516611D01*
X355136416Y-109557000D01*
X354929384Y-109557000D01*
X354726336Y-109516611D01*
X354535067Y-109437385D01*
X354535066Y-109437385D01*
X354535065Y-109437384D01*
X354362927Y-109322365D01*
X354216535Y-109175973D01*
X354101516Y-109003835D01*
X354066407Y-108919074D01*
X354022289Y-108812564D01*
X353981900Y-108609516D01*
X353981900Y-108402484D01*
X354022289Y-108199436D01*
X354101515Y-108008167D01*
X354113294Y-107990539D01*
X354216535Y-107836027D01*
X354362927Y-107689635D01*
X354535065Y-107574616D01*
X354535067Y-107574615D01*
X354726336Y-107495389D01*
X354929384Y-107455000D01*
X355136416Y-107455000D01*
X355339464Y-107495389D01*
G37*
G36*
X237329873Y-108180538D02*
G01*
X237457449Y-108233382D01*
X237572259Y-108310095D01*
X237669905Y-108407741D01*
X237746618Y-108522551D01*
X237799462Y-108650127D01*
X237826400Y-108785556D01*
X237826400Y-108923644D01*
X237799462Y-109059073D01*
X237746618Y-109186649D01*
X237669905Y-109301459D01*
X237572259Y-109399105D01*
X237457449Y-109475818D01*
X237329873Y-109528662D01*
X237194444Y-109555600D01*
X237056356Y-109555600D01*
X236920927Y-109528662D01*
X236793351Y-109475818D01*
X236678541Y-109399105D01*
X236580895Y-109301459D01*
X236504182Y-109186649D01*
X236451338Y-109059073D01*
X236424400Y-108923644D01*
X236424400Y-108785556D01*
X236451338Y-108650127D01*
X236504182Y-108522551D01*
X236580895Y-108407741D01*
X236678541Y-108310095D01*
X236793351Y-108233382D01*
X236920927Y-108180538D01*
X237056356Y-108153600D01*
X237194444Y-108153600D01*
X237329873Y-108180538D01*
G37*
G36*
X262199873Y-108180538D02*
G01*
X262327449Y-108233382D01*
X262442259Y-108310095D01*
X262539905Y-108407741D01*
X262616618Y-108522551D01*
X262669462Y-108650127D01*
X262696400Y-108785556D01*
X262696400Y-108923644D01*
X262669462Y-109059073D01*
X262616618Y-109186649D01*
X262539905Y-109301459D01*
X262442259Y-109399105D01*
X262327449Y-109475818D01*
X262199873Y-109528662D01*
X262064444Y-109555600D01*
X261926356Y-109555600D01*
X261790927Y-109528662D01*
X261663351Y-109475818D01*
X261548541Y-109399105D01*
X261450895Y-109301459D01*
X261374182Y-109186649D01*
X261321338Y-109059073D01*
X261294400Y-108923644D01*
X261294400Y-108785556D01*
X261321338Y-108650127D01*
X261374182Y-108522551D01*
X261450895Y-108407741D01*
X261548541Y-108310095D01*
X261663351Y-108233382D01*
X261790927Y-108180538D01*
X261926356Y-108153600D01*
X262064444Y-108153600D01*
X262199873Y-108180538D01*
G37*
G36*
X269819873Y-108180538D02*
G01*
X269947449Y-108233382D01*
X270062259Y-108310095D01*
X270159905Y-108407741D01*
X270236618Y-108522551D01*
X270289462Y-108650127D01*
X270316400Y-108785556D01*
X270316400Y-108923644D01*
X270289462Y-109059073D01*
X270236618Y-109186649D01*
X270159905Y-109301459D01*
X270062259Y-109399105D01*
X269947449Y-109475818D01*
X269819873Y-109528662D01*
X269684444Y-109555600D01*
X269546356Y-109555600D01*
X269410927Y-109528662D01*
X269283351Y-109475818D01*
X269168541Y-109399105D01*
X269070895Y-109301459D01*
X268994182Y-109186649D01*
X268941338Y-109059073D01*
X268914400Y-108923644D01*
X268914400Y-108785556D01*
X268941338Y-108650127D01*
X268994182Y-108522551D01*
X269070895Y-108407741D01*
X269168541Y-108310095D01*
X269283351Y-108233382D01*
X269410927Y-108180538D01*
X269546356Y-108153600D01*
X269684444Y-108153600D01*
X269819873Y-108180538D01*
G37*
G36*
X267279873Y-108180538D02*
G01*
X267407449Y-108233382D01*
X267522259Y-108310095D01*
X267619905Y-108407741D01*
X267696618Y-108522551D01*
X267749462Y-108650127D01*
X267776400Y-108785556D01*
X267776400Y-108923644D01*
X267749462Y-109059073D01*
X267696618Y-109186649D01*
X267619905Y-109301459D01*
X267522259Y-109399105D01*
X267407449Y-109475818D01*
X267279873Y-109528662D01*
X267144444Y-109555600D01*
X267006356Y-109555600D01*
X266870927Y-109528662D01*
X266743351Y-109475818D01*
X266628541Y-109399105D01*
X266530895Y-109301459D01*
X266454182Y-109186649D01*
X266401338Y-109059073D01*
X266374400Y-108923644D01*
X266374400Y-108785556D01*
X266401338Y-108650127D01*
X266454182Y-108522551D01*
X266530895Y-108407741D01*
X266628541Y-108310095D01*
X266743351Y-108233382D01*
X266870927Y-108180538D01*
X267006356Y-108153600D01*
X267144444Y-108153600D01*
X267279873Y-108180538D01*
G37*
G36*
X244949873Y-108180538D02*
G01*
X245077449Y-108233382D01*
X245192259Y-108310095D01*
X245289905Y-108407741D01*
X245366618Y-108522551D01*
X245419462Y-108650127D01*
X245446400Y-108785556D01*
X245446400Y-108923644D01*
X245419462Y-109059073D01*
X245366618Y-109186649D01*
X245289905Y-109301459D01*
X245192259Y-109399105D01*
X245077449Y-109475818D01*
X244949873Y-109528662D01*
X244814444Y-109555600D01*
X244676356Y-109555600D01*
X244540927Y-109528662D01*
X244413351Y-109475818D01*
X244298541Y-109399105D01*
X244200895Y-109301459D01*
X244124182Y-109186649D01*
X244071338Y-109059073D01*
X244044400Y-108923644D01*
X244044400Y-108785556D01*
X244071338Y-108650127D01*
X244124182Y-108522551D01*
X244200895Y-108407741D01*
X244298541Y-108310095D01*
X244413351Y-108233382D01*
X244540927Y-108180538D01*
X244676356Y-108153600D01*
X244814444Y-108153600D01*
X244949873Y-108180538D01*
G37*
G36*
X242409873Y-108180538D02*
G01*
X242537449Y-108233382D01*
X242652259Y-108310095D01*
X242749905Y-108407741D01*
X242826618Y-108522551D01*
X242879462Y-108650127D01*
X242906400Y-108785556D01*
X242906400Y-108923644D01*
X242879462Y-109059073D01*
X242826618Y-109186649D01*
X242749905Y-109301459D01*
X242652259Y-109399105D01*
X242537449Y-109475818D01*
X242409873Y-109528662D01*
X242274444Y-109555600D01*
X242136356Y-109555600D01*
X242000927Y-109528662D01*
X241873351Y-109475818D01*
X241758541Y-109399105D01*
X241660895Y-109301459D01*
X241584182Y-109186649D01*
X241531338Y-109059073D01*
X241504400Y-108923644D01*
X241504400Y-108785556D01*
X241531338Y-108650127D01*
X241584182Y-108522551D01*
X241660895Y-108407741D01*
X241758541Y-108310095D01*
X241873351Y-108233382D01*
X242000927Y-108180538D01*
X242136356Y-108153600D01*
X242274444Y-108153600D01*
X242409873Y-108180538D01*
G37*
G36*
X259659873Y-108180538D02*
G01*
X259787449Y-108233382D01*
X259902259Y-108310095D01*
X259999905Y-108407741D01*
X260076618Y-108522551D01*
X260129462Y-108650127D01*
X260156400Y-108785556D01*
X260156400Y-108923644D01*
X260129462Y-109059073D01*
X260076618Y-109186649D01*
X259999905Y-109301459D01*
X259902259Y-109399105D01*
X259787449Y-109475818D01*
X259659873Y-109528662D01*
X259524444Y-109555600D01*
X259386356Y-109555600D01*
X259250927Y-109528662D01*
X259123351Y-109475818D01*
X259008541Y-109399105D01*
X258910895Y-109301459D01*
X258834182Y-109186649D01*
X258781338Y-109059073D01*
X258754400Y-108923644D01*
X258754400Y-108785556D01*
X258781338Y-108650127D01*
X258834182Y-108522551D01*
X258910895Y-108407741D01*
X259008541Y-108310095D01*
X259123351Y-108233382D01*
X259250927Y-108180538D01*
X259386356Y-108153600D01*
X259524444Y-108153600D01*
X259659873Y-108180538D01*
G37*
G36*
X239869873Y-108180538D02*
G01*
X239997449Y-108233382D01*
X240112259Y-108310095D01*
X240209905Y-108407741D01*
X240286618Y-108522551D01*
X240339462Y-108650127D01*
X240366400Y-108785556D01*
X240366400Y-108923644D01*
X240339462Y-109059073D01*
X240286618Y-109186649D01*
X240209905Y-109301459D01*
X240112259Y-109399105D01*
X239997449Y-109475818D01*
X239869873Y-109528662D01*
X239734444Y-109555600D01*
X239596356Y-109555600D01*
X239460927Y-109528662D01*
X239333351Y-109475818D01*
X239218541Y-109399105D01*
X239120895Y-109301459D01*
X239044182Y-109186649D01*
X238991338Y-109059073D01*
X238964400Y-108923644D01*
X238964400Y-108785556D01*
X238991338Y-108650127D01*
X239044182Y-108522551D01*
X239120895Y-108407741D01*
X239218541Y-108310095D01*
X239333351Y-108233382D01*
X239460927Y-108180538D01*
X239596356Y-108153600D01*
X239734444Y-108153600D01*
X239869873Y-108180538D01*
G37*
G36*
X257119873Y-108180538D02*
G01*
X257247449Y-108233382D01*
X257362259Y-108310095D01*
X257459905Y-108407741D01*
X257536618Y-108522551D01*
X257589462Y-108650127D01*
X257616400Y-108785556D01*
X257616400Y-108923644D01*
X257589462Y-109059073D01*
X257536618Y-109186649D01*
X257459905Y-109301459D01*
X257362259Y-109399105D01*
X257247449Y-109475818D01*
X257119873Y-109528662D01*
X256984444Y-109555600D01*
X256846356Y-109555600D01*
X256710927Y-109528662D01*
X256583351Y-109475818D01*
X256468541Y-109399105D01*
X256370895Y-109301459D01*
X256294182Y-109186649D01*
X256241338Y-109059073D01*
X256214400Y-108923644D01*
X256214400Y-108785556D01*
X256241338Y-108650127D01*
X256294182Y-108522551D01*
X256370895Y-108407741D01*
X256468541Y-108310095D01*
X256583351Y-108233382D01*
X256710927Y-108180538D01*
X256846356Y-108153600D01*
X256984444Y-108153600D01*
X257119873Y-108180538D01*
G37*
G36*
X264739873Y-108180538D02*
G01*
X264867449Y-108233382D01*
X264982259Y-108310095D01*
X265079905Y-108407741D01*
X265156618Y-108522551D01*
X265209462Y-108650127D01*
X265236400Y-108785556D01*
X265236400Y-108923644D01*
X265209462Y-109059073D01*
X265156618Y-109186649D01*
X265079905Y-109301459D01*
X264982259Y-109399105D01*
X264867449Y-109475818D01*
X264739873Y-109528662D01*
X264604444Y-109555600D01*
X264466356Y-109555600D01*
X264330927Y-109528662D01*
X264203351Y-109475818D01*
X264088541Y-109399105D01*
X263990895Y-109301459D01*
X263914182Y-109186649D01*
X263861338Y-109059073D01*
X263834400Y-108923644D01*
X263834400Y-108785556D01*
X263861338Y-108650127D01*
X263914182Y-108522551D01*
X263990895Y-108407741D01*
X264088541Y-108310095D01*
X264203351Y-108233382D01*
X264330927Y-108180538D01*
X264466356Y-108153600D01*
X264604444Y-108153600D01*
X264739873Y-108180538D01*
G37*
G36*
X234789873Y-108180538D02*
G01*
X234917449Y-108233382D01*
X235032259Y-108310095D01*
X235129905Y-108407741D01*
X235206618Y-108522551D01*
X235259462Y-108650127D01*
X235286400Y-108785556D01*
X235286400Y-108923644D01*
X235259462Y-109059073D01*
X235206618Y-109186649D01*
X235129905Y-109301459D01*
X235032259Y-109399105D01*
X234917449Y-109475818D01*
X234789873Y-109528662D01*
X234654444Y-109555600D01*
X234516356Y-109555600D01*
X234380927Y-109528662D01*
X234253351Y-109475818D01*
X234138541Y-109399105D01*
X234040895Y-109301459D01*
X233964182Y-109186649D01*
X233911338Y-109059073D01*
X233884400Y-108923644D01*
X233884400Y-108785556D01*
X233911338Y-108650127D01*
X233964182Y-108522551D01*
X234040895Y-108407741D01*
X234138541Y-108310095D01*
X234253351Y-108233382D01*
X234380927Y-108180538D01*
X234516356Y-108153600D01*
X234654444Y-108153600D01*
X234789873Y-108180538D01*
G37*
G36*
X232249873Y-108180538D02*
G01*
X232377449Y-108233382D01*
X232492259Y-108310095D01*
X232589905Y-108407741D01*
X232666618Y-108522551D01*
X232719462Y-108650127D01*
X232746400Y-108785556D01*
X232746400Y-108923644D01*
X232719462Y-109059073D01*
X232666618Y-109186649D01*
X232589905Y-109301459D01*
X232492259Y-109399105D01*
X232377449Y-109475818D01*
X232249873Y-109528662D01*
X232114444Y-109555600D01*
X231976356Y-109555600D01*
X231840927Y-109528662D01*
X231713351Y-109475818D01*
X231598541Y-109399105D01*
X231500895Y-109301459D01*
X231424182Y-109186649D01*
X231371338Y-109059073D01*
X231344400Y-108923644D01*
X231344400Y-108785556D01*
X231371338Y-108650127D01*
X231424182Y-108522551D01*
X231500895Y-108407741D01*
X231598541Y-108310095D01*
X231713351Y-108233382D01*
X231840927Y-108180538D01*
X231976356Y-108153600D01*
X232114444Y-108153600D01*
X232249873Y-108180538D01*
G37*
G36*
X221009873Y-108040538D02*
G01*
X221137449Y-108093382D01*
X221252259Y-108170095D01*
X221349905Y-108267741D01*
X221426618Y-108382551D01*
X221479462Y-108510127D01*
X221506400Y-108645556D01*
X221506400Y-108783644D01*
X221479462Y-108919073D01*
X221426618Y-109046649D01*
X221349905Y-109161459D01*
X221252259Y-109259105D01*
X221137449Y-109335818D01*
X221009873Y-109388662D01*
X220874444Y-109415600D01*
X220736356Y-109415600D01*
X220600927Y-109388662D01*
X220473351Y-109335818D01*
X220358541Y-109259105D01*
X220260895Y-109161459D01*
X220184182Y-109046649D01*
X220131338Y-108919073D01*
X220104400Y-108783644D01*
X220104400Y-108645556D01*
X220131338Y-108510127D01*
X220184182Y-108382551D01*
X220260895Y-108267741D01*
X220358541Y-108170095D01*
X220473351Y-108093382D01*
X220600927Y-108040538D01*
X220736356Y-108013600D01*
X220874444Y-108013600D01*
X221009873Y-108040538D01*
G37*
G36*
X213389873Y-108040538D02*
G01*
X213517449Y-108093382D01*
X213632259Y-108170095D01*
X213729905Y-108267741D01*
X213806618Y-108382551D01*
X213859462Y-108510127D01*
X213886400Y-108645556D01*
X213886400Y-108783644D01*
X213859462Y-108919073D01*
X213806618Y-109046649D01*
X213729905Y-109161459D01*
X213632259Y-109259105D01*
X213517449Y-109335818D01*
X213389873Y-109388662D01*
X213254444Y-109415600D01*
X213116356Y-109415600D01*
X212980927Y-109388662D01*
X212853351Y-109335818D01*
X212738541Y-109259105D01*
X212640895Y-109161459D01*
X212564182Y-109046649D01*
X212511338Y-108919073D01*
X212484400Y-108783644D01*
X212484400Y-108645556D01*
X212511338Y-108510127D01*
X212564182Y-108382551D01*
X212640895Y-108267741D01*
X212738541Y-108170095D01*
X212853351Y-108093382D01*
X212980927Y-108040538D01*
X213116356Y-108013600D01*
X213254444Y-108013600D01*
X213389873Y-108040538D01*
G37*
G36*
X210849873Y-108040538D02*
G01*
X210977449Y-108093382D01*
X211092259Y-108170095D01*
X211189905Y-108267741D01*
X211266618Y-108382551D01*
X211319462Y-108510127D01*
X211346400Y-108645556D01*
X211346400Y-108783644D01*
X211319462Y-108919073D01*
X211266618Y-109046649D01*
X211189905Y-109161459D01*
X211092259Y-109259105D01*
X210977449Y-109335818D01*
X210849873Y-109388662D01*
X210714444Y-109415600D01*
X210576356Y-109415600D01*
X210440927Y-109388662D01*
X210313351Y-109335818D01*
X210198541Y-109259105D01*
X210100895Y-109161459D01*
X210024182Y-109046649D01*
X209971338Y-108919073D01*
X209944400Y-108783644D01*
X209944400Y-108645556D01*
X209971338Y-108510127D01*
X210024182Y-108382551D01*
X210100895Y-108267741D01*
X210198541Y-108170095D01*
X210313351Y-108093382D01*
X210440927Y-108040538D01*
X210576356Y-108013600D01*
X210714444Y-108013600D01*
X210849873Y-108040538D01*
G37*
G36*
X205769873Y-108040538D02*
G01*
X205897449Y-108093382D01*
X206012259Y-108170095D01*
X206109905Y-108267741D01*
X206186618Y-108382551D01*
X206239462Y-108510127D01*
X206266400Y-108645556D01*
X206266400Y-108783644D01*
X206239462Y-108919073D01*
X206186618Y-109046649D01*
X206109905Y-109161459D01*
X206012259Y-109259105D01*
X205897449Y-109335818D01*
X205769873Y-109388662D01*
X205634444Y-109415600D01*
X205496356Y-109415600D01*
X205360927Y-109388662D01*
X205233351Y-109335818D01*
X205118541Y-109259105D01*
X205020895Y-109161459D01*
X204944182Y-109046649D01*
X204891338Y-108919073D01*
X204864400Y-108783644D01*
X204864400Y-108645556D01*
X204891338Y-108510127D01*
X204944182Y-108382551D01*
X205020895Y-108267741D01*
X205118541Y-108170095D01*
X205233351Y-108093382D01*
X205360927Y-108040538D01*
X205496356Y-108013600D01*
X205634444Y-108013600D01*
X205769873Y-108040538D01*
G37*
G36*
X208309873Y-108040538D02*
G01*
X208437449Y-108093382D01*
X208552259Y-108170095D01*
X208649905Y-108267741D01*
X208726618Y-108382551D01*
X208779462Y-108510127D01*
X208806400Y-108645556D01*
X208806400Y-108783644D01*
X208779462Y-108919073D01*
X208726618Y-109046649D01*
X208649905Y-109161459D01*
X208552259Y-109259105D01*
X208437449Y-109335818D01*
X208309873Y-109388662D01*
X208174444Y-109415600D01*
X208036356Y-109415600D01*
X207900927Y-109388662D01*
X207773351Y-109335818D01*
X207658541Y-109259105D01*
X207560895Y-109161459D01*
X207484182Y-109046649D01*
X207431338Y-108919073D01*
X207404400Y-108783644D01*
X207404400Y-108645556D01*
X207431338Y-108510127D01*
X207484182Y-108382551D01*
X207560895Y-108267741D01*
X207658541Y-108170095D01*
X207773351Y-108093382D01*
X207900927Y-108040538D01*
X208036356Y-108013600D01*
X208174444Y-108013600D01*
X208309873Y-108040538D01*
G37*
G36*
X203229873Y-108040538D02*
G01*
X203357449Y-108093382D01*
X203472259Y-108170095D01*
X203569905Y-108267741D01*
X203646618Y-108382551D01*
X203699462Y-108510127D01*
X203726400Y-108645556D01*
X203726400Y-108783644D01*
X203699462Y-108919073D01*
X203646618Y-109046649D01*
X203569905Y-109161459D01*
X203472259Y-109259105D01*
X203357449Y-109335818D01*
X203229873Y-109388662D01*
X203094444Y-109415600D01*
X202956356Y-109415600D01*
X202820927Y-109388662D01*
X202693351Y-109335818D01*
X202578541Y-109259105D01*
X202480895Y-109161459D01*
X202404182Y-109046649D01*
X202351338Y-108919073D01*
X202324400Y-108783644D01*
X202324400Y-108645556D01*
X202351338Y-108510127D01*
X202404182Y-108382551D01*
X202480895Y-108267741D01*
X202578541Y-108170095D01*
X202693351Y-108093382D01*
X202820927Y-108040538D01*
X202956356Y-108013600D01*
X203094444Y-108013600D01*
X203229873Y-108040538D01*
G37*
G36*
X218469873Y-108040538D02*
G01*
X218597449Y-108093382D01*
X218712259Y-108170095D01*
X218809905Y-108267741D01*
X218886618Y-108382551D01*
X218939462Y-108510127D01*
X218966400Y-108645556D01*
X218966400Y-108783644D01*
X218939462Y-108919073D01*
X218886618Y-109046649D01*
X218809905Y-109161459D01*
X218712259Y-109259105D01*
X218597449Y-109335818D01*
X218469873Y-109388662D01*
X218334444Y-109415600D01*
X218196356Y-109415600D01*
X218060927Y-109388662D01*
X217933351Y-109335818D01*
X217818541Y-109259105D01*
X217720895Y-109161459D01*
X217644182Y-109046649D01*
X217591338Y-108919073D01*
X217564400Y-108783644D01*
X217564400Y-108645556D01*
X217591338Y-108510127D01*
X217644182Y-108382551D01*
X217720895Y-108267741D01*
X217818541Y-108170095D01*
X217933351Y-108093382D01*
X218060927Y-108040538D01*
X218196356Y-108013600D01*
X218334444Y-108013600D01*
X218469873Y-108040538D01*
G37*
G36*
X215929873Y-108040538D02*
G01*
X216057449Y-108093382D01*
X216172259Y-108170095D01*
X216269905Y-108267741D01*
X216346618Y-108382551D01*
X216399462Y-108510127D01*
X216426400Y-108645556D01*
X216426400Y-108783644D01*
X216399462Y-108919073D01*
X216346618Y-109046649D01*
X216269905Y-109161459D01*
X216172259Y-109259105D01*
X216057449Y-109335818D01*
X215929873Y-109388662D01*
X215794444Y-109415600D01*
X215656356Y-109415600D01*
X215520927Y-109388662D01*
X215393351Y-109335818D01*
X215278541Y-109259105D01*
X215180895Y-109161459D01*
X215104182Y-109046649D01*
X215051338Y-108919073D01*
X215024400Y-108783644D01*
X215024400Y-108645556D01*
X215051338Y-108510127D01*
X215104182Y-108382551D01*
X215180895Y-108267741D01*
X215278541Y-108170095D01*
X215393351Y-108093382D01*
X215520927Y-108040538D01*
X215656356Y-108013600D01*
X215794444Y-108013600D01*
X215929873Y-108040538D01*
G37*
G36*
X184989873Y-107990538D02*
G01*
X185117449Y-108043382D01*
X185232259Y-108120095D01*
X185329905Y-108217741D01*
X185406618Y-108332551D01*
X185459462Y-108460127D01*
X185486400Y-108595556D01*
X185486400Y-108733644D01*
X185459462Y-108869073D01*
X185406618Y-108996649D01*
X185329905Y-109111459D01*
X185232259Y-109209105D01*
X185117449Y-109285818D01*
X184989873Y-109338662D01*
X184854444Y-109365600D01*
X184716356Y-109365600D01*
X184580927Y-109338662D01*
X184453351Y-109285818D01*
X184338541Y-109209105D01*
X184240895Y-109111459D01*
X184164182Y-108996649D01*
X184111338Y-108869073D01*
X184084400Y-108733644D01*
X184084400Y-108595556D01*
X184111338Y-108460127D01*
X184164182Y-108332551D01*
X184240895Y-108217741D01*
X184338541Y-108120095D01*
X184453351Y-108043382D01*
X184580927Y-107990538D01*
X184716356Y-107963600D01*
X184854444Y-107963600D01*
X184989873Y-107990538D01*
G37*
G36*
X187529873Y-107990538D02*
G01*
X187657449Y-108043382D01*
X187772259Y-108120095D01*
X187869905Y-108217741D01*
X187946618Y-108332551D01*
X187999462Y-108460127D01*
X188026400Y-108595556D01*
X188026400Y-108733644D01*
X187999462Y-108869073D01*
X187946618Y-108996649D01*
X187869905Y-109111459D01*
X187772259Y-109209105D01*
X187657449Y-109285818D01*
X187529873Y-109338662D01*
X187394444Y-109365600D01*
X187256356Y-109365600D01*
X187120927Y-109338662D01*
X186993351Y-109285818D01*
X186878541Y-109209105D01*
X186780895Y-109111459D01*
X186704182Y-108996649D01*
X186651338Y-108869073D01*
X186624400Y-108733644D01*
X186624400Y-108595556D01*
X186651338Y-108460127D01*
X186704182Y-108332551D01*
X186780895Y-108217741D01*
X186878541Y-108120095D01*
X186993351Y-108043382D01*
X187120927Y-107990538D01*
X187256356Y-107963600D01*
X187394444Y-107963600D01*
X187529873Y-107990538D01*
G37*
G36*
X179909873Y-107990538D02*
G01*
X180037449Y-108043382D01*
X180152259Y-108120095D01*
X180249905Y-108217741D01*
X180326618Y-108332551D01*
X180379462Y-108460127D01*
X180406400Y-108595556D01*
X180406400Y-108733644D01*
X180379462Y-108869073D01*
X180326618Y-108996649D01*
X180249905Y-109111459D01*
X180152259Y-109209105D01*
X180037449Y-109285818D01*
X179909873Y-109338662D01*
X179774444Y-109365600D01*
X179636356Y-109365600D01*
X179500927Y-109338662D01*
X179373351Y-109285818D01*
X179258541Y-109209105D01*
X179160895Y-109111459D01*
X179084182Y-108996649D01*
X179031338Y-108869073D01*
X179004400Y-108733644D01*
X179004400Y-108595556D01*
X179031338Y-108460127D01*
X179084182Y-108332551D01*
X179160895Y-108217741D01*
X179258541Y-108120095D01*
X179373351Y-108043382D01*
X179500927Y-107990538D01*
X179636356Y-107963600D01*
X179774444Y-107963600D01*
X179909873Y-107990538D01*
G37*
G36*
X177369873Y-107990538D02*
G01*
X177497449Y-108043382D01*
X177612259Y-108120095D01*
X177709905Y-108217741D01*
X177786618Y-108332551D01*
X177839462Y-108460127D01*
X177866400Y-108595556D01*
X177866400Y-108733644D01*
X177839462Y-108869073D01*
X177786618Y-108996649D01*
X177709905Y-109111459D01*
X177612259Y-109209105D01*
X177497449Y-109285818D01*
X177369873Y-109338662D01*
X177234444Y-109365600D01*
X177096356Y-109365600D01*
X176960927Y-109338662D01*
X176833351Y-109285818D01*
X176718541Y-109209105D01*
X176620895Y-109111459D01*
X176544182Y-108996649D01*
X176491338Y-108869073D01*
X176464400Y-108733644D01*
X176464400Y-108595556D01*
X176491338Y-108460127D01*
X176544182Y-108332551D01*
X176620895Y-108217741D01*
X176718541Y-108120095D01*
X176833351Y-108043382D01*
X176960927Y-107990538D01*
X177096356Y-107963600D01*
X177234444Y-107963600D01*
X177369873Y-107990538D01*
G37*
G36*
X182449873Y-107990538D02*
G01*
X182577449Y-108043382D01*
X182692259Y-108120095D01*
X182789905Y-108217741D01*
X182866618Y-108332551D01*
X182919462Y-108460127D01*
X182946400Y-108595556D01*
X182946400Y-108733644D01*
X182919462Y-108869073D01*
X182866618Y-108996649D01*
X182789905Y-109111459D01*
X182692259Y-109209105D01*
X182577449Y-109285818D01*
X182449873Y-109338662D01*
X182314444Y-109365600D01*
X182176356Y-109365600D01*
X182040927Y-109338662D01*
X181913351Y-109285818D01*
X181798541Y-109209105D01*
X181700895Y-109111459D01*
X181624182Y-108996649D01*
X181571338Y-108869073D01*
X181544400Y-108733644D01*
X181544400Y-108595556D01*
X181571338Y-108460127D01*
X181624182Y-108332551D01*
X181700895Y-108217741D01*
X181798541Y-108120095D01*
X181913351Y-108043382D01*
X182040927Y-107990538D01*
X182176356Y-107963600D01*
X182314444Y-107963600D01*
X182449873Y-107990538D01*
G37*
G36*
X154749873Y-107820538D02*
G01*
X154877449Y-107873382D01*
X154992259Y-107950095D01*
X155089905Y-108047741D01*
X155166618Y-108162551D01*
X155219462Y-108290127D01*
X155246400Y-108425556D01*
X155246400Y-108563644D01*
X155219462Y-108699073D01*
X155166618Y-108826649D01*
X155089905Y-108941459D01*
X154992259Y-109039105D01*
X154877449Y-109115818D01*
X154749873Y-109168662D01*
X154614444Y-109195600D01*
X154476356Y-109195600D01*
X154340927Y-109168662D01*
X154213351Y-109115818D01*
X154098541Y-109039105D01*
X154000895Y-108941459D01*
X153924182Y-108826649D01*
X153871338Y-108699073D01*
X153844400Y-108563644D01*
X153844400Y-108425556D01*
X153871338Y-108290127D01*
X153924182Y-108162551D01*
X154000895Y-108047741D01*
X154098541Y-107950095D01*
X154213351Y-107873382D01*
X154340927Y-107820538D01*
X154476356Y-107793600D01*
X154614444Y-107793600D01*
X154749873Y-107820538D01*
G37*
G36*
X162369873Y-107820538D02*
G01*
X162497449Y-107873382D01*
X162612259Y-107950095D01*
X162709905Y-108047741D01*
X162786618Y-108162551D01*
X162839462Y-108290127D01*
X162866400Y-108425556D01*
X162866400Y-108563644D01*
X162839462Y-108699073D01*
X162786618Y-108826649D01*
X162709905Y-108941459D01*
X162612259Y-109039105D01*
X162497449Y-109115818D01*
X162369873Y-109168662D01*
X162234444Y-109195600D01*
X162096356Y-109195600D01*
X161960927Y-109168662D01*
X161833351Y-109115818D01*
X161718541Y-109039105D01*
X161620895Y-108941459D01*
X161544182Y-108826649D01*
X161491338Y-108699073D01*
X161464400Y-108563644D01*
X161464400Y-108425556D01*
X161491338Y-108290127D01*
X161544182Y-108162551D01*
X161620895Y-108047741D01*
X161718541Y-107950095D01*
X161833351Y-107873382D01*
X161960927Y-107820538D01*
X162096356Y-107793600D01*
X162234444Y-107793600D01*
X162369873Y-107820538D01*
G37*
G36*
X159829873Y-107820538D02*
G01*
X159957449Y-107873382D01*
X160072259Y-107950095D01*
X160169905Y-108047741D01*
X160246618Y-108162551D01*
X160299462Y-108290127D01*
X160326400Y-108425556D01*
X160326400Y-108563644D01*
X160299462Y-108699073D01*
X160246618Y-108826649D01*
X160169905Y-108941459D01*
X160072259Y-109039105D01*
X159957449Y-109115818D01*
X159829873Y-109168662D01*
X159694444Y-109195600D01*
X159556356Y-109195600D01*
X159420927Y-109168662D01*
X159293351Y-109115818D01*
X159178541Y-109039105D01*
X159080895Y-108941459D01*
X159004182Y-108826649D01*
X158951338Y-108699073D01*
X158924400Y-108563644D01*
X158924400Y-108425556D01*
X158951338Y-108290127D01*
X159004182Y-108162551D01*
X159080895Y-108047741D01*
X159178541Y-107950095D01*
X159293351Y-107873382D01*
X159420927Y-107820538D01*
X159556356Y-107793600D01*
X159694444Y-107793600D01*
X159829873Y-107820538D01*
G37*
G36*
X157289873Y-107820538D02*
G01*
X157417449Y-107873382D01*
X157532259Y-107950095D01*
X157629905Y-108047741D01*
X157706618Y-108162551D01*
X157759462Y-108290127D01*
X157786400Y-108425556D01*
X157786400Y-108563644D01*
X157759462Y-108699073D01*
X157706618Y-108826649D01*
X157629905Y-108941459D01*
X157532259Y-109039105D01*
X157417449Y-109115818D01*
X157289873Y-109168662D01*
X157154444Y-109195600D01*
X157016356Y-109195600D01*
X156880927Y-109168662D01*
X156753351Y-109115818D01*
X156638541Y-109039105D01*
X156540895Y-108941459D01*
X156464182Y-108826649D01*
X156411338Y-108699073D01*
X156384400Y-108563644D01*
X156384400Y-108425556D01*
X156411338Y-108290127D01*
X156464182Y-108162551D01*
X156540895Y-108047741D01*
X156638541Y-107950095D01*
X156753351Y-107873382D01*
X156880927Y-107820538D01*
X157016356Y-107793600D01*
X157154444Y-107793600D01*
X157289873Y-107820538D01*
G37*
G36*
X152209873Y-107820538D02*
G01*
X152337449Y-107873382D01*
X152452259Y-107950095D01*
X152549905Y-108047741D01*
X152626618Y-108162551D01*
X152679462Y-108290127D01*
X152706400Y-108425556D01*
X152706400Y-108563644D01*
X152679462Y-108699073D01*
X152626618Y-108826649D01*
X152549905Y-108941459D01*
X152452259Y-109039105D01*
X152337449Y-109115818D01*
X152209873Y-109168662D01*
X152074444Y-109195600D01*
X151936356Y-109195600D01*
X151800927Y-109168662D01*
X151673351Y-109115818D01*
X151558541Y-109039105D01*
X151460895Y-108941459D01*
X151384182Y-108826649D01*
X151331338Y-108699073D01*
X151304400Y-108563644D01*
X151304400Y-108425556D01*
X151331338Y-108290127D01*
X151384182Y-108162551D01*
X151460895Y-108047741D01*
X151558541Y-107950095D01*
X151673351Y-107873382D01*
X151800927Y-107820538D01*
X151936356Y-107793600D01*
X152074444Y-107793600D01*
X152209873Y-107820538D01*
G37*
G36*
X149669873Y-107820538D02*
G01*
X149797449Y-107873382D01*
X149912259Y-107950095D01*
X150009905Y-108047741D01*
X150086618Y-108162551D01*
X150139462Y-108290127D01*
X150166400Y-108425556D01*
X150166400Y-108563644D01*
X150139462Y-108699073D01*
X150086618Y-108826649D01*
X150009905Y-108941459D01*
X149912259Y-109039105D01*
X149797449Y-109115818D01*
X149669873Y-109168662D01*
X149534444Y-109195600D01*
X149396356Y-109195600D01*
X149260927Y-109168662D01*
X149133351Y-109115818D01*
X149018541Y-109039105D01*
X148920895Y-108941459D01*
X148844182Y-108826649D01*
X148791338Y-108699073D01*
X148764400Y-108563644D01*
X148764400Y-108425556D01*
X148791338Y-108290127D01*
X148844182Y-108162551D01*
X148920895Y-108047741D01*
X149018541Y-107950095D01*
X149133351Y-107873382D01*
X149260927Y-107820538D01*
X149396356Y-107793600D01*
X149534444Y-107793600D01*
X149669873Y-107820538D01*
G37*
G36*
X365702664Y-106784189D02*
G01*
X365893933Y-106863415D01*
X365893935Y-106863416D01*
X366066073Y-106978435D01*
X366212465Y-107124827D01*
X366327485Y-107296967D01*
X366406711Y-107488236D01*
X366447100Y-107691284D01*
X366447100Y-107898316D01*
X366406711Y-108101364D01*
X366328523Y-108290126D01*
X366327484Y-108292635D01*
X366212465Y-108464773D01*
X366066073Y-108611165D01*
X365893935Y-108726184D01*
X365893934Y-108726185D01*
X365893933Y-108726185D01*
X365702664Y-108805411D01*
X365499616Y-108845800D01*
X365292584Y-108845800D01*
X365089536Y-108805411D01*
X364898267Y-108726185D01*
X364898266Y-108726185D01*
X364898265Y-108726184D01*
X364726127Y-108611165D01*
X364579735Y-108464773D01*
X364464716Y-108292635D01*
X364463677Y-108290126D01*
X364385489Y-108101364D01*
X364345100Y-107898316D01*
X364345100Y-107691284D01*
X364385489Y-107488236D01*
X364464715Y-107296967D01*
X364579735Y-107124827D01*
X364726127Y-106978435D01*
X364898265Y-106863416D01*
X364898267Y-106863415D01*
X365089536Y-106784189D01*
X365292584Y-106743800D01*
X365499616Y-106743800D01*
X365702664Y-106784189D01*
G37*
M02*
