G04 #@! TF.GenerationSoftware,KiCad,Pcbnew,5.1.5-52549c5~84~ubuntu18.04.1*
G04 #@! TF.CreationDate,2020-02-28T01:04:35-05:00*
G04 #@! TF.ProjectId,DA_Board_1,44415f42-6f61-4726-945f-312e6b696361,rev?*
G04 #@! TF.SameCoordinates,Original*
G04 #@! TF.FileFunction,Copper,L2,Bot*
G04 #@! TF.FilePolarity,Positive*
%FSLAX46Y46*%
G04 Gerber Fmt 4.6, Leading zero omitted, Abs format (unit mm)*
G04 Created by KiCad (PCBNEW 5.1.5-52549c5~84~ubuntu18.04.1) date 2020-02-28 01:04:35*
%MOMM*%
%LPD*%
G04 APERTURE LIST*
%ADD10C,2.000000*%
%ADD11C,1.300000*%
%ADD12C,0.800000*%
%ADD13C,0.254000*%
G04 APERTURE END LIST*
D10*
X246145400Y-110654600D03*
D11*
X230775400Y-111394600D03*
X232045400Y-108854600D03*
X233315400Y-111394600D03*
X234585400Y-108854600D03*
X235855400Y-111394600D03*
X238395400Y-111394600D03*
X240935400Y-111394600D03*
X243475400Y-111394600D03*
X237125400Y-108854600D03*
X244745400Y-108854600D03*
X242205400Y-108854600D03*
X239665400Y-108854600D03*
X353232900Y-114986000D03*
X353232900Y-112446000D03*
X353232900Y-109906000D03*
X353232900Y-117526000D03*
X355772900Y-111176000D03*
X355772900Y-113716000D03*
X355772900Y-116256000D03*
X355772900Y-118796000D03*
X353232900Y-120066000D03*
X355772900Y-121336000D03*
X353232900Y-122606000D03*
X355772900Y-123876000D03*
D10*
X355032900Y-108506000D03*
X222205400Y-110514600D03*
D11*
X201755400Y-111254600D03*
X203025400Y-108714600D03*
X204295400Y-111254600D03*
X205565400Y-108714600D03*
X206835400Y-111254600D03*
X208105400Y-108714600D03*
X209375400Y-111254600D03*
X210645400Y-108714600D03*
X211915400Y-111254600D03*
X214455400Y-111254600D03*
X216995400Y-111254600D03*
X219535400Y-111254600D03*
X213185400Y-108714600D03*
X220805400Y-108714600D03*
X218265400Y-108714600D03*
X215725400Y-108714600D03*
X42545000Y-136372600D03*
X42545000Y-133832600D03*
X45085000Y-135102600D03*
X45085000Y-137642600D03*
D10*
X44045000Y-132432600D03*
X344098200Y-110080800D03*
D11*
X344838200Y-125450800D03*
X342298200Y-124180800D03*
X344838200Y-122910800D03*
X342298200Y-121640800D03*
X344838200Y-120370800D03*
X344838200Y-117830800D03*
X344838200Y-115290800D03*
X344838200Y-112750800D03*
X342298200Y-119100800D03*
X342298200Y-111480800D03*
X342298200Y-114020800D03*
X342298200Y-116560800D03*
D10*
X271015400Y-110654600D03*
D11*
X255645400Y-111394600D03*
X256915400Y-108854600D03*
X258185400Y-111394600D03*
X259455400Y-108854600D03*
X260725400Y-111394600D03*
X263265400Y-111394600D03*
X265805400Y-111394600D03*
X268345400Y-111394600D03*
X261995400Y-108854600D03*
X269615400Y-108854600D03*
X267075400Y-108854600D03*
X264535400Y-108854600D03*
D10*
X163565400Y-110294600D03*
D11*
X148195400Y-111034600D03*
X149465400Y-108494600D03*
X150735400Y-111034600D03*
X152005400Y-108494600D03*
X153275400Y-111034600D03*
X155815400Y-111034600D03*
X158355400Y-111034600D03*
X160895400Y-111034600D03*
X154545400Y-108494600D03*
X162165400Y-108494600D03*
X159625400Y-108494600D03*
X157085400Y-108494600D03*
D10*
X375467200Y-109522000D03*
D11*
X376207200Y-122352000D03*
X373667200Y-121082000D03*
X376207200Y-119812000D03*
X376207200Y-117272000D03*
X376207200Y-114732000D03*
X376207200Y-112192000D03*
X373667200Y-118542000D03*
X373667200Y-110922000D03*
X373667200Y-113462000D03*
X373667200Y-116002000D03*
D10*
X365396100Y-107794800D03*
D11*
X366136100Y-123164800D03*
X363596100Y-121894800D03*
X366136100Y-120624800D03*
X363596100Y-119354800D03*
X366136100Y-118084800D03*
X366136100Y-115544800D03*
X366136100Y-113004800D03*
X366136100Y-110464800D03*
X363596100Y-116814800D03*
X363596100Y-109194800D03*
X363596100Y-111734800D03*
X363596100Y-114274800D03*
D10*
X188725400Y-110464600D03*
D11*
X175895400Y-111204600D03*
X177165400Y-108664600D03*
X178435400Y-111204600D03*
X180975400Y-111204600D03*
X183515400Y-111204600D03*
X186055400Y-111204600D03*
X179705400Y-108664600D03*
X187325400Y-108664600D03*
X184785400Y-108664600D03*
X182245400Y-108664600D03*
D12*
X336902500Y-109664500D03*
X353441000Y-106426000D03*
X356743000Y-106426000D03*
X338356500Y-108902500D03*
X337629500Y-108157910D03*
X352298000Y-106425998D03*
X357568492Y-107251508D03*
X339866366Y-108496021D03*
X210058000Y-105664000D03*
X170942000Y-105340043D03*
X215078708Y-122215093D03*
X237744000Y-116586000D03*
X221742000Y-146431000D03*
X239198011Y-116468188D03*
X266942626Y-141171874D03*
X268722172Y-139376211D03*
X256667000Y-114207990D03*
X258318000Y-114207990D03*
X274066000Y-113665000D03*
X274955000Y-113030000D03*
X262302231Y-112288268D03*
X225958400Y-112591958D03*
X216592011Y-121761082D03*
X223393000Y-116205000D03*
X345567000Y-147955000D03*
X342715574Y-143579574D03*
X259688432Y-114186511D03*
X180984081Y-123196104D03*
X217043000Y-116205000D03*
X221599023Y-123698000D03*
X252243058Y-144123942D03*
X273939000Y-145161000D03*
X339725000Y-144907000D03*
X338836000Y-142452575D03*
X261874000Y-114211011D03*
X244221000Y-115189000D03*
X366903000Y-139827000D03*
X362839000Y-138084000D03*
X350079421Y-134370705D03*
X226909237Y-119213237D03*
X221846885Y-118919522D03*
X218694000Y-116058977D03*
X220846933Y-118929433D03*
X215900000Y-116586000D03*
X250190000Y-105664000D03*
X352613027Y-105316824D03*
X355854000Y-105283000D03*
X361315000Y-105282996D03*
X250021567Y-104622533D03*
X351663000Y-104521000D03*
X355146892Y-104575892D03*
X355855879Y-112423245D03*
X357930911Y-112522000D03*
X344550989Y-104622543D03*
X347345000Y-125882479D03*
X214439500Y-115511302D03*
X212788500Y-121307072D03*
X212788500Y-115511302D03*
X169926000Y-145542000D03*
X182625996Y-115570000D03*
X179226967Y-104618033D03*
X171912333Y-104886032D03*
X216223567Y-105359065D03*
X72517000Y-146177000D03*
X53409574Y-145726426D03*
X201803001Y-114338011D03*
X331724012Y-145542000D03*
X325628000Y-145542000D03*
X319532000Y-145542000D03*
X244348000Y-145542000D03*
X238252000Y-145542000D03*
X232664000Y-145542000D03*
X156718000Y-145796000D03*
X150622000Y-145796000D03*
X144780000Y-145796000D03*
X71120000Y-145288000D03*
X65024000Y-145288000D03*
X58928000Y-145306989D03*
X170688000Y-112776000D03*
X172720000Y-114808000D03*
X166116000Y-113792000D03*
X166116000Y-115824000D03*
X194564000Y-111252000D03*
X194564000Y-115062000D03*
X321056000Y-140716000D03*
X321056000Y-137160000D03*
X283464000Y-140208000D03*
X283464000Y-137160000D03*
X182591010Y-121307072D03*
X179739990Y-121307072D03*
X211074000Y-116967000D03*
X305943000Y-119380000D03*
X305943000Y-113411000D03*
X242205397Y-112598713D03*
X240919000Y-110109000D03*
X215715792Y-122988975D03*
X222449108Y-147138108D03*
X354068899Y-124326303D03*
X267970000Y-142303500D03*
X361632500Y-125158500D03*
X269049502Y-143129000D03*
X339471000Y-147320000D03*
X218328725Y-121761082D03*
X265289864Y-139332136D03*
X363739406Y-123249227D03*
X304736500Y-139763500D03*
X179468301Y-137795000D03*
X133893000Y-116078000D03*
X340360000Y-106426000D03*
X224247891Y-112695257D03*
D13*
X268995399Y-112044599D02*
X268345400Y-111394600D01*
X336902500Y-109664500D02*
X274256500Y-109664500D01*
X271876401Y-112044599D02*
X268995399Y-112044599D01*
X274256500Y-109664500D02*
X271876401Y-112044599D01*
X353441000Y-106426000D02*
X356743000Y-106426000D01*
X338356500Y-108902500D02*
X337166339Y-108902500D01*
X337118439Y-108854600D02*
X269319100Y-108854600D01*
X337166339Y-108902500D02*
X337118439Y-108854600D01*
X337063815Y-108157910D02*
X337629500Y-108157910D01*
X336783504Y-107877599D02*
X337063815Y-108157910D01*
X267075400Y-108854600D02*
X268052401Y-107877599D01*
X268052401Y-107877599D02*
X336783504Y-107877599D01*
X357494281Y-107177297D02*
X357568492Y-107251508D01*
X352298000Y-106425998D02*
X353049299Y-107177297D01*
X353049299Y-107177297D02*
X357494281Y-107177297D01*
X260931499Y-107378501D02*
X338183161Y-107378501D01*
X338183161Y-107378501D02*
X339300681Y-108496021D01*
X339300681Y-108496021D02*
X339866366Y-108496021D01*
X259455400Y-108854600D02*
X260931499Y-107378501D01*
X342948199Y-115910801D02*
X342298200Y-116560800D01*
X254877942Y-108804033D02*
X256757485Y-106924490D01*
X345425200Y-110717762D02*
X343275201Y-112867761D01*
X246782857Y-108804033D02*
X254877942Y-108804033D01*
X343275201Y-112867761D02*
X343275201Y-115583799D01*
X338648870Y-106924490D02*
X339493391Y-107769011D01*
X245731889Y-107753066D02*
X246782857Y-108804033D01*
X345425200Y-109443839D02*
X345425200Y-110717762D01*
X339493391Y-107769011D02*
X343750372Y-107769011D01*
X256757485Y-106924490D02*
X338648870Y-106924490D01*
X238226934Y-107753066D02*
X245731889Y-107753066D01*
X237125400Y-108854600D02*
X238226934Y-107753066D01*
X343750372Y-107769011D02*
X345425200Y-109443839D01*
X343275201Y-115583799D02*
X342948199Y-115910801D01*
X254689876Y-108350024D02*
X246970913Y-108350023D01*
X346763989Y-109400989D02*
X344678000Y-107315000D01*
X343639762Y-116840000D02*
X345948000Y-116840000D01*
X339681448Y-107315000D02*
X338836927Y-106470479D01*
X342298200Y-118181562D02*
X343639762Y-116840000D01*
X345948000Y-116840000D02*
X346763989Y-116024011D01*
X344678000Y-107315000D02*
X339681448Y-107315000D01*
X342298200Y-119100800D02*
X342298200Y-118181562D01*
X338836927Y-106470479D02*
X256569421Y-106470479D01*
X346763989Y-116024011D02*
X346763989Y-109400989D01*
X236140945Y-107299055D02*
X235235399Y-108204601D01*
X245919945Y-107299055D02*
X236140945Y-107299055D01*
X246970913Y-108350023D02*
X245919945Y-107299055D01*
X235235399Y-108204601D02*
X234585400Y-108854600D01*
X256569421Y-106470479D02*
X254689876Y-108350024D01*
X247347028Y-107442002D02*
X254254001Y-107442002D01*
X235855400Y-111394600D02*
X234936162Y-111394600D01*
X347218000Y-116370238D02*
X345757438Y-117830800D01*
X233045000Y-109503438D02*
X233045000Y-108204000D01*
X234936162Y-111394600D02*
X233045000Y-109503438D01*
X343542070Y-105537002D02*
X347218000Y-109212932D01*
X233045000Y-108204000D02*
X234857967Y-106391033D01*
X345757438Y-117830800D02*
X344838200Y-117830800D01*
X347218000Y-109212932D02*
X347218000Y-116370238D01*
X234857967Y-106391033D02*
X246296059Y-106391033D01*
X256159001Y-105537002D02*
X343542070Y-105537002D01*
X254254001Y-107442002D02*
X256159001Y-105537002D01*
X246296059Y-106391033D02*
X247347028Y-107442002D01*
X339371022Y-114407978D02*
X341648201Y-112130799D01*
X243561365Y-115950995D02*
X261810503Y-115950995D01*
X210408533Y-113593631D02*
X210579905Y-113422259D01*
X208342265Y-113593631D02*
X210408533Y-113593631D01*
X180441790Y-113210990D02*
X207959624Y-113210990D01*
X240618307Y-113007937D02*
X243561365Y-115950995D01*
X237282697Y-113007936D02*
X240618307Y-113007937D01*
X210579905Y-113422259D02*
X236868372Y-113422259D01*
X236868372Y-113422259D02*
X237282697Y-113007936D01*
X178435400Y-111204600D02*
X180441790Y-113210990D01*
X261810503Y-115950995D02*
X263353522Y-114407978D01*
X341648201Y-112130799D02*
X342298200Y-111480800D01*
X207959624Y-113210990D02*
X208342265Y-113593631D01*
X263353522Y-114407978D02*
X339371022Y-114407978D01*
X210584098Y-112776000D02*
X210220475Y-113139623D01*
X347672011Y-108785011D02*
X343969991Y-105082991D01*
X344838200Y-120370800D02*
X347672011Y-117536989D01*
X343969991Y-105082991D02*
X255970944Y-105082991D01*
X255970944Y-105082991D02*
X254065944Y-106987991D01*
X254065944Y-106987991D02*
X247535085Y-106987991D01*
X246484116Y-105937022D02*
X229850978Y-105937022D01*
X223011998Y-112776000D02*
X210584098Y-112776000D01*
X210220475Y-113139623D02*
X208530325Y-113139623D01*
X208530325Y-113139623D02*
X208147682Y-112756980D01*
X185067779Y-112756979D02*
X184165399Y-111854599D01*
X184165399Y-111854599D02*
X183515400Y-111204600D01*
X208147682Y-112756980D02*
X185067779Y-112756979D01*
X247535085Y-106987991D02*
X246484116Y-105937022D01*
X229850978Y-105937022D02*
X223011998Y-112776000D01*
X347672011Y-117536989D02*
X347672011Y-108785011D01*
X172134287Y-105740042D02*
X171341999Y-105740042D01*
X171341999Y-105740042D02*
X170942000Y-105340043D01*
X208915000Y-105410000D02*
X172464329Y-105410000D01*
X209169000Y-105664000D02*
X208915000Y-105410000D01*
X210058000Y-105664000D02*
X209169000Y-105664000D01*
X172464329Y-105410000D02*
X172134287Y-105740042D01*
X346275011Y-105210941D02*
X346275010Y-104526980D01*
X208718382Y-112685612D02*
X208335738Y-112302968D01*
X344838200Y-125450800D02*
X348580033Y-121708967D01*
X210820000Y-111898029D02*
X210032417Y-112685612D01*
X184785400Y-111760400D02*
X184785400Y-109583838D01*
X348580032Y-107515962D02*
X346275011Y-105210941D01*
X208335738Y-112302968D02*
X185327968Y-112302968D01*
X212208399Y-108597563D02*
X210820000Y-109985962D01*
X185327968Y-112302968D02*
X184785400Y-111760400D01*
X184785400Y-109583838D02*
X184785400Y-108664600D01*
X214010945Y-104632055D02*
X212208399Y-106434601D01*
X212208399Y-106434601D02*
X212208399Y-108597563D01*
X216874194Y-104632055D02*
X214010945Y-104632055D01*
X345189552Y-103441522D02*
X218064726Y-103441523D01*
X210032417Y-112685612D02*
X208718382Y-112685612D01*
X348580033Y-121708967D02*
X348580032Y-107515962D01*
X346275010Y-104526980D02*
X345189552Y-103441522D01*
X218064726Y-103441523D02*
X216874194Y-104632055D01*
X210820000Y-109985962D02*
X210820000Y-111898029D01*
X215078708Y-122215093D02*
X215970058Y-122215093D01*
X216243049Y-122488084D02*
X220680052Y-122488084D01*
X237178315Y-116586000D02*
X237744000Y-116586000D01*
X220680052Y-122488084D02*
X226582136Y-116586000D01*
X226582136Y-116586000D02*
X237178315Y-116586000D01*
X215970058Y-122215093D02*
X216243049Y-122488084D01*
X356420876Y-102816012D02*
X360137033Y-106532169D01*
X217312499Y-101625478D02*
X345941780Y-101625478D01*
X356692138Y-118796000D02*
X355772900Y-118796000D01*
X360137033Y-115351105D02*
X356692138Y-118796000D01*
X360137033Y-106532169D02*
X360137033Y-115351105D01*
X345941780Y-101625478D02*
X347132313Y-102816011D01*
X216121966Y-102816011D02*
X217312499Y-101625478D01*
X155143989Y-102816011D02*
X216121966Y-102816011D01*
X149465400Y-108494600D02*
X155143989Y-102816011D01*
X347132313Y-102816011D02*
X356420876Y-102816012D01*
X226558260Y-117894012D02*
X238337872Y-117894012D01*
X222377000Y-145796000D02*
X222377000Y-122075272D01*
X239198011Y-117033873D02*
X239198011Y-116468188D01*
X238337872Y-117894012D02*
X239198011Y-117033873D01*
X222377000Y-122075272D02*
X226558260Y-117894012D01*
X221742000Y-146431000D02*
X222377000Y-145796000D01*
X346129835Y-101171467D02*
X217124442Y-101171467D01*
X215933909Y-102362000D02*
X153924000Y-102362000D01*
X356608932Y-102362000D02*
X347320370Y-102362000D01*
X153924000Y-102362000D02*
X148488400Y-107797600D01*
X149909441Y-110384601D02*
X150085401Y-110384601D01*
X347320370Y-102362000D02*
X346129835Y-101171467D01*
X355772900Y-123876000D02*
X360591042Y-119057858D01*
X217124442Y-101171467D02*
X215933909Y-102362000D01*
X360591044Y-106344112D02*
X356608932Y-102362000D01*
X148488400Y-108963560D02*
X149909441Y-110384601D01*
X360591042Y-119057858D02*
X360591044Y-106344112D01*
X150085401Y-110384601D02*
X150735400Y-111034600D01*
X148488400Y-107797600D02*
X148488400Y-108963560D01*
X268722172Y-139392328D02*
X268722172Y-139376211D01*
X266942626Y-141171874D02*
X268722172Y-139392328D01*
X256915400Y-113959590D02*
X256667000Y-114207990D01*
X256915400Y-108854600D02*
X256915400Y-113959590D01*
X362946101Y-116164801D02*
X363596100Y-116814800D01*
X361061000Y-114279700D02*
X362946101Y-116164801D01*
X356689011Y-101800011D02*
X361061000Y-106172000D01*
X148034389Y-107609543D02*
X153843921Y-101800011D01*
X148034389Y-109299389D02*
X148034389Y-107609543D01*
X149758399Y-111023399D02*
X148034389Y-109299389D01*
X149758399Y-111503561D02*
X149758399Y-111023399D01*
X150266438Y-112011600D02*
X149758399Y-111503561D01*
X361061000Y-106172000D02*
X361061000Y-114279700D01*
X215853831Y-101800010D02*
X216936385Y-100717456D01*
X216936385Y-100717456D02*
X346317892Y-100717456D01*
X155815400Y-111034600D02*
X154838400Y-112011600D01*
X346317892Y-100717456D02*
X347400447Y-101800011D01*
X154838400Y-112011600D02*
X150266438Y-112011600D01*
X347400447Y-101800011D02*
X356689011Y-101800011D01*
X153843921Y-101800011D02*
X215853831Y-101800010D01*
X258185400Y-111394600D02*
X258185400Y-114075390D01*
X258185400Y-114075390D02*
X258318000Y-114207990D01*
X217500556Y-102079489D02*
X345753723Y-102079489D01*
X346944256Y-103270022D02*
X356232818Y-103270022D01*
X157085400Y-108494600D02*
X162309978Y-103270022D01*
X162309978Y-103270022D02*
X216310024Y-103270021D01*
X356232818Y-103270022D02*
X359683022Y-106720226D01*
X354795900Y-119264962D02*
X355889937Y-120358999D01*
X355889937Y-120358999D02*
X356241861Y-120358999D01*
X354795900Y-118327039D02*
X354795900Y-119264962D01*
X359683022Y-114788978D02*
X356653001Y-117818999D01*
X355655863Y-122898999D02*
X355303939Y-122898999D01*
X355303940Y-117818999D02*
X354795900Y-118327039D01*
X356241861Y-120358999D02*
X356749901Y-120867039D01*
X345753723Y-102079489D02*
X346944256Y-103270022D01*
X359683022Y-106720226D02*
X359683022Y-114788978D01*
X356749901Y-121804961D02*
X355655863Y-122898999D01*
X356749901Y-120867039D02*
X356749901Y-121804961D01*
X216310024Y-103270021D02*
X217500556Y-102079489D01*
X354795899Y-124344961D02*
X355303939Y-124853001D01*
X359718661Y-124853001D02*
X362676862Y-121894800D01*
X362676862Y-121894800D02*
X363596100Y-121894800D01*
X356653001Y-117818999D02*
X355303940Y-117818999D01*
X354795899Y-123407039D02*
X354795899Y-124344961D01*
X355303939Y-124853001D02*
X359718661Y-124853001D01*
X355303939Y-122898999D02*
X354795899Y-123407039D01*
X265535800Y-113665000D02*
X274066000Y-113665000D01*
X263265400Y-111394600D02*
X265535800Y-113665000D01*
X377184201Y-109275039D02*
X377184201Y-118834999D01*
X148180449Y-112465611D02*
X147218399Y-111503561D01*
X161188399Y-109471601D02*
X157886439Y-109471601D01*
X153655864Y-101346000D02*
X215665773Y-101346000D01*
X157886439Y-109471601D02*
X156792401Y-110565639D01*
X156792401Y-111503561D02*
X155830351Y-112465611D01*
X377184201Y-118834999D02*
X376857199Y-119162001D01*
X376857199Y-119162001D02*
X376207200Y-119812000D01*
X147218399Y-111503561D02*
X147218399Y-107783465D01*
X215665773Y-101346000D02*
X216748328Y-100263445D01*
X347588504Y-101346000D02*
X369255162Y-101346000D01*
X216748328Y-100263445D02*
X346505949Y-100263445D01*
X155830351Y-112465611D02*
X148180449Y-112465611D01*
X346505949Y-100263445D02*
X347588504Y-101346000D01*
X369255162Y-101346000D02*
X377184201Y-109275039D01*
X156792401Y-110565639D02*
X156792401Y-111503561D01*
X147218399Y-107783465D02*
X153655864Y-101346000D01*
X162165400Y-108494600D02*
X161188399Y-109471601D01*
X265805400Y-111394600D02*
X267348798Y-112937998D01*
X274862998Y-112937998D02*
X274955000Y-113030000D01*
X267348798Y-112937998D02*
X274862998Y-112937998D01*
X262302231Y-112600861D02*
X262302231Y-112288268D01*
X259968092Y-114935000D02*
X262302231Y-112600861D01*
X242552436Y-114300000D02*
X244729000Y-114300000D01*
X237094640Y-112553925D02*
X240806361Y-112553925D01*
X245364000Y-114935000D02*
X259968092Y-114935000D01*
X225958400Y-112591958D02*
X226231401Y-112864959D01*
X244729000Y-114300000D02*
X245364000Y-114935000D01*
X236783605Y-112864959D02*
X237094640Y-112553925D01*
X226231401Y-112864959D02*
X236783605Y-112864959D01*
X240806361Y-112553925D02*
X242552436Y-114300000D01*
X216592011Y-121761082D02*
X218274593Y-120078500D01*
X223393000Y-118491000D02*
X223393000Y-116770685D01*
X223393000Y-116770685D02*
X223393000Y-116205000D01*
X218274593Y-120078500D02*
X221805500Y-120078500D01*
X221805500Y-120078500D02*
X223393000Y-118491000D01*
X342715574Y-145103574D02*
X342715574Y-143579574D01*
X345567000Y-147955000D02*
X342715574Y-145103574D01*
X257384362Y-107877600D02*
X257892401Y-108385639D01*
X255065999Y-109258043D02*
X256446442Y-107877600D01*
X251674805Y-109258043D02*
X255065999Y-109258043D01*
X245508363Y-111981601D02*
X248951247Y-111981601D01*
X256446442Y-107877600D02*
X257384362Y-107877600D01*
X257892401Y-108385639D02*
X257892401Y-109323561D01*
X259688432Y-111119592D02*
X259688432Y-113620826D01*
X243358363Y-109831601D02*
X245508363Y-111981601D01*
X240740562Y-108854600D02*
X241717563Y-109831601D01*
X248951247Y-111981601D02*
X251674805Y-109258043D01*
X259688432Y-113620826D02*
X259688432Y-114186511D01*
X257892401Y-109323561D02*
X259688432Y-111119592D01*
X241717563Y-109831601D02*
X243358363Y-109831601D01*
X239665400Y-108854600D02*
X240740562Y-108854600D01*
X180857081Y-123069104D02*
X180984081Y-123196104D01*
X175895400Y-111204600D02*
X180857081Y-116166281D01*
X180857081Y-116166281D02*
X180857081Y-123069104D01*
X221581047Y-123715976D02*
X221599023Y-123698000D01*
X215366831Y-123715976D02*
X221581047Y-123715976D01*
X216696999Y-115858999D02*
X215551039Y-115858999D01*
X217043000Y-116205000D02*
X216696999Y-115858999D01*
X215551039Y-115858999D02*
X214351707Y-117058331D01*
X214351707Y-117058331D02*
X214351707Y-122700852D01*
X214351707Y-122700852D02*
X215366831Y-123715976D01*
X252243058Y-144123942D02*
X272901942Y-144123942D01*
X272901942Y-144123942D02*
X273939000Y-145161000D01*
X339725000Y-144907000D02*
X338836000Y-144018000D01*
X338836000Y-144018000D02*
X338836000Y-142452575D01*
X261874000Y-114211011D02*
X260696002Y-115389009D01*
X244421009Y-115389009D02*
X244221000Y-115189000D01*
X260696002Y-115389009D02*
X244421009Y-115389009D01*
X366903000Y-139827000D02*
X365160000Y-138084000D01*
X365160000Y-138084000D02*
X362839000Y-138084000D01*
X264757273Y-118310010D02*
X263433283Y-119634000D01*
X347342638Y-134370705D02*
X338191490Y-125219557D01*
X350079421Y-134370705D02*
X347342638Y-134370705D01*
X263433283Y-119634000D02*
X241342298Y-119634000D01*
X338191490Y-125219557D02*
X338191490Y-119060056D01*
X338191490Y-119060056D02*
X337441444Y-118310010D01*
X337441444Y-118310010D02*
X264757273Y-118310010D01*
X241300000Y-119634000D02*
X240468033Y-118802033D01*
X241342298Y-119634000D02*
X241300000Y-119634000D01*
X240468033Y-118802033D02*
X227320441Y-118802033D01*
X227320441Y-118802033D02*
X226909237Y-119213237D01*
X219552025Y-116058977D02*
X218694000Y-116058977D01*
X221846885Y-118919522D02*
X221846885Y-118353837D01*
X221846885Y-118353837D02*
X219552025Y-116058977D01*
X220846933Y-118929433D02*
X218243433Y-118929433D01*
X218243433Y-118929433D02*
X216299999Y-116985999D01*
X216299999Y-116985999D02*
X215900000Y-116586000D01*
X247523000Y-105664000D02*
X250190000Y-105664000D01*
X220505038Y-105029000D02*
X246888000Y-105029000D01*
X219535400Y-111254600D02*
X219535400Y-105998638D01*
X246888000Y-105029000D02*
X247523000Y-105664000D01*
X219535400Y-105998638D02*
X220505038Y-105029000D01*
X355820176Y-105316824D02*
X355854000Y-105283000D01*
X352613027Y-105316824D02*
X355820176Y-105316824D01*
X364848258Y-105282996D02*
X361880685Y-105282996D01*
X371983000Y-119397800D02*
X371983000Y-112417738D01*
X361880685Y-105282996D02*
X361315000Y-105282996D01*
X373667200Y-121082000D02*
X371983000Y-119397800D01*
X371983000Y-112417738D02*
X364848258Y-105282996D01*
X249974024Y-104574990D02*
X250021567Y-104622533D01*
X220316981Y-104574990D02*
X249974024Y-104574990D01*
X216995400Y-111254600D02*
X216995400Y-107896571D01*
X216995400Y-107896571D02*
X220316981Y-104574990D01*
X351663000Y-104521000D02*
X355092000Y-104521000D01*
X355092000Y-104521000D02*
X355146892Y-104575892D01*
X355855879Y-112423245D02*
X357832156Y-112423245D01*
X357832156Y-112423245D02*
X357930911Y-112522000D01*
X215432401Y-112231601D02*
X222914331Y-112231601D01*
X343985304Y-104622543D02*
X344550989Y-104622543D01*
X246672173Y-105483011D02*
X247723142Y-106533980D01*
X255789324Y-104622543D02*
X343985304Y-104622543D01*
X214455400Y-111254600D02*
X215432401Y-112231601D01*
X247723142Y-106533980D02*
X253877887Y-106533980D01*
X229662921Y-105483011D02*
X246672173Y-105483011D01*
X222914331Y-112231601D02*
X229662921Y-105483011D01*
X253877887Y-106533980D02*
X255789324Y-104622543D01*
X346227479Y-127000000D02*
X342772999Y-127000001D01*
X338762990Y-116449490D02*
X263922578Y-116449490D01*
X263922578Y-116449490D02*
X262605029Y-117767039D01*
X262605029Y-117767039D02*
X242809137Y-117767039D01*
X237526925Y-115331977D02*
X215184510Y-115331977D01*
X340286989Y-117973489D02*
X338762990Y-116449490D01*
X215184510Y-115331977D02*
X215005185Y-115511302D01*
X342772999Y-127000001D02*
X340286989Y-124513991D01*
X215005185Y-115511302D02*
X214439500Y-115511302D01*
X340286989Y-124513991D02*
X340286989Y-117973489D01*
X347345000Y-125882479D02*
X346227479Y-127000000D01*
X238034925Y-114823979D02*
X237526925Y-115331977D01*
X242809137Y-117767039D02*
X239866076Y-114823978D01*
X239866076Y-114823978D02*
X238034925Y-114823979D01*
X212788500Y-121307072D02*
X212788500Y-115511302D01*
X354341889Y-118138982D02*
X355132871Y-117348000D01*
X209169000Y-107823000D02*
X209169000Y-110128962D01*
X216498080Y-103724033D02*
X213267967Y-103724033D01*
X355772900Y-121336000D02*
X354341889Y-119904989D01*
X359229011Y-106908283D02*
X356044761Y-103724033D01*
X359229011Y-114600921D02*
X359229011Y-106908283D01*
X209375400Y-110335362D02*
X209375400Y-111254600D01*
X356481932Y-117348000D02*
X359229011Y-114600921D01*
X354341889Y-119904989D02*
X354341889Y-118138982D01*
X209169000Y-110128962D02*
X209375400Y-110335362D01*
X355132871Y-117348000D02*
X356481932Y-117348000D01*
X213267967Y-103724033D02*
X209169000Y-107823000D01*
X217688613Y-102533500D02*
X216498080Y-103724033D01*
X345565666Y-102533500D02*
X217688613Y-102533500D01*
X346756199Y-103724033D02*
X345565666Y-102533500D01*
X356044761Y-103724033D02*
X346756199Y-103724033D01*
X182165092Y-122659085D02*
X181864001Y-122357994D01*
X181864001Y-116331995D02*
X182225997Y-115969999D01*
X179832000Y-145542000D02*
X181864000Y-143510000D01*
X181864000Y-124034215D02*
X182165093Y-123733122D01*
X181864001Y-122357994D02*
X181864001Y-116331995D01*
X182165093Y-123733122D02*
X182165092Y-122659085D01*
X181864000Y-143510000D02*
X181864000Y-124034215D01*
X182225997Y-115969999D02*
X182625996Y-115570000D01*
X169926000Y-145542000D02*
X179832000Y-145542000D01*
X346729020Y-105022882D02*
X353232900Y-111526762D01*
X345377610Y-102987512D02*
X346729020Y-104338922D01*
X206835400Y-111254600D02*
X207929438Y-111254600D01*
X207929438Y-111254600D02*
X208906439Y-112231601D01*
X213710022Y-104178044D02*
X216686137Y-104178044D01*
X353232900Y-111526762D02*
X353232900Y-112446000D01*
X216686137Y-104178044D02*
X217876670Y-102987511D01*
X208906439Y-112231601D02*
X209844360Y-112231601D01*
X209668399Y-108219667D02*
X213710022Y-104178044D01*
X209844360Y-112231601D02*
X210352401Y-111723560D01*
X210352401Y-110149401D02*
X209668399Y-109465399D01*
X217876670Y-102987511D02*
X345377610Y-102987512D01*
X209668399Y-109465399D02*
X209668399Y-108219667D01*
X210352401Y-111723560D02*
X210352401Y-110149401D01*
X346729020Y-104338922D02*
X346729020Y-105022882D01*
X179226967Y-104618033D02*
X172180332Y-104618033D01*
X172180332Y-104618033D02*
X171912333Y-104886032D01*
X345821000Y-104715038D02*
X345001495Y-103895533D01*
X348126022Y-107704020D02*
X345821000Y-105398998D01*
X344838200Y-122910800D02*
X348126022Y-119622978D01*
X345821000Y-105398998D02*
X345821000Y-104715038D01*
X218252784Y-103895533D02*
X216789252Y-105359065D01*
X216789252Y-105359065D02*
X216223567Y-105359065D01*
X345001495Y-103895533D02*
X218252784Y-103895533D01*
X348126022Y-119622978D02*
X348126022Y-107704020D01*
X53860148Y-146177000D02*
X53409574Y-145726426D01*
X72517000Y-146177000D02*
X53860148Y-146177000D01*
X263541579Y-114861989D02*
X341457011Y-114861989D01*
X210306221Y-114338011D02*
X210767962Y-113876270D01*
X240430249Y-113461947D02*
X243373308Y-116405006D01*
X243373308Y-116405006D02*
X261998560Y-116405006D01*
X341457011Y-114861989D02*
X341648201Y-114670799D01*
X237470754Y-113461947D02*
X240430249Y-113461947D01*
X201803001Y-114338011D02*
X210306221Y-114338011D01*
X210767962Y-113876270D02*
X237056429Y-113876270D01*
X237056429Y-113876270D02*
X237470754Y-113461947D01*
X261998560Y-116405006D02*
X263541579Y-114861989D01*
X341648201Y-114670799D02*
X342298200Y-114020800D01*
X241046000Y-110109000D02*
X240919000Y-110109000D01*
X242205397Y-112598713D02*
X242205397Y-111268397D01*
X242205397Y-111268397D02*
X241046000Y-110109000D01*
X354209901Y-122137039D02*
X354209901Y-123074961D01*
X352763939Y-116548999D02*
X352255899Y-117057039D01*
X220821229Y-122988975D02*
X216281477Y-122988975D01*
X238471001Y-116934961D02*
X237965961Y-117440001D01*
X355772900Y-111176000D02*
X357683000Y-111176000D01*
X337822444Y-117357512D02*
X264404488Y-117357512D01*
X263086939Y-118675061D02*
X242433023Y-118675061D01*
X242433023Y-118675061D02*
X239489961Y-115731999D01*
X239489961Y-115731999D02*
X238750551Y-115731999D01*
X238750551Y-115731999D02*
X238471001Y-116011549D01*
X339143989Y-118679057D02*
X337822444Y-117357512D01*
X264404488Y-117357512D02*
X263086939Y-118675061D01*
X238471001Y-116011549D02*
X238471001Y-116934961D01*
X216281477Y-122988975D02*
X215715792Y-122988975D01*
X339143989Y-124838557D02*
X339143989Y-118679057D01*
X342521442Y-128216010D02*
X339143989Y-124838557D01*
X355346000Y-114935000D02*
X353732001Y-116548999D01*
X354209901Y-123074961D02*
X349068851Y-128216011D01*
X353701861Y-121628999D02*
X354209901Y-122137039D01*
X352763939Y-121628999D02*
X353701861Y-121628999D01*
X352255899Y-121120959D02*
X352763939Y-121628999D01*
X226370203Y-117440001D02*
X220821229Y-122988975D01*
X353732001Y-116548999D02*
X352763939Y-116548999D01*
X349068851Y-128216011D02*
X342521442Y-128216010D01*
X357683000Y-111176000D02*
X358775000Y-112268000D01*
X357124000Y-114935000D02*
X355346000Y-114935000D01*
X358775000Y-113284000D02*
X357124000Y-114935000D01*
X237965961Y-117440001D02*
X226370203Y-117440001D01*
X358775000Y-112268000D02*
X358775000Y-113284000D01*
X352255899Y-117057039D02*
X352255899Y-121120959D01*
X338645500Y-125031500D02*
X338645500Y-118872000D01*
X354068899Y-124326303D02*
X349680702Y-128714500D01*
X263274996Y-119129072D02*
X241479433Y-119129071D01*
X240698385Y-118348023D02*
X226746317Y-118348023D01*
X226746317Y-118348023D02*
X222849107Y-122245233D01*
X337629500Y-117856000D02*
X264548068Y-117856000D01*
X222849107Y-122245233D02*
X222849107Y-146738109D01*
X222849107Y-146738109D02*
X222449108Y-147138108D01*
X241479433Y-119129071D02*
X240698385Y-118348023D01*
X349680702Y-128714500D02*
X342328500Y-128714500D01*
X342328500Y-128714500D02*
X338645500Y-125031500D01*
X338645500Y-118872000D02*
X337629500Y-117856000D01*
X264548068Y-117856000D02*
X263274996Y-119129072D01*
X267970000Y-142303500D02*
X271691011Y-138582489D01*
X271691011Y-138582489D02*
X348774196Y-138582489D01*
X348774196Y-138582489D02*
X361632500Y-125724185D01*
X361632500Y-125724185D02*
X361632500Y-125158500D01*
X366136100Y-118084800D02*
X364705089Y-119515811D01*
X273142003Y-139036499D02*
X269449501Y-142729001D01*
X364705089Y-119515811D02*
X364705089Y-123311679D01*
X364705089Y-123311679D02*
X348980269Y-139036499D01*
X269449501Y-142729001D02*
X269049502Y-143129000D01*
X348980269Y-139036499D02*
X273142003Y-139036499D01*
X339471000Y-146754315D02*
X339471000Y-147320000D01*
X346517901Y-142782999D02*
X342426316Y-142782999D01*
X340614000Y-145611315D02*
X339471000Y-146754315D01*
X366136100Y-123164800D02*
X346517901Y-142782999D01*
X342426316Y-142782999D02*
X340614000Y-144595315D01*
X340614000Y-144595315D02*
X340614000Y-145611315D01*
X262793086Y-118221050D02*
X242621080Y-118221050D01*
X239678018Y-115277988D02*
X238222981Y-115277989D01*
X348076900Y-127762000D02*
X342709500Y-127762000D01*
X226740080Y-115785988D02*
X220764986Y-121761082D01*
X339597999Y-118490999D02*
X338010501Y-116903501D01*
X237714982Y-115785988D02*
X226740080Y-115785988D01*
X220764986Y-121761082D02*
X218894410Y-121761082D01*
X218894410Y-121761082D02*
X218328725Y-121761082D01*
X353232900Y-122606000D02*
X348076900Y-127762000D01*
X342709500Y-127762000D02*
X339598000Y-124650500D01*
X339598000Y-124650500D02*
X339597999Y-118490999D01*
X242621080Y-118221050D02*
X239678018Y-115277988D01*
X238222981Y-115277989D02*
X237714982Y-115785988D01*
X338010501Y-116903501D02*
X264110635Y-116903501D01*
X264110635Y-116903501D02*
X262793086Y-118221050D01*
X362465811Y-123249227D02*
X363739406Y-123249227D01*
X266493521Y-138128479D02*
X347583021Y-138128479D01*
X347583021Y-138128479D02*
X348869000Y-136842500D01*
X348869000Y-136842500D02*
X348872538Y-136842500D01*
X265289864Y-139332136D02*
X266493521Y-138128479D01*
X348872538Y-136842500D02*
X362465811Y-123249227D01*
X305302185Y-139763500D02*
X304736500Y-139763500D01*
X365159099Y-123499735D02*
X348895334Y-139763500D01*
X366136100Y-120624800D02*
X365159099Y-121601801D01*
X348895334Y-139763500D02*
X305302185Y-139763500D01*
X365159099Y-121601801D02*
X365159099Y-123499735D01*
X340741000Y-124325934D02*
X340741000Y-117728999D01*
X181711082Y-123545065D02*
X179468301Y-125787846D01*
X181711082Y-122847143D02*
X181711082Y-123545065D01*
X355772900Y-113716000D02*
X352470940Y-113716000D01*
X201265982Y-115519022D02*
X199865971Y-114119011D01*
X181409990Y-115710044D02*
X181409990Y-122546051D01*
X340741000Y-117728999D02*
X338836001Y-115824000D01*
X345576510Y-126545990D02*
X342961056Y-126545990D01*
X262416972Y-117313028D02*
X242997193Y-117313027D01*
X351801889Y-120320611D02*
X345576510Y-126545990D01*
X352470940Y-113716000D02*
X351801889Y-114385051D01*
X338836001Y-115824000D02*
X263906000Y-115824000D01*
X242997193Y-117313027D02*
X240054135Y-114369969D01*
X240054135Y-114369969D02*
X237846868Y-114369969D01*
X237432543Y-114784292D02*
X211144076Y-114784292D01*
X211144076Y-114784292D02*
X210409345Y-115519023D01*
X210409345Y-115519023D02*
X201265982Y-115519022D01*
X199865971Y-114119011D02*
X183001023Y-114119011D01*
X183001023Y-114119011D02*
X181409990Y-115710044D01*
X237846868Y-114369969D02*
X237432543Y-114784292D01*
X263906000Y-115824000D02*
X262416972Y-117313028D01*
X179468301Y-137229315D02*
X179468301Y-137795000D01*
X179468301Y-125787846D02*
X179468301Y-137229315D01*
X181409990Y-122546051D02*
X181711082Y-122847143D01*
X342961056Y-126545990D02*
X340741000Y-124325934D01*
X351801889Y-114385051D02*
X351801889Y-120320611D01*
X341249000Y-123131600D02*
X341249000Y-117475000D01*
X237658811Y-113915958D02*
X237244486Y-114330281D01*
X179449838Y-113665000D02*
X177458399Y-111673561D01*
X170846038Y-114808000D02*
X135163000Y-114808000D01*
X134292999Y-115678001D02*
X133893000Y-116078000D01*
X243185251Y-116859017D02*
X240242192Y-113915958D01*
X201454040Y-115065012D02*
X200054028Y-113665000D01*
X263729636Y-115316000D02*
X262186617Y-116859017D01*
X210221288Y-115065012D02*
X201454040Y-115065012D01*
X177458399Y-110735639D02*
X176950359Y-110227599D01*
X135163000Y-114808000D02*
X134292999Y-115678001D01*
X175426439Y-110227599D02*
X170846038Y-114808000D01*
X176950359Y-110227599D02*
X175426439Y-110227599D01*
X177458399Y-111673561D02*
X177458399Y-110735639D01*
X210956019Y-114330281D02*
X210221288Y-115065012D01*
X237244486Y-114330281D02*
X210956019Y-114330281D01*
X240242192Y-113915958D02*
X237658811Y-113915958D01*
X262186617Y-116859017D02*
X243185251Y-116859017D01*
X339090000Y-115316000D02*
X263729636Y-115316000D01*
X341249000Y-117475000D02*
X339090000Y-115316000D01*
X200054028Y-113665000D02*
X179449838Y-113665000D01*
X342298200Y-124180800D02*
X341249000Y-123131600D01*
X247158971Y-107896013D02*
X246108002Y-106845044D01*
X233608399Y-108385639D02*
X233608399Y-109323561D01*
X233608399Y-109323561D02*
X234526475Y-110241637D01*
X340360000Y-106426000D02*
X339925013Y-105991013D01*
X236832401Y-110925639D02*
X236832401Y-111863561D01*
X246108002Y-106845044D02*
X235148994Y-106845044D01*
X225078192Y-111864956D02*
X224647890Y-112295258D01*
X236832401Y-111863561D02*
X236285013Y-112410948D01*
X236285013Y-112410948D02*
X226853354Y-112410948D01*
X234526475Y-110241637D02*
X236148399Y-110241637D01*
X236148399Y-110241637D02*
X236832401Y-110925639D01*
X235148994Y-106845044D02*
X233608399Y-108385639D01*
X226307362Y-111864956D02*
X225078192Y-111864956D01*
X254442058Y-107896013D02*
X247158971Y-107896013D01*
X224647890Y-112295258D02*
X224247891Y-112695257D01*
X256347058Y-105991013D02*
X254442058Y-107896013D01*
X339925013Y-105991013D02*
X256347058Y-105991013D01*
X226853354Y-112410948D02*
X226307362Y-111864956D01*
G36*
X215350143Y-100584000D02*
G01*
X153693286Y-100584000D01*
X153655863Y-100580314D01*
X153618440Y-100584000D01*
X153618438Y-100584000D01*
X153506486Y-100595026D01*
X153362849Y-100638598D01*
X153230472Y-100709355D01*
X153114442Y-100804578D01*
X153090585Y-100833648D01*
X146706048Y-107218186D01*
X146676978Y-107242043D01*
X146653121Y-107271113D01*
X146653120Y-107271114D01*
X146581754Y-107358073D01*
X146510998Y-107490450D01*
X146467426Y-107634087D01*
X146452713Y-107783465D01*
X146456400Y-107820898D01*
X146456399Y-111466138D01*
X146452713Y-111503561D01*
X146456399Y-111540984D01*
X146456399Y-111540986D01*
X146467425Y-111652938D01*
X146510997Y-111796575D01*
X146542558Y-111855621D01*
X146581754Y-111928953D01*
X146606000Y-111958496D01*
X146676977Y-112044983D01*
X146706053Y-112068845D01*
X147615170Y-112977962D01*
X147639027Y-113007033D01*
X147755057Y-113102256D01*
X147887434Y-113173013D01*
X148031071Y-113216585D01*
X148143023Y-113227611D01*
X148143025Y-113227611D01*
X148180448Y-113231297D01*
X148217871Y-113227611D01*
X155792928Y-113227611D01*
X155830351Y-113231297D01*
X155867774Y-113227611D01*
X155867777Y-113227611D01*
X155979729Y-113216585D01*
X156123366Y-113173013D01*
X156255743Y-113102256D01*
X156371773Y-113007033D01*
X156395635Y-112977957D01*
X157304752Y-112068840D01*
X157333823Y-112044983D01*
X157429046Y-111928953D01*
X157430245Y-111926710D01*
X157536260Y-112032725D01*
X157746724Y-112173353D01*
X157980579Y-112270219D01*
X158228839Y-112319600D01*
X158481961Y-112319600D01*
X158730221Y-112270219D01*
X158964076Y-112173353D01*
X159174540Y-112032725D01*
X159353525Y-111853740D01*
X159494153Y-111643276D01*
X159591019Y-111409421D01*
X159625400Y-111236573D01*
X159659781Y-111409421D01*
X159756647Y-111643276D01*
X159897275Y-111853740D01*
X160076260Y-112032725D01*
X160286724Y-112173353D01*
X160520579Y-112270219D01*
X160768839Y-112319600D01*
X161021961Y-112319600D01*
X161270221Y-112270219D01*
X161504076Y-112173353D01*
X161714540Y-112032725D01*
X161893525Y-111853740D01*
X162034153Y-111643276D01*
X162131019Y-111409421D01*
X162179854Y-111163906D01*
X162295413Y-111336852D01*
X162523148Y-111564587D01*
X162790937Y-111743518D01*
X163088488Y-111866768D01*
X163404367Y-111929600D01*
X163726433Y-111929600D01*
X164042312Y-111866768D01*
X164339863Y-111743518D01*
X164607652Y-111564587D01*
X164835387Y-111336852D01*
X165014318Y-111069063D01*
X165137568Y-110771512D01*
X165200400Y-110455633D01*
X165200400Y-110133567D01*
X165137568Y-109817688D01*
X165014318Y-109520137D01*
X164835387Y-109252348D01*
X164607652Y-109024613D01*
X164339863Y-108845682D01*
X164042312Y-108722432D01*
X163726433Y-108659600D01*
X163442754Y-108659600D01*
X163450400Y-108621161D01*
X163450400Y-108368039D01*
X163401019Y-108119779D01*
X163304153Y-107885924D01*
X163163525Y-107675460D01*
X162984540Y-107496475D01*
X162774076Y-107355847D01*
X162540221Y-107258981D01*
X162291961Y-107209600D01*
X162038839Y-107209600D01*
X161790579Y-107258981D01*
X161556724Y-107355847D01*
X161346260Y-107496475D01*
X161167275Y-107675460D01*
X161026647Y-107885924D01*
X160929781Y-108119779D01*
X160895400Y-108292627D01*
X160861019Y-108119779D01*
X160764153Y-107885924D01*
X160623525Y-107675460D01*
X160444540Y-107496475D01*
X160234076Y-107355847D01*
X160000221Y-107258981D01*
X159751961Y-107209600D01*
X159498839Y-107209600D01*
X159435415Y-107222216D01*
X162625609Y-104032022D01*
X171327499Y-104032022D01*
X171252559Y-104082095D01*
X171108396Y-104226258D01*
X171054368Y-104307117D01*
X171043939Y-104305043D01*
X170840061Y-104305043D01*
X170640102Y-104344817D01*
X170451744Y-104422838D01*
X170282226Y-104536106D01*
X170138063Y-104680269D01*
X170024795Y-104849787D01*
X169946774Y-105038145D01*
X169907000Y-105238104D01*
X169907000Y-105441982D01*
X169946774Y-105641941D01*
X170024795Y-105830299D01*
X170138063Y-105999817D01*
X170282226Y-106143980D01*
X170451744Y-106257248D01*
X170640102Y-106335269D01*
X170840061Y-106375043D01*
X170914604Y-106375043D01*
X170916607Y-106376687D01*
X171048984Y-106447444D01*
X171192621Y-106491016D01*
X171304573Y-106502042D01*
X171304575Y-106502042D01*
X171341998Y-106505728D01*
X171379421Y-106502042D01*
X172096864Y-106502042D01*
X172134287Y-106505728D01*
X172171710Y-106502042D01*
X172171713Y-106502042D01*
X172283665Y-106491016D01*
X172427302Y-106447444D01*
X172559679Y-106376687D01*
X172675709Y-106281464D01*
X172699571Y-106252388D01*
X172779959Y-106172000D01*
X208599370Y-106172000D01*
X208603716Y-106176346D01*
X208627578Y-106205422D01*
X208743608Y-106300645D01*
X208875985Y-106371402D01*
X209019622Y-106414974D01*
X209131574Y-106426000D01*
X209131576Y-106426000D01*
X209168999Y-106429686D01*
X209206422Y-106426000D01*
X209356289Y-106426000D01*
X209398226Y-106467937D01*
X209427124Y-106487246D01*
X208656654Y-107257716D01*
X208627578Y-107281578D01*
X208582769Y-107336179D01*
X208532355Y-107397608D01*
X208498979Y-107460051D01*
X208487295Y-107481911D01*
X208480221Y-107478981D01*
X208231961Y-107429600D01*
X207978839Y-107429600D01*
X207730579Y-107478981D01*
X207496724Y-107575847D01*
X207286260Y-107716475D01*
X207107275Y-107895460D01*
X206966647Y-108105924D01*
X206869781Y-108339779D01*
X206835400Y-108512627D01*
X206801019Y-108339779D01*
X206704153Y-108105924D01*
X206563525Y-107895460D01*
X206384540Y-107716475D01*
X206174076Y-107575847D01*
X205940221Y-107478981D01*
X205691961Y-107429600D01*
X205438839Y-107429600D01*
X205190579Y-107478981D01*
X204956724Y-107575847D01*
X204746260Y-107716475D01*
X204567275Y-107895460D01*
X204426647Y-108105924D01*
X204329781Y-108339779D01*
X204295400Y-108512627D01*
X204261019Y-108339779D01*
X204164153Y-108105924D01*
X204023525Y-107895460D01*
X203844540Y-107716475D01*
X203634076Y-107575847D01*
X203400221Y-107478981D01*
X203151961Y-107429600D01*
X202898839Y-107429600D01*
X202650579Y-107478981D01*
X202416724Y-107575847D01*
X202206260Y-107716475D01*
X202027275Y-107895460D01*
X201886647Y-108105924D01*
X201789781Y-108339779D01*
X201740400Y-108588039D01*
X201740400Y-108841161D01*
X201789781Y-109089421D01*
X201886647Y-109323276D01*
X202027275Y-109533740D01*
X202206260Y-109712725D01*
X202416724Y-109853353D01*
X202650579Y-109950219D01*
X202898839Y-109999600D01*
X203151961Y-109999600D01*
X203400221Y-109950219D01*
X203634076Y-109853353D01*
X203844540Y-109712725D01*
X204023525Y-109533740D01*
X204164153Y-109323276D01*
X204261019Y-109089421D01*
X204295400Y-108916573D01*
X204329781Y-109089421D01*
X204426647Y-109323276D01*
X204567275Y-109533740D01*
X204746260Y-109712725D01*
X204956724Y-109853353D01*
X205190579Y-109950219D01*
X205438839Y-109999600D01*
X205691961Y-109999600D01*
X205940221Y-109950219D01*
X206174076Y-109853353D01*
X206384540Y-109712725D01*
X206563525Y-109533740D01*
X206704153Y-109323276D01*
X206801019Y-109089421D01*
X206835400Y-108916573D01*
X206869781Y-109089421D01*
X206966647Y-109323276D01*
X207107275Y-109533740D01*
X207286260Y-109712725D01*
X207496724Y-109853353D01*
X207730579Y-109950219D01*
X207978839Y-109999600D01*
X208231961Y-109999600D01*
X208407001Y-109964783D01*
X208407001Y-110091529D01*
X208403314Y-110128962D01*
X208418027Y-110278340D01*
X208445111Y-110367624D01*
X208377275Y-110435460D01*
X208281519Y-110578769D01*
X208222453Y-110547198D01*
X208078816Y-110503626D01*
X207966864Y-110492600D01*
X207966861Y-110492600D01*
X207929438Y-110488914D01*
X207892015Y-110492600D01*
X207871705Y-110492600D01*
X207833525Y-110435460D01*
X207654540Y-110256475D01*
X207444076Y-110115847D01*
X207210221Y-110018981D01*
X206961961Y-109969600D01*
X206708839Y-109969600D01*
X206460579Y-110018981D01*
X206226724Y-110115847D01*
X206016260Y-110256475D01*
X205837275Y-110435460D01*
X205696647Y-110645924D01*
X205599781Y-110879779D01*
X205565400Y-111052627D01*
X205531019Y-110879779D01*
X205434153Y-110645924D01*
X205293525Y-110435460D01*
X205114540Y-110256475D01*
X204904076Y-110115847D01*
X204670221Y-110018981D01*
X204421961Y-109969600D01*
X204168839Y-109969600D01*
X203920579Y-110018981D01*
X203686724Y-110115847D01*
X203476260Y-110256475D01*
X203297275Y-110435460D01*
X203156647Y-110645924D01*
X203059781Y-110879779D01*
X203025400Y-111052627D01*
X202991019Y-110879779D01*
X202894153Y-110645924D01*
X202753525Y-110435460D01*
X202574540Y-110256475D01*
X202364076Y-110115847D01*
X202130221Y-110018981D01*
X201881961Y-109969600D01*
X201628839Y-109969600D01*
X201380579Y-110018981D01*
X201146724Y-110115847D01*
X200936260Y-110256475D01*
X200757275Y-110435460D01*
X200616647Y-110645924D01*
X200519781Y-110879779D01*
X200470400Y-111128039D01*
X200470400Y-111381161D01*
X200502187Y-111540968D01*
X189961271Y-111540968D01*
X189995387Y-111506852D01*
X190174318Y-111239063D01*
X190297568Y-110941512D01*
X190360400Y-110625633D01*
X190360400Y-110303567D01*
X190297568Y-109987688D01*
X190174318Y-109690137D01*
X189995387Y-109422348D01*
X189767652Y-109194613D01*
X189499863Y-109015682D01*
X189202312Y-108892432D01*
X188886433Y-108829600D01*
X188602754Y-108829600D01*
X188610400Y-108791161D01*
X188610400Y-108538039D01*
X188561019Y-108289779D01*
X188464153Y-108055924D01*
X188323525Y-107845460D01*
X188144540Y-107666475D01*
X187934076Y-107525847D01*
X187700221Y-107428981D01*
X187451961Y-107379600D01*
X187198839Y-107379600D01*
X186950579Y-107428981D01*
X186716724Y-107525847D01*
X186506260Y-107666475D01*
X186327275Y-107845460D01*
X186186647Y-108055924D01*
X186089781Y-108289779D01*
X186055400Y-108462627D01*
X186021019Y-108289779D01*
X185924153Y-108055924D01*
X185783525Y-107845460D01*
X185604540Y-107666475D01*
X185394076Y-107525847D01*
X185160221Y-107428981D01*
X184911961Y-107379600D01*
X184658839Y-107379600D01*
X184410579Y-107428981D01*
X184176724Y-107525847D01*
X183966260Y-107666475D01*
X183787275Y-107845460D01*
X183646647Y-108055924D01*
X183549781Y-108289779D01*
X183515400Y-108462627D01*
X183481019Y-108289779D01*
X183384153Y-108055924D01*
X183243525Y-107845460D01*
X183064540Y-107666475D01*
X182854076Y-107525847D01*
X182620221Y-107428981D01*
X182371961Y-107379600D01*
X182118839Y-107379600D01*
X181870579Y-107428981D01*
X181636724Y-107525847D01*
X181426260Y-107666475D01*
X181247275Y-107845460D01*
X181106647Y-108055924D01*
X181009781Y-108289779D01*
X180975400Y-108462627D01*
X180941019Y-108289779D01*
X180844153Y-108055924D01*
X180703525Y-107845460D01*
X180524540Y-107666475D01*
X180314076Y-107525847D01*
X180080221Y-107428981D01*
X179831961Y-107379600D01*
X179578839Y-107379600D01*
X179330579Y-107428981D01*
X179096724Y-107525847D01*
X178886260Y-107666475D01*
X178707275Y-107845460D01*
X178566647Y-108055924D01*
X178469781Y-108289779D01*
X178435400Y-108462627D01*
X178401019Y-108289779D01*
X178304153Y-108055924D01*
X178163525Y-107845460D01*
X177984540Y-107666475D01*
X177774076Y-107525847D01*
X177540221Y-107428981D01*
X177291961Y-107379600D01*
X177038839Y-107379600D01*
X176790579Y-107428981D01*
X176556724Y-107525847D01*
X176346260Y-107666475D01*
X176167275Y-107845460D01*
X176026647Y-108055924D01*
X175929781Y-108289779D01*
X175880400Y-108538039D01*
X175880400Y-108791161D01*
X175929781Y-109039421D01*
X176026647Y-109273276D01*
X176155154Y-109465599D01*
X175463861Y-109465599D01*
X175426438Y-109461913D01*
X175389015Y-109465599D01*
X175389013Y-109465599D01*
X175277061Y-109476625D01*
X175133424Y-109520197D01*
X175001047Y-109590954D01*
X174885017Y-109686177D01*
X174861160Y-109715247D01*
X170530408Y-114046000D01*
X135200422Y-114046000D01*
X135162999Y-114042314D01*
X135125576Y-114046000D01*
X135125574Y-114046000D01*
X135013622Y-114057026D01*
X134869985Y-114100598D01*
X134737608Y-114171355D01*
X134621578Y-114266578D01*
X134597721Y-114295649D01*
X133850370Y-115043000D01*
X133791061Y-115043000D01*
X133591102Y-115082774D01*
X133402744Y-115160795D01*
X133233226Y-115274063D01*
X133089063Y-115418226D01*
X132975795Y-115587744D01*
X132897774Y-115776102D01*
X132858000Y-115976061D01*
X132858000Y-116179939D01*
X132897774Y-116379898D01*
X132975795Y-116568256D01*
X133089063Y-116737774D01*
X133233226Y-116881937D01*
X133402744Y-116995205D01*
X133591102Y-117073226D01*
X133791061Y-117113000D01*
X133994939Y-117113000D01*
X134194898Y-117073226D01*
X134383256Y-116995205D01*
X134552774Y-116881937D01*
X134696937Y-116737774D01*
X134810205Y-116568256D01*
X134888226Y-116379898D01*
X134928000Y-116179939D01*
X134928000Y-116120630D01*
X135478631Y-115570000D01*
X170808615Y-115570000D01*
X170846038Y-115573686D01*
X170883461Y-115570000D01*
X170883464Y-115570000D01*
X170995416Y-115558974D01*
X171139053Y-115515402D01*
X171271430Y-115444645D01*
X171387460Y-115349422D01*
X171411322Y-115320346D01*
X174821433Y-111910235D01*
X174897275Y-112023740D01*
X175076260Y-112202725D01*
X175286724Y-112343353D01*
X175520579Y-112440219D01*
X175768839Y-112489600D01*
X176021961Y-112489600D01*
X176089363Y-112476193D01*
X180095081Y-116481911D01*
X180095082Y-122663635D01*
X180066876Y-122705848D01*
X179988855Y-122894206D01*
X179949081Y-123094165D01*
X179949081Y-123298043D01*
X179988855Y-123498002D01*
X180066876Y-123686360D01*
X180180144Y-123855878D01*
X180251391Y-123927125D01*
X178955955Y-125222562D01*
X178926879Y-125246424D01*
X178881744Y-125301422D01*
X178831656Y-125362454D01*
X178810800Y-125401473D01*
X178760899Y-125494832D01*
X178717327Y-125638469D01*
X178706952Y-125743815D01*
X178702615Y-125787846D01*
X178706301Y-125825269D01*
X178706302Y-137093288D01*
X178664364Y-137135226D01*
X178551096Y-137304744D01*
X178473075Y-137493102D01*
X178433301Y-137693061D01*
X178433301Y-137896939D01*
X178473075Y-138096898D01*
X178551096Y-138285256D01*
X178664364Y-138454774D01*
X178808527Y-138598937D01*
X178978045Y-138712205D01*
X179166403Y-138790226D01*
X179366362Y-138830000D01*
X179570240Y-138830000D01*
X179770199Y-138790226D01*
X179958557Y-138712205D01*
X180128075Y-138598937D01*
X180272238Y-138454774D01*
X180385506Y-138285256D01*
X180463527Y-138096898D01*
X180503301Y-137896939D01*
X180503301Y-137693061D01*
X180463527Y-137493102D01*
X180385506Y-137304744D01*
X180272238Y-137135226D01*
X180230301Y-137093289D01*
X180230301Y-126103476D01*
X181102001Y-125231777D01*
X181102000Y-143194369D01*
X179516370Y-144780000D01*
X170627711Y-144780000D01*
X170585774Y-144738063D01*
X170416256Y-144624795D01*
X170227898Y-144546774D01*
X170027939Y-144507000D01*
X169824061Y-144507000D01*
X169624102Y-144546774D01*
X169435744Y-144624795D01*
X169266226Y-144738063D01*
X169122063Y-144882226D01*
X169008795Y-145051744D01*
X168930774Y-145240102D01*
X168891000Y-145440061D01*
X168891000Y-145643939D01*
X168930774Y-145843898D01*
X169008795Y-146032256D01*
X169122063Y-146201774D01*
X169266226Y-146345937D01*
X169435744Y-146459205D01*
X169624102Y-146537226D01*
X169824061Y-146577000D01*
X170027939Y-146577000D01*
X170227898Y-146537226D01*
X170416256Y-146459205D01*
X170585774Y-146345937D01*
X170627711Y-146304000D01*
X179794577Y-146304000D01*
X179832000Y-146307686D01*
X179869423Y-146304000D01*
X179869426Y-146304000D01*
X179981378Y-146292974D01*
X180125015Y-146249402D01*
X180257392Y-146178645D01*
X180373422Y-146083422D01*
X180397284Y-146054346D01*
X182376353Y-144075278D01*
X182405422Y-144051422D01*
X182455998Y-143989795D01*
X182500645Y-143935393D01*
X182553557Y-143836401D01*
X182571402Y-143803015D01*
X182614974Y-143659378D01*
X182626000Y-143547426D01*
X182626000Y-143547423D01*
X182629686Y-143510000D01*
X182626000Y-143472577D01*
X182626000Y-124349845D01*
X182677445Y-124298400D01*
X182706515Y-124274543D01*
X182759196Y-124210351D01*
X182801738Y-124158514D01*
X182872494Y-124026138D01*
X182873020Y-124024405D01*
X182916067Y-123882499D01*
X182927093Y-123770547D01*
X182927093Y-123770545D01*
X182930779Y-123733122D01*
X182927093Y-123695697D01*
X182927091Y-122696517D01*
X182930778Y-122659085D01*
X182916065Y-122509706D01*
X182872493Y-122366069D01*
X182801737Y-122233693D01*
X182730371Y-122146734D01*
X182730370Y-122146733D01*
X182706513Y-122117663D01*
X182677443Y-122093806D01*
X182626001Y-122042364D01*
X182626001Y-116647624D01*
X182668625Y-116605000D01*
X182727935Y-116605000D01*
X182927894Y-116565226D01*
X183116252Y-116487205D01*
X183285770Y-116373937D01*
X183429933Y-116229774D01*
X183543201Y-116060256D01*
X183621222Y-115871898D01*
X183660996Y-115671939D01*
X183660996Y-115468061D01*
X183621222Y-115268102D01*
X183543201Y-115079744D01*
X183429933Y-114910226D01*
X183400718Y-114881011D01*
X199550341Y-114881011D01*
X200700703Y-116031373D01*
X200724560Y-116060443D01*
X200753630Y-116084300D01*
X200753631Y-116084301D01*
X200840589Y-116155667D01*
X200972966Y-116226423D01*
X201116603Y-116269995D01*
X201265982Y-116284708D01*
X201303415Y-116281021D01*
X210371922Y-116281023D01*
X210409345Y-116284709D01*
X210446768Y-116281023D01*
X210446770Y-116281023D01*
X210558722Y-116269997D01*
X210702359Y-116226425D01*
X210784318Y-116182617D01*
X210834737Y-116155668D01*
X210921696Y-116084302D01*
X210921697Y-116084301D01*
X210950766Y-116060445D01*
X210974623Y-116031375D01*
X211459706Y-115546292D01*
X211753500Y-115546292D01*
X211753500Y-115613241D01*
X211793274Y-115813200D01*
X211871295Y-116001558D01*
X211984563Y-116171076D01*
X212026501Y-116213014D01*
X212026500Y-120605361D01*
X211984563Y-120647298D01*
X211871295Y-120816816D01*
X211793274Y-121005174D01*
X211753500Y-121205133D01*
X211753500Y-121409011D01*
X211793274Y-121608970D01*
X211871295Y-121797328D01*
X211984563Y-121966846D01*
X212128726Y-122111009D01*
X212298244Y-122224277D01*
X212486602Y-122302298D01*
X212686561Y-122342072D01*
X212890439Y-122342072D01*
X213090398Y-122302298D01*
X213278756Y-122224277D01*
X213448274Y-122111009D01*
X213589708Y-121969575D01*
X213589708Y-122663419D01*
X213586021Y-122700852D01*
X213600734Y-122850230D01*
X213644306Y-122993867D01*
X213715062Y-123126244D01*
X213781948Y-123207744D01*
X213810286Y-123242274D01*
X213839356Y-123266131D01*
X214801552Y-124228327D01*
X214825409Y-124257398D01*
X214941439Y-124352621D01*
X215073816Y-124423378D01*
X215217453Y-124466950D01*
X215329405Y-124477976D01*
X215329407Y-124477976D01*
X215366830Y-124481662D01*
X215404253Y-124477976D01*
X220915288Y-124477976D01*
X220939249Y-124501937D01*
X221108767Y-124615205D01*
X221297125Y-124693226D01*
X221497084Y-124733000D01*
X221615001Y-124733000D01*
X221615000Y-145400985D01*
X221440102Y-145435774D01*
X221251744Y-145513795D01*
X221082226Y-145627063D01*
X220938063Y-145771226D01*
X220824795Y-145940744D01*
X220746774Y-146129102D01*
X220707000Y-146329061D01*
X220707000Y-146532939D01*
X220746774Y-146732898D01*
X220824795Y-146921256D01*
X220938063Y-147090774D01*
X221082226Y-147234937D01*
X221251744Y-147348205D01*
X221440102Y-147426226D01*
X221451596Y-147428512D01*
X221453882Y-147440006D01*
X221531903Y-147628364D01*
X221645171Y-147797882D01*
X221789334Y-147942045D01*
X221958852Y-148055313D01*
X222147210Y-148133334D01*
X222347169Y-148173108D01*
X222551047Y-148173108D01*
X222751006Y-148133334D01*
X222939364Y-148055313D01*
X223108882Y-147942045D01*
X223253045Y-147797882D01*
X223366313Y-147628364D01*
X223444334Y-147440006D01*
X223484108Y-147240047D01*
X223484108Y-147165504D01*
X223485752Y-147163501D01*
X223556509Y-147031124D01*
X223600081Y-146887487D01*
X223611107Y-146775535D01*
X223611107Y-146775533D01*
X223614793Y-146738110D01*
X223611107Y-146700687D01*
X223611107Y-122560863D01*
X226202130Y-119969841D01*
X226249463Y-120017174D01*
X226418981Y-120130442D01*
X226607339Y-120208463D01*
X226807298Y-120248237D01*
X227011176Y-120248237D01*
X227211135Y-120208463D01*
X227399493Y-120130442D01*
X227569011Y-120017174D01*
X227713174Y-119873011D01*
X227826442Y-119703493D01*
X227884209Y-119564033D01*
X240152403Y-119564033D01*
X240734720Y-120146351D01*
X240758578Y-120175422D01*
X240874608Y-120270645D01*
X241006985Y-120341402D01*
X241150622Y-120384974D01*
X241262574Y-120396000D01*
X241262576Y-120396000D01*
X241299999Y-120399686D01*
X241337422Y-120396000D01*
X263395860Y-120396000D01*
X263433283Y-120399686D01*
X263470706Y-120396000D01*
X263470709Y-120396000D01*
X263582661Y-120384974D01*
X263726298Y-120341402D01*
X263858675Y-120270645D01*
X263974705Y-120175422D01*
X263998567Y-120146346D01*
X265072903Y-119072010D01*
X337125814Y-119072010D01*
X337429491Y-119375688D01*
X337429490Y-125182134D01*
X337425804Y-125219557D01*
X337429490Y-125256980D01*
X337429490Y-125256982D01*
X337440516Y-125368934D01*
X337484088Y-125512571D01*
X337484089Y-125512572D01*
X337554845Y-125644949D01*
X337573882Y-125668145D01*
X337650068Y-125760979D01*
X337679144Y-125784841D01*
X346777354Y-134883051D01*
X346801216Y-134912127D01*
X346873383Y-134971353D01*
X346917245Y-135007350D01*
X346960517Y-135030479D01*
X347049623Y-135078107D01*
X347193260Y-135121679D01*
X347305212Y-135132705D01*
X347305215Y-135132705D01*
X347342638Y-135136391D01*
X347380061Y-135132705D01*
X349377710Y-135132705D01*
X349419647Y-135174642D01*
X349445495Y-135191913D01*
X348376383Y-136261025D01*
X348327578Y-136301078D01*
X348303721Y-136330148D01*
X347267391Y-137366479D01*
X266530943Y-137366479D01*
X266493520Y-137362793D01*
X266456097Y-137366479D01*
X266456095Y-137366479D01*
X266344143Y-137377505D01*
X266200506Y-137421077D01*
X266068129Y-137491834D01*
X265952099Y-137587057D01*
X265928242Y-137616127D01*
X265247234Y-138297136D01*
X265187925Y-138297136D01*
X264987966Y-138336910D01*
X264799608Y-138414931D01*
X264630090Y-138528199D01*
X264485927Y-138672362D01*
X264372659Y-138841880D01*
X264294638Y-139030238D01*
X264254864Y-139230197D01*
X264254864Y-139434075D01*
X264294638Y-139634034D01*
X264372659Y-139822392D01*
X264485927Y-139991910D01*
X264630090Y-140136073D01*
X264799608Y-140249341D01*
X264987966Y-140327362D01*
X265187925Y-140367136D01*
X265391803Y-140367136D01*
X265591762Y-140327362D01*
X265780120Y-140249341D01*
X265949638Y-140136073D01*
X266093801Y-139991910D01*
X266207069Y-139822392D01*
X266285090Y-139634034D01*
X266324864Y-139434075D01*
X266324864Y-139374766D01*
X266809152Y-138890479D01*
X267803093Y-138890479D01*
X267726946Y-139074313D01*
X267687172Y-139274272D01*
X267687172Y-139349697D01*
X266899996Y-140136874D01*
X266840687Y-140136874D01*
X266640728Y-140176648D01*
X266452370Y-140254669D01*
X266282852Y-140367937D01*
X266138689Y-140512100D01*
X266025421Y-140681618D01*
X265947400Y-140869976D01*
X265907626Y-141069935D01*
X265907626Y-141273813D01*
X265947400Y-141473772D01*
X266025421Y-141662130D01*
X266138689Y-141831648D01*
X266282852Y-141975811D01*
X266452370Y-142089079D01*
X266640728Y-142167100D01*
X266840687Y-142206874D01*
X266935000Y-142206874D01*
X266935000Y-142405439D01*
X266974774Y-142605398D01*
X267052795Y-142793756D01*
X267166063Y-142963274D01*
X267310226Y-143107437D01*
X267479744Y-143220705D01*
X267668102Y-143298726D01*
X267868061Y-143338500D01*
X268035897Y-143338500D01*
X268040560Y-143361942D01*
X252944769Y-143361942D01*
X252902832Y-143320005D01*
X252733314Y-143206737D01*
X252544956Y-143128716D01*
X252344997Y-143088942D01*
X252141119Y-143088942D01*
X251941160Y-143128716D01*
X251752802Y-143206737D01*
X251583284Y-143320005D01*
X251439121Y-143464168D01*
X251325853Y-143633686D01*
X251247832Y-143822044D01*
X251208058Y-144022003D01*
X251208058Y-144225881D01*
X251247832Y-144425840D01*
X251325853Y-144614198D01*
X251439121Y-144783716D01*
X251583284Y-144927879D01*
X251752802Y-145041147D01*
X251941160Y-145119168D01*
X252141119Y-145158942D01*
X252344997Y-145158942D01*
X252544956Y-145119168D01*
X252733314Y-145041147D01*
X252902832Y-144927879D01*
X252944769Y-144885942D01*
X272586312Y-144885942D01*
X272904000Y-145203631D01*
X272904000Y-145262939D01*
X272943774Y-145462898D01*
X273021795Y-145651256D01*
X273135063Y-145820774D01*
X273279226Y-145964937D01*
X273448744Y-146078205D01*
X273637102Y-146156226D01*
X273837061Y-146196000D01*
X274040939Y-146196000D01*
X274240898Y-146156226D01*
X274429256Y-146078205D01*
X274598774Y-145964937D01*
X274742937Y-145820774D01*
X274856205Y-145651256D01*
X274934226Y-145462898D01*
X274974000Y-145262939D01*
X274974000Y-145059061D01*
X274934226Y-144859102D01*
X274856205Y-144670744D01*
X274742937Y-144501226D01*
X274598774Y-144357063D01*
X274429256Y-144243795D01*
X274240898Y-144165774D01*
X274040939Y-144126000D01*
X273981631Y-144126000D01*
X273467226Y-143611596D01*
X273443364Y-143582520D01*
X273327334Y-143487297D01*
X273194957Y-143416540D01*
X273051320Y-143372968D01*
X272939368Y-143361942D01*
X272939365Y-143361942D01*
X272901942Y-143358256D01*
X272864519Y-143361942D01*
X270058444Y-143361942D01*
X270084502Y-143230939D01*
X270084502Y-143171630D01*
X273457634Y-139798499D01*
X303701500Y-139798499D01*
X303701500Y-139865439D01*
X303741274Y-140065398D01*
X303819295Y-140253756D01*
X303932563Y-140423274D01*
X304076726Y-140567437D01*
X304246244Y-140680705D01*
X304434602Y-140758726D01*
X304634561Y-140798500D01*
X304838439Y-140798500D01*
X305038398Y-140758726D01*
X305226756Y-140680705D01*
X305396274Y-140567437D01*
X305438211Y-140525500D01*
X347697770Y-140525500D01*
X346202271Y-142020999D01*
X342463739Y-142020999D01*
X342426316Y-142017313D01*
X342388893Y-142020999D01*
X342388890Y-142020999D01*
X342276938Y-142032025D01*
X342133301Y-142075597D01*
X342071680Y-142108534D01*
X342000923Y-142146354D01*
X341933654Y-142201561D01*
X341884894Y-142241577D01*
X341861037Y-142270647D01*
X340163378Y-143968306D01*
X340026898Y-143911774D01*
X339826939Y-143872000D01*
X339767630Y-143872000D01*
X339598000Y-143702370D01*
X339598000Y-143154286D01*
X339639937Y-143112349D01*
X339753205Y-142942831D01*
X339831226Y-142754473D01*
X339871000Y-142554514D01*
X339871000Y-142350636D01*
X339831226Y-142150677D01*
X339753205Y-141962319D01*
X339639937Y-141792801D01*
X339495774Y-141648638D01*
X339326256Y-141535370D01*
X339137898Y-141457349D01*
X338937939Y-141417575D01*
X338734061Y-141417575D01*
X338534102Y-141457349D01*
X338345744Y-141535370D01*
X338176226Y-141648638D01*
X338032063Y-141792801D01*
X337918795Y-141962319D01*
X337840774Y-142150677D01*
X337801000Y-142350636D01*
X337801000Y-142554514D01*
X337840774Y-142754473D01*
X337918795Y-142942831D01*
X338032063Y-143112349D01*
X338074001Y-143154287D01*
X338074000Y-143980576D01*
X338070314Y-144018000D01*
X338074000Y-144055423D01*
X338074000Y-144055425D01*
X338085026Y-144167377D01*
X338128598Y-144311014D01*
X338150827Y-144352601D01*
X338199355Y-144443392D01*
X338230718Y-144481607D01*
X338294578Y-144559422D01*
X338323653Y-144583284D01*
X338690000Y-144949630D01*
X338690000Y-145008939D01*
X338729774Y-145208898D01*
X338807795Y-145397256D01*
X338921063Y-145566774D01*
X339065226Y-145710937D01*
X339234744Y-145824205D01*
X339297489Y-145850195D01*
X338958654Y-146189031D01*
X338929578Y-146212893D01*
X338875376Y-146278939D01*
X338834355Y-146328923D01*
X338825261Y-146345937D01*
X338763598Y-146461301D01*
X338720026Y-146604938D01*
X338719772Y-146607517D01*
X338667063Y-146660226D01*
X338553795Y-146829744D01*
X338475774Y-147018102D01*
X338436000Y-147218061D01*
X338436000Y-147421939D01*
X338475774Y-147621898D01*
X338553795Y-147810256D01*
X338667063Y-147979774D01*
X338811226Y-148123937D01*
X338980744Y-148237205D01*
X339169102Y-148315226D01*
X339369061Y-148355000D01*
X339572939Y-148355000D01*
X339772898Y-148315226D01*
X339961256Y-148237205D01*
X340130774Y-148123937D01*
X340274937Y-147979774D01*
X340388205Y-147810256D01*
X340466226Y-147621898D01*
X340506000Y-147421939D01*
X340506000Y-147218061D01*
X340466226Y-147018102D01*
X340413100Y-146889845D01*
X341126352Y-146176594D01*
X341155422Y-146152737D01*
X341250645Y-146036707D01*
X341321402Y-145904330D01*
X341364974Y-145760693D01*
X341376000Y-145648741D01*
X341376000Y-145648739D01*
X341379686Y-145611316D01*
X341376000Y-145573893D01*
X341376000Y-144910945D01*
X341953575Y-144333371D01*
X341953574Y-145066150D01*
X341949888Y-145103574D01*
X341953574Y-145140997D01*
X341953574Y-145140999D01*
X341964600Y-145252951D01*
X342008172Y-145396588D01*
X342031409Y-145440061D01*
X342078929Y-145528966D01*
X342118389Y-145577048D01*
X342174152Y-145644996D01*
X342203228Y-145668858D01*
X344532000Y-147997631D01*
X344532000Y-148056939D01*
X344571774Y-148256898D01*
X344649795Y-148445256D01*
X344763063Y-148614774D01*
X344907226Y-148758937D01*
X345076744Y-148872205D01*
X345265102Y-148950226D01*
X345465061Y-148990000D01*
X345668939Y-148990000D01*
X345868898Y-148950226D01*
X346057256Y-148872205D01*
X346226774Y-148758937D01*
X346370937Y-148614774D01*
X346484205Y-148445256D01*
X346562226Y-148256898D01*
X346602000Y-148056939D01*
X346602000Y-147853061D01*
X346562226Y-147653102D01*
X346484205Y-147464744D01*
X346370937Y-147295226D01*
X346226774Y-147151063D01*
X346057256Y-147037795D01*
X345868898Y-146959774D01*
X345668939Y-146920000D01*
X345609631Y-146920000D01*
X343477574Y-144787944D01*
X343477574Y-144281285D01*
X343519511Y-144239348D01*
X343632779Y-144069830D01*
X343710800Y-143881472D01*
X343750574Y-143681513D01*
X343750574Y-143544999D01*
X346480478Y-143544999D01*
X346517901Y-143548685D01*
X346555324Y-143544999D01*
X346555327Y-143544999D01*
X346667279Y-143533973D01*
X346810916Y-143490401D01*
X346943293Y-143419644D01*
X347059323Y-143324421D01*
X347083185Y-143295345D01*
X352396469Y-137982061D01*
X361804000Y-137982061D01*
X361804000Y-138185939D01*
X361843774Y-138385898D01*
X361921795Y-138574256D01*
X362035063Y-138743774D01*
X362179226Y-138887937D01*
X362348744Y-139001205D01*
X362537102Y-139079226D01*
X362737061Y-139119000D01*
X362940939Y-139119000D01*
X363140898Y-139079226D01*
X363329256Y-139001205D01*
X363498774Y-138887937D01*
X363540711Y-138846000D01*
X364844370Y-138846000D01*
X365868000Y-139869631D01*
X365868000Y-139928939D01*
X365907774Y-140128898D01*
X365985795Y-140317256D01*
X366099063Y-140486774D01*
X366243226Y-140630937D01*
X366412744Y-140744205D01*
X366601102Y-140822226D01*
X366801061Y-140862000D01*
X367004939Y-140862000D01*
X367204898Y-140822226D01*
X367393256Y-140744205D01*
X367562774Y-140630937D01*
X367706937Y-140486774D01*
X367820205Y-140317256D01*
X367898226Y-140128898D01*
X367938000Y-139928939D01*
X367938000Y-139725061D01*
X367898226Y-139525102D01*
X367820205Y-139336744D01*
X367706937Y-139167226D01*
X367562774Y-139023063D01*
X367393256Y-138909795D01*
X367204898Y-138831774D01*
X367004939Y-138792000D01*
X366945631Y-138792000D01*
X365725284Y-137571654D01*
X365701422Y-137542578D01*
X365585392Y-137447355D01*
X365453015Y-137376598D01*
X365309378Y-137333026D01*
X365197426Y-137322000D01*
X365197423Y-137322000D01*
X365160000Y-137318314D01*
X365122577Y-137322000D01*
X363540711Y-137322000D01*
X363498774Y-137280063D01*
X363329256Y-137166795D01*
X363140898Y-137088774D01*
X362940939Y-137049000D01*
X362737061Y-137049000D01*
X362537102Y-137088774D01*
X362348744Y-137166795D01*
X362179226Y-137280063D01*
X362035063Y-137424226D01*
X361921795Y-137593744D01*
X361843774Y-137782102D01*
X361804000Y-137982061D01*
X352396469Y-137982061D01*
X365942138Y-124436393D01*
X366009539Y-124449800D01*
X366262661Y-124449800D01*
X366510921Y-124400419D01*
X366744776Y-124303553D01*
X366955240Y-124162925D01*
X367134225Y-123983940D01*
X367274853Y-123773476D01*
X367371719Y-123539621D01*
X367421100Y-123291361D01*
X367421100Y-123038239D01*
X367371719Y-122789979D01*
X367274853Y-122556124D01*
X367134225Y-122345660D01*
X366955240Y-122166675D01*
X366744776Y-122026047D01*
X366510921Y-121929181D01*
X366338073Y-121894800D01*
X366510921Y-121860419D01*
X366744776Y-121763553D01*
X366955240Y-121622925D01*
X367134225Y-121443940D01*
X367274853Y-121233476D01*
X367371719Y-120999621D01*
X367421100Y-120751361D01*
X367421100Y-120498239D01*
X367371719Y-120249979D01*
X367274853Y-120016124D01*
X367134225Y-119805660D01*
X366955240Y-119626675D01*
X366744776Y-119486047D01*
X366510921Y-119389181D01*
X366338073Y-119354800D01*
X366510921Y-119320419D01*
X366744776Y-119223553D01*
X366955240Y-119082925D01*
X367134225Y-118903940D01*
X367274853Y-118693476D01*
X367371719Y-118459621D01*
X367421100Y-118211361D01*
X367421100Y-117958239D01*
X367371719Y-117709979D01*
X367274853Y-117476124D01*
X367134225Y-117265660D01*
X366955240Y-117086675D01*
X366744776Y-116946047D01*
X366510921Y-116849181D01*
X366338073Y-116814800D01*
X366510921Y-116780419D01*
X366744776Y-116683553D01*
X366955240Y-116542925D01*
X367134225Y-116363940D01*
X367274853Y-116153476D01*
X367371719Y-115919621D01*
X367421100Y-115671361D01*
X367421100Y-115418239D01*
X367371719Y-115169979D01*
X367274853Y-114936124D01*
X367134225Y-114725660D01*
X366955240Y-114546675D01*
X366744776Y-114406047D01*
X366510921Y-114309181D01*
X366338073Y-114274800D01*
X366510921Y-114240419D01*
X366744776Y-114143553D01*
X366955240Y-114002925D01*
X367134225Y-113823940D01*
X367274853Y-113613476D01*
X367371719Y-113379621D01*
X367421100Y-113131361D01*
X367421100Y-112878239D01*
X367371719Y-112629979D01*
X367274853Y-112396124D01*
X367134225Y-112185660D01*
X366955240Y-112006675D01*
X366744776Y-111866047D01*
X366510921Y-111769181D01*
X366338073Y-111734800D01*
X366510921Y-111700419D01*
X366744776Y-111603553D01*
X366955240Y-111462925D01*
X367134225Y-111283940D01*
X367274853Y-111073476D01*
X367371719Y-110839621D01*
X367421100Y-110591361D01*
X367421100Y-110338239D01*
X367371719Y-110089979D01*
X367274853Y-109856124D01*
X367134225Y-109645660D01*
X366955240Y-109466675D01*
X366744776Y-109326047D01*
X366510921Y-109229181D01*
X366265406Y-109180346D01*
X366438352Y-109064787D01*
X366666087Y-108837052D01*
X366845018Y-108569263D01*
X366907075Y-108419444D01*
X371221001Y-112733370D01*
X371221000Y-119360377D01*
X371217314Y-119397800D01*
X371221000Y-119435223D01*
X371221000Y-119435225D01*
X371232026Y-119547177D01*
X371275598Y-119690814D01*
X371296341Y-119729621D01*
X371346355Y-119823192D01*
X371368259Y-119849882D01*
X371441578Y-119939222D01*
X371470654Y-119963084D01*
X372395607Y-120888037D01*
X372382200Y-120955439D01*
X372382200Y-121208561D01*
X372431581Y-121456821D01*
X372528447Y-121690676D01*
X372669075Y-121901140D01*
X372848060Y-122080125D01*
X373058524Y-122220753D01*
X373292379Y-122317619D01*
X373540639Y-122367000D01*
X373793761Y-122367000D01*
X374042021Y-122317619D01*
X374275876Y-122220753D01*
X374486340Y-122080125D01*
X374665325Y-121901140D01*
X374805953Y-121690676D01*
X374902819Y-121456821D01*
X374952200Y-121208561D01*
X374952200Y-120955439D01*
X374902819Y-120707179D01*
X374805953Y-120473324D01*
X374665325Y-120262860D01*
X374486340Y-120083875D01*
X374275876Y-119943247D01*
X374042021Y-119846381D01*
X373869173Y-119812000D01*
X374042021Y-119777619D01*
X374275876Y-119680753D01*
X374486340Y-119540125D01*
X374665325Y-119361140D01*
X374805953Y-119150676D01*
X374902819Y-118916821D01*
X374952200Y-118668561D01*
X374952200Y-118415439D01*
X374902819Y-118167179D01*
X374805953Y-117933324D01*
X374665325Y-117722860D01*
X374486340Y-117543875D01*
X374275876Y-117403247D01*
X374143597Y-117348455D01*
X374918248Y-117348455D01*
X374957930Y-117598449D01*
X375045622Y-117835896D01*
X375092999Y-117924534D01*
X375321673Y-117977922D01*
X376027595Y-117272000D01*
X375321673Y-116566078D01*
X375092999Y-116619466D01*
X374987105Y-116849374D01*
X374928098Y-117095524D01*
X374918248Y-117348455D01*
X374143597Y-117348455D01*
X374042021Y-117306381D01*
X373869173Y-117272000D01*
X374042021Y-117237619D01*
X374275876Y-117140753D01*
X374486340Y-117000125D01*
X374665325Y-116821140D01*
X374805953Y-116610676D01*
X374902819Y-116376821D01*
X374952200Y-116128561D01*
X374952200Y-115875439D01*
X374902819Y-115627179D01*
X374805953Y-115393324D01*
X374665325Y-115182860D01*
X374486340Y-115003875D01*
X374275876Y-114863247D01*
X374042021Y-114766381D01*
X373869173Y-114732000D01*
X374042021Y-114697619D01*
X374275876Y-114600753D01*
X374486340Y-114460125D01*
X374665325Y-114281140D01*
X374805953Y-114070676D01*
X374902819Y-113836821D01*
X374952200Y-113588561D01*
X374952200Y-113335439D01*
X374902819Y-113087179D01*
X374805953Y-112853324D01*
X374665325Y-112642860D01*
X374486340Y-112463875D01*
X374275876Y-112323247D01*
X374042021Y-112226381D01*
X373869173Y-112192000D01*
X374042021Y-112157619D01*
X374275876Y-112060753D01*
X374486340Y-111920125D01*
X374665325Y-111741140D01*
X374805953Y-111530676D01*
X374902819Y-111296821D01*
X374946718Y-111076121D01*
X374990288Y-111094168D01*
X375306167Y-111157000D01*
X375443247Y-111157000D01*
X375388060Y-111193875D01*
X375209075Y-111372860D01*
X375068447Y-111583324D01*
X374971581Y-111817179D01*
X374922200Y-112065439D01*
X374922200Y-112318561D01*
X374971581Y-112566821D01*
X375068447Y-112800676D01*
X375209075Y-113011140D01*
X375388060Y-113190125D01*
X375598524Y-113330753D01*
X375832379Y-113427619D01*
X376005227Y-113462000D01*
X375832379Y-113496381D01*
X375598524Y-113593247D01*
X375388060Y-113733875D01*
X375209075Y-113912860D01*
X375068447Y-114123324D01*
X374971581Y-114357179D01*
X374922200Y-114605439D01*
X374922200Y-114858561D01*
X374971581Y-115106821D01*
X375068447Y-115340676D01*
X375209075Y-115551140D01*
X375388060Y-115730125D01*
X375598524Y-115870753D01*
X375832379Y-115967619D01*
X376007944Y-116002540D01*
X375880751Y-116022730D01*
X375643304Y-116110422D01*
X375554666Y-116157799D01*
X375501278Y-116386473D01*
X376207200Y-117092395D01*
X376221343Y-117078253D01*
X376400948Y-117257858D01*
X376386805Y-117272000D01*
X376400948Y-117286143D01*
X376221343Y-117465748D01*
X376207200Y-117451605D01*
X375501278Y-118157527D01*
X375554666Y-118386201D01*
X375784574Y-118492095D01*
X375998411Y-118543356D01*
X375832379Y-118576381D01*
X375598524Y-118673247D01*
X375388060Y-118813875D01*
X375209075Y-118992860D01*
X375068447Y-119203324D01*
X374971581Y-119437179D01*
X374922200Y-119685439D01*
X374922200Y-119938561D01*
X374971581Y-120186821D01*
X375068447Y-120420676D01*
X375209075Y-120631140D01*
X375388060Y-120810125D01*
X375598524Y-120950753D01*
X375832379Y-121047619D01*
X376005227Y-121082000D01*
X375832379Y-121116381D01*
X375598524Y-121213247D01*
X375388060Y-121353875D01*
X375209075Y-121532860D01*
X375068447Y-121743324D01*
X374971581Y-121977179D01*
X374922200Y-122225439D01*
X374922200Y-122478561D01*
X374971581Y-122726821D01*
X375068447Y-122960676D01*
X375209075Y-123171140D01*
X375388060Y-123350125D01*
X375598524Y-123490753D01*
X375832379Y-123587619D01*
X376080639Y-123637000D01*
X376333761Y-123637000D01*
X376582021Y-123587619D01*
X376815876Y-123490753D01*
X377026340Y-123350125D01*
X377205325Y-123171140D01*
X377345953Y-122960676D01*
X377442819Y-122726821D01*
X377492200Y-122478561D01*
X377492200Y-122225439D01*
X377442819Y-121977179D01*
X377345953Y-121743324D01*
X377205325Y-121532860D01*
X377026340Y-121353875D01*
X376815876Y-121213247D01*
X376582021Y-121116381D01*
X376409173Y-121082000D01*
X376582021Y-121047619D01*
X376815876Y-120950753D01*
X377026340Y-120810125D01*
X377205325Y-120631140D01*
X377345953Y-120420676D01*
X377442819Y-120186821D01*
X377492200Y-119938561D01*
X377492200Y-119685439D01*
X377478793Y-119618037D01*
X377696542Y-119400287D01*
X377725623Y-119376421D01*
X377820846Y-119260391D01*
X377891603Y-119128014D01*
X377935175Y-118984377D01*
X377946201Y-118872425D01*
X377946201Y-118872422D01*
X377949887Y-118834999D01*
X377946201Y-118797576D01*
X377946201Y-109312454D01*
X377949886Y-109275038D01*
X377946201Y-109237622D01*
X377946201Y-109237613D01*
X377935175Y-109125661D01*
X377891603Y-108982024D01*
X377820846Y-108849647D01*
X377725623Y-108733617D01*
X377696554Y-108709761D01*
X369820446Y-100833654D01*
X369796584Y-100804578D01*
X369680554Y-100709355D01*
X369548177Y-100638598D01*
X369404540Y-100595026D01*
X369292588Y-100584000D01*
X369292585Y-100584000D01*
X369255162Y-100580314D01*
X369217739Y-100584000D01*
X347904135Y-100584000D01*
X347891570Y-100571435D01*
X375075083Y-100571435D01*
X374820890Y-100676725D01*
X374389390Y-100965044D01*
X374022428Y-101332006D01*
X373734109Y-101763506D01*
X373535511Y-102242964D01*
X373434266Y-102751954D01*
X373434266Y-103270916D01*
X373535511Y-103779906D01*
X373734109Y-104259364D01*
X374022428Y-104690864D01*
X374389390Y-105057826D01*
X374820890Y-105346145D01*
X375300348Y-105544743D01*
X375809338Y-105645988D01*
X376328300Y-105645988D01*
X376837290Y-105544743D01*
X377316748Y-105346145D01*
X377748248Y-105057826D01*
X378115210Y-104690864D01*
X378403529Y-104259364D01*
X378508819Y-104005171D01*
X378508820Y-149125522D01*
X378458893Y-149634724D01*
X378321452Y-150089949D01*
X378098211Y-150509804D01*
X377797673Y-150878300D01*
X377431277Y-151181408D01*
X377012991Y-151407575D01*
X376558742Y-151548188D01*
X376051737Y-151601478D01*
X355278282Y-151601478D01*
X355244657Y-151604790D01*
X355218210Y-151604605D01*
X355207996Y-151605606D01*
X354386089Y-151691992D01*
X354320743Y-151705406D01*
X354255397Y-151717871D01*
X354245572Y-151720836D01*
X353456098Y-151965219D01*
X353394630Y-151991058D01*
X353332921Y-152015990D01*
X353323859Y-152020807D01*
X352596888Y-152413879D01*
X352541624Y-152451156D01*
X352485919Y-152487608D01*
X352477966Y-152494093D01*
X351841187Y-153020883D01*
X351794244Y-153068154D01*
X351746650Y-153114762D01*
X351740108Y-153122669D01*
X351217778Y-153763110D01*
X351180866Y-153818667D01*
X351143278Y-153873563D01*
X351138396Y-153882590D01*
X350750409Y-154612288D01*
X350725014Y-154673901D01*
X350698781Y-154735107D01*
X350695746Y-154744910D01*
X350456880Y-155536071D01*
X350443934Y-155601454D01*
X350430091Y-155666581D01*
X350429018Y-155676787D01*
X350348372Y-156499276D01*
X350344864Y-156534896D01*
X350344864Y-157424055D01*
X350294938Y-157933246D01*
X350157497Y-158388471D01*
X349934256Y-158808326D01*
X349633718Y-159176822D01*
X349267322Y-159479930D01*
X348849036Y-159706097D01*
X348394787Y-159846710D01*
X347887782Y-159900000D01*
X340723945Y-159900000D01*
X340214754Y-159850074D01*
X339759529Y-159712633D01*
X339339674Y-159489392D01*
X338971178Y-159188854D01*
X338662658Y-158815916D01*
X338465690Y-158470765D01*
X338079703Y-157731254D01*
X338072296Y-157718884D01*
X338044192Y-157670499D01*
X337319717Y-156557034D01*
X337316283Y-156552376D01*
X337313344Y-156547407D01*
X337268743Y-156487894D01*
X336419307Y-155466558D01*
X336415352Y-155462332D01*
X336411854Y-155457740D01*
X336360614Y-155403838D01*
X335397820Y-154488582D01*
X335393402Y-154484848D01*
X335389389Y-154480693D01*
X335332210Y-154433137D01*
X334269207Y-153636461D01*
X334264386Y-153633270D01*
X334259913Y-153629609D01*
X334197575Y-153589049D01*
X333048883Y-152921836D01*
X333043714Y-152919225D01*
X333038854Y-152916117D01*
X332972210Y-152883106D01*
X331753519Y-152354468D01*
X331748085Y-152352479D01*
X331742892Y-152349958D01*
X331672852Y-152324948D01*
X330400807Y-151942105D01*
X330395176Y-151940763D01*
X330389724Y-151938865D01*
X330317245Y-151922198D01*
X329009220Y-151690381D01*
X329003476Y-151689706D01*
X328997836Y-151688456D01*
X328923907Y-151680359D01*
X327612304Y-151603584D01*
X327590923Y-151601478D01*
X317559282Y-151601478D01*
X317527274Y-151604630D01*
X317515473Y-151604548D01*
X317505259Y-151605549D01*
X317135505Y-151644412D01*
X317070198Y-151657818D01*
X317004812Y-151670291D01*
X316994988Y-151673257D01*
X316639824Y-151783199D01*
X316578413Y-151809014D01*
X316516648Y-151833968D01*
X316507587Y-151838786D01*
X316180542Y-152015618D01*
X316125287Y-152052888D01*
X316069570Y-152089348D01*
X316061618Y-152095833D01*
X315775148Y-152332822D01*
X315728204Y-152380095D01*
X315680613Y-152426700D01*
X315674071Y-152434607D01*
X315439088Y-152722724D01*
X315402201Y-152778243D01*
X315364587Y-152833178D01*
X315359705Y-152842205D01*
X315185160Y-153170477D01*
X315159765Y-153232090D01*
X315133532Y-153293296D01*
X315130497Y-153303099D01*
X315023037Y-153659022D01*
X315010087Y-153724426D01*
X314996248Y-153789533D01*
X314995175Y-153799739D01*
X314958895Y-154169754D01*
X314958895Y-154169764D01*
X314955388Y-154205372D01*
X314955387Y-156535054D01*
X314888530Y-157216920D01*
X314700941Y-157838243D01*
X314396247Y-158411288D01*
X313986046Y-158914244D01*
X313485970Y-159327943D01*
X312915057Y-159636635D01*
X312295066Y-159828553D01*
X311615294Y-159900000D01*
X297035945Y-159900000D01*
X296526754Y-159850074D01*
X296071529Y-159712633D01*
X295651674Y-159489392D01*
X295283178Y-159188854D01*
X294974658Y-158815916D01*
X294777689Y-158470765D01*
X294391702Y-157731253D01*
X294384295Y-157718884D01*
X294356192Y-157670500D01*
X293631718Y-156557035D01*
X293628282Y-156552374D01*
X293625344Y-156547407D01*
X293580743Y-156487894D01*
X293428878Y-156305295D01*
X308928640Y-156305295D01*
X308928640Y-156836705D01*
X309032313Y-157357904D01*
X309235675Y-157848862D01*
X309530910Y-158290713D01*
X309906674Y-158666477D01*
X310348525Y-158961712D01*
X310839483Y-159165074D01*
X311360682Y-159268747D01*
X311892092Y-159268747D01*
X312413291Y-159165074D01*
X312904249Y-158961712D01*
X313346100Y-158666477D01*
X313721864Y-158290713D01*
X314017099Y-157848862D01*
X314220461Y-157357904D01*
X314324134Y-156836705D01*
X314324134Y-156305295D01*
X314220461Y-155784096D01*
X314017099Y-155293138D01*
X313721864Y-154851287D01*
X313346100Y-154475523D01*
X312904249Y-154180288D01*
X312413291Y-153976926D01*
X311892092Y-153873253D01*
X311360682Y-153873253D01*
X310839483Y-153976926D01*
X310348525Y-154180288D01*
X309906674Y-154475523D01*
X309530910Y-154851287D01*
X309235675Y-155293138D01*
X309032313Y-155784096D01*
X308928640Y-156305295D01*
X293428878Y-156305295D01*
X292731307Y-155466558D01*
X292727352Y-155462332D01*
X292723854Y-155457740D01*
X292672614Y-155403837D01*
X291709819Y-154488581D01*
X291705396Y-154484844D01*
X291701388Y-154480693D01*
X291644208Y-154433136D01*
X290581206Y-153636462D01*
X290576384Y-153633270D01*
X290571913Y-153629611D01*
X290509575Y-153589051D01*
X289360883Y-152921837D01*
X289355721Y-152919230D01*
X289350854Y-152916117D01*
X289284210Y-152883106D01*
X288065519Y-152354468D01*
X288060088Y-152352481D01*
X288054891Y-152349957D01*
X287984851Y-152324948D01*
X286712805Y-151942106D01*
X286707177Y-151940765D01*
X286701723Y-151938866D01*
X286629244Y-151922199D01*
X285321220Y-151690382D01*
X285315476Y-151689707D01*
X285309836Y-151688457D01*
X285235907Y-151680360D01*
X283924331Y-151603586D01*
X283902924Y-151601478D01*
X267902282Y-151601478D01*
X267868657Y-151604790D01*
X267842210Y-151604605D01*
X267831996Y-151605606D01*
X267010089Y-151691992D01*
X266944743Y-151705406D01*
X266879397Y-151717871D01*
X266869572Y-151720836D01*
X266080098Y-151965219D01*
X266018630Y-151991058D01*
X265956921Y-152015990D01*
X265947859Y-152020807D01*
X265220888Y-152413879D01*
X265165624Y-152451156D01*
X265109919Y-152487608D01*
X265101966Y-152494093D01*
X264465187Y-153020883D01*
X264418244Y-153068154D01*
X264370650Y-153114762D01*
X264364108Y-153122669D01*
X263841778Y-153763110D01*
X263804866Y-153818667D01*
X263767278Y-153873563D01*
X263762396Y-153882590D01*
X263374409Y-154612288D01*
X263349014Y-154673901D01*
X263322781Y-154735107D01*
X263319746Y-154744910D01*
X263080880Y-155536071D01*
X263067934Y-155601454D01*
X263054091Y-155666581D01*
X263053018Y-155676787D01*
X262972372Y-156499276D01*
X262968864Y-156534896D01*
X262968864Y-157424055D01*
X262918938Y-157933246D01*
X262781497Y-158388471D01*
X262558256Y-158808326D01*
X262257718Y-159176822D01*
X261891322Y-159479930D01*
X261473036Y-159706097D01*
X261018787Y-159846710D01*
X260511782Y-159900000D01*
X253347945Y-159900000D01*
X252838754Y-159850074D01*
X252383529Y-159712633D01*
X251963674Y-159489392D01*
X251595178Y-159188854D01*
X251286658Y-158815916D01*
X251089689Y-158470765D01*
X250703702Y-157731253D01*
X250696295Y-157718884D01*
X250668192Y-157670500D01*
X249943718Y-156557035D01*
X249940282Y-156552374D01*
X249937344Y-156547407D01*
X249892743Y-156487894D01*
X249043307Y-155466558D01*
X249039352Y-155462332D01*
X249035854Y-155457740D01*
X248984614Y-155403837D01*
X248021819Y-154488581D01*
X248017396Y-154484844D01*
X248013388Y-154480693D01*
X247956208Y-154433136D01*
X246893206Y-153636462D01*
X246888384Y-153633270D01*
X246883913Y-153629611D01*
X246821575Y-153589051D01*
X245672883Y-152921837D01*
X245667721Y-152919230D01*
X245662854Y-152916117D01*
X245596210Y-152883106D01*
X244377519Y-152354468D01*
X244372088Y-152352481D01*
X244366891Y-152349957D01*
X244296851Y-152324948D01*
X243024805Y-151942106D01*
X243019177Y-151940765D01*
X243013723Y-151938866D01*
X242941244Y-151922199D01*
X241633220Y-151690382D01*
X241627476Y-151689707D01*
X241621836Y-151688457D01*
X241547907Y-151680360D01*
X240236331Y-151603586D01*
X240214924Y-151601478D01*
X230183282Y-151601478D01*
X230151274Y-151604630D01*
X230139473Y-151604548D01*
X230129259Y-151605549D01*
X229759505Y-151644412D01*
X229694198Y-151657818D01*
X229628812Y-151670291D01*
X229618988Y-151673257D01*
X229263824Y-151783199D01*
X229202413Y-151809014D01*
X229140648Y-151833968D01*
X229131587Y-151838786D01*
X228804542Y-152015618D01*
X228749287Y-152052888D01*
X228693570Y-152089348D01*
X228685618Y-152095833D01*
X228399148Y-152332822D01*
X228352204Y-152380095D01*
X228304613Y-152426700D01*
X228298071Y-152434607D01*
X228063088Y-152722724D01*
X228026201Y-152778243D01*
X227988587Y-152833178D01*
X227983705Y-152842205D01*
X227809160Y-153170477D01*
X227783765Y-153232090D01*
X227757532Y-153293296D01*
X227754497Y-153303099D01*
X227647037Y-153659022D01*
X227634087Y-153724426D01*
X227620248Y-153789533D01*
X227619175Y-153799739D01*
X227582895Y-154169754D01*
X227582895Y-154169764D01*
X227579388Y-154205372D01*
X227579387Y-156535054D01*
X227512530Y-157216920D01*
X227324941Y-157838243D01*
X227020247Y-158411288D01*
X226610046Y-158914244D01*
X226109970Y-159327943D01*
X225539057Y-159636635D01*
X224919066Y-159828553D01*
X224239294Y-159900000D01*
X209659945Y-159900000D01*
X209150754Y-159850074D01*
X208695529Y-159712633D01*
X208275674Y-159489392D01*
X207907178Y-159188854D01*
X207598658Y-158815916D01*
X207401689Y-158470765D01*
X207015702Y-157731253D01*
X207008295Y-157718884D01*
X206980192Y-157670500D01*
X206255718Y-156557035D01*
X206252282Y-156552374D01*
X206249344Y-156547407D01*
X206204743Y-156487894D01*
X206052878Y-156305295D01*
X221552640Y-156305295D01*
X221552640Y-156836705D01*
X221656313Y-157357904D01*
X221859675Y-157848862D01*
X222154910Y-158290713D01*
X222530674Y-158666477D01*
X222972525Y-158961712D01*
X223463483Y-159165074D01*
X223984682Y-159268747D01*
X224516092Y-159268747D01*
X225037291Y-159165074D01*
X225528249Y-158961712D01*
X225970100Y-158666477D01*
X226345864Y-158290713D01*
X226641099Y-157848862D01*
X226844461Y-157357904D01*
X226948134Y-156836705D01*
X226948134Y-156305295D01*
X226844461Y-155784096D01*
X226641099Y-155293138D01*
X226345864Y-154851287D01*
X225970100Y-154475523D01*
X225528249Y-154180288D01*
X225037291Y-153976926D01*
X224516092Y-153873253D01*
X223984682Y-153873253D01*
X223463483Y-153976926D01*
X222972525Y-154180288D01*
X222530674Y-154475523D01*
X222154910Y-154851287D01*
X221859675Y-155293138D01*
X221656313Y-155784096D01*
X221552640Y-156305295D01*
X206052878Y-156305295D01*
X205355307Y-155466558D01*
X205351352Y-155462332D01*
X205347854Y-155457740D01*
X205296614Y-155403837D01*
X204333819Y-154488581D01*
X204329396Y-154484844D01*
X204325388Y-154480693D01*
X204268208Y-154433136D01*
X203205206Y-153636462D01*
X203200384Y-153633270D01*
X203195913Y-153629611D01*
X203133575Y-153589051D01*
X201984883Y-152921837D01*
X201979721Y-152919230D01*
X201974854Y-152916117D01*
X201908210Y-152883106D01*
X200689519Y-152354468D01*
X200684088Y-152352481D01*
X200678891Y-152349957D01*
X200608851Y-152324948D01*
X199336805Y-151942106D01*
X199331177Y-151940765D01*
X199325723Y-151938866D01*
X199253244Y-151922199D01*
X197945220Y-151690382D01*
X197939476Y-151689707D01*
X197933836Y-151688457D01*
X197859907Y-151680360D01*
X196548331Y-151603586D01*
X196526924Y-151601478D01*
X186495282Y-151601478D01*
X186463274Y-151604630D01*
X186451473Y-151604548D01*
X186441259Y-151605549D01*
X186071505Y-151644412D01*
X186006198Y-151657818D01*
X185940812Y-151670291D01*
X185930988Y-151673257D01*
X185575824Y-151783199D01*
X185514413Y-151809014D01*
X185452648Y-151833968D01*
X185443587Y-151838786D01*
X185116542Y-152015618D01*
X185061287Y-152052888D01*
X185005570Y-152089348D01*
X184997618Y-152095833D01*
X184711148Y-152332822D01*
X184664204Y-152380095D01*
X184616613Y-152426700D01*
X184610071Y-152434607D01*
X184375088Y-152722724D01*
X184338201Y-152778243D01*
X184300587Y-152833178D01*
X184295705Y-152842205D01*
X184121160Y-153170477D01*
X184095765Y-153232090D01*
X184069532Y-153293296D01*
X184066497Y-153303099D01*
X183959037Y-153659022D01*
X183946087Y-153724426D01*
X183932248Y-153789533D01*
X183931175Y-153799739D01*
X183894895Y-154169754D01*
X183894895Y-154169764D01*
X183891388Y-154205372D01*
X183891387Y-156535054D01*
X183824530Y-157216920D01*
X183636941Y-157838243D01*
X183332247Y-158411288D01*
X182922046Y-158914244D01*
X182421970Y-159327943D01*
X181851057Y-159636635D01*
X181231066Y-159828553D01*
X180551294Y-159900000D01*
X165971945Y-159900000D01*
X165462754Y-159850074D01*
X165007529Y-159712633D01*
X164587674Y-159489392D01*
X164219178Y-159188854D01*
X163910658Y-158815916D01*
X163713689Y-158470765D01*
X163327702Y-157731253D01*
X163320295Y-157718884D01*
X163292192Y-157670500D01*
X162567718Y-156557035D01*
X162564282Y-156552374D01*
X162561344Y-156547407D01*
X162516743Y-156487894D01*
X162364878Y-156305295D01*
X177864640Y-156305295D01*
X177864640Y-156836705D01*
X177968313Y-157357904D01*
X178171675Y-157848862D01*
X178466910Y-158290713D01*
X178842674Y-158666477D01*
X179284525Y-158961712D01*
X179775483Y-159165074D01*
X180296682Y-159268747D01*
X180828092Y-159268747D01*
X181349291Y-159165074D01*
X181840249Y-158961712D01*
X182282100Y-158666477D01*
X182657864Y-158290713D01*
X182953099Y-157848862D01*
X183156461Y-157357904D01*
X183260134Y-156836705D01*
X183260134Y-156305295D01*
X183156461Y-155784096D01*
X182953099Y-155293138D01*
X182657864Y-154851287D01*
X182282100Y-154475523D01*
X181840249Y-154180288D01*
X181349291Y-153976926D01*
X180828092Y-153873253D01*
X180296682Y-153873253D01*
X179775483Y-153976926D01*
X179284525Y-154180288D01*
X178842674Y-154475523D01*
X178466910Y-154851287D01*
X178171675Y-155293138D01*
X177968313Y-155784096D01*
X177864640Y-156305295D01*
X162364878Y-156305295D01*
X161667307Y-155466558D01*
X161663352Y-155462332D01*
X161659854Y-155457740D01*
X161608614Y-155403837D01*
X160645819Y-154488581D01*
X160641396Y-154484844D01*
X160637388Y-154480693D01*
X160580208Y-154433136D01*
X159517206Y-153636462D01*
X159512384Y-153633270D01*
X159507913Y-153629611D01*
X159445575Y-153589051D01*
X158296883Y-152921837D01*
X158291721Y-152919230D01*
X158286854Y-152916117D01*
X158220210Y-152883106D01*
X157001519Y-152354468D01*
X156996088Y-152352481D01*
X156990891Y-152349957D01*
X156920851Y-152324948D01*
X155648805Y-151942106D01*
X155643177Y-151940765D01*
X155637723Y-151938866D01*
X155565244Y-151922199D01*
X154257220Y-151690382D01*
X154251476Y-151689707D01*
X154245836Y-151688457D01*
X154171907Y-151680360D01*
X152860331Y-151603586D01*
X152838924Y-151601478D01*
X136838282Y-151601478D01*
X136804657Y-151604790D01*
X136778210Y-151604605D01*
X136767996Y-151605606D01*
X135946089Y-151691992D01*
X135880743Y-151705406D01*
X135815397Y-151717871D01*
X135805572Y-151720836D01*
X135016098Y-151965219D01*
X134954630Y-151991058D01*
X134892921Y-152015990D01*
X134883859Y-152020807D01*
X134156888Y-152413879D01*
X134101624Y-152451156D01*
X134045919Y-152487608D01*
X134037966Y-152494093D01*
X133401187Y-153020883D01*
X133354244Y-153068154D01*
X133306650Y-153114762D01*
X133300108Y-153122669D01*
X132777778Y-153763110D01*
X132740866Y-153818667D01*
X132703278Y-153873563D01*
X132698396Y-153882590D01*
X132310409Y-154612288D01*
X132285014Y-154673901D01*
X132258781Y-154735107D01*
X132255746Y-154744910D01*
X132016880Y-155536071D01*
X132003934Y-155601454D01*
X131990091Y-155666581D01*
X131989018Y-155676787D01*
X131908372Y-156499276D01*
X131904864Y-156534896D01*
X131904864Y-157424055D01*
X131854938Y-157933246D01*
X131717497Y-158388471D01*
X131494256Y-158808326D01*
X131193718Y-159176822D01*
X130827322Y-159479930D01*
X130409036Y-159706097D01*
X129954787Y-159846710D01*
X129447782Y-159900000D01*
X122283945Y-159900000D01*
X121774754Y-159850074D01*
X121319529Y-159712633D01*
X120899674Y-159489392D01*
X120531178Y-159188854D01*
X120222658Y-158815916D01*
X120025690Y-158470765D01*
X119639703Y-157731254D01*
X119632296Y-157718884D01*
X119604192Y-157670499D01*
X118879717Y-156557034D01*
X118876283Y-156552376D01*
X118873344Y-156547407D01*
X118828743Y-156487894D01*
X117979307Y-155466558D01*
X117975352Y-155462332D01*
X117971854Y-155457740D01*
X117920614Y-155403838D01*
X116957820Y-154488582D01*
X116953402Y-154484848D01*
X116949389Y-154480693D01*
X116892210Y-154433137D01*
X115829207Y-153636461D01*
X115824386Y-153633270D01*
X115819913Y-153629609D01*
X115757575Y-153589049D01*
X114608883Y-152921836D01*
X114603714Y-152919225D01*
X114598854Y-152916117D01*
X114532210Y-152883106D01*
X113313519Y-152354468D01*
X113308085Y-152352479D01*
X113302892Y-152349958D01*
X113232852Y-152324948D01*
X111960807Y-151942105D01*
X111955176Y-151940763D01*
X111949724Y-151938865D01*
X111877245Y-151922198D01*
X110569220Y-151690381D01*
X110563476Y-151689706D01*
X110557836Y-151688456D01*
X110483907Y-151680359D01*
X109172304Y-151603584D01*
X109150923Y-151601478D01*
X99119282Y-151601478D01*
X99087274Y-151604630D01*
X99075473Y-151604548D01*
X99065259Y-151605549D01*
X98695505Y-151644412D01*
X98630198Y-151657818D01*
X98564812Y-151670291D01*
X98554988Y-151673257D01*
X98199824Y-151783199D01*
X98138413Y-151809014D01*
X98076648Y-151833968D01*
X98067587Y-151838786D01*
X97740542Y-152015618D01*
X97685287Y-152052888D01*
X97629570Y-152089348D01*
X97621618Y-152095833D01*
X97335148Y-152332822D01*
X97288204Y-152380095D01*
X97240613Y-152426700D01*
X97234071Y-152434607D01*
X96999088Y-152722724D01*
X96962201Y-152778243D01*
X96924587Y-152833178D01*
X96919705Y-152842205D01*
X96745160Y-153170477D01*
X96719765Y-153232090D01*
X96693532Y-153293296D01*
X96690497Y-153303099D01*
X96583037Y-153659022D01*
X96570087Y-153724426D01*
X96556248Y-153789533D01*
X96555175Y-153799739D01*
X96518895Y-154169754D01*
X96518895Y-154169764D01*
X96515388Y-154205372D01*
X96515387Y-156535054D01*
X96448530Y-157216920D01*
X96260941Y-157838243D01*
X95956247Y-158411288D01*
X95546046Y-158914244D01*
X95045970Y-159327943D01*
X94475057Y-159636635D01*
X93855066Y-159828553D01*
X93175294Y-159900000D01*
X78595945Y-159900000D01*
X78086754Y-159850074D01*
X77631529Y-159712633D01*
X77211674Y-159489392D01*
X76843178Y-159188854D01*
X76534658Y-158815916D01*
X76337689Y-158470765D01*
X75951702Y-157731253D01*
X75944295Y-157718884D01*
X75916192Y-157670500D01*
X75191718Y-156557035D01*
X75188282Y-156552374D01*
X75185344Y-156547407D01*
X75140743Y-156487894D01*
X74988878Y-156305295D01*
X90488640Y-156305295D01*
X90488640Y-156836705D01*
X90592313Y-157357904D01*
X90795675Y-157848862D01*
X91090910Y-158290713D01*
X91466674Y-158666477D01*
X91908525Y-158961712D01*
X92399483Y-159165074D01*
X92920682Y-159268747D01*
X93452092Y-159268747D01*
X93973291Y-159165074D01*
X94464249Y-158961712D01*
X94906100Y-158666477D01*
X95281864Y-158290713D01*
X95577099Y-157848862D01*
X95780461Y-157357904D01*
X95884134Y-156836705D01*
X95884134Y-156305295D01*
X95780461Y-155784096D01*
X95577099Y-155293138D01*
X95281864Y-154851287D01*
X94906100Y-154475523D01*
X94464249Y-154180288D01*
X93973291Y-153976926D01*
X93452092Y-153873253D01*
X92920682Y-153873253D01*
X92399483Y-153976926D01*
X91908525Y-154180288D01*
X91466674Y-154475523D01*
X91090910Y-154851287D01*
X90795675Y-155293138D01*
X90592313Y-155784096D01*
X90488640Y-156305295D01*
X74988878Y-156305295D01*
X74291307Y-155466558D01*
X74287352Y-155462332D01*
X74283854Y-155457740D01*
X74232614Y-155403837D01*
X73269819Y-154488581D01*
X73265396Y-154484844D01*
X73261388Y-154480693D01*
X73204208Y-154433136D01*
X72141206Y-153636462D01*
X72136384Y-153633270D01*
X72131913Y-153629611D01*
X72069575Y-153589051D01*
X70920883Y-152921837D01*
X70915721Y-152919230D01*
X70910854Y-152916117D01*
X70844210Y-152883106D01*
X69625519Y-152354468D01*
X69620088Y-152352481D01*
X69614891Y-152349957D01*
X69544851Y-152324948D01*
X68272805Y-151942106D01*
X68267177Y-151940765D01*
X68261723Y-151938866D01*
X68189244Y-151922199D01*
X66881220Y-151690382D01*
X66875476Y-151689707D01*
X66869836Y-151688457D01*
X66795907Y-151680360D01*
X65484331Y-151603586D01*
X65462924Y-151601478D01*
X49462282Y-151601478D01*
X49428657Y-151604790D01*
X49402210Y-151604605D01*
X49391996Y-151605606D01*
X48570089Y-151691992D01*
X48504743Y-151705406D01*
X48439397Y-151717871D01*
X48429572Y-151720836D01*
X47640098Y-151965219D01*
X47578630Y-151991058D01*
X47516921Y-152015990D01*
X47507859Y-152020807D01*
X46780888Y-152413879D01*
X46725624Y-152451156D01*
X46669919Y-152487608D01*
X46661966Y-152494093D01*
X46025187Y-153020883D01*
X45978244Y-153068154D01*
X45930650Y-153114762D01*
X45924108Y-153122669D01*
X45401778Y-153763110D01*
X45364866Y-153818667D01*
X45327278Y-153873563D01*
X45322396Y-153882590D01*
X44934409Y-154612288D01*
X44909014Y-154673901D01*
X44882781Y-154735107D01*
X44879746Y-154744910D01*
X44640880Y-155536071D01*
X44627934Y-155601454D01*
X44614091Y-155666581D01*
X44613018Y-155676787D01*
X44532372Y-156499276D01*
X44528864Y-156534896D01*
X44528865Y-158059044D01*
X44491031Y-158444908D01*
X44389411Y-158781489D01*
X44224351Y-159091922D01*
X44002139Y-159364381D01*
X43731237Y-159588489D01*
X43421964Y-159755713D01*
X43086100Y-159859680D01*
X42702483Y-159900000D01*
X42348764Y-159900000D01*
X41839573Y-159850074D01*
X41384348Y-159712633D01*
X40964493Y-159489392D01*
X40595997Y-159188854D01*
X40292889Y-158822458D01*
X40066722Y-158404172D01*
X39926109Y-157949923D01*
X39872819Y-157442918D01*
X39872819Y-145624487D01*
X52374574Y-145624487D01*
X52374574Y-145828365D01*
X52414348Y-146028324D01*
X52492369Y-146216682D01*
X52605637Y-146386200D01*
X52749800Y-146530363D01*
X52919318Y-146643631D01*
X53107676Y-146721652D01*
X53307635Y-146761426D01*
X53371127Y-146761426D01*
X53434755Y-146813645D01*
X53464875Y-146829744D01*
X53567133Y-146884402D01*
X53710770Y-146927974D01*
X53822722Y-146939000D01*
X53822725Y-146939000D01*
X53860148Y-146942686D01*
X53897571Y-146939000D01*
X71815289Y-146939000D01*
X71857226Y-146980937D01*
X72026744Y-147094205D01*
X72215102Y-147172226D01*
X72415061Y-147212000D01*
X72618939Y-147212000D01*
X72818898Y-147172226D01*
X73007256Y-147094205D01*
X73176774Y-146980937D01*
X73320937Y-146836774D01*
X73434205Y-146667256D01*
X73512226Y-146478898D01*
X73552000Y-146278939D01*
X73552000Y-146075061D01*
X73512226Y-145875102D01*
X73434205Y-145686744D01*
X73320937Y-145517226D01*
X73176774Y-145373063D01*
X73007256Y-145259795D01*
X72818898Y-145181774D01*
X72618939Y-145142000D01*
X72415061Y-145142000D01*
X72215102Y-145181774D01*
X72026744Y-145259795D01*
X71857226Y-145373063D01*
X71815289Y-145415000D01*
X54400853Y-145415000D01*
X54326779Y-145236170D01*
X54213511Y-145066652D01*
X54069348Y-144922489D01*
X53899830Y-144809221D01*
X53711472Y-144731200D01*
X53511513Y-144691426D01*
X53307635Y-144691426D01*
X53107676Y-144731200D01*
X52919318Y-144809221D01*
X52749800Y-144922489D01*
X52605637Y-145066652D01*
X52492369Y-145236170D01*
X52414348Y-145424528D01*
X52374574Y-145624487D01*
X39872819Y-145624487D01*
X39872819Y-133706039D01*
X41260000Y-133706039D01*
X41260000Y-133959161D01*
X41309381Y-134207421D01*
X41406247Y-134441276D01*
X41546875Y-134651740D01*
X41725860Y-134830725D01*
X41936324Y-134971353D01*
X42170179Y-135068219D01*
X42343027Y-135102600D01*
X42170179Y-135136981D01*
X41936324Y-135233847D01*
X41725860Y-135374475D01*
X41546875Y-135553460D01*
X41406247Y-135763924D01*
X41309381Y-135997779D01*
X41260000Y-136246039D01*
X41260000Y-136499161D01*
X41309381Y-136747421D01*
X41406247Y-136981276D01*
X41546875Y-137191740D01*
X41725860Y-137370725D01*
X41936324Y-137511353D01*
X42170179Y-137608219D01*
X42418439Y-137657600D01*
X42671561Y-137657600D01*
X42919821Y-137608219D01*
X43153676Y-137511353D01*
X43364140Y-137370725D01*
X43543125Y-137191740D01*
X43683753Y-136981276D01*
X43780619Y-136747421D01*
X43830000Y-136499161D01*
X43830000Y-136246039D01*
X43780619Y-135997779D01*
X43683753Y-135763924D01*
X43543125Y-135553460D01*
X43364140Y-135374475D01*
X43153676Y-135233847D01*
X42919821Y-135136981D01*
X42746973Y-135102600D01*
X42919821Y-135068219D01*
X43153676Y-134971353D01*
X43364140Y-134830725D01*
X43543125Y-134651740D01*
X43683753Y-134441276D01*
X43780619Y-134207421D01*
X43811305Y-134053147D01*
X43883967Y-134067600D01*
X44206033Y-134067600D01*
X44369799Y-134035025D01*
X44265860Y-134104475D01*
X44086875Y-134283460D01*
X43946247Y-134493924D01*
X43849381Y-134727779D01*
X43800000Y-134976039D01*
X43800000Y-135229161D01*
X43849381Y-135477421D01*
X43946247Y-135711276D01*
X44086875Y-135921740D01*
X44265860Y-136100725D01*
X44476324Y-136241353D01*
X44710179Y-136338219D01*
X44883027Y-136372600D01*
X44710179Y-136406981D01*
X44476324Y-136503847D01*
X44265860Y-136644475D01*
X44086875Y-136823460D01*
X43946247Y-137033924D01*
X43849381Y-137267779D01*
X43800000Y-137516039D01*
X43800000Y-137769161D01*
X43849381Y-138017421D01*
X43946247Y-138251276D01*
X44086875Y-138461740D01*
X44265860Y-138640725D01*
X44476324Y-138781353D01*
X44710179Y-138878219D01*
X44958439Y-138927600D01*
X45211561Y-138927600D01*
X45459821Y-138878219D01*
X45693676Y-138781353D01*
X45904140Y-138640725D01*
X46083125Y-138461740D01*
X46223753Y-138251276D01*
X46320619Y-138017421D01*
X46370000Y-137769161D01*
X46370000Y-137516039D01*
X46320619Y-137267779D01*
X46223753Y-137033924D01*
X46083125Y-136823460D01*
X45904140Y-136644475D01*
X45693676Y-136503847D01*
X45459821Y-136406981D01*
X45286973Y-136372600D01*
X45459821Y-136338219D01*
X45693676Y-136241353D01*
X45904140Y-136100725D01*
X46083125Y-135921740D01*
X46223753Y-135711276D01*
X46320619Y-135477421D01*
X46370000Y-135229161D01*
X46370000Y-134976039D01*
X46320619Y-134727779D01*
X46223753Y-134493924D01*
X46083125Y-134283460D01*
X45904140Y-134104475D01*
X45693676Y-133963847D01*
X45459821Y-133866981D01*
X45211561Y-133817600D01*
X44958439Y-133817600D01*
X44896763Y-133829868D01*
X45087252Y-133702587D01*
X45314987Y-133474852D01*
X45493918Y-133207063D01*
X45617168Y-132909512D01*
X45680000Y-132593633D01*
X45680000Y-132271567D01*
X45617168Y-131955688D01*
X45493918Y-131658137D01*
X45314987Y-131390348D01*
X45087252Y-131162613D01*
X44819463Y-130983682D01*
X44521912Y-130860432D01*
X44206033Y-130797600D01*
X43883967Y-130797600D01*
X43568088Y-130860432D01*
X43270537Y-130983682D01*
X43002748Y-131162613D01*
X42775013Y-131390348D01*
X42596082Y-131658137D01*
X42472832Y-131955688D01*
X42410000Y-132271567D01*
X42410000Y-132549279D01*
X42170179Y-132596981D01*
X41936324Y-132693847D01*
X41725860Y-132834475D01*
X41546875Y-133013460D01*
X41406247Y-133223924D01*
X41309381Y-133457779D01*
X41260000Y-133706039D01*
X39872819Y-133706039D01*
X39872819Y-104005171D01*
X39978109Y-104259364D01*
X40266428Y-104690864D01*
X40633390Y-105057826D01*
X41064890Y-105346145D01*
X41544348Y-105544743D01*
X42053338Y-105645988D01*
X42572300Y-105645988D01*
X43081290Y-105544743D01*
X43560748Y-105346145D01*
X43992248Y-105057826D01*
X44359210Y-104690864D01*
X44647529Y-104259364D01*
X44846127Y-103779906D01*
X44947372Y-103270916D01*
X44947372Y-102751954D01*
X44846127Y-102242964D01*
X44647529Y-101763506D01*
X44359210Y-101332006D01*
X43992248Y-100965044D01*
X43560748Y-100676725D01*
X43306555Y-100571435D01*
X215362708Y-100571435D01*
X215350143Y-100584000D01*
G37*
X215350143Y-100584000D02*
X153693286Y-100584000D01*
X153655863Y-100580314D01*
X153618440Y-100584000D01*
X153618438Y-100584000D01*
X153506486Y-100595026D01*
X153362849Y-100638598D01*
X153230472Y-100709355D01*
X153114442Y-100804578D01*
X153090585Y-100833648D01*
X146706048Y-107218186D01*
X146676978Y-107242043D01*
X146653121Y-107271113D01*
X146653120Y-107271114D01*
X146581754Y-107358073D01*
X146510998Y-107490450D01*
X146467426Y-107634087D01*
X146452713Y-107783465D01*
X146456400Y-107820898D01*
X146456399Y-111466138D01*
X146452713Y-111503561D01*
X146456399Y-111540984D01*
X146456399Y-111540986D01*
X146467425Y-111652938D01*
X146510997Y-111796575D01*
X146542558Y-111855621D01*
X146581754Y-111928953D01*
X146606000Y-111958496D01*
X146676977Y-112044983D01*
X146706053Y-112068845D01*
X147615170Y-112977962D01*
X147639027Y-113007033D01*
X147755057Y-113102256D01*
X147887434Y-113173013D01*
X148031071Y-113216585D01*
X148143023Y-113227611D01*
X148143025Y-113227611D01*
X148180448Y-113231297D01*
X148217871Y-113227611D01*
X155792928Y-113227611D01*
X155830351Y-113231297D01*
X155867774Y-113227611D01*
X155867777Y-113227611D01*
X155979729Y-113216585D01*
X156123366Y-113173013D01*
X156255743Y-113102256D01*
X156371773Y-113007033D01*
X156395635Y-112977957D01*
X157304752Y-112068840D01*
X157333823Y-112044983D01*
X157429046Y-111928953D01*
X157430245Y-111926710D01*
X157536260Y-112032725D01*
X157746724Y-112173353D01*
X157980579Y-112270219D01*
X158228839Y-112319600D01*
X158481961Y-112319600D01*
X158730221Y-112270219D01*
X158964076Y-112173353D01*
X159174540Y-112032725D01*
X159353525Y-111853740D01*
X159494153Y-111643276D01*
X159591019Y-111409421D01*
X159625400Y-111236573D01*
X159659781Y-111409421D01*
X159756647Y-111643276D01*
X159897275Y-111853740D01*
X160076260Y-112032725D01*
X160286724Y-112173353D01*
X160520579Y-112270219D01*
X160768839Y-112319600D01*
X161021961Y-112319600D01*
X161270221Y-112270219D01*
X161504076Y-112173353D01*
X161714540Y-112032725D01*
X161893525Y-111853740D01*
X162034153Y-111643276D01*
X162131019Y-111409421D01*
X162179854Y-111163906D01*
X162295413Y-111336852D01*
X162523148Y-111564587D01*
X162790937Y-111743518D01*
X163088488Y-111866768D01*
X163404367Y-111929600D01*
X163726433Y-111929600D01*
X164042312Y-111866768D01*
X164339863Y-111743518D01*
X164607652Y-111564587D01*
X164835387Y-111336852D01*
X165014318Y-111069063D01*
X165137568Y-110771512D01*
X165200400Y-110455633D01*
X165200400Y-110133567D01*
X165137568Y-109817688D01*
X165014318Y-109520137D01*
X164835387Y-109252348D01*
X164607652Y-109024613D01*
X164339863Y-108845682D01*
X164042312Y-108722432D01*
X163726433Y-108659600D01*
X163442754Y-108659600D01*
X163450400Y-108621161D01*
X163450400Y-108368039D01*
X163401019Y-108119779D01*
X163304153Y-107885924D01*
X163163525Y-107675460D01*
X162984540Y-107496475D01*
X162774076Y-107355847D01*
X162540221Y-107258981D01*
X162291961Y-107209600D01*
X162038839Y-107209600D01*
X161790579Y-107258981D01*
X161556724Y-107355847D01*
X161346260Y-107496475D01*
X161167275Y-107675460D01*
X161026647Y-107885924D01*
X160929781Y-108119779D01*
X160895400Y-108292627D01*
X160861019Y-108119779D01*
X160764153Y-107885924D01*
X160623525Y-107675460D01*
X160444540Y-107496475D01*
X160234076Y-107355847D01*
X160000221Y-107258981D01*
X159751961Y-107209600D01*
X159498839Y-107209600D01*
X159435415Y-107222216D01*
X162625609Y-104032022D01*
X171327499Y-104032022D01*
X171252559Y-104082095D01*
X171108396Y-104226258D01*
X171054368Y-104307117D01*
X171043939Y-104305043D01*
X170840061Y-104305043D01*
X170640102Y-104344817D01*
X170451744Y-104422838D01*
X170282226Y-104536106D01*
X170138063Y-104680269D01*
X170024795Y-104849787D01*
X169946774Y-105038145D01*
X169907000Y-105238104D01*
X169907000Y-105441982D01*
X169946774Y-105641941D01*
X170024795Y-105830299D01*
X170138063Y-105999817D01*
X170282226Y-106143980D01*
X170451744Y-106257248D01*
X170640102Y-106335269D01*
X170840061Y-106375043D01*
X170914604Y-106375043D01*
X170916607Y-106376687D01*
X171048984Y-106447444D01*
X171192621Y-106491016D01*
X171304573Y-106502042D01*
X171304575Y-106502042D01*
X171341998Y-106505728D01*
X171379421Y-106502042D01*
X172096864Y-106502042D01*
X172134287Y-106505728D01*
X172171710Y-106502042D01*
X172171713Y-106502042D01*
X172283665Y-106491016D01*
X172427302Y-106447444D01*
X172559679Y-106376687D01*
X172675709Y-106281464D01*
X172699571Y-106252388D01*
X172779959Y-106172000D01*
X208599370Y-106172000D01*
X208603716Y-106176346D01*
X208627578Y-106205422D01*
X208743608Y-106300645D01*
X208875985Y-106371402D01*
X209019622Y-106414974D01*
X209131574Y-106426000D01*
X209131576Y-106426000D01*
X209168999Y-106429686D01*
X209206422Y-106426000D01*
X209356289Y-106426000D01*
X209398226Y-106467937D01*
X209427124Y-106487246D01*
X208656654Y-107257716D01*
X208627578Y-107281578D01*
X208582769Y-107336179D01*
X208532355Y-107397608D01*
X208498979Y-107460051D01*
X208487295Y-107481911D01*
X208480221Y-107478981D01*
X208231961Y-107429600D01*
X207978839Y-107429600D01*
X207730579Y-107478981D01*
X207496724Y-107575847D01*
X207286260Y-107716475D01*
X207107275Y-107895460D01*
X206966647Y-108105924D01*
X206869781Y-108339779D01*
X206835400Y-108512627D01*
X206801019Y-108339779D01*
X206704153Y-108105924D01*
X206563525Y-107895460D01*
X206384540Y-107716475D01*
X206174076Y-107575847D01*
X205940221Y-107478981D01*
X205691961Y-107429600D01*
X205438839Y-107429600D01*
X205190579Y-107478981D01*
X204956724Y-107575847D01*
X204746260Y-107716475D01*
X204567275Y-107895460D01*
X204426647Y-108105924D01*
X204329781Y-108339779D01*
X204295400Y-108512627D01*
X204261019Y-108339779D01*
X204164153Y-108105924D01*
X204023525Y-107895460D01*
X203844540Y-107716475D01*
X203634076Y-107575847D01*
X203400221Y-107478981D01*
X203151961Y-107429600D01*
X202898839Y-107429600D01*
X202650579Y-107478981D01*
X202416724Y-107575847D01*
X202206260Y-107716475D01*
X202027275Y-107895460D01*
X201886647Y-108105924D01*
X201789781Y-108339779D01*
X201740400Y-108588039D01*
X201740400Y-108841161D01*
X201789781Y-109089421D01*
X201886647Y-109323276D01*
X202027275Y-109533740D01*
X202206260Y-109712725D01*
X202416724Y-109853353D01*
X202650579Y-109950219D01*
X202898839Y-109999600D01*
X203151961Y-109999600D01*
X203400221Y-109950219D01*
X203634076Y-109853353D01*
X203844540Y-109712725D01*
X204023525Y-109533740D01*
X204164153Y-109323276D01*
X204261019Y-109089421D01*
X204295400Y-108916573D01*
X204329781Y-109089421D01*
X204426647Y-109323276D01*
X204567275Y-109533740D01*
X204746260Y-109712725D01*
X204956724Y-109853353D01*
X205190579Y-109950219D01*
X205438839Y-109999600D01*
X205691961Y-109999600D01*
X205940221Y-109950219D01*
X206174076Y-109853353D01*
X206384540Y-109712725D01*
X206563525Y-109533740D01*
X206704153Y-109323276D01*
X206801019Y-109089421D01*
X206835400Y-108916573D01*
X206869781Y-109089421D01*
X206966647Y-109323276D01*
X207107275Y-109533740D01*
X207286260Y-109712725D01*
X207496724Y-109853353D01*
X207730579Y-109950219D01*
X207978839Y-109999600D01*
X208231961Y-109999600D01*
X208407001Y-109964783D01*
X208407001Y-110091529D01*
X208403314Y-110128962D01*
X208418027Y-110278340D01*
X208445111Y-110367624D01*
X208377275Y-110435460D01*
X208281519Y-110578769D01*
X208222453Y-110547198D01*
X208078816Y-110503626D01*
X207966864Y-110492600D01*
X207966861Y-110492600D01*
X207929438Y-110488914D01*
X207892015Y-110492600D01*
X207871705Y-110492600D01*
X207833525Y-110435460D01*
X207654540Y-110256475D01*
X207444076Y-110115847D01*
X207210221Y-110018981D01*
X206961961Y-109969600D01*
X206708839Y-109969600D01*
X206460579Y-110018981D01*
X206226724Y-110115847D01*
X206016260Y-110256475D01*
X205837275Y-110435460D01*
X205696647Y-110645924D01*
X205599781Y-110879779D01*
X205565400Y-111052627D01*
X205531019Y-110879779D01*
X205434153Y-110645924D01*
X205293525Y-110435460D01*
X205114540Y-110256475D01*
X204904076Y-110115847D01*
X204670221Y-110018981D01*
X204421961Y-109969600D01*
X204168839Y-109969600D01*
X203920579Y-110018981D01*
X203686724Y-110115847D01*
X203476260Y-110256475D01*
X203297275Y-110435460D01*
X203156647Y-110645924D01*
X203059781Y-110879779D01*
X203025400Y-111052627D01*
X202991019Y-110879779D01*
X202894153Y-110645924D01*
X202753525Y-110435460D01*
X202574540Y-110256475D01*
X202364076Y-110115847D01*
X202130221Y-110018981D01*
X201881961Y-109969600D01*
X201628839Y-109969600D01*
X201380579Y-110018981D01*
X201146724Y-110115847D01*
X200936260Y-110256475D01*
X200757275Y-110435460D01*
X200616647Y-110645924D01*
X200519781Y-110879779D01*
X200470400Y-111128039D01*
X200470400Y-111381161D01*
X200502187Y-111540968D01*
X189961271Y-111540968D01*
X189995387Y-111506852D01*
X190174318Y-111239063D01*
X190297568Y-110941512D01*
X190360400Y-110625633D01*
X190360400Y-110303567D01*
X190297568Y-109987688D01*
X190174318Y-109690137D01*
X189995387Y-109422348D01*
X189767652Y-109194613D01*
X189499863Y-109015682D01*
X189202312Y-108892432D01*
X188886433Y-108829600D01*
X188602754Y-108829600D01*
X188610400Y-108791161D01*
X188610400Y-108538039D01*
X188561019Y-108289779D01*
X188464153Y-108055924D01*
X188323525Y-107845460D01*
X188144540Y-107666475D01*
X187934076Y-107525847D01*
X187700221Y-107428981D01*
X187451961Y-107379600D01*
X187198839Y-107379600D01*
X186950579Y-107428981D01*
X186716724Y-107525847D01*
X186506260Y-107666475D01*
X186327275Y-107845460D01*
X186186647Y-108055924D01*
X186089781Y-108289779D01*
X186055400Y-108462627D01*
X186021019Y-108289779D01*
X185924153Y-108055924D01*
X185783525Y-107845460D01*
X185604540Y-107666475D01*
X185394076Y-107525847D01*
X185160221Y-107428981D01*
X184911961Y-107379600D01*
X184658839Y-107379600D01*
X184410579Y-107428981D01*
X184176724Y-107525847D01*
X183966260Y-107666475D01*
X183787275Y-107845460D01*
X183646647Y-108055924D01*
X183549781Y-108289779D01*
X183515400Y-108462627D01*
X183481019Y-108289779D01*
X183384153Y-108055924D01*
X183243525Y-107845460D01*
X183064540Y-107666475D01*
X182854076Y-107525847D01*
X182620221Y-107428981D01*
X182371961Y-107379600D01*
X182118839Y-107379600D01*
X181870579Y-107428981D01*
X181636724Y-107525847D01*
X181426260Y-107666475D01*
X181247275Y-107845460D01*
X181106647Y-108055924D01*
X181009781Y-108289779D01*
X180975400Y-108462627D01*
X180941019Y-108289779D01*
X180844153Y-108055924D01*
X180703525Y-107845460D01*
X180524540Y-107666475D01*
X180314076Y-107525847D01*
X180080221Y-107428981D01*
X179831961Y-107379600D01*
X179578839Y-107379600D01*
X179330579Y-107428981D01*
X179096724Y-107525847D01*
X178886260Y-107666475D01*
X178707275Y-107845460D01*
X178566647Y-108055924D01*
X178469781Y-108289779D01*
X178435400Y-108462627D01*
X178401019Y-108289779D01*
X178304153Y-108055924D01*
X178163525Y-107845460D01*
X177984540Y-107666475D01*
X177774076Y-107525847D01*
X177540221Y-107428981D01*
X177291961Y-107379600D01*
X177038839Y-107379600D01*
X176790579Y-107428981D01*
X176556724Y-107525847D01*
X176346260Y-107666475D01*
X176167275Y-107845460D01*
X176026647Y-108055924D01*
X175929781Y-108289779D01*
X175880400Y-108538039D01*
X175880400Y-108791161D01*
X175929781Y-109039421D01*
X176026647Y-109273276D01*
X176155154Y-109465599D01*
X175463861Y-109465599D01*
X175426438Y-109461913D01*
X175389015Y-109465599D01*
X175389013Y-109465599D01*
X175277061Y-109476625D01*
X175133424Y-109520197D01*
X175001047Y-109590954D01*
X174885017Y-109686177D01*
X174861160Y-109715247D01*
X170530408Y-114046000D01*
X135200422Y-114046000D01*
X135162999Y-114042314D01*
X135125576Y-114046000D01*
X135125574Y-114046000D01*
X135013622Y-114057026D01*
X134869985Y-114100598D01*
X134737608Y-114171355D01*
X134621578Y-114266578D01*
X134597721Y-114295649D01*
X133850370Y-115043000D01*
X133791061Y-115043000D01*
X133591102Y-115082774D01*
X133402744Y-115160795D01*
X133233226Y-115274063D01*
X133089063Y-115418226D01*
X132975795Y-115587744D01*
X132897774Y-115776102D01*
X132858000Y-115976061D01*
X132858000Y-116179939D01*
X132897774Y-116379898D01*
X132975795Y-116568256D01*
X133089063Y-116737774D01*
X133233226Y-116881937D01*
X133402744Y-116995205D01*
X133591102Y-117073226D01*
X133791061Y-117113000D01*
X133994939Y-117113000D01*
X134194898Y-117073226D01*
X134383256Y-116995205D01*
X134552774Y-116881937D01*
X134696937Y-116737774D01*
X134810205Y-116568256D01*
X134888226Y-116379898D01*
X134928000Y-116179939D01*
X134928000Y-116120630D01*
X135478631Y-115570000D01*
X170808615Y-115570000D01*
X170846038Y-115573686D01*
X170883461Y-115570000D01*
X170883464Y-115570000D01*
X170995416Y-115558974D01*
X171139053Y-115515402D01*
X171271430Y-115444645D01*
X171387460Y-115349422D01*
X171411322Y-115320346D01*
X174821433Y-111910235D01*
X174897275Y-112023740D01*
X175076260Y-112202725D01*
X175286724Y-112343353D01*
X175520579Y-112440219D01*
X175768839Y-112489600D01*
X176021961Y-112489600D01*
X176089363Y-112476193D01*
X180095081Y-116481911D01*
X180095082Y-122663635D01*
X180066876Y-122705848D01*
X179988855Y-122894206D01*
X179949081Y-123094165D01*
X179949081Y-123298043D01*
X179988855Y-123498002D01*
X180066876Y-123686360D01*
X180180144Y-123855878D01*
X180251391Y-123927125D01*
X178955955Y-125222562D01*
X178926879Y-125246424D01*
X178881744Y-125301422D01*
X178831656Y-125362454D01*
X178810800Y-125401473D01*
X178760899Y-125494832D01*
X178717327Y-125638469D01*
X178706952Y-125743815D01*
X178702615Y-125787846D01*
X178706301Y-125825269D01*
X178706302Y-137093288D01*
X178664364Y-137135226D01*
X178551096Y-137304744D01*
X178473075Y-137493102D01*
X178433301Y-137693061D01*
X178433301Y-137896939D01*
X178473075Y-138096898D01*
X178551096Y-138285256D01*
X178664364Y-138454774D01*
X178808527Y-138598937D01*
X178978045Y-138712205D01*
X179166403Y-138790226D01*
X179366362Y-138830000D01*
X179570240Y-138830000D01*
X179770199Y-138790226D01*
X179958557Y-138712205D01*
X180128075Y-138598937D01*
X180272238Y-138454774D01*
X180385506Y-138285256D01*
X180463527Y-138096898D01*
X180503301Y-137896939D01*
X180503301Y-137693061D01*
X180463527Y-137493102D01*
X180385506Y-137304744D01*
X180272238Y-137135226D01*
X180230301Y-137093289D01*
X180230301Y-126103476D01*
X181102001Y-125231777D01*
X181102000Y-143194369D01*
X179516370Y-144780000D01*
X170627711Y-144780000D01*
X170585774Y-144738063D01*
X170416256Y-144624795D01*
X170227898Y-144546774D01*
X170027939Y-144507000D01*
X169824061Y-144507000D01*
X169624102Y-144546774D01*
X169435744Y-144624795D01*
X169266226Y-144738063D01*
X169122063Y-144882226D01*
X169008795Y-145051744D01*
X168930774Y-145240102D01*
X168891000Y-145440061D01*
X168891000Y-145643939D01*
X168930774Y-145843898D01*
X169008795Y-146032256D01*
X169122063Y-146201774D01*
X169266226Y-146345937D01*
X169435744Y-146459205D01*
X169624102Y-146537226D01*
X169824061Y-146577000D01*
X170027939Y-146577000D01*
X170227898Y-146537226D01*
X170416256Y-146459205D01*
X170585774Y-146345937D01*
X170627711Y-146304000D01*
X179794577Y-146304000D01*
X179832000Y-146307686D01*
X179869423Y-146304000D01*
X179869426Y-146304000D01*
X179981378Y-146292974D01*
X180125015Y-146249402D01*
X180257392Y-146178645D01*
X180373422Y-146083422D01*
X180397284Y-146054346D01*
X182376353Y-144075278D01*
X182405422Y-144051422D01*
X182455998Y-143989795D01*
X182500645Y-143935393D01*
X182553557Y-143836401D01*
X182571402Y-143803015D01*
X182614974Y-143659378D01*
X182626000Y-143547426D01*
X182626000Y-143547423D01*
X182629686Y-143510000D01*
X182626000Y-143472577D01*
X182626000Y-124349845D01*
X182677445Y-124298400D01*
X182706515Y-124274543D01*
X182759196Y-124210351D01*
X182801738Y-124158514D01*
X182872494Y-124026138D01*
X182873020Y-124024405D01*
X182916067Y-123882499D01*
X182927093Y-123770547D01*
X182927093Y-123770545D01*
X182930779Y-123733122D01*
X182927093Y-123695697D01*
X182927091Y-122696517D01*
X182930778Y-122659085D01*
X182916065Y-122509706D01*
X182872493Y-122366069D01*
X182801737Y-122233693D01*
X182730371Y-122146734D01*
X182730370Y-122146733D01*
X182706513Y-122117663D01*
X182677443Y-122093806D01*
X182626001Y-122042364D01*
X182626001Y-116647624D01*
X182668625Y-116605000D01*
X182727935Y-116605000D01*
X182927894Y-116565226D01*
X183116252Y-116487205D01*
X183285770Y-116373937D01*
X183429933Y-116229774D01*
X183543201Y-116060256D01*
X183621222Y-115871898D01*
X183660996Y-115671939D01*
X183660996Y-115468061D01*
X183621222Y-115268102D01*
X183543201Y-115079744D01*
X183429933Y-114910226D01*
X183400718Y-114881011D01*
X199550341Y-114881011D01*
X200700703Y-116031373D01*
X200724560Y-116060443D01*
X200753630Y-116084300D01*
X200753631Y-116084301D01*
X200840589Y-116155667D01*
X200972966Y-116226423D01*
X201116603Y-116269995D01*
X201265982Y-116284708D01*
X201303415Y-116281021D01*
X210371922Y-116281023D01*
X210409345Y-116284709D01*
X210446768Y-116281023D01*
X210446770Y-116281023D01*
X210558722Y-116269997D01*
X210702359Y-116226425D01*
X210784318Y-116182617D01*
X210834737Y-116155668D01*
X210921696Y-116084302D01*
X210921697Y-116084301D01*
X210950766Y-116060445D01*
X210974623Y-116031375D01*
X211459706Y-115546292D01*
X211753500Y-115546292D01*
X211753500Y-115613241D01*
X211793274Y-115813200D01*
X211871295Y-116001558D01*
X211984563Y-116171076D01*
X212026501Y-116213014D01*
X212026500Y-120605361D01*
X211984563Y-120647298D01*
X211871295Y-120816816D01*
X211793274Y-121005174D01*
X211753500Y-121205133D01*
X211753500Y-121409011D01*
X211793274Y-121608970D01*
X211871295Y-121797328D01*
X211984563Y-121966846D01*
X212128726Y-122111009D01*
X212298244Y-122224277D01*
X212486602Y-122302298D01*
X212686561Y-122342072D01*
X212890439Y-122342072D01*
X213090398Y-122302298D01*
X213278756Y-122224277D01*
X213448274Y-122111009D01*
X213589708Y-121969575D01*
X213589708Y-122663419D01*
X213586021Y-122700852D01*
X213600734Y-122850230D01*
X213644306Y-122993867D01*
X213715062Y-123126244D01*
X213781948Y-123207744D01*
X213810286Y-123242274D01*
X213839356Y-123266131D01*
X214801552Y-124228327D01*
X214825409Y-124257398D01*
X214941439Y-124352621D01*
X215073816Y-124423378D01*
X215217453Y-124466950D01*
X215329405Y-124477976D01*
X215329407Y-124477976D01*
X215366830Y-124481662D01*
X215404253Y-124477976D01*
X220915288Y-124477976D01*
X220939249Y-124501937D01*
X221108767Y-124615205D01*
X221297125Y-124693226D01*
X221497084Y-124733000D01*
X221615001Y-124733000D01*
X221615000Y-145400985D01*
X221440102Y-145435774D01*
X221251744Y-145513795D01*
X221082226Y-145627063D01*
X220938063Y-145771226D01*
X220824795Y-145940744D01*
X220746774Y-146129102D01*
X220707000Y-146329061D01*
X220707000Y-146532939D01*
X220746774Y-146732898D01*
X220824795Y-146921256D01*
X220938063Y-147090774D01*
X221082226Y-147234937D01*
X221251744Y-147348205D01*
X221440102Y-147426226D01*
X221451596Y-147428512D01*
X221453882Y-147440006D01*
X221531903Y-147628364D01*
X221645171Y-147797882D01*
X221789334Y-147942045D01*
X221958852Y-148055313D01*
X222147210Y-148133334D01*
X222347169Y-148173108D01*
X222551047Y-148173108D01*
X222751006Y-148133334D01*
X222939364Y-148055313D01*
X223108882Y-147942045D01*
X223253045Y-147797882D01*
X223366313Y-147628364D01*
X223444334Y-147440006D01*
X223484108Y-147240047D01*
X223484108Y-147165504D01*
X223485752Y-147163501D01*
X223556509Y-147031124D01*
X223600081Y-146887487D01*
X223611107Y-146775535D01*
X223611107Y-146775533D01*
X223614793Y-146738110D01*
X223611107Y-146700687D01*
X223611107Y-122560863D01*
X226202130Y-119969841D01*
X226249463Y-120017174D01*
X226418981Y-120130442D01*
X226607339Y-120208463D01*
X226807298Y-120248237D01*
X227011176Y-120248237D01*
X227211135Y-120208463D01*
X227399493Y-120130442D01*
X227569011Y-120017174D01*
X227713174Y-119873011D01*
X227826442Y-119703493D01*
X227884209Y-119564033D01*
X240152403Y-119564033D01*
X240734720Y-120146351D01*
X240758578Y-120175422D01*
X240874608Y-120270645D01*
X241006985Y-120341402D01*
X241150622Y-120384974D01*
X241262574Y-120396000D01*
X241262576Y-120396000D01*
X241299999Y-120399686D01*
X241337422Y-120396000D01*
X263395860Y-120396000D01*
X263433283Y-120399686D01*
X263470706Y-120396000D01*
X263470709Y-120396000D01*
X263582661Y-120384974D01*
X263726298Y-120341402D01*
X263858675Y-120270645D01*
X263974705Y-120175422D01*
X263998567Y-120146346D01*
X265072903Y-119072010D01*
X337125814Y-119072010D01*
X337429491Y-119375688D01*
X337429490Y-125182134D01*
X337425804Y-125219557D01*
X337429490Y-125256980D01*
X337429490Y-125256982D01*
X337440516Y-125368934D01*
X337484088Y-125512571D01*
X337484089Y-125512572D01*
X337554845Y-125644949D01*
X337573882Y-125668145D01*
X337650068Y-125760979D01*
X337679144Y-125784841D01*
X346777354Y-134883051D01*
X346801216Y-134912127D01*
X346873383Y-134971353D01*
X346917245Y-135007350D01*
X346960517Y-135030479D01*
X347049623Y-135078107D01*
X347193260Y-135121679D01*
X347305212Y-135132705D01*
X347305215Y-135132705D01*
X347342638Y-135136391D01*
X347380061Y-135132705D01*
X349377710Y-135132705D01*
X349419647Y-135174642D01*
X349445495Y-135191913D01*
X348376383Y-136261025D01*
X348327578Y-136301078D01*
X348303721Y-136330148D01*
X347267391Y-137366479D01*
X266530943Y-137366479D01*
X266493520Y-137362793D01*
X266456097Y-137366479D01*
X266456095Y-137366479D01*
X266344143Y-137377505D01*
X266200506Y-137421077D01*
X266068129Y-137491834D01*
X265952099Y-137587057D01*
X265928242Y-137616127D01*
X265247234Y-138297136D01*
X265187925Y-138297136D01*
X264987966Y-138336910D01*
X264799608Y-138414931D01*
X264630090Y-138528199D01*
X264485927Y-138672362D01*
X264372659Y-138841880D01*
X264294638Y-139030238D01*
X264254864Y-139230197D01*
X264254864Y-139434075D01*
X264294638Y-139634034D01*
X264372659Y-139822392D01*
X264485927Y-139991910D01*
X264630090Y-140136073D01*
X264799608Y-140249341D01*
X264987966Y-140327362D01*
X265187925Y-140367136D01*
X265391803Y-140367136D01*
X265591762Y-140327362D01*
X265780120Y-140249341D01*
X265949638Y-140136073D01*
X266093801Y-139991910D01*
X266207069Y-139822392D01*
X266285090Y-139634034D01*
X266324864Y-139434075D01*
X266324864Y-139374766D01*
X266809152Y-138890479D01*
X267803093Y-138890479D01*
X267726946Y-139074313D01*
X267687172Y-139274272D01*
X267687172Y-139349697D01*
X266899996Y-140136874D01*
X266840687Y-140136874D01*
X266640728Y-140176648D01*
X266452370Y-140254669D01*
X266282852Y-140367937D01*
X266138689Y-140512100D01*
X266025421Y-140681618D01*
X265947400Y-140869976D01*
X265907626Y-141069935D01*
X265907626Y-141273813D01*
X265947400Y-141473772D01*
X266025421Y-141662130D01*
X266138689Y-141831648D01*
X266282852Y-141975811D01*
X266452370Y-142089079D01*
X266640728Y-142167100D01*
X266840687Y-142206874D01*
X266935000Y-142206874D01*
X266935000Y-142405439D01*
X266974774Y-142605398D01*
X267052795Y-142793756D01*
X267166063Y-142963274D01*
X267310226Y-143107437D01*
X267479744Y-143220705D01*
X267668102Y-143298726D01*
X267868061Y-143338500D01*
X268035897Y-143338500D01*
X268040560Y-143361942D01*
X252944769Y-143361942D01*
X252902832Y-143320005D01*
X252733314Y-143206737D01*
X252544956Y-143128716D01*
X252344997Y-143088942D01*
X252141119Y-143088942D01*
X251941160Y-143128716D01*
X251752802Y-143206737D01*
X251583284Y-143320005D01*
X251439121Y-143464168D01*
X251325853Y-143633686D01*
X251247832Y-143822044D01*
X251208058Y-144022003D01*
X251208058Y-144225881D01*
X251247832Y-144425840D01*
X251325853Y-144614198D01*
X251439121Y-144783716D01*
X251583284Y-144927879D01*
X251752802Y-145041147D01*
X251941160Y-145119168D01*
X252141119Y-145158942D01*
X252344997Y-145158942D01*
X252544956Y-145119168D01*
X252733314Y-145041147D01*
X252902832Y-144927879D01*
X252944769Y-144885942D01*
X272586312Y-144885942D01*
X272904000Y-145203631D01*
X272904000Y-145262939D01*
X272943774Y-145462898D01*
X273021795Y-145651256D01*
X273135063Y-145820774D01*
X273279226Y-145964937D01*
X273448744Y-146078205D01*
X273637102Y-146156226D01*
X273837061Y-146196000D01*
X274040939Y-146196000D01*
X274240898Y-146156226D01*
X274429256Y-146078205D01*
X274598774Y-145964937D01*
X274742937Y-145820774D01*
X274856205Y-145651256D01*
X274934226Y-145462898D01*
X274974000Y-145262939D01*
X274974000Y-145059061D01*
X274934226Y-144859102D01*
X274856205Y-144670744D01*
X274742937Y-144501226D01*
X274598774Y-144357063D01*
X274429256Y-144243795D01*
X274240898Y-144165774D01*
X274040939Y-144126000D01*
X273981631Y-144126000D01*
X273467226Y-143611596D01*
X273443364Y-143582520D01*
X273327334Y-143487297D01*
X273194957Y-143416540D01*
X273051320Y-143372968D01*
X272939368Y-143361942D01*
X272939365Y-143361942D01*
X272901942Y-143358256D01*
X272864519Y-143361942D01*
X270058444Y-143361942D01*
X270084502Y-143230939D01*
X270084502Y-143171630D01*
X273457634Y-139798499D01*
X303701500Y-139798499D01*
X303701500Y-139865439D01*
X303741274Y-140065398D01*
X303819295Y-140253756D01*
X303932563Y-140423274D01*
X304076726Y-140567437D01*
X304246244Y-140680705D01*
X304434602Y-140758726D01*
X304634561Y-140798500D01*
X304838439Y-140798500D01*
X305038398Y-140758726D01*
X305226756Y-140680705D01*
X305396274Y-140567437D01*
X305438211Y-140525500D01*
X347697770Y-140525500D01*
X346202271Y-142020999D01*
X342463739Y-142020999D01*
X342426316Y-142017313D01*
X342388893Y-142020999D01*
X342388890Y-142020999D01*
X342276938Y-142032025D01*
X342133301Y-142075597D01*
X342071680Y-142108534D01*
X342000923Y-142146354D01*
X341933654Y-142201561D01*
X341884894Y-142241577D01*
X341861037Y-142270647D01*
X340163378Y-143968306D01*
X340026898Y-143911774D01*
X339826939Y-143872000D01*
X339767630Y-143872000D01*
X339598000Y-143702370D01*
X339598000Y-143154286D01*
X339639937Y-143112349D01*
X339753205Y-142942831D01*
X339831226Y-142754473D01*
X339871000Y-142554514D01*
X339871000Y-142350636D01*
X339831226Y-142150677D01*
X339753205Y-141962319D01*
X339639937Y-141792801D01*
X339495774Y-141648638D01*
X339326256Y-141535370D01*
X339137898Y-141457349D01*
X338937939Y-141417575D01*
X338734061Y-141417575D01*
X338534102Y-141457349D01*
X338345744Y-141535370D01*
X338176226Y-141648638D01*
X338032063Y-141792801D01*
X337918795Y-141962319D01*
X337840774Y-142150677D01*
X337801000Y-142350636D01*
X337801000Y-142554514D01*
X337840774Y-142754473D01*
X337918795Y-142942831D01*
X338032063Y-143112349D01*
X338074001Y-143154287D01*
X338074000Y-143980576D01*
X338070314Y-144018000D01*
X338074000Y-144055423D01*
X338074000Y-144055425D01*
X338085026Y-144167377D01*
X338128598Y-144311014D01*
X338150827Y-144352601D01*
X338199355Y-144443392D01*
X338230718Y-144481607D01*
X338294578Y-144559422D01*
X338323653Y-144583284D01*
X338690000Y-144949630D01*
X338690000Y-145008939D01*
X338729774Y-145208898D01*
X338807795Y-145397256D01*
X338921063Y-145566774D01*
X339065226Y-145710937D01*
X339234744Y-145824205D01*
X339297489Y-145850195D01*
X338958654Y-146189031D01*
X338929578Y-146212893D01*
X338875376Y-146278939D01*
X338834355Y-146328923D01*
X338825261Y-146345937D01*
X338763598Y-146461301D01*
X338720026Y-146604938D01*
X338719772Y-146607517D01*
X338667063Y-146660226D01*
X338553795Y-146829744D01*
X338475774Y-147018102D01*
X338436000Y-147218061D01*
X338436000Y-147421939D01*
X338475774Y-147621898D01*
X338553795Y-147810256D01*
X338667063Y-147979774D01*
X338811226Y-148123937D01*
X338980744Y-148237205D01*
X339169102Y-148315226D01*
X339369061Y-148355000D01*
X339572939Y-148355000D01*
X339772898Y-148315226D01*
X339961256Y-148237205D01*
X340130774Y-148123937D01*
X340274937Y-147979774D01*
X340388205Y-147810256D01*
X340466226Y-147621898D01*
X340506000Y-147421939D01*
X340506000Y-147218061D01*
X340466226Y-147018102D01*
X340413100Y-146889845D01*
X341126352Y-146176594D01*
X341155422Y-146152737D01*
X341250645Y-146036707D01*
X341321402Y-145904330D01*
X341364974Y-145760693D01*
X341376000Y-145648741D01*
X341376000Y-145648739D01*
X341379686Y-145611316D01*
X341376000Y-145573893D01*
X341376000Y-144910945D01*
X341953575Y-144333371D01*
X341953574Y-145066150D01*
X341949888Y-145103574D01*
X341953574Y-145140997D01*
X341953574Y-145140999D01*
X341964600Y-145252951D01*
X342008172Y-145396588D01*
X342031409Y-145440061D01*
X342078929Y-145528966D01*
X342118389Y-145577048D01*
X342174152Y-145644996D01*
X342203228Y-145668858D01*
X344532000Y-147997631D01*
X344532000Y-148056939D01*
X344571774Y-148256898D01*
X344649795Y-148445256D01*
X344763063Y-148614774D01*
X344907226Y-148758937D01*
X345076744Y-148872205D01*
X345265102Y-148950226D01*
X345465061Y-148990000D01*
X345668939Y-148990000D01*
X345868898Y-148950226D01*
X346057256Y-148872205D01*
X346226774Y-148758937D01*
X346370937Y-148614774D01*
X346484205Y-148445256D01*
X346562226Y-148256898D01*
X346602000Y-148056939D01*
X346602000Y-147853061D01*
X346562226Y-147653102D01*
X346484205Y-147464744D01*
X346370937Y-147295226D01*
X346226774Y-147151063D01*
X346057256Y-147037795D01*
X345868898Y-146959774D01*
X345668939Y-146920000D01*
X345609631Y-146920000D01*
X343477574Y-144787944D01*
X343477574Y-144281285D01*
X343519511Y-144239348D01*
X343632779Y-144069830D01*
X343710800Y-143881472D01*
X343750574Y-143681513D01*
X343750574Y-143544999D01*
X346480478Y-143544999D01*
X346517901Y-143548685D01*
X346555324Y-143544999D01*
X346555327Y-143544999D01*
X346667279Y-143533973D01*
X346810916Y-143490401D01*
X346943293Y-143419644D01*
X347059323Y-143324421D01*
X347083185Y-143295345D01*
X352396469Y-137982061D01*
X361804000Y-137982061D01*
X361804000Y-138185939D01*
X361843774Y-138385898D01*
X361921795Y-138574256D01*
X362035063Y-138743774D01*
X362179226Y-138887937D01*
X362348744Y-139001205D01*
X362537102Y-139079226D01*
X362737061Y-139119000D01*
X362940939Y-139119000D01*
X363140898Y-139079226D01*
X363329256Y-139001205D01*
X363498774Y-138887937D01*
X363540711Y-138846000D01*
X364844370Y-138846000D01*
X365868000Y-139869631D01*
X365868000Y-139928939D01*
X365907774Y-140128898D01*
X365985795Y-140317256D01*
X366099063Y-140486774D01*
X366243226Y-140630937D01*
X366412744Y-140744205D01*
X366601102Y-140822226D01*
X366801061Y-140862000D01*
X367004939Y-140862000D01*
X367204898Y-140822226D01*
X367393256Y-140744205D01*
X367562774Y-140630937D01*
X367706937Y-140486774D01*
X367820205Y-140317256D01*
X367898226Y-140128898D01*
X367938000Y-139928939D01*
X367938000Y-139725061D01*
X367898226Y-139525102D01*
X367820205Y-139336744D01*
X367706937Y-139167226D01*
X367562774Y-139023063D01*
X367393256Y-138909795D01*
X367204898Y-138831774D01*
X367004939Y-138792000D01*
X366945631Y-138792000D01*
X365725284Y-137571654D01*
X365701422Y-137542578D01*
X365585392Y-137447355D01*
X365453015Y-137376598D01*
X365309378Y-137333026D01*
X365197426Y-137322000D01*
X365197423Y-137322000D01*
X365160000Y-137318314D01*
X365122577Y-137322000D01*
X363540711Y-137322000D01*
X363498774Y-137280063D01*
X363329256Y-137166795D01*
X363140898Y-137088774D01*
X362940939Y-137049000D01*
X362737061Y-137049000D01*
X362537102Y-137088774D01*
X362348744Y-137166795D01*
X362179226Y-137280063D01*
X362035063Y-137424226D01*
X361921795Y-137593744D01*
X361843774Y-137782102D01*
X361804000Y-137982061D01*
X352396469Y-137982061D01*
X365942138Y-124436393D01*
X366009539Y-124449800D01*
X366262661Y-124449800D01*
X366510921Y-124400419D01*
X366744776Y-124303553D01*
X366955240Y-124162925D01*
X367134225Y-123983940D01*
X367274853Y-123773476D01*
X367371719Y-123539621D01*
X367421100Y-123291361D01*
X367421100Y-123038239D01*
X367371719Y-122789979D01*
X367274853Y-122556124D01*
X367134225Y-122345660D01*
X366955240Y-122166675D01*
X366744776Y-122026047D01*
X366510921Y-121929181D01*
X366338073Y-121894800D01*
X366510921Y-121860419D01*
X366744776Y-121763553D01*
X366955240Y-121622925D01*
X367134225Y-121443940D01*
X367274853Y-121233476D01*
X367371719Y-120999621D01*
X367421100Y-120751361D01*
X367421100Y-120498239D01*
X367371719Y-120249979D01*
X367274853Y-120016124D01*
X367134225Y-119805660D01*
X366955240Y-119626675D01*
X366744776Y-119486047D01*
X366510921Y-119389181D01*
X366338073Y-119354800D01*
X366510921Y-119320419D01*
X366744776Y-119223553D01*
X366955240Y-119082925D01*
X367134225Y-118903940D01*
X367274853Y-118693476D01*
X367371719Y-118459621D01*
X367421100Y-118211361D01*
X367421100Y-117958239D01*
X367371719Y-117709979D01*
X367274853Y-117476124D01*
X367134225Y-117265660D01*
X366955240Y-117086675D01*
X366744776Y-116946047D01*
X366510921Y-116849181D01*
X366338073Y-116814800D01*
X366510921Y-116780419D01*
X366744776Y-116683553D01*
X366955240Y-116542925D01*
X367134225Y-116363940D01*
X367274853Y-116153476D01*
X367371719Y-115919621D01*
X367421100Y-115671361D01*
X367421100Y-115418239D01*
X367371719Y-115169979D01*
X367274853Y-114936124D01*
X367134225Y-114725660D01*
X366955240Y-114546675D01*
X366744776Y-114406047D01*
X366510921Y-114309181D01*
X366338073Y-114274800D01*
X366510921Y-114240419D01*
X366744776Y-114143553D01*
X366955240Y-114002925D01*
X367134225Y-113823940D01*
X367274853Y-113613476D01*
X367371719Y-113379621D01*
X367421100Y-113131361D01*
X367421100Y-112878239D01*
X367371719Y-112629979D01*
X367274853Y-112396124D01*
X367134225Y-112185660D01*
X366955240Y-112006675D01*
X366744776Y-111866047D01*
X366510921Y-111769181D01*
X366338073Y-111734800D01*
X366510921Y-111700419D01*
X366744776Y-111603553D01*
X366955240Y-111462925D01*
X367134225Y-111283940D01*
X367274853Y-111073476D01*
X367371719Y-110839621D01*
X367421100Y-110591361D01*
X367421100Y-110338239D01*
X367371719Y-110089979D01*
X367274853Y-109856124D01*
X367134225Y-109645660D01*
X366955240Y-109466675D01*
X366744776Y-109326047D01*
X366510921Y-109229181D01*
X366265406Y-109180346D01*
X366438352Y-109064787D01*
X366666087Y-108837052D01*
X366845018Y-108569263D01*
X366907075Y-108419444D01*
X371221001Y-112733370D01*
X371221000Y-119360377D01*
X371217314Y-119397800D01*
X371221000Y-119435223D01*
X371221000Y-119435225D01*
X371232026Y-119547177D01*
X371275598Y-119690814D01*
X371296341Y-119729621D01*
X371346355Y-119823192D01*
X371368259Y-119849882D01*
X371441578Y-119939222D01*
X371470654Y-119963084D01*
X372395607Y-120888037D01*
X372382200Y-120955439D01*
X372382200Y-121208561D01*
X372431581Y-121456821D01*
X372528447Y-121690676D01*
X372669075Y-121901140D01*
X372848060Y-122080125D01*
X373058524Y-122220753D01*
X373292379Y-122317619D01*
X373540639Y-122367000D01*
X373793761Y-122367000D01*
X374042021Y-122317619D01*
X374275876Y-122220753D01*
X374486340Y-122080125D01*
X374665325Y-121901140D01*
X374805953Y-121690676D01*
X374902819Y-121456821D01*
X374952200Y-121208561D01*
X374952200Y-120955439D01*
X374902819Y-120707179D01*
X374805953Y-120473324D01*
X374665325Y-120262860D01*
X374486340Y-120083875D01*
X374275876Y-119943247D01*
X374042021Y-119846381D01*
X373869173Y-119812000D01*
X374042021Y-119777619D01*
X374275876Y-119680753D01*
X374486340Y-119540125D01*
X374665325Y-119361140D01*
X374805953Y-119150676D01*
X374902819Y-118916821D01*
X374952200Y-118668561D01*
X374952200Y-118415439D01*
X374902819Y-118167179D01*
X374805953Y-117933324D01*
X374665325Y-117722860D01*
X374486340Y-117543875D01*
X374275876Y-117403247D01*
X374143597Y-117348455D01*
X374918248Y-117348455D01*
X374957930Y-117598449D01*
X375045622Y-117835896D01*
X375092999Y-117924534D01*
X375321673Y-117977922D01*
X376027595Y-117272000D01*
X375321673Y-116566078D01*
X375092999Y-116619466D01*
X374987105Y-116849374D01*
X374928098Y-117095524D01*
X374918248Y-117348455D01*
X374143597Y-117348455D01*
X374042021Y-117306381D01*
X373869173Y-117272000D01*
X374042021Y-117237619D01*
X374275876Y-117140753D01*
X374486340Y-117000125D01*
X374665325Y-116821140D01*
X374805953Y-116610676D01*
X374902819Y-116376821D01*
X374952200Y-116128561D01*
X374952200Y-115875439D01*
X374902819Y-115627179D01*
X374805953Y-115393324D01*
X374665325Y-115182860D01*
X374486340Y-115003875D01*
X374275876Y-114863247D01*
X374042021Y-114766381D01*
X373869173Y-114732000D01*
X374042021Y-114697619D01*
X374275876Y-114600753D01*
X374486340Y-114460125D01*
X374665325Y-114281140D01*
X374805953Y-114070676D01*
X374902819Y-113836821D01*
X374952200Y-113588561D01*
X374952200Y-113335439D01*
X374902819Y-113087179D01*
X374805953Y-112853324D01*
X374665325Y-112642860D01*
X374486340Y-112463875D01*
X374275876Y-112323247D01*
X374042021Y-112226381D01*
X373869173Y-112192000D01*
X374042021Y-112157619D01*
X374275876Y-112060753D01*
X374486340Y-111920125D01*
X374665325Y-111741140D01*
X374805953Y-111530676D01*
X374902819Y-111296821D01*
X374946718Y-111076121D01*
X374990288Y-111094168D01*
X375306167Y-111157000D01*
X375443247Y-111157000D01*
X375388060Y-111193875D01*
X375209075Y-111372860D01*
X375068447Y-111583324D01*
X374971581Y-111817179D01*
X374922200Y-112065439D01*
X374922200Y-112318561D01*
X374971581Y-112566821D01*
X375068447Y-112800676D01*
X375209075Y-113011140D01*
X375388060Y-113190125D01*
X375598524Y-113330753D01*
X375832379Y-113427619D01*
X376005227Y-113462000D01*
X375832379Y-113496381D01*
X375598524Y-113593247D01*
X375388060Y-113733875D01*
X375209075Y-113912860D01*
X375068447Y-114123324D01*
X374971581Y-114357179D01*
X374922200Y-114605439D01*
X374922200Y-114858561D01*
X374971581Y-115106821D01*
X375068447Y-115340676D01*
X375209075Y-115551140D01*
X375388060Y-115730125D01*
X375598524Y-115870753D01*
X375832379Y-115967619D01*
X376007944Y-116002540D01*
X375880751Y-116022730D01*
X375643304Y-116110422D01*
X375554666Y-116157799D01*
X375501278Y-116386473D01*
X376207200Y-117092395D01*
X376221343Y-117078253D01*
X376400948Y-117257858D01*
X376386805Y-117272000D01*
X376400948Y-117286143D01*
X376221343Y-117465748D01*
X376207200Y-117451605D01*
X375501278Y-118157527D01*
X375554666Y-118386201D01*
X375784574Y-118492095D01*
X375998411Y-118543356D01*
X375832379Y-118576381D01*
X375598524Y-118673247D01*
X375388060Y-118813875D01*
X375209075Y-118992860D01*
X375068447Y-119203324D01*
X374971581Y-119437179D01*
X374922200Y-119685439D01*
X374922200Y-119938561D01*
X374971581Y-120186821D01*
X375068447Y-120420676D01*
X375209075Y-120631140D01*
X375388060Y-120810125D01*
X375598524Y-120950753D01*
X375832379Y-121047619D01*
X376005227Y-121082000D01*
X375832379Y-121116381D01*
X375598524Y-121213247D01*
X375388060Y-121353875D01*
X375209075Y-121532860D01*
X375068447Y-121743324D01*
X374971581Y-121977179D01*
X374922200Y-122225439D01*
X374922200Y-122478561D01*
X374971581Y-122726821D01*
X375068447Y-122960676D01*
X375209075Y-123171140D01*
X375388060Y-123350125D01*
X375598524Y-123490753D01*
X375832379Y-123587619D01*
X376080639Y-123637000D01*
X376333761Y-123637000D01*
X376582021Y-123587619D01*
X376815876Y-123490753D01*
X377026340Y-123350125D01*
X377205325Y-123171140D01*
X377345953Y-122960676D01*
X377442819Y-122726821D01*
X377492200Y-122478561D01*
X377492200Y-122225439D01*
X377442819Y-121977179D01*
X377345953Y-121743324D01*
X377205325Y-121532860D01*
X377026340Y-121353875D01*
X376815876Y-121213247D01*
X376582021Y-121116381D01*
X376409173Y-121082000D01*
X376582021Y-121047619D01*
X376815876Y-120950753D01*
X377026340Y-120810125D01*
X377205325Y-120631140D01*
X377345953Y-120420676D01*
X377442819Y-120186821D01*
X377492200Y-119938561D01*
X377492200Y-119685439D01*
X377478793Y-119618037D01*
X377696542Y-119400287D01*
X377725623Y-119376421D01*
X377820846Y-119260391D01*
X377891603Y-119128014D01*
X377935175Y-118984377D01*
X377946201Y-118872425D01*
X377946201Y-118872422D01*
X377949887Y-118834999D01*
X377946201Y-118797576D01*
X377946201Y-109312454D01*
X377949886Y-109275038D01*
X377946201Y-109237622D01*
X377946201Y-109237613D01*
X377935175Y-109125661D01*
X377891603Y-108982024D01*
X377820846Y-108849647D01*
X377725623Y-108733617D01*
X377696554Y-108709761D01*
X369820446Y-100833654D01*
X369796584Y-100804578D01*
X369680554Y-100709355D01*
X369548177Y-100638598D01*
X369404540Y-100595026D01*
X369292588Y-100584000D01*
X369292585Y-100584000D01*
X369255162Y-100580314D01*
X369217739Y-100584000D01*
X347904135Y-100584000D01*
X347891570Y-100571435D01*
X375075083Y-100571435D01*
X374820890Y-100676725D01*
X374389390Y-100965044D01*
X374022428Y-101332006D01*
X373734109Y-101763506D01*
X373535511Y-102242964D01*
X373434266Y-102751954D01*
X373434266Y-103270916D01*
X373535511Y-103779906D01*
X373734109Y-104259364D01*
X374022428Y-104690864D01*
X374389390Y-105057826D01*
X374820890Y-105346145D01*
X375300348Y-105544743D01*
X375809338Y-105645988D01*
X376328300Y-105645988D01*
X376837290Y-105544743D01*
X377316748Y-105346145D01*
X377748248Y-105057826D01*
X378115210Y-104690864D01*
X378403529Y-104259364D01*
X378508819Y-104005171D01*
X378508820Y-149125522D01*
X378458893Y-149634724D01*
X378321452Y-150089949D01*
X378098211Y-150509804D01*
X377797673Y-150878300D01*
X377431277Y-151181408D01*
X377012991Y-151407575D01*
X376558742Y-151548188D01*
X376051737Y-151601478D01*
X355278282Y-151601478D01*
X355244657Y-151604790D01*
X355218210Y-151604605D01*
X355207996Y-151605606D01*
X354386089Y-151691992D01*
X354320743Y-151705406D01*
X354255397Y-151717871D01*
X354245572Y-151720836D01*
X353456098Y-151965219D01*
X353394630Y-151991058D01*
X353332921Y-152015990D01*
X353323859Y-152020807D01*
X352596888Y-152413879D01*
X352541624Y-152451156D01*
X352485919Y-152487608D01*
X352477966Y-152494093D01*
X351841187Y-153020883D01*
X351794244Y-153068154D01*
X351746650Y-153114762D01*
X351740108Y-153122669D01*
X351217778Y-153763110D01*
X351180866Y-153818667D01*
X351143278Y-153873563D01*
X351138396Y-153882590D01*
X350750409Y-154612288D01*
X350725014Y-154673901D01*
X350698781Y-154735107D01*
X350695746Y-154744910D01*
X350456880Y-155536071D01*
X350443934Y-155601454D01*
X350430091Y-155666581D01*
X350429018Y-155676787D01*
X350348372Y-156499276D01*
X350344864Y-156534896D01*
X350344864Y-157424055D01*
X350294938Y-157933246D01*
X350157497Y-158388471D01*
X349934256Y-158808326D01*
X349633718Y-159176822D01*
X349267322Y-159479930D01*
X348849036Y-159706097D01*
X348394787Y-159846710D01*
X347887782Y-159900000D01*
X340723945Y-159900000D01*
X340214754Y-159850074D01*
X339759529Y-159712633D01*
X339339674Y-159489392D01*
X338971178Y-159188854D01*
X338662658Y-158815916D01*
X338465690Y-158470765D01*
X338079703Y-157731254D01*
X338072296Y-157718884D01*
X338044192Y-157670499D01*
X337319717Y-156557034D01*
X337316283Y-156552376D01*
X337313344Y-156547407D01*
X337268743Y-156487894D01*
X336419307Y-155466558D01*
X336415352Y-155462332D01*
X336411854Y-155457740D01*
X336360614Y-155403838D01*
X335397820Y-154488582D01*
X335393402Y-154484848D01*
X335389389Y-154480693D01*
X335332210Y-154433137D01*
X334269207Y-153636461D01*
X334264386Y-153633270D01*
X334259913Y-153629609D01*
X334197575Y-153589049D01*
X333048883Y-152921836D01*
X333043714Y-152919225D01*
X333038854Y-152916117D01*
X332972210Y-152883106D01*
X331753519Y-152354468D01*
X331748085Y-152352479D01*
X331742892Y-152349958D01*
X331672852Y-152324948D01*
X330400807Y-151942105D01*
X330395176Y-151940763D01*
X330389724Y-151938865D01*
X330317245Y-151922198D01*
X329009220Y-151690381D01*
X329003476Y-151689706D01*
X328997836Y-151688456D01*
X328923907Y-151680359D01*
X327612304Y-151603584D01*
X327590923Y-151601478D01*
X317559282Y-151601478D01*
X317527274Y-151604630D01*
X317515473Y-151604548D01*
X317505259Y-151605549D01*
X317135505Y-151644412D01*
X317070198Y-151657818D01*
X317004812Y-151670291D01*
X316994988Y-151673257D01*
X316639824Y-151783199D01*
X316578413Y-151809014D01*
X316516648Y-151833968D01*
X316507587Y-151838786D01*
X316180542Y-152015618D01*
X316125287Y-152052888D01*
X316069570Y-152089348D01*
X316061618Y-152095833D01*
X315775148Y-152332822D01*
X315728204Y-152380095D01*
X315680613Y-152426700D01*
X315674071Y-152434607D01*
X315439088Y-152722724D01*
X315402201Y-152778243D01*
X315364587Y-152833178D01*
X315359705Y-152842205D01*
X315185160Y-153170477D01*
X315159765Y-153232090D01*
X315133532Y-153293296D01*
X315130497Y-153303099D01*
X315023037Y-153659022D01*
X315010087Y-153724426D01*
X314996248Y-153789533D01*
X314995175Y-153799739D01*
X314958895Y-154169754D01*
X314958895Y-154169764D01*
X314955388Y-154205372D01*
X314955387Y-156535054D01*
X314888530Y-157216920D01*
X314700941Y-157838243D01*
X314396247Y-158411288D01*
X313986046Y-158914244D01*
X313485970Y-159327943D01*
X312915057Y-159636635D01*
X312295066Y-159828553D01*
X311615294Y-159900000D01*
X297035945Y-159900000D01*
X296526754Y-159850074D01*
X296071529Y-159712633D01*
X295651674Y-159489392D01*
X295283178Y-159188854D01*
X294974658Y-158815916D01*
X294777689Y-158470765D01*
X294391702Y-157731253D01*
X294384295Y-157718884D01*
X294356192Y-157670500D01*
X293631718Y-156557035D01*
X293628282Y-156552374D01*
X293625344Y-156547407D01*
X293580743Y-156487894D01*
X293428878Y-156305295D01*
X308928640Y-156305295D01*
X308928640Y-156836705D01*
X309032313Y-157357904D01*
X309235675Y-157848862D01*
X309530910Y-158290713D01*
X309906674Y-158666477D01*
X310348525Y-158961712D01*
X310839483Y-159165074D01*
X311360682Y-159268747D01*
X311892092Y-159268747D01*
X312413291Y-159165074D01*
X312904249Y-158961712D01*
X313346100Y-158666477D01*
X313721864Y-158290713D01*
X314017099Y-157848862D01*
X314220461Y-157357904D01*
X314324134Y-156836705D01*
X314324134Y-156305295D01*
X314220461Y-155784096D01*
X314017099Y-155293138D01*
X313721864Y-154851287D01*
X313346100Y-154475523D01*
X312904249Y-154180288D01*
X312413291Y-153976926D01*
X311892092Y-153873253D01*
X311360682Y-153873253D01*
X310839483Y-153976926D01*
X310348525Y-154180288D01*
X309906674Y-154475523D01*
X309530910Y-154851287D01*
X309235675Y-155293138D01*
X309032313Y-155784096D01*
X308928640Y-156305295D01*
X293428878Y-156305295D01*
X292731307Y-155466558D01*
X292727352Y-155462332D01*
X292723854Y-155457740D01*
X292672614Y-155403837D01*
X291709819Y-154488581D01*
X291705396Y-154484844D01*
X291701388Y-154480693D01*
X291644208Y-154433136D01*
X290581206Y-153636462D01*
X290576384Y-153633270D01*
X290571913Y-153629611D01*
X290509575Y-153589051D01*
X289360883Y-152921837D01*
X289355721Y-152919230D01*
X289350854Y-152916117D01*
X289284210Y-152883106D01*
X288065519Y-152354468D01*
X288060088Y-152352481D01*
X288054891Y-152349957D01*
X287984851Y-152324948D01*
X286712805Y-151942106D01*
X286707177Y-151940765D01*
X286701723Y-151938866D01*
X286629244Y-151922199D01*
X285321220Y-151690382D01*
X285315476Y-151689707D01*
X285309836Y-151688457D01*
X285235907Y-151680360D01*
X283924331Y-151603586D01*
X283902924Y-151601478D01*
X267902282Y-151601478D01*
X267868657Y-151604790D01*
X267842210Y-151604605D01*
X267831996Y-151605606D01*
X267010089Y-151691992D01*
X266944743Y-151705406D01*
X266879397Y-151717871D01*
X266869572Y-151720836D01*
X266080098Y-151965219D01*
X266018630Y-151991058D01*
X265956921Y-152015990D01*
X265947859Y-152020807D01*
X265220888Y-152413879D01*
X265165624Y-152451156D01*
X265109919Y-152487608D01*
X265101966Y-152494093D01*
X264465187Y-153020883D01*
X264418244Y-153068154D01*
X264370650Y-153114762D01*
X264364108Y-153122669D01*
X263841778Y-153763110D01*
X263804866Y-153818667D01*
X263767278Y-153873563D01*
X263762396Y-153882590D01*
X263374409Y-154612288D01*
X263349014Y-154673901D01*
X263322781Y-154735107D01*
X263319746Y-154744910D01*
X263080880Y-155536071D01*
X263067934Y-155601454D01*
X263054091Y-155666581D01*
X263053018Y-155676787D01*
X262972372Y-156499276D01*
X262968864Y-156534896D01*
X262968864Y-157424055D01*
X262918938Y-157933246D01*
X262781497Y-158388471D01*
X262558256Y-158808326D01*
X262257718Y-159176822D01*
X261891322Y-159479930D01*
X261473036Y-159706097D01*
X261018787Y-159846710D01*
X260511782Y-159900000D01*
X253347945Y-159900000D01*
X252838754Y-159850074D01*
X252383529Y-159712633D01*
X251963674Y-159489392D01*
X251595178Y-159188854D01*
X251286658Y-158815916D01*
X251089689Y-158470765D01*
X250703702Y-157731253D01*
X250696295Y-157718884D01*
X250668192Y-157670500D01*
X249943718Y-156557035D01*
X249940282Y-156552374D01*
X249937344Y-156547407D01*
X249892743Y-156487894D01*
X249043307Y-155466558D01*
X249039352Y-155462332D01*
X249035854Y-155457740D01*
X248984614Y-155403837D01*
X248021819Y-154488581D01*
X248017396Y-154484844D01*
X248013388Y-154480693D01*
X247956208Y-154433136D01*
X246893206Y-153636462D01*
X246888384Y-153633270D01*
X246883913Y-153629611D01*
X246821575Y-153589051D01*
X245672883Y-152921837D01*
X245667721Y-152919230D01*
X245662854Y-152916117D01*
X245596210Y-152883106D01*
X244377519Y-152354468D01*
X244372088Y-152352481D01*
X244366891Y-152349957D01*
X244296851Y-152324948D01*
X243024805Y-151942106D01*
X243019177Y-151940765D01*
X243013723Y-151938866D01*
X242941244Y-151922199D01*
X241633220Y-151690382D01*
X241627476Y-151689707D01*
X241621836Y-151688457D01*
X241547907Y-151680360D01*
X240236331Y-151603586D01*
X240214924Y-151601478D01*
X230183282Y-151601478D01*
X230151274Y-151604630D01*
X230139473Y-151604548D01*
X230129259Y-151605549D01*
X229759505Y-151644412D01*
X229694198Y-151657818D01*
X229628812Y-151670291D01*
X229618988Y-151673257D01*
X229263824Y-151783199D01*
X229202413Y-151809014D01*
X229140648Y-151833968D01*
X229131587Y-151838786D01*
X228804542Y-152015618D01*
X228749287Y-152052888D01*
X228693570Y-152089348D01*
X228685618Y-152095833D01*
X228399148Y-152332822D01*
X228352204Y-152380095D01*
X228304613Y-152426700D01*
X228298071Y-152434607D01*
X228063088Y-152722724D01*
X228026201Y-152778243D01*
X227988587Y-152833178D01*
X227983705Y-152842205D01*
X227809160Y-153170477D01*
X227783765Y-153232090D01*
X227757532Y-153293296D01*
X227754497Y-153303099D01*
X227647037Y-153659022D01*
X227634087Y-153724426D01*
X227620248Y-153789533D01*
X227619175Y-153799739D01*
X227582895Y-154169754D01*
X227582895Y-154169764D01*
X227579388Y-154205372D01*
X227579387Y-156535054D01*
X227512530Y-157216920D01*
X227324941Y-157838243D01*
X227020247Y-158411288D01*
X226610046Y-158914244D01*
X226109970Y-159327943D01*
X225539057Y-159636635D01*
X224919066Y-159828553D01*
X224239294Y-159900000D01*
X209659945Y-159900000D01*
X209150754Y-159850074D01*
X208695529Y-159712633D01*
X208275674Y-159489392D01*
X207907178Y-159188854D01*
X207598658Y-158815916D01*
X207401689Y-158470765D01*
X207015702Y-157731253D01*
X207008295Y-157718884D01*
X206980192Y-157670500D01*
X206255718Y-156557035D01*
X206252282Y-156552374D01*
X206249344Y-156547407D01*
X206204743Y-156487894D01*
X206052878Y-156305295D01*
X221552640Y-156305295D01*
X221552640Y-156836705D01*
X221656313Y-157357904D01*
X221859675Y-157848862D01*
X222154910Y-158290713D01*
X222530674Y-158666477D01*
X222972525Y-158961712D01*
X223463483Y-159165074D01*
X223984682Y-159268747D01*
X224516092Y-159268747D01*
X225037291Y-159165074D01*
X225528249Y-158961712D01*
X225970100Y-158666477D01*
X226345864Y-158290713D01*
X226641099Y-157848862D01*
X226844461Y-157357904D01*
X226948134Y-156836705D01*
X226948134Y-156305295D01*
X226844461Y-155784096D01*
X226641099Y-155293138D01*
X226345864Y-154851287D01*
X225970100Y-154475523D01*
X225528249Y-154180288D01*
X225037291Y-153976926D01*
X224516092Y-153873253D01*
X223984682Y-153873253D01*
X223463483Y-153976926D01*
X222972525Y-154180288D01*
X222530674Y-154475523D01*
X222154910Y-154851287D01*
X221859675Y-155293138D01*
X221656313Y-155784096D01*
X221552640Y-156305295D01*
X206052878Y-156305295D01*
X205355307Y-155466558D01*
X205351352Y-155462332D01*
X205347854Y-155457740D01*
X205296614Y-155403837D01*
X204333819Y-154488581D01*
X204329396Y-154484844D01*
X204325388Y-154480693D01*
X204268208Y-154433136D01*
X203205206Y-153636462D01*
X203200384Y-153633270D01*
X203195913Y-153629611D01*
X203133575Y-153589051D01*
X201984883Y-152921837D01*
X201979721Y-152919230D01*
X201974854Y-152916117D01*
X201908210Y-152883106D01*
X200689519Y-152354468D01*
X200684088Y-152352481D01*
X200678891Y-152349957D01*
X200608851Y-152324948D01*
X199336805Y-151942106D01*
X199331177Y-151940765D01*
X199325723Y-151938866D01*
X199253244Y-151922199D01*
X197945220Y-151690382D01*
X197939476Y-151689707D01*
X197933836Y-151688457D01*
X197859907Y-151680360D01*
X196548331Y-151603586D01*
X196526924Y-151601478D01*
X186495282Y-151601478D01*
X186463274Y-151604630D01*
X186451473Y-151604548D01*
X186441259Y-151605549D01*
X186071505Y-151644412D01*
X186006198Y-151657818D01*
X185940812Y-151670291D01*
X185930988Y-151673257D01*
X185575824Y-151783199D01*
X185514413Y-151809014D01*
X185452648Y-151833968D01*
X185443587Y-151838786D01*
X185116542Y-152015618D01*
X185061287Y-152052888D01*
X185005570Y-152089348D01*
X184997618Y-152095833D01*
X184711148Y-152332822D01*
X184664204Y-152380095D01*
X184616613Y-152426700D01*
X184610071Y-152434607D01*
X184375088Y-152722724D01*
X184338201Y-152778243D01*
X184300587Y-152833178D01*
X184295705Y-152842205D01*
X184121160Y-153170477D01*
X184095765Y-153232090D01*
X184069532Y-153293296D01*
X184066497Y-153303099D01*
X183959037Y-153659022D01*
X183946087Y-153724426D01*
X183932248Y-153789533D01*
X183931175Y-153799739D01*
X183894895Y-154169754D01*
X183894895Y-154169764D01*
X183891388Y-154205372D01*
X183891387Y-156535054D01*
X183824530Y-157216920D01*
X183636941Y-157838243D01*
X183332247Y-158411288D01*
X182922046Y-158914244D01*
X182421970Y-159327943D01*
X181851057Y-159636635D01*
X181231066Y-159828553D01*
X180551294Y-159900000D01*
X165971945Y-159900000D01*
X165462754Y-159850074D01*
X165007529Y-159712633D01*
X164587674Y-159489392D01*
X164219178Y-159188854D01*
X163910658Y-158815916D01*
X163713689Y-158470765D01*
X163327702Y-157731253D01*
X163320295Y-157718884D01*
X163292192Y-157670500D01*
X162567718Y-156557035D01*
X162564282Y-156552374D01*
X162561344Y-156547407D01*
X162516743Y-156487894D01*
X162364878Y-156305295D01*
X177864640Y-156305295D01*
X177864640Y-156836705D01*
X177968313Y-157357904D01*
X178171675Y-157848862D01*
X178466910Y-158290713D01*
X178842674Y-158666477D01*
X179284525Y-158961712D01*
X179775483Y-159165074D01*
X180296682Y-159268747D01*
X180828092Y-159268747D01*
X181349291Y-159165074D01*
X181840249Y-158961712D01*
X182282100Y-158666477D01*
X182657864Y-158290713D01*
X182953099Y-157848862D01*
X183156461Y-157357904D01*
X183260134Y-156836705D01*
X183260134Y-156305295D01*
X183156461Y-155784096D01*
X182953099Y-155293138D01*
X182657864Y-154851287D01*
X182282100Y-154475523D01*
X181840249Y-154180288D01*
X181349291Y-153976926D01*
X180828092Y-153873253D01*
X180296682Y-153873253D01*
X179775483Y-153976926D01*
X179284525Y-154180288D01*
X178842674Y-154475523D01*
X178466910Y-154851287D01*
X178171675Y-155293138D01*
X177968313Y-155784096D01*
X177864640Y-156305295D01*
X162364878Y-156305295D01*
X161667307Y-155466558D01*
X161663352Y-155462332D01*
X161659854Y-155457740D01*
X161608614Y-155403837D01*
X160645819Y-154488581D01*
X160641396Y-154484844D01*
X160637388Y-154480693D01*
X160580208Y-154433136D01*
X159517206Y-153636462D01*
X159512384Y-153633270D01*
X159507913Y-153629611D01*
X159445575Y-153589051D01*
X158296883Y-152921837D01*
X158291721Y-152919230D01*
X158286854Y-152916117D01*
X158220210Y-152883106D01*
X157001519Y-152354468D01*
X156996088Y-152352481D01*
X156990891Y-152349957D01*
X156920851Y-152324948D01*
X155648805Y-151942106D01*
X155643177Y-151940765D01*
X155637723Y-151938866D01*
X155565244Y-151922199D01*
X154257220Y-151690382D01*
X154251476Y-151689707D01*
X154245836Y-151688457D01*
X154171907Y-151680360D01*
X152860331Y-151603586D01*
X152838924Y-151601478D01*
X136838282Y-151601478D01*
X136804657Y-151604790D01*
X136778210Y-151604605D01*
X136767996Y-151605606D01*
X135946089Y-151691992D01*
X135880743Y-151705406D01*
X135815397Y-151717871D01*
X135805572Y-151720836D01*
X135016098Y-151965219D01*
X134954630Y-151991058D01*
X134892921Y-152015990D01*
X134883859Y-152020807D01*
X134156888Y-152413879D01*
X134101624Y-152451156D01*
X134045919Y-152487608D01*
X134037966Y-152494093D01*
X133401187Y-153020883D01*
X133354244Y-153068154D01*
X133306650Y-153114762D01*
X133300108Y-153122669D01*
X132777778Y-153763110D01*
X132740866Y-153818667D01*
X132703278Y-153873563D01*
X132698396Y-153882590D01*
X132310409Y-154612288D01*
X132285014Y-154673901D01*
X132258781Y-154735107D01*
X132255746Y-154744910D01*
X132016880Y-155536071D01*
X132003934Y-155601454D01*
X131990091Y-155666581D01*
X131989018Y-155676787D01*
X131908372Y-156499276D01*
X131904864Y-156534896D01*
X131904864Y-157424055D01*
X131854938Y-157933246D01*
X131717497Y-158388471D01*
X131494256Y-158808326D01*
X131193718Y-159176822D01*
X130827322Y-159479930D01*
X130409036Y-159706097D01*
X129954787Y-159846710D01*
X129447782Y-159900000D01*
X122283945Y-159900000D01*
X121774754Y-159850074D01*
X121319529Y-159712633D01*
X120899674Y-159489392D01*
X120531178Y-159188854D01*
X120222658Y-158815916D01*
X120025690Y-158470765D01*
X119639703Y-157731254D01*
X119632296Y-157718884D01*
X119604192Y-157670499D01*
X118879717Y-156557034D01*
X118876283Y-156552376D01*
X118873344Y-156547407D01*
X118828743Y-156487894D01*
X117979307Y-155466558D01*
X117975352Y-155462332D01*
X117971854Y-155457740D01*
X117920614Y-155403838D01*
X116957820Y-154488582D01*
X116953402Y-154484848D01*
X116949389Y-154480693D01*
X116892210Y-154433137D01*
X115829207Y-153636461D01*
X115824386Y-153633270D01*
X115819913Y-153629609D01*
X115757575Y-153589049D01*
X114608883Y-152921836D01*
X114603714Y-152919225D01*
X114598854Y-152916117D01*
X114532210Y-152883106D01*
X113313519Y-152354468D01*
X113308085Y-152352479D01*
X113302892Y-152349958D01*
X113232852Y-152324948D01*
X111960807Y-151942105D01*
X111955176Y-151940763D01*
X111949724Y-151938865D01*
X111877245Y-151922198D01*
X110569220Y-151690381D01*
X110563476Y-151689706D01*
X110557836Y-151688456D01*
X110483907Y-151680359D01*
X109172304Y-151603584D01*
X109150923Y-151601478D01*
X99119282Y-151601478D01*
X99087274Y-151604630D01*
X99075473Y-151604548D01*
X99065259Y-151605549D01*
X98695505Y-151644412D01*
X98630198Y-151657818D01*
X98564812Y-151670291D01*
X98554988Y-151673257D01*
X98199824Y-151783199D01*
X98138413Y-151809014D01*
X98076648Y-151833968D01*
X98067587Y-151838786D01*
X97740542Y-152015618D01*
X97685287Y-152052888D01*
X97629570Y-152089348D01*
X97621618Y-152095833D01*
X97335148Y-152332822D01*
X97288204Y-152380095D01*
X97240613Y-152426700D01*
X97234071Y-152434607D01*
X96999088Y-152722724D01*
X96962201Y-152778243D01*
X96924587Y-152833178D01*
X96919705Y-152842205D01*
X96745160Y-153170477D01*
X96719765Y-153232090D01*
X96693532Y-153293296D01*
X96690497Y-153303099D01*
X96583037Y-153659022D01*
X96570087Y-153724426D01*
X96556248Y-153789533D01*
X96555175Y-153799739D01*
X96518895Y-154169754D01*
X96518895Y-154169764D01*
X96515388Y-154205372D01*
X96515387Y-156535054D01*
X96448530Y-157216920D01*
X96260941Y-157838243D01*
X95956247Y-158411288D01*
X95546046Y-158914244D01*
X95045970Y-159327943D01*
X94475057Y-159636635D01*
X93855066Y-159828553D01*
X93175294Y-159900000D01*
X78595945Y-159900000D01*
X78086754Y-159850074D01*
X77631529Y-159712633D01*
X77211674Y-159489392D01*
X76843178Y-159188854D01*
X76534658Y-158815916D01*
X76337689Y-158470765D01*
X75951702Y-157731253D01*
X75944295Y-157718884D01*
X75916192Y-157670500D01*
X75191718Y-156557035D01*
X75188282Y-156552374D01*
X75185344Y-156547407D01*
X75140743Y-156487894D01*
X74988878Y-156305295D01*
X90488640Y-156305295D01*
X90488640Y-156836705D01*
X90592313Y-157357904D01*
X90795675Y-157848862D01*
X91090910Y-158290713D01*
X91466674Y-158666477D01*
X91908525Y-158961712D01*
X92399483Y-159165074D01*
X92920682Y-159268747D01*
X93452092Y-159268747D01*
X93973291Y-159165074D01*
X94464249Y-158961712D01*
X94906100Y-158666477D01*
X95281864Y-158290713D01*
X95577099Y-157848862D01*
X95780461Y-157357904D01*
X95884134Y-156836705D01*
X95884134Y-156305295D01*
X95780461Y-155784096D01*
X95577099Y-155293138D01*
X95281864Y-154851287D01*
X94906100Y-154475523D01*
X94464249Y-154180288D01*
X93973291Y-153976926D01*
X93452092Y-153873253D01*
X92920682Y-153873253D01*
X92399483Y-153976926D01*
X91908525Y-154180288D01*
X91466674Y-154475523D01*
X91090910Y-154851287D01*
X90795675Y-155293138D01*
X90592313Y-155784096D01*
X90488640Y-156305295D01*
X74988878Y-156305295D01*
X74291307Y-155466558D01*
X74287352Y-155462332D01*
X74283854Y-155457740D01*
X74232614Y-155403837D01*
X73269819Y-154488581D01*
X73265396Y-154484844D01*
X73261388Y-154480693D01*
X73204208Y-154433136D01*
X72141206Y-153636462D01*
X72136384Y-153633270D01*
X72131913Y-153629611D01*
X72069575Y-153589051D01*
X70920883Y-152921837D01*
X70915721Y-152919230D01*
X70910854Y-152916117D01*
X70844210Y-152883106D01*
X69625519Y-152354468D01*
X69620088Y-152352481D01*
X69614891Y-152349957D01*
X69544851Y-152324948D01*
X68272805Y-151942106D01*
X68267177Y-151940765D01*
X68261723Y-151938866D01*
X68189244Y-151922199D01*
X66881220Y-151690382D01*
X66875476Y-151689707D01*
X66869836Y-151688457D01*
X66795907Y-151680360D01*
X65484331Y-151603586D01*
X65462924Y-151601478D01*
X49462282Y-151601478D01*
X49428657Y-151604790D01*
X49402210Y-151604605D01*
X49391996Y-151605606D01*
X48570089Y-151691992D01*
X48504743Y-151705406D01*
X48439397Y-151717871D01*
X48429572Y-151720836D01*
X47640098Y-151965219D01*
X47578630Y-151991058D01*
X47516921Y-152015990D01*
X47507859Y-152020807D01*
X46780888Y-152413879D01*
X46725624Y-152451156D01*
X46669919Y-152487608D01*
X46661966Y-152494093D01*
X46025187Y-153020883D01*
X45978244Y-153068154D01*
X45930650Y-153114762D01*
X45924108Y-153122669D01*
X45401778Y-153763110D01*
X45364866Y-153818667D01*
X45327278Y-153873563D01*
X45322396Y-153882590D01*
X44934409Y-154612288D01*
X44909014Y-154673901D01*
X44882781Y-154735107D01*
X44879746Y-154744910D01*
X44640880Y-155536071D01*
X44627934Y-155601454D01*
X44614091Y-155666581D01*
X44613018Y-155676787D01*
X44532372Y-156499276D01*
X44528864Y-156534896D01*
X44528865Y-158059044D01*
X44491031Y-158444908D01*
X44389411Y-158781489D01*
X44224351Y-159091922D01*
X44002139Y-159364381D01*
X43731237Y-159588489D01*
X43421964Y-159755713D01*
X43086100Y-159859680D01*
X42702483Y-159900000D01*
X42348764Y-159900000D01*
X41839573Y-159850074D01*
X41384348Y-159712633D01*
X40964493Y-159489392D01*
X40595997Y-159188854D01*
X40292889Y-158822458D01*
X40066722Y-158404172D01*
X39926109Y-157949923D01*
X39872819Y-157442918D01*
X39872819Y-145624487D01*
X52374574Y-145624487D01*
X52374574Y-145828365D01*
X52414348Y-146028324D01*
X52492369Y-146216682D01*
X52605637Y-146386200D01*
X52749800Y-146530363D01*
X52919318Y-146643631D01*
X53107676Y-146721652D01*
X53307635Y-146761426D01*
X53371127Y-146761426D01*
X53434755Y-146813645D01*
X53464875Y-146829744D01*
X53567133Y-146884402D01*
X53710770Y-146927974D01*
X53822722Y-146939000D01*
X53822725Y-146939000D01*
X53860148Y-146942686D01*
X53897571Y-146939000D01*
X71815289Y-146939000D01*
X71857226Y-146980937D01*
X72026744Y-147094205D01*
X72215102Y-147172226D01*
X72415061Y-147212000D01*
X72618939Y-147212000D01*
X72818898Y-147172226D01*
X73007256Y-147094205D01*
X73176774Y-146980937D01*
X73320937Y-146836774D01*
X73434205Y-146667256D01*
X73512226Y-146478898D01*
X73552000Y-146278939D01*
X73552000Y-146075061D01*
X73512226Y-145875102D01*
X73434205Y-145686744D01*
X73320937Y-145517226D01*
X73176774Y-145373063D01*
X73007256Y-145259795D01*
X72818898Y-145181774D01*
X72618939Y-145142000D01*
X72415061Y-145142000D01*
X72215102Y-145181774D01*
X72026744Y-145259795D01*
X71857226Y-145373063D01*
X71815289Y-145415000D01*
X54400853Y-145415000D01*
X54326779Y-145236170D01*
X54213511Y-145066652D01*
X54069348Y-144922489D01*
X53899830Y-144809221D01*
X53711472Y-144731200D01*
X53511513Y-144691426D01*
X53307635Y-144691426D01*
X53107676Y-144731200D01*
X52919318Y-144809221D01*
X52749800Y-144922489D01*
X52605637Y-145066652D01*
X52492369Y-145236170D01*
X52414348Y-145424528D01*
X52374574Y-145624487D01*
X39872819Y-145624487D01*
X39872819Y-133706039D01*
X41260000Y-133706039D01*
X41260000Y-133959161D01*
X41309381Y-134207421D01*
X41406247Y-134441276D01*
X41546875Y-134651740D01*
X41725860Y-134830725D01*
X41936324Y-134971353D01*
X42170179Y-135068219D01*
X42343027Y-135102600D01*
X42170179Y-135136981D01*
X41936324Y-135233847D01*
X41725860Y-135374475D01*
X41546875Y-135553460D01*
X41406247Y-135763924D01*
X41309381Y-135997779D01*
X41260000Y-136246039D01*
X41260000Y-136499161D01*
X41309381Y-136747421D01*
X41406247Y-136981276D01*
X41546875Y-137191740D01*
X41725860Y-137370725D01*
X41936324Y-137511353D01*
X42170179Y-137608219D01*
X42418439Y-137657600D01*
X42671561Y-137657600D01*
X42919821Y-137608219D01*
X43153676Y-137511353D01*
X43364140Y-137370725D01*
X43543125Y-137191740D01*
X43683753Y-136981276D01*
X43780619Y-136747421D01*
X43830000Y-136499161D01*
X43830000Y-136246039D01*
X43780619Y-135997779D01*
X43683753Y-135763924D01*
X43543125Y-135553460D01*
X43364140Y-135374475D01*
X43153676Y-135233847D01*
X42919821Y-135136981D01*
X42746973Y-135102600D01*
X42919821Y-135068219D01*
X43153676Y-134971353D01*
X43364140Y-134830725D01*
X43543125Y-134651740D01*
X43683753Y-134441276D01*
X43780619Y-134207421D01*
X43811305Y-134053147D01*
X43883967Y-134067600D01*
X44206033Y-134067600D01*
X44369799Y-134035025D01*
X44265860Y-134104475D01*
X44086875Y-134283460D01*
X43946247Y-134493924D01*
X43849381Y-134727779D01*
X43800000Y-134976039D01*
X43800000Y-135229161D01*
X43849381Y-135477421D01*
X43946247Y-135711276D01*
X44086875Y-135921740D01*
X44265860Y-136100725D01*
X44476324Y-136241353D01*
X44710179Y-136338219D01*
X44883027Y-136372600D01*
X44710179Y-136406981D01*
X44476324Y-136503847D01*
X44265860Y-136644475D01*
X44086875Y-136823460D01*
X43946247Y-137033924D01*
X43849381Y-137267779D01*
X43800000Y-137516039D01*
X43800000Y-137769161D01*
X43849381Y-138017421D01*
X43946247Y-138251276D01*
X44086875Y-138461740D01*
X44265860Y-138640725D01*
X44476324Y-138781353D01*
X44710179Y-138878219D01*
X44958439Y-138927600D01*
X45211561Y-138927600D01*
X45459821Y-138878219D01*
X45693676Y-138781353D01*
X45904140Y-138640725D01*
X46083125Y-138461740D01*
X46223753Y-138251276D01*
X46320619Y-138017421D01*
X46370000Y-137769161D01*
X46370000Y-137516039D01*
X46320619Y-137267779D01*
X46223753Y-137033924D01*
X46083125Y-136823460D01*
X45904140Y-136644475D01*
X45693676Y-136503847D01*
X45459821Y-136406981D01*
X45286973Y-136372600D01*
X45459821Y-136338219D01*
X45693676Y-136241353D01*
X45904140Y-136100725D01*
X46083125Y-135921740D01*
X46223753Y-135711276D01*
X46320619Y-135477421D01*
X46370000Y-135229161D01*
X46370000Y-134976039D01*
X46320619Y-134727779D01*
X46223753Y-134493924D01*
X46083125Y-134283460D01*
X45904140Y-134104475D01*
X45693676Y-133963847D01*
X45459821Y-133866981D01*
X45211561Y-133817600D01*
X44958439Y-133817600D01*
X44896763Y-133829868D01*
X45087252Y-133702587D01*
X45314987Y-133474852D01*
X45493918Y-133207063D01*
X45617168Y-132909512D01*
X45680000Y-132593633D01*
X45680000Y-132271567D01*
X45617168Y-131955688D01*
X45493918Y-131658137D01*
X45314987Y-131390348D01*
X45087252Y-131162613D01*
X44819463Y-130983682D01*
X44521912Y-130860432D01*
X44206033Y-130797600D01*
X43883967Y-130797600D01*
X43568088Y-130860432D01*
X43270537Y-130983682D01*
X43002748Y-131162613D01*
X42775013Y-131390348D01*
X42596082Y-131658137D01*
X42472832Y-131955688D01*
X42410000Y-132271567D01*
X42410000Y-132549279D01*
X42170179Y-132596981D01*
X41936324Y-132693847D01*
X41725860Y-132834475D01*
X41546875Y-133013460D01*
X41406247Y-133223924D01*
X41309381Y-133457779D01*
X41260000Y-133706039D01*
X39872819Y-133706039D01*
X39872819Y-104005171D01*
X39978109Y-104259364D01*
X40266428Y-104690864D01*
X40633390Y-105057826D01*
X41064890Y-105346145D01*
X41544348Y-105544743D01*
X42053338Y-105645988D01*
X42572300Y-105645988D01*
X43081290Y-105544743D01*
X43560748Y-105346145D01*
X43992248Y-105057826D01*
X44359210Y-104690864D01*
X44647529Y-104259364D01*
X44846127Y-103779906D01*
X44947372Y-103270916D01*
X44947372Y-102751954D01*
X44846127Y-102242964D01*
X44647529Y-101763506D01*
X44359210Y-101332006D01*
X43992248Y-100965044D01*
X43560748Y-100676725D01*
X43306555Y-100571435D01*
X215362708Y-100571435D01*
X215350143Y-100584000D01*
G36*
X343473556Y-108569825D02*
G01*
X343323737Y-108631882D01*
X343055948Y-108810813D01*
X342828213Y-109038548D01*
X342649282Y-109306337D01*
X342526032Y-109603888D01*
X342463200Y-109919767D01*
X342463200Y-110203446D01*
X342424761Y-110195800D01*
X342171639Y-110195800D01*
X341923379Y-110245181D01*
X341689524Y-110342047D01*
X341479060Y-110482675D01*
X341300075Y-110661660D01*
X341159447Y-110872124D01*
X341062581Y-111105979D01*
X341013200Y-111354239D01*
X341013200Y-111607361D01*
X341026607Y-111674762D01*
X339055392Y-113645978D01*
X275788200Y-113645978D01*
X275872205Y-113520256D01*
X275950226Y-113331898D01*
X275990000Y-113131939D01*
X275990000Y-112928061D01*
X275950226Y-112728102D01*
X275872205Y-112539744D01*
X275758937Y-112370226D01*
X275614774Y-112226063D01*
X275445256Y-112112795D01*
X275256898Y-112034774D01*
X275056939Y-111995000D01*
X274853061Y-111995000D01*
X274653102Y-112034774D01*
X274464744Y-112112795D01*
X274370154Y-112175998D01*
X272822632Y-112175998D01*
X274572131Y-110426500D01*
X336200789Y-110426500D01*
X336242726Y-110468437D01*
X336412244Y-110581705D01*
X336600602Y-110659726D01*
X336800561Y-110699500D01*
X337004439Y-110699500D01*
X337204398Y-110659726D01*
X337392756Y-110581705D01*
X337562274Y-110468437D01*
X337706437Y-110324274D01*
X337819705Y-110154756D01*
X337897726Y-109966398D01*
X337922287Y-109842919D01*
X338054602Y-109897726D01*
X338254561Y-109937500D01*
X338458439Y-109937500D01*
X338658398Y-109897726D01*
X338846756Y-109819705D01*
X339016274Y-109706437D01*
X339160437Y-109562274D01*
X339273705Y-109392756D01*
X339289263Y-109355197D01*
X339376110Y-109413226D01*
X339564468Y-109491247D01*
X339764427Y-109531021D01*
X339968305Y-109531021D01*
X340168264Y-109491247D01*
X340356622Y-109413226D01*
X340526140Y-109299958D01*
X340670303Y-109155795D01*
X340783571Y-108986277D01*
X340861592Y-108797919D01*
X340901366Y-108597960D01*
X340901366Y-108531011D01*
X343434742Y-108531011D01*
X343473556Y-108569825D01*
G37*
X343473556Y-108569825D02*
X343323737Y-108631882D01*
X343055948Y-108810813D01*
X342828213Y-109038548D01*
X342649282Y-109306337D01*
X342526032Y-109603888D01*
X342463200Y-109919767D01*
X342463200Y-110203446D01*
X342424761Y-110195800D01*
X342171639Y-110195800D01*
X341923379Y-110245181D01*
X341689524Y-110342047D01*
X341479060Y-110482675D01*
X341300075Y-110661660D01*
X341159447Y-110872124D01*
X341062581Y-111105979D01*
X341013200Y-111354239D01*
X341013200Y-111607361D01*
X341026607Y-111674762D01*
X339055392Y-113645978D01*
X275788200Y-113645978D01*
X275872205Y-113520256D01*
X275950226Y-113331898D01*
X275990000Y-113131939D01*
X275990000Y-112928061D01*
X275950226Y-112728102D01*
X275872205Y-112539744D01*
X275758937Y-112370226D01*
X275614774Y-112226063D01*
X275445256Y-112112795D01*
X275256898Y-112034774D01*
X275056939Y-111995000D01*
X274853061Y-111995000D01*
X274653102Y-112034774D01*
X274464744Y-112112795D01*
X274370154Y-112175998D01*
X272822632Y-112175998D01*
X274572131Y-110426500D01*
X336200789Y-110426500D01*
X336242726Y-110468437D01*
X336412244Y-110581705D01*
X336600602Y-110659726D01*
X336800561Y-110699500D01*
X337004439Y-110699500D01*
X337204398Y-110659726D01*
X337392756Y-110581705D01*
X337562274Y-110468437D01*
X337706437Y-110324274D01*
X337819705Y-110154756D01*
X337897726Y-109966398D01*
X337922287Y-109842919D01*
X338054602Y-109897726D01*
X338254561Y-109937500D01*
X338458439Y-109937500D01*
X338658398Y-109897726D01*
X338846756Y-109819705D01*
X339016274Y-109706437D01*
X339160437Y-109562274D01*
X339273705Y-109392756D01*
X339289263Y-109355197D01*
X339376110Y-109413226D01*
X339564468Y-109491247D01*
X339764427Y-109531021D01*
X339968305Y-109531021D01*
X340168264Y-109491247D01*
X340356622Y-109413226D01*
X340526140Y-109299958D01*
X340670303Y-109155795D01*
X340783571Y-108986277D01*
X340861592Y-108797919D01*
X340901366Y-108597960D01*
X340901366Y-108531011D01*
X343434742Y-108531011D01*
X343473556Y-108569825D01*
G36*
X232532649Y-107638721D02*
G01*
X232510923Y-107656551D01*
X232420221Y-107618981D01*
X232171961Y-107569600D01*
X231918839Y-107569600D01*
X231670579Y-107618981D01*
X231436724Y-107715847D01*
X231226260Y-107856475D01*
X231047275Y-108035460D01*
X230906647Y-108245924D01*
X230809781Y-108479779D01*
X230760400Y-108728039D01*
X230760400Y-108981161D01*
X230809781Y-109229421D01*
X230906647Y-109463276D01*
X231047275Y-109673740D01*
X231226260Y-109852725D01*
X231436724Y-109993353D01*
X231670579Y-110090219D01*
X231918839Y-110139600D01*
X232171961Y-110139600D01*
X232420221Y-110090219D01*
X232512349Y-110052058D01*
X232532654Y-110068722D01*
X232715955Y-110252023D01*
X232706724Y-110255847D01*
X232496260Y-110396475D01*
X232317275Y-110575460D01*
X232176647Y-110785924D01*
X232079781Y-111019779D01*
X232044860Y-111195344D01*
X232024670Y-111068151D01*
X231936978Y-110830704D01*
X231889601Y-110742066D01*
X231660927Y-110688678D01*
X230955005Y-111394600D01*
X230969148Y-111408743D01*
X230789543Y-111588348D01*
X230775400Y-111574205D01*
X230761258Y-111588348D01*
X230581653Y-111408743D01*
X230595795Y-111394600D01*
X229889873Y-110688678D01*
X229661199Y-110742066D01*
X229555305Y-110971974D01*
X229496298Y-111218124D01*
X229486448Y-111471055D01*
X229514685Y-111648948D01*
X227168985Y-111648948D01*
X226872645Y-111352609D01*
X226848784Y-111323534D01*
X226732754Y-111228311D01*
X226600377Y-111157554D01*
X226456740Y-111113982D01*
X226344788Y-111102956D01*
X226344785Y-111102956D01*
X226307362Y-111099270D01*
X226269939Y-111102956D01*
X225762673Y-111102956D01*
X226356556Y-110509073D01*
X230069478Y-110509073D01*
X230775400Y-111214995D01*
X231481322Y-110509073D01*
X231427934Y-110280399D01*
X231198026Y-110174505D01*
X230951876Y-110115498D01*
X230698945Y-110105648D01*
X230448951Y-110145330D01*
X230211504Y-110233022D01*
X230122866Y-110280399D01*
X230069478Y-110509073D01*
X226356556Y-110509073D01*
X230166609Y-106699022D01*
X233472348Y-106699022D01*
X232532649Y-107638721D01*
G37*
X232532649Y-107638721D02*
X232510923Y-107656551D01*
X232420221Y-107618981D01*
X232171961Y-107569600D01*
X231918839Y-107569600D01*
X231670579Y-107618981D01*
X231436724Y-107715847D01*
X231226260Y-107856475D01*
X231047275Y-108035460D01*
X230906647Y-108245924D01*
X230809781Y-108479779D01*
X230760400Y-108728039D01*
X230760400Y-108981161D01*
X230809781Y-109229421D01*
X230906647Y-109463276D01*
X231047275Y-109673740D01*
X231226260Y-109852725D01*
X231436724Y-109993353D01*
X231670579Y-110090219D01*
X231918839Y-110139600D01*
X232171961Y-110139600D01*
X232420221Y-110090219D01*
X232512349Y-110052058D01*
X232532654Y-110068722D01*
X232715955Y-110252023D01*
X232706724Y-110255847D01*
X232496260Y-110396475D01*
X232317275Y-110575460D01*
X232176647Y-110785924D01*
X232079781Y-111019779D01*
X232044860Y-111195344D01*
X232024670Y-111068151D01*
X231936978Y-110830704D01*
X231889601Y-110742066D01*
X231660927Y-110688678D01*
X230955005Y-111394600D01*
X230969148Y-111408743D01*
X230789543Y-111588348D01*
X230775400Y-111574205D01*
X230761258Y-111588348D01*
X230581653Y-111408743D01*
X230595795Y-111394600D01*
X229889873Y-110688678D01*
X229661199Y-110742066D01*
X229555305Y-110971974D01*
X229496298Y-111218124D01*
X229486448Y-111471055D01*
X229514685Y-111648948D01*
X227168985Y-111648948D01*
X226872645Y-111352609D01*
X226848784Y-111323534D01*
X226732754Y-111228311D01*
X226600377Y-111157554D01*
X226456740Y-111113982D01*
X226344788Y-111102956D01*
X226344785Y-111102956D01*
X226307362Y-111099270D01*
X226269939Y-111102956D01*
X225762673Y-111102956D01*
X226356556Y-110509073D01*
X230069478Y-110509073D01*
X230775400Y-111214995D01*
X231481322Y-110509073D01*
X231427934Y-110280399D01*
X231198026Y-110174505D01*
X230951876Y-110115498D01*
X230698945Y-110105648D01*
X230448951Y-110145330D01*
X230211504Y-110233022D01*
X230122866Y-110280399D01*
X230069478Y-110509073D01*
X226356556Y-110509073D01*
X230166609Y-106699022D01*
X233472348Y-106699022D01*
X232532649Y-107638721D01*
M02*
