G04 #@! TF.GenerationSoftware,KiCad,Pcbnew,5.1.5-52549c5~84~ubuntu18.04.1*
G04 #@! TF.CreationDate,2020-02-28T01:04:35-05:00*
G04 #@! TF.ProjectId,DA_Board_1,44415f42-6f61-4726-945f-312e6b696361,rev?*
G04 #@! TF.SameCoordinates,Original*
G04 #@! TF.FileFunction,Copper,L1,Top*
G04 #@! TF.FilePolarity,Positive*
%FSLAX46Y46*%
G04 Gerber Fmt 4.6, Leading zero omitted, Abs format (unit mm)*
G04 Created by KiCad (PCBNEW 5.1.5-52549c5~84~ubuntu18.04.1) date 2020-02-28 01:04:35*
%MOMM*%
%LPD*%
G04 APERTURE LIST*
%ADD10R,5.000000X8.000000*%
%ADD11C,2.000000*%
%ADD12C,1.300000*%
%ADD13R,1.500000X4.000000*%
%ADD14R,0.900000X0.800000*%
%ADD15C,0.100000*%
%ADD16R,1.300000X0.700000*%
%ADD17R,3.810000X1.650000*%
%ADD18R,8.510000X7.870000*%
%ADD19R,3.500000X1.780000*%
%ADD20R,1.200000X1.200000*%
%ADD21R,1.650000X3.810000*%
%ADD22R,7.870000X8.510000*%
%ADD23R,1.780000X3.500000*%
%ADD24R,8.000000X5.000000*%
%ADD25C,0.800000*%
%ADD26C,0.254000*%
%ADD27C,0.762000*%
%ADD28C,0.250000*%
G04 APERTURE END LIST*
D10*
X122753300Y-154927500D03*
D11*
X246145400Y-110654600D03*
D12*
X230775400Y-111394600D03*
X232045400Y-108854600D03*
X233315400Y-111394600D03*
X234585400Y-108854600D03*
X235855400Y-111394600D03*
X238395400Y-111394600D03*
X240935400Y-111394600D03*
X243475400Y-111394600D03*
X237125400Y-108854600D03*
X244745400Y-108854600D03*
X242205400Y-108854600D03*
X239665400Y-108854600D03*
D13*
X153474600Y-148285400D03*
X156474600Y-148285400D03*
D14*
X171394300Y-145631100D03*
X173394300Y-146681100D03*
X173394300Y-144581100D03*
D12*
X353232900Y-114986000D03*
X353232900Y-112446000D03*
X353232900Y-109906000D03*
X353232900Y-117526000D03*
X355772900Y-111176000D03*
X355772900Y-113716000D03*
X355772900Y-116256000D03*
X355772900Y-118796000D03*
X353232900Y-120066000D03*
X355772900Y-121336000D03*
X353232900Y-122606000D03*
X355772900Y-123876000D03*
D11*
X355032900Y-108506000D03*
D14*
X84075200Y-144720800D03*
X84075200Y-146820800D03*
X82075200Y-145770800D03*
G04 #@! TA.AperFunction,SMDPad,CuDef*
D15*
G36*
X344321504Y-148478204D02*
G01*
X344345773Y-148481804D01*
X344369571Y-148487765D01*
X344392671Y-148496030D01*
X344414849Y-148506520D01*
X344435893Y-148519133D01*
X344455598Y-148533747D01*
X344473777Y-148550223D01*
X344490253Y-148568402D01*
X344504867Y-148588107D01*
X344517480Y-148609151D01*
X344527970Y-148631329D01*
X344536235Y-148654429D01*
X344542196Y-148678227D01*
X344545796Y-148702496D01*
X344547000Y-148727000D01*
X344547000Y-149977000D01*
X344545796Y-150001504D01*
X344542196Y-150025773D01*
X344536235Y-150049571D01*
X344527970Y-150072671D01*
X344517480Y-150094849D01*
X344504867Y-150115893D01*
X344490253Y-150135598D01*
X344473777Y-150153777D01*
X344455598Y-150170253D01*
X344435893Y-150184867D01*
X344414849Y-150197480D01*
X344392671Y-150207970D01*
X344369571Y-150216235D01*
X344345773Y-150222196D01*
X344321504Y-150225796D01*
X344297000Y-150227000D01*
X343547000Y-150227000D01*
X343522496Y-150225796D01*
X343498227Y-150222196D01*
X343474429Y-150216235D01*
X343451329Y-150207970D01*
X343429151Y-150197480D01*
X343408107Y-150184867D01*
X343388402Y-150170253D01*
X343370223Y-150153777D01*
X343353747Y-150135598D01*
X343339133Y-150115893D01*
X343326520Y-150094849D01*
X343316030Y-150072671D01*
X343307765Y-150049571D01*
X343301804Y-150025773D01*
X343298204Y-150001504D01*
X343297000Y-149977000D01*
X343297000Y-148727000D01*
X343298204Y-148702496D01*
X343301804Y-148678227D01*
X343307765Y-148654429D01*
X343316030Y-148631329D01*
X343326520Y-148609151D01*
X343339133Y-148588107D01*
X343353747Y-148568402D01*
X343370223Y-148550223D01*
X343388402Y-148533747D01*
X343408107Y-148519133D01*
X343429151Y-148506520D01*
X343451329Y-148496030D01*
X343474429Y-148487765D01*
X343498227Y-148481804D01*
X343522496Y-148478204D01*
X343547000Y-148477000D01*
X344297000Y-148477000D01*
X344321504Y-148478204D01*
G37*
G04 #@! TD.AperFunction*
G04 #@! TA.AperFunction,SMDPad,CuDef*
G36*
X341521504Y-148478204D02*
G01*
X341545773Y-148481804D01*
X341569571Y-148487765D01*
X341592671Y-148496030D01*
X341614849Y-148506520D01*
X341635893Y-148519133D01*
X341655598Y-148533747D01*
X341673777Y-148550223D01*
X341690253Y-148568402D01*
X341704867Y-148588107D01*
X341717480Y-148609151D01*
X341727970Y-148631329D01*
X341736235Y-148654429D01*
X341742196Y-148678227D01*
X341745796Y-148702496D01*
X341747000Y-148727000D01*
X341747000Y-149977000D01*
X341745796Y-150001504D01*
X341742196Y-150025773D01*
X341736235Y-150049571D01*
X341727970Y-150072671D01*
X341717480Y-150094849D01*
X341704867Y-150115893D01*
X341690253Y-150135598D01*
X341673777Y-150153777D01*
X341655598Y-150170253D01*
X341635893Y-150184867D01*
X341614849Y-150197480D01*
X341592671Y-150207970D01*
X341569571Y-150216235D01*
X341545773Y-150222196D01*
X341521504Y-150225796D01*
X341497000Y-150227000D01*
X340747000Y-150227000D01*
X340722496Y-150225796D01*
X340698227Y-150222196D01*
X340674429Y-150216235D01*
X340651329Y-150207970D01*
X340629151Y-150197480D01*
X340608107Y-150184867D01*
X340588402Y-150170253D01*
X340570223Y-150153777D01*
X340553747Y-150135598D01*
X340539133Y-150115893D01*
X340526520Y-150094849D01*
X340516030Y-150072671D01*
X340507765Y-150049571D01*
X340501804Y-150025773D01*
X340498204Y-150001504D01*
X340497000Y-149977000D01*
X340497000Y-148727000D01*
X340498204Y-148702496D01*
X340501804Y-148678227D01*
X340507765Y-148654429D01*
X340516030Y-148631329D01*
X340526520Y-148609151D01*
X340539133Y-148588107D01*
X340553747Y-148568402D01*
X340570223Y-148550223D01*
X340588402Y-148533747D01*
X340608107Y-148519133D01*
X340629151Y-148506520D01*
X340651329Y-148496030D01*
X340674429Y-148487765D01*
X340698227Y-148481804D01*
X340722496Y-148478204D01*
X340747000Y-148477000D01*
X341497000Y-148477000D01*
X341521504Y-148478204D01*
G37*
G04 #@! TD.AperFunction*
D11*
X222205400Y-110514600D03*
D12*
X201755400Y-111254600D03*
X203025400Y-108714600D03*
X204295400Y-111254600D03*
X205565400Y-108714600D03*
X206835400Y-111254600D03*
X208105400Y-108714600D03*
X209375400Y-111254600D03*
X210645400Y-108714600D03*
X211915400Y-111254600D03*
X214455400Y-111254600D03*
X216995400Y-111254600D03*
X219535400Y-111254600D03*
X213185400Y-108714600D03*
X220805400Y-108714600D03*
X218265400Y-108714600D03*
X215725400Y-108714600D03*
D16*
X129535100Y-143279100D03*
X129535100Y-141379100D03*
D10*
X253639500Y-154673500D03*
D13*
X58314900Y-148183800D03*
X55314900Y-148183800D03*
D16*
X217736600Y-141633100D03*
X217736600Y-143533100D03*
D10*
X166263500Y-154571900D03*
D17*
X370548000Y-135394900D03*
X370548000Y-130314900D03*
D18*
X362923000Y-132854900D03*
G04 #@! TA.AperFunction,SMDPad,CuDef*
D15*
G36*
X368947504Y-142636204D02*
G01*
X368971773Y-142639804D01*
X368995571Y-142645765D01*
X369018671Y-142654030D01*
X369040849Y-142664520D01*
X369061893Y-142677133D01*
X369081598Y-142691747D01*
X369099777Y-142708223D01*
X369116253Y-142726402D01*
X369130867Y-142746107D01*
X369143480Y-142767151D01*
X369153970Y-142789329D01*
X369162235Y-142812429D01*
X369168196Y-142836227D01*
X369171796Y-142860496D01*
X369173000Y-142885000D01*
X369173000Y-144135000D01*
X369171796Y-144159504D01*
X369168196Y-144183773D01*
X369162235Y-144207571D01*
X369153970Y-144230671D01*
X369143480Y-144252849D01*
X369130867Y-144273893D01*
X369116253Y-144293598D01*
X369099777Y-144311777D01*
X369081598Y-144328253D01*
X369061893Y-144342867D01*
X369040849Y-144355480D01*
X369018671Y-144365970D01*
X368995571Y-144374235D01*
X368971773Y-144380196D01*
X368947504Y-144383796D01*
X368923000Y-144385000D01*
X368173000Y-144385000D01*
X368148496Y-144383796D01*
X368124227Y-144380196D01*
X368100429Y-144374235D01*
X368077329Y-144365970D01*
X368055151Y-144355480D01*
X368034107Y-144342867D01*
X368014402Y-144328253D01*
X367996223Y-144311777D01*
X367979747Y-144293598D01*
X367965133Y-144273893D01*
X367952520Y-144252849D01*
X367942030Y-144230671D01*
X367933765Y-144207571D01*
X367927804Y-144183773D01*
X367924204Y-144159504D01*
X367923000Y-144135000D01*
X367923000Y-142885000D01*
X367924204Y-142860496D01*
X367927804Y-142836227D01*
X367933765Y-142812429D01*
X367942030Y-142789329D01*
X367952520Y-142767151D01*
X367965133Y-142746107D01*
X367979747Y-142726402D01*
X367996223Y-142708223D01*
X368014402Y-142691747D01*
X368034107Y-142677133D01*
X368055151Y-142664520D01*
X368077329Y-142654030D01*
X368100429Y-142645765D01*
X368124227Y-142639804D01*
X368148496Y-142636204D01*
X368173000Y-142635000D01*
X368923000Y-142635000D01*
X368947504Y-142636204D01*
G37*
G04 #@! TD.AperFunction*
G04 #@! TA.AperFunction,SMDPad,CuDef*
G36*
X371747504Y-142636204D02*
G01*
X371771773Y-142639804D01*
X371795571Y-142645765D01*
X371818671Y-142654030D01*
X371840849Y-142664520D01*
X371861893Y-142677133D01*
X371881598Y-142691747D01*
X371899777Y-142708223D01*
X371916253Y-142726402D01*
X371930867Y-142746107D01*
X371943480Y-142767151D01*
X371953970Y-142789329D01*
X371962235Y-142812429D01*
X371968196Y-142836227D01*
X371971796Y-142860496D01*
X371973000Y-142885000D01*
X371973000Y-144135000D01*
X371971796Y-144159504D01*
X371968196Y-144183773D01*
X371962235Y-144207571D01*
X371953970Y-144230671D01*
X371943480Y-144252849D01*
X371930867Y-144273893D01*
X371916253Y-144293598D01*
X371899777Y-144311777D01*
X371881598Y-144328253D01*
X371861893Y-144342867D01*
X371840849Y-144355480D01*
X371818671Y-144365970D01*
X371795571Y-144374235D01*
X371771773Y-144380196D01*
X371747504Y-144383796D01*
X371723000Y-144385000D01*
X370973000Y-144385000D01*
X370948496Y-144383796D01*
X370924227Y-144380196D01*
X370900429Y-144374235D01*
X370877329Y-144365970D01*
X370855151Y-144355480D01*
X370834107Y-144342867D01*
X370814402Y-144328253D01*
X370796223Y-144311777D01*
X370779747Y-144293598D01*
X370765133Y-144273893D01*
X370752520Y-144252849D01*
X370742030Y-144230671D01*
X370733765Y-144207571D01*
X370727804Y-144183773D01*
X370724204Y-144159504D01*
X370723000Y-144135000D01*
X370723000Y-142885000D01*
X370724204Y-142860496D01*
X370727804Y-142836227D01*
X370733765Y-142812429D01*
X370742030Y-142789329D01*
X370752520Y-142767151D01*
X370765133Y-142746107D01*
X370779747Y-142726402D01*
X370796223Y-142708223D01*
X370814402Y-142691747D01*
X370834107Y-142677133D01*
X370855151Y-142664520D01*
X370877329Y-142654030D01*
X370900429Y-142645765D01*
X370924227Y-142639804D01*
X370948496Y-142636204D01*
X370973000Y-142635000D01*
X371723000Y-142635000D01*
X371747504Y-142636204D01*
G37*
G04 #@! TD.AperFunction*
D16*
X376943800Y-141196300D03*
X376943800Y-139296300D03*
D13*
X232369800Y-148120300D03*
X229369800Y-148120300D03*
X325408600Y-148107600D03*
X322408600Y-148107600D03*
D10*
X79103400Y-154952900D03*
D19*
X348140200Y-151130200D03*
X348140200Y-145850200D03*
D12*
X42545000Y-136372600D03*
X42545000Y-133832600D03*
X45085000Y-135102600D03*
X45085000Y-137642600D03*
D11*
X44045000Y-132432600D03*
D19*
X218041400Y-146459800D03*
X218041400Y-151739800D03*
D20*
X374886400Y-139044700D03*
X374886400Y-141244700D03*
D14*
X372797000Y-138993100D03*
X372797000Y-141093100D03*
X370797000Y-140043100D03*
D21*
X121115000Y-141305400D03*
X126195000Y-141305400D03*
D22*
X123655000Y-133680400D03*
D13*
X141357400Y-148285400D03*
X144357400Y-148285400D03*
X328276000Y-148209200D03*
X331276000Y-148209200D03*
D19*
X178430100Y-151879500D03*
X178430100Y-146599500D03*
D13*
X150426600Y-148285400D03*
X147426600Y-148285400D03*
D17*
X346557700Y-140309800D03*
X346557700Y-135229800D03*
D18*
X338932700Y-137769800D03*
D19*
X202522000Y-146774100D03*
X202522000Y-141494100D03*
D20*
X179268300Y-139921000D03*
X179268300Y-142121000D03*
D19*
X129814500Y-151625500D03*
X129814500Y-146345500D03*
D13*
X70149900Y-148412400D03*
X67149900Y-148412400D03*
D14*
X258318000Y-147574000D03*
X260318000Y-148624000D03*
X260318000Y-146524000D03*
D20*
X353169400Y-142583100D03*
X353169400Y-140383100D03*
G04 #@! TA.AperFunction,SMDPad,CuDef*
D15*
G36*
X293765504Y-149115204D02*
G01*
X293789773Y-149118804D01*
X293813571Y-149124765D01*
X293836671Y-149133030D01*
X293858849Y-149143520D01*
X293879893Y-149156133D01*
X293899598Y-149170747D01*
X293917777Y-149187223D01*
X293934253Y-149205402D01*
X293948867Y-149225107D01*
X293961480Y-149246151D01*
X293971970Y-149268329D01*
X293980235Y-149291429D01*
X293986196Y-149315227D01*
X293989796Y-149339496D01*
X293991000Y-149364000D01*
X293991000Y-150114000D01*
X293989796Y-150138504D01*
X293986196Y-150162773D01*
X293980235Y-150186571D01*
X293971970Y-150209671D01*
X293961480Y-150231849D01*
X293948867Y-150252893D01*
X293934253Y-150272598D01*
X293917777Y-150290777D01*
X293899598Y-150307253D01*
X293879893Y-150321867D01*
X293858849Y-150334480D01*
X293836671Y-150344970D01*
X293813571Y-150353235D01*
X293789773Y-150359196D01*
X293765504Y-150362796D01*
X293741000Y-150364000D01*
X292491000Y-150364000D01*
X292466496Y-150362796D01*
X292442227Y-150359196D01*
X292418429Y-150353235D01*
X292395329Y-150344970D01*
X292373151Y-150334480D01*
X292352107Y-150321867D01*
X292332402Y-150307253D01*
X292314223Y-150290777D01*
X292297747Y-150272598D01*
X292283133Y-150252893D01*
X292270520Y-150231849D01*
X292260030Y-150209671D01*
X292251765Y-150186571D01*
X292245804Y-150162773D01*
X292242204Y-150138504D01*
X292241000Y-150114000D01*
X292241000Y-149364000D01*
X292242204Y-149339496D01*
X292245804Y-149315227D01*
X292251765Y-149291429D01*
X292260030Y-149268329D01*
X292270520Y-149246151D01*
X292283133Y-149225107D01*
X292297747Y-149205402D01*
X292314223Y-149187223D01*
X292332402Y-149170747D01*
X292352107Y-149156133D01*
X292373151Y-149143520D01*
X292395329Y-149133030D01*
X292418429Y-149124765D01*
X292442227Y-149118804D01*
X292466496Y-149115204D01*
X292491000Y-149114000D01*
X293741000Y-149114000D01*
X293765504Y-149115204D01*
G37*
G04 #@! TD.AperFunction*
G04 #@! TA.AperFunction,SMDPad,CuDef*
G36*
X293765504Y-146315204D02*
G01*
X293789773Y-146318804D01*
X293813571Y-146324765D01*
X293836671Y-146333030D01*
X293858849Y-146343520D01*
X293879893Y-146356133D01*
X293899598Y-146370747D01*
X293917777Y-146387223D01*
X293934253Y-146405402D01*
X293948867Y-146425107D01*
X293961480Y-146446151D01*
X293971970Y-146468329D01*
X293980235Y-146491429D01*
X293986196Y-146515227D01*
X293989796Y-146539496D01*
X293991000Y-146564000D01*
X293991000Y-147314000D01*
X293989796Y-147338504D01*
X293986196Y-147362773D01*
X293980235Y-147386571D01*
X293971970Y-147409671D01*
X293961480Y-147431849D01*
X293948867Y-147452893D01*
X293934253Y-147472598D01*
X293917777Y-147490777D01*
X293899598Y-147507253D01*
X293879893Y-147521867D01*
X293858849Y-147534480D01*
X293836671Y-147544970D01*
X293813571Y-147553235D01*
X293789773Y-147559196D01*
X293765504Y-147562796D01*
X293741000Y-147564000D01*
X292491000Y-147564000D01*
X292466496Y-147562796D01*
X292442227Y-147559196D01*
X292418429Y-147553235D01*
X292395329Y-147544970D01*
X292373151Y-147534480D01*
X292352107Y-147521867D01*
X292332402Y-147507253D01*
X292314223Y-147490777D01*
X292297747Y-147472598D01*
X292283133Y-147452893D01*
X292270520Y-147431849D01*
X292260030Y-147409671D01*
X292251765Y-147386571D01*
X292245804Y-147362773D01*
X292242204Y-147338504D01*
X292241000Y-147314000D01*
X292241000Y-146564000D01*
X292242204Y-146539496D01*
X292245804Y-146515227D01*
X292251765Y-146491429D01*
X292260030Y-146468329D01*
X292270520Y-146446151D01*
X292283133Y-146425107D01*
X292297747Y-146405402D01*
X292314223Y-146387223D01*
X292332402Y-146370747D01*
X292352107Y-146356133D01*
X292373151Y-146343520D01*
X292395329Y-146333030D01*
X292418429Y-146324765D01*
X292442227Y-146318804D01*
X292466496Y-146315204D01*
X292491000Y-146314000D01*
X293741000Y-146314000D01*
X293765504Y-146315204D01*
G37*
G04 #@! TD.AperFunction*
D16*
X351150100Y-140693300D03*
X351150100Y-142593300D03*
D23*
X365056600Y-142849800D03*
X359776600Y-142849800D03*
D19*
X263824900Y-151333400D03*
X263824900Y-146053400D03*
D14*
X125515300Y-145482800D03*
X125515300Y-147582800D03*
X123515300Y-146532800D03*
G04 #@! TA.AperFunction,SMDPad,CuDef*
D15*
G36*
X256945504Y-148224204D02*
G01*
X256969773Y-148227804D01*
X256993571Y-148233765D01*
X257016671Y-148242030D01*
X257038849Y-148252520D01*
X257059893Y-148265133D01*
X257079598Y-148279747D01*
X257097777Y-148296223D01*
X257114253Y-148314402D01*
X257128867Y-148334107D01*
X257141480Y-148355151D01*
X257151970Y-148377329D01*
X257160235Y-148400429D01*
X257166196Y-148424227D01*
X257169796Y-148448496D01*
X257171000Y-148473000D01*
X257171000Y-149723000D01*
X257169796Y-149747504D01*
X257166196Y-149771773D01*
X257160235Y-149795571D01*
X257151970Y-149818671D01*
X257141480Y-149840849D01*
X257128867Y-149861893D01*
X257114253Y-149881598D01*
X257097777Y-149899777D01*
X257079598Y-149916253D01*
X257059893Y-149930867D01*
X257038849Y-149943480D01*
X257016671Y-149953970D01*
X256993571Y-149962235D01*
X256969773Y-149968196D01*
X256945504Y-149971796D01*
X256921000Y-149973000D01*
X256171000Y-149973000D01*
X256146496Y-149971796D01*
X256122227Y-149968196D01*
X256098429Y-149962235D01*
X256075329Y-149953970D01*
X256053151Y-149943480D01*
X256032107Y-149930867D01*
X256012402Y-149916253D01*
X255994223Y-149899777D01*
X255977747Y-149881598D01*
X255963133Y-149861893D01*
X255950520Y-149840849D01*
X255940030Y-149818671D01*
X255931765Y-149795571D01*
X255925804Y-149771773D01*
X255922204Y-149747504D01*
X255921000Y-149723000D01*
X255921000Y-148473000D01*
X255922204Y-148448496D01*
X255925804Y-148424227D01*
X255931765Y-148400429D01*
X255940030Y-148377329D01*
X255950520Y-148355151D01*
X255963133Y-148334107D01*
X255977747Y-148314402D01*
X255994223Y-148296223D01*
X256012402Y-148279747D01*
X256032107Y-148265133D01*
X256053151Y-148252520D01*
X256075329Y-148242030D01*
X256098429Y-148233765D01*
X256122227Y-148227804D01*
X256146496Y-148224204D01*
X256171000Y-148223000D01*
X256921000Y-148223000D01*
X256945504Y-148224204D01*
G37*
G04 #@! TD.AperFunction*
G04 #@! TA.AperFunction,SMDPad,CuDef*
G36*
X254145504Y-148224204D02*
G01*
X254169773Y-148227804D01*
X254193571Y-148233765D01*
X254216671Y-148242030D01*
X254238849Y-148252520D01*
X254259893Y-148265133D01*
X254279598Y-148279747D01*
X254297777Y-148296223D01*
X254314253Y-148314402D01*
X254328867Y-148334107D01*
X254341480Y-148355151D01*
X254351970Y-148377329D01*
X254360235Y-148400429D01*
X254366196Y-148424227D01*
X254369796Y-148448496D01*
X254371000Y-148473000D01*
X254371000Y-149723000D01*
X254369796Y-149747504D01*
X254366196Y-149771773D01*
X254360235Y-149795571D01*
X254351970Y-149818671D01*
X254341480Y-149840849D01*
X254328867Y-149861893D01*
X254314253Y-149881598D01*
X254297777Y-149899777D01*
X254279598Y-149916253D01*
X254259893Y-149930867D01*
X254238849Y-149943480D01*
X254216671Y-149953970D01*
X254193571Y-149962235D01*
X254169773Y-149968196D01*
X254145504Y-149971796D01*
X254121000Y-149973000D01*
X253371000Y-149973000D01*
X253346496Y-149971796D01*
X253322227Y-149968196D01*
X253298429Y-149962235D01*
X253275329Y-149953970D01*
X253253151Y-149943480D01*
X253232107Y-149930867D01*
X253212402Y-149916253D01*
X253194223Y-149899777D01*
X253177747Y-149881598D01*
X253163133Y-149861893D01*
X253150520Y-149840849D01*
X253140030Y-149818671D01*
X253131765Y-149795571D01*
X253125804Y-149771773D01*
X253122204Y-149747504D01*
X253121000Y-149723000D01*
X253121000Y-148473000D01*
X253122204Y-148448496D01*
X253125804Y-148424227D01*
X253131765Y-148400429D01*
X253140030Y-148377329D01*
X253150520Y-148355151D01*
X253163133Y-148334107D01*
X253177747Y-148314402D01*
X253194223Y-148296223D01*
X253212402Y-148279747D01*
X253232107Y-148265133D01*
X253253151Y-148252520D01*
X253275329Y-148242030D01*
X253298429Y-148233765D01*
X253322227Y-148227804D01*
X253346496Y-148224204D01*
X253371000Y-148223000D01*
X254121000Y-148223000D01*
X254145504Y-148224204D01*
G37*
G04 #@! TD.AperFunction*
D11*
X344098200Y-110080800D03*
D12*
X344838200Y-125450800D03*
X342298200Y-124180800D03*
X344838200Y-122910800D03*
X342298200Y-121640800D03*
X344838200Y-120370800D03*
X344838200Y-117830800D03*
X344838200Y-115290800D03*
X344838200Y-112750800D03*
X342298200Y-119100800D03*
X342298200Y-111480800D03*
X342298200Y-114020800D03*
X342298200Y-116560800D03*
D19*
X197099100Y-146786800D03*
X197099100Y-141506800D03*
X87904500Y-145583500D03*
X87904500Y-150863500D03*
D22*
X298788000Y-133134300D03*
D21*
X301328000Y-140759300D03*
X296248000Y-140759300D03*
D16*
X262770800Y-141391800D03*
X262770800Y-143291800D03*
X177261700Y-142352000D03*
X177261700Y-140452000D03*
D11*
X271015400Y-110654600D03*
D12*
X255645400Y-111394600D03*
X256915400Y-108854600D03*
X258185400Y-111394600D03*
X259455400Y-108854600D03*
X260725400Y-111394600D03*
X263265400Y-111394600D03*
X265805400Y-111394600D03*
X268345400Y-111394600D03*
X261995400Y-108854600D03*
X269615400Y-108854600D03*
X267075400Y-108854600D03*
X264535400Y-108854600D03*
D20*
X306763600Y-142502000D03*
X306763600Y-140302000D03*
X219743200Y-141102100D03*
X219743200Y-143302100D03*
D14*
X212059700Y-146050000D03*
X214059700Y-147100000D03*
X214059700Y-145000000D03*
D10*
X341002800Y-154711600D03*
D11*
X163565400Y-110294600D03*
D12*
X148195400Y-111034600D03*
X149465400Y-108494600D03*
X150735400Y-111034600D03*
X152005400Y-108494600D03*
X153275400Y-111034600D03*
X155815400Y-111034600D03*
X158355400Y-111034600D03*
X160895400Y-111034600D03*
X154545400Y-108494600D03*
X162165400Y-108494600D03*
X159625400Y-108494600D03*
X157085400Y-108494600D03*
D14*
X297466000Y-145068000D03*
X299466000Y-146118000D03*
X299466000Y-144018000D03*
D23*
X359713100Y-148234600D03*
X364993100Y-148234600D03*
D22*
X171394300Y-132664400D03*
D21*
X173934300Y-140289400D03*
X168854300Y-140289400D03*
D13*
X316312600Y-148107600D03*
X319312600Y-148107600D03*
D14*
X343891800Y-144936700D03*
X343891800Y-147036700D03*
X341891800Y-145986700D03*
D13*
X235134200Y-148018700D03*
X238134200Y-148018700D03*
D19*
X305138000Y-145596200D03*
X305138000Y-150876200D03*
G04 #@! TA.AperFunction,SMDPad,CuDef*
D15*
G36*
X169442504Y-147589204D02*
G01*
X169466773Y-147592804D01*
X169490571Y-147598765D01*
X169513671Y-147607030D01*
X169535849Y-147617520D01*
X169556893Y-147630133D01*
X169576598Y-147644747D01*
X169594777Y-147661223D01*
X169611253Y-147679402D01*
X169625867Y-147699107D01*
X169638480Y-147720151D01*
X169648970Y-147742329D01*
X169657235Y-147765429D01*
X169663196Y-147789227D01*
X169666796Y-147813496D01*
X169668000Y-147838000D01*
X169668000Y-149088000D01*
X169666796Y-149112504D01*
X169663196Y-149136773D01*
X169657235Y-149160571D01*
X169648970Y-149183671D01*
X169638480Y-149205849D01*
X169625867Y-149226893D01*
X169611253Y-149246598D01*
X169594777Y-149264777D01*
X169576598Y-149281253D01*
X169556893Y-149295867D01*
X169535849Y-149308480D01*
X169513671Y-149318970D01*
X169490571Y-149327235D01*
X169466773Y-149333196D01*
X169442504Y-149336796D01*
X169418000Y-149338000D01*
X168668000Y-149338000D01*
X168643496Y-149336796D01*
X168619227Y-149333196D01*
X168595429Y-149327235D01*
X168572329Y-149318970D01*
X168550151Y-149308480D01*
X168529107Y-149295867D01*
X168509402Y-149281253D01*
X168491223Y-149264777D01*
X168474747Y-149246598D01*
X168460133Y-149226893D01*
X168447520Y-149205849D01*
X168437030Y-149183671D01*
X168428765Y-149160571D01*
X168422804Y-149136773D01*
X168419204Y-149112504D01*
X168418000Y-149088000D01*
X168418000Y-147838000D01*
X168419204Y-147813496D01*
X168422804Y-147789227D01*
X168428765Y-147765429D01*
X168437030Y-147742329D01*
X168447520Y-147720151D01*
X168460133Y-147699107D01*
X168474747Y-147679402D01*
X168491223Y-147661223D01*
X168509402Y-147644747D01*
X168529107Y-147630133D01*
X168550151Y-147617520D01*
X168572329Y-147607030D01*
X168595429Y-147598765D01*
X168619227Y-147592804D01*
X168643496Y-147589204D01*
X168668000Y-147588000D01*
X169418000Y-147588000D01*
X169442504Y-147589204D01*
G37*
G04 #@! TD.AperFunction*
G04 #@! TA.AperFunction,SMDPad,CuDef*
G36*
X166642504Y-147589204D02*
G01*
X166666773Y-147592804D01*
X166690571Y-147598765D01*
X166713671Y-147607030D01*
X166735849Y-147617520D01*
X166756893Y-147630133D01*
X166776598Y-147644747D01*
X166794777Y-147661223D01*
X166811253Y-147679402D01*
X166825867Y-147699107D01*
X166838480Y-147720151D01*
X166848970Y-147742329D01*
X166857235Y-147765429D01*
X166863196Y-147789227D01*
X166866796Y-147813496D01*
X166868000Y-147838000D01*
X166868000Y-149088000D01*
X166866796Y-149112504D01*
X166863196Y-149136773D01*
X166857235Y-149160571D01*
X166848970Y-149183671D01*
X166838480Y-149205849D01*
X166825867Y-149226893D01*
X166811253Y-149246598D01*
X166794777Y-149264777D01*
X166776598Y-149281253D01*
X166756893Y-149295867D01*
X166735849Y-149308480D01*
X166713671Y-149318970D01*
X166690571Y-149327235D01*
X166666773Y-149333196D01*
X166642504Y-149336796D01*
X166618000Y-149338000D01*
X165868000Y-149338000D01*
X165843496Y-149336796D01*
X165819227Y-149333196D01*
X165795429Y-149327235D01*
X165772329Y-149318970D01*
X165750151Y-149308480D01*
X165729107Y-149295867D01*
X165709402Y-149281253D01*
X165691223Y-149264777D01*
X165674747Y-149246598D01*
X165660133Y-149226893D01*
X165647520Y-149205849D01*
X165637030Y-149183671D01*
X165628765Y-149160571D01*
X165622804Y-149136773D01*
X165619204Y-149112504D01*
X165618000Y-149088000D01*
X165618000Y-147838000D01*
X165619204Y-147813496D01*
X165622804Y-147789227D01*
X165628765Y-147765429D01*
X165637030Y-147742329D01*
X165647520Y-147720151D01*
X165660133Y-147699107D01*
X165674747Y-147679402D01*
X165691223Y-147661223D01*
X165709402Y-147644747D01*
X165729107Y-147630133D01*
X165750151Y-147617520D01*
X165772329Y-147607030D01*
X165795429Y-147598765D01*
X165819227Y-147592804D01*
X165843496Y-147589204D01*
X165868000Y-147588000D01*
X166618000Y-147588000D01*
X166642504Y-147589204D01*
G37*
G04 #@! TD.AperFunction*
D19*
X43688000Y-142548000D03*
X43688000Y-147828000D03*
D21*
X254134800Y-142931000D03*
X259214800Y-142931000D03*
D22*
X256674800Y-135306000D03*
D16*
X87231400Y-140667900D03*
X87231400Y-142567900D03*
G04 #@! TA.AperFunction,SMDPad,CuDef*
D15*
G36*
X84479504Y-148351204D02*
G01*
X84503773Y-148354804D01*
X84527571Y-148360765D01*
X84550671Y-148369030D01*
X84572849Y-148379520D01*
X84593893Y-148392133D01*
X84613598Y-148406747D01*
X84631777Y-148423223D01*
X84648253Y-148441402D01*
X84662867Y-148461107D01*
X84675480Y-148482151D01*
X84685970Y-148504329D01*
X84694235Y-148527429D01*
X84700196Y-148551227D01*
X84703796Y-148575496D01*
X84705000Y-148600000D01*
X84705000Y-149850000D01*
X84703796Y-149874504D01*
X84700196Y-149898773D01*
X84694235Y-149922571D01*
X84685970Y-149945671D01*
X84675480Y-149967849D01*
X84662867Y-149988893D01*
X84648253Y-150008598D01*
X84631777Y-150026777D01*
X84613598Y-150043253D01*
X84593893Y-150057867D01*
X84572849Y-150070480D01*
X84550671Y-150080970D01*
X84527571Y-150089235D01*
X84503773Y-150095196D01*
X84479504Y-150098796D01*
X84455000Y-150100000D01*
X83705000Y-150100000D01*
X83680496Y-150098796D01*
X83656227Y-150095196D01*
X83632429Y-150089235D01*
X83609329Y-150080970D01*
X83587151Y-150070480D01*
X83566107Y-150057867D01*
X83546402Y-150043253D01*
X83528223Y-150026777D01*
X83511747Y-150008598D01*
X83497133Y-149988893D01*
X83484520Y-149967849D01*
X83474030Y-149945671D01*
X83465765Y-149922571D01*
X83459804Y-149898773D01*
X83456204Y-149874504D01*
X83455000Y-149850000D01*
X83455000Y-148600000D01*
X83456204Y-148575496D01*
X83459804Y-148551227D01*
X83465765Y-148527429D01*
X83474030Y-148504329D01*
X83484520Y-148482151D01*
X83497133Y-148461107D01*
X83511747Y-148441402D01*
X83528223Y-148423223D01*
X83546402Y-148406747D01*
X83566107Y-148392133D01*
X83587151Y-148379520D01*
X83609329Y-148369030D01*
X83632429Y-148360765D01*
X83656227Y-148354804D01*
X83680496Y-148351204D01*
X83705000Y-148350000D01*
X84455000Y-148350000D01*
X84479504Y-148351204D01*
G37*
G04 #@! TD.AperFunction*
G04 #@! TA.AperFunction,SMDPad,CuDef*
G36*
X81679504Y-148351204D02*
G01*
X81703773Y-148354804D01*
X81727571Y-148360765D01*
X81750671Y-148369030D01*
X81772849Y-148379520D01*
X81793893Y-148392133D01*
X81813598Y-148406747D01*
X81831777Y-148423223D01*
X81848253Y-148441402D01*
X81862867Y-148461107D01*
X81875480Y-148482151D01*
X81885970Y-148504329D01*
X81894235Y-148527429D01*
X81900196Y-148551227D01*
X81903796Y-148575496D01*
X81905000Y-148600000D01*
X81905000Y-149850000D01*
X81903796Y-149874504D01*
X81900196Y-149898773D01*
X81894235Y-149922571D01*
X81885970Y-149945671D01*
X81875480Y-149967849D01*
X81862867Y-149988893D01*
X81848253Y-150008598D01*
X81831777Y-150026777D01*
X81813598Y-150043253D01*
X81793893Y-150057867D01*
X81772849Y-150070480D01*
X81750671Y-150080970D01*
X81727571Y-150089235D01*
X81703773Y-150095196D01*
X81679504Y-150098796D01*
X81655000Y-150100000D01*
X80905000Y-150100000D01*
X80880496Y-150098796D01*
X80856227Y-150095196D01*
X80832429Y-150089235D01*
X80809329Y-150080970D01*
X80787151Y-150070480D01*
X80766107Y-150057867D01*
X80746402Y-150043253D01*
X80728223Y-150026777D01*
X80711747Y-150008598D01*
X80697133Y-149988893D01*
X80684520Y-149967849D01*
X80674030Y-149945671D01*
X80665765Y-149922571D01*
X80659804Y-149898773D01*
X80656204Y-149874504D01*
X80655000Y-149850000D01*
X80655000Y-148600000D01*
X80656204Y-148575496D01*
X80659804Y-148551227D01*
X80665765Y-148527429D01*
X80674030Y-148504329D01*
X80684520Y-148482151D01*
X80697133Y-148461107D01*
X80711747Y-148441402D01*
X80728223Y-148423223D01*
X80746402Y-148406747D01*
X80766107Y-148392133D01*
X80787151Y-148379520D01*
X80809329Y-148369030D01*
X80832429Y-148360765D01*
X80856227Y-148354804D01*
X80880496Y-148351204D01*
X80905000Y-148350000D01*
X81655000Y-148350000D01*
X81679504Y-148351204D01*
G37*
G04 #@! TD.AperFunction*
D22*
X81186200Y-133032700D03*
D21*
X83726200Y-140657700D03*
X78646200Y-140657700D03*
G04 #@! TA.AperFunction,SMDPad,CuDef*
D15*
G36*
X119140504Y-151903204D02*
G01*
X119164773Y-151906804D01*
X119188571Y-151912765D01*
X119211671Y-151921030D01*
X119233849Y-151931520D01*
X119254893Y-151944133D01*
X119274598Y-151958747D01*
X119292777Y-151975223D01*
X119309253Y-151993402D01*
X119323867Y-152013107D01*
X119336480Y-152034151D01*
X119346970Y-152056329D01*
X119355235Y-152079429D01*
X119361196Y-152103227D01*
X119364796Y-152127496D01*
X119366000Y-152152000D01*
X119366000Y-152902000D01*
X119364796Y-152926504D01*
X119361196Y-152950773D01*
X119355235Y-152974571D01*
X119346970Y-152997671D01*
X119336480Y-153019849D01*
X119323867Y-153040893D01*
X119309253Y-153060598D01*
X119292777Y-153078777D01*
X119274598Y-153095253D01*
X119254893Y-153109867D01*
X119233849Y-153122480D01*
X119211671Y-153132970D01*
X119188571Y-153141235D01*
X119164773Y-153147196D01*
X119140504Y-153150796D01*
X119116000Y-153152000D01*
X117866000Y-153152000D01*
X117841496Y-153150796D01*
X117817227Y-153147196D01*
X117793429Y-153141235D01*
X117770329Y-153132970D01*
X117748151Y-153122480D01*
X117727107Y-153109867D01*
X117707402Y-153095253D01*
X117689223Y-153078777D01*
X117672747Y-153060598D01*
X117658133Y-153040893D01*
X117645520Y-153019849D01*
X117635030Y-152997671D01*
X117626765Y-152974571D01*
X117620804Y-152950773D01*
X117617204Y-152926504D01*
X117616000Y-152902000D01*
X117616000Y-152152000D01*
X117617204Y-152127496D01*
X117620804Y-152103227D01*
X117626765Y-152079429D01*
X117635030Y-152056329D01*
X117645520Y-152034151D01*
X117658133Y-152013107D01*
X117672747Y-151993402D01*
X117689223Y-151975223D01*
X117707402Y-151958747D01*
X117727107Y-151944133D01*
X117748151Y-151931520D01*
X117770329Y-151921030D01*
X117793429Y-151912765D01*
X117817227Y-151906804D01*
X117841496Y-151903204D01*
X117866000Y-151902000D01*
X119116000Y-151902000D01*
X119140504Y-151903204D01*
G37*
G04 #@! TD.AperFunction*
G04 #@! TA.AperFunction,SMDPad,CuDef*
G36*
X119140504Y-149103204D02*
G01*
X119164773Y-149106804D01*
X119188571Y-149112765D01*
X119211671Y-149121030D01*
X119233849Y-149131520D01*
X119254893Y-149144133D01*
X119274598Y-149158747D01*
X119292777Y-149175223D01*
X119309253Y-149193402D01*
X119323867Y-149213107D01*
X119336480Y-149234151D01*
X119346970Y-149256329D01*
X119355235Y-149279429D01*
X119361196Y-149303227D01*
X119364796Y-149327496D01*
X119366000Y-149352000D01*
X119366000Y-150102000D01*
X119364796Y-150126504D01*
X119361196Y-150150773D01*
X119355235Y-150174571D01*
X119346970Y-150197671D01*
X119336480Y-150219849D01*
X119323867Y-150240893D01*
X119309253Y-150260598D01*
X119292777Y-150278777D01*
X119274598Y-150295253D01*
X119254893Y-150309867D01*
X119233849Y-150322480D01*
X119211671Y-150332970D01*
X119188571Y-150341235D01*
X119164773Y-150347196D01*
X119140504Y-150350796D01*
X119116000Y-150352000D01*
X117866000Y-150352000D01*
X117841496Y-150350796D01*
X117817227Y-150347196D01*
X117793429Y-150341235D01*
X117770329Y-150332970D01*
X117748151Y-150322480D01*
X117727107Y-150309867D01*
X117707402Y-150295253D01*
X117689223Y-150278777D01*
X117672747Y-150260598D01*
X117658133Y-150240893D01*
X117645520Y-150219849D01*
X117635030Y-150197671D01*
X117626765Y-150174571D01*
X117620804Y-150150773D01*
X117617204Y-150126504D01*
X117616000Y-150102000D01*
X117616000Y-149352000D01*
X117617204Y-149327496D01*
X117620804Y-149303227D01*
X117626765Y-149279429D01*
X117635030Y-149256329D01*
X117645520Y-149234151D01*
X117658133Y-149213107D01*
X117672747Y-149193402D01*
X117689223Y-149175223D01*
X117707402Y-149158747D01*
X117727107Y-149144133D01*
X117748151Y-149131520D01*
X117770329Y-149121030D01*
X117793429Y-149112765D01*
X117817227Y-149106804D01*
X117841496Y-149103204D01*
X117866000Y-149102000D01*
X119116000Y-149102000D01*
X119140504Y-149103204D01*
G37*
G04 #@! TD.AperFunction*
D10*
X297327500Y-154597300D03*
D24*
X373972000Y-148221900D03*
D19*
X50292000Y-147828000D03*
X50292000Y-142548000D03*
D11*
X375467200Y-109522000D03*
D12*
X376207200Y-122352000D03*
X373667200Y-121082000D03*
X376207200Y-119812000D03*
X376207200Y-117272000D03*
X376207200Y-114732000D03*
X376207200Y-112192000D03*
X373667200Y-118542000D03*
X373667200Y-110922000D03*
X373667200Y-113462000D03*
X373667200Y-116002000D03*
D13*
X244103200Y-148018700D03*
X241103200Y-148018700D03*
D21*
X209303800Y-141534000D03*
X214383800Y-141534000D03*
D22*
X211843800Y-133909000D03*
D20*
X89263400Y-140124200D03*
X89263400Y-142324200D03*
X264802800Y-140822700D03*
X264802800Y-143022700D03*
D16*
X304706200Y-142771100D03*
X304706200Y-140871100D03*
G04 #@! TA.AperFunction,SMDPad,CuDef*
D15*
G36*
X210327504Y-148224204D02*
G01*
X210351773Y-148227804D01*
X210375571Y-148233765D01*
X210398671Y-148242030D01*
X210420849Y-148252520D01*
X210441893Y-148265133D01*
X210461598Y-148279747D01*
X210479777Y-148296223D01*
X210496253Y-148314402D01*
X210510867Y-148334107D01*
X210523480Y-148355151D01*
X210533970Y-148377329D01*
X210542235Y-148400429D01*
X210548196Y-148424227D01*
X210551796Y-148448496D01*
X210553000Y-148473000D01*
X210553000Y-149723000D01*
X210551796Y-149747504D01*
X210548196Y-149771773D01*
X210542235Y-149795571D01*
X210533970Y-149818671D01*
X210523480Y-149840849D01*
X210510867Y-149861893D01*
X210496253Y-149881598D01*
X210479777Y-149899777D01*
X210461598Y-149916253D01*
X210441893Y-149930867D01*
X210420849Y-149943480D01*
X210398671Y-149953970D01*
X210375571Y-149962235D01*
X210351773Y-149968196D01*
X210327504Y-149971796D01*
X210303000Y-149973000D01*
X209553000Y-149973000D01*
X209528496Y-149971796D01*
X209504227Y-149968196D01*
X209480429Y-149962235D01*
X209457329Y-149953970D01*
X209435151Y-149943480D01*
X209414107Y-149930867D01*
X209394402Y-149916253D01*
X209376223Y-149899777D01*
X209359747Y-149881598D01*
X209345133Y-149861893D01*
X209332520Y-149840849D01*
X209322030Y-149818671D01*
X209313765Y-149795571D01*
X209307804Y-149771773D01*
X209304204Y-149747504D01*
X209303000Y-149723000D01*
X209303000Y-148473000D01*
X209304204Y-148448496D01*
X209307804Y-148424227D01*
X209313765Y-148400429D01*
X209322030Y-148377329D01*
X209332520Y-148355151D01*
X209345133Y-148334107D01*
X209359747Y-148314402D01*
X209376223Y-148296223D01*
X209394402Y-148279747D01*
X209414107Y-148265133D01*
X209435151Y-148252520D01*
X209457329Y-148242030D01*
X209480429Y-148233765D01*
X209504227Y-148227804D01*
X209528496Y-148224204D01*
X209553000Y-148223000D01*
X210303000Y-148223000D01*
X210327504Y-148224204D01*
G37*
G04 #@! TD.AperFunction*
G04 #@! TA.AperFunction,SMDPad,CuDef*
G36*
X213127504Y-148224204D02*
G01*
X213151773Y-148227804D01*
X213175571Y-148233765D01*
X213198671Y-148242030D01*
X213220849Y-148252520D01*
X213241893Y-148265133D01*
X213261598Y-148279747D01*
X213279777Y-148296223D01*
X213296253Y-148314402D01*
X213310867Y-148334107D01*
X213323480Y-148355151D01*
X213333970Y-148377329D01*
X213342235Y-148400429D01*
X213348196Y-148424227D01*
X213351796Y-148448496D01*
X213353000Y-148473000D01*
X213353000Y-149723000D01*
X213351796Y-149747504D01*
X213348196Y-149771773D01*
X213342235Y-149795571D01*
X213333970Y-149818671D01*
X213323480Y-149840849D01*
X213310867Y-149861893D01*
X213296253Y-149881598D01*
X213279777Y-149899777D01*
X213261598Y-149916253D01*
X213241893Y-149930867D01*
X213220849Y-149943480D01*
X213198671Y-149953970D01*
X213175571Y-149962235D01*
X213151773Y-149968196D01*
X213127504Y-149971796D01*
X213103000Y-149973000D01*
X212353000Y-149973000D01*
X212328496Y-149971796D01*
X212304227Y-149968196D01*
X212280429Y-149962235D01*
X212257329Y-149953970D01*
X212235151Y-149943480D01*
X212214107Y-149930867D01*
X212194402Y-149916253D01*
X212176223Y-149899777D01*
X212159747Y-149881598D01*
X212145133Y-149861893D01*
X212132520Y-149840849D01*
X212122030Y-149818671D01*
X212113765Y-149795571D01*
X212107804Y-149771773D01*
X212104204Y-149747504D01*
X212103000Y-149723000D01*
X212103000Y-148473000D01*
X212104204Y-148448496D01*
X212107804Y-148424227D01*
X212113765Y-148400429D01*
X212122030Y-148377329D01*
X212132520Y-148355151D01*
X212145133Y-148334107D01*
X212159747Y-148314402D01*
X212176223Y-148296223D01*
X212194402Y-148279747D01*
X212214107Y-148265133D01*
X212235151Y-148252520D01*
X212257329Y-148242030D01*
X212280429Y-148233765D01*
X212304227Y-148227804D01*
X212328496Y-148224204D01*
X212353000Y-148223000D01*
X213103000Y-148223000D01*
X213127504Y-148224204D01*
G37*
G04 #@! TD.AperFunction*
D10*
X42933800Y-154800500D03*
D11*
X365396100Y-107794800D03*
D12*
X366136100Y-123164800D03*
X363596100Y-121894800D03*
X366136100Y-120624800D03*
X363596100Y-119354800D03*
X366136100Y-118084800D03*
X366136100Y-115544800D03*
X366136100Y-113004800D03*
X366136100Y-110464800D03*
X363596100Y-116814800D03*
X363596100Y-109194800D03*
X363596100Y-111734800D03*
X363596100Y-114274800D03*
D10*
X209951500Y-154737000D03*
D13*
X61282500Y-148310800D03*
X64282500Y-148310800D03*
D20*
X131529000Y-140810000D03*
X131529000Y-143010000D03*
D11*
X188725400Y-110464600D03*
D12*
X175895400Y-111204600D03*
X177165400Y-108664600D03*
X178435400Y-111204600D03*
X180975400Y-111204600D03*
X183515400Y-111204600D03*
X186055400Y-111204600D03*
X179705400Y-108664600D03*
X187325400Y-108664600D03*
X184785400Y-108664600D03*
X182245400Y-108664600D03*
D25*
X336902500Y-109664500D03*
X353441000Y-106426000D03*
X356743000Y-106426000D03*
X338356500Y-108902500D03*
X337629500Y-108157910D03*
X352298000Y-106425998D03*
X357568492Y-107251508D03*
X339866366Y-108496021D03*
X210058000Y-105664000D03*
X170942000Y-105340043D03*
X215078708Y-122215093D03*
X237744000Y-116586000D03*
X221742000Y-146431000D03*
X239198011Y-116468188D03*
X266942626Y-141171874D03*
X268722172Y-139376211D03*
X256667000Y-114207990D03*
X258318000Y-114207990D03*
X274066000Y-113665000D03*
X274955000Y-113030000D03*
X262302231Y-112288268D03*
X225958400Y-112591958D03*
X216592011Y-121761082D03*
X223393000Y-116205000D03*
X345567000Y-147955000D03*
X342715574Y-143579574D03*
X259688432Y-114186511D03*
X180984081Y-123196104D03*
X217043000Y-116205000D03*
X221599023Y-123698000D03*
X252243058Y-144123942D03*
X273939000Y-145161000D03*
X339725000Y-144907000D03*
X338836000Y-142452575D03*
X261874000Y-114211011D03*
X244221000Y-115189000D03*
X366903000Y-139827000D03*
X362839000Y-138084000D03*
X350079421Y-134370705D03*
X226909237Y-119213237D03*
X221846885Y-118919522D03*
X218694000Y-116058977D03*
X220846933Y-118929433D03*
X215900000Y-116586000D03*
X250190000Y-105664000D03*
X352613027Y-105316824D03*
X355854000Y-105283000D03*
X361315000Y-105282996D03*
X250021567Y-104622533D03*
X351663000Y-104521000D03*
X355146892Y-104575892D03*
X355855879Y-112423245D03*
X357930911Y-112522000D03*
X344550989Y-104622543D03*
X347345000Y-125882479D03*
X214439500Y-115511302D03*
X212788500Y-121307072D03*
X212788500Y-115511302D03*
X169926000Y-145542000D03*
X182625996Y-115570000D03*
X179226967Y-104618033D03*
X171912333Y-104886032D03*
X216223567Y-105359065D03*
X72517000Y-146177000D03*
X53409574Y-145726426D03*
X201803001Y-114338011D03*
X331724012Y-145542000D03*
X325628000Y-145542000D03*
X319532000Y-145542000D03*
X244348000Y-145542000D03*
X238252000Y-145542000D03*
X232664000Y-145542000D03*
X156718000Y-145796000D03*
X150622000Y-145796000D03*
X144780000Y-145796000D03*
X71120000Y-145288000D03*
X65024000Y-145288000D03*
X58928000Y-145306989D03*
X170688000Y-112776000D03*
X172720000Y-114808000D03*
X166116000Y-113792000D03*
X166116000Y-115824000D03*
X194564000Y-111252000D03*
X194564000Y-115062000D03*
X321056000Y-140716000D03*
X321056000Y-137160000D03*
X283464000Y-140208000D03*
X283464000Y-137160000D03*
X182591010Y-121307072D03*
X179739990Y-121307072D03*
X211074000Y-116967000D03*
X305943000Y-119380000D03*
X305943000Y-113411000D03*
X242205397Y-112598713D03*
X240919000Y-110109000D03*
X215715792Y-122988975D03*
X222449108Y-147138108D03*
X354068899Y-124326303D03*
X267970000Y-142303500D03*
X361632500Y-125158500D03*
X269049502Y-143129000D03*
X339471000Y-147320000D03*
X218328725Y-121761082D03*
X265289864Y-139332136D03*
X363739406Y-123249227D03*
X304736500Y-139763500D03*
X179468301Y-137795000D03*
X133893000Y-116078000D03*
X340360000Y-106426000D03*
X224247891Y-112695257D03*
D26*
X153474600Y-146031400D02*
X152477200Y-145034000D01*
X153474600Y-148285400D02*
X153474600Y-146031400D01*
X137795000Y-145034000D02*
X136725010Y-143964010D01*
X152477200Y-145034000D02*
X137795000Y-145034000D01*
X136725010Y-143964010D02*
X136725010Y-114734990D01*
X140425400Y-111034600D02*
X148195400Y-111034600D01*
X136725010Y-114734990D02*
X140425400Y-111034600D01*
X227901230Y-145866300D02*
X219509990Y-137475060D01*
X171962422Y-120580063D02*
X170936913Y-119554555D01*
X152005400Y-111210562D02*
X152005400Y-109413838D01*
X160349393Y-119554555D02*
X152005400Y-111210562D01*
X227901230Y-147655730D02*
X227901230Y-145866300D01*
X218933344Y-120580062D02*
X171962422Y-120580063D01*
X219509990Y-137475060D02*
X219509990Y-121156708D01*
X228365800Y-148120300D02*
X227901230Y-147655730D01*
X229369800Y-148120300D02*
X228365800Y-148120300D01*
X152005400Y-109413838D02*
X152005400Y-108494600D01*
X170936913Y-119554555D02*
X160349393Y-119554555D01*
X219509990Y-121156708D02*
X218933344Y-120580062D01*
X171124968Y-119100544D02*
X172150479Y-120126053D01*
X219964003Y-120963767D02*
X219964003Y-137287005D01*
X172150479Y-120126053D02*
X219126288Y-120126052D01*
X219964003Y-137287005D02*
X226948999Y-144272001D01*
X219126288Y-120126052D02*
X219964003Y-120963767D01*
X161341344Y-119100544D02*
X171124968Y-119100544D01*
X153275400Y-111034600D02*
X161341344Y-119100544D01*
X233641501Y-144272001D02*
X235134200Y-145764700D01*
X226948999Y-144272001D02*
X233641501Y-144272001D01*
X235134200Y-145764700D02*
X235134200Y-148018700D01*
X316086990Y-147881990D02*
X316312600Y-148107600D01*
X164605300Y-117284500D02*
X159005399Y-111684599D01*
X171877194Y-117284500D02*
X164605300Y-117284500D01*
X218889125Y-118310011D02*
X172902705Y-118310011D01*
X219914636Y-117284500D02*
X218889125Y-118310011D01*
X237492897Y-118491000D02*
X236286397Y-117284500D01*
X264470432Y-118491000D02*
X237492897Y-118491000D01*
X265102989Y-119123557D02*
X264470432Y-118491000D01*
X265102989Y-136832990D02*
X265102989Y-119123557D01*
X298177601Y-144340999D02*
X272610998Y-144340999D01*
X301704197Y-145390999D02*
X299227601Y-145390999D01*
X236286397Y-117284500D02*
X219914636Y-117284500D01*
X272610998Y-144340999D02*
X265102989Y-136832990D01*
X172902705Y-118310011D02*
X171877194Y-117284500D01*
X159005399Y-111684599D02*
X158355400Y-111034600D01*
X314828990Y-147627990D02*
X303941188Y-147627990D01*
X299227601Y-145390999D02*
X298177601Y-144340999D01*
X315308600Y-148107600D02*
X314828990Y-147627990D01*
X316312600Y-148107600D02*
X315308600Y-148107600D01*
X303941188Y-147627990D02*
X301704197Y-145390999D01*
X219265240Y-119218032D02*
X220290750Y-118192522D01*
X220290750Y-118192522D02*
X235910283Y-118192522D01*
X158062401Y-109239569D02*
X156924388Y-110377582D01*
X163425292Y-118192522D02*
X171501080Y-118192522D01*
X275521875Y-148536011D02*
X312429845Y-148536011D01*
X264094318Y-119399022D02*
X264194967Y-119499671D01*
X312429845Y-148536011D02*
X314782445Y-150888611D01*
X235910283Y-118192522D02*
X237116783Y-119399022D01*
X264194968Y-137209105D02*
X275521875Y-148536011D01*
X172526591Y-119218033D02*
X219265240Y-119218032D01*
X156924389Y-111691619D02*
X163425292Y-118192522D01*
X328276000Y-150463200D02*
X328276000Y-148209200D01*
X156924388Y-110377582D02*
X156924389Y-111691619D01*
X327850589Y-150888611D02*
X328276000Y-150463200D01*
X237116783Y-119399022D02*
X264094318Y-119399022D01*
X159156439Y-107517599D02*
X158062401Y-108611637D01*
X158062401Y-108611637D02*
X158062401Y-109239569D01*
X171501080Y-118192522D02*
X172526591Y-119218033D01*
X160895400Y-108318638D02*
X160094361Y-107517599D01*
X160895400Y-111034600D02*
X160895400Y-108318638D01*
X264194967Y-119499671D02*
X264194968Y-137209105D01*
X160094361Y-107517599D02*
X159156439Y-107517599D01*
X314782445Y-150888611D02*
X327850589Y-150888611D01*
X219319230Y-119672042D02*
X220418013Y-120770825D01*
X154545400Y-111210562D02*
X161981371Y-118646533D01*
X241103200Y-145764700D02*
X241103200Y-148018700D01*
X239156490Y-143817990D02*
X241103200Y-145764700D01*
X220418013Y-120770825D02*
X220418013Y-137098947D01*
X154545400Y-108494600D02*
X154545400Y-111210562D01*
X161981371Y-118646533D02*
X171313023Y-118646533D01*
X227137056Y-143817990D02*
X239156490Y-143817990D01*
X172338535Y-119672043D02*
X219319230Y-119672042D01*
X220418013Y-137098947D02*
X227137056Y-143817990D01*
X171313023Y-118646533D02*
X172338535Y-119672043D01*
X220102693Y-117738511D02*
X236098341Y-117738512D01*
X236098341Y-117738512D02*
X237304840Y-118945011D01*
X171689138Y-117738512D02*
X172714648Y-118764022D01*
X264648978Y-137021047D02*
X275709932Y-148082000D01*
X264648978Y-119311614D02*
X264648978Y-137021047D01*
X275709932Y-148082000D02*
X312666933Y-148082001D01*
X158975401Y-109144599D02*
X158799439Y-109144599D01*
X219077182Y-118764022D02*
X220102693Y-117738511D01*
X158799439Y-109144599D02*
X157378399Y-110565639D01*
X237304840Y-118945011D02*
X264282375Y-118945011D01*
X264282375Y-118945011D02*
X264648978Y-119311614D01*
X315019532Y-150434600D02*
X322335600Y-150434600D01*
X172714648Y-118764022D02*
X219077182Y-118764022D01*
X163613349Y-117738511D02*
X171689138Y-117738512D01*
X322335600Y-150434600D02*
X322408600Y-150361600D01*
X157378399Y-111503561D02*
X163613349Y-117738511D01*
X157378399Y-110565639D02*
X157378399Y-111503561D01*
X322408600Y-150361600D02*
X322408600Y-148107600D01*
X159625400Y-108494600D02*
X158975401Y-109144599D01*
X312666933Y-148082001D02*
X315019532Y-150434600D01*
X61282500Y-145102500D02*
X61282500Y-148310800D01*
X180975400Y-111204600D02*
X180056162Y-111204600D01*
X178308000Y-109456438D02*
X178308000Y-107909268D01*
X178308000Y-107909268D02*
X174103743Y-103705011D01*
X60251989Y-144071989D02*
X61282500Y-145102500D01*
X180056162Y-111204600D02*
X178308000Y-109456438D01*
X47752000Y-132319865D02*
X47752000Y-143622864D01*
X49979123Y-103705011D02*
X43072022Y-110612112D01*
X47752000Y-143622864D02*
X48201125Y-144071989D01*
X43072022Y-110612112D02*
X43072022Y-127639886D01*
X174103743Y-103705011D02*
X49979123Y-103705011D01*
X48201125Y-144071989D02*
X60251989Y-144071989D01*
X43072022Y-127639886D02*
X47752000Y-132319865D01*
X137587081Y-106521055D02*
X136271000Y-107837136D01*
X140353400Y-148285400D02*
X141357400Y-148285400D01*
X184624389Y-112635611D02*
X177778382Y-112635611D01*
X172933827Y-106521055D02*
X137587081Y-106521055D01*
X136271000Y-107837136D02*
X136271000Y-144203000D01*
X136271000Y-144203000D02*
X140353400Y-148285400D01*
X186055400Y-111204600D02*
X184624389Y-112635611D01*
X177778382Y-112635611D02*
X177004389Y-111861618D01*
X177004389Y-110591617D02*
X172933827Y-106521055D01*
X177004389Y-111861618D02*
X177004389Y-110591617D01*
X55314900Y-145929800D02*
X55314900Y-148183800D01*
X47297990Y-132507922D02*
X47297990Y-143810920D01*
X48013069Y-144525999D02*
X53927177Y-144525999D01*
X179705400Y-108664600D02*
X174291801Y-103251001D01*
X42618014Y-110424055D02*
X42618014Y-127827943D01*
X53927177Y-144525999D02*
X55314900Y-145913722D01*
X55314900Y-145913722D02*
X55314900Y-145929800D01*
X49791069Y-103251001D02*
X42618014Y-110424055D01*
X174291801Y-103251001D02*
X49791069Y-103251001D01*
X42618014Y-127827943D02*
X47297990Y-132507922D01*
X47297990Y-143810920D02*
X48013069Y-144525999D01*
X185078399Y-111339601D02*
X185078399Y-109992363D01*
X185078399Y-109992363D02*
X186406162Y-108664600D01*
X177966439Y-112181600D02*
X184236400Y-112181600D01*
X177458400Y-110403560D02*
X177458400Y-111673561D01*
X147426600Y-150539400D02*
X147353599Y-150612401D01*
X147353599Y-150612401D02*
X140191333Y-150612401D01*
X184236400Y-112181600D02*
X185078399Y-111339601D01*
X140191333Y-150612401D02*
X135816989Y-146238057D01*
X177458400Y-111673561D02*
X177966439Y-112181600D01*
X147426600Y-148285400D02*
X147426600Y-150539400D01*
X137399024Y-106067044D02*
X173121884Y-106067044D01*
X135816989Y-107649079D02*
X137399024Y-106067044D01*
X186406162Y-108664600D02*
X187325400Y-108664600D01*
X173121884Y-106067044D02*
X177458400Y-110403560D01*
X135816989Y-146238057D02*
X135816989Y-107649079D01*
X42164003Y-110235999D02*
X42164003Y-128016000D01*
X49603011Y-102796990D02*
X42164003Y-110235999D01*
X46843979Y-143998977D02*
X47825012Y-144980010D01*
X176377790Y-102796990D02*
X49603011Y-102796990D01*
X42164003Y-128016000D02*
X46843979Y-132695979D01*
X54407468Y-150666400D02*
X66145900Y-150666400D01*
X53739120Y-144980010D02*
X54136575Y-145377465D01*
X67149900Y-149662400D02*
X67149900Y-148412400D01*
X54136575Y-146075387D02*
X54102000Y-146109962D01*
X54136575Y-145377465D02*
X54136575Y-146075387D01*
X46843979Y-132695979D02*
X46843979Y-143998977D01*
X66145900Y-150666400D02*
X67149900Y-149662400D01*
X54102000Y-146109962D02*
X54102000Y-150360932D01*
X54102000Y-150360932D02*
X54407468Y-150666400D01*
X182245400Y-108664600D02*
X176377790Y-102796990D01*
X47825012Y-144980010D02*
X53739120Y-144980010D01*
X374136161Y-116979001D02*
X372041565Y-116979001D01*
X375557201Y-115557961D02*
X374136161Y-116979001D01*
X376207200Y-114732000D02*
X375557201Y-115381999D01*
X375557201Y-115381999D02*
X375557201Y-115557961D01*
X372041565Y-116979001D02*
X370405010Y-118615556D01*
X370405010Y-123632057D02*
X366519557Y-127517510D01*
X370405010Y-118615556D02*
X370405010Y-123632057D01*
X336902500Y-122470067D02*
X336902500Y-109664500D01*
X366519557Y-127517510D02*
X341949943Y-127517510D01*
X341949943Y-127517510D02*
X336902500Y-122470067D01*
X261995400Y-108854600D02*
X268087978Y-102762022D01*
X347491022Y-102762022D02*
X352009002Y-107280002D01*
X268087978Y-102762022D02*
X347491022Y-102762022D01*
X352009002Y-107280002D02*
X353152683Y-107280002D01*
X353441000Y-106991685D02*
X353441000Y-106426000D01*
X353152683Y-107280002D02*
X353441000Y-106991685D01*
X364286537Y-110235999D02*
X361628945Y-110235999D01*
X366136100Y-112085562D02*
X364286537Y-110235999D01*
X361628945Y-110235999D02*
X357818946Y-106426000D01*
X357818946Y-106426000D02*
X357308685Y-106426000D01*
X366136100Y-113004800D02*
X366136100Y-112085562D01*
X357308685Y-106426000D02*
X356743000Y-106426000D01*
X366143443Y-126609489D02*
X342382489Y-126609489D01*
X369496989Y-123255943D02*
X366143443Y-126609489D01*
X338356500Y-109468185D02*
X338356500Y-108902500D01*
X338356500Y-122583500D02*
X338356500Y-109468185D01*
X342382489Y-126609489D02*
X338356500Y-122583500D01*
X369496989Y-117632211D02*
X369496989Y-123255943D01*
X373667200Y-113462000D02*
X369496989Y-117632211D01*
X337629500Y-108723595D02*
X337629500Y-108157910D01*
X337629500Y-122555000D02*
X337629500Y-108723595D01*
X342138000Y-127063500D02*
X337629500Y-122555000D01*
X373667200Y-116002000D02*
X372376500Y-116002000D01*
X369951000Y-118427500D02*
X369951000Y-123444000D01*
X369951000Y-123444000D02*
X366331500Y-127063500D01*
X372376500Y-116002000D02*
X369951000Y-118427500D01*
X366331500Y-127063500D02*
X342138000Y-127063500D01*
X351797066Y-106425998D02*
X352298000Y-106425998D01*
X347679080Y-102308012D02*
X351797066Y-106425998D01*
X267096027Y-102308011D02*
X347679080Y-102308012D01*
X260725400Y-111394600D02*
X260725400Y-108678638D01*
X260725400Y-108678638D02*
X267096027Y-102308011D01*
X363596100Y-114274800D02*
X364573101Y-113297799D01*
X363997272Y-110690010D02*
X361006994Y-110690010D01*
X364573101Y-113297799D02*
X364573101Y-111265839D01*
X361006994Y-110690010D02*
X357968491Y-107651507D01*
X357968491Y-107651507D02*
X357568492Y-107251508D01*
X364573101Y-111265839D02*
X363997272Y-110690010D01*
X339866366Y-109061706D02*
X339866366Y-108496021D01*
X342753362Y-113030000D02*
X341249000Y-113030000D01*
X343861199Y-114137837D02*
X342753362Y-113030000D01*
X343861199Y-115759761D02*
X343861199Y-114137837D01*
X367201478Y-123625250D02*
X366630239Y-124196489D01*
X366630239Y-124196489D02*
X363658519Y-124196489D01*
X339866366Y-111647366D02*
X339866366Y-109061706D01*
X350592938Y-116332000D02*
X344433438Y-116332000D01*
X366136100Y-115544800D02*
X367201478Y-116610178D01*
X355231000Y-119773000D02*
X353961001Y-118503001D01*
X363658519Y-124196489D02*
X359235030Y-119773000D01*
X367201478Y-116610178D02*
X367201478Y-123625250D01*
X359235030Y-119773000D02*
X355231000Y-119773000D01*
X341249000Y-113030000D02*
X339866366Y-111647366D01*
X353961001Y-118503001D02*
X352763939Y-118503001D01*
X352763939Y-118503001D02*
X350592938Y-116332000D01*
X344433438Y-116332000D02*
X343861199Y-115759761D01*
X352582901Y-114336001D02*
X353232900Y-114986000D01*
X261194361Y-112371601D02*
X261747000Y-111818962D01*
X256622401Y-112371601D02*
X261194361Y-112371601D01*
X263525000Y-109093000D02*
X263525000Y-107967068D01*
X261747000Y-110871000D02*
X263525000Y-109093000D01*
X261747000Y-111818962D02*
X261747000Y-110871000D01*
X255645400Y-111394600D02*
X256622401Y-112371601D01*
X268276035Y-103216033D02*
X341462933Y-103216033D01*
X341462933Y-103216033D02*
X352582901Y-114336001D01*
X263525000Y-107967068D02*
X268276035Y-103216033D01*
X356422899Y-115606001D02*
X355772900Y-116256000D01*
X356749900Y-108259038D02*
X356749900Y-115279000D01*
X349208318Y-100717456D02*
X356749900Y-108259038D01*
X356749900Y-115279000D02*
X356422899Y-115606001D01*
X252882544Y-100717456D02*
X349208318Y-100717456D01*
X244745400Y-108854600D02*
X252882544Y-100717456D01*
X349396376Y-100263446D02*
X357203911Y-108070981D01*
X243475400Y-110475362D02*
X243768399Y-110182363D01*
X357203911Y-116270951D02*
X355948862Y-117526000D01*
X243768399Y-110182363D02*
X243768399Y-108385639D01*
X354152138Y-117526000D02*
X353232900Y-117526000D01*
X251890593Y-100263445D02*
X349396376Y-100263446D01*
X243768399Y-108385639D02*
X251890593Y-100263445D01*
X357203911Y-108070981D02*
X357203911Y-116270951D01*
X355948862Y-117526000D02*
X354152138Y-117526000D01*
X243475400Y-111394600D02*
X243475400Y-110475362D01*
X84779200Y-144720800D02*
X85990000Y-143510000D01*
D27*
X84075200Y-144720800D02*
X80042300Y-144720800D01*
X80042300Y-144720800D02*
X78646200Y-143324700D01*
X78646200Y-143324700D02*
X78646200Y-140657700D01*
D26*
X85990000Y-143510000D02*
X88931600Y-143510000D01*
X88931600Y-143510000D02*
X89263400Y-143178200D01*
X89263400Y-143178200D02*
X89263400Y-142324200D01*
X84075200Y-144720800D02*
X84779200Y-144720800D01*
X89263400Y-140124200D02*
X89263400Y-140606600D01*
X89263400Y-140606600D02*
X88265000Y-141605000D01*
X88265000Y-141605000D02*
X87590300Y-141605000D01*
X87590300Y-141605000D02*
X87231400Y-141963900D01*
X87231400Y-141963900D02*
X87231400Y-142567900D01*
X125515300Y-145482800D02*
X126219300Y-145482800D01*
X126219300Y-145482800D02*
X127745999Y-143956101D01*
X127745999Y-143956101D02*
X131436899Y-143956101D01*
X131436899Y-143956101D02*
X131529000Y-143864000D01*
X131529000Y-143864000D02*
X131529000Y-143010000D01*
D27*
X122622800Y-145482800D02*
X121115000Y-143975000D01*
X121115000Y-143975000D02*
X121115000Y-141305400D01*
X125515300Y-145482800D02*
X122622800Y-145482800D01*
D26*
X129970200Y-142240000D02*
X129535100Y-142675100D01*
X129535100Y-142675100D02*
X129535100Y-143279100D01*
X131529000Y-140810000D02*
X131529000Y-140973802D01*
X131529000Y-140973802D02*
X130262802Y-142240000D01*
X130262802Y-142240000D02*
X129970200Y-142240000D01*
X173394300Y-144581100D02*
X177662200Y-144581100D01*
X179268300Y-142975000D02*
X179268300Y-142121000D01*
X177662200Y-144581100D02*
X179268300Y-142975000D01*
D27*
X168910000Y-143002000D02*
X168899900Y-143002000D01*
X168854300Y-142956400D02*
X168854300Y-140289400D01*
X168899900Y-143002000D02*
X168854300Y-142956400D01*
X170489100Y-144581100D02*
X168910000Y-143002000D01*
X173394300Y-144581100D02*
X170489100Y-144581100D01*
D26*
X177711300Y-141478000D02*
X177531700Y-141478000D01*
X177531700Y-141478000D02*
X177261700Y-141748000D01*
X177261700Y-141748000D02*
X177261700Y-142352000D01*
X179268300Y-139921000D02*
X177711300Y-141478000D01*
D27*
X214059700Y-145000000D02*
X210102800Y-145000000D01*
X210102800Y-145000000D02*
X209303800Y-144201000D01*
X209303800Y-144201000D02*
X209303800Y-141534000D01*
D26*
X219743200Y-143302100D02*
X219743200Y-144156100D01*
X219743200Y-144156100D02*
X219373300Y-144526000D01*
X214763700Y-145000000D02*
X214059700Y-145000000D01*
X215237700Y-144526000D02*
X214763700Y-145000000D01*
X219373300Y-144526000D02*
X215237700Y-144526000D01*
X219743200Y-141102100D02*
X219743200Y-141956100D01*
X219743200Y-141956100D02*
X219389199Y-142310101D01*
X219389199Y-142310101D02*
X218355599Y-142310101D01*
X218355599Y-142310101D02*
X217736600Y-142929100D01*
X217736600Y-142929100D02*
X217736600Y-143533100D01*
X260318000Y-145870000D02*
X262219199Y-143968801D01*
X262219199Y-143968801D02*
X264710699Y-143968801D01*
X264710699Y-143968801D02*
X264802800Y-143876700D01*
X264802800Y-143876700D02*
X264802800Y-143022700D01*
D27*
X260318000Y-146524000D02*
X255060800Y-146524000D01*
X255060800Y-146524000D02*
X254134800Y-145598000D01*
X254134800Y-145598000D02*
X254134800Y-142931000D01*
D26*
X260318000Y-146524000D02*
X260318000Y-145870000D01*
X264802800Y-140822700D02*
X264802800Y-141676700D01*
X264410699Y-142068801D02*
X263389799Y-142068801D01*
X263389799Y-142068801D02*
X262770800Y-142687800D01*
X264802800Y-141676700D02*
X264410699Y-142068801D01*
X262770800Y-142687800D02*
X262770800Y-143291800D01*
X306763600Y-140302000D02*
X306763600Y-141156000D01*
X306763600Y-141156000D02*
X306371499Y-141548101D01*
X306371499Y-141548101D02*
X305325199Y-141548101D01*
X305325199Y-141548101D02*
X304706200Y-142167100D01*
X304706200Y-142167100D02*
X304706200Y-142771100D01*
X306763600Y-143356000D02*
X306763600Y-142502000D01*
X306101600Y-144018000D02*
X306763600Y-143356000D01*
X299466000Y-144018000D02*
X306101600Y-144018000D01*
D27*
X297835000Y-140759300D02*
X299466000Y-142390300D01*
X296248000Y-140759300D02*
X297835000Y-140759300D01*
X299466000Y-142390300D02*
X299466000Y-144018000D01*
D26*
X352928500Y-141478000D02*
X351661400Y-141478000D01*
X351661400Y-141478000D02*
X351150100Y-141989300D01*
X351150100Y-141989300D02*
X351150100Y-142593300D01*
X353169400Y-140383100D02*
X353169400Y-141237100D01*
X353169400Y-141237100D02*
X352928500Y-141478000D01*
X349758000Y-142789802D02*
X349758000Y-141351100D01*
X349758000Y-141351100D02*
X348716700Y-140309800D01*
X348716700Y-140309800D02*
X346557700Y-140309800D01*
X352482199Y-143270301D02*
X350238499Y-143270301D01*
X353169400Y-142583100D02*
X352482199Y-143270301D01*
X350238499Y-143270301D02*
X349758000Y-142789802D01*
D27*
X343891800Y-144936700D02*
X343891800Y-142975700D01*
X343891800Y-142975700D02*
X346557700Y-140309800D01*
D26*
X374886400Y-141244700D02*
X376895400Y-141244700D01*
X376895400Y-141244700D02*
X376943800Y-141196300D01*
X372797000Y-138993100D02*
X374834800Y-138993100D01*
D27*
X370548000Y-137956100D02*
X371585000Y-138993100D01*
X371585000Y-138993100D02*
X372797000Y-138993100D01*
D26*
X374834800Y-138993100D02*
X374886400Y-139044700D01*
D27*
X370548000Y-135394900D02*
X370548000Y-137956100D01*
D26*
X176515401Y-108014601D02*
X177165400Y-108664600D01*
X172659822Y-104159022D02*
X176515401Y-108014601D01*
X50167178Y-104159022D02*
X172659822Y-104159022D01*
X43526032Y-110800168D02*
X50167178Y-104159022D01*
X50292000Y-141404000D02*
X48206010Y-139318010D01*
X43526032Y-127451830D02*
X43526032Y-110800168D01*
X50292000Y-142548000D02*
X50292000Y-141404000D01*
X48206010Y-139318010D02*
X48206010Y-132131808D01*
X48206010Y-132131808D02*
X43526032Y-127451830D01*
X83873898Y-145583500D02*
X85900500Y-145583500D01*
X75711484Y-146831484D02*
X82625914Y-146831484D01*
X82625914Y-146831484D02*
X83873898Y-145583500D01*
X54229000Y-151130000D02*
X71412968Y-151130000D01*
X41255981Y-109859885D02*
X41255981Y-136505981D01*
X45935957Y-141185957D02*
X45935957Y-144375091D01*
X232045400Y-108854600D02*
X225079768Y-101888968D01*
X49226897Y-101888968D02*
X41255981Y-109859885D01*
X41255981Y-136505981D02*
X45935957Y-141185957D01*
X47448898Y-145888032D02*
X52543032Y-145888032D01*
X225079768Y-101888968D02*
X49226897Y-101888968D01*
X53467000Y-150368000D02*
X54229000Y-151130000D01*
X45935957Y-144375091D02*
X47448898Y-145888032D01*
X53467000Y-146812000D02*
X53467000Y-150368000D01*
X85900500Y-145583500D02*
X87904500Y-145583500D01*
X71412968Y-151130000D02*
X75711484Y-146831484D01*
X52543032Y-145888032D02*
X53467000Y-146812000D01*
X135362979Y-107461022D02*
X137483958Y-105340043D01*
X135362979Y-142801021D02*
X135362979Y-107461022D01*
X129814500Y-146345500D02*
X131818500Y-146345500D01*
X170376315Y-105340043D02*
X170942000Y-105340043D01*
X137483958Y-105340043D02*
X170376315Y-105340043D01*
X131818500Y-146345500D02*
X135362979Y-142801021D01*
X227879067Y-106086067D02*
X233187600Y-111394600D01*
X233187600Y-111394600D02*
X233315400Y-111394600D01*
X210058000Y-105664000D02*
X210480067Y-106086067D01*
X210480067Y-106086067D02*
X227879067Y-106086067D01*
X180695600Y-123935764D02*
X179739998Y-122980162D01*
X179739998Y-122980162D02*
X180251066Y-122469094D01*
X180251066Y-122469094D02*
X182035000Y-122469094D01*
X180695600Y-146338000D02*
X180695600Y-123935764D01*
X180434100Y-146599500D02*
X180695600Y-146338000D01*
X182035000Y-122469094D02*
X182053991Y-122488085D01*
X214805716Y-122488085D02*
X215078708Y-122215093D01*
X182053991Y-122488085D02*
X214805716Y-122488085D01*
X178430100Y-146599500D02*
X180434100Y-146599500D01*
X238395400Y-111394600D02*
X238395400Y-115934600D01*
X238395400Y-115934600D02*
X237744000Y-116586000D01*
X218070200Y-146431000D02*
X218041400Y-146459800D01*
X221742000Y-146431000D02*
X218070200Y-146431000D01*
X241912401Y-110066837D02*
X241912401Y-111863561D01*
X241912401Y-111863561D02*
X239198011Y-114577951D01*
X242205400Y-108854600D02*
X242205400Y-109773838D01*
X239198011Y-114577951D02*
X239198011Y-115902503D01*
X239198011Y-115902503D02*
X239198011Y-116468188D01*
X242205400Y-109773838D02*
X241912401Y-110066837D01*
X266954000Y-141183248D02*
X266942626Y-141171874D01*
X266954000Y-144928300D02*
X266954000Y-141183248D01*
X263824900Y-146053400D02*
X265828900Y-146053400D01*
X265828900Y-146053400D02*
X266954000Y-144928300D01*
X265610989Y-118989489D02*
X262591521Y-115970021D01*
X262591521Y-115970021D02*
X258429031Y-115970021D01*
X257066999Y-114607989D02*
X256667000Y-114207990D01*
X265610989Y-136265028D02*
X265610989Y-118989489D01*
X258429031Y-115970021D02*
X257066999Y-114607989D01*
X268722172Y-139376211D02*
X265610989Y-136265028D01*
X259626021Y-115516011D02*
X258318000Y-114207990D01*
X306777501Y-138527299D02*
X294542701Y-138527299D01*
X274261083Y-143886973D02*
X266065000Y-135690890D01*
X308356000Y-144382200D02*
X308356000Y-140105798D01*
X294542701Y-138527299D02*
X289183011Y-143886989D01*
X266065000Y-135690890D02*
X266065000Y-117719750D01*
X263861261Y-115516011D02*
X259626021Y-115516011D01*
X308356000Y-140105798D02*
X306777501Y-138527299D01*
X274261083Y-143886989D02*
X274261083Y-143886973D01*
X305138000Y-145596200D02*
X307142000Y-145596200D01*
X266065000Y-117719750D02*
X263861261Y-115516011D01*
X289183011Y-143886989D02*
X274261083Y-143886989D01*
X307142000Y-145596200D02*
X308356000Y-144382200D01*
X302833947Y-105864011D02*
X281047304Y-105864011D01*
X313824068Y-144018000D02*
X304091989Y-134285921D01*
X341361702Y-144018000D02*
X313824068Y-144018000D01*
X348140200Y-145850200D02*
X343193902Y-145850200D01*
X343193902Y-145850200D02*
X341361702Y-144018000D01*
X304091989Y-134285921D02*
X304091989Y-107122053D01*
X304091989Y-107122053D02*
X302833947Y-105864011D01*
X274066000Y-113099315D02*
X274066000Y-113665000D01*
X274066000Y-112845315D02*
X274066000Y-113099315D01*
X281047304Y-105864011D02*
X274066000Y-112845315D01*
X313636010Y-144472010D02*
X303637978Y-134473978D01*
X344551211Y-146304211D02*
X343012891Y-146304211D01*
X357563199Y-147067201D02*
X345314201Y-147067201D01*
X342603401Y-146713701D02*
X340261701Y-146713701D01*
X303637978Y-134473978D02*
X303637978Y-107310110D01*
X275354999Y-112630001D02*
X274955000Y-113030000D01*
X359776600Y-144853800D02*
X357563199Y-147067201D01*
X338020011Y-144472011D02*
X313636010Y-144472010D01*
X345314201Y-147067201D02*
X344551211Y-146304211D01*
X359776600Y-142849800D02*
X359776600Y-144853800D01*
X343012891Y-146304211D02*
X342603401Y-146713701D01*
X302645890Y-106318022D02*
X281666978Y-106318022D01*
X340261701Y-146713701D02*
X338020011Y-144472011D01*
X303637978Y-107310110D02*
X302645890Y-106318022D01*
X281666978Y-106318022D02*
X275354999Y-112630001D01*
X262288399Y-110971669D02*
X262288399Y-111708751D01*
X263885401Y-109504599D02*
X263755469Y-109504599D01*
X262302231Y-111722583D02*
X262302231Y-112288268D01*
X264535400Y-108854600D02*
X263885401Y-109504599D01*
X263755469Y-109504599D02*
X262288399Y-110971669D01*
X262288399Y-111708751D02*
X262302231Y-111722583D01*
X197099100Y-140362800D02*
X198159901Y-139301999D01*
X197099100Y-141506800D02*
X197099100Y-140362800D01*
X198159901Y-139301999D02*
X215229403Y-139301999D01*
X215229403Y-139301999D02*
X216592011Y-137939391D01*
X216592011Y-137939391D02*
X216592011Y-122326767D01*
X216592011Y-122326767D02*
X216592011Y-121761082D01*
X225958400Y-112591958D02*
X225958400Y-113639600D01*
X223792999Y-115805001D02*
X223393000Y-116205000D01*
X225958400Y-113639600D02*
X223792999Y-115805001D01*
X359433500Y-147955000D02*
X359713100Y-148234600D01*
X345567000Y-147955000D02*
X359433500Y-147955000D01*
X260563921Y-115062000D02*
X259688432Y-114186511D01*
X271018000Y-115062000D02*
X260563921Y-115062000D01*
X280670000Y-105410000D02*
X271018000Y-115062000D01*
X303022004Y-105410000D02*
X280670000Y-105410000D01*
X342315575Y-143179575D02*
X313627711Y-143179575D01*
X342715574Y-143579574D02*
X342315575Y-143179575D01*
X304546000Y-106933996D02*
X303022004Y-105410000D01*
X313627711Y-143179575D02*
X304546000Y-134097864D01*
X304546000Y-134097864D02*
X304546000Y-106933996D01*
X41684000Y-142548000D02*
X43688000Y-142548000D01*
X40801971Y-109671827D02*
X40801971Y-141665971D01*
X40801971Y-141665971D02*
X41684000Y-142548000D01*
X49127800Y-101346000D02*
X40801971Y-109671827D01*
X231648760Y-101346000D02*
X49127800Y-101346000D01*
X238688399Y-108385639D02*
X231648760Y-101346000D01*
X240935400Y-111394600D02*
X240016162Y-111394600D01*
X238688399Y-110066837D02*
X238688399Y-108385639D01*
X240016162Y-111394600D02*
X238688399Y-110066837D01*
X202522000Y-142638100D02*
X201269100Y-143891000D01*
X186436000Y-143891000D02*
X181384080Y-138839080D01*
X202522000Y-141494100D02*
X202522000Y-142638100D01*
X201269100Y-143891000D02*
X186436000Y-143891000D01*
X181384080Y-123596103D02*
X180984081Y-123196104D01*
X181384080Y-138839080D02*
X181384080Y-123596103D01*
X216923066Y-116205000D02*
X217043000Y-116205000D01*
X215725400Y-108714600D02*
X215725400Y-115007334D01*
X215725400Y-115007334D02*
X216923066Y-116205000D01*
X221599023Y-123698000D02*
X221599023Y-136946457D01*
X221599023Y-136946457D02*
X227562536Y-142909970D01*
X227562536Y-142909970D02*
X250282030Y-142909970D01*
X251856990Y-144123942D02*
X252243058Y-144123942D01*
X250282030Y-142909970D02*
X250643018Y-142909970D01*
X250643018Y-142909970D02*
X251856990Y-144123942D01*
X297373000Y-145161000D02*
X297466000Y-145068000D01*
X273939000Y-145161000D02*
X297373000Y-145161000D01*
X341891800Y-145986700D02*
X340804700Y-145986700D01*
X340804700Y-145986700D02*
X339725000Y-144907000D01*
X338836000Y-142452575D02*
X313542777Y-142452575D01*
X313542777Y-142452575D02*
X305000010Y-133909808D01*
X305000010Y-133909808D02*
X305000010Y-106745939D01*
X305000010Y-106745939D02*
X303210061Y-104955990D01*
X280481943Y-104955990D02*
X271683953Y-113753980D01*
X303210061Y-104955990D02*
X280481943Y-104955990D01*
X271683953Y-113753980D02*
X271226922Y-114211011D01*
X271226922Y-114211011D02*
X261874000Y-114211011D01*
X237328001Y-117313001D02*
X232338399Y-112323399D01*
X244221000Y-115189000D02*
X242096999Y-117313001D01*
X232338399Y-111511637D02*
X227379762Y-106553000D01*
X232338399Y-112323399D02*
X232338399Y-111511637D01*
X242096999Y-117313001D02*
X237328001Y-117313001D01*
X220427000Y-106553000D02*
X218265400Y-108714600D01*
X227379762Y-106553000D02*
X220427000Y-106553000D01*
X370797000Y-140043100D02*
X367119100Y-140043100D01*
X367119100Y-140043100D02*
X366903000Y-139827000D01*
X362839000Y-138084000D02*
X353792716Y-138084000D01*
X353792716Y-138084000D02*
X350079421Y-134370705D01*
X226909237Y-119213237D02*
X222140600Y-119213237D01*
X222140600Y-119213237D02*
X221846885Y-118919522D01*
X220805400Y-113947577D02*
X220805400Y-108714600D01*
X218694000Y-116058977D02*
X220805400Y-113947577D01*
X220872023Y-118954523D02*
X220846933Y-118929433D01*
X227325112Y-143314612D02*
X220872023Y-136861523D01*
X227325112Y-143363980D02*
X227325112Y-143314612D01*
X220872023Y-136861523D02*
X220872023Y-118954523D01*
X256794000Y-147574000D02*
X256476500Y-147256500D01*
X258318000Y-147574000D02*
X256794000Y-147574000D01*
X250454961Y-143363980D02*
X227325112Y-143363980D01*
X256476500Y-147256500D02*
X254347481Y-147256500D01*
X254347481Y-147256500D02*
X250454961Y-143363980D01*
X215900000Y-116020315D02*
X215900000Y-116586000D01*
X215900000Y-115824000D02*
X215900000Y-116020315D01*
X213185400Y-108714600D02*
X213185400Y-113109400D01*
X213185400Y-113109400D02*
X215900000Y-115824000D01*
X347922315Y-101854000D02*
X351385139Y-105316824D01*
X352047342Y-105316824D02*
X352613027Y-105316824D01*
X351385139Y-105316824D02*
X352047342Y-105316824D01*
X250190000Y-105664000D02*
X254000000Y-101854000D01*
X254000000Y-101854000D02*
X347922315Y-101854000D01*
X361314996Y-105283000D02*
X361315000Y-105282996D01*
X355854000Y-105283000D02*
X361314996Y-105283000D01*
X348541990Y-101399990D02*
X351663000Y-104521000D01*
X250021567Y-104622533D02*
X253244110Y-101399990D01*
X253244110Y-101399990D02*
X348541990Y-101399990D01*
X373017201Y-110272001D02*
X373667200Y-110922000D01*
X366921093Y-104175893D02*
X373017201Y-110272001D01*
X355546891Y-104175893D02*
X366921093Y-104175893D01*
X355146892Y-104575892D02*
X355546891Y-104175893D01*
X357930911Y-113689611D02*
X363596100Y-119354800D01*
X357930911Y-112522000D02*
X357930911Y-113689611D01*
X355290194Y-112423245D02*
X353749950Y-110883001D01*
X353749950Y-110883001D02*
X350811447Y-110883001D01*
X355855879Y-112423245D02*
X355290194Y-112423245D01*
X350811447Y-110883001D02*
X344950988Y-105022542D01*
X344950988Y-105022542D02*
X344550989Y-104622543D01*
X367655489Y-111984189D02*
X367655489Y-123813307D01*
X359046973Y-120227011D02*
X354839873Y-120227011D01*
X367655489Y-123813307D02*
X366818296Y-124650500D01*
X353701861Y-119088999D02*
X352763939Y-119088999D01*
X363470462Y-124650500D02*
X359046973Y-120227011D01*
X347345000Y-124507938D02*
X347345000Y-125316794D01*
X354839873Y-120227011D02*
X353701861Y-119088999D01*
X352763939Y-119088999D02*
X347345000Y-124507938D01*
X366136100Y-110464800D02*
X367655489Y-111984189D01*
X347345000Y-125316794D02*
X347345000Y-125882479D01*
X366818296Y-124650500D02*
X363470462Y-124650500D01*
X214039501Y-115111303D02*
X214439500Y-115511302D01*
X211915400Y-111254600D02*
X211915400Y-112987202D01*
X211915400Y-112987202D02*
X214039501Y-115111303D01*
X220053001Y-145242799D02*
X220670201Y-144625599D01*
X215310201Y-145242799D02*
X220053001Y-145242799D01*
X218740400Y-121034072D02*
X213061500Y-121034072D01*
X214757000Y-145796000D02*
X215310201Y-145242799D01*
X213061500Y-121034072D02*
X212788500Y-121307072D01*
X220670201Y-139277339D02*
X219055979Y-137663117D01*
X219055979Y-137663117D02*
X219055979Y-121349651D01*
X213017700Y-145796000D02*
X214757000Y-145796000D01*
X220670201Y-144625599D02*
X220670201Y-139277339D01*
X219055979Y-121349651D02*
X218740400Y-121034072D01*
X212763700Y-146050000D02*
X213017700Y-145796000D01*
X212059700Y-146050000D02*
X212763700Y-146050000D01*
X212388501Y-115111303D02*
X212788500Y-115511302D01*
X210645400Y-108714600D02*
X210645400Y-113368202D01*
X210645400Y-113368202D02*
X212388501Y-115111303D01*
X171394300Y-145631100D02*
X170015100Y-145631100D01*
X170015100Y-145631100D02*
X169926000Y-145542000D01*
X208105400Y-108714600D02*
X207455401Y-109364599D01*
X205613000Y-111031038D02*
X205613000Y-111968960D01*
X183464680Y-115842999D02*
X183191681Y-115570000D01*
X201738961Y-115842999D02*
X183464680Y-115842999D01*
X207279439Y-109364599D02*
X205613000Y-111031038D01*
X183191681Y-115570000D02*
X182625996Y-115570000D01*
X205613000Y-111968960D02*
X201738961Y-115842999D01*
X207455401Y-109364599D02*
X207279439Y-109364599D01*
X202556439Y-109691601D02*
X204588399Y-109691601D01*
X197482871Y-104618033D02*
X202556439Y-109691601D01*
X204915401Y-109364599D02*
X205565400Y-108714600D01*
X204588399Y-109691601D02*
X204915401Y-109364599D01*
X179226967Y-104618033D02*
X197482871Y-104618033D01*
X127910702Y-144526000D02*
X132080000Y-144526000D01*
X124542299Y-146209801D02*
X126226901Y-146209801D01*
X126226901Y-146209801D02*
X127910702Y-144526000D01*
X124219300Y-146532800D02*
X124542299Y-146209801D01*
X132080000Y-144526000D02*
X134620000Y-141986000D01*
X123515300Y-146532800D02*
X124219300Y-146532800D01*
X171639334Y-104613033D02*
X171912333Y-104886032D01*
X137321967Y-104613033D02*
X171639334Y-104613033D01*
X134620000Y-107315000D02*
X137321967Y-104613033D01*
X134620000Y-141986000D02*
X134620000Y-107315000D01*
X206756000Y-109093000D02*
X206756000Y-107061000D01*
X215823568Y-104959066D02*
X216223567Y-105359065D01*
X208949967Y-104867033D02*
X215731535Y-104867033D01*
X204945399Y-110604601D02*
X205244399Y-110604601D01*
X205244399Y-110604601D02*
X206756000Y-109093000D01*
X215731535Y-104867033D02*
X215823568Y-104959066D01*
X206756000Y-107061000D02*
X208949967Y-104867033D01*
X204295400Y-111254600D02*
X204945399Y-110604601D01*
X72923200Y-145770800D02*
X82075200Y-145770800D01*
X72517000Y-146177000D02*
X72923200Y-145770800D01*
X41709993Y-110047941D02*
X41709992Y-128204057D01*
X47636955Y-145434021D02*
X53117169Y-145434021D01*
X41709992Y-128204057D02*
X46389968Y-132884036D01*
X49414954Y-102342979D02*
X41709993Y-110047941D01*
X46389968Y-132884036D02*
X46389968Y-144187034D01*
X196653779Y-102342979D02*
X49414954Y-102342979D01*
X53117169Y-145434021D02*
X53409574Y-145726426D01*
X46389968Y-144187034D02*
X47636955Y-145434021D01*
X203025400Y-108714600D02*
X196653779Y-102342979D01*
X201755400Y-114290410D02*
X201803001Y-114338011D01*
X201755400Y-111254600D02*
X201755400Y-114290410D01*
D28*
X331693200Y-145542000D02*
X331724012Y-145542000D01*
X331276000Y-148209200D02*
X331276000Y-145959200D01*
X331276000Y-145959200D02*
X331693200Y-145542000D01*
X325408600Y-145761400D02*
X325628000Y-145542000D01*
X325408600Y-148107600D02*
X325408600Y-145761400D01*
X319312600Y-145857600D02*
X319532000Y-145638200D01*
X319312600Y-148107600D02*
X319312600Y-145857600D01*
X319532000Y-145638200D02*
X319532000Y-145542000D01*
X244103200Y-145768700D02*
X244329900Y-145542000D01*
X244103200Y-148018700D02*
X244103200Y-145768700D01*
X244329900Y-145542000D02*
X244348000Y-145542000D01*
X238134200Y-145659800D02*
X238252000Y-145542000D01*
X238134200Y-148018700D02*
X238134200Y-145659800D01*
X232369800Y-145870300D02*
X232664000Y-145576100D01*
X232369800Y-148120300D02*
X232369800Y-145870300D01*
X232664000Y-145576100D02*
X232664000Y-145542000D01*
X156474600Y-146035400D02*
X156714000Y-145796000D01*
X156474600Y-148285400D02*
X156474600Y-146035400D01*
X156714000Y-145796000D02*
X156718000Y-145796000D01*
X150426600Y-145991400D02*
X150622000Y-145796000D01*
X150426600Y-148285400D02*
X150426600Y-145991400D01*
X144357400Y-146035400D02*
X144596800Y-145796000D01*
X144357400Y-148285400D02*
X144357400Y-146035400D01*
X144596800Y-145796000D02*
X144780000Y-145796000D01*
D26*
X71020300Y-145288000D02*
X71120000Y-145288000D01*
X70149900Y-148412400D02*
X70149900Y-146158400D01*
X70149900Y-146158400D02*
X71020300Y-145288000D01*
X65024000Y-145315300D02*
X65024000Y-145288000D01*
X64282500Y-148310800D02*
X64282500Y-146056800D01*
X64282500Y-146056800D02*
X65024000Y-145315300D01*
X58928000Y-145316700D02*
X58928000Y-145306989D01*
X58314900Y-148183800D02*
X58314900Y-145929800D01*
X58314900Y-145929800D02*
X58928000Y-145316700D01*
D27*
X170688000Y-112776000D02*
X172720000Y-114808000D01*
X166116000Y-113792000D02*
X166116000Y-115824000D01*
X194564000Y-111252000D02*
X194564000Y-115062000D01*
X321056000Y-140716000D02*
X321056000Y-137160000D01*
X283464000Y-140208000D02*
X283464000Y-137160000D01*
X182591010Y-121307072D02*
X179739990Y-121307072D01*
D26*
X218548001Y-117366999D02*
X211473999Y-117366999D01*
X211473999Y-117366999D02*
X211074000Y-116967000D01*
X230775400Y-111394600D02*
X224520400Y-111394600D01*
X224520400Y-111394600D02*
X218548001Y-117366999D01*
D27*
X305943000Y-119380000D02*
X305943000Y-113411000D01*
X368548000Y-148076000D02*
X368693900Y-148221900D01*
X368548000Y-143510000D02*
X368548000Y-148076000D01*
X368693900Y-148221900D02*
X373972000Y-148221900D01*
X373972000Y-148221900D02*
X365005800Y-148221900D01*
X365005800Y-148221900D02*
X364993100Y-148234600D01*
X366708600Y-142849800D02*
X367368800Y-143510000D01*
X367368800Y-143510000D02*
X368548000Y-143510000D01*
X365056600Y-142849800D02*
X366708600Y-142849800D01*
X43688000Y-147828000D02*
X43688000Y-154046300D01*
X43688000Y-154046300D02*
X42933800Y-154800500D01*
X50292000Y-147828000D02*
X43688000Y-147828000D01*
D26*
X243715286Y-113030000D02*
X256126958Y-113030000D01*
X341033044Y-103670044D02*
X345488199Y-108125199D01*
X43765624Y-104832084D02*
X43910016Y-104692574D01*
X243182401Y-109623599D02*
X242498399Y-110307601D01*
X39677989Y-108912011D02*
X43758047Y-104831954D01*
X44097547Y-104492453D02*
X48326555Y-100263445D01*
X345488199Y-112100801D02*
X344838200Y-112750800D01*
X43758047Y-104831954D02*
X43765624Y-104832084D01*
X345488199Y-108125199D02*
X345488199Y-112100801D01*
X243182401Y-108385639D02*
X243182401Y-109623599D01*
X260225451Y-113005498D02*
X260249953Y-113030000D01*
X259129934Y-113026977D02*
X259151413Y-113005498D01*
X279938826Y-103670044D02*
X341033044Y-103670044D01*
X270578870Y-113030000D02*
X279938826Y-103670044D01*
X235060207Y-100263445D02*
X243182401Y-108385639D01*
X260249953Y-113030000D02*
X270578870Y-113030000D01*
X259151413Y-113005498D02*
X260225451Y-113005498D01*
X256126958Y-113030000D02*
X256129981Y-113026977D01*
X42933800Y-154800500D02*
X40179800Y-154800500D01*
X40179800Y-154800500D02*
X39677989Y-154298689D01*
X242498399Y-111813113D02*
X243715286Y-113030000D01*
X242498399Y-110307601D02*
X242498399Y-111813113D01*
X43926277Y-104691360D02*
X44097547Y-104492453D01*
X43910016Y-104692574D02*
X43926277Y-104691360D01*
X39677989Y-154298689D02*
X39677989Y-108912011D01*
X48326555Y-100263445D02*
X235060207Y-100263445D01*
X256129981Y-113026977D02*
X259129934Y-113026977D01*
D27*
X79103400Y-150190900D02*
X80069300Y-149225000D01*
X80069300Y-149225000D02*
X81280000Y-149225000D01*
X79103400Y-154952900D02*
X79103400Y-150190900D01*
X87904500Y-150863500D02*
X87904500Y-152515500D01*
X87904500Y-152515500D02*
X85467100Y-154952900D01*
X85467100Y-154952900D02*
X82365400Y-154952900D01*
X82365400Y-154952900D02*
X79103400Y-154952900D01*
D26*
X76349400Y-154952900D02*
X72980510Y-151584010D01*
X79103400Y-154952900D02*
X76349400Y-154952900D01*
X72980510Y-151584010D02*
X71601025Y-151584010D01*
X54040943Y-151584010D02*
X53012990Y-150556057D01*
X71601025Y-151584010D02*
X54040943Y-151584010D01*
X53012990Y-147119990D02*
X52235042Y-146342042D01*
X53012990Y-150556057D02*
X53012990Y-147119990D01*
X44253440Y-146342042D02*
X40439990Y-142528592D01*
X52235042Y-146342042D02*
X44253440Y-146342042D01*
X53012990Y-147000056D02*
X53012990Y-150556057D01*
X44253440Y-146342042D02*
X52354976Y-146342042D01*
X52354976Y-146342042D02*
X53012990Y-147000056D01*
X48939743Y-100891990D02*
X233148752Y-100891990D01*
X240919000Y-109543315D02*
X240919000Y-110109000D01*
X40347962Y-142436564D02*
X40347962Y-109483770D01*
X44253440Y-146342042D02*
X40347962Y-142436564D01*
X240919000Y-108662238D02*
X240919000Y-109543315D01*
X233148752Y-100891990D02*
X240919000Y-108662238D01*
X40347962Y-109483770D02*
X48939743Y-100891990D01*
X270766927Y-113484011D02*
X260061896Y-113484011D01*
X259317991Y-113480988D02*
X256318038Y-113480988D01*
X243090695Y-113484011D02*
X242605396Y-112998712D01*
X242605396Y-112998712D02*
X242205397Y-112598713D01*
X336788055Y-104124055D02*
X280126883Y-104124055D01*
X260037394Y-113459509D02*
X259339470Y-113459509D01*
X259339470Y-113459509D02*
X259317991Y-113480988D01*
X260061896Y-113484011D02*
X260037394Y-113459509D01*
X256318038Y-113480988D02*
X256315015Y-113484011D01*
X339124999Y-106460999D02*
X336788055Y-104124055D01*
X256315015Y-113484011D02*
X243090695Y-113484011D01*
X280126883Y-104124055D02*
X270766927Y-113484011D01*
X339124999Y-118467599D02*
X339124999Y-106460999D01*
X342298200Y-121640800D02*
X339124999Y-118467599D01*
D27*
X129814500Y-151625500D02*
X129814500Y-153277500D01*
X129814500Y-153277500D02*
X128164500Y-154927500D01*
X128164500Y-154927500D02*
X126015300Y-154927500D01*
X126015300Y-154927500D02*
X122753300Y-154927500D01*
X122676000Y-154850200D02*
X122753300Y-154927500D01*
D26*
X182223057Y-122015083D02*
X182242048Y-122034074D01*
X180195301Y-142982601D02*
X180195301Y-124077533D01*
X179980943Y-122015083D02*
X182223057Y-122015083D01*
X156473102Y-151625500D02*
X161740501Y-146358101D01*
X179285987Y-122710039D02*
X179980943Y-122015083D01*
X173328697Y-145308101D02*
X177869801Y-145308101D01*
X180195301Y-124077533D02*
X179285987Y-123168219D01*
X213683453Y-121488083D02*
X215805718Y-121488083D01*
X179285987Y-123168219D02*
X179285987Y-122710039D01*
X213137462Y-122034074D02*
X213683453Y-121488083D01*
X182242048Y-122034074D02*
X213137462Y-122034074D01*
X129814500Y-151625500D02*
X156473102Y-151625500D01*
X215805718Y-122899049D02*
X215715792Y-122988975D01*
X215805718Y-121488083D02*
X215805718Y-122899049D01*
X172278697Y-146358101D02*
X173328697Y-145308101D01*
X161740501Y-146358101D02*
X172278697Y-146358101D01*
X177869801Y-145308101D02*
X180195301Y-142982601D01*
D27*
X119491300Y-154927500D02*
X122753300Y-154927500D01*
X118491000Y-153927200D02*
X119491300Y-154927500D01*
X118491000Y-152527000D02*
X118491000Y-153927200D01*
X166263500Y-154571900D02*
X177389700Y-154571900D01*
X177389700Y-154571900D02*
X178430100Y-153531500D01*
X178430100Y-153531500D02*
X178430100Y-151879500D01*
X166263500Y-154571900D02*
X166263500Y-148483500D01*
X166263500Y-148483500D02*
X166243000Y-148463000D01*
D26*
X178430100Y-150735500D02*
X178430100Y-151879500D01*
X183608501Y-145557099D02*
X178430100Y-150735500D01*
X206601067Y-146777001D02*
X205381165Y-145557099D01*
X212894066Y-146777001D02*
X206601067Y-146777001D01*
X213367067Y-146304000D02*
X212894066Y-146777001D01*
X214702302Y-146304000D02*
X213367067Y-146304000D01*
X216075103Y-147676801D02*
X214702302Y-146304000D01*
X221910415Y-147676801D02*
X216075103Y-147676801D01*
X205381165Y-145557099D02*
X183608501Y-145557099D01*
X222449108Y-147138108D02*
X221910415Y-147676801D01*
X353882899Y-120715999D02*
X353232900Y-120066000D01*
X354330000Y-121163100D02*
X353882899Y-120715999D01*
X354330000Y-124079000D02*
X354330000Y-121163100D01*
X354316202Y-124079000D02*
X354330000Y-124079000D01*
X354068899Y-124326303D02*
X354316202Y-124079000D01*
X202522000Y-146774100D02*
X197111800Y-146774100D01*
X197111800Y-146774100D02*
X197099100Y-146786800D01*
X208280000Y-149098000D02*
X205956100Y-146774100D01*
X205956100Y-146774100D02*
X202522000Y-146774100D01*
X209928000Y-149098000D02*
X208280000Y-149098000D01*
D27*
X209951500Y-154737000D02*
X216696200Y-154737000D01*
X216696200Y-154737000D02*
X218041400Y-153391800D01*
X218041400Y-153391800D02*
X218041400Y-151739800D01*
X209951500Y-154737000D02*
X209951500Y-149121500D01*
X209951500Y-149121500D02*
X209928000Y-149098000D01*
D26*
X366952364Y-125158500D02*
X362198185Y-125158500D01*
X366312062Y-109194800D02*
X368109500Y-110992238D01*
X368109500Y-124001364D02*
X366952364Y-125158500D01*
X362198185Y-125158500D02*
X361632500Y-125158500D01*
X368109500Y-110992238D02*
X368109500Y-124001364D01*
X363596100Y-109194800D02*
X366312062Y-109194800D01*
X265836501Y-147270401D02*
X267970000Y-145136902D01*
X263684202Y-147270401D02*
X265836501Y-147270401D01*
X260608104Y-150346499D02*
X263684202Y-147270401D01*
X255593990Y-149962008D02*
X255978481Y-150346499D01*
X267970000Y-145136902D02*
X267970000Y-142303500D01*
X218041400Y-151739800D02*
X248564200Y-151739800D01*
X255978481Y-150346499D02*
X260608104Y-150346499D01*
X248564200Y-151739800D02*
X252408010Y-147895990D01*
X252408010Y-147895990D02*
X254360008Y-147895990D01*
X254360008Y-147895990D02*
X255593990Y-149129972D01*
X255593990Y-149129972D02*
X255593990Y-149962008D01*
D27*
X263824900Y-151333400D02*
X263824900Y-153243100D01*
X263824900Y-153243100D02*
X262394500Y-154673500D01*
X262394500Y-154673500D02*
X256901500Y-154673500D01*
X256901500Y-154673500D02*
X253639500Y-154673500D01*
X253746000Y-149098000D02*
X253746000Y-154567000D01*
X253746000Y-154567000D02*
X253639500Y-154673500D01*
D26*
X269049502Y-143694685D02*
X269049502Y-143129000D01*
X265828900Y-151333400D02*
X269049502Y-148112798D01*
X269049502Y-148112798D02*
X269049502Y-143694685D01*
X263824900Y-151333400D02*
X265828900Y-151333400D01*
D27*
X297327500Y-154597300D02*
X303068900Y-154597300D01*
X303068900Y-154597300D02*
X305138000Y-152528200D01*
X305138000Y-152528200D02*
X305138000Y-150876200D01*
X294065500Y-154597300D02*
X297327500Y-154597300D01*
X293116000Y-153647800D02*
X294065500Y-154597300D01*
X293116000Y-149739000D02*
X293116000Y-153647800D01*
D26*
X307142000Y-150876200D02*
X307608421Y-151342621D01*
X305138000Y-150876200D02*
X307142000Y-150876200D01*
X307608421Y-151342621D02*
X335448379Y-151342621D01*
X335448379Y-151342621D02*
X339071001Y-147719999D01*
X339071001Y-147719999D02*
X339471000Y-147320000D01*
D27*
X348140200Y-151130200D02*
X348140200Y-152782200D01*
X346210800Y-154711600D02*
X344264800Y-154711600D01*
X348140200Y-152782200D02*
X346210800Y-154711600D01*
X344264800Y-154711600D02*
X341002800Y-154711600D01*
X341122000Y-149352000D02*
X341122000Y-154592400D01*
X341122000Y-154592400D02*
X341002800Y-154711600D01*
D26*
X368315999Y-129228299D02*
X375192298Y-122352000D01*
X364871000Y-140589000D02*
X368315999Y-137144001D01*
X375287962Y-122352000D02*
X376207200Y-122352000D01*
X360046102Y-151130200D02*
X363474000Y-147702302D01*
X368315999Y-137144001D02*
X368315999Y-129228299D01*
X363474000Y-147702302D02*
X363474000Y-141203798D01*
X375192298Y-122352000D02*
X375287962Y-122352000D01*
X364088798Y-140589000D02*
X364871000Y-140589000D01*
X348140200Y-151130200D02*
X360046102Y-151130200D01*
X363474000Y-141203798D02*
X364088798Y-140589000D01*
D27*
X351150100Y-140693300D02*
X351150100Y-136774100D01*
X349605800Y-135229800D02*
X346557700Y-135229800D01*
X351150100Y-136774100D02*
X349605800Y-135229800D01*
D26*
X376857199Y-112841999D02*
X376207200Y-112192000D01*
X377184201Y-113169001D02*
X376857199Y-112841999D01*
X373224738Y-117538500D02*
X374494738Y-117538500D01*
X372690199Y-118073039D02*
X373224738Y-117538500D01*
X367861989Y-136709011D02*
X367861989Y-129040242D01*
X351150100Y-140693300D02*
X351150100Y-140089300D01*
X367861989Y-129040242D02*
X368127943Y-128774289D01*
X365760000Y-138811000D02*
X367861989Y-136709011D01*
X374494738Y-117538500D02*
X376324237Y-115709001D01*
X351150100Y-140089300D02*
X352428400Y-138811000D01*
X368127943Y-128774289D02*
X374644201Y-122258031D01*
X377184201Y-115200961D02*
X377184201Y-113169001D01*
X376676161Y-115709001D02*
X377184201Y-115200961D01*
X352428400Y-138811000D02*
X365760000Y-138811000D01*
X374644201Y-122258031D02*
X374644201Y-120613039D01*
X374644201Y-120613039D02*
X373550163Y-119519001D01*
X373550163Y-119519001D02*
X373198239Y-119519001D01*
X376324237Y-115709001D02*
X376676161Y-115709001D01*
X372690199Y-119010961D02*
X372690199Y-118073039D01*
X373198239Y-119519001D02*
X372690199Y-119010961D01*
D28*
X370548000Y-130314900D02*
X372703000Y-130314900D01*
X372703000Y-130314900D02*
X377182201Y-125835699D01*
X377182201Y-125835699D02*
X377182201Y-119343999D01*
X374586438Y-118542000D02*
X373667200Y-118542000D01*
X377182201Y-119343999D02*
X376380202Y-118542000D01*
X376380202Y-118542000D02*
X374586438Y-118542000D01*
D26*
X376943800Y-139296300D02*
X376943800Y-134551700D01*
X376943800Y-134551700D02*
X372707000Y-130314900D01*
X372707000Y-130314900D02*
X370548000Y-130314900D01*
X217736600Y-141633100D02*
X214482900Y-141633100D01*
X214482900Y-141633100D02*
X214383800Y-141534000D01*
X218328725Y-122326767D02*
X218328725Y-121761082D01*
X218539054Y-140226646D02*
X218539054Y-122537096D01*
X217736600Y-141633100D02*
X217736600Y-141029100D01*
X217736600Y-141029100D02*
X218539054Y-140226646D01*
X218539054Y-122537096D02*
X218328725Y-122326767D01*
X261866800Y-141391800D02*
X260327600Y-142931000D01*
X260327600Y-142931000D02*
X259214800Y-142931000D01*
X262770800Y-141391800D02*
X261866800Y-141391800D01*
X264226464Y-139332136D02*
X265289864Y-139332136D01*
X262770800Y-141391800D02*
X262770800Y-140787800D01*
X262770800Y-140787800D02*
X264226464Y-139332136D01*
X364139405Y-122849228D02*
X363739406Y-123249227D01*
X363596100Y-111734800D02*
X362619099Y-112711801D01*
X363127139Y-115251801D02*
X363479063Y-115251801D01*
X363479063Y-115251801D02*
X364573101Y-116345839D01*
X364573101Y-116345839D02*
X364573101Y-122415532D01*
X364573101Y-122415532D02*
X364139405Y-122849228D01*
X362619099Y-112711801D02*
X362619099Y-114743761D01*
X362619099Y-114743761D02*
X363127139Y-115251801D01*
X304706200Y-140871100D02*
X301439800Y-140871100D01*
X301439800Y-140871100D02*
X301328000Y-140759300D01*
X304706200Y-139793800D02*
X304736500Y-139763500D01*
X304706200Y-140871100D02*
X304706200Y-139793800D01*
X177261700Y-140452000D02*
X174096900Y-140452000D01*
X174096900Y-140452000D02*
X173934300Y-140289400D01*
X177261700Y-140452000D02*
X177261700Y-139848000D01*
X179314700Y-137795000D02*
X179468301Y-137795000D01*
X177261700Y-139848000D02*
X179314700Y-137795000D01*
X126195000Y-141305400D02*
X129461400Y-141305400D01*
X129461400Y-141305400D02*
X129535100Y-141379100D01*
X129535100Y-140775100D02*
X134165990Y-136144210D01*
X129535100Y-141379100D02*
X129535100Y-140775100D01*
X134165990Y-136144210D02*
X134165990Y-116350990D01*
X134165990Y-116350990D02*
X133893000Y-116078000D01*
X87231400Y-140667900D02*
X83736400Y-140667900D01*
X83736400Y-140667900D02*
X83726200Y-140657700D01*
X344838200Y-114371562D02*
X344838200Y-115290800D01*
X341810990Y-112575990D02*
X343042628Y-112575990D01*
X340759999Y-111524999D02*
X341810990Y-112575990D01*
X343042628Y-112575990D02*
X344838200Y-114371562D01*
X340759999Y-106825999D02*
X340759999Y-111524999D01*
X340360000Y-106426000D02*
X340759999Y-106825999D01*
X137983056Y-144579990D02*
X137179020Y-143775954D01*
X98999801Y-147259801D02*
X124134366Y-147259801D01*
X126226901Y-146855799D02*
X127453102Y-148082000D01*
X88098101Y-139197199D02*
X90937199Y-139197199D01*
X150442401Y-108611637D02*
X151990449Y-107063589D01*
X137179020Y-114923046D02*
X140088066Y-112014000D01*
X137179020Y-143775954D02*
X137179020Y-114923046D01*
X136080411Y-151066411D02*
X154032191Y-151066411D01*
X223461812Y-113095256D02*
X223847892Y-113095256D01*
X87231400Y-140667900D02*
X87231400Y-140063900D01*
X150442401Y-108963561D02*
X150442401Y-108611637D01*
X162298351Y-107063589D02*
X173090762Y-117856000D01*
X154940000Y-150158602D02*
X154940000Y-145669000D01*
X140088066Y-112014000D02*
X148661962Y-112014000D01*
X149172401Y-110233561D02*
X150442401Y-108963561D01*
X148661962Y-112014000D02*
X149172401Y-111503561D01*
X149172401Y-111503561D02*
X149172401Y-110233561D01*
X154940000Y-145669000D02*
X153850990Y-144579990D01*
X223847892Y-113095256D02*
X224247891Y-112695257D01*
X90937199Y-139197199D02*
X98999801Y-147259801D01*
X153850990Y-144579990D02*
X137983056Y-144579990D01*
X173090762Y-117856000D02*
X218701068Y-117856000D01*
X218701068Y-117856000D02*
X223461812Y-113095256D01*
X151990449Y-107063589D02*
X162298351Y-107063589D01*
X154032191Y-151066411D02*
X154940000Y-150158602D01*
X127453102Y-148082000D02*
X133096000Y-148082000D01*
X124538368Y-146855799D02*
X126226901Y-146855799D01*
X124134366Y-147259801D02*
X124538368Y-146855799D01*
X87231400Y-140063900D02*
X88098101Y-139197199D01*
X133096000Y-148082000D02*
X136080411Y-151066411D01*
D27*
X256546000Y-149098000D02*
X259844000Y-149098000D01*
X259844000Y-149098000D02*
X260318000Y-148624000D01*
X372797000Y-143077000D02*
X372364000Y-143510000D01*
X372364000Y-143510000D02*
X371348000Y-143510000D01*
X372797000Y-141093100D02*
X372797000Y-143077000D01*
X343922000Y-149352000D02*
X343922000Y-147066900D01*
X343922000Y-147066900D02*
X343891800Y-147036700D01*
X298254000Y-146118000D02*
X297433000Y-146939000D01*
X299466000Y-146118000D02*
X298254000Y-146118000D01*
X297433000Y-146939000D02*
X293116000Y-146939000D01*
X213353000Y-149098000D02*
X214059700Y-148391300D01*
X212728000Y-149098000D02*
X213353000Y-149098000D01*
X214059700Y-148391300D02*
X214059700Y-147100000D01*
X169043000Y-148463000D02*
X171612400Y-148463000D01*
X171612400Y-148463000D02*
X173394300Y-146681100D01*
X125515300Y-148744800D02*
X125515300Y-147582800D01*
X124533100Y-149727000D02*
X125515300Y-148744800D01*
X118491000Y-149727000D02*
X124533100Y-149727000D01*
X84080000Y-149225000D02*
X84080000Y-146825600D01*
X84080000Y-146825600D02*
X84075200Y-146820800D01*
D26*
G36*
X302875979Y-107625742D02*
G01*
X302875978Y-128262132D01*
X302847482Y-128253488D01*
X302723000Y-128241228D01*
X299073750Y-128244300D01*
X298915000Y-128403050D01*
X298915000Y-133007300D01*
X298935000Y-133007300D01*
X298935000Y-133261300D01*
X298915000Y-133261300D01*
X298915000Y-133281300D01*
X298661000Y-133281300D01*
X298661000Y-133261300D01*
X294376750Y-133261300D01*
X294218000Y-133420050D01*
X294214928Y-137389300D01*
X294227188Y-137513782D01*
X294263498Y-137633480D01*
X294322463Y-137743794D01*
X294357963Y-137787051D01*
X294249686Y-137819897D01*
X294117309Y-137890654D01*
X294001279Y-137985877D01*
X293977422Y-138014947D01*
X289866209Y-142126161D01*
X273533835Y-142082094D01*
X268509802Y-137058061D01*
X282429000Y-137058061D01*
X282429000Y-137261939D01*
X282448001Y-137357464D01*
X282448000Y-140010540D01*
X282429000Y-140106061D01*
X282429000Y-140309939D01*
X282468774Y-140509898D01*
X282546795Y-140698256D01*
X282660063Y-140867774D01*
X282804226Y-141011937D01*
X282973744Y-141125205D01*
X283162102Y-141203226D01*
X283362061Y-141243000D01*
X283565939Y-141243000D01*
X283765898Y-141203226D01*
X283954256Y-141125205D01*
X284123774Y-141011937D01*
X284267937Y-140867774D01*
X284381205Y-140698256D01*
X284459226Y-140509898D01*
X284499000Y-140309939D01*
X284499000Y-140106061D01*
X284480000Y-140010541D01*
X284480000Y-137357459D01*
X284499000Y-137261939D01*
X284499000Y-137058061D01*
X284459226Y-136858102D01*
X284381205Y-136669744D01*
X284267937Y-136500226D01*
X284123774Y-136356063D01*
X283954256Y-136242795D01*
X283765898Y-136164774D01*
X283565939Y-136125000D01*
X283362061Y-136125000D01*
X283162102Y-136164774D01*
X282973744Y-136242795D01*
X282804226Y-136356063D01*
X282660063Y-136500226D01*
X282546795Y-136669744D01*
X282468774Y-136858102D01*
X282429000Y-137058061D01*
X268509802Y-137058061D01*
X266827000Y-135375260D01*
X266827000Y-128879300D01*
X294214928Y-128879300D01*
X294218000Y-132848550D01*
X294376750Y-133007300D01*
X298661000Y-133007300D01*
X298661000Y-128403050D01*
X298502250Y-128244300D01*
X294853000Y-128241228D01*
X294728518Y-128253488D01*
X294608820Y-128289798D01*
X294498506Y-128348763D01*
X294401815Y-128428115D01*
X294322463Y-128524806D01*
X294263498Y-128635120D01*
X294227188Y-128754818D01*
X294214928Y-128879300D01*
X266827000Y-128879300D01*
X266827000Y-117757173D01*
X266830686Y-117719750D01*
X266827000Y-117682324D01*
X266815974Y-117570372D01*
X266772402Y-117426735D01*
X266739465Y-117365114D01*
X266701645Y-117294357D01*
X266666857Y-117251969D01*
X266606422Y-117178328D01*
X266577346Y-117154466D01*
X266489730Y-117066850D01*
X266499747Y-115824000D01*
X270980577Y-115824000D01*
X271018000Y-115827686D01*
X271055423Y-115824000D01*
X271055426Y-115824000D01*
X271167378Y-115812974D01*
X271311015Y-115769402D01*
X271443392Y-115698645D01*
X271559422Y-115603422D01*
X271583284Y-115574346D01*
X273105909Y-114051721D01*
X273148795Y-114155256D01*
X273262063Y-114324774D01*
X273406226Y-114468937D01*
X273575744Y-114582205D01*
X273764102Y-114660226D01*
X273964061Y-114700000D01*
X274167939Y-114700000D01*
X274367898Y-114660226D01*
X274556256Y-114582205D01*
X274725774Y-114468937D01*
X274869937Y-114324774D01*
X274983205Y-114155256D01*
X275020591Y-114065000D01*
X275056939Y-114065000D01*
X275256898Y-114025226D01*
X275445256Y-113947205D01*
X275614774Y-113833937D01*
X275758937Y-113689774D01*
X275872205Y-113520256D01*
X275950226Y-113331898D01*
X275990000Y-113131939D01*
X275990000Y-113072630D01*
X281982609Y-107080022D01*
X302330260Y-107080022D01*
X302875979Y-107625742D01*
G37*
X302875979Y-107625742D02*
X302875978Y-128262132D01*
X302847482Y-128253488D01*
X302723000Y-128241228D01*
X299073750Y-128244300D01*
X298915000Y-128403050D01*
X298915000Y-133007300D01*
X298935000Y-133007300D01*
X298935000Y-133261300D01*
X298915000Y-133261300D01*
X298915000Y-133281300D01*
X298661000Y-133281300D01*
X298661000Y-133261300D01*
X294376750Y-133261300D01*
X294218000Y-133420050D01*
X294214928Y-137389300D01*
X294227188Y-137513782D01*
X294263498Y-137633480D01*
X294322463Y-137743794D01*
X294357963Y-137787051D01*
X294249686Y-137819897D01*
X294117309Y-137890654D01*
X294001279Y-137985877D01*
X293977422Y-138014947D01*
X289866209Y-142126161D01*
X273533835Y-142082094D01*
X268509802Y-137058061D01*
X282429000Y-137058061D01*
X282429000Y-137261939D01*
X282448001Y-137357464D01*
X282448000Y-140010540D01*
X282429000Y-140106061D01*
X282429000Y-140309939D01*
X282468774Y-140509898D01*
X282546795Y-140698256D01*
X282660063Y-140867774D01*
X282804226Y-141011937D01*
X282973744Y-141125205D01*
X283162102Y-141203226D01*
X283362061Y-141243000D01*
X283565939Y-141243000D01*
X283765898Y-141203226D01*
X283954256Y-141125205D01*
X284123774Y-141011937D01*
X284267937Y-140867774D01*
X284381205Y-140698256D01*
X284459226Y-140509898D01*
X284499000Y-140309939D01*
X284499000Y-140106061D01*
X284480000Y-140010541D01*
X284480000Y-137357459D01*
X284499000Y-137261939D01*
X284499000Y-137058061D01*
X284459226Y-136858102D01*
X284381205Y-136669744D01*
X284267937Y-136500226D01*
X284123774Y-136356063D01*
X283954256Y-136242795D01*
X283765898Y-136164774D01*
X283565939Y-136125000D01*
X283362061Y-136125000D01*
X283162102Y-136164774D01*
X282973744Y-136242795D01*
X282804226Y-136356063D01*
X282660063Y-136500226D01*
X282546795Y-136669744D01*
X282468774Y-136858102D01*
X282429000Y-137058061D01*
X268509802Y-137058061D01*
X266827000Y-135375260D01*
X266827000Y-128879300D01*
X294214928Y-128879300D01*
X294218000Y-132848550D01*
X294376750Y-133007300D01*
X298661000Y-133007300D01*
X298661000Y-128403050D01*
X298502250Y-128244300D01*
X294853000Y-128241228D01*
X294728518Y-128253488D01*
X294608820Y-128289798D01*
X294498506Y-128348763D01*
X294401815Y-128428115D01*
X294322463Y-128524806D01*
X294263498Y-128635120D01*
X294227188Y-128754818D01*
X294214928Y-128879300D01*
X266827000Y-128879300D01*
X266827000Y-117757173D01*
X266830686Y-117719750D01*
X266827000Y-117682324D01*
X266815974Y-117570372D01*
X266772402Y-117426735D01*
X266739465Y-117365114D01*
X266701645Y-117294357D01*
X266666857Y-117251969D01*
X266606422Y-117178328D01*
X266577346Y-117154466D01*
X266489730Y-117066850D01*
X266499747Y-115824000D01*
X270980577Y-115824000D01*
X271018000Y-115827686D01*
X271055423Y-115824000D01*
X271055426Y-115824000D01*
X271167378Y-115812974D01*
X271311015Y-115769402D01*
X271443392Y-115698645D01*
X271559422Y-115603422D01*
X271583284Y-115574346D01*
X273105909Y-114051721D01*
X273148795Y-114155256D01*
X273262063Y-114324774D01*
X273406226Y-114468937D01*
X273575744Y-114582205D01*
X273764102Y-114660226D01*
X273964061Y-114700000D01*
X274167939Y-114700000D01*
X274367898Y-114660226D01*
X274556256Y-114582205D01*
X274725774Y-114468937D01*
X274869937Y-114324774D01*
X274983205Y-114155256D01*
X275020591Y-114065000D01*
X275056939Y-114065000D01*
X275256898Y-114025226D01*
X275445256Y-113947205D01*
X275614774Y-113833937D01*
X275758937Y-113689774D01*
X275872205Y-113520256D01*
X275950226Y-113331898D01*
X275990000Y-113131939D01*
X275990000Y-113072630D01*
X281982609Y-107080022D01*
X302330260Y-107080022D01*
X302875979Y-107625742D01*
G36*
X338363000Y-106776631D02*
G01*
X338363000Y-107427699D01*
X338289274Y-107353973D01*
X338119756Y-107240705D01*
X337931398Y-107162684D01*
X337731439Y-107122910D01*
X337527561Y-107122910D01*
X337327602Y-107162684D01*
X337139244Y-107240705D01*
X336969726Y-107353973D01*
X336825563Y-107498136D01*
X336712295Y-107667654D01*
X336634274Y-107856012D01*
X336594500Y-108055971D01*
X336594500Y-108259849D01*
X336634274Y-108459808D01*
X336711871Y-108647141D01*
X336600602Y-108669274D01*
X336412244Y-108747295D01*
X336242726Y-108860563D01*
X336098563Y-109004726D01*
X335985295Y-109174244D01*
X335907274Y-109362602D01*
X335867500Y-109562561D01*
X335867500Y-109766439D01*
X335907274Y-109966398D01*
X335985295Y-110154756D01*
X336098563Y-110324274D01*
X336140501Y-110366212D01*
X336140500Y-122432644D01*
X336136814Y-122470067D01*
X336140500Y-122507490D01*
X336140500Y-122507492D01*
X336151526Y-122619444D01*
X336195098Y-122763081D01*
X336206407Y-122784239D01*
X336265855Y-122895459D01*
X336305483Y-122943745D01*
X336361078Y-123011489D01*
X336390154Y-123035351D01*
X341384664Y-128029862D01*
X341408521Y-128058932D01*
X341524551Y-128154155D01*
X341656928Y-128224912D01*
X341800565Y-128268484D01*
X341912517Y-128279510D01*
X341912519Y-128279510D01*
X341949942Y-128283196D01*
X341987365Y-128279510D01*
X345000776Y-128279510D01*
X344948317Y-133766728D01*
X344652700Y-133766728D01*
X344528218Y-133778988D01*
X344408520Y-133815298D01*
X344298206Y-133874263D01*
X344201515Y-133953615D01*
X344122163Y-134050306D01*
X344063198Y-134160620D01*
X344026888Y-134280318D01*
X344014628Y-134404800D01*
X344014628Y-136054800D01*
X344026888Y-136179282D01*
X344063198Y-136298980D01*
X344122163Y-136409294D01*
X344201515Y-136505985D01*
X344298206Y-136585337D01*
X344408520Y-136644302D01*
X344528218Y-136680612D01*
X344652700Y-136692872D01*
X344920342Y-136692872D01*
X344899751Y-138846728D01*
X344652700Y-138846728D01*
X344528218Y-138858988D01*
X344408520Y-138895298D01*
X344298206Y-138954263D01*
X344201515Y-139033615D01*
X344122163Y-139130306D01*
X344063198Y-139240620D01*
X344026888Y-139360318D01*
X344014628Y-139484800D01*
X344014628Y-141134800D01*
X344026888Y-141259282D01*
X344060517Y-141370142D01*
X343825688Y-141604972D01*
X343822700Y-138055550D01*
X343663950Y-137896800D01*
X339059700Y-137896800D01*
X339059700Y-137916800D01*
X338805700Y-137916800D01*
X338805700Y-137896800D01*
X334201450Y-137896800D01*
X334042700Y-138055550D01*
X334039640Y-141690575D01*
X321407754Y-141690575D01*
X321546256Y-141633205D01*
X321715774Y-141519937D01*
X321859937Y-141375774D01*
X321973205Y-141206256D01*
X322051226Y-141017898D01*
X322091000Y-140817939D01*
X322091000Y-140614061D01*
X322072000Y-140518541D01*
X322072000Y-137357459D01*
X322091000Y-137261939D01*
X322091000Y-137058061D01*
X322051226Y-136858102D01*
X321973205Y-136669744D01*
X321859937Y-136500226D01*
X321715774Y-136356063D01*
X321546256Y-136242795D01*
X321357898Y-136164774D01*
X321157939Y-136125000D01*
X320954061Y-136125000D01*
X320754102Y-136164774D01*
X320565744Y-136242795D01*
X320396226Y-136356063D01*
X320252063Y-136500226D01*
X320138795Y-136669744D01*
X320060774Y-136858102D01*
X320021000Y-137058061D01*
X320021000Y-137261939D01*
X320040001Y-137357464D01*
X320040000Y-140518540D01*
X320021000Y-140614061D01*
X320021000Y-140817939D01*
X320060774Y-141017898D01*
X320138795Y-141206256D01*
X320252063Y-141375774D01*
X320396226Y-141519937D01*
X320565744Y-141633205D01*
X320704246Y-141690575D01*
X313858408Y-141690575D01*
X306162240Y-133994408D01*
X306162545Y-133834800D01*
X334039628Y-133834800D01*
X334042700Y-137484050D01*
X334201450Y-137642800D01*
X338805700Y-137642800D01*
X338805700Y-133358550D01*
X339059700Y-133358550D01*
X339059700Y-137642800D01*
X343663950Y-137642800D01*
X343822700Y-137484050D01*
X343825772Y-133834800D01*
X343813512Y-133710318D01*
X343777202Y-133590620D01*
X343718237Y-133480306D01*
X343638885Y-133383615D01*
X343542194Y-133304263D01*
X343431880Y-133245298D01*
X343312182Y-133208988D01*
X343187700Y-133196728D01*
X339218450Y-133199800D01*
X339059700Y-133358550D01*
X338805700Y-133358550D01*
X338646950Y-133199800D01*
X334677700Y-133196728D01*
X334553218Y-133208988D01*
X334433520Y-133245298D01*
X334323206Y-133304263D01*
X334226515Y-133383615D01*
X334147163Y-133480306D01*
X334088198Y-133590620D01*
X334051888Y-133710318D01*
X334039628Y-133834800D01*
X306162545Y-133834800D01*
X306188276Y-120386489D01*
X306244898Y-120375226D01*
X306433256Y-120297205D01*
X306602774Y-120183937D01*
X306746937Y-120039774D01*
X306860205Y-119870256D01*
X306938226Y-119681898D01*
X306978000Y-119481939D01*
X306978000Y-119278061D01*
X306959000Y-119182541D01*
X306959000Y-113608459D01*
X306978000Y-113512939D01*
X306978000Y-113309061D01*
X306938226Y-113109102D01*
X306860205Y-112920744D01*
X306746937Y-112751226D01*
X306602774Y-112607063D01*
X306433256Y-112493795D01*
X306244898Y-112415774D01*
X306203542Y-112407548D01*
X306217260Y-105237648D01*
X336559024Y-104972654D01*
X338363000Y-106776631D01*
G37*
X338363000Y-106776631D02*
X338363000Y-107427699D01*
X338289274Y-107353973D01*
X338119756Y-107240705D01*
X337931398Y-107162684D01*
X337731439Y-107122910D01*
X337527561Y-107122910D01*
X337327602Y-107162684D01*
X337139244Y-107240705D01*
X336969726Y-107353973D01*
X336825563Y-107498136D01*
X336712295Y-107667654D01*
X336634274Y-107856012D01*
X336594500Y-108055971D01*
X336594500Y-108259849D01*
X336634274Y-108459808D01*
X336711871Y-108647141D01*
X336600602Y-108669274D01*
X336412244Y-108747295D01*
X336242726Y-108860563D01*
X336098563Y-109004726D01*
X335985295Y-109174244D01*
X335907274Y-109362602D01*
X335867500Y-109562561D01*
X335867500Y-109766439D01*
X335907274Y-109966398D01*
X335985295Y-110154756D01*
X336098563Y-110324274D01*
X336140501Y-110366212D01*
X336140500Y-122432644D01*
X336136814Y-122470067D01*
X336140500Y-122507490D01*
X336140500Y-122507492D01*
X336151526Y-122619444D01*
X336195098Y-122763081D01*
X336206407Y-122784239D01*
X336265855Y-122895459D01*
X336305483Y-122943745D01*
X336361078Y-123011489D01*
X336390154Y-123035351D01*
X341384664Y-128029862D01*
X341408521Y-128058932D01*
X341524551Y-128154155D01*
X341656928Y-128224912D01*
X341800565Y-128268484D01*
X341912517Y-128279510D01*
X341912519Y-128279510D01*
X341949942Y-128283196D01*
X341987365Y-128279510D01*
X345000776Y-128279510D01*
X344948317Y-133766728D01*
X344652700Y-133766728D01*
X344528218Y-133778988D01*
X344408520Y-133815298D01*
X344298206Y-133874263D01*
X344201515Y-133953615D01*
X344122163Y-134050306D01*
X344063198Y-134160620D01*
X344026888Y-134280318D01*
X344014628Y-134404800D01*
X344014628Y-136054800D01*
X344026888Y-136179282D01*
X344063198Y-136298980D01*
X344122163Y-136409294D01*
X344201515Y-136505985D01*
X344298206Y-136585337D01*
X344408520Y-136644302D01*
X344528218Y-136680612D01*
X344652700Y-136692872D01*
X344920342Y-136692872D01*
X344899751Y-138846728D01*
X344652700Y-138846728D01*
X344528218Y-138858988D01*
X344408520Y-138895298D01*
X344298206Y-138954263D01*
X344201515Y-139033615D01*
X344122163Y-139130306D01*
X344063198Y-139240620D01*
X344026888Y-139360318D01*
X344014628Y-139484800D01*
X344014628Y-141134800D01*
X344026888Y-141259282D01*
X344060517Y-141370142D01*
X343825688Y-141604972D01*
X343822700Y-138055550D01*
X343663950Y-137896800D01*
X339059700Y-137896800D01*
X339059700Y-137916800D01*
X338805700Y-137916800D01*
X338805700Y-137896800D01*
X334201450Y-137896800D01*
X334042700Y-138055550D01*
X334039640Y-141690575D01*
X321407754Y-141690575D01*
X321546256Y-141633205D01*
X321715774Y-141519937D01*
X321859937Y-141375774D01*
X321973205Y-141206256D01*
X322051226Y-141017898D01*
X322091000Y-140817939D01*
X322091000Y-140614061D01*
X322072000Y-140518541D01*
X322072000Y-137357459D01*
X322091000Y-137261939D01*
X322091000Y-137058061D01*
X322051226Y-136858102D01*
X321973205Y-136669744D01*
X321859937Y-136500226D01*
X321715774Y-136356063D01*
X321546256Y-136242795D01*
X321357898Y-136164774D01*
X321157939Y-136125000D01*
X320954061Y-136125000D01*
X320754102Y-136164774D01*
X320565744Y-136242795D01*
X320396226Y-136356063D01*
X320252063Y-136500226D01*
X320138795Y-136669744D01*
X320060774Y-136858102D01*
X320021000Y-137058061D01*
X320021000Y-137261939D01*
X320040001Y-137357464D01*
X320040000Y-140518540D01*
X320021000Y-140614061D01*
X320021000Y-140817939D01*
X320060774Y-141017898D01*
X320138795Y-141206256D01*
X320252063Y-141375774D01*
X320396226Y-141519937D01*
X320565744Y-141633205D01*
X320704246Y-141690575D01*
X313858408Y-141690575D01*
X306162240Y-133994408D01*
X306162545Y-133834800D01*
X334039628Y-133834800D01*
X334042700Y-137484050D01*
X334201450Y-137642800D01*
X338805700Y-137642800D01*
X338805700Y-133358550D01*
X339059700Y-133358550D01*
X339059700Y-137642800D01*
X343663950Y-137642800D01*
X343822700Y-137484050D01*
X343825772Y-133834800D01*
X343813512Y-133710318D01*
X343777202Y-133590620D01*
X343718237Y-133480306D01*
X343638885Y-133383615D01*
X343542194Y-133304263D01*
X343431880Y-133245298D01*
X343312182Y-133208988D01*
X343187700Y-133196728D01*
X339218450Y-133199800D01*
X339059700Y-133358550D01*
X338805700Y-133358550D01*
X338646950Y-133199800D01*
X334677700Y-133196728D01*
X334553218Y-133208988D01*
X334433520Y-133245298D01*
X334323206Y-133304263D01*
X334226515Y-133383615D01*
X334147163Y-133480306D01*
X334088198Y-133590620D01*
X334051888Y-133710318D01*
X334039628Y-133834800D01*
X306162545Y-133834800D01*
X306188276Y-120386489D01*
X306244898Y-120375226D01*
X306433256Y-120297205D01*
X306602774Y-120183937D01*
X306746937Y-120039774D01*
X306860205Y-119870256D01*
X306938226Y-119681898D01*
X306978000Y-119481939D01*
X306978000Y-119278061D01*
X306959000Y-119182541D01*
X306959000Y-113608459D01*
X306978000Y-113512939D01*
X306978000Y-113309061D01*
X306938226Y-113109102D01*
X306860205Y-112920744D01*
X306746937Y-112751226D01*
X306602774Y-112607063D01*
X306433256Y-112493795D01*
X306244898Y-112415774D01*
X306203542Y-112407548D01*
X306217260Y-105237648D01*
X336559024Y-104972654D01*
X338363000Y-106776631D01*
G36*
X366510910Y-128282344D02*
G01*
X363208750Y-128284900D01*
X363050000Y-128443650D01*
X363050000Y-132727900D01*
X363070000Y-132727900D01*
X363070000Y-132981900D01*
X363050000Y-132981900D01*
X363050000Y-133001900D01*
X362796000Y-133001900D01*
X362796000Y-132981900D01*
X358191750Y-132981900D01*
X358033000Y-133140650D01*
X358030694Y-135879757D01*
X352668371Y-135882024D01*
X351114421Y-134328075D01*
X351114421Y-134268766D01*
X351074647Y-134068807D01*
X350996626Y-133880449D01*
X350883358Y-133710931D01*
X350739195Y-133566768D01*
X350569677Y-133453500D01*
X350381319Y-133375479D01*
X350181360Y-133335705D01*
X349977482Y-133335705D01*
X349777523Y-133375479D01*
X349589165Y-133453500D01*
X349419647Y-133566768D01*
X349275484Y-133710931D01*
X349162216Y-133880449D01*
X349084195Y-134068807D01*
X349060495Y-134187957D01*
X349052202Y-134160620D01*
X348993237Y-134050306D01*
X348913885Y-133953615D01*
X348817194Y-133874263D01*
X348706880Y-133815298D01*
X348587182Y-133778988D01*
X348462849Y-133766743D01*
X348432819Y-128919900D01*
X358029928Y-128919900D01*
X358033000Y-132569150D01*
X358191750Y-132727900D01*
X362796000Y-132727900D01*
X362796000Y-128443650D01*
X362637250Y-128284900D01*
X358668000Y-128281828D01*
X358543518Y-128294088D01*
X358423820Y-128330398D01*
X358313506Y-128389363D01*
X358216815Y-128468715D01*
X358137463Y-128565406D01*
X358078498Y-128675720D01*
X358042188Y-128795418D01*
X358029928Y-128919900D01*
X348432819Y-128919900D01*
X348428851Y-128279510D01*
X366482134Y-128279510D01*
X366510910Y-128282344D01*
G37*
X366510910Y-128282344D02*
X363208750Y-128284900D01*
X363050000Y-128443650D01*
X363050000Y-132727900D01*
X363070000Y-132727900D01*
X363070000Y-132981900D01*
X363050000Y-132981900D01*
X363050000Y-133001900D01*
X362796000Y-133001900D01*
X362796000Y-132981900D01*
X358191750Y-132981900D01*
X358033000Y-133140650D01*
X358030694Y-135879757D01*
X352668371Y-135882024D01*
X351114421Y-134328075D01*
X351114421Y-134268766D01*
X351074647Y-134068807D01*
X350996626Y-133880449D01*
X350883358Y-133710931D01*
X350739195Y-133566768D01*
X350569677Y-133453500D01*
X350381319Y-133375479D01*
X350181360Y-133335705D01*
X349977482Y-133335705D01*
X349777523Y-133375479D01*
X349589165Y-133453500D01*
X349419647Y-133566768D01*
X349275484Y-133710931D01*
X349162216Y-133880449D01*
X349084195Y-134068807D01*
X349060495Y-134187957D01*
X349052202Y-134160620D01*
X348993237Y-134050306D01*
X348913885Y-133953615D01*
X348817194Y-133874263D01*
X348706880Y-133815298D01*
X348587182Y-133778988D01*
X348462849Y-133766743D01*
X348432819Y-128919900D01*
X358029928Y-128919900D01*
X358033000Y-132569150D01*
X358191750Y-132727900D01*
X362796000Y-132727900D01*
X362796000Y-128443650D01*
X362637250Y-128284900D01*
X358668000Y-128281828D01*
X358543518Y-128294088D01*
X358423820Y-128330398D01*
X358313506Y-128389363D01*
X358216815Y-128468715D01*
X358137463Y-128565406D01*
X358078498Y-128675720D01*
X358042188Y-128795418D01*
X358029928Y-128919900D01*
X348432819Y-128919900D01*
X348428851Y-128279510D01*
X366482134Y-128279510D01*
X366510910Y-128282344D01*
G36*
X89898526Y-137414249D02*
G01*
X88930976Y-138435199D01*
X88135523Y-138435199D01*
X88098100Y-138431513D01*
X88060677Y-138435199D01*
X88060675Y-138435199D01*
X87948723Y-138446225D01*
X87805086Y-138489797D01*
X87672709Y-138560554D01*
X87556679Y-138655777D01*
X87532822Y-138684848D01*
X86719049Y-139498621D01*
X86689979Y-139522478D01*
X86666122Y-139551548D01*
X86666121Y-139551549D01*
X86594755Y-139638508D01*
X86572184Y-139680736D01*
X86456918Y-139692088D01*
X86337220Y-139728398D01*
X86226906Y-139787363D01*
X86130215Y-139866715D01*
X86098057Y-139905900D01*
X85189272Y-139905900D01*
X85189272Y-138752700D01*
X85177012Y-138628218D01*
X85140702Y-138508520D01*
X85081737Y-138398206D01*
X85002385Y-138301515D01*
X84905694Y-138222163D01*
X84795380Y-138163198D01*
X84675682Y-138126888D01*
X84551200Y-138114628D01*
X82901200Y-138114628D01*
X82776718Y-138126888D01*
X82657020Y-138163198D01*
X82546706Y-138222163D01*
X82450015Y-138301515D01*
X82370663Y-138398206D01*
X82311698Y-138508520D01*
X82275388Y-138628218D01*
X82263128Y-138752700D01*
X82263128Y-142562700D01*
X82275388Y-142687182D01*
X82311698Y-142806880D01*
X82370663Y-142917194D01*
X82450015Y-143013885D01*
X82546706Y-143093237D01*
X82657020Y-143152202D01*
X82776718Y-143188512D01*
X82901200Y-143200772D01*
X84414665Y-143200772D01*
X84247878Y-143376764D01*
X80143727Y-143385386D01*
X79839910Y-143081570D01*
X79922385Y-143013885D01*
X80001737Y-142917194D01*
X80060702Y-142806880D01*
X80097012Y-142687182D01*
X80109272Y-142562700D01*
X80109272Y-138752700D01*
X80097012Y-138628218D01*
X80060702Y-138508520D01*
X80001737Y-138398206D01*
X79922385Y-138301515D01*
X79825694Y-138222163D01*
X79715380Y-138163198D01*
X79595682Y-138126888D01*
X79471200Y-138114628D01*
X77821200Y-138114628D01*
X77696718Y-138126888D01*
X77577020Y-138163198D01*
X77466706Y-138222163D01*
X77370015Y-138301515D01*
X77290663Y-138398206D01*
X77231698Y-138508520D01*
X77195388Y-138628218D01*
X77183128Y-138752700D01*
X77183128Y-142562700D01*
X77195388Y-142687182D01*
X77231698Y-142806880D01*
X77290663Y-142917194D01*
X77370015Y-143013885D01*
X77466706Y-143093237D01*
X77577020Y-143152202D01*
X77630200Y-143168334D01*
X77630200Y-143274798D01*
X77625285Y-143324700D01*
X77634841Y-143421726D01*
X70846294Y-143776651D01*
X61026118Y-143768488D01*
X60817273Y-143559643D01*
X60793411Y-143530567D01*
X60677381Y-143435344D01*
X60545004Y-143364587D01*
X60401367Y-143321015D01*
X60289415Y-143309989D01*
X60289412Y-143309989D01*
X60251989Y-143306303D01*
X60214566Y-143309989D01*
X52680072Y-143309989D01*
X52680072Y-141658000D01*
X52667812Y-141533518D01*
X52631502Y-141413820D01*
X52572537Y-141303506D01*
X52493185Y-141206815D01*
X52396494Y-141127463D01*
X52286180Y-141068498D01*
X52166482Y-141032188D01*
X52042000Y-141019928D01*
X50950731Y-141019928D01*
X50928645Y-140978608D01*
X50833422Y-140862578D01*
X50804352Y-140838721D01*
X48968010Y-139002380D01*
X48968010Y-137287700D01*
X76613128Y-137287700D01*
X76625388Y-137412182D01*
X76661698Y-137531880D01*
X76720663Y-137642194D01*
X76800015Y-137738885D01*
X76896706Y-137818237D01*
X77007020Y-137877202D01*
X77126718Y-137913512D01*
X77251200Y-137925772D01*
X80900450Y-137922700D01*
X81059200Y-137763950D01*
X81059200Y-133159700D01*
X81313200Y-133159700D01*
X81313200Y-137763950D01*
X81471950Y-137922700D01*
X85121200Y-137925772D01*
X85245682Y-137913512D01*
X85365380Y-137877202D01*
X85475694Y-137818237D01*
X85572385Y-137738885D01*
X85651737Y-137642194D01*
X85710702Y-137531880D01*
X85747012Y-137412182D01*
X85759272Y-137287700D01*
X85756200Y-133318450D01*
X85597450Y-133159700D01*
X81313200Y-133159700D01*
X81059200Y-133159700D01*
X76774950Y-133159700D01*
X76616200Y-133318450D01*
X76613128Y-137287700D01*
X48968010Y-137287700D01*
X48968010Y-132169230D01*
X48971696Y-132131807D01*
X48966843Y-132082531D01*
X48956984Y-131982430D01*
X48913412Y-131838793D01*
X48842655Y-131706416D01*
X48747432Y-131590386D01*
X48718362Y-131566529D01*
X45929533Y-128777700D01*
X76613128Y-128777700D01*
X76616200Y-132746950D01*
X76774950Y-132905700D01*
X81059200Y-132905700D01*
X81059200Y-128301450D01*
X81313200Y-128301450D01*
X81313200Y-132905700D01*
X85597450Y-132905700D01*
X85756200Y-132746950D01*
X85759272Y-128777700D01*
X85747012Y-128653218D01*
X85710702Y-128533520D01*
X85651737Y-128423206D01*
X85572385Y-128326515D01*
X85475694Y-128247163D01*
X85365380Y-128188198D01*
X85245682Y-128151888D01*
X85121200Y-128139628D01*
X81471950Y-128142700D01*
X81313200Y-128301450D01*
X81059200Y-128301450D01*
X80900450Y-128142700D01*
X77251200Y-128139628D01*
X77126718Y-128151888D01*
X77007020Y-128188198D01*
X76896706Y-128247163D01*
X76800015Y-128326515D01*
X76720663Y-128423206D01*
X76661698Y-128533520D01*
X76625388Y-128653218D01*
X76613128Y-128777700D01*
X45929533Y-128777700D01*
X44288032Y-127136200D01*
X44288032Y-111115798D01*
X49762492Y-105641339D01*
X49971151Y-105638791D01*
X49995896Y-105636048D01*
X50019630Y-105628530D01*
X50041442Y-105616527D01*
X50060492Y-105600499D01*
X50076050Y-105581063D01*
X50087517Y-105558964D01*
X50094453Y-105535054D01*
X50096058Y-105500080D01*
X50079747Y-105324084D01*
X50482809Y-104921022D01*
X89979541Y-104921022D01*
X89898526Y-137414249D01*
G37*
X89898526Y-137414249D02*
X88930976Y-138435199D01*
X88135523Y-138435199D01*
X88098100Y-138431513D01*
X88060677Y-138435199D01*
X88060675Y-138435199D01*
X87948723Y-138446225D01*
X87805086Y-138489797D01*
X87672709Y-138560554D01*
X87556679Y-138655777D01*
X87532822Y-138684848D01*
X86719049Y-139498621D01*
X86689979Y-139522478D01*
X86666122Y-139551548D01*
X86666121Y-139551549D01*
X86594755Y-139638508D01*
X86572184Y-139680736D01*
X86456918Y-139692088D01*
X86337220Y-139728398D01*
X86226906Y-139787363D01*
X86130215Y-139866715D01*
X86098057Y-139905900D01*
X85189272Y-139905900D01*
X85189272Y-138752700D01*
X85177012Y-138628218D01*
X85140702Y-138508520D01*
X85081737Y-138398206D01*
X85002385Y-138301515D01*
X84905694Y-138222163D01*
X84795380Y-138163198D01*
X84675682Y-138126888D01*
X84551200Y-138114628D01*
X82901200Y-138114628D01*
X82776718Y-138126888D01*
X82657020Y-138163198D01*
X82546706Y-138222163D01*
X82450015Y-138301515D01*
X82370663Y-138398206D01*
X82311698Y-138508520D01*
X82275388Y-138628218D01*
X82263128Y-138752700D01*
X82263128Y-142562700D01*
X82275388Y-142687182D01*
X82311698Y-142806880D01*
X82370663Y-142917194D01*
X82450015Y-143013885D01*
X82546706Y-143093237D01*
X82657020Y-143152202D01*
X82776718Y-143188512D01*
X82901200Y-143200772D01*
X84414665Y-143200772D01*
X84247878Y-143376764D01*
X80143727Y-143385386D01*
X79839910Y-143081570D01*
X79922385Y-143013885D01*
X80001737Y-142917194D01*
X80060702Y-142806880D01*
X80097012Y-142687182D01*
X80109272Y-142562700D01*
X80109272Y-138752700D01*
X80097012Y-138628218D01*
X80060702Y-138508520D01*
X80001737Y-138398206D01*
X79922385Y-138301515D01*
X79825694Y-138222163D01*
X79715380Y-138163198D01*
X79595682Y-138126888D01*
X79471200Y-138114628D01*
X77821200Y-138114628D01*
X77696718Y-138126888D01*
X77577020Y-138163198D01*
X77466706Y-138222163D01*
X77370015Y-138301515D01*
X77290663Y-138398206D01*
X77231698Y-138508520D01*
X77195388Y-138628218D01*
X77183128Y-138752700D01*
X77183128Y-142562700D01*
X77195388Y-142687182D01*
X77231698Y-142806880D01*
X77290663Y-142917194D01*
X77370015Y-143013885D01*
X77466706Y-143093237D01*
X77577020Y-143152202D01*
X77630200Y-143168334D01*
X77630200Y-143274798D01*
X77625285Y-143324700D01*
X77634841Y-143421726D01*
X70846294Y-143776651D01*
X61026118Y-143768488D01*
X60817273Y-143559643D01*
X60793411Y-143530567D01*
X60677381Y-143435344D01*
X60545004Y-143364587D01*
X60401367Y-143321015D01*
X60289415Y-143309989D01*
X60289412Y-143309989D01*
X60251989Y-143306303D01*
X60214566Y-143309989D01*
X52680072Y-143309989D01*
X52680072Y-141658000D01*
X52667812Y-141533518D01*
X52631502Y-141413820D01*
X52572537Y-141303506D01*
X52493185Y-141206815D01*
X52396494Y-141127463D01*
X52286180Y-141068498D01*
X52166482Y-141032188D01*
X52042000Y-141019928D01*
X50950731Y-141019928D01*
X50928645Y-140978608D01*
X50833422Y-140862578D01*
X50804352Y-140838721D01*
X48968010Y-139002380D01*
X48968010Y-137287700D01*
X76613128Y-137287700D01*
X76625388Y-137412182D01*
X76661698Y-137531880D01*
X76720663Y-137642194D01*
X76800015Y-137738885D01*
X76896706Y-137818237D01*
X77007020Y-137877202D01*
X77126718Y-137913512D01*
X77251200Y-137925772D01*
X80900450Y-137922700D01*
X81059200Y-137763950D01*
X81059200Y-133159700D01*
X81313200Y-133159700D01*
X81313200Y-137763950D01*
X81471950Y-137922700D01*
X85121200Y-137925772D01*
X85245682Y-137913512D01*
X85365380Y-137877202D01*
X85475694Y-137818237D01*
X85572385Y-137738885D01*
X85651737Y-137642194D01*
X85710702Y-137531880D01*
X85747012Y-137412182D01*
X85759272Y-137287700D01*
X85756200Y-133318450D01*
X85597450Y-133159700D01*
X81313200Y-133159700D01*
X81059200Y-133159700D01*
X76774950Y-133159700D01*
X76616200Y-133318450D01*
X76613128Y-137287700D01*
X48968010Y-137287700D01*
X48968010Y-132169230D01*
X48971696Y-132131807D01*
X48966843Y-132082531D01*
X48956984Y-131982430D01*
X48913412Y-131838793D01*
X48842655Y-131706416D01*
X48747432Y-131590386D01*
X48718362Y-131566529D01*
X45929533Y-128777700D01*
X76613128Y-128777700D01*
X76616200Y-132746950D01*
X76774950Y-132905700D01*
X81059200Y-132905700D01*
X81059200Y-128301450D01*
X81313200Y-128301450D01*
X81313200Y-132905700D01*
X85597450Y-132905700D01*
X85756200Y-132746950D01*
X85759272Y-128777700D01*
X85747012Y-128653218D01*
X85710702Y-128533520D01*
X85651737Y-128423206D01*
X85572385Y-128326515D01*
X85475694Y-128247163D01*
X85365380Y-128188198D01*
X85245682Y-128151888D01*
X85121200Y-128139628D01*
X81471950Y-128142700D01*
X81313200Y-128301450D01*
X81059200Y-128301450D01*
X80900450Y-128142700D01*
X77251200Y-128139628D01*
X77126718Y-128151888D01*
X77007020Y-128188198D01*
X76896706Y-128247163D01*
X76800015Y-128326515D01*
X76720663Y-128423206D01*
X76661698Y-128533520D01*
X76625388Y-128653218D01*
X76613128Y-128777700D01*
X45929533Y-128777700D01*
X44288032Y-127136200D01*
X44288032Y-111115798D01*
X49762492Y-105641339D01*
X49971151Y-105638791D01*
X49995896Y-105636048D01*
X50019630Y-105628530D01*
X50041442Y-105616527D01*
X50060492Y-105600499D01*
X50076050Y-105581063D01*
X50087517Y-105558964D01*
X50094453Y-105535054D01*
X50096058Y-105500080D01*
X50079747Y-105324084D01*
X50482809Y-104921022D01*
X89979541Y-104921022D01*
X89898526Y-137414249D01*
G36*
X214720566Y-123290873D02*
G01*
X214798587Y-123479231D01*
X214911855Y-123648749D01*
X215056018Y-123792912D01*
X215225536Y-123906180D01*
X215413894Y-123984201D01*
X215613853Y-124023975D01*
X215817731Y-124023975D01*
X215830012Y-124021532D01*
X215830012Y-129020972D01*
X215778800Y-129015928D01*
X212129550Y-129019000D01*
X211970800Y-129177750D01*
X211970800Y-133782000D01*
X211990800Y-133782000D01*
X211990800Y-134036000D01*
X211970800Y-134036000D01*
X211970800Y-134056000D01*
X211716800Y-134056000D01*
X211716800Y-134036000D01*
X207432550Y-134036000D01*
X207273800Y-134194750D01*
X207270728Y-138164000D01*
X207278087Y-138238718D01*
X183154159Y-138201794D01*
X183131089Y-129654000D01*
X207270728Y-129654000D01*
X207273800Y-133623250D01*
X207432550Y-133782000D01*
X211716800Y-133782000D01*
X211716800Y-129177750D01*
X211558050Y-129019000D01*
X207908800Y-129015928D01*
X207784318Y-129028188D01*
X207664620Y-129064498D01*
X207554306Y-129123463D01*
X207457615Y-129202815D01*
X207378263Y-129299506D01*
X207319298Y-129409820D01*
X207282988Y-129529518D01*
X207270728Y-129654000D01*
X183131089Y-129654000D01*
X183113804Y-123250085D01*
X214712453Y-123250085D01*
X214720566Y-123290873D01*
G37*
X214720566Y-123290873D02*
X214798587Y-123479231D01*
X214911855Y-123648749D01*
X215056018Y-123792912D01*
X215225536Y-123906180D01*
X215413894Y-123984201D01*
X215613853Y-124023975D01*
X215817731Y-124023975D01*
X215830012Y-124021532D01*
X215830012Y-129020972D01*
X215778800Y-129015928D01*
X212129550Y-129019000D01*
X211970800Y-129177750D01*
X211970800Y-133782000D01*
X211990800Y-133782000D01*
X211990800Y-134036000D01*
X211970800Y-134036000D01*
X211970800Y-134056000D01*
X211716800Y-134056000D01*
X211716800Y-134036000D01*
X207432550Y-134036000D01*
X207273800Y-134194750D01*
X207270728Y-138164000D01*
X207278087Y-138238718D01*
X183154159Y-138201794D01*
X183131089Y-129654000D01*
X207270728Y-129654000D01*
X207273800Y-133623250D01*
X207432550Y-133782000D01*
X211716800Y-133782000D01*
X211716800Y-129177750D01*
X211558050Y-129019000D01*
X207908800Y-129015928D01*
X207784318Y-129028188D01*
X207664620Y-129064498D01*
X207554306Y-129123463D01*
X207457615Y-129202815D01*
X207378263Y-129299506D01*
X207319298Y-129409820D01*
X207282988Y-129529518D01*
X207270728Y-129654000D01*
X183131089Y-129654000D01*
X183113804Y-123250085D01*
X214712453Y-123250085D01*
X214720566Y-123290873D01*
G36*
X236551499Y-119911368D02*
G01*
X236575361Y-119940444D01*
X236649002Y-120000879D01*
X236691390Y-120035667D01*
X236762147Y-120073487D01*
X236823768Y-120106424D01*
X236967405Y-120149996D01*
X237079357Y-120161022D01*
X237079360Y-120161022D01*
X237116783Y-120164708D01*
X237154206Y-120161022D01*
X263307756Y-120161022D01*
X263432969Y-134220609D01*
X263432969Y-137171672D01*
X263429282Y-137209105D01*
X263436946Y-137286915D01*
X263443995Y-137358483D01*
X263461426Y-137415945D01*
X263475581Y-139005388D01*
X262446001Y-140034969D01*
X260606603Y-140739354D01*
X260570337Y-140671506D01*
X260490985Y-140574815D01*
X260394294Y-140495463D01*
X260283980Y-140436498D01*
X260164282Y-140400188D01*
X260039800Y-140387928D01*
X258389800Y-140387928D01*
X258265318Y-140400188D01*
X258145620Y-140436498D01*
X258035306Y-140495463D01*
X257938615Y-140574815D01*
X257859263Y-140671506D01*
X257800298Y-140781820D01*
X257763988Y-140901518D01*
X257751728Y-141026000D01*
X257751728Y-141832608D01*
X255597872Y-142657412D01*
X255597872Y-141026000D01*
X255585612Y-140901518D01*
X255549302Y-140781820D01*
X255490337Y-140671506D01*
X255410985Y-140574815D01*
X255314294Y-140495463D01*
X255203980Y-140436498D01*
X255084282Y-140400188D01*
X254959800Y-140387928D01*
X253309800Y-140387928D01*
X253185318Y-140400188D01*
X253065620Y-140436498D01*
X252955306Y-140495463D01*
X252858615Y-140574815D01*
X252779263Y-140671506D01*
X252720298Y-140781820D01*
X252683988Y-140901518D01*
X252671728Y-141026000D01*
X252671728Y-143181227D01*
X252544956Y-143128716D01*
X252344997Y-143088942D01*
X252141119Y-143088942D01*
X251941160Y-143128716D01*
X251939911Y-143129233D01*
X251208302Y-142397624D01*
X251184440Y-142368548D01*
X251068410Y-142273325D01*
X250936033Y-142202568D01*
X250792396Y-142158996D01*
X250680444Y-142147970D01*
X250680441Y-142147970D01*
X250643018Y-142144284D01*
X250605595Y-142147970D01*
X227878167Y-142147970D01*
X225291197Y-139561000D01*
X252101728Y-139561000D01*
X252113988Y-139685482D01*
X252150298Y-139805180D01*
X252209263Y-139915494D01*
X252288615Y-140012185D01*
X252385306Y-140091537D01*
X252495620Y-140150502D01*
X252615318Y-140186812D01*
X252739800Y-140199072D01*
X256389050Y-140196000D01*
X256547800Y-140037250D01*
X256547800Y-135433000D01*
X256801800Y-135433000D01*
X256801800Y-140037250D01*
X256960550Y-140196000D01*
X260609800Y-140199072D01*
X260734282Y-140186812D01*
X260853980Y-140150502D01*
X260964294Y-140091537D01*
X261060985Y-140012185D01*
X261140337Y-139915494D01*
X261199302Y-139805180D01*
X261235612Y-139685482D01*
X261247872Y-139561000D01*
X261244800Y-135591750D01*
X261086050Y-135433000D01*
X256801800Y-135433000D01*
X256547800Y-135433000D01*
X252263550Y-135433000D01*
X252104800Y-135591750D01*
X252101728Y-139561000D01*
X225291197Y-139561000D01*
X223032290Y-137302094D01*
X222987160Y-131051000D01*
X252101728Y-131051000D01*
X252104800Y-135020250D01*
X252263550Y-135179000D01*
X256547800Y-135179000D01*
X256547800Y-130574750D01*
X256801800Y-130574750D01*
X256801800Y-135179000D01*
X261086050Y-135179000D01*
X261244800Y-135020250D01*
X261247872Y-131051000D01*
X261235612Y-130926518D01*
X261199302Y-130806820D01*
X261140337Y-130696506D01*
X261060985Y-130599815D01*
X260964294Y-130520463D01*
X260853980Y-130461498D01*
X260734282Y-130425188D01*
X260609800Y-130412928D01*
X256960550Y-130416000D01*
X256801800Y-130574750D01*
X256547800Y-130574750D01*
X256389050Y-130416000D01*
X252739800Y-130412928D01*
X252615318Y-130425188D01*
X252495620Y-130461498D01*
X252385306Y-130520463D01*
X252288615Y-130599815D01*
X252209263Y-130696506D01*
X252150298Y-130806820D01*
X252113988Y-130926518D01*
X252101728Y-131051000D01*
X222987160Y-131051000D01*
X222907198Y-119975237D01*
X226207526Y-119975237D01*
X226249463Y-120017174D01*
X226418981Y-120130442D01*
X226607339Y-120208463D01*
X226807298Y-120248237D01*
X227011176Y-120248237D01*
X227211135Y-120208463D01*
X227399493Y-120130442D01*
X227569011Y-120017174D01*
X227713174Y-119873011D01*
X227826442Y-119703493D01*
X227904463Y-119515135D01*
X227944237Y-119315176D01*
X227944237Y-119111298D01*
X227913053Y-118954522D01*
X235594653Y-118954522D01*
X236551499Y-119911368D01*
G37*
X236551499Y-119911368D02*
X236575361Y-119940444D01*
X236649002Y-120000879D01*
X236691390Y-120035667D01*
X236762147Y-120073487D01*
X236823768Y-120106424D01*
X236967405Y-120149996D01*
X237079357Y-120161022D01*
X237079360Y-120161022D01*
X237116783Y-120164708D01*
X237154206Y-120161022D01*
X263307756Y-120161022D01*
X263432969Y-134220609D01*
X263432969Y-137171672D01*
X263429282Y-137209105D01*
X263436946Y-137286915D01*
X263443995Y-137358483D01*
X263461426Y-137415945D01*
X263475581Y-139005388D01*
X262446001Y-140034969D01*
X260606603Y-140739354D01*
X260570337Y-140671506D01*
X260490985Y-140574815D01*
X260394294Y-140495463D01*
X260283980Y-140436498D01*
X260164282Y-140400188D01*
X260039800Y-140387928D01*
X258389800Y-140387928D01*
X258265318Y-140400188D01*
X258145620Y-140436498D01*
X258035306Y-140495463D01*
X257938615Y-140574815D01*
X257859263Y-140671506D01*
X257800298Y-140781820D01*
X257763988Y-140901518D01*
X257751728Y-141026000D01*
X257751728Y-141832608D01*
X255597872Y-142657412D01*
X255597872Y-141026000D01*
X255585612Y-140901518D01*
X255549302Y-140781820D01*
X255490337Y-140671506D01*
X255410985Y-140574815D01*
X255314294Y-140495463D01*
X255203980Y-140436498D01*
X255084282Y-140400188D01*
X254959800Y-140387928D01*
X253309800Y-140387928D01*
X253185318Y-140400188D01*
X253065620Y-140436498D01*
X252955306Y-140495463D01*
X252858615Y-140574815D01*
X252779263Y-140671506D01*
X252720298Y-140781820D01*
X252683988Y-140901518D01*
X252671728Y-141026000D01*
X252671728Y-143181227D01*
X252544956Y-143128716D01*
X252344997Y-143088942D01*
X252141119Y-143088942D01*
X251941160Y-143128716D01*
X251939911Y-143129233D01*
X251208302Y-142397624D01*
X251184440Y-142368548D01*
X251068410Y-142273325D01*
X250936033Y-142202568D01*
X250792396Y-142158996D01*
X250680444Y-142147970D01*
X250680441Y-142147970D01*
X250643018Y-142144284D01*
X250605595Y-142147970D01*
X227878167Y-142147970D01*
X225291197Y-139561000D01*
X252101728Y-139561000D01*
X252113988Y-139685482D01*
X252150298Y-139805180D01*
X252209263Y-139915494D01*
X252288615Y-140012185D01*
X252385306Y-140091537D01*
X252495620Y-140150502D01*
X252615318Y-140186812D01*
X252739800Y-140199072D01*
X256389050Y-140196000D01*
X256547800Y-140037250D01*
X256547800Y-135433000D01*
X256801800Y-135433000D01*
X256801800Y-140037250D01*
X256960550Y-140196000D01*
X260609800Y-140199072D01*
X260734282Y-140186812D01*
X260853980Y-140150502D01*
X260964294Y-140091537D01*
X261060985Y-140012185D01*
X261140337Y-139915494D01*
X261199302Y-139805180D01*
X261235612Y-139685482D01*
X261247872Y-139561000D01*
X261244800Y-135591750D01*
X261086050Y-135433000D01*
X256801800Y-135433000D01*
X256547800Y-135433000D01*
X252263550Y-135433000D01*
X252104800Y-135591750D01*
X252101728Y-139561000D01*
X225291197Y-139561000D01*
X223032290Y-137302094D01*
X222987160Y-131051000D01*
X252101728Y-131051000D01*
X252104800Y-135020250D01*
X252263550Y-135179000D01*
X256547800Y-135179000D01*
X256547800Y-130574750D01*
X256801800Y-130574750D01*
X256801800Y-135179000D01*
X261086050Y-135179000D01*
X261244800Y-135020250D01*
X261247872Y-131051000D01*
X261235612Y-130926518D01*
X261199302Y-130806820D01*
X261140337Y-130696506D01*
X261060985Y-130599815D01*
X260964294Y-130520463D01*
X260853980Y-130461498D01*
X260734282Y-130425188D01*
X260609800Y-130412928D01*
X256960550Y-130416000D01*
X256801800Y-130574750D01*
X256547800Y-130574750D01*
X256389050Y-130416000D01*
X252739800Y-130412928D01*
X252615318Y-130425188D01*
X252495620Y-130461498D01*
X252385306Y-130520463D01*
X252288615Y-130599815D01*
X252209263Y-130696506D01*
X252150298Y-130806820D01*
X252113988Y-130926518D01*
X252101728Y-131051000D01*
X222987160Y-131051000D01*
X222907198Y-119975237D01*
X226207526Y-119975237D01*
X226249463Y-120017174D01*
X226418981Y-120130442D01*
X226607339Y-120208463D01*
X226807298Y-120248237D01*
X227011176Y-120248237D01*
X227211135Y-120208463D01*
X227399493Y-120130442D01*
X227569011Y-120017174D01*
X227713174Y-119873011D01*
X227826442Y-119703493D01*
X227904463Y-119515135D01*
X227944237Y-119315176D01*
X227944237Y-119111298D01*
X227913053Y-118954522D01*
X235594653Y-118954522D01*
X236551499Y-119911368D01*
G36*
X134813090Y-106044280D02*
G01*
X134107649Y-106749721D01*
X134078579Y-106773578D01*
X134054722Y-106802648D01*
X134054721Y-106802649D01*
X133983355Y-106889608D01*
X133912599Y-107021985D01*
X133869027Y-107165622D01*
X133854314Y-107315000D01*
X133858001Y-107352433D01*
X133858001Y-115043000D01*
X133791061Y-115043000D01*
X133591102Y-115082774D01*
X133402744Y-115160795D01*
X133233226Y-115274063D01*
X133089063Y-115418226D01*
X132975795Y-115587744D01*
X132897774Y-115776102D01*
X132858000Y-115976061D01*
X132858000Y-116179939D01*
X132897774Y-116379898D01*
X132975795Y-116568256D01*
X133089063Y-116737774D01*
X133233226Y-116881937D01*
X133402744Y-116995205D01*
X133403991Y-116995722D01*
X133403990Y-135828579D01*
X129022749Y-140209821D01*
X128993679Y-140233678D01*
X128969822Y-140262748D01*
X128969821Y-140262749D01*
X128898455Y-140349708D01*
X128875884Y-140391936D01*
X128760618Y-140403288D01*
X128640920Y-140439598D01*
X128530606Y-140498563D01*
X128475972Y-140543400D01*
X127658072Y-140543400D01*
X127658072Y-139400400D01*
X127645812Y-139275918D01*
X127609502Y-139156220D01*
X127550537Y-139045906D01*
X127471185Y-138949215D01*
X127374494Y-138869863D01*
X127264180Y-138810898D01*
X127144482Y-138774588D01*
X127020000Y-138762328D01*
X125370000Y-138762328D01*
X125245518Y-138774588D01*
X125125820Y-138810898D01*
X125015506Y-138869863D01*
X124918815Y-138949215D01*
X124839463Y-139045906D01*
X124780498Y-139156220D01*
X124744188Y-139275918D01*
X124731928Y-139400400D01*
X124731928Y-142560394D01*
X122491113Y-143526400D01*
X122529502Y-143454580D01*
X122565812Y-143334882D01*
X122578072Y-143210400D01*
X122578072Y-139400400D01*
X122565812Y-139275918D01*
X122529502Y-139156220D01*
X122470537Y-139045906D01*
X122391185Y-138949215D01*
X122294494Y-138869863D01*
X122184180Y-138810898D01*
X122064482Y-138774588D01*
X121940000Y-138762328D01*
X120290000Y-138762328D01*
X120165518Y-138774588D01*
X120045820Y-138810898D01*
X119935506Y-138869863D01*
X119838815Y-138949215D01*
X119759463Y-139045906D01*
X119700498Y-139156220D01*
X119664188Y-139275918D01*
X119651928Y-139400400D01*
X119651928Y-143210400D01*
X119664188Y-143334882D01*
X119700498Y-143454580D01*
X119759463Y-143564894D01*
X119838815Y-143661585D01*
X119935506Y-143740937D01*
X120045820Y-143799902D01*
X120099000Y-143816034D01*
X120099000Y-143925098D01*
X120094085Y-143975000D01*
X120102574Y-144061185D01*
X120113702Y-144174170D01*
X120171798Y-144365686D01*
X120241547Y-144496179D01*
X117543267Y-145659396D01*
X98492429Y-145674798D01*
X93869571Y-141051940D01*
X93859144Y-137935400D01*
X119081928Y-137935400D01*
X119094188Y-138059882D01*
X119130498Y-138179580D01*
X119189463Y-138289894D01*
X119268815Y-138386585D01*
X119365506Y-138465937D01*
X119475820Y-138524902D01*
X119595518Y-138561212D01*
X119720000Y-138573472D01*
X123369250Y-138570400D01*
X123528000Y-138411650D01*
X123528000Y-133807400D01*
X123782000Y-133807400D01*
X123782000Y-138411650D01*
X123940750Y-138570400D01*
X127590000Y-138573472D01*
X127714482Y-138561212D01*
X127834180Y-138524902D01*
X127944494Y-138465937D01*
X128041185Y-138386585D01*
X128120537Y-138289894D01*
X128179502Y-138179580D01*
X128215812Y-138059882D01*
X128228072Y-137935400D01*
X128225000Y-133966150D01*
X128066250Y-133807400D01*
X123782000Y-133807400D01*
X123528000Y-133807400D01*
X119243750Y-133807400D01*
X119085000Y-133966150D01*
X119081928Y-137935400D01*
X93859144Y-137935400D01*
X93830672Y-129425400D01*
X119081928Y-129425400D01*
X119085000Y-133394650D01*
X119243750Y-133553400D01*
X123528000Y-133553400D01*
X123528000Y-128949150D01*
X123782000Y-128949150D01*
X123782000Y-133553400D01*
X128066250Y-133553400D01*
X128225000Y-133394650D01*
X128228072Y-129425400D01*
X128215812Y-129300918D01*
X128179502Y-129181220D01*
X128120537Y-129070906D01*
X128041185Y-128974215D01*
X127944494Y-128894863D01*
X127834180Y-128835898D01*
X127714482Y-128799588D01*
X127590000Y-128787328D01*
X123940750Y-128790400D01*
X123782000Y-128949150D01*
X123528000Y-128949150D01*
X123369250Y-128790400D01*
X119720000Y-128787328D01*
X119595518Y-128799588D01*
X119475820Y-128835898D01*
X119365506Y-128894863D01*
X119268815Y-128974215D01*
X119189463Y-129070906D01*
X119130498Y-129181220D01*
X119094188Y-129300918D01*
X119081928Y-129425400D01*
X93830672Y-129425400D01*
X93750099Y-105343232D01*
X134814844Y-105248569D01*
X134813090Y-106044280D01*
G37*
X134813090Y-106044280D02*
X134107649Y-106749721D01*
X134078579Y-106773578D01*
X134054722Y-106802648D01*
X134054721Y-106802649D01*
X133983355Y-106889608D01*
X133912599Y-107021985D01*
X133869027Y-107165622D01*
X133854314Y-107315000D01*
X133858001Y-107352433D01*
X133858001Y-115043000D01*
X133791061Y-115043000D01*
X133591102Y-115082774D01*
X133402744Y-115160795D01*
X133233226Y-115274063D01*
X133089063Y-115418226D01*
X132975795Y-115587744D01*
X132897774Y-115776102D01*
X132858000Y-115976061D01*
X132858000Y-116179939D01*
X132897774Y-116379898D01*
X132975795Y-116568256D01*
X133089063Y-116737774D01*
X133233226Y-116881937D01*
X133402744Y-116995205D01*
X133403991Y-116995722D01*
X133403990Y-135828579D01*
X129022749Y-140209821D01*
X128993679Y-140233678D01*
X128969822Y-140262748D01*
X128969821Y-140262749D01*
X128898455Y-140349708D01*
X128875884Y-140391936D01*
X128760618Y-140403288D01*
X128640920Y-140439598D01*
X128530606Y-140498563D01*
X128475972Y-140543400D01*
X127658072Y-140543400D01*
X127658072Y-139400400D01*
X127645812Y-139275918D01*
X127609502Y-139156220D01*
X127550537Y-139045906D01*
X127471185Y-138949215D01*
X127374494Y-138869863D01*
X127264180Y-138810898D01*
X127144482Y-138774588D01*
X127020000Y-138762328D01*
X125370000Y-138762328D01*
X125245518Y-138774588D01*
X125125820Y-138810898D01*
X125015506Y-138869863D01*
X124918815Y-138949215D01*
X124839463Y-139045906D01*
X124780498Y-139156220D01*
X124744188Y-139275918D01*
X124731928Y-139400400D01*
X124731928Y-142560394D01*
X122491113Y-143526400D01*
X122529502Y-143454580D01*
X122565812Y-143334882D01*
X122578072Y-143210400D01*
X122578072Y-139400400D01*
X122565812Y-139275918D01*
X122529502Y-139156220D01*
X122470537Y-139045906D01*
X122391185Y-138949215D01*
X122294494Y-138869863D01*
X122184180Y-138810898D01*
X122064482Y-138774588D01*
X121940000Y-138762328D01*
X120290000Y-138762328D01*
X120165518Y-138774588D01*
X120045820Y-138810898D01*
X119935506Y-138869863D01*
X119838815Y-138949215D01*
X119759463Y-139045906D01*
X119700498Y-139156220D01*
X119664188Y-139275918D01*
X119651928Y-139400400D01*
X119651928Y-143210400D01*
X119664188Y-143334882D01*
X119700498Y-143454580D01*
X119759463Y-143564894D01*
X119838815Y-143661585D01*
X119935506Y-143740937D01*
X120045820Y-143799902D01*
X120099000Y-143816034D01*
X120099000Y-143925098D01*
X120094085Y-143975000D01*
X120102574Y-144061185D01*
X120113702Y-144174170D01*
X120171798Y-144365686D01*
X120241547Y-144496179D01*
X117543267Y-145659396D01*
X98492429Y-145674798D01*
X93869571Y-141051940D01*
X93859144Y-137935400D01*
X119081928Y-137935400D01*
X119094188Y-138059882D01*
X119130498Y-138179580D01*
X119189463Y-138289894D01*
X119268815Y-138386585D01*
X119365506Y-138465937D01*
X119475820Y-138524902D01*
X119595518Y-138561212D01*
X119720000Y-138573472D01*
X123369250Y-138570400D01*
X123528000Y-138411650D01*
X123528000Y-133807400D01*
X123782000Y-133807400D01*
X123782000Y-138411650D01*
X123940750Y-138570400D01*
X127590000Y-138573472D01*
X127714482Y-138561212D01*
X127834180Y-138524902D01*
X127944494Y-138465937D01*
X128041185Y-138386585D01*
X128120537Y-138289894D01*
X128179502Y-138179580D01*
X128215812Y-138059882D01*
X128228072Y-137935400D01*
X128225000Y-133966150D01*
X128066250Y-133807400D01*
X123782000Y-133807400D01*
X123528000Y-133807400D01*
X119243750Y-133807400D01*
X119085000Y-133966150D01*
X119081928Y-137935400D01*
X93859144Y-137935400D01*
X93830672Y-129425400D01*
X119081928Y-129425400D01*
X119085000Y-133394650D01*
X119243750Y-133553400D01*
X123528000Y-133553400D01*
X123528000Y-128949150D01*
X123782000Y-128949150D01*
X123782000Y-133553400D01*
X128066250Y-133553400D01*
X128225000Y-133394650D01*
X128228072Y-129425400D01*
X128215812Y-129300918D01*
X128179502Y-129181220D01*
X128120537Y-129070906D01*
X128041185Y-128974215D01*
X127944494Y-128894863D01*
X127834180Y-128835898D01*
X127714482Y-128799588D01*
X127590000Y-128787328D01*
X123940750Y-128790400D01*
X123782000Y-128949150D01*
X123528000Y-128949150D01*
X123369250Y-128790400D01*
X119720000Y-128787328D01*
X119595518Y-128799588D01*
X119475820Y-128835898D01*
X119365506Y-128894863D01*
X119268815Y-128974215D01*
X119189463Y-129070906D01*
X119130498Y-129181220D01*
X119094188Y-129300918D01*
X119081928Y-129425400D01*
X93830672Y-129425400D01*
X93750099Y-105343232D01*
X134814844Y-105248569D01*
X134813090Y-106044280D01*
G36*
X149916260Y-112032725D02*
G01*
X150126724Y-112173353D01*
X150360579Y-112270219D01*
X150608839Y-112319600D01*
X150861961Y-112319600D01*
X151110221Y-112270219D01*
X151344076Y-112173353D01*
X151554540Y-112032725D01*
X151652236Y-111935029D01*
X159784113Y-120066906D01*
X159807971Y-120095977D01*
X159924001Y-120191200D01*
X160056378Y-120261957D01*
X160200015Y-120305529D01*
X160311967Y-120316555D01*
X160311969Y-120316555D01*
X160349392Y-120320241D01*
X160386815Y-120316555D01*
X170621283Y-120316555D01*
X171397144Y-121092415D01*
X171421001Y-121121485D01*
X171450071Y-121145342D01*
X171537029Y-121216708D01*
X171669404Y-121287463D01*
X171669408Y-121287465D01*
X171813045Y-121331037D01*
X171924997Y-121342063D01*
X171924999Y-121342063D01*
X171962422Y-121345749D01*
X171999845Y-121342063D01*
X178704990Y-121342063D01*
X178704990Y-121409011D01*
X178744764Y-121608970D01*
X178822785Y-121797328D01*
X178936053Y-121966846D01*
X178943801Y-121974594D01*
X178773636Y-122144760D01*
X178744566Y-122168617D01*
X178649342Y-122284647D01*
X178578585Y-122417024D01*
X178535013Y-122560661D01*
X178526044Y-122651728D01*
X178520301Y-122710039D01*
X178523987Y-122747462D01*
X178523987Y-123130796D01*
X178520301Y-123168219D01*
X178523987Y-123205642D01*
X178523987Y-123205644D01*
X178535013Y-123317596D01*
X178578585Y-123461233D01*
X178578586Y-123461234D01*
X178649342Y-123593611D01*
X178668379Y-123616807D01*
X178744565Y-123709641D01*
X178773641Y-123733503D01*
X179072003Y-124031865D01*
X179002495Y-136867668D01*
X178978045Y-136877795D01*
X178808527Y-136991063D01*
X178672373Y-137127217D01*
X175397372Y-138829584D01*
X175397372Y-138384400D01*
X175385112Y-138259918D01*
X175348802Y-138140220D01*
X175289837Y-138029906D01*
X175210485Y-137933215D01*
X175113794Y-137853863D01*
X175003480Y-137794898D01*
X174883782Y-137758588D01*
X174759300Y-137746328D01*
X173109300Y-137746328D01*
X172984818Y-137758588D01*
X172865120Y-137794898D01*
X172754806Y-137853863D01*
X172658115Y-137933215D01*
X172578763Y-138029906D01*
X172519798Y-138140220D01*
X172483488Y-138259918D01*
X172471228Y-138384400D01*
X172471228Y-140350612D01*
X170317372Y-141470201D01*
X170317372Y-138384400D01*
X170305112Y-138259918D01*
X170268802Y-138140220D01*
X170209837Y-138029906D01*
X170130485Y-137933215D01*
X170033794Y-137853863D01*
X169923480Y-137794898D01*
X169803782Y-137758588D01*
X169679300Y-137746328D01*
X168029300Y-137746328D01*
X167904818Y-137758588D01*
X167785120Y-137794898D01*
X167674806Y-137853863D01*
X167578115Y-137933215D01*
X167498763Y-138029906D01*
X167439798Y-138140220D01*
X167403488Y-138259918D01*
X167391228Y-138384400D01*
X167391228Y-142194400D01*
X167403488Y-142318882D01*
X167439798Y-142438580D01*
X167498763Y-142548894D01*
X167578115Y-142645585D01*
X167674806Y-142724937D01*
X167785120Y-142783902D01*
X167788254Y-142784853D01*
X167602640Y-142881336D01*
X138817120Y-142868706D01*
X138806304Y-136919400D01*
X166821228Y-136919400D01*
X166833488Y-137043882D01*
X166869798Y-137163580D01*
X166928763Y-137273894D01*
X167008115Y-137370585D01*
X167104806Y-137449937D01*
X167215120Y-137508902D01*
X167334818Y-137545212D01*
X167459300Y-137557472D01*
X171108550Y-137554400D01*
X171267300Y-137395650D01*
X171267300Y-132791400D01*
X171521300Y-132791400D01*
X171521300Y-137395650D01*
X171680050Y-137554400D01*
X175329300Y-137557472D01*
X175453782Y-137545212D01*
X175573480Y-137508902D01*
X175683794Y-137449937D01*
X175780485Y-137370585D01*
X175859837Y-137273894D01*
X175918802Y-137163580D01*
X175955112Y-137043882D01*
X175967372Y-136919400D01*
X175964300Y-132950150D01*
X175805550Y-132791400D01*
X171521300Y-132791400D01*
X171267300Y-132791400D01*
X166983050Y-132791400D01*
X166824300Y-132950150D01*
X166821228Y-136919400D01*
X138806304Y-136919400D01*
X138790833Y-128409400D01*
X166821228Y-128409400D01*
X166824300Y-132378650D01*
X166983050Y-132537400D01*
X171267300Y-132537400D01*
X171267300Y-127933150D01*
X171521300Y-127933150D01*
X171521300Y-132537400D01*
X175805550Y-132537400D01*
X175964300Y-132378650D01*
X175967372Y-128409400D01*
X175955112Y-128284918D01*
X175918802Y-128165220D01*
X175859837Y-128054906D01*
X175780485Y-127958215D01*
X175683794Y-127878863D01*
X175573480Y-127819898D01*
X175453782Y-127783588D01*
X175329300Y-127771328D01*
X171680050Y-127774400D01*
X171521300Y-127933150D01*
X171267300Y-127933150D01*
X171108550Y-127774400D01*
X167459300Y-127771328D01*
X167334818Y-127783588D01*
X167215120Y-127819898D01*
X167104806Y-127878863D01*
X167008115Y-127958215D01*
X166928763Y-128054906D01*
X166869798Y-128165220D01*
X166833488Y-128284918D01*
X166821228Y-128409400D01*
X138790833Y-128409400D01*
X138765389Y-114414307D01*
X140403697Y-112776000D01*
X148624539Y-112776000D01*
X148661962Y-112779686D01*
X148699385Y-112776000D01*
X148699388Y-112776000D01*
X148811340Y-112764974D01*
X148954977Y-112721402D01*
X149087354Y-112650645D01*
X149203384Y-112555422D01*
X149227246Y-112526346D01*
X149684748Y-112068844D01*
X149713823Y-112044983D01*
X149787200Y-111955573D01*
X149809046Y-111928954D01*
X149810245Y-111926710D01*
X149916260Y-112032725D01*
G37*
X149916260Y-112032725D02*
X150126724Y-112173353D01*
X150360579Y-112270219D01*
X150608839Y-112319600D01*
X150861961Y-112319600D01*
X151110221Y-112270219D01*
X151344076Y-112173353D01*
X151554540Y-112032725D01*
X151652236Y-111935029D01*
X159784113Y-120066906D01*
X159807971Y-120095977D01*
X159924001Y-120191200D01*
X160056378Y-120261957D01*
X160200015Y-120305529D01*
X160311967Y-120316555D01*
X160311969Y-120316555D01*
X160349392Y-120320241D01*
X160386815Y-120316555D01*
X170621283Y-120316555D01*
X171397144Y-121092415D01*
X171421001Y-121121485D01*
X171450071Y-121145342D01*
X171537029Y-121216708D01*
X171669404Y-121287463D01*
X171669408Y-121287465D01*
X171813045Y-121331037D01*
X171924997Y-121342063D01*
X171924999Y-121342063D01*
X171962422Y-121345749D01*
X171999845Y-121342063D01*
X178704990Y-121342063D01*
X178704990Y-121409011D01*
X178744764Y-121608970D01*
X178822785Y-121797328D01*
X178936053Y-121966846D01*
X178943801Y-121974594D01*
X178773636Y-122144760D01*
X178744566Y-122168617D01*
X178649342Y-122284647D01*
X178578585Y-122417024D01*
X178535013Y-122560661D01*
X178526044Y-122651728D01*
X178520301Y-122710039D01*
X178523987Y-122747462D01*
X178523987Y-123130796D01*
X178520301Y-123168219D01*
X178523987Y-123205642D01*
X178523987Y-123205644D01*
X178535013Y-123317596D01*
X178578585Y-123461233D01*
X178578586Y-123461234D01*
X178649342Y-123593611D01*
X178668379Y-123616807D01*
X178744565Y-123709641D01*
X178773641Y-123733503D01*
X179072003Y-124031865D01*
X179002495Y-136867668D01*
X178978045Y-136877795D01*
X178808527Y-136991063D01*
X178672373Y-137127217D01*
X175397372Y-138829584D01*
X175397372Y-138384400D01*
X175385112Y-138259918D01*
X175348802Y-138140220D01*
X175289837Y-138029906D01*
X175210485Y-137933215D01*
X175113794Y-137853863D01*
X175003480Y-137794898D01*
X174883782Y-137758588D01*
X174759300Y-137746328D01*
X173109300Y-137746328D01*
X172984818Y-137758588D01*
X172865120Y-137794898D01*
X172754806Y-137853863D01*
X172658115Y-137933215D01*
X172578763Y-138029906D01*
X172519798Y-138140220D01*
X172483488Y-138259918D01*
X172471228Y-138384400D01*
X172471228Y-140350612D01*
X170317372Y-141470201D01*
X170317372Y-138384400D01*
X170305112Y-138259918D01*
X170268802Y-138140220D01*
X170209837Y-138029906D01*
X170130485Y-137933215D01*
X170033794Y-137853863D01*
X169923480Y-137794898D01*
X169803782Y-137758588D01*
X169679300Y-137746328D01*
X168029300Y-137746328D01*
X167904818Y-137758588D01*
X167785120Y-137794898D01*
X167674806Y-137853863D01*
X167578115Y-137933215D01*
X167498763Y-138029906D01*
X167439798Y-138140220D01*
X167403488Y-138259918D01*
X167391228Y-138384400D01*
X167391228Y-142194400D01*
X167403488Y-142318882D01*
X167439798Y-142438580D01*
X167498763Y-142548894D01*
X167578115Y-142645585D01*
X167674806Y-142724937D01*
X167785120Y-142783902D01*
X167788254Y-142784853D01*
X167602640Y-142881336D01*
X138817120Y-142868706D01*
X138806304Y-136919400D01*
X166821228Y-136919400D01*
X166833488Y-137043882D01*
X166869798Y-137163580D01*
X166928763Y-137273894D01*
X167008115Y-137370585D01*
X167104806Y-137449937D01*
X167215120Y-137508902D01*
X167334818Y-137545212D01*
X167459300Y-137557472D01*
X171108550Y-137554400D01*
X171267300Y-137395650D01*
X171267300Y-132791400D01*
X171521300Y-132791400D01*
X171521300Y-137395650D01*
X171680050Y-137554400D01*
X175329300Y-137557472D01*
X175453782Y-137545212D01*
X175573480Y-137508902D01*
X175683794Y-137449937D01*
X175780485Y-137370585D01*
X175859837Y-137273894D01*
X175918802Y-137163580D01*
X175955112Y-137043882D01*
X175967372Y-136919400D01*
X175964300Y-132950150D01*
X175805550Y-132791400D01*
X171521300Y-132791400D01*
X171267300Y-132791400D01*
X166983050Y-132791400D01*
X166824300Y-132950150D01*
X166821228Y-136919400D01*
X138806304Y-136919400D01*
X138790833Y-128409400D01*
X166821228Y-128409400D01*
X166824300Y-132378650D01*
X166983050Y-132537400D01*
X171267300Y-132537400D01*
X171267300Y-127933150D01*
X171521300Y-127933150D01*
X171521300Y-132537400D01*
X175805550Y-132537400D01*
X175964300Y-132378650D01*
X175967372Y-128409400D01*
X175955112Y-128284918D01*
X175918802Y-128165220D01*
X175859837Y-128054906D01*
X175780485Y-127958215D01*
X175683794Y-127878863D01*
X175573480Y-127819898D01*
X175453782Y-127783588D01*
X175329300Y-127771328D01*
X171680050Y-127774400D01*
X171521300Y-127933150D01*
X171267300Y-127933150D01*
X171108550Y-127774400D01*
X167459300Y-127771328D01*
X167334818Y-127783588D01*
X167215120Y-127819898D01*
X167104806Y-127878863D01*
X167008115Y-127958215D01*
X166928763Y-128054906D01*
X166869798Y-128165220D01*
X166833488Y-128284918D01*
X166821228Y-128409400D01*
X138790833Y-128409400D01*
X138765389Y-114414307D01*
X140403697Y-112776000D01*
X148624539Y-112776000D01*
X148661962Y-112779686D01*
X148699385Y-112776000D01*
X148699388Y-112776000D01*
X148811340Y-112764974D01*
X148954977Y-112721402D01*
X149087354Y-112650645D01*
X149203384Y-112555422D01*
X149227246Y-112526346D01*
X149684748Y-112068844D01*
X149713823Y-112044983D01*
X149787200Y-111955573D01*
X149809046Y-111928954D01*
X149810245Y-111926710D01*
X149916260Y-112032725D01*
M02*
