G04 #@! TF.GenerationSoftware,KiCad,Pcbnew,5.1.5-52549c5~84~ubuntu18.04.1*
G04 #@! TF.CreationDate,2020-02-28T01:04:35-05:00*
G04 #@! TF.ProjectId,DA_Board_1,44415f42-6f61-4726-945f-312e6b696361,rev?*
G04 #@! TF.SameCoordinates,Original*
G04 #@! TF.FileFunction,Legend,Bot*
G04 #@! TF.FilePolarity,Positive*
%FSLAX46Y46*%
G04 Gerber Fmt 4.6, Leading zero omitted, Abs format (unit mm)*
G04 Created by KiCad (PCBNEW 5.1.5-52549c5~84~ubuntu18.04.1) date 2020-02-28 01:04:35*
%MOMM*%
%LPD*%
G04 APERTURE LIST*
%ADD10C,0.150000*%
G04 APERTURE END LIST*
D10*
X41165000Y-140582600D02*
X41165000Y-130892600D01*
X46465000Y-140582600D02*
X46465000Y-130892600D01*
X46465000Y-130892600D02*
X41165000Y-130892600D01*
X46465000Y-140582600D02*
X41165000Y-140582600D01*
X40338333Y-138364980D02*
X40338333Y-139079266D01*
X40385952Y-139222123D01*
X40481190Y-139317361D01*
X40624047Y-139364980D01*
X40719285Y-139364980D01*
X39719285Y-138793552D02*
X39814523Y-138745933D01*
X39862142Y-138698314D01*
X39909761Y-138603076D01*
X39909761Y-138555457D01*
X39862142Y-138460219D01*
X39814523Y-138412600D01*
X39719285Y-138364980D01*
X39528809Y-138364980D01*
X39433571Y-138412600D01*
X39385952Y-138460219D01*
X39338333Y-138555457D01*
X39338333Y-138603076D01*
X39385952Y-138698314D01*
X39433571Y-138745933D01*
X39528809Y-138793552D01*
X39719285Y-138793552D01*
X39814523Y-138841171D01*
X39862142Y-138888790D01*
X39909761Y-138984028D01*
X39909761Y-139174504D01*
X39862142Y-139269742D01*
X39814523Y-139317361D01*
X39719285Y-139364980D01*
X39528809Y-139364980D01*
X39433571Y-139317361D01*
X39385952Y-139269742D01*
X39338333Y-139174504D01*
X39338333Y-138984028D01*
X39385952Y-138888790D01*
X39433571Y-138841171D01*
X39528809Y-138793552D01*
X44799285Y-130474980D02*
X45370714Y-130474980D01*
X45085000Y-130474980D02*
X45085000Y-129474980D01*
X45180238Y-129617838D01*
X45275476Y-129713076D01*
X45370714Y-129760695D01*
X42354523Y-141238314D02*
X42354523Y-141904980D01*
X42592619Y-140857361D02*
X42830714Y-141571647D01*
X42211666Y-141571647D01*
M02*
