G04 #@! TF.GenerationSoftware,KiCad,Pcbnew,5.1.5-52549c5~84~ubuntu18.04.1*
G04 #@! TF.CreationDate,2020-02-28T01:04:36-05:00*
G04 #@! TF.ProjectId,DA_Board_2,44415f42-6f61-4726-945f-322e6b696361,rev?*
G04 #@! TF.SameCoordinates,Original*
G04 #@! TF.FileFunction,Paste,Top*
G04 #@! TF.FilePolarity,Positive*
%FSLAX46Y46*%
G04 Gerber Fmt 4.6, Leading zero omitted, Abs format (unit mm)*
G04 Created by KiCad (PCBNEW 5.1.5-52549c5~84~ubuntu18.04.1) date 2020-02-28 01:04:36*
%MOMM*%
%LPD*%
G04 APERTURE LIST*
%ADD10R,1.200000X1.200000*%
%ADD11R,3.500000X1.780000*%
%ADD12R,1.300000X0.700000*%
%ADD13R,1.500000X4.000000*%
%ADD14R,0.800000X0.900000*%
%ADD15R,5.000000X8.000000*%
%ADD16R,7.870000X8.510000*%
%ADD17R,1.650000X3.810000*%
%ADD18C,0.100000*%
G04 APERTURE END LIST*
D10*
X303631600Y-125798400D03*
X303631600Y-127998400D03*
X259029200Y-128143000D03*
X259029200Y-125943000D03*
X214960200Y-125519000D03*
X214960200Y-127719000D03*
X171627800Y-125823800D03*
X171627800Y-128023800D03*
X128117600Y-127693600D03*
X128117600Y-125493600D03*
X84785200Y-127388800D03*
X84785200Y-125188800D03*
X40614600Y-127617400D03*
X40614600Y-125417400D03*
X-2997200Y-125689000D03*
X-2997200Y-127889000D03*
D11*
X302641000Y-131340000D03*
X302641000Y-136620000D03*
X258040000Y-136800000D03*
X258040000Y-131520000D03*
X214096600Y-131330000D03*
X214096600Y-136610000D03*
X170205400Y-136530000D03*
X170205400Y-131250000D03*
X126644400Y-131420000D03*
X126644400Y-136700000D03*
X83489800Y-136590000D03*
X83489800Y-131310000D03*
X39293800Y-131220000D03*
X39293800Y-136500000D03*
X-4343400Y-136810000D03*
X-4343400Y-131530000D03*
D12*
X301193200Y-128280200D03*
X301193200Y-126380200D03*
X257048000Y-126481800D03*
X257048000Y-128381800D03*
X212953600Y-126050000D03*
X212953600Y-127950000D03*
X169672000Y-128280200D03*
X169672000Y-126380200D03*
X126136400Y-126034800D03*
X126136400Y-127934800D03*
X82854800Y-127630000D03*
X82854800Y-125730000D03*
X38608000Y-125973800D03*
X38608000Y-127873800D03*
X-5003800Y-128127800D03*
X-5003800Y-126227800D03*
D13*
X273738600Y-138150600D03*
X270738600Y-138150600D03*
X276425400Y-138226800D03*
X279425400Y-138226800D03*
X285268800Y-138303000D03*
X282268800Y-138303000D03*
X182575200Y-137706100D03*
X185575200Y-137706100D03*
X191511000Y-137782300D03*
X188511000Y-137782300D03*
X194513200Y-137833100D03*
X197513200Y-137833100D03*
X98464500Y-137883900D03*
X95464500Y-137883900D03*
X101003100Y-137909300D03*
X104003100Y-137909300D03*
X109616500Y-137960100D03*
X106616500Y-137960100D03*
X7515600Y-137769600D03*
X10515600Y-137769600D03*
X16484600Y-137795000D03*
X13484600Y-137795000D03*
X19404200Y-137820400D03*
X22404200Y-137820400D03*
D14*
X297030000Y-129860000D03*
X295980000Y-131860000D03*
X298080000Y-131860000D03*
X254130000Y-132350000D03*
X252030000Y-132350000D03*
X253080000Y-130350000D03*
X208710000Y-130250000D03*
X207660000Y-132250000D03*
X209760000Y-132250000D03*
X164940000Y-129930000D03*
X163890000Y-131930000D03*
X165990000Y-131930000D03*
X122380000Y-131890000D03*
X120280000Y-131890000D03*
X121330000Y-129890000D03*
X79110000Y-131730000D03*
X77010000Y-131730000D03*
X78060000Y-129730000D03*
X35200000Y-132230000D03*
X33100000Y-132230000D03*
X34150000Y-130230000D03*
X-9630000Y-130260000D03*
X-10680000Y-132260000D03*
X-8580000Y-132260000D03*
D15*
X290601400Y-136525000D03*
X246913400Y-136499600D03*
X203200000Y-136499600D03*
X159537400Y-136474200D03*
X115849400Y-136474200D03*
X72161400Y-136398000D03*
X28473400Y-136448800D03*
X-15214600Y-136372600D03*
D16*
X295414700Y-118325900D03*
D17*
X297954700Y-125950900D03*
X292874700Y-125950900D03*
D16*
X251256800Y-118440200D03*
D17*
X253796800Y-126065200D03*
X248716800Y-126065200D03*
D16*
X207492600Y-118320900D03*
D17*
X210032600Y-125945900D03*
X204952600Y-125945900D03*
D16*
X163652200Y-118071900D03*
D17*
X166192200Y-125696900D03*
X161112200Y-125696900D03*
D16*
X120205500Y-117754400D03*
D17*
X122745500Y-125379400D03*
X117665500Y-125379400D03*
D16*
X77063600Y-117843300D03*
D17*
X79603600Y-125468300D03*
X74523600Y-125468300D03*
D16*
X32816800Y-117609700D03*
D17*
X35356800Y-125234700D03*
X30276800Y-125234700D03*
D16*
X-10731500Y-117868700D03*
D17*
X-8191500Y-125493700D03*
X-13271500Y-125493700D03*
D18*
G36*
X-8910496Y-136856204D02*
G01*
X-8886227Y-136859804D01*
X-8862429Y-136865765D01*
X-8839329Y-136874030D01*
X-8817151Y-136884520D01*
X-8796107Y-136897133D01*
X-8776402Y-136911747D01*
X-8758223Y-136928223D01*
X-8741747Y-136946402D01*
X-8727133Y-136966107D01*
X-8714520Y-136987151D01*
X-8704030Y-137009329D01*
X-8695765Y-137032429D01*
X-8689804Y-137056227D01*
X-8686204Y-137080496D01*
X-8685000Y-137105000D01*
X-8685000Y-137855000D01*
X-8686204Y-137879504D01*
X-8689804Y-137903773D01*
X-8695765Y-137927571D01*
X-8704030Y-137950671D01*
X-8714520Y-137972849D01*
X-8727133Y-137993893D01*
X-8741747Y-138013598D01*
X-8758223Y-138031777D01*
X-8776402Y-138048253D01*
X-8796107Y-138062867D01*
X-8817151Y-138075480D01*
X-8839329Y-138085970D01*
X-8862429Y-138094235D01*
X-8886227Y-138100196D01*
X-8910496Y-138103796D01*
X-8935000Y-138105000D01*
X-10185000Y-138105000D01*
X-10209504Y-138103796D01*
X-10233773Y-138100196D01*
X-10257571Y-138094235D01*
X-10280671Y-138085970D01*
X-10302849Y-138075480D01*
X-10323893Y-138062867D01*
X-10343598Y-138048253D01*
X-10361777Y-138031777D01*
X-10378253Y-138013598D01*
X-10392867Y-137993893D01*
X-10405480Y-137972849D01*
X-10415970Y-137950671D01*
X-10424235Y-137927571D01*
X-10430196Y-137903773D01*
X-10433796Y-137879504D01*
X-10435000Y-137855000D01*
X-10435000Y-137105000D01*
X-10433796Y-137080496D01*
X-10430196Y-137056227D01*
X-10424235Y-137032429D01*
X-10415970Y-137009329D01*
X-10405480Y-136987151D01*
X-10392867Y-136966107D01*
X-10378253Y-136946402D01*
X-10361777Y-136928223D01*
X-10343598Y-136911747D01*
X-10323893Y-136897133D01*
X-10302849Y-136884520D01*
X-10280671Y-136874030D01*
X-10257571Y-136865765D01*
X-10233773Y-136859804D01*
X-10209504Y-136856204D01*
X-10185000Y-136855000D01*
X-8935000Y-136855000D01*
X-8910496Y-136856204D01*
G37*
G36*
X-8910496Y-134056204D02*
G01*
X-8886227Y-134059804D01*
X-8862429Y-134065765D01*
X-8839329Y-134074030D01*
X-8817151Y-134084520D01*
X-8796107Y-134097133D01*
X-8776402Y-134111747D01*
X-8758223Y-134128223D01*
X-8741747Y-134146402D01*
X-8727133Y-134166107D01*
X-8714520Y-134187151D01*
X-8704030Y-134209329D01*
X-8695765Y-134232429D01*
X-8689804Y-134256227D01*
X-8686204Y-134280496D01*
X-8685000Y-134305000D01*
X-8685000Y-135055000D01*
X-8686204Y-135079504D01*
X-8689804Y-135103773D01*
X-8695765Y-135127571D01*
X-8704030Y-135150671D01*
X-8714520Y-135172849D01*
X-8727133Y-135193893D01*
X-8741747Y-135213598D01*
X-8758223Y-135231777D01*
X-8776402Y-135248253D01*
X-8796107Y-135262867D01*
X-8817151Y-135275480D01*
X-8839329Y-135285970D01*
X-8862429Y-135294235D01*
X-8886227Y-135300196D01*
X-8910496Y-135303796D01*
X-8935000Y-135305000D01*
X-10185000Y-135305000D01*
X-10209504Y-135303796D01*
X-10233773Y-135300196D01*
X-10257571Y-135294235D01*
X-10280671Y-135285970D01*
X-10302849Y-135275480D01*
X-10323893Y-135262867D01*
X-10343598Y-135248253D01*
X-10361777Y-135231777D01*
X-10378253Y-135213598D01*
X-10392867Y-135193893D01*
X-10405480Y-135172849D01*
X-10415970Y-135150671D01*
X-10424235Y-135127571D01*
X-10430196Y-135103773D01*
X-10433796Y-135079504D01*
X-10435000Y-135055000D01*
X-10435000Y-134305000D01*
X-10433796Y-134280496D01*
X-10430196Y-134256227D01*
X-10424235Y-134232429D01*
X-10415970Y-134209329D01*
X-10405480Y-134187151D01*
X-10392867Y-134166107D01*
X-10378253Y-134146402D01*
X-10361777Y-134128223D01*
X-10343598Y-134111747D01*
X-10323893Y-134097133D01*
X-10302849Y-134084520D01*
X-10280671Y-134074030D01*
X-10257571Y-134065765D01*
X-10233773Y-134059804D01*
X-10209504Y-134056204D01*
X-10185000Y-134055000D01*
X-8935000Y-134055000D01*
X-8910496Y-134056204D01*
G37*
G36*
X34819504Y-133746204D02*
G01*
X34843773Y-133749804D01*
X34867571Y-133755765D01*
X34890671Y-133764030D01*
X34912849Y-133774520D01*
X34933893Y-133787133D01*
X34953598Y-133801747D01*
X34971777Y-133818223D01*
X34988253Y-133836402D01*
X35002867Y-133856107D01*
X35015480Y-133877151D01*
X35025970Y-133899329D01*
X35034235Y-133922429D01*
X35040196Y-133946227D01*
X35043796Y-133970496D01*
X35045000Y-133995000D01*
X35045000Y-134745000D01*
X35043796Y-134769504D01*
X35040196Y-134793773D01*
X35034235Y-134817571D01*
X35025970Y-134840671D01*
X35015480Y-134862849D01*
X35002867Y-134883893D01*
X34988253Y-134903598D01*
X34971777Y-134921777D01*
X34953598Y-134938253D01*
X34933893Y-134952867D01*
X34912849Y-134965480D01*
X34890671Y-134975970D01*
X34867571Y-134984235D01*
X34843773Y-134990196D01*
X34819504Y-134993796D01*
X34795000Y-134995000D01*
X33545000Y-134995000D01*
X33520496Y-134993796D01*
X33496227Y-134990196D01*
X33472429Y-134984235D01*
X33449329Y-134975970D01*
X33427151Y-134965480D01*
X33406107Y-134952867D01*
X33386402Y-134938253D01*
X33368223Y-134921777D01*
X33351747Y-134903598D01*
X33337133Y-134883893D01*
X33324520Y-134862849D01*
X33314030Y-134840671D01*
X33305765Y-134817571D01*
X33299804Y-134793773D01*
X33296204Y-134769504D01*
X33295000Y-134745000D01*
X33295000Y-133995000D01*
X33296204Y-133970496D01*
X33299804Y-133946227D01*
X33305765Y-133922429D01*
X33314030Y-133899329D01*
X33324520Y-133877151D01*
X33337133Y-133856107D01*
X33351747Y-133836402D01*
X33368223Y-133818223D01*
X33386402Y-133801747D01*
X33406107Y-133787133D01*
X33427151Y-133774520D01*
X33449329Y-133764030D01*
X33472429Y-133755765D01*
X33496227Y-133749804D01*
X33520496Y-133746204D01*
X33545000Y-133745000D01*
X34795000Y-133745000D01*
X34819504Y-133746204D01*
G37*
G36*
X34819504Y-136546204D02*
G01*
X34843773Y-136549804D01*
X34867571Y-136555765D01*
X34890671Y-136564030D01*
X34912849Y-136574520D01*
X34933893Y-136587133D01*
X34953598Y-136601747D01*
X34971777Y-136618223D01*
X34988253Y-136636402D01*
X35002867Y-136656107D01*
X35015480Y-136677151D01*
X35025970Y-136699329D01*
X35034235Y-136722429D01*
X35040196Y-136746227D01*
X35043796Y-136770496D01*
X35045000Y-136795000D01*
X35045000Y-137545000D01*
X35043796Y-137569504D01*
X35040196Y-137593773D01*
X35034235Y-137617571D01*
X35025970Y-137640671D01*
X35015480Y-137662849D01*
X35002867Y-137683893D01*
X34988253Y-137703598D01*
X34971777Y-137721777D01*
X34953598Y-137738253D01*
X34933893Y-137752867D01*
X34912849Y-137765480D01*
X34890671Y-137775970D01*
X34867571Y-137784235D01*
X34843773Y-137790196D01*
X34819504Y-137793796D01*
X34795000Y-137795000D01*
X33545000Y-137795000D01*
X33520496Y-137793796D01*
X33496227Y-137790196D01*
X33472429Y-137784235D01*
X33449329Y-137775970D01*
X33427151Y-137765480D01*
X33406107Y-137752867D01*
X33386402Y-137738253D01*
X33368223Y-137721777D01*
X33351747Y-137703598D01*
X33337133Y-137683893D01*
X33324520Y-137662849D01*
X33314030Y-137640671D01*
X33305765Y-137617571D01*
X33299804Y-137593773D01*
X33296204Y-137569504D01*
X33295000Y-137545000D01*
X33295000Y-136795000D01*
X33296204Y-136770496D01*
X33299804Y-136746227D01*
X33305765Y-136722429D01*
X33314030Y-136699329D01*
X33324520Y-136677151D01*
X33337133Y-136656107D01*
X33351747Y-136636402D01*
X33368223Y-136618223D01*
X33386402Y-136601747D01*
X33406107Y-136587133D01*
X33427151Y-136574520D01*
X33449329Y-136564030D01*
X33472429Y-136555765D01*
X33496227Y-136549804D01*
X33520496Y-136546204D01*
X33545000Y-136545000D01*
X34795000Y-136545000D01*
X34819504Y-136546204D01*
G37*
G36*
X78719504Y-136636204D02*
G01*
X78743773Y-136639804D01*
X78767571Y-136645765D01*
X78790671Y-136654030D01*
X78812849Y-136664520D01*
X78833893Y-136677133D01*
X78853598Y-136691747D01*
X78871777Y-136708223D01*
X78888253Y-136726402D01*
X78902867Y-136746107D01*
X78915480Y-136767151D01*
X78925970Y-136789329D01*
X78934235Y-136812429D01*
X78940196Y-136836227D01*
X78943796Y-136860496D01*
X78945000Y-136885000D01*
X78945000Y-137635000D01*
X78943796Y-137659504D01*
X78940196Y-137683773D01*
X78934235Y-137707571D01*
X78925970Y-137730671D01*
X78915480Y-137752849D01*
X78902867Y-137773893D01*
X78888253Y-137793598D01*
X78871777Y-137811777D01*
X78853598Y-137828253D01*
X78833893Y-137842867D01*
X78812849Y-137855480D01*
X78790671Y-137865970D01*
X78767571Y-137874235D01*
X78743773Y-137880196D01*
X78719504Y-137883796D01*
X78695000Y-137885000D01*
X77445000Y-137885000D01*
X77420496Y-137883796D01*
X77396227Y-137880196D01*
X77372429Y-137874235D01*
X77349329Y-137865970D01*
X77327151Y-137855480D01*
X77306107Y-137842867D01*
X77286402Y-137828253D01*
X77268223Y-137811777D01*
X77251747Y-137793598D01*
X77237133Y-137773893D01*
X77224520Y-137752849D01*
X77214030Y-137730671D01*
X77205765Y-137707571D01*
X77199804Y-137683773D01*
X77196204Y-137659504D01*
X77195000Y-137635000D01*
X77195000Y-136885000D01*
X77196204Y-136860496D01*
X77199804Y-136836227D01*
X77205765Y-136812429D01*
X77214030Y-136789329D01*
X77224520Y-136767151D01*
X77237133Y-136746107D01*
X77251747Y-136726402D01*
X77268223Y-136708223D01*
X77286402Y-136691747D01*
X77306107Y-136677133D01*
X77327151Y-136664520D01*
X77349329Y-136654030D01*
X77372429Y-136645765D01*
X77396227Y-136639804D01*
X77420496Y-136636204D01*
X77445000Y-136635000D01*
X78695000Y-136635000D01*
X78719504Y-136636204D01*
G37*
G36*
X78719504Y-133836204D02*
G01*
X78743773Y-133839804D01*
X78767571Y-133845765D01*
X78790671Y-133854030D01*
X78812849Y-133864520D01*
X78833893Y-133877133D01*
X78853598Y-133891747D01*
X78871777Y-133908223D01*
X78888253Y-133926402D01*
X78902867Y-133946107D01*
X78915480Y-133967151D01*
X78925970Y-133989329D01*
X78934235Y-134012429D01*
X78940196Y-134036227D01*
X78943796Y-134060496D01*
X78945000Y-134085000D01*
X78945000Y-134835000D01*
X78943796Y-134859504D01*
X78940196Y-134883773D01*
X78934235Y-134907571D01*
X78925970Y-134930671D01*
X78915480Y-134952849D01*
X78902867Y-134973893D01*
X78888253Y-134993598D01*
X78871777Y-135011777D01*
X78853598Y-135028253D01*
X78833893Y-135042867D01*
X78812849Y-135055480D01*
X78790671Y-135065970D01*
X78767571Y-135074235D01*
X78743773Y-135080196D01*
X78719504Y-135083796D01*
X78695000Y-135085000D01*
X77445000Y-135085000D01*
X77420496Y-135083796D01*
X77396227Y-135080196D01*
X77372429Y-135074235D01*
X77349329Y-135065970D01*
X77327151Y-135055480D01*
X77306107Y-135042867D01*
X77286402Y-135028253D01*
X77268223Y-135011777D01*
X77251747Y-134993598D01*
X77237133Y-134973893D01*
X77224520Y-134952849D01*
X77214030Y-134930671D01*
X77205765Y-134907571D01*
X77199804Y-134883773D01*
X77196204Y-134859504D01*
X77195000Y-134835000D01*
X77195000Y-134085000D01*
X77196204Y-134060496D01*
X77199804Y-134036227D01*
X77205765Y-134012429D01*
X77214030Y-133989329D01*
X77224520Y-133967151D01*
X77237133Y-133946107D01*
X77251747Y-133926402D01*
X77268223Y-133908223D01*
X77286402Y-133891747D01*
X77306107Y-133877133D01*
X77327151Y-133864520D01*
X77349329Y-133854030D01*
X77372429Y-133845765D01*
X77396227Y-133839804D01*
X77420496Y-133836204D01*
X77445000Y-133835000D01*
X78695000Y-133835000D01*
X78719504Y-133836204D01*
G37*
G36*
X122099504Y-133946204D02*
G01*
X122123773Y-133949804D01*
X122147571Y-133955765D01*
X122170671Y-133964030D01*
X122192849Y-133974520D01*
X122213893Y-133987133D01*
X122233598Y-134001747D01*
X122251777Y-134018223D01*
X122268253Y-134036402D01*
X122282867Y-134056107D01*
X122295480Y-134077151D01*
X122305970Y-134099329D01*
X122314235Y-134122429D01*
X122320196Y-134146227D01*
X122323796Y-134170496D01*
X122325000Y-134195000D01*
X122325000Y-134945000D01*
X122323796Y-134969504D01*
X122320196Y-134993773D01*
X122314235Y-135017571D01*
X122305970Y-135040671D01*
X122295480Y-135062849D01*
X122282867Y-135083893D01*
X122268253Y-135103598D01*
X122251777Y-135121777D01*
X122233598Y-135138253D01*
X122213893Y-135152867D01*
X122192849Y-135165480D01*
X122170671Y-135175970D01*
X122147571Y-135184235D01*
X122123773Y-135190196D01*
X122099504Y-135193796D01*
X122075000Y-135195000D01*
X120825000Y-135195000D01*
X120800496Y-135193796D01*
X120776227Y-135190196D01*
X120752429Y-135184235D01*
X120729329Y-135175970D01*
X120707151Y-135165480D01*
X120686107Y-135152867D01*
X120666402Y-135138253D01*
X120648223Y-135121777D01*
X120631747Y-135103598D01*
X120617133Y-135083893D01*
X120604520Y-135062849D01*
X120594030Y-135040671D01*
X120585765Y-135017571D01*
X120579804Y-134993773D01*
X120576204Y-134969504D01*
X120575000Y-134945000D01*
X120575000Y-134195000D01*
X120576204Y-134170496D01*
X120579804Y-134146227D01*
X120585765Y-134122429D01*
X120594030Y-134099329D01*
X120604520Y-134077151D01*
X120617133Y-134056107D01*
X120631747Y-134036402D01*
X120648223Y-134018223D01*
X120666402Y-134001747D01*
X120686107Y-133987133D01*
X120707151Y-133974520D01*
X120729329Y-133964030D01*
X120752429Y-133955765D01*
X120776227Y-133949804D01*
X120800496Y-133946204D01*
X120825000Y-133945000D01*
X122075000Y-133945000D01*
X122099504Y-133946204D01*
G37*
G36*
X122099504Y-136746204D02*
G01*
X122123773Y-136749804D01*
X122147571Y-136755765D01*
X122170671Y-136764030D01*
X122192849Y-136774520D01*
X122213893Y-136787133D01*
X122233598Y-136801747D01*
X122251777Y-136818223D01*
X122268253Y-136836402D01*
X122282867Y-136856107D01*
X122295480Y-136877151D01*
X122305970Y-136899329D01*
X122314235Y-136922429D01*
X122320196Y-136946227D01*
X122323796Y-136970496D01*
X122325000Y-136995000D01*
X122325000Y-137745000D01*
X122323796Y-137769504D01*
X122320196Y-137793773D01*
X122314235Y-137817571D01*
X122305970Y-137840671D01*
X122295480Y-137862849D01*
X122282867Y-137883893D01*
X122268253Y-137903598D01*
X122251777Y-137921777D01*
X122233598Y-137938253D01*
X122213893Y-137952867D01*
X122192849Y-137965480D01*
X122170671Y-137975970D01*
X122147571Y-137984235D01*
X122123773Y-137990196D01*
X122099504Y-137993796D01*
X122075000Y-137995000D01*
X120825000Y-137995000D01*
X120800496Y-137993796D01*
X120776227Y-137990196D01*
X120752429Y-137984235D01*
X120729329Y-137975970D01*
X120707151Y-137965480D01*
X120686107Y-137952867D01*
X120666402Y-137938253D01*
X120648223Y-137921777D01*
X120631747Y-137903598D01*
X120617133Y-137883893D01*
X120604520Y-137862849D01*
X120594030Y-137840671D01*
X120585765Y-137817571D01*
X120579804Y-137793773D01*
X120576204Y-137769504D01*
X120575000Y-137745000D01*
X120575000Y-136995000D01*
X120576204Y-136970496D01*
X120579804Y-136946227D01*
X120585765Y-136922429D01*
X120594030Y-136899329D01*
X120604520Y-136877151D01*
X120617133Y-136856107D01*
X120631747Y-136836402D01*
X120648223Y-136818223D01*
X120666402Y-136801747D01*
X120686107Y-136787133D01*
X120707151Y-136774520D01*
X120729329Y-136764030D01*
X120752429Y-136755765D01*
X120776227Y-136749804D01*
X120800496Y-136746204D01*
X120825000Y-136745000D01*
X122075000Y-136745000D01*
X122099504Y-136746204D01*
G37*
G36*
X253319504Y-136846204D02*
G01*
X253343773Y-136849804D01*
X253367571Y-136855765D01*
X253390671Y-136864030D01*
X253412849Y-136874520D01*
X253433893Y-136887133D01*
X253453598Y-136901747D01*
X253471777Y-136918223D01*
X253488253Y-136936402D01*
X253502867Y-136956107D01*
X253515480Y-136977151D01*
X253525970Y-136999329D01*
X253534235Y-137022429D01*
X253540196Y-137046227D01*
X253543796Y-137070496D01*
X253545000Y-137095000D01*
X253545000Y-137845000D01*
X253543796Y-137869504D01*
X253540196Y-137893773D01*
X253534235Y-137917571D01*
X253525970Y-137940671D01*
X253515480Y-137962849D01*
X253502867Y-137983893D01*
X253488253Y-138003598D01*
X253471777Y-138021777D01*
X253453598Y-138038253D01*
X253433893Y-138052867D01*
X253412849Y-138065480D01*
X253390671Y-138075970D01*
X253367571Y-138084235D01*
X253343773Y-138090196D01*
X253319504Y-138093796D01*
X253295000Y-138095000D01*
X252045000Y-138095000D01*
X252020496Y-138093796D01*
X251996227Y-138090196D01*
X251972429Y-138084235D01*
X251949329Y-138075970D01*
X251927151Y-138065480D01*
X251906107Y-138052867D01*
X251886402Y-138038253D01*
X251868223Y-138021777D01*
X251851747Y-138003598D01*
X251837133Y-137983893D01*
X251824520Y-137962849D01*
X251814030Y-137940671D01*
X251805765Y-137917571D01*
X251799804Y-137893773D01*
X251796204Y-137869504D01*
X251795000Y-137845000D01*
X251795000Y-137095000D01*
X251796204Y-137070496D01*
X251799804Y-137046227D01*
X251805765Y-137022429D01*
X251814030Y-136999329D01*
X251824520Y-136977151D01*
X251837133Y-136956107D01*
X251851747Y-136936402D01*
X251868223Y-136918223D01*
X251886402Y-136901747D01*
X251906107Y-136887133D01*
X251927151Y-136874520D01*
X251949329Y-136864030D01*
X251972429Y-136855765D01*
X251996227Y-136849804D01*
X252020496Y-136846204D01*
X252045000Y-136845000D01*
X253295000Y-136845000D01*
X253319504Y-136846204D01*
G37*
G36*
X253319504Y-134046204D02*
G01*
X253343773Y-134049804D01*
X253367571Y-134055765D01*
X253390671Y-134064030D01*
X253412849Y-134074520D01*
X253433893Y-134087133D01*
X253453598Y-134101747D01*
X253471777Y-134118223D01*
X253488253Y-134136402D01*
X253502867Y-134156107D01*
X253515480Y-134177151D01*
X253525970Y-134199329D01*
X253534235Y-134222429D01*
X253540196Y-134246227D01*
X253543796Y-134270496D01*
X253545000Y-134295000D01*
X253545000Y-135045000D01*
X253543796Y-135069504D01*
X253540196Y-135093773D01*
X253534235Y-135117571D01*
X253525970Y-135140671D01*
X253515480Y-135162849D01*
X253502867Y-135183893D01*
X253488253Y-135203598D01*
X253471777Y-135221777D01*
X253453598Y-135238253D01*
X253433893Y-135252867D01*
X253412849Y-135265480D01*
X253390671Y-135275970D01*
X253367571Y-135284235D01*
X253343773Y-135290196D01*
X253319504Y-135293796D01*
X253295000Y-135295000D01*
X252045000Y-135295000D01*
X252020496Y-135293796D01*
X251996227Y-135290196D01*
X251972429Y-135284235D01*
X251949329Y-135275970D01*
X251927151Y-135265480D01*
X251906107Y-135252867D01*
X251886402Y-135238253D01*
X251868223Y-135221777D01*
X251851747Y-135203598D01*
X251837133Y-135183893D01*
X251824520Y-135162849D01*
X251814030Y-135140671D01*
X251805765Y-135117571D01*
X251799804Y-135093773D01*
X251796204Y-135069504D01*
X251795000Y-135045000D01*
X251795000Y-134295000D01*
X251796204Y-134270496D01*
X251799804Y-134246227D01*
X251805765Y-134222429D01*
X251814030Y-134199329D01*
X251824520Y-134177151D01*
X251837133Y-134156107D01*
X251851747Y-134136402D01*
X251868223Y-134118223D01*
X251886402Y-134101747D01*
X251906107Y-134087133D01*
X251927151Y-134074520D01*
X251949329Y-134064030D01*
X251972429Y-134055765D01*
X251996227Y-134049804D01*
X252020496Y-134046204D01*
X252045000Y-134045000D01*
X253295000Y-134045000D01*
X253319504Y-134046204D01*
G37*
G36*
X297569504Y-133866204D02*
G01*
X297593773Y-133869804D01*
X297617571Y-133875765D01*
X297640671Y-133884030D01*
X297662849Y-133894520D01*
X297683893Y-133907133D01*
X297703598Y-133921747D01*
X297721777Y-133938223D01*
X297738253Y-133956402D01*
X297752867Y-133976107D01*
X297765480Y-133997151D01*
X297775970Y-134019329D01*
X297784235Y-134042429D01*
X297790196Y-134066227D01*
X297793796Y-134090496D01*
X297795000Y-134115000D01*
X297795000Y-134865000D01*
X297793796Y-134889504D01*
X297790196Y-134913773D01*
X297784235Y-134937571D01*
X297775970Y-134960671D01*
X297765480Y-134982849D01*
X297752867Y-135003893D01*
X297738253Y-135023598D01*
X297721777Y-135041777D01*
X297703598Y-135058253D01*
X297683893Y-135072867D01*
X297662849Y-135085480D01*
X297640671Y-135095970D01*
X297617571Y-135104235D01*
X297593773Y-135110196D01*
X297569504Y-135113796D01*
X297545000Y-135115000D01*
X296295000Y-135115000D01*
X296270496Y-135113796D01*
X296246227Y-135110196D01*
X296222429Y-135104235D01*
X296199329Y-135095970D01*
X296177151Y-135085480D01*
X296156107Y-135072867D01*
X296136402Y-135058253D01*
X296118223Y-135041777D01*
X296101747Y-135023598D01*
X296087133Y-135003893D01*
X296074520Y-134982849D01*
X296064030Y-134960671D01*
X296055765Y-134937571D01*
X296049804Y-134913773D01*
X296046204Y-134889504D01*
X296045000Y-134865000D01*
X296045000Y-134115000D01*
X296046204Y-134090496D01*
X296049804Y-134066227D01*
X296055765Y-134042429D01*
X296064030Y-134019329D01*
X296074520Y-133997151D01*
X296087133Y-133976107D01*
X296101747Y-133956402D01*
X296118223Y-133938223D01*
X296136402Y-133921747D01*
X296156107Y-133907133D01*
X296177151Y-133894520D01*
X296199329Y-133884030D01*
X296222429Y-133875765D01*
X296246227Y-133869804D01*
X296270496Y-133866204D01*
X296295000Y-133865000D01*
X297545000Y-133865000D01*
X297569504Y-133866204D01*
G37*
G36*
X297569504Y-136666204D02*
G01*
X297593773Y-136669804D01*
X297617571Y-136675765D01*
X297640671Y-136684030D01*
X297662849Y-136694520D01*
X297683893Y-136707133D01*
X297703598Y-136721747D01*
X297721777Y-136738223D01*
X297738253Y-136756402D01*
X297752867Y-136776107D01*
X297765480Y-136797151D01*
X297775970Y-136819329D01*
X297784235Y-136842429D01*
X297790196Y-136866227D01*
X297793796Y-136890496D01*
X297795000Y-136915000D01*
X297795000Y-137665000D01*
X297793796Y-137689504D01*
X297790196Y-137713773D01*
X297784235Y-137737571D01*
X297775970Y-137760671D01*
X297765480Y-137782849D01*
X297752867Y-137803893D01*
X297738253Y-137823598D01*
X297721777Y-137841777D01*
X297703598Y-137858253D01*
X297683893Y-137872867D01*
X297662849Y-137885480D01*
X297640671Y-137895970D01*
X297617571Y-137904235D01*
X297593773Y-137910196D01*
X297569504Y-137913796D01*
X297545000Y-137915000D01*
X296295000Y-137915000D01*
X296270496Y-137913796D01*
X296246227Y-137910196D01*
X296222429Y-137904235D01*
X296199329Y-137895970D01*
X296177151Y-137885480D01*
X296156107Y-137872867D01*
X296136402Y-137858253D01*
X296118223Y-137841777D01*
X296101747Y-137823598D01*
X296087133Y-137803893D01*
X296074520Y-137782849D01*
X296064030Y-137760671D01*
X296055765Y-137737571D01*
X296049804Y-137713773D01*
X296046204Y-137689504D01*
X296045000Y-137665000D01*
X296045000Y-136915000D01*
X296046204Y-136890496D01*
X296049804Y-136866227D01*
X296055765Y-136842429D01*
X296064030Y-136819329D01*
X296074520Y-136797151D01*
X296087133Y-136776107D01*
X296101747Y-136756402D01*
X296118223Y-136738223D01*
X296136402Y-136721747D01*
X296156107Y-136707133D01*
X296177151Y-136694520D01*
X296199329Y-136684030D01*
X296222429Y-136675765D01*
X296246227Y-136669804D01*
X296270496Y-136666204D01*
X296295000Y-136665000D01*
X297545000Y-136665000D01*
X297569504Y-136666204D01*
G37*
G36*
X209509504Y-133856204D02*
G01*
X209533773Y-133859804D01*
X209557571Y-133865765D01*
X209580671Y-133874030D01*
X209602849Y-133884520D01*
X209623893Y-133897133D01*
X209643598Y-133911747D01*
X209661777Y-133928223D01*
X209678253Y-133946402D01*
X209692867Y-133966107D01*
X209705480Y-133987151D01*
X209715970Y-134009329D01*
X209724235Y-134032429D01*
X209730196Y-134056227D01*
X209733796Y-134080496D01*
X209735000Y-134105000D01*
X209735000Y-134855000D01*
X209733796Y-134879504D01*
X209730196Y-134903773D01*
X209724235Y-134927571D01*
X209715970Y-134950671D01*
X209705480Y-134972849D01*
X209692867Y-134993893D01*
X209678253Y-135013598D01*
X209661777Y-135031777D01*
X209643598Y-135048253D01*
X209623893Y-135062867D01*
X209602849Y-135075480D01*
X209580671Y-135085970D01*
X209557571Y-135094235D01*
X209533773Y-135100196D01*
X209509504Y-135103796D01*
X209485000Y-135105000D01*
X208235000Y-135105000D01*
X208210496Y-135103796D01*
X208186227Y-135100196D01*
X208162429Y-135094235D01*
X208139329Y-135085970D01*
X208117151Y-135075480D01*
X208096107Y-135062867D01*
X208076402Y-135048253D01*
X208058223Y-135031777D01*
X208041747Y-135013598D01*
X208027133Y-134993893D01*
X208014520Y-134972849D01*
X208004030Y-134950671D01*
X207995765Y-134927571D01*
X207989804Y-134903773D01*
X207986204Y-134879504D01*
X207985000Y-134855000D01*
X207985000Y-134105000D01*
X207986204Y-134080496D01*
X207989804Y-134056227D01*
X207995765Y-134032429D01*
X208004030Y-134009329D01*
X208014520Y-133987151D01*
X208027133Y-133966107D01*
X208041747Y-133946402D01*
X208058223Y-133928223D01*
X208076402Y-133911747D01*
X208096107Y-133897133D01*
X208117151Y-133884520D01*
X208139329Y-133874030D01*
X208162429Y-133865765D01*
X208186227Y-133859804D01*
X208210496Y-133856204D01*
X208235000Y-133855000D01*
X209485000Y-133855000D01*
X209509504Y-133856204D01*
G37*
G36*
X209509504Y-136656204D02*
G01*
X209533773Y-136659804D01*
X209557571Y-136665765D01*
X209580671Y-136674030D01*
X209602849Y-136684520D01*
X209623893Y-136697133D01*
X209643598Y-136711747D01*
X209661777Y-136728223D01*
X209678253Y-136746402D01*
X209692867Y-136766107D01*
X209705480Y-136787151D01*
X209715970Y-136809329D01*
X209724235Y-136832429D01*
X209730196Y-136856227D01*
X209733796Y-136880496D01*
X209735000Y-136905000D01*
X209735000Y-137655000D01*
X209733796Y-137679504D01*
X209730196Y-137703773D01*
X209724235Y-137727571D01*
X209715970Y-137750671D01*
X209705480Y-137772849D01*
X209692867Y-137793893D01*
X209678253Y-137813598D01*
X209661777Y-137831777D01*
X209643598Y-137848253D01*
X209623893Y-137862867D01*
X209602849Y-137875480D01*
X209580671Y-137885970D01*
X209557571Y-137894235D01*
X209533773Y-137900196D01*
X209509504Y-137903796D01*
X209485000Y-137905000D01*
X208235000Y-137905000D01*
X208210496Y-137903796D01*
X208186227Y-137900196D01*
X208162429Y-137894235D01*
X208139329Y-137885970D01*
X208117151Y-137875480D01*
X208096107Y-137862867D01*
X208076402Y-137848253D01*
X208058223Y-137831777D01*
X208041747Y-137813598D01*
X208027133Y-137793893D01*
X208014520Y-137772849D01*
X208004030Y-137750671D01*
X207995765Y-137727571D01*
X207989804Y-137703773D01*
X207986204Y-137679504D01*
X207985000Y-137655000D01*
X207985000Y-136905000D01*
X207986204Y-136880496D01*
X207989804Y-136856227D01*
X207995765Y-136832429D01*
X208004030Y-136809329D01*
X208014520Y-136787151D01*
X208027133Y-136766107D01*
X208041747Y-136746402D01*
X208058223Y-136728223D01*
X208076402Y-136711747D01*
X208096107Y-136697133D01*
X208117151Y-136684520D01*
X208139329Y-136674030D01*
X208162429Y-136665765D01*
X208186227Y-136659804D01*
X208210496Y-136656204D01*
X208235000Y-136655000D01*
X209485000Y-136655000D01*
X209509504Y-136656204D01*
G37*
G36*
X165849504Y-136576204D02*
G01*
X165873773Y-136579804D01*
X165897571Y-136585765D01*
X165920671Y-136594030D01*
X165942849Y-136604520D01*
X165963893Y-136617133D01*
X165983598Y-136631747D01*
X166001777Y-136648223D01*
X166018253Y-136666402D01*
X166032867Y-136686107D01*
X166045480Y-136707151D01*
X166055970Y-136729329D01*
X166064235Y-136752429D01*
X166070196Y-136776227D01*
X166073796Y-136800496D01*
X166075000Y-136825000D01*
X166075000Y-137575000D01*
X166073796Y-137599504D01*
X166070196Y-137623773D01*
X166064235Y-137647571D01*
X166055970Y-137670671D01*
X166045480Y-137692849D01*
X166032867Y-137713893D01*
X166018253Y-137733598D01*
X166001777Y-137751777D01*
X165983598Y-137768253D01*
X165963893Y-137782867D01*
X165942849Y-137795480D01*
X165920671Y-137805970D01*
X165897571Y-137814235D01*
X165873773Y-137820196D01*
X165849504Y-137823796D01*
X165825000Y-137825000D01*
X164575000Y-137825000D01*
X164550496Y-137823796D01*
X164526227Y-137820196D01*
X164502429Y-137814235D01*
X164479329Y-137805970D01*
X164457151Y-137795480D01*
X164436107Y-137782867D01*
X164416402Y-137768253D01*
X164398223Y-137751777D01*
X164381747Y-137733598D01*
X164367133Y-137713893D01*
X164354520Y-137692849D01*
X164344030Y-137670671D01*
X164335765Y-137647571D01*
X164329804Y-137623773D01*
X164326204Y-137599504D01*
X164325000Y-137575000D01*
X164325000Y-136825000D01*
X164326204Y-136800496D01*
X164329804Y-136776227D01*
X164335765Y-136752429D01*
X164344030Y-136729329D01*
X164354520Y-136707151D01*
X164367133Y-136686107D01*
X164381747Y-136666402D01*
X164398223Y-136648223D01*
X164416402Y-136631747D01*
X164436107Y-136617133D01*
X164457151Y-136604520D01*
X164479329Y-136594030D01*
X164502429Y-136585765D01*
X164526227Y-136579804D01*
X164550496Y-136576204D01*
X164575000Y-136575000D01*
X165825000Y-136575000D01*
X165849504Y-136576204D01*
G37*
G36*
X165849504Y-133776204D02*
G01*
X165873773Y-133779804D01*
X165897571Y-133785765D01*
X165920671Y-133794030D01*
X165942849Y-133804520D01*
X165963893Y-133817133D01*
X165983598Y-133831747D01*
X166001777Y-133848223D01*
X166018253Y-133866402D01*
X166032867Y-133886107D01*
X166045480Y-133907151D01*
X166055970Y-133929329D01*
X166064235Y-133952429D01*
X166070196Y-133976227D01*
X166073796Y-134000496D01*
X166075000Y-134025000D01*
X166075000Y-134775000D01*
X166073796Y-134799504D01*
X166070196Y-134823773D01*
X166064235Y-134847571D01*
X166055970Y-134870671D01*
X166045480Y-134892849D01*
X166032867Y-134913893D01*
X166018253Y-134933598D01*
X166001777Y-134951777D01*
X165983598Y-134968253D01*
X165963893Y-134982867D01*
X165942849Y-134995480D01*
X165920671Y-135005970D01*
X165897571Y-135014235D01*
X165873773Y-135020196D01*
X165849504Y-135023796D01*
X165825000Y-135025000D01*
X164575000Y-135025000D01*
X164550496Y-135023796D01*
X164526227Y-135020196D01*
X164502429Y-135014235D01*
X164479329Y-135005970D01*
X164457151Y-134995480D01*
X164436107Y-134982867D01*
X164416402Y-134968253D01*
X164398223Y-134951777D01*
X164381747Y-134933598D01*
X164367133Y-134913893D01*
X164354520Y-134892849D01*
X164344030Y-134870671D01*
X164335765Y-134847571D01*
X164329804Y-134823773D01*
X164326204Y-134799504D01*
X164325000Y-134775000D01*
X164325000Y-134025000D01*
X164326204Y-134000496D01*
X164329804Y-133976227D01*
X164335765Y-133952429D01*
X164344030Y-133929329D01*
X164354520Y-133907151D01*
X164367133Y-133886107D01*
X164381747Y-133866402D01*
X164398223Y-133848223D01*
X164416402Y-133831747D01*
X164436107Y-133817133D01*
X164457151Y-133804520D01*
X164479329Y-133794030D01*
X164502429Y-133785765D01*
X164526227Y-133779804D01*
X164550496Y-133776204D01*
X164575000Y-133775000D01*
X165825000Y-133775000D01*
X165849504Y-133776204D01*
G37*
M02*
