G04 #@! TF.GenerationSoftware,KiCad,Pcbnew,5.1.5-52549c5~84~ubuntu18.04.1*
G04 #@! TF.CreationDate,2020-02-28T01:04:36-05:00*
G04 #@! TF.ProjectId,DA_Board_2,44415f42-6f61-4726-945f-322e6b696361,rev?*
G04 #@! TF.SameCoordinates,Original*
G04 #@! TF.FileFunction,Legend,Top*
G04 #@! TF.FilePolarity,Positive*
%FSLAX46Y46*%
G04 Gerber Fmt 4.6, Leading zero omitted, Abs format (unit mm)*
G04 Created by KiCad (PCBNEW 5.1.5-52549c5~84~ubuntu18.04.1) date 2020-02-28 01:04:36*
%MOMM*%
%LPD*%
G04 APERTURE LIST*
%ADD10C,0.300000*%
%ADD11C,0.120000*%
%ADD12C,0.100000*%
%ADD13C,0.150000*%
%ADD14C,0.254000*%
G04 APERTURE END LIST*
D10*
X126322028Y-94183057D02*
X126536314Y-94254485D01*
X126607742Y-94325914D01*
X126679171Y-94468771D01*
X126679171Y-94683057D01*
X126607742Y-94825914D01*
X126536314Y-94897342D01*
X126393457Y-94968771D01*
X125822028Y-94968771D01*
X125822028Y-93468771D01*
X126322028Y-93468771D01*
X126464885Y-93540200D01*
X126536314Y-93611628D01*
X126607742Y-93754485D01*
X126607742Y-93897342D01*
X126536314Y-94040200D01*
X126464885Y-94111628D01*
X126322028Y-94183057D01*
X125822028Y-94183057D01*
X127322028Y-94968771D02*
X127322028Y-93468771D01*
X127822028Y-94540200D01*
X128322028Y-93468771D01*
X128322028Y-94968771D01*
X128964885Y-94897342D02*
X129179171Y-94968771D01*
X129536314Y-94968771D01*
X129679171Y-94897342D01*
X129750600Y-94825914D01*
X129822028Y-94683057D01*
X129822028Y-94540200D01*
X129750600Y-94397342D01*
X129679171Y-94325914D01*
X129536314Y-94254485D01*
X129250600Y-94183057D01*
X129107742Y-94111628D01*
X129036314Y-94040200D01*
X128964885Y-93897342D01*
X128964885Y-93754485D01*
X129036314Y-93611628D01*
X129107742Y-93540200D01*
X129250600Y-93468771D01*
X129607742Y-93468771D01*
X129822028Y-93540200D01*
X131607742Y-94968771D02*
X131607742Y-93468771D01*
X131964885Y-93468771D01*
X132179171Y-93540200D01*
X132322028Y-93683057D01*
X132393457Y-93825914D01*
X132464885Y-94111628D01*
X132464885Y-94325914D01*
X132393457Y-94611628D01*
X132322028Y-94754485D01*
X132179171Y-94897342D01*
X131964885Y-94968771D01*
X131607742Y-94968771D01*
X133750600Y-94968771D02*
X133750600Y-94183057D01*
X133679171Y-94040200D01*
X133536314Y-93968771D01*
X133250600Y-93968771D01*
X133107742Y-94040200D01*
X133750600Y-94897342D02*
X133607742Y-94968771D01*
X133250600Y-94968771D01*
X133107742Y-94897342D01*
X133036314Y-94754485D01*
X133036314Y-94611628D01*
X133107742Y-94468771D01*
X133250600Y-94397342D01*
X133607742Y-94397342D01*
X133750600Y-94325914D01*
X134250600Y-93968771D02*
X134822028Y-93968771D01*
X134464885Y-93468771D02*
X134464885Y-94754485D01*
X134536314Y-94897342D01*
X134679171Y-94968771D01*
X134822028Y-94968771D01*
X135964885Y-94968771D02*
X135964885Y-94183057D01*
X135893457Y-94040200D01*
X135750600Y-93968771D01*
X135464885Y-93968771D01*
X135322028Y-94040200D01*
X135964885Y-94897342D02*
X135822028Y-94968771D01*
X135464885Y-94968771D01*
X135322028Y-94897342D01*
X135250600Y-94754485D01*
X135250600Y-94611628D01*
X135322028Y-94468771D01*
X135464885Y-94397342D01*
X135822028Y-94397342D01*
X135964885Y-94325914D01*
X137750600Y-94540200D02*
X138464885Y-94540200D01*
X137607742Y-94968771D02*
X138107742Y-93468771D01*
X138607742Y-94968771D01*
X139750600Y-94897342D02*
X139607742Y-94968771D01*
X139322028Y-94968771D01*
X139179171Y-94897342D01*
X139107742Y-94825914D01*
X139036314Y-94683057D01*
X139036314Y-94254485D01*
X139107742Y-94111628D01*
X139179171Y-94040200D01*
X139322028Y-93968771D01*
X139607742Y-93968771D01*
X139750600Y-94040200D01*
X141036314Y-93968771D02*
X141036314Y-95468771D01*
X141036314Y-94897342D02*
X140893457Y-94968771D01*
X140607742Y-94968771D01*
X140464885Y-94897342D01*
X140393457Y-94825914D01*
X140322028Y-94683057D01*
X140322028Y-94254485D01*
X140393457Y-94111628D01*
X140464885Y-94040200D01*
X140607742Y-93968771D01*
X140893457Y-93968771D01*
X141036314Y-94040200D01*
X142393457Y-93968771D02*
X142393457Y-94968771D01*
X141750600Y-93968771D02*
X141750600Y-94754485D01*
X141822028Y-94897342D01*
X141964885Y-94968771D01*
X142179171Y-94968771D01*
X142322028Y-94897342D01*
X142393457Y-94825914D01*
X143107742Y-94968771D02*
X143107742Y-93968771D01*
X143107742Y-93468771D02*
X143036314Y-93540200D01*
X143107742Y-93611628D01*
X143179171Y-93540200D01*
X143107742Y-93468771D01*
X143107742Y-93611628D01*
X143750600Y-94897342D02*
X143893457Y-94968771D01*
X144179171Y-94968771D01*
X144322028Y-94897342D01*
X144393457Y-94754485D01*
X144393457Y-94683057D01*
X144322028Y-94540200D01*
X144179171Y-94468771D01*
X143964885Y-94468771D01*
X143822028Y-94397342D01*
X143750600Y-94254485D01*
X143750600Y-94183057D01*
X143822028Y-94040200D01*
X143964885Y-93968771D01*
X144179171Y-93968771D01*
X144322028Y-94040200D01*
X145036314Y-94968771D02*
X145036314Y-93968771D01*
X145036314Y-93468771D02*
X144964885Y-93540200D01*
X145036314Y-93611628D01*
X145107742Y-93540200D01*
X145036314Y-93468771D01*
X145036314Y-93611628D01*
X145536314Y-93968771D02*
X146107742Y-93968771D01*
X145750600Y-93468771D02*
X145750600Y-94754485D01*
X145822028Y-94897342D01*
X145964885Y-94968771D01*
X146107742Y-94968771D01*
X146607742Y-94968771D02*
X146607742Y-93968771D01*
X146607742Y-93468771D02*
X146536314Y-93540200D01*
X146607742Y-93611628D01*
X146679171Y-93540200D01*
X146607742Y-93468771D01*
X146607742Y-93611628D01*
X147536314Y-94968771D02*
X147393457Y-94897342D01*
X147322028Y-94825914D01*
X147250600Y-94683057D01*
X147250600Y-94254485D01*
X147322028Y-94111628D01*
X147393457Y-94040200D01*
X147536314Y-93968771D01*
X147750600Y-93968771D01*
X147893457Y-94040200D01*
X147964885Y-94111628D01*
X148036314Y-94254485D01*
X148036314Y-94683057D01*
X147964885Y-94825914D01*
X147893457Y-94897342D01*
X147750600Y-94968771D01*
X147536314Y-94968771D01*
X148679171Y-93968771D02*
X148679171Y-94968771D01*
X148679171Y-94111628D02*
X148750600Y-94040200D01*
X148893457Y-93968771D01*
X149107742Y-93968771D01*
X149250600Y-94040200D01*
X149322028Y-94183057D01*
X149322028Y-94968771D01*
X151107742Y-93968771D02*
X152179171Y-93968771D01*
X151536314Y-93325914D02*
X151107742Y-95254485D01*
X152036314Y-94611628D02*
X150964885Y-94611628D01*
X151607742Y-95254485D02*
X152036314Y-93325914D01*
X152607742Y-93611628D02*
X152679171Y-93540200D01*
X152822028Y-93468771D01*
X153179171Y-93468771D01*
X153322028Y-93540200D01*
X153393457Y-93611628D01*
X153464885Y-93754485D01*
X153464885Y-93897342D01*
X153393457Y-94111628D01*
X152536314Y-94968771D01*
X153464885Y-94968771D01*
X156107742Y-94968771D02*
X155607742Y-94254485D01*
X155250600Y-94968771D02*
X155250600Y-93468771D01*
X155822028Y-93468771D01*
X155964885Y-93540200D01*
X156036314Y-93611628D01*
X156107742Y-93754485D01*
X156107742Y-93968771D01*
X156036314Y-94111628D01*
X155964885Y-94183057D01*
X155822028Y-94254485D01*
X155250600Y-94254485D01*
X157322028Y-94897342D02*
X157179171Y-94968771D01*
X156893457Y-94968771D01*
X156750600Y-94897342D01*
X156679171Y-94754485D01*
X156679171Y-94183057D01*
X156750600Y-94040200D01*
X156893457Y-93968771D01*
X157179171Y-93968771D01*
X157322028Y-94040200D01*
X157393457Y-94183057D01*
X157393457Y-94325914D01*
X156679171Y-94468771D01*
X157893457Y-93968771D02*
X158250600Y-94968771D01*
X158607742Y-93968771D01*
X160250600Y-93611628D02*
X160322028Y-93540200D01*
X160464885Y-93468771D01*
X160822028Y-93468771D01*
X160964885Y-93540200D01*
X161036314Y-93611628D01*
X161107742Y-93754485D01*
X161107742Y-93897342D01*
X161036314Y-94111628D01*
X160179171Y-94968771D01*
X161107742Y-94968771D01*
X161750600Y-94825914D02*
X161822028Y-94897342D01*
X161750600Y-94968771D01*
X161679171Y-94897342D01*
X161750600Y-94825914D01*
X161750600Y-94968771D01*
X162750600Y-93468771D02*
X162893457Y-93468771D01*
X163036314Y-93540200D01*
X163107742Y-93611628D01*
X163179171Y-93754485D01*
X163250600Y-94040200D01*
X163250600Y-94397342D01*
X163179171Y-94683057D01*
X163107742Y-94825914D01*
X163036314Y-94897342D01*
X162893457Y-94968771D01*
X162750600Y-94968771D01*
X162607742Y-94897342D01*
X162536314Y-94825914D01*
X162464885Y-94683057D01*
X162393457Y-94397342D01*
X162393457Y-94040200D01*
X162464885Y-93754485D01*
X162536314Y-93611628D01*
X162607742Y-93540200D01*
X162750600Y-93468771D01*
X130964885Y-96018771D02*
X131250600Y-96018771D01*
X131393457Y-96090200D01*
X131536314Y-96233057D01*
X131607742Y-96518771D01*
X131607742Y-97018771D01*
X131536314Y-97304485D01*
X131393457Y-97447342D01*
X131250600Y-97518771D01*
X130964885Y-97518771D01*
X130822028Y-97447342D01*
X130679171Y-97304485D01*
X130607742Y-97018771D01*
X130607742Y-96518771D01*
X130679171Y-96233057D01*
X130822028Y-96090200D01*
X130964885Y-96018771D01*
X132464885Y-97518771D02*
X132322028Y-97447342D01*
X132250600Y-97304485D01*
X132250600Y-96018771D01*
X133036314Y-97518771D02*
X133036314Y-96518771D01*
X133036314Y-96018771D02*
X132964885Y-96090200D01*
X133036314Y-96161628D01*
X133107742Y-96090200D01*
X133036314Y-96018771D01*
X133036314Y-96161628D01*
X133750600Y-96518771D02*
X133750600Y-97518771D01*
X133750600Y-96661628D02*
X133822028Y-96590200D01*
X133964885Y-96518771D01*
X134179171Y-96518771D01*
X134322028Y-96590200D01*
X134393457Y-96733057D01*
X134393457Y-97518771D01*
X136250600Y-96733057D02*
X136750600Y-96733057D01*
X136964885Y-97518771D02*
X136250600Y-97518771D01*
X136250600Y-96018771D01*
X136964885Y-96018771D01*
X137822028Y-97518771D02*
X137679171Y-97447342D01*
X137607742Y-97304485D01*
X137607742Y-96018771D01*
X138964885Y-97447342D02*
X138822028Y-97518771D01*
X138536314Y-97518771D01*
X138393457Y-97447342D01*
X138322028Y-97304485D01*
X138322028Y-96733057D01*
X138393457Y-96590200D01*
X138536314Y-96518771D01*
X138822028Y-96518771D01*
X138964885Y-96590200D01*
X139036314Y-96733057D01*
X139036314Y-96875914D01*
X138322028Y-97018771D01*
X140322028Y-97447342D02*
X140179171Y-97518771D01*
X139893457Y-97518771D01*
X139750600Y-97447342D01*
X139679171Y-97375914D01*
X139607742Y-97233057D01*
X139607742Y-96804485D01*
X139679171Y-96661628D01*
X139750600Y-96590200D01*
X139893457Y-96518771D01*
X140179171Y-96518771D01*
X140322028Y-96590200D01*
X140750600Y-96518771D02*
X141322028Y-96518771D01*
X140964885Y-96018771D02*
X140964885Y-97304485D01*
X141036314Y-97447342D01*
X141179171Y-97518771D01*
X141322028Y-97518771D01*
X141822028Y-97518771D02*
X141822028Y-96518771D01*
X141822028Y-96804485D02*
X141893457Y-96661628D01*
X141964885Y-96590200D01*
X142107742Y-96518771D01*
X142250600Y-96518771D01*
X142750600Y-97518771D02*
X142750600Y-96518771D01*
X142750600Y-96018771D02*
X142679171Y-96090200D01*
X142750600Y-96161628D01*
X142822028Y-96090200D01*
X142750600Y-96018771D01*
X142750600Y-96161628D01*
X144107742Y-97447342D02*
X143964885Y-97518771D01*
X143679171Y-97518771D01*
X143536314Y-97447342D01*
X143464885Y-97375914D01*
X143393457Y-97233057D01*
X143393457Y-96804485D01*
X143464885Y-96661628D01*
X143536314Y-96590200D01*
X143679171Y-96518771D01*
X143964885Y-96518771D01*
X144107742Y-96590200D01*
X145893457Y-97518771D02*
X145893457Y-96018771D01*
X146393457Y-97090200D01*
X146893457Y-96018771D01*
X146893457Y-97518771D01*
X147822028Y-97518771D02*
X147679171Y-97447342D01*
X147607742Y-97375914D01*
X147536314Y-97233057D01*
X147536314Y-96804485D01*
X147607742Y-96661628D01*
X147679171Y-96590200D01*
X147822028Y-96518771D01*
X148036314Y-96518771D01*
X148179171Y-96590200D01*
X148250600Y-96661628D01*
X148322028Y-96804485D01*
X148322028Y-97233057D01*
X148250600Y-97375914D01*
X148179171Y-97447342D01*
X148036314Y-97518771D01*
X147822028Y-97518771D01*
X148750600Y-96518771D02*
X149322028Y-96518771D01*
X148964885Y-96018771D02*
X148964885Y-97304485D01*
X149036314Y-97447342D01*
X149179171Y-97518771D01*
X149322028Y-97518771D01*
X150036314Y-97518771D02*
X149893457Y-97447342D01*
X149822028Y-97375914D01*
X149750600Y-97233057D01*
X149750600Y-96804485D01*
X149822028Y-96661628D01*
X149893457Y-96590200D01*
X150036314Y-96518771D01*
X150250600Y-96518771D01*
X150393457Y-96590200D01*
X150464885Y-96661628D01*
X150536314Y-96804485D01*
X150536314Y-97233057D01*
X150464885Y-97375914D01*
X150393457Y-97447342D01*
X150250600Y-97518771D01*
X150036314Y-97518771D01*
X151179171Y-97518771D02*
X151179171Y-96518771D01*
X151179171Y-96804485D02*
X151250600Y-96661628D01*
X151322028Y-96590200D01*
X151464885Y-96518771D01*
X151607742Y-96518771D01*
X152036314Y-97447342D02*
X152179171Y-97518771D01*
X152464885Y-97518771D01*
X152607742Y-97447342D01*
X152679171Y-97304485D01*
X152679171Y-97233057D01*
X152607742Y-97090200D01*
X152464885Y-97018771D01*
X152250600Y-97018771D01*
X152107742Y-96947342D01*
X152036314Y-96804485D01*
X152036314Y-96733057D01*
X152107742Y-96590200D01*
X152250600Y-96518771D01*
X152464885Y-96518771D01*
X152607742Y-96590200D01*
X153322028Y-96518771D02*
X153322028Y-98018771D01*
X153322028Y-96590200D02*
X153464885Y-96518771D01*
X153750600Y-96518771D01*
X153893457Y-96590200D01*
X153964885Y-96661628D01*
X154036314Y-96804485D01*
X154036314Y-97233057D01*
X153964885Y-97375914D01*
X153893457Y-97447342D01*
X153750600Y-97518771D01*
X153464885Y-97518771D01*
X153322028Y-97447342D01*
X154893457Y-97518771D02*
X154750600Y-97447342D01*
X154679171Y-97375914D01*
X154607742Y-97233057D01*
X154607742Y-96804485D01*
X154679171Y-96661628D01*
X154750600Y-96590200D01*
X154893457Y-96518771D01*
X155107742Y-96518771D01*
X155250600Y-96590200D01*
X155322028Y-96661628D01*
X155393457Y-96804485D01*
X155393457Y-97233057D01*
X155322028Y-97375914D01*
X155250600Y-97447342D01*
X155107742Y-97518771D01*
X154893457Y-97518771D01*
X156036314Y-97518771D02*
X156036314Y-96518771D01*
X156036314Y-96804485D02*
X156107742Y-96661628D01*
X156179171Y-96590200D01*
X156322028Y-96518771D01*
X156464885Y-96518771D01*
X156750600Y-96518771D02*
X157322028Y-96518771D01*
X156964885Y-96018771D02*
X156964885Y-97304485D01*
X157036314Y-97447342D01*
X157179171Y-97518771D01*
X157322028Y-97518771D01*
X157750600Y-97447342D02*
X157893457Y-97518771D01*
X158179171Y-97518771D01*
X158322028Y-97447342D01*
X158393457Y-97304485D01*
X158393457Y-97233057D01*
X158322028Y-97090200D01*
X158179171Y-97018771D01*
X157964885Y-97018771D01*
X157822028Y-96947342D01*
X157750600Y-96804485D01*
X157750600Y-96733057D01*
X157822028Y-96590200D01*
X157964885Y-96518771D01*
X158179171Y-96518771D01*
X158322028Y-96590200D01*
X138214885Y-98711628D02*
X138286314Y-98640200D01*
X138429171Y-98568771D01*
X138786314Y-98568771D01*
X138929171Y-98640200D01*
X139000600Y-98711628D01*
X139072028Y-98854485D01*
X139072028Y-98997342D01*
X139000600Y-99211628D01*
X138143457Y-100068771D01*
X139072028Y-100068771D01*
X140786314Y-98497342D02*
X139500600Y-100425914D01*
X141214885Y-98711628D02*
X141286314Y-98640200D01*
X141429171Y-98568771D01*
X141786314Y-98568771D01*
X141929171Y-98640200D01*
X142000600Y-98711628D01*
X142072028Y-98854485D01*
X142072028Y-98997342D01*
X142000600Y-99211628D01*
X141143457Y-100068771D01*
X142072028Y-100068771D01*
X142572028Y-98568771D02*
X143572028Y-98568771D01*
X142929171Y-100068771D01*
X145214885Y-98497342D02*
X143929171Y-100425914D01*
X145643457Y-98711628D02*
X145714885Y-98640200D01*
X145857742Y-98568771D01*
X146214885Y-98568771D01*
X146357742Y-98640200D01*
X146429171Y-98711628D01*
X146500600Y-98854485D01*
X146500600Y-98997342D01*
X146429171Y-99211628D01*
X145572028Y-100068771D01*
X146500600Y-100068771D01*
X147429171Y-98568771D02*
X147572028Y-98568771D01*
X147714885Y-98640200D01*
X147786314Y-98711628D01*
X147857742Y-98854485D01*
X147929171Y-99140200D01*
X147929171Y-99497342D01*
X147857742Y-99783057D01*
X147786314Y-99925914D01*
X147714885Y-99997342D01*
X147572028Y-100068771D01*
X147429171Y-100068771D01*
X147286314Y-99997342D01*
X147214885Y-99925914D01*
X147143457Y-99783057D01*
X147072028Y-99497342D01*
X147072028Y-99140200D01*
X147143457Y-98854485D01*
X147214885Y-98711628D01*
X147286314Y-98640200D01*
X147429171Y-98568771D01*
X148500600Y-98711628D02*
X148572028Y-98640200D01*
X148714885Y-98568771D01*
X149072028Y-98568771D01*
X149214885Y-98640200D01*
X149286314Y-98711628D01*
X149357742Y-98854485D01*
X149357742Y-98997342D01*
X149286314Y-99211628D01*
X148429171Y-100068771D01*
X149357742Y-100068771D01*
X150286314Y-98568771D02*
X150429171Y-98568771D01*
X150572028Y-98640200D01*
X150643457Y-98711628D01*
X150714885Y-98854485D01*
X150786314Y-99140200D01*
X150786314Y-99497342D01*
X150714885Y-99783057D01*
X150643457Y-99925914D01*
X150572028Y-99997342D01*
X150429171Y-100068771D01*
X150286314Y-100068771D01*
X150143457Y-99997342D01*
X150072028Y-99925914D01*
X150000600Y-99783057D01*
X149929171Y-99497342D01*
X149929171Y-99140200D01*
X150000600Y-98854485D01*
X150072028Y-98711628D01*
X150143457Y-98640200D01*
X150286314Y-98568771D01*
X133679171Y-101118771D02*
X134179171Y-102618771D01*
X134679171Y-101118771D01*
X135179171Y-102618771D02*
X135179171Y-101618771D01*
X135179171Y-101118771D02*
X135107742Y-101190200D01*
X135179171Y-101261628D01*
X135250600Y-101190200D01*
X135179171Y-101118771D01*
X135179171Y-101261628D01*
X136464885Y-102547342D02*
X136322028Y-102618771D01*
X136036314Y-102618771D01*
X135893457Y-102547342D01*
X135822028Y-102404485D01*
X135822028Y-101833057D01*
X135893457Y-101690200D01*
X136036314Y-101618771D01*
X136322028Y-101618771D01*
X136464885Y-101690200D01*
X136536314Y-101833057D01*
X136536314Y-101975914D01*
X135822028Y-102118771D01*
X137179171Y-101618771D02*
X137179171Y-102618771D01*
X137179171Y-101761628D02*
X137250600Y-101690200D01*
X137393457Y-101618771D01*
X137607742Y-101618771D01*
X137750600Y-101690200D01*
X137822028Y-101833057D01*
X137822028Y-102618771D01*
X138536314Y-101618771D02*
X138536314Y-102618771D01*
X138536314Y-101761628D02*
X138607742Y-101690200D01*
X138750600Y-101618771D01*
X138964885Y-101618771D01*
X139107742Y-101690200D01*
X139179171Y-101833057D01*
X139179171Y-102618771D01*
X140536314Y-102618771D02*
X140536314Y-101833057D01*
X140464885Y-101690200D01*
X140322028Y-101618771D01*
X140036314Y-101618771D01*
X139893457Y-101690200D01*
X140536314Y-102547342D02*
X140393457Y-102618771D01*
X140036314Y-102618771D01*
X139893457Y-102547342D01*
X139822028Y-102404485D01*
X139822028Y-102261628D01*
X139893457Y-102118771D01*
X140036314Y-102047342D01*
X140393457Y-102047342D01*
X140536314Y-101975914D01*
X142322028Y-102547342D02*
X142536314Y-102618771D01*
X142893457Y-102618771D01*
X143036314Y-102547342D01*
X143107742Y-102475914D01*
X143179171Y-102333057D01*
X143179171Y-102190200D01*
X143107742Y-102047342D01*
X143036314Y-101975914D01*
X142893457Y-101904485D01*
X142607742Y-101833057D01*
X142464885Y-101761628D01*
X142393457Y-101690200D01*
X142322028Y-101547342D01*
X142322028Y-101404485D01*
X142393457Y-101261628D01*
X142464885Y-101190200D01*
X142607742Y-101118771D01*
X142964885Y-101118771D01*
X143179171Y-101190200D01*
X144464885Y-102547342D02*
X144322028Y-102618771D01*
X144036314Y-102618771D01*
X143893457Y-102547342D01*
X143822028Y-102475914D01*
X143750600Y-102333057D01*
X143750600Y-101904485D01*
X143822028Y-101761628D01*
X143893457Y-101690200D01*
X144036314Y-101618771D01*
X144322028Y-101618771D01*
X144464885Y-101690200D01*
X145107742Y-102618771D02*
X145107742Y-101118771D01*
X145750600Y-102618771D02*
X145750600Y-101833057D01*
X145679171Y-101690200D01*
X145536314Y-101618771D01*
X145322028Y-101618771D01*
X145179171Y-101690200D01*
X145107742Y-101761628D01*
X147036314Y-102547342D02*
X146893457Y-102618771D01*
X146607742Y-102618771D01*
X146464885Y-102547342D01*
X146393457Y-102404485D01*
X146393457Y-101833057D01*
X146464885Y-101690200D01*
X146607742Y-101618771D01*
X146893457Y-101618771D01*
X147036314Y-101690200D01*
X147107742Y-101833057D01*
X147107742Y-101975914D01*
X146393457Y-102118771D01*
X147607742Y-101618771D02*
X147964885Y-102618771D01*
X148322028Y-101618771D02*
X147964885Y-102618771D01*
X147822028Y-102975914D01*
X147750600Y-103047342D01*
X147607742Y-103118771D01*
X149464885Y-102547342D02*
X149322028Y-102618771D01*
X149036314Y-102618771D01*
X148893457Y-102547342D01*
X148822028Y-102404485D01*
X148822028Y-101833057D01*
X148893457Y-101690200D01*
X149036314Y-101618771D01*
X149322028Y-101618771D01*
X149464885Y-101690200D01*
X149536314Y-101833057D01*
X149536314Y-101975914D01*
X148822028Y-102118771D01*
X150179171Y-102618771D02*
X150179171Y-101618771D01*
X150179171Y-101904485D02*
X150250600Y-101761628D01*
X150322028Y-101690200D01*
X150464885Y-101618771D01*
X150607742Y-101618771D01*
X152322028Y-101118771D02*
X152179171Y-101404485D01*
X152893457Y-101261628D02*
X152964885Y-101190200D01*
X153107742Y-101118771D01*
X153464885Y-101118771D01*
X153607742Y-101190200D01*
X153679171Y-101261628D01*
X153750600Y-101404485D01*
X153750600Y-101547342D01*
X153679171Y-101761628D01*
X152822028Y-102618771D01*
X153750600Y-102618771D01*
X155179171Y-102618771D02*
X154322028Y-102618771D01*
X154750600Y-102618771D02*
X154750600Y-101118771D01*
X154607742Y-101333057D01*
X154464885Y-101475914D01*
X154322028Y-101547342D01*
X131357742Y-105025914D02*
X131286314Y-105097342D01*
X131072028Y-105168771D01*
X130929171Y-105168771D01*
X130714885Y-105097342D01*
X130572028Y-104954485D01*
X130500600Y-104811628D01*
X130429171Y-104525914D01*
X130429171Y-104311628D01*
X130500600Y-104025914D01*
X130572028Y-103883057D01*
X130714885Y-103740200D01*
X130929171Y-103668771D01*
X131072028Y-103668771D01*
X131286314Y-103740200D01*
X131357742Y-103811628D01*
X132214885Y-105168771D02*
X132072028Y-105097342D01*
X132000600Y-105025914D01*
X131929171Y-104883057D01*
X131929171Y-104454485D01*
X132000600Y-104311628D01*
X132072028Y-104240200D01*
X132214885Y-104168771D01*
X132429171Y-104168771D01*
X132572028Y-104240200D01*
X132643457Y-104311628D01*
X132714885Y-104454485D01*
X132714885Y-104883057D01*
X132643457Y-105025914D01*
X132572028Y-105097342D01*
X132429171Y-105168771D01*
X132214885Y-105168771D01*
X133357742Y-105168771D02*
X133357742Y-104168771D01*
X133357742Y-104454485D02*
X133429171Y-104311628D01*
X133500600Y-104240200D01*
X133643457Y-104168771D01*
X133786314Y-104168771D01*
X134857742Y-105097342D02*
X134714885Y-105168771D01*
X134429171Y-105168771D01*
X134286314Y-105097342D01*
X134214885Y-104954485D01*
X134214885Y-104383057D01*
X134286314Y-104240200D01*
X134429171Y-104168771D01*
X134714885Y-104168771D01*
X134857742Y-104240200D01*
X134929171Y-104383057D01*
X134929171Y-104525914D01*
X134214885Y-104668771D01*
X135429171Y-104168771D02*
X135786314Y-105168771D01*
X136143457Y-104168771D02*
X135786314Y-105168771D01*
X135643457Y-105525914D01*
X135572028Y-105597342D01*
X135429171Y-105668771D01*
X138714885Y-105025914D02*
X138643457Y-105097342D01*
X138429171Y-105168771D01*
X138286314Y-105168771D01*
X138072028Y-105097342D01*
X137929171Y-104954485D01*
X137857742Y-104811628D01*
X137786314Y-104525914D01*
X137786314Y-104311628D01*
X137857742Y-104025914D01*
X137929171Y-103883057D01*
X138072028Y-103740200D01*
X138286314Y-103668771D01*
X138429171Y-103668771D01*
X138643457Y-103740200D01*
X138714885Y-103811628D01*
X139572028Y-105168771D02*
X139429171Y-105097342D01*
X139357742Y-105025914D01*
X139286314Y-104883057D01*
X139286314Y-104454485D01*
X139357742Y-104311628D01*
X139429171Y-104240200D01*
X139572028Y-104168771D01*
X139786314Y-104168771D01*
X139929171Y-104240200D01*
X140000600Y-104311628D01*
X140072028Y-104454485D01*
X140072028Y-104883057D01*
X140000600Y-105025914D01*
X139929171Y-105097342D01*
X139786314Y-105168771D01*
X139572028Y-105168771D01*
X141357742Y-105097342D02*
X141214885Y-105168771D01*
X140929171Y-105168771D01*
X140786314Y-105097342D01*
X140714885Y-105025914D01*
X140643457Y-104883057D01*
X140643457Y-104454485D01*
X140714885Y-104311628D01*
X140786314Y-104240200D01*
X140929171Y-104168771D01*
X141214885Y-104168771D01*
X141357742Y-104240200D01*
X142000600Y-105168771D02*
X142000600Y-103668771D01*
X142643457Y-105168771D02*
X142643457Y-104383057D01*
X142572028Y-104240200D01*
X142429171Y-104168771D01*
X142214885Y-104168771D01*
X142072028Y-104240200D01*
X142000600Y-104311628D01*
X143357742Y-105168771D02*
X143357742Y-104168771D01*
X143357742Y-104454485D02*
X143429171Y-104311628D01*
X143500600Y-104240200D01*
X143643457Y-104168771D01*
X143786314Y-104168771D01*
X144929171Y-105168771D02*
X144929171Y-104383057D01*
X144857742Y-104240200D01*
X144714885Y-104168771D01*
X144429171Y-104168771D01*
X144286314Y-104240200D01*
X144929171Y-105097342D02*
X144786314Y-105168771D01*
X144429171Y-105168771D01*
X144286314Y-105097342D01*
X144214885Y-104954485D01*
X144214885Y-104811628D01*
X144286314Y-104668771D01*
X144429171Y-104597342D01*
X144786314Y-104597342D01*
X144929171Y-104525914D01*
X145643457Y-104168771D02*
X145643457Y-105168771D01*
X145643457Y-104311628D02*
X145714885Y-104240200D01*
X145857742Y-104168771D01*
X146072028Y-104168771D01*
X146214885Y-104240200D01*
X146286314Y-104383057D01*
X146286314Y-105168771D01*
X147000600Y-104597342D02*
X148143457Y-104597342D01*
X149572028Y-105168771D02*
X148857742Y-105168771D01*
X148857742Y-103668771D01*
X150643457Y-105097342D02*
X150500600Y-105168771D01*
X150214885Y-105168771D01*
X150072028Y-105097342D01*
X150000600Y-104954485D01*
X150000600Y-104383057D01*
X150072028Y-104240200D01*
X150214885Y-104168771D01*
X150500600Y-104168771D01*
X150643457Y-104240200D01*
X150714885Y-104383057D01*
X150714885Y-104525914D01*
X150000600Y-104668771D01*
X151357742Y-104168771D02*
X151357742Y-105668771D01*
X151357742Y-104240200D02*
X151500600Y-104168771D01*
X151786314Y-104168771D01*
X151929171Y-104240200D01*
X152000600Y-104311628D01*
X152072028Y-104454485D01*
X152072028Y-104883057D01*
X152000600Y-105025914D01*
X151929171Y-105097342D01*
X151786314Y-105168771D01*
X151500600Y-105168771D01*
X151357742Y-105097342D01*
X152714885Y-105168771D02*
X152714885Y-104168771D01*
X152714885Y-103668771D02*
X152643457Y-103740200D01*
X152714885Y-103811628D01*
X152786314Y-103740200D01*
X152714885Y-103668771D01*
X152714885Y-103811628D01*
X153286314Y-104168771D02*
X154072028Y-104168771D01*
X153286314Y-105168771D01*
X154072028Y-105168771D01*
X155572028Y-103597342D02*
X155786314Y-103811628D01*
X156286314Y-103811628D02*
X156357742Y-103740200D01*
X156500600Y-103668771D01*
X156857742Y-103668771D01*
X157000600Y-103740200D01*
X157072028Y-103811628D01*
X157143457Y-103954485D01*
X157143457Y-104097342D01*
X157072028Y-104311628D01*
X156214885Y-105168771D01*
X157143457Y-105168771D01*
X158572028Y-105168771D02*
X157714885Y-105168771D01*
X158143457Y-105168771D02*
X158143457Y-103668771D01*
X158000600Y-103883057D01*
X157857742Y-104025914D01*
X157714885Y-104097342D01*
D11*
X304331600Y-125098400D02*
X304331600Y-127898400D01*
X302931600Y-125098400D02*
X302931600Y-127898400D01*
X304331600Y-125098400D02*
X302931600Y-125098400D01*
D12*
X303631600Y-126698400D02*
X303931600Y-126998400D01*
X303931600Y-126998400D02*
X303981600Y-127048400D01*
X303981600Y-127048400D02*
X303331600Y-127048400D01*
X303281600Y-127048400D02*
X303331600Y-127048400D01*
X303331600Y-127048400D02*
X303281600Y-127048400D01*
X303281600Y-127048400D02*
X303631600Y-126698400D01*
X303631600Y-126698400D02*
X303981600Y-126698400D01*
X303281600Y-126698400D02*
X303631600Y-126698400D01*
X258679200Y-126843000D02*
X259029200Y-126843000D01*
X259029200Y-126843000D02*
X259379200Y-126843000D01*
X258679200Y-127193000D02*
X259029200Y-126843000D01*
X258729200Y-127193000D02*
X258679200Y-127193000D01*
X258679200Y-127193000D02*
X258729200Y-127193000D01*
X259379200Y-127193000D02*
X258729200Y-127193000D01*
X259329200Y-127143000D02*
X259379200Y-127193000D01*
X259029200Y-126843000D02*
X259329200Y-127143000D01*
D11*
X259729200Y-125243000D02*
X258329200Y-125243000D01*
X258329200Y-125243000D02*
X258329200Y-128043000D01*
X259729200Y-125243000D02*
X259729200Y-128043000D01*
X215660200Y-124819000D02*
X215660200Y-127619000D01*
X214260200Y-124819000D02*
X214260200Y-127619000D01*
X215660200Y-124819000D02*
X214260200Y-124819000D01*
D12*
X214960200Y-126419000D02*
X215260200Y-126719000D01*
X215260200Y-126719000D02*
X215310200Y-126769000D01*
X215310200Y-126769000D02*
X214660200Y-126769000D01*
X214610200Y-126769000D02*
X214660200Y-126769000D01*
X214660200Y-126769000D02*
X214610200Y-126769000D01*
X214610200Y-126769000D02*
X214960200Y-126419000D01*
X214960200Y-126419000D02*
X215310200Y-126419000D01*
X214610200Y-126419000D02*
X214960200Y-126419000D01*
D11*
X172327800Y-125123800D02*
X172327800Y-127923800D01*
X170927800Y-125123800D02*
X170927800Y-127923800D01*
X172327800Y-125123800D02*
X170927800Y-125123800D01*
D12*
X171627800Y-126723800D02*
X171927800Y-127023800D01*
X171927800Y-127023800D02*
X171977800Y-127073800D01*
X171977800Y-127073800D02*
X171327800Y-127073800D01*
X171277800Y-127073800D02*
X171327800Y-127073800D01*
X171327800Y-127073800D02*
X171277800Y-127073800D01*
X171277800Y-127073800D02*
X171627800Y-126723800D01*
X171627800Y-126723800D02*
X171977800Y-126723800D01*
X171277800Y-126723800D02*
X171627800Y-126723800D01*
X127767600Y-126393600D02*
X128117600Y-126393600D01*
X128117600Y-126393600D02*
X128467600Y-126393600D01*
X127767600Y-126743600D02*
X128117600Y-126393600D01*
X127817600Y-126743600D02*
X127767600Y-126743600D01*
X127767600Y-126743600D02*
X127817600Y-126743600D01*
X128467600Y-126743600D02*
X127817600Y-126743600D01*
X128417600Y-126693600D02*
X128467600Y-126743600D01*
X128117600Y-126393600D02*
X128417600Y-126693600D01*
D11*
X128817600Y-124793600D02*
X127417600Y-124793600D01*
X127417600Y-124793600D02*
X127417600Y-127593600D01*
X128817600Y-124793600D02*
X128817600Y-127593600D01*
D12*
X84435200Y-126088800D02*
X84785200Y-126088800D01*
X84785200Y-126088800D02*
X85135200Y-126088800D01*
X84435200Y-126438800D02*
X84785200Y-126088800D01*
X84485200Y-126438800D02*
X84435200Y-126438800D01*
X84435200Y-126438800D02*
X84485200Y-126438800D01*
X85135200Y-126438800D02*
X84485200Y-126438800D01*
X85085200Y-126388800D02*
X85135200Y-126438800D01*
X84785200Y-126088800D02*
X85085200Y-126388800D01*
D11*
X85485200Y-124488800D02*
X84085200Y-124488800D01*
X84085200Y-124488800D02*
X84085200Y-127288800D01*
X85485200Y-124488800D02*
X85485200Y-127288800D01*
D12*
X40264600Y-126317400D02*
X40614600Y-126317400D01*
X40614600Y-126317400D02*
X40964600Y-126317400D01*
X40264600Y-126667400D02*
X40614600Y-126317400D01*
X40314600Y-126667400D02*
X40264600Y-126667400D01*
X40264600Y-126667400D02*
X40314600Y-126667400D01*
X40964600Y-126667400D02*
X40314600Y-126667400D01*
X40914600Y-126617400D02*
X40964600Y-126667400D01*
X40614600Y-126317400D02*
X40914600Y-126617400D01*
D11*
X41314600Y-124717400D02*
X39914600Y-124717400D01*
X39914600Y-124717400D02*
X39914600Y-127517400D01*
X41314600Y-124717400D02*
X41314600Y-127517400D01*
X-2297200Y-124989000D02*
X-2297200Y-127789000D01*
X-3697200Y-124989000D02*
X-3697200Y-127789000D01*
X-2297200Y-124989000D02*
X-3697200Y-124989000D01*
D12*
X-2997200Y-126589000D02*
X-2697200Y-126889000D01*
X-2697200Y-126889000D02*
X-2647200Y-126939000D01*
X-2647200Y-126939000D02*
X-3297200Y-126939000D01*
X-3347200Y-126939000D02*
X-3297200Y-126939000D01*
X-3297200Y-126939000D02*
X-3347200Y-126939000D01*
X-3347200Y-126939000D02*
X-2997200Y-126589000D01*
X-2997200Y-126589000D02*
X-2647200Y-126589000D01*
X-3347200Y-126589000D02*
X-2997200Y-126589000D01*
D13*
X300141000Y-138120000D02*
X300141000Y-129620000D01*
X300141000Y-129620000D02*
X305141000Y-129620000D01*
X305141000Y-129620000D02*
X305141000Y-138120000D01*
X305141000Y-138120000D02*
X300141000Y-138120000D01*
X260540000Y-138300000D02*
X255540000Y-138300000D01*
X260540000Y-129800000D02*
X260540000Y-138300000D01*
X255540000Y-129800000D02*
X260540000Y-129800000D01*
X255540000Y-138300000D02*
X255540000Y-129800000D01*
X211596600Y-138110000D02*
X211596600Y-129610000D01*
X211596600Y-129610000D02*
X216596600Y-129610000D01*
X216596600Y-129610000D02*
X216596600Y-138110000D01*
X216596600Y-138110000D02*
X211596600Y-138110000D01*
X172705400Y-138030000D02*
X167705400Y-138030000D01*
X172705400Y-129530000D02*
X172705400Y-138030000D01*
X167705400Y-129530000D02*
X172705400Y-129530000D01*
X167705400Y-138030000D02*
X167705400Y-129530000D01*
X124144400Y-138200000D02*
X124144400Y-129700000D01*
X124144400Y-129700000D02*
X129144400Y-129700000D01*
X129144400Y-129700000D02*
X129144400Y-138200000D01*
X129144400Y-138200000D02*
X124144400Y-138200000D01*
X85989800Y-138090000D02*
X80989800Y-138090000D01*
X85989800Y-129590000D02*
X85989800Y-138090000D01*
X80989800Y-129590000D02*
X85989800Y-129590000D01*
X80989800Y-138090000D02*
X80989800Y-129590000D01*
X36793800Y-138000000D02*
X36793800Y-129500000D01*
X36793800Y-129500000D02*
X41793800Y-129500000D01*
X41793800Y-129500000D02*
X41793800Y-138000000D01*
X41793800Y-138000000D02*
X36793800Y-138000000D01*
X-1843400Y-138310000D02*
X-6843400Y-138310000D01*
X-1843400Y-129810000D02*
X-1843400Y-138310000D01*
X-6843400Y-129810000D02*
X-1843400Y-129810000D01*
X-6843400Y-138310000D02*
X-6843400Y-129810000D01*
X-2853200Y-113074400D02*
X2446800Y-113074400D01*
X-2853200Y-93224400D02*
X2446800Y-93224400D01*
X-2853200Y-113074400D02*
X-2853200Y-93224400D01*
X2446800Y-113074400D02*
X2446800Y-93224400D01*
X11730500Y-113061700D02*
X11730500Y-93211700D01*
X6430500Y-113061700D02*
X6430500Y-93211700D01*
X6430500Y-93211700D02*
X11730500Y-93211700D01*
X6430500Y-113061700D02*
X11730500Y-113061700D01*
X-11768600Y-110559800D02*
X-6468600Y-110559800D01*
X-11768600Y-93249800D02*
X-6468600Y-93249800D01*
X-11768600Y-110559800D02*
X-11768600Y-93249800D01*
X-6468600Y-110559800D02*
X-6468600Y-93249800D01*
X15066500Y-113112500D02*
X20366500Y-113112500D01*
X15066500Y-93262500D02*
X20366500Y-93262500D01*
X15066500Y-113112500D02*
X15066500Y-93262500D01*
X20366500Y-113112500D02*
X20366500Y-93262500D01*
D11*
X302073200Y-126730200D02*
X302073200Y-127930200D01*
X300313200Y-127930200D02*
X300313200Y-126730200D01*
X256168000Y-128031800D02*
X256168000Y-126831800D01*
X257928000Y-126831800D02*
X257928000Y-128031800D01*
X212073600Y-127600000D02*
X212073600Y-126400000D01*
X213833600Y-126400000D02*
X213833600Y-127600000D01*
X170552000Y-126730200D02*
X170552000Y-127930200D01*
X168792000Y-127930200D02*
X168792000Y-126730200D01*
X125256400Y-127584800D02*
X125256400Y-126384800D01*
X127016400Y-126384800D02*
X127016400Y-127584800D01*
X83734800Y-126080000D02*
X83734800Y-127280000D01*
X81974800Y-127280000D02*
X81974800Y-126080000D01*
X37728000Y-127523800D02*
X37728000Y-126323800D01*
X39488000Y-126323800D02*
X39488000Y-127523800D01*
X-4123800Y-126577800D02*
X-4123800Y-127777800D01*
X-5883800Y-127777800D02*
X-5883800Y-126577800D01*
X295420000Y-129976000D02*
X295420000Y-131776000D01*
X298640000Y-131776000D02*
X298640000Y-129326000D01*
X254690000Y-132266000D02*
X254690000Y-129816000D01*
X251470000Y-130466000D02*
X251470000Y-132266000D01*
X207100000Y-130366000D02*
X207100000Y-132166000D01*
X210320000Y-132166000D02*
X210320000Y-129716000D01*
X163330000Y-130046000D02*
X163330000Y-131846000D01*
X166550000Y-131846000D02*
X166550000Y-129396000D01*
X122940000Y-131806000D02*
X122940000Y-129356000D01*
X119720000Y-130006000D02*
X119720000Y-131806000D01*
X79670000Y-131646000D02*
X79670000Y-129196000D01*
X76450000Y-129846000D02*
X76450000Y-131646000D01*
X35760000Y-132146000D02*
X35760000Y-129696000D01*
X32540000Y-130346000D02*
X32540000Y-132146000D01*
X-11240000Y-130376000D02*
X-11240000Y-132176000D01*
X-8020000Y-132176000D02*
X-8020000Y-129726000D01*
D13*
X294144700Y-128485900D02*
X291604700Y-128485900D01*
X291604700Y-128485900D02*
X291604700Y-123405900D01*
X291604700Y-123405900D02*
X290334700Y-123405900D01*
X290334700Y-123405900D02*
X290334700Y-113245900D01*
X290334700Y-113245900D02*
X300494700Y-113245900D01*
X300494700Y-113245900D02*
X300494700Y-123405900D01*
X300494700Y-123405900D02*
X299224700Y-123405900D01*
X299224700Y-123405900D02*
X299224700Y-128485900D01*
X299224700Y-128485900D02*
X296684700Y-128485900D01*
X296684700Y-128485900D02*
X296684700Y-123405900D01*
X296684700Y-123405900D02*
X294144700Y-123405900D01*
X294144700Y-123405900D02*
X294144700Y-128485900D01*
X249986800Y-128600200D02*
X247446800Y-128600200D01*
X247446800Y-128600200D02*
X247446800Y-123520200D01*
X247446800Y-123520200D02*
X246176800Y-123520200D01*
X246176800Y-123520200D02*
X246176800Y-113360200D01*
X246176800Y-113360200D02*
X256336800Y-113360200D01*
X256336800Y-113360200D02*
X256336800Y-123520200D01*
X256336800Y-123520200D02*
X255066800Y-123520200D01*
X255066800Y-123520200D02*
X255066800Y-128600200D01*
X255066800Y-128600200D02*
X252526800Y-128600200D01*
X252526800Y-128600200D02*
X252526800Y-123520200D01*
X252526800Y-123520200D02*
X249986800Y-123520200D01*
X249986800Y-123520200D02*
X249986800Y-128600200D01*
X206222600Y-128480900D02*
X203682600Y-128480900D01*
X203682600Y-128480900D02*
X203682600Y-123400900D01*
X203682600Y-123400900D02*
X202412600Y-123400900D01*
X202412600Y-123400900D02*
X202412600Y-113240900D01*
X202412600Y-113240900D02*
X212572600Y-113240900D01*
X212572600Y-113240900D02*
X212572600Y-123400900D01*
X212572600Y-123400900D02*
X211302600Y-123400900D01*
X211302600Y-123400900D02*
X211302600Y-128480900D01*
X211302600Y-128480900D02*
X208762600Y-128480900D01*
X208762600Y-128480900D02*
X208762600Y-123400900D01*
X208762600Y-123400900D02*
X206222600Y-123400900D01*
X206222600Y-123400900D02*
X206222600Y-128480900D01*
X162382200Y-128231900D02*
X159842200Y-128231900D01*
X159842200Y-128231900D02*
X159842200Y-123151900D01*
X159842200Y-123151900D02*
X158572200Y-123151900D01*
X158572200Y-123151900D02*
X158572200Y-112991900D01*
X158572200Y-112991900D02*
X168732200Y-112991900D01*
X168732200Y-112991900D02*
X168732200Y-123151900D01*
X168732200Y-123151900D02*
X167462200Y-123151900D01*
X167462200Y-123151900D02*
X167462200Y-128231900D01*
X167462200Y-128231900D02*
X164922200Y-128231900D01*
X164922200Y-128231900D02*
X164922200Y-123151900D01*
X164922200Y-123151900D02*
X162382200Y-123151900D01*
X162382200Y-123151900D02*
X162382200Y-128231900D01*
X118935500Y-127914400D02*
X116395500Y-127914400D01*
X116395500Y-127914400D02*
X116395500Y-122834400D01*
X116395500Y-122834400D02*
X115125500Y-122834400D01*
X115125500Y-122834400D02*
X115125500Y-112674400D01*
X115125500Y-112674400D02*
X125285500Y-112674400D01*
X125285500Y-112674400D02*
X125285500Y-122834400D01*
X125285500Y-122834400D02*
X124015500Y-122834400D01*
X124015500Y-122834400D02*
X124015500Y-127914400D01*
X124015500Y-127914400D02*
X121475500Y-127914400D01*
X121475500Y-127914400D02*
X121475500Y-122834400D01*
X121475500Y-122834400D02*
X118935500Y-122834400D01*
X118935500Y-122834400D02*
X118935500Y-127914400D01*
X75793600Y-128003300D02*
X73253600Y-128003300D01*
X73253600Y-128003300D02*
X73253600Y-122923300D01*
X73253600Y-122923300D02*
X71983600Y-122923300D01*
X71983600Y-122923300D02*
X71983600Y-112763300D01*
X71983600Y-112763300D02*
X82143600Y-112763300D01*
X82143600Y-112763300D02*
X82143600Y-122923300D01*
X82143600Y-122923300D02*
X80873600Y-122923300D01*
X80873600Y-122923300D02*
X80873600Y-128003300D01*
X80873600Y-128003300D02*
X78333600Y-128003300D01*
X78333600Y-128003300D02*
X78333600Y-122923300D01*
X78333600Y-122923300D02*
X75793600Y-122923300D01*
X75793600Y-122923300D02*
X75793600Y-128003300D01*
X31546800Y-127769700D02*
X29006800Y-127769700D01*
X29006800Y-127769700D02*
X29006800Y-122689700D01*
X29006800Y-122689700D02*
X27736800Y-122689700D01*
X27736800Y-122689700D02*
X27736800Y-112529700D01*
X27736800Y-112529700D02*
X37896800Y-112529700D01*
X37896800Y-112529700D02*
X37896800Y-122689700D01*
X37896800Y-122689700D02*
X36626800Y-122689700D01*
X36626800Y-122689700D02*
X36626800Y-127769700D01*
X36626800Y-127769700D02*
X34086800Y-127769700D01*
X34086800Y-127769700D02*
X34086800Y-122689700D01*
X34086800Y-122689700D02*
X31546800Y-122689700D01*
X31546800Y-122689700D02*
X31546800Y-127769700D01*
X-12001500Y-128028700D02*
X-14541500Y-128028700D01*
X-14541500Y-128028700D02*
X-14541500Y-122948700D01*
X-14541500Y-122948700D02*
X-15811500Y-122948700D01*
X-15811500Y-122948700D02*
X-15811500Y-112788700D01*
X-15811500Y-112788700D02*
X-5651500Y-112788700D01*
X-5651500Y-112788700D02*
X-5651500Y-122948700D01*
X-5651500Y-122948700D02*
X-6921500Y-122948700D01*
X-6921500Y-122948700D02*
X-6921500Y-128028700D01*
X-6921500Y-128028700D02*
X-9461500Y-128028700D01*
X-9461500Y-128028700D02*
X-9461500Y-122948700D01*
X-9461500Y-122948700D02*
X-12001500Y-122948700D01*
X-12001500Y-122948700D02*
X-12001500Y-128028700D01*
D11*
X-10470000Y-136682064D02*
X-10470000Y-135477936D01*
X-8650000Y-136682064D02*
X-8650000Y-135477936D01*
X35080000Y-136372064D02*
X35080000Y-135167936D01*
X33260000Y-136372064D02*
X33260000Y-135167936D01*
X77160000Y-136462064D02*
X77160000Y-135257936D01*
X78980000Y-136462064D02*
X78980000Y-135257936D01*
X122360000Y-136572064D02*
X122360000Y-135367936D01*
X120540000Y-136572064D02*
X120540000Y-135367936D01*
X251760000Y-136672064D02*
X251760000Y-135467936D01*
X253580000Y-136672064D02*
X253580000Y-135467936D01*
X297830000Y-136492064D02*
X297830000Y-135287936D01*
X296010000Y-136492064D02*
X296010000Y-135287936D01*
X209770000Y-136482064D02*
X209770000Y-135277936D01*
X207950000Y-136482064D02*
X207950000Y-135277936D01*
X164290000Y-136402064D02*
X164290000Y-135197936D01*
X166110000Y-136402064D02*
X166110000Y-135197936D01*
D13*
X304033180Y-124690095D02*
X303033180Y-124690095D01*
X303033180Y-124452000D01*
X303080800Y-124309142D01*
X303176038Y-124213904D01*
X303271276Y-124166285D01*
X303461752Y-124118666D01*
X303604609Y-124118666D01*
X303795085Y-124166285D01*
X303890323Y-124213904D01*
X303985561Y-124309142D01*
X304033180Y-124452000D01*
X304033180Y-124690095D01*
X304033180Y-123166285D02*
X304033180Y-123737714D01*
X304033180Y-123452000D02*
X303033180Y-123452000D01*
X303176038Y-123547238D01*
X303271276Y-123642476D01*
X303318895Y-123737714D01*
X259456180Y-124707695D02*
X258456180Y-124707695D01*
X258456180Y-124469600D01*
X258503800Y-124326742D01*
X258599038Y-124231504D01*
X258694276Y-124183885D01*
X258884752Y-124136266D01*
X259027609Y-124136266D01*
X259218085Y-124183885D01*
X259313323Y-124231504D01*
X259408561Y-124326742D01*
X259456180Y-124469600D01*
X259456180Y-124707695D01*
X258456180Y-123802933D02*
X258456180Y-123183885D01*
X258837133Y-123517219D01*
X258837133Y-123374361D01*
X258884752Y-123279123D01*
X258932371Y-123231504D01*
X259027609Y-123183885D01*
X259265704Y-123183885D01*
X259360942Y-123231504D01*
X259408561Y-123279123D01*
X259456180Y-123374361D01*
X259456180Y-123660076D01*
X259408561Y-123755314D01*
X259360942Y-123802933D01*
X215285580Y-124359895D02*
X214285580Y-124359895D01*
X214285580Y-124121800D01*
X214333200Y-123978942D01*
X214428438Y-123883704D01*
X214523676Y-123836085D01*
X214714152Y-123788466D01*
X214857009Y-123788466D01*
X215047485Y-123836085D01*
X215142723Y-123883704D01*
X215237961Y-123978942D01*
X215285580Y-124121800D01*
X215285580Y-124359895D01*
X214285580Y-122883704D02*
X214285580Y-123359895D01*
X214761771Y-123407514D01*
X214714152Y-123359895D01*
X214666533Y-123264657D01*
X214666533Y-123026561D01*
X214714152Y-122931323D01*
X214761771Y-122883704D01*
X214857009Y-122836085D01*
X215095104Y-122836085D01*
X215190342Y-122883704D01*
X215237961Y-122931323D01*
X215285580Y-123026561D01*
X215285580Y-123264657D01*
X215237961Y-123359895D01*
X215190342Y-123407514D01*
X171902380Y-124537695D02*
X170902380Y-124537695D01*
X170902380Y-124299600D01*
X170950000Y-124156742D01*
X171045238Y-124061504D01*
X171140476Y-124013885D01*
X171330952Y-123966266D01*
X171473809Y-123966266D01*
X171664285Y-124013885D01*
X171759523Y-124061504D01*
X171854761Y-124156742D01*
X171902380Y-124299600D01*
X171902380Y-124537695D01*
X170902380Y-123632933D02*
X170902380Y-122966266D01*
X171902380Y-123394838D01*
X128417580Y-124080495D02*
X127417580Y-124080495D01*
X127417580Y-123842400D01*
X127465200Y-123699542D01*
X127560438Y-123604304D01*
X127655676Y-123556685D01*
X127846152Y-123509066D01*
X127989009Y-123509066D01*
X128179485Y-123556685D01*
X128274723Y-123604304D01*
X128369961Y-123699542D01*
X128417580Y-123842400D01*
X128417580Y-124080495D01*
X128417580Y-123032876D02*
X128417580Y-122842400D01*
X128369961Y-122747161D01*
X128322342Y-122699542D01*
X128179485Y-122604304D01*
X127989009Y-122556685D01*
X127608057Y-122556685D01*
X127512819Y-122604304D01*
X127465200Y-122651923D01*
X127417580Y-122747161D01*
X127417580Y-122937638D01*
X127465200Y-123032876D01*
X127512819Y-123080495D01*
X127608057Y-123128114D01*
X127846152Y-123128114D01*
X127941390Y-123080495D01*
X127989009Y-123032876D01*
X128036628Y-122937638D01*
X128036628Y-122747161D01*
X127989009Y-122651923D01*
X127941390Y-122604304D01*
X127846152Y-122556685D01*
X85212180Y-123972485D02*
X84212180Y-123972485D01*
X84212180Y-123734390D01*
X84259800Y-123591533D01*
X84355038Y-123496295D01*
X84450276Y-123448676D01*
X84640752Y-123401057D01*
X84783609Y-123401057D01*
X84974085Y-123448676D01*
X85069323Y-123496295D01*
X85164561Y-123591533D01*
X85212180Y-123734390D01*
X85212180Y-123972485D01*
X85212180Y-122448676D02*
X85212180Y-123020104D01*
X85212180Y-122734390D02*
X84212180Y-122734390D01*
X84355038Y-122829628D01*
X84450276Y-122924866D01*
X84497895Y-123020104D01*
X85212180Y-121496295D02*
X85212180Y-122067723D01*
X85212180Y-121782009D02*
X84212180Y-121782009D01*
X84355038Y-121877247D01*
X84450276Y-121972485D01*
X84497895Y-122067723D01*
X40914580Y-124277285D02*
X39914580Y-124277285D01*
X39914580Y-124039190D01*
X39962200Y-123896333D01*
X40057438Y-123801095D01*
X40152676Y-123753476D01*
X40343152Y-123705857D01*
X40486009Y-123705857D01*
X40676485Y-123753476D01*
X40771723Y-123801095D01*
X40866961Y-123896333D01*
X40914580Y-124039190D01*
X40914580Y-124277285D01*
X40914580Y-122753476D02*
X40914580Y-123324904D01*
X40914580Y-123039190D02*
X39914580Y-123039190D01*
X40057438Y-123134428D01*
X40152676Y-123229666D01*
X40200295Y-123324904D01*
X39914580Y-122420142D02*
X39914580Y-121801095D01*
X40295533Y-122134428D01*
X40295533Y-121991571D01*
X40343152Y-121896333D01*
X40390771Y-121848714D01*
X40486009Y-121801095D01*
X40724104Y-121801095D01*
X40819342Y-121848714D01*
X40866961Y-121896333D01*
X40914580Y-121991571D01*
X40914580Y-122277285D01*
X40866961Y-122372523D01*
X40819342Y-122420142D01*
X-2570219Y-124574285D02*
X-3570219Y-124574285D01*
X-3570219Y-124336190D01*
X-3522600Y-124193333D01*
X-3427361Y-124098095D01*
X-3332123Y-124050476D01*
X-3141647Y-124002857D01*
X-2998790Y-124002857D01*
X-2808314Y-124050476D01*
X-2713076Y-124098095D01*
X-2617838Y-124193333D01*
X-2570219Y-124336190D01*
X-2570219Y-124574285D01*
X-2570219Y-123050476D02*
X-2570219Y-123621904D01*
X-2570219Y-123336190D02*
X-3570219Y-123336190D01*
X-3427361Y-123431428D01*
X-3332123Y-123526666D01*
X-3284504Y-123621904D01*
X-3570219Y-122145714D02*
X-3570219Y-122621904D01*
X-3094028Y-122669523D01*
X-3141647Y-122621904D01*
X-3189266Y-122526666D01*
X-3189266Y-122288571D01*
X-3141647Y-122193333D01*
X-3094028Y-122145714D01*
X-2998790Y-122098095D01*
X-2760695Y-122098095D01*
X-2665457Y-122145714D01*
X-2617838Y-122193333D01*
X-2570219Y-122288571D01*
X-2570219Y-122526666D01*
X-2617838Y-122621904D01*
X-2665457Y-122669523D01*
X305998571Y-134083133D02*
X305998571Y-134416466D01*
X306522380Y-134416466D02*
X305522380Y-134416466D01*
X305522380Y-133940276D01*
X306522380Y-133035514D02*
X306522380Y-133606942D01*
X306522380Y-133321228D02*
X305522380Y-133321228D01*
X305665238Y-133416466D01*
X305760476Y-133511704D01*
X305808095Y-133606942D01*
X261372171Y-134390133D02*
X261372171Y-134723466D01*
X261895980Y-134723466D02*
X260895980Y-134723466D01*
X260895980Y-134247276D01*
X260895980Y-133961561D02*
X260895980Y-133342514D01*
X261276933Y-133675847D01*
X261276933Y-133532990D01*
X261324552Y-133437752D01*
X261372171Y-133390133D01*
X261467409Y-133342514D01*
X261705504Y-133342514D01*
X261800742Y-133390133D01*
X261848361Y-133437752D01*
X261895980Y-133532990D01*
X261895980Y-133818704D01*
X261848361Y-133913942D01*
X261800742Y-133961561D01*
X217504971Y-134098533D02*
X217504971Y-134431866D01*
X218028780Y-134431866D02*
X217028780Y-134431866D01*
X217028780Y-133955676D01*
X217028780Y-133098533D02*
X217028780Y-133574723D01*
X217504971Y-133622342D01*
X217457352Y-133574723D01*
X217409733Y-133479485D01*
X217409733Y-133241390D01*
X217457352Y-133146152D01*
X217504971Y-133098533D01*
X217600209Y-133050914D01*
X217838304Y-133050914D01*
X217933542Y-133098533D01*
X217981161Y-133146152D01*
X218028780Y-133241390D01*
X218028780Y-133479485D01*
X217981161Y-133574723D01*
X217933542Y-133622342D01*
X173588371Y-134018533D02*
X173588371Y-134351866D01*
X174112180Y-134351866D02*
X173112180Y-134351866D01*
X173112180Y-133875676D01*
X173112180Y-133589961D02*
X173112180Y-132923295D01*
X174112180Y-133351866D01*
X130078171Y-134315533D02*
X130078171Y-134648866D01*
X130601980Y-134648866D02*
X129601980Y-134648866D01*
X129601980Y-134172676D01*
X130601980Y-133744104D02*
X130601980Y-133553628D01*
X130554361Y-133458390D01*
X130506742Y-133410771D01*
X130363885Y-133315533D01*
X130173409Y-133267914D01*
X129792457Y-133267914D01*
X129697219Y-133315533D01*
X129649600Y-133363152D01*
X129601980Y-133458390D01*
X129601980Y-133648866D01*
X129649600Y-133744104D01*
X129697219Y-133791723D01*
X129792457Y-133839342D01*
X130030552Y-133839342D01*
X130125790Y-133791723D01*
X130173409Y-133744104D01*
X130221028Y-133648866D01*
X130221028Y-133458390D01*
X130173409Y-133363152D01*
X130125790Y-133315533D01*
X130030552Y-133267914D01*
X86974371Y-134351523D02*
X86974371Y-134684857D01*
X87498180Y-134684857D02*
X86498180Y-134684857D01*
X86498180Y-134208666D01*
X87498180Y-133303904D02*
X87498180Y-133875333D01*
X87498180Y-133589619D02*
X86498180Y-133589619D01*
X86641038Y-133684857D01*
X86736276Y-133780095D01*
X86783895Y-133875333D01*
X87498180Y-132351523D02*
X87498180Y-132922952D01*
X87498180Y-132637238D02*
X86498180Y-132637238D01*
X86641038Y-132732476D01*
X86736276Y-132827714D01*
X86783895Y-132922952D01*
X42676771Y-134159923D02*
X42676771Y-134493257D01*
X43200580Y-134493257D02*
X42200580Y-134493257D01*
X42200580Y-134017066D01*
X43200580Y-133112304D02*
X43200580Y-133683733D01*
X43200580Y-133398019D02*
X42200580Y-133398019D01*
X42343438Y-133493257D01*
X42438676Y-133588495D01*
X42486295Y-133683733D01*
X42200580Y-132778971D02*
X42200580Y-132159923D01*
X42581533Y-132493257D01*
X42581533Y-132350400D01*
X42629152Y-132255161D01*
X42676771Y-132207542D01*
X42772009Y-132159923D01*
X43010104Y-132159923D01*
X43105342Y-132207542D01*
X43152961Y-132255161D01*
X43200580Y-132350400D01*
X43200580Y-132636114D01*
X43152961Y-132731352D01*
X43105342Y-132778971D01*
X-757228Y-134850923D02*
X-757228Y-135184257D01*
X-233419Y-135184257D02*
X-1233419Y-135184257D01*
X-1233419Y-134708066D01*
X-233419Y-133803304D02*
X-233419Y-134374733D01*
X-233419Y-134089019D02*
X-1233419Y-134089019D01*
X-1090561Y-134184257D01*
X-995323Y-134279495D01*
X-947704Y-134374733D01*
X-1233419Y-132898542D02*
X-1233419Y-133374733D01*
X-757228Y-133422352D01*
X-804847Y-133374733D01*
X-852466Y-133279495D01*
X-852466Y-133041400D01*
X-804847Y-132946161D01*
X-757228Y-132898542D01*
X-661990Y-132850923D01*
X-423895Y-132850923D01*
X-328657Y-132898542D01*
X-281038Y-132946161D01*
X-233419Y-133041400D01*
X-233419Y-133279495D01*
X-281038Y-133374733D01*
X-328657Y-133422352D01*
X-2466933Y-113549180D02*
X-2466933Y-114263466D01*
X-2514552Y-114406323D01*
X-2609790Y-114501561D01*
X-2752647Y-114549180D01*
X-2847885Y-114549180D01*
X-1466933Y-114549180D02*
X-2038361Y-114549180D01*
X-1752647Y-114549180D02*
X-1752647Y-113549180D01*
X-1847885Y-113692038D01*
X-1943123Y-113787276D01*
X-2038361Y-113834895D01*
X876323Y-114396780D02*
X304895Y-114396780D01*
X590609Y-114396780D02*
X590609Y-113396780D01*
X495371Y-113539638D01*
X400133Y-113634876D01*
X304895Y-113682495D01*
X1257276Y-113492019D02*
X1304895Y-113444400D01*
X1400133Y-113396780D01*
X1638228Y-113396780D01*
X1733466Y-113444400D01*
X1781085Y-113492019D01*
X1828704Y-113587257D01*
X1828704Y-113682495D01*
X1781085Y-113825352D01*
X1209657Y-114396780D01*
X1828704Y-114396780D01*
X-1187485Y-92806780D02*
X-1758914Y-92806780D01*
X-1473200Y-92806780D02*
X-1473200Y-91806780D01*
X-1568438Y-91949638D01*
X-1663676Y-92044876D01*
X-1758914Y-92092495D01*
X6689766Y-113358680D02*
X6689766Y-114072966D01*
X6642147Y-114215823D01*
X6546909Y-114311061D01*
X6404052Y-114358680D01*
X6308814Y-114358680D01*
X7118338Y-113453919D02*
X7165957Y-113406300D01*
X7261195Y-113358680D01*
X7499290Y-113358680D01*
X7594528Y-113406300D01*
X7642147Y-113453919D01*
X7689766Y-113549157D01*
X7689766Y-113644395D01*
X7642147Y-113787252D01*
X7070719Y-114358680D01*
X7689766Y-114358680D01*
X8096214Y-92794080D02*
X7524785Y-92794080D01*
X7810500Y-92794080D02*
X7810500Y-91794080D01*
X7715261Y-91936938D01*
X7620023Y-92032176D01*
X7524785Y-92079795D01*
X10160023Y-114384080D02*
X9588595Y-114384080D01*
X9874309Y-114384080D02*
X9874309Y-113384080D01*
X9779071Y-113526938D01*
X9683833Y-113622176D01*
X9588595Y-113669795D01*
X10540976Y-113479319D02*
X10588595Y-113431700D01*
X10683833Y-113384080D01*
X10921928Y-113384080D01*
X11017166Y-113431700D01*
X11064785Y-113479319D01*
X11112404Y-113574557D01*
X11112404Y-113669795D01*
X11064785Y-113812652D01*
X10493357Y-114384080D01*
X11112404Y-114384080D01*
X-11433133Y-110958380D02*
X-11433133Y-111672666D01*
X-11480752Y-111815523D01*
X-11575990Y-111910761D01*
X-11718847Y-111958380D01*
X-11814085Y-111958380D01*
X-11052180Y-110958380D02*
X-10433133Y-110958380D01*
X-10766466Y-111339333D01*
X-10623609Y-111339333D01*
X-10528371Y-111386952D01*
X-10480752Y-111434571D01*
X-10433133Y-111529809D01*
X-10433133Y-111767904D01*
X-10480752Y-111863142D01*
X-10528371Y-111910761D01*
X-10623609Y-111958380D01*
X-10909323Y-111958380D01*
X-11004561Y-111910761D01*
X-11052180Y-111863142D01*
X-8039076Y-111882180D02*
X-8610504Y-111882180D01*
X-8324790Y-111882180D02*
X-8324790Y-110882180D01*
X-8420028Y-111025038D01*
X-8515266Y-111120276D01*
X-8610504Y-111167895D01*
X-7420028Y-110882180D02*
X-7324790Y-110882180D01*
X-7229552Y-110929800D01*
X-7181933Y-110977419D01*
X-7134314Y-111072657D01*
X-7086695Y-111263133D01*
X-7086695Y-111501228D01*
X-7134314Y-111691704D01*
X-7181933Y-111786942D01*
X-7229552Y-111834561D01*
X-7324790Y-111882180D01*
X-7420028Y-111882180D01*
X-7515266Y-111834561D01*
X-7562885Y-111786942D01*
X-7610504Y-111691704D01*
X-7658123Y-111501228D01*
X-7658123Y-111263133D01*
X-7610504Y-111072657D01*
X-7562885Y-110977419D01*
X-7515266Y-110929800D01*
X-7420028Y-110882180D01*
X-10102885Y-92832180D02*
X-10674314Y-92832180D01*
X-10388600Y-92832180D02*
X-10388600Y-91832180D01*
X-10483838Y-91975038D01*
X-10579076Y-92070276D01*
X-10674314Y-92117895D01*
X15427366Y-113485680D02*
X15427366Y-114199966D01*
X15379747Y-114342823D01*
X15284509Y-114438061D01*
X15141652Y-114485680D01*
X15046414Y-114485680D01*
X16332128Y-113819014D02*
X16332128Y-114485680D01*
X16094033Y-113438061D02*
X15855938Y-114152347D01*
X16474985Y-114152347D01*
X18796023Y-114434880D02*
X18224595Y-114434880D01*
X18510309Y-114434880D02*
X18510309Y-113434880D01*
X18415071Y-113577738D01*
X18319833Y-113672976D01*
X18224595Y-113720595D01*
X19176976Y-113530119D02*
X19224595Y-113482500D01*
X19319833Y-113434880D01*
X19557928Y-113434880D01*
X19653166Y-113482500D01*
X19700785Y-113530119D01*
X19748404Y-113625357D01*
X19748404Y-113720595D01*
X19700785Y-113863452D01*
X19129357Y-114434880D01*
X19748404Y-114434880D01*
X16732214Y-92844880D02*
X16160785Y-92844880D01*
X16446500Y-92844880D02*
X16446500Y-91844880D01*
X16351261Y-91987738D01*
X16256023Y-92082976D01*
X16160785Y-92130595D01*
X301848780Y-124721857D02*
X301372590Y-125055190D01*
X301848780Y-125293285D02*
X300848780Y-125293285D01*
X300848780Y-124912333D01*
X300896400Y-124817095D01*
X300944019Y-124769476D01*
X301039257Y-124721857D01*
X301182114Y-124721857D01*
X301277352Y-124769476D01*
X301324971Y-124817095D01*
X301372590Y-124912333D01*
X301372590Y-125293285D01*
X300848780Y-124388523D02*
X300848780Y-123769476D01*
X301229733Y-124102809D01*
X301229733Y-123959952D01*
X301277352Y-123864714D01*
X301324971Y-123817095D01*
X301420209Y-123769476D01*
X301658304Y-123769476D01*
X301753542Y-123817095D01*
X301801161Y-123864714D01*
X301848780Y-123959952D01*
X301848780Y-124245666D01*
X301801161Y-124340904D01*
X301753542Y-124388523D01*
X301848780Y-122817095D02*
X301848780Y-123388523D01*
X301848780Y-123102809D02*
X300848780Y-123102809D01*
X300991638Y-123198047D01*
X301086876Y-123293285D01*
X301134495Y-123388523D01*
X257601980Y-125001257D02*
X257125790Y-125334590D01*
X257601980Y-125572685D02*
X256601980Y-125572685D01*
X256601980Y-125191733D01*
X256649600Y-125096495D01*
X256697219Y-125048876D01*
X256792457Y-125001257D01*
X256935314Y-125001257D01*
X257030552Y-125048876D01*
X257078171Y-125096495D01*
X257125790Y-125191733D01*
X257125790Y-125572685D01*
X256601980Y-124667923D02*
X256601980Y-124048876D01*
X256982933Y-124382209D01*
X256982933Y-124239352D01*
X257030552Y-124144114D01*
X257078171Y-124096495D01*
X257173409Y-124048876D01*
X257411504Y-124048876D01*
X257506742Y-124096495D01*
X257554361Y-124144114D01*
X257601980Y-124239352D01*
X257601980Y-124525066D01*
X257554361Y-124620304D01*
X257506742Y-124667923D01*
X256601980Y-123715542D02*
X256601980Y-123096495D01*
X256982933Y-123429828D01*
X256982933Y-123286971D01*
X257030552Y-123191733D01*
X257078171Y-123144114D01*
X257173409Y-123096495D01*
X257411504Y-123096495D01*
X257506742Y-123144114D01*
X257554361Y-123191733D01*
X257601980Y-123286971D01*
X257601980Y-123572685D01*
X257554361Y-123667923D01*
X257506742Y-123715542D01*
X213431380Y-124569457D02*
X212955190Y-124902790D01*
X213431380Y-125140885D02*
X212431380Y-125140885D01*
X212431380Y-124759933D01*
X212479000Y-124664695D01*
X212526619Y-124617076D01*
X212621857Y-124569457D01*
X212764714Y-124569457D01*
X212859952Y-124617076D01*
X212907571Y-124664695D01*
X212955190Y-124759933D01*
X212955190Y-125140885D01*
X212431380Y-124236123D02*
X212431380Y-123617076D01*
X212812333Y-123950409D01*
X212812333Y-123807552D01*
X212859952Y-123712314D01*
X212907571Y-123664695D01*
X213002809Y-123617076D01*
X213240904Y-123617076D01*
X213336142Y-123664695D01*
X213383761Y-123712314D01*
X213431380Y-123807552D01*
X213431380Y-124093266D01*
X213383761Y-124188504D01*
X213336142Y-124236123D01*
X212431380Y-122712314D02*
X212431380Y-123188504D01*
X212907571Y-123236123D01*
X212859952Y-123188504D01*
X212812333Y-123093266D01*
X212812333Y-122855171D01*
X212859952Y-122759933D01*
X212907571Y-122712314D01*
X213002809Y-122664695D01*
X213240904Y-122664695D01*
X213336142Y-122712314D01*
X213383761Y-122759933D01*
X213431380Y-122855171D01*
X213431380Y-123093266D01*
X213383761Y-123188504D01*
X213336142Y-123236123D01*
X170175180Y-125001257D02*
X169698990Y-125334590D01*
X170175180Y-125572685D02*
X169175180Y-125572685D01*
X169175180Y-125191733D01*
X169222800Y-125096495D01*
X169270419Y-125048876D01*
X169365657Y-125001257D01*
X169508514Y-125001257D01*
X169603752Y-125048876D01*
X169651371Y-125096495D01*
X169698990Y-125191733D01*
X169698990Y-125572685D01*
X169175180Y-124667923D02*
X169175180Y-124048876D01*
X169556133Y-124382209D01*
X169556133Y-124239352D01*
X169603752Y-124144114D01*
X169651371Y-124096495D01*
X169746609Y-124048876D01*
X169984704Y-124048876D01*
X170079942Y-124096495D01*
X170127561Y-124144114D01*
X170175180Y-124239352D01*
X170175180Y-124525066D01*
X170127561Y-124620304D01*
X170079942Y-124667923D01*
X169175180Y-123715542D02*
X169175180Y-123048876D01*
X170175180Y-123477447D01*
X126639580Y-124579657D02*
X126163390Y-124912990D01*
X126639580Y-125151085D02*
X125639580Y-125151085D01*
X125639580Y-124770133D01*
X125687200Y-124674895D01*
X125734819Y-124627276D01*
X125830057Y-124579657D01*
X125972914Y-124579657D01*
X126068152Y-124627276D01*
X126115771Y-124674895D01*
X126163390Y-124770133D01*
X126163390Y-125151085D01*
X125639580Y-124246323D02*
X125639580Y-123627276D01*
X126020533Y-123960609D01*
X126020533Y-123817752D01*
X126068152Y-123722514D01*
X126115771Y-123674895D01*
X126211009Y-123627276D01*
X126449104Y-123627276D01*
X126544342Y-123674895D01*
X126591961Y-123722514D01*
X126639580Y-123817752D01*
X126639580Y-124103466D01*
X126591961Y-124198704D01*
X126544342Y-124246323D01*
X126639580Y-123151085D02*
X126639580Y-122960609D01*
X126591961Y-122865371D01*
X126544342Y-122817752D01*
X126401485Y-122722514D01*
X126211009Y-122674895D01*
X125830057Y-122674895D01*
X125734819Y-122722514D01*
X125687200Y-122770133D01*
X125639580Y-122865371D01*
X125639580Y-123055847D01*
X125687200Y-123151085D01*
X125734819Y-123198704D01*
X125830057Y-123246323D01*
X126068152Y-123246323D01*
X126163390Y-123198704D01*
X126211009Y-123151085D01*
X126258628Y-123055847D01*
X126258628Y-122865371D01*
X126211009Y-122770133D01*
X126163390Y-122722514D01*
X126068152Y-122674895D01*
X83408780Y-124351057D02*
X82932590Y-124684390D01*
X83408780Y-124922485D02*
X82408780Y-124922485D01*
X82408780Y-124541533D01*
X82456400Y-124446295D01*
X82504019Y-124398676D01*
X82599257Y-124351057D01*
X82742114Y-124351057D01*
X82837352Y-124398676D01*
X82884971Y-124446295D01*
X82932590Y-124541533D01*
X82932590Y-124922485D01*
X82742114Y-123493914D02*
X83408780Y-123493914D01*
X82361161Y-123732009D02*
X83075447Y-123970104D01*
X83075447Y-123351057D01*
X83408780Y-122446295D02*
X83408780Y-123017723D01*
X83408780Y-122732009D02*
X82408780Y-122732009D01*
X82551638Y-122827247D01*
X82646876Y-122922485D01*
X82694495Y-123017723D01*
X39161980Y-124544057D02*
X38685790Y-124877390D01*
X39161980Y-125115485D02*
X38161980Y-125115485D01*
X38161980Y-124734533D01*
X38209600Y-124639295D01*
X38257219Y-124591676D01*
X38352457Y-124544057D01*
X38495314Y-124544057D01*
X38590552Y-124591676D01*
X38638171Y-124639295D01*
X38685790Y-124734533D01*
X38685790Y-125115485D01*
X38495314Y-123686914D02*
X39161980Y-123686914D01*
X38114361Y-123925009D02*
X38828647Y-124163104D01*
X38828647Y-123544057D01*
X38161980Y-123258342D02*
X38161980Y-122639295D01*
X38542933Y-122972628D01*
X38542933Y-122829771D01*
X38590552Y-122734533D01*
X38638171Y-122686914D01*
X38733409Y-122639295D01*
X38971504Y-122639295D01*
X39066742Y-122686914D01*
X39114361Y-122734533D01*
X39161980Y-122829771D01*
X39161980Y-123115485D01*
X39114361Y-123210723D01*
X39066742Y-123258342D01*
X-4500619Y-124848857D02*
X-4976809Y-125182190D01*
X-4500619Y-125420285D02*
X-5500619Y-125420285D01*
X-5500619Y-125039333D01*
X-5453000Y-124944095D01*
X-5405380Y-124896476D01*
X-5310142Y-124848857D01*
X-5167285Y-124848857D01*
X-5072047Y-124896476D01*
X-5024428Y-124944095D01*
X-4976809Y-125039333D01*
X-4976809Y-125420285D01*
X-5167285Y-123991714D02*
X-4500619Y-123991714D01*
X-5548238Y-124229809D02*
X-4833952Y-124467904D01*
X-4833952Y-123848857D01*
X-5500619Y-122991714D02*
X-5500619Y-123467904D01*
X-5024428Y-123515523D01*
X-5072047Y-123467904D01*
X-5119666Y-123372666D01*
X-5119666Y-123134571D01*
X-5072047Y-123039333D01*
X-5024428Y-122991714D01*
X-4929190Y-122944095D01*
X-4691095Y-122944095D01*
X-4595857Y-122991714D01*
X-4548238Y-123039333D01*
X-4500619Y-123134571D01*
X-4500619Y-123372666D01*
X-4548238Y-123467904D01*
X-4595857Y-123515523D01*
X271289590Y-134818380D02*
X270956257Y-134342190D01*
X270718161Y-134818380D02*
X270718161Y-133818380D01*
X271099114Y-133818380D01*
X271194352Y-133866000D01*
X271241971Y-133913619D01*
X271289590Y-134008857D01*
X271289590Y-134151714D01*
X271241971Y-134246952D01*
X271194352Y-134294571D01*
X271099114Y-134342190D01*
X270718161Y-134342190D01*
X271575304Y-133818380D02*
X272146733Y-133818380D01*
X271861019Y-134818380D02*
X271861019Y-133818380D01*
X272384828Y-133818380D02*
X273003876Y-133818380D01*
X272670542Y-134199333D01*
X272813400Y-134199333D01*
X272908638Y-134246952D01*
X272956257Y-134294571D01*
X273003876Y-134389809D01*
X273003876Y-134627904D01*
X272956257Y-134723142D01*
X272908638Y-134770761D01*
X272813400Y-134818380D01*
X272527685Y-134818380D01*
X272432447Y-134770761D01*
X272384828Y-134723142D01*
X273956257Y-134818380D02*
X273384828Y-134818380D01*
X273670542Y-134818380D02*
X273670542Y-133818380D01*
X273575304Y-133961238D01*
X273480066Y-134056476D01*
X273384828Y-134104095D01*
X276966490Y-134907280D02*
X276633157Y-134431090D01*
X276395061Y-134907280D02*
X276395061Y-133907280D01*
X276776014Y-133907280D01*
X276871252Y-133954900D01*
X276918871Y-134002519D01*
X276966490Y-134097757D01*
X276966490Y-134240614D01*
X276918871Y-134335852D01*
X276871252Y-134383471D01*
X276776014Y-134431090D01*
X276395061Y-134431090D01*
X277252204Y-133907280D02*
X277823633Y-133907280D01*
X277537919Y-134907280D02*
X277537919Y-133907280D01*
X278061728Y-133907280D02*
X278680776Y-133907280D01*
X278347442Y-134288233D01*
X278490300Y-134288233D01*
X278585538Y-134335852D01*
X278633157Y-134383471D01*
X278680776Y-134478709D01*
X278680776Y-134716804D01*
X278633157Y-134812042D01*
X278585538Y-134859661D01*
X278490300Y-134907280D01*
X278204585Y-134907280D01*
X278109347Y-134859661D01*
X278061728Y-134812042D01*
X279061728Y-134002519D02*
X279109347Y-133954900D01*
X279204585Y-133907280D01*
X279442680Y-133907280D01*
X279537919Y-133954900D01*
X279585538Y-134002519D01*
X279633157Y-134097757D01*
X279633157Y-134192995D01*
X279585538Y-134335852D01*
X279014109Y-134907280D01*
X279633157Y-134907280D01*
X282871990Y-134970780D02*
X282538657Y-134494590D01*
X282300561Y-134970780D02*
X282300561Y-133970780D01*
X282681514Y-133970780D01*
X282776752Y-134018400D01*
X282824371Y-134066019D01*
X282871990Y-134161257D01*
X282871990Y-134304114D01*
X282824371Y-134399352D01*
X282776752Y-134446971D01*
X282681514Y-134494590D01*
X282300561Y-134494590D01*
X283157704Y-133970780D02*
X283729133Y-133970780D01*
X283443419Y-134970780D02*
X283443419Y-133970780D01*
X283967228Y-133970780D02*
X284586276Y-133970780D01*
X284252942Y-134351733D01*
X284395800Y-134351733D01*
X284491038Y-134399352D01*
X284538657Y-134446971D01*
X284586276Y-134542209D01*
X284586276Y-134780304D01*
X284538657Y-134875542D01*
X284491038Y-134923161D01*
X284395800Y-134970780D01*
X284110085Y-134970780D01*
X284014847Y-134923161D01*
X283967228Y-134875542D01*
X284919609Y-133970780D02*
X285538657Y-133970780D01*
X285205323Y-134351733D01*
X285348180Y-134351733D01*
X285443419Y-134399352D01*
X285491038Y-134446971D01*
X285538657Y-134542209D01*
X285538657Y-134780304D01*
X285491038Y-134875542D01*
X285443419Y-134923161D01*
X285348180Y-134970780D01*
X285062466Y-134970780D01*
X284967228Y-134923161D01*
X284919609Y-134875542D01*
X182986490Y-134284980D02*
X182653157Y-133808790D01*
X182415061Y-134284980D02*
X182415061Y-133284980D01*
X182796014Y-133284980D01*
X182891252Y-133332600D01*
X182938871Y-133380219D01*
X182986490Y-133475457D01*
X182986490Y-133618314D01*
X182938871Y-133713552D01*
X182891252Y-133761171D01*
X182796014Y-133808790D01*
X182415061Y-133808790D01*
X183272204Y-133284980D02*
X183843633Y-133284980D01*
X183557919Y-134284980D02*
X183557919Y-133284980D01*
X184081728Y-133284980D02*
X184748395Y-133284980D01*
X184319823Y-134284980D01*
X185653157Y-134284980D02*
X185081728Y-134284980D01*
X185367442Y-134284980D02*
X185367442Y-133284980D01*
X185272204Y-133427838D01*
X185176966Y-133523076D01*
X185081728Y-133570695D01*
X188955490Y-134259580D02*
X188622157Y-133783390D01*
X188384061Y-134259580D02*
X188384061Y-133259580D01*
X188765014Y-133259580D01*
X188860252Y-133307200D01*
X188907871Y-133354819D01*
X188955490Y-133450057D01*
X188955490Y-133592914D01*
X188907871Y-133688152D01*
X188860252Y-133735771D01*
X188765014Y-133783390D01*
X188384061Y-133783390D01*
X189241204Y-133259580D02*
X189812633Y-133259580D01*
X189526919Y-134259580D02*
X189526919Y-133259580D01*
X190050728Y-133259580D02*
X190717395Y-133259580D01*
X190288823Y-134259580D01*
X191050728Y-133354819D02*
X191098347Y-133307200D01*
X191193585Y-133259580D01*
X191431680Y-133259580D01*
X191526919Y-133307200D01*
X191574538Y-133354819D01*
X191622157Y-133450057D01*
X191622157Y-133545295D01*
X191574538Y-133688152D01*
X191003109Y-134259580D01*
X191622157Y-134259580D01*
X194937190Y-134183380D02*
X194603857Y-133707190D01*
X194365761Y-134183380D02*
X194365761Y-133183380D01*
X194746714Y-133183380D01*
X194841952Y-133231000D01*
X194889571Y-133278619D01*
X194937190Y-133373857D01*
X194937190Y-133516714D01*
X194889571Y-133611952D01*
X194841952Y-133659571D01*
X194746714Y-133707190D01*
X194365761Y-133707190D01*
X195222904Y-133183380D02*
X195794333Y-133183380D01*
X195508619Y-134183380D02*
X195508619Y-133183380D01*
X196032428Y-133183380D02*
X196699095Y-133183380D01*
X196270523Y-134183380D01*
X196984809Y-133183380D02*
X197603857Y-133183380D01*
X197270523Y-133564333D01*
X197413380Y-133564333D01*
X197508619Y-133611952D01*
X197556238Y-133659571D01*
X197603857Y-133754809D01*
X197603857Y-133992904D01*
X197556238Y-134088142D01*
X197508619Y-134135761D01*
X197413380Y-134183380D01*
X197127666Y-134183380D01*
X197032428Y-134135761D01*
X196984809Y-134088142D01*
X95553400Y-133840480D02*
X95220066Y-133364290D01*
X94981971Y-133840480D02*
X94981971Y-132840480D01*
X95362923Y-132840480D01*
X95458161Y-132888100D01*
X95505780Y-132935719D01*
X95553400Y-133030957D01*
X95553400Y-133173814D01*
X95505780Y-133269052D01*
X95458161Y-133316671D01*
X95362923Y-133364290D01*
X94981971Y-133364290D01*
X95839114Y-132840480D02*
X96410542Y-132840480D01*
X96124828Y-133840480D02*
X96124828Y-132840480D01*
X97267685Y-133840480D02*
X96696257Y-133840480D01*
X96981971Y-133840480D02*
X96981971Y-132840480D01*
X96886733Y-132983338D01*
X96791495Y-133078576D01*
X96696257Y-133126195D01*
X98220066Y-133840480D02*
X97648638Y-133840480D01*
X97934352Y-133840480D02*
X97934352Y-132840480D01*
X97839114Y-132983338D01*
X97743876Y-133078576D01*
X97648638Y-133126195D01*
X99172447Y-133840480D02*
X98601019Y-133840480D01*
X98886733Y-133840480D02*
X98886733Y-132840480D01*
X98791495Y-132983338D01*
X98696257Y-133078576D01*
X98601019Y-133126195D01*
X100862000Y-133751580D02*
X100528666Y-133275390D01*
X100290571Y-133751580D02*
X100290571Y-132751580D01*
X100671523Y-132751580D01*
X100766761Y-132799200D01*
X100814380Y-132846819D01*
X100862000Y-132942057D01*
X100862000Y-133084914D01*
X100814380Y-133180152D01*
X100766761Y-133227771D01*
X100671523Y-133275390D01*
X100290571Y-133275390D01*
X101147714Y-132751580D02*
X101719142Y-132751580D01*
X101433428Y-133751580D02*
X101433428Y-132751580D01*
X102576285Y-133751580D02*
X102004857Y-133751580D01*
X102290571Y-133751580D02*
X102290571Y-132751580D01*
X102195333Y-132894438D01*
X102100095Y-132989676D01*
X102004857Y-133037295D01*
X103528666Y-133751580D02*
X102957238Y-133751580D01*
X103242952Y-133751580D02*
X103242952Y-132751580D01*
X103147714Y-132894438D01*
X103052476Y-132989676D01*
X102957238Y-133037295D01*
X103909619Y-132846819D02*
X103957238Y-132799200D01*
X104052476Y-132751580D01*
X104290571Y-132751580D01*
X104385809Y-132799200D01*
X104433428Y-132846819D01*
X104481047Y-132942057D01*
X104481047Y-133037295D01*
X104433428Y-133180152D01*
X103862000Y-133751580D01*
X104481047Y-133751580D01*
X106526200Y-133649980D02*
X106192866Y-133173790D01*
X105954771Y-133649980D02*
X105954771Y-132649980D01*
X106335723Y-132649980D01*
X106430961Y-132697600D01*
X106478580Y-132745219D01*
X106526200Y-132840457D01*
X106526200Y-132983314D01*
X106478580Y-133078552D01*
X106430961Y-133126171D01*
X106335723Y-133173790D01*
X105954771Y-133173790D01*
X106811914Y-132649980D02*
X107383342Y-132649980D01*
X107097628Y-133649980D02*
X107097628Y-132649980D01*
X108240485Y-133649980D02*
X107669057Y-133649980D01*
X107954771Y-133649980D02*
X107954771Y-132649980D01*
X107859533Y-132792838D01*
X107764295Y-132888076D01*
X107669057Y-132935695D01*
X109192866Y-133649980D02*
X108621438Y-133649980D01*
X108907152Y-133649980D02*
X108907152Y-132649980D01*
X108811914Y-132792838D01*
X108716676Y-132888076D01*
X108621438Y-132935695D01*
X109526200Y-132649980D02*
X110145247Y-132649980D01*
X109811914Y-133030933D01*
X109954771Y-133030933D01*
X110050009Y-133078552D01*
X110097628Y-133126171D01*
X110145247Y-133221409D01*
X110145247Y-133459504D01*
X110097628Y-133554742D01*
X110050009Y-133602361D01*
X109954771Y-133649980D01*
X109669057Y-133649980D01*
X109573819Y-133602361D01*
X109526200Y-133554742D01*
X7567800Y-135199380D02*
X7234466Y-134723190D01*
X6996371Y-135199380D02*
X6996371Y-134199380D01*
X7377323Y-134199380D01*
X7472561Y-134247000D01*
X7520180Y-134294619D01*
X7567800Y-134389857D01*
X7567800Y-134532714D01*
X7520180Y-134627952D01*
X7472561Y-134675571D01*
X7377323Y-134723190D01*
X6996371Y-134723190D01*
X7853514Y-134199380D02*
X8424942Y-134199380D01*
X8139228Y-135199380D02*
X8139228Y-134199380D01*
X9282085Y-135199380D02*
X8710657Y-135199380D01*
X8996371Y-135199380D02*
X8996371Y-134199380D01*
X8901133Y-134342238D01*
X8805895Y-134437476D01*
X8710657Y-134485095D01*
X10186847Y-134199380D02*
X9710657Y-134199380D01*
X9663038Y-134675571D01*
X9710657Y-134627952D01*
X9805895Y-134580333D01*
X10043990Y-134580333D01*
X10139228Y-134627952D01*
X10186847Y-134675571D01*
X10234466Y-134770809D01*
X10234466Y-135008904D01*
X10186847Y-135104142D01*
X10139228Y-135151761D01*
X10043990Y-135199380D01*
X9805895Y-135199380D01*
X9710657Y-135151761D01*
X9663038Y-135104142D01*
X11186847Y-135199380D02*
X10615419Y-135199380D01*
X10901133Y-135199380D02*
X10901133Y-134199380D01*
X10805895Y-134342238D01*
X10710657Y-134437476D01*
X10615419Y-134485095D01*
X13536800Y-135326380D02*
X13203466Y-134850190D01*
X12965371Y-135326380D02*
X12965371Y-134326380D01*
X13346323Y-134326380D01*
X13441561Y-134374000D01*
X13489180Y-134421619D01*
X13536800Y-134516857D01*
X13536800Y-134659714D01*
X13489180Y-134754952D01*
X13441561Y-134802571D01*
X13346323Y-134850190D01*
X12965371Y-134850190D01*
X13822514Y-134326380D02*
X14393942Y-134326380D01*
X14108228Y-135326380D02*
X14108228Y-134326380D01*
X15251085Y-135326380D02*
X14679657Y-135326380D01*
X14965371Y-135326380D02*
X14965371Y-134326380D01*
X14870133Y-134469238D01*
X14774895Y-134564476D01*
X14679657Y-134612095D01*
X16155847Y-134326380D02*
X15679657Y-134326380D01*
X15632038Y-134802571D01*
X15679657Y-134754952D01*
X15774895Y-134707333D01*
X16012990Y-134707333D01*
X16108228Y-134754952D01*
X16155847Y-134802571D01*
X16203466Y-134897809D01*
X16203466Y-135135904D01*
X16155847Y-135231142D01*
X16108228Y-135278761D01*
X16012990Y-135326380D01*
X15774895Y-135326380D01*
X15679657Y-135278761D01*
X15632038Y-135231142D01*
X16584419Y-134421619D02*
X16632038Y-134374000D01*
X16727276Y-134326380D01*
X16965371Y-134326380D01*
X17060609Y-134374000D01*
X17108228Y-134421619D01*
X17155847Y-134516857D01*
X17155847Y-134612095D01*
X17108228Y-134754952D01*
X16536800Y-135326380D01*
X17155847Y-135326380D01*
X19328000Y-135326380D02*
X18994666Y-134850190D01*
X18756571Y-135326380D02*
X18756571Y-134326380D01*
X19137523Y-134326380D01*
X19232761Y-134374000D01*
X19280380Y-134421619D01*
X19328000Y-134516857D01*
X19328000Y-134659714D01*
X19280380Y-134754952D01*
X19232761Y-134802571D01*
X19137523Y-134850190D01*
X18756571Y-134850190D01*
X19613714Y-134326380D02*
X20185142Y-134326380D01*
X19899428Y-135326380D02*
X19899428Y-134326380D01*
X21042285Y-135326380D02*
X20470857Y-135326380D01*
X20756571Y-135326380D02*
X20756571Y-134326380D01*
X20661333Y-134469238D01*
X20566095Y-134564476D01*
X20470857Y-134612095D01*
X21947047Y-134326380D02*
X21470857Y-134326380D01*
X21423238Y-134802571D01*
X21470857Y-134754952D01*
X21566095Y-134707333D01*
X21804190Y-134707333D01*
X21899428Y-134754952D01*
X21947047Y-134802571D01*
X21994666Y-134897809D01*
X21994666Y-135135904D01*
X21947047Y-135231142D01*
X21899428Y-135278761D01*
X21804190Y-135326380D01*
X21566095Y-135326380D01*
X21470857Y-135278761D01*
X21423238Y-135231142D01*
X22328000Y-134326380D02*
X22947047Y-134326380D01*
X22613714Y-134707333D01*
X22756571Y-134707333D01*
X22851809Y-134754952D01*
X22899428Y-134802571D01*
X22947047Y-134897809D01*
X22947047Y-135135904D01*
X22899428Y-135231142D01*
X22851809Y-135278761D01*
X22756571Y-135326380D01*
X22470857Y-135326380D01*
X22375619Y-135278761D01*
X22328000Y-135231142D01*
X294013761Y-131601419D02*
X293918523Y-131553800D01*
X293823285Y-131458561D01*
X293680428Y-131315704D01*
X293585190Y-131268085D01*
X293489952Y-131268085D01*
X293537571Y-131506180D02*
X293442333Y-131458561D01*
X293347095Y-131363323D01*
X293299476Y-131172847D01*
X293299476Y-130839514D01*
X293347095Y-130649038D01*
X293442333Y-130553800D01*
X293537571Y-130506180D01*
X293728047Y-130506180D01*
X293823285Y-130553800D01*
X293918523Y-130649038D01*
X293966142Y-130839514D01*
X293966142Y-131172847D01*
X293918523Y-131363323D01*
X293823285Y-131458561D01*
X293728047Y-131506180D01*
X293537571Y-131506180D01*
X294918523Y-131506180D02*
X294347095Y-131506180D01*
X294632809Y-131506180D02*
X294632809Y-130506180D01*
X294537571Y-130649038D01*
X294442333Y-130744276D01*
X294347095Y-130791895D01*
X250038361Y-132040619D02*
X249943123Y-131993000D01*
X249847885Y-131897761D01*
X249705028Y-131754904D01*
X249609790Y-131707285D01*
X249514552Y-131707285D01*
X249562171Y-131945380D02*
X249466933Y-131897761D01*
X249371695Y-131802523D01*
X249324076Y-131612047D01*
X249324076Y-131278714D01*
X249371695Y-131088238D01*
X249466933Y-130993000D01*
X249562171Y-130945380D01*
X249752647Y-130945380D01*
X249847885Y-130993000D01*
X249943123Y-131088238D01*
X249990742Y-131278714D01*
X249990742Y-131612047D01*
X249943123Y-131802523D01*
X249847885Y-131897761D01*
X249752647Y-131945380D01*
X249562171Y-131945380D01*
X250324076Y-130945380D02*
X250943123Y-130945380D01*
X250609790Y-131326333D01*
X250752647Y-131326333D01*
X250847885Y-131373952D01*
X250895504Y-131421571D01*
X250943123Y-131516809D01*
X250943123Y-131754904D01*
X250895504Y-131850142D01*
X250847885Y-131897761D01*
X250752647Y-131945380D01*
X250466933Y-131945380D01*
X250371695Y-131897761D01*
X250324076Y-131850142D01*
X205803961Y-131857819D02*
X205708723Y-131810200D01*
X205613485Y-131714961D01*
X205470628Y-131572104D01*
X205375390Y-131524485D01*
X205280152Y-131524485D01*
X205327771Y-131762580D02*
X205232533Y-131714961D01*
X205137295Y-131619723D01*
X205089676Y-131429247D01*
X205089676Y-131095914D01*
X205137295Y-130905438D01*
X205232533Y-130810200D01*
X205327771Y-130762580D01*
X205518247Y-130762580D01*
X205613485Y-130810200D01*
X205708723Y-130905438D01*
X205756342Y-131095914D01*
X205756342Y-131429247D01*
X205708723Y-131619723D01*
X205613485Y-131714961D01*
X205518247Y-131762580D01*
X205327771Y-131762580D01*
X206661104Y-130762580D02*
X206184914Y-130762580D01*
X206137295Y-131238771D01*
X206184914Y-131191152D01*
X206280152Y-131143533D01*
X206518247Y-131143533D01*
X206613485Y-131191152D01*
X206661104Y-131238771D01*
X206708723Y-131334009D01*
X206708723Y-131572104D01*
X206661104Y-131667342D01*
X206613485Y-131714961D01*
X206518247Y-131762580D01*
X206280152Y-131762580D01*
X206184914Y-131714961D01*
X206137295Y-131667342D01*
X161898361Y-131900019D02*
X161803123Y-131852400D01*
X161707885Y-131757161D01*
X161565028Y-131614304D01*
X161469790Y-131566685D01*
X161374552Y-131566685D01*
X161422171Y-131804780D02*
X161326933Y-131757161D01*
X161231695Y-131661923D01*
X161184076Y-131471447D01*
X161184076Y-131138114D01*
X161231695Y-130947638D01*
X161326933Y-130852400D01*
X161422171Y-130804780D01*
X161612647Y-130804780D01*
X161707885Y-130852400D01*
X161803123Y-130947638D01*
X161850742Y-131138114D01*
X161850742Y-131471447D01*
X161803123Y-131661923D01*
X161707885Y-131757161D01*
X161612647Y-131804780D01*
X161422171Y-131804780D01*
X162184076Y-130804780D02*
X162850742Y-130804780D01*
X162422171Y-131804780D01*
X118288361Y-131479019D02*
X118193123Y-131431400D01*
X118097885Y-131336161D01*
X117955028Y-131193304D01*
X117859790Y-131145685D01*
X117764552Y-131145685D01*
X117812171Y-131383780D02*
X117716933Y-131336161D01*
X117621695Y-131240923D01*
X117574076Y-131050447D01*
X117574076Y-130717114D01*
X117621695Y-130526638D01*
X117716933Y-130431400D01*
X117812171Y-130383780D01*
X118002647Y-130383780D01*
X118097885Y-130431400D01*
X118193123Y-130526638D01*
X118240742Y-130717114D01*
X118240742Y-131050447D01*
X118193123Y-131240923D01*
X118097885Y-131336161D01*
X118002647Y-131383780D01*
X117812171Y-131383780D01*
X118716933Y-131383780D02*
X118907409Y-131383780D01*
X119002647Y-131336161D01*
X119050266Y-131288542D01*
X119145504Y-131145685D01*
X119193123Y-130955209D01*
X119193123Y-130574257D01*
X119145504Y-130479019D01*
X119097885Y-130431400D01*
X119002647Y-130383780D01*
X118812171Y-130383780D01*
X118716933Y-130431400D01*
X118669314Y-130479019D01*
X118621695Y-130574257D01*
X118621695Y-130812352D01*
X118669314Y-130907590D01*
X118716933Y-130955209D01*
X118812171Y-131002828D01*
X119002647Y-131002828D01*
X119097885Y-130955209D01*
X119145504Y-130907590D01*
X119193123Y-130812352D01*
X74135771Y-131217419D02*
X74040533Y-131169800D01*
X73945295Y-131074561D01*
X73802438Y-130931704D01*
X73707200Y-130884085D01*
X73611961Y-130884085D01*
X73659580Y-131122180D02*
X73564342Y-131074561D01*
X73469104Y-130979323D01*
X73421485Y-130788847D01*
X73421485Y-130455514D01*
X73469104Y-130265038D01*
X73564342Y-130169800D01*
X73659580Y-130122180D01*
X73850057Y-130122180D01*
X73945295Y-130169800D01*
X74040533Y-130265038D01*
X74088152Y-130455514D01*
X74088152Y-130788847D01*
X74040533Y-130979323D01*
X73945295Y-131074561D01*
X73850057Y-131122180D01*
X73659580Y-131122180D01*
X75040533Y-131122180D02*
X74469104Y-131122180D01*
X74754819Y-131122180D02*
X74754819Y-130122180D01*
X74659580Y-130265038D01*
X74564342Y-130360276D01*
X74469104Y-130407895D01*
X75992914Y-131122180D02*
X75421485Y-131122180D01*
X75707200Y-131122180D02*
X75707200Y-130122180D01*
X75611961Y-130265038D01*
X75516723Y-130360276D01*
X75421485Y-130407895D01*
X30276571Y-131793619D02*
X30181333Y-131746000D01*
X30086095Y-131650761D01*
X29943238Y-131507904D01*
X29848000Y-131460285D01*
X29752761Y-131460285D01*
X29800380Y-131698380D02*
X29705142Y-131650761D01*
X29609904Y-131555523D01*
X29562285Y-131365047D01*
X29562285Y-131031714D01*
X29609904Y-130841238D01*
X29705142Y-130746000D01*
X29800380Y-130698380D01*
X29990857Y-130698380D01*
X30086095Y-130746000D01*
X30181333Y-130841238D01*
X30228952Y-131031714D01*
X30228952Y-131365047D01*
X30181333Y-131555523D01*
X30086095Y-131650761D01*
X29990857Y-131698380D01*
X29800380Y-131698380D01*
X31181333Y-131698380D02*
X30609904Y-131698380D01*
X30895619Y-131698380D02*
X30895619Y-130698380D01*
X30800380Y-130841238D01*
X30705142Y-130936476D01*
X30609904Y-130984095D01*
X31514666Y-130698380D02*
X32133714Y-130698380D01*
X31800380Y-131079333D01*
X31943238Y-131079333D01*
X32038476Y-131126952D01*
X32086095Y-131174571D01*
X32133714Y-131269809D01*
X32133714Y-131507904D01*
X32086095Y-131603142D01*
X32038476Y-131650761D01*
X31943238Y-131698380D01*
X31657523Y-131698380D01*
X31562285Y-131650761D01*
X31514666Y-131603142D01*
X-13981428Y-131617619D02*
X-14076666Y-131570000D01*
X-14171904Y-131474761D01*
X-14314761Y-131331904D01*
X-14410000Y-131284285D01*
X-14505238Y-131284285D01*
X-14457619Y-131522380D02*
X-14552857Y-131474761D01*
X-14648095Y-131379523D01*
X-14695714Y-131189047D01*
X-14695714Y-130855714D01*
X-14648095Y-130665238D01*
X-14552857Y-130570000D01*
X-14457619Y-130522380D01*
X-14267142Y-130522380D01*
X-14171904Y-130570000D01*
X-14076666Y-130665238D01*
X-14029047Y-130855714D01*
X-14029047Y-131189047D01*
X-14076666Y-131379523D01*
X-14171904Y-131474761D01*
X-14267142Y-131522380D01*
X-14457619Y-131522380D01*
X-13076666Y-131522380D02*
X-13648095Y-131522380D01*
X-13362380Y-131522380D02*
X-13362380Y-130522380D01*
X-13457619Y-130665238D01*
X-13552857Y-130760476D01*
X-13648095Y-130808095D01*
X-12171904Y-130522380D02*
X-12648095Y-130522380D01*
X-12695714Y-130998571D01*
X-12648095Y-130950952D01*
X-12552857Y-130903333D01*
X-12314761Y-130903333D01*
X-12219523Y-130950952D01*
X-12171904Y-130998571D01*
X-12124285Y-131093809D01*
X-12124285Y-131331904D01*
X-12171904Y-131427142D01*
X-12219523Y-131474761D01*
X-12314761Y-131522380D01*
X-12552857Y-131522380D01*
X-12648095Y-131474761D01*
X-12695714Y-131427142D01*
X289839495Y-130897380D02*
X290410923Y-130897380D01*
X290125209Y-131897380D02*
X290125209Y-130897380D01*
X291268066Y-131897380D02*
X290696638Y-131897380D01*
X290982352Y-131897380D02*
X290982352Y-130897380D01*
X290887114Y-131040238D01*
X290791876Y-131135476D01*
X290696638Y-131183095D01*
X246151495Y-130871980D02*
X246722923Y-130871980D01*
X246437209Y-131871980D02*
X246437209Y-130871980D01*
X246961019Y-130871980D02*
X247580066Y-130871980D01*
X247246733Y-131252933D01*
X247389590Y-131252933D01*
X247484828Y-131300552D01*
X247532447Y-131348171D01*
X247580066Y-131443409D01*
X247580066Y-131681504D01*
X247532447Y-131776742D01*
X247484828Y-131824361D01*
X247389590Y-131871980D01*
X247103876Y-131871980D01*
X247008638Y-131824361D01*
X246961019Y-131776742D01*
X202438095Y-130871980D02*
X203009523Y-130871980D01*
X202723809Y-131871980D02*
X202723809Y-130871980D01*
X203819047Y-130871980D02*
X203342857Y-130871980D01*
X203295238Y-131348171D01*
X203342857Y-131300552D01*
X203438095Y-131252933D01*
X203676190Y-131252933D01*
X203771428Y-131300552D01*
X203819047Y-131348171D01*
X203866666Y-131443409D01*
X203866666Y-131681504D01*
X203819047Y-131776742D01*
X203771428Y-131824361D01*
X203676190Y-131871980D01*
X203438095Y-131871980D01*
X203342857Y-131824361D01*
X203295238Y-131776742D01*
X158775495Y-130846580D02*
X159346923Y-130846580D01*
X159061209Y-131846580D02*
X159061209Y-130846580D01*
X159585019Y-130846580D02*
X160251685Y-130846580D01*
X159823114Y-131846580D01*
X115087495Y-130846580D02*
X115658923Y-130846580D01*
X115373209Y-131846580D02*
X115373209Y-130846580D01*
X116039876Y-131846580D02*
X116230352Y-131846580D01*
X116325590Y-131798961D01*
X116373209Y-131751342D01*
X116468447Y-131608485D01*
X116516066Y-131418009D01*
X116516066Y-131037057D01*
X116468447Y-130941819D01*
X116420828Y-130894200D01*
X116325590Y-130846580D01*
X116135114Y-130846580D01*
X116039876Y-130894200D01*
X115992257Y-130941819D01*
X115944638Y-131037057D01*
X115944638Y-131275152D01*
X115992257Y-131370390D01*
X116039876Y-131418009D01*
X116135114Y-131465628D01*
X116325590Y-131465628D01*
X116420828Y-131418009D01*
X116468447Y-131370390D01*
X116516066Y-131275152D01*
X70923304Y-130770380D02*
X71494733Y-130770380D01*
X71209019Y-131770380D02*
X71209019Y-130770380D01*
X72351876Y-131770380D02*
X71780447Y-131770380D01*
X72066161Y-131770380D02*
X72066161Y-130770380D01*
X71970923Y-130913238D01*
X71875685Y-131008476D01*
X71780447Y-131056095D01*
X73304257Y-131770380D02*
X72732828Y-131770380D01*
X73018542Y-131770380D02*
X73018542Y-130770380D01*
X72923304Y-130913238D01*
X72828066Y-131008476D01*
X72732828Y-131056095D01*
X27235304Y-130821180D02*
X27806733Y-130821180D01*
X27521019Y-131821180D02*
X27521019Y-130821180D01*
X28663876Y-131821180D02*
X28092447Y-131821180D01*
X28378161Y-131821180D02*
X28378161Y-130821180D01*
X28282923Y-130964038D01*
X28187685Y-131059276D01*
X28092447Y-131106895D01*
X28997209Y-130821180D02*
X29616257Y-130821180D01*
X29282923Y-131202133D01*
X29425780Y-131202133D01*
X29521019Y-131249752D01*
X29568638Y-131297371D01*
X29616257Y-131392609D01*
X29616257Y-131630704D01*
X29568638Y-131725942D01*
X29521019Y-131773561D01*
X29425780Y-131821180D01*
X29140066Y-131821180D01*
X29044828Y-131773561D01*
X28997209Y-131725942D01*
X-18828095Y-130702380D02*
X-18256666Y-130702380D01*
X-18542380Y-131702380D02*
X-18542380Y-130702380D01*
X-17399523Y-131702380D02*
X-17970952Y-131702380D01*
X-17685238Y-131702380D02*
X-17685238Y-130702380D01*
X-17780476Y-130845238D01*
X-17875714Y-130940476D01*
X-17970952Y-130988095D01*
X-16494761Y-130702380D02*
X-16970952Y-130702380D01*
X-17018571Y-131178571D01*
X-16970952Y-131130952D01*
X-16875714Y-131083333D01*
X-16637619Y-131083333D01*
X-16542380Y-131130952D01*
X-16494761Y-131178571D01*
X-16447142Y-131273809D01*
X-16447142Y-131511904D01*
X-16494761Y-131607142D01*
X-16542380Y-131654761D01*
X-16637619Y-131702380D01*
X-16875714Y-131702380D01*
X-16970952Y-131654761D01*
X-17018571Y-131607142D01*
X289792380Y-114086666D02*
X289316190Y-114420000D01*
X289792380Y-114658095D02*
X288792380Y-114658095D01*
X288792380Y-114277142D01*
X288840000Y-114181904D01*
X288887619Y-114134285D01*
X288982857Y-114086666D01*
X289125714Y-114086666D01*
X289220952Y-114134285D01*
X289268571Y-114181904D01*
X289316190Y-114277142D01*
X289316190Y-114658095D01*
X289792380Y-113134285D02*
X289792380Y-113705714D01*
X289792380Y-113420000D02*
X288792380Y-113420000D01*
X288935238Y-113515238D01*
X289030476Y-113610476D01*
X289078095Y-113705714D01*
X245692380Y-114466666D02*
X245216190Y-114800000D01*
X245692380Y-115038095D02*
X244692380Y-115038095D01*
X244692380Y-114657142D01*
X244740000Y-114561904D01*
X244787619Y-114514285D01*
X244882857Y-114466666D01*
X245025714Y-114466666D01*
X245120952Y-114514285D01*
X245168571Y-114561904D01*
X245216190Y-114657142D01*
X245216190Y-115038095D01*
X244692380Y-114133333D02*
X244692380Y-113514285D01*
X245073333Y-113847619D01*
X245073333Y-113704761D01*
X245120952Y-113609523D01*
X245168571Y-113561904D01*
X245263809Y-113514285D01*
X245501904Y-113514285D01*
X245597142Y-113561904D01*
X245644761Y-113609523D01*
X245692380Y-113704761D01*
X245692380Y-113990476D01*
X245644761Y-114085714D01*
X245597142Y-114133333D01*
X202142380Y-114466666D02*
X201666190Y-114800000D01*
X202142380Y-115038095D02*
X201142380Y-115038095D01*
X201142380Y-114657142D01*
X201190000Y-114561904D01*
X201237619Y-114514285D01*
X201332857Y-114466666D01*
X201475714Y-114466666D01*
X201570952Y-114514285D01*
X201618571Y-114561904D01*
X201666190Y-114657142D01*
X201666190Y-115038095D01*
X201142380Y-113561904D02*
X201142380Y-114038095D01*
X201618571Y-114085714D01*
X201570952Y-114038095D01*
X201523333Y-113942857D01*
X201523333Y-113704761D01*
X201570952Y-113609523D01*
X201618571Y-113561904D01*
X201713809Y-113514285D01*
X201951904Y-113514285D01*
X202047142Y-113561904D01*
X202094761Y-113609523D01*
X202142380Y-113704761D01*
X202142380Y-113942857D01*
X202094761Y-114038095D01*
X202047142Y-114085714D01*
X158152380Y-114196666D02*
X157676190Y-114530000D01*
X158152380Y-114768095D02*
X157152380Y-114768095D01*
X157152380Y-114387142D01*
X157200000Y-114291904D01*
X157247619Y-114244285D01*
X157342857Y-114196666D01*
X157485714Y-114196666D01*
X157580952Y-114244285D01*
X157628571Y-114291904D01*
X157676190Y-114387142D01*
X157676190Y-114768095D01*
X157152380Y-113863333D02*
X157152380Y-113196666D01*
X158152380Y-113625238D01*
X114662380Y-113916666D02*
X114186190Y-114250000D01*
X114662380Y-114488095D02*
X113662380Y-114488095D01*
X113662380Y-114107142D01*
X113710000Y-114011904D01*
X113757619Y-113964285D01*
X113852857Y-113916666D01*
X113995714Y-113916666D01*
X114090952Y-113964285D01*
X114138571Y-114011904D01*
X114186190Y-114107142D01*
X114186190Y-114488095D01*
X114662380Y-113440476D02*
X114662380Y-113250000D01*
X114614761Y-113154761D01*
X114567142Y-113107142D01*
X114424285Y-113011904D01*
X114233809Y-112964285D01*
X113852857Y-112964285D01*
X113757619Y-113011904D01*
X113710000Y-113059523D01*
X113662380Y-113154761D01*
X113662380Y-113345238D01*
X113710000Y-113440476D01*
X113757619Y-113488095D01*
X113852857Y-113535714D01*
X114090952Y-113535714D01*
X114186190Y-113488095D01*
X114233809Y-113440476D01*
X114281428Y-113345238D01*
X114281428Y-113154761D01*
X114233809Y-113059523D01*
X114186190Y-113011904D01*
X114090952Y-112964285D01*
X71382380Y-114452857D02*
X70906190Y-114786190D01*
X71382380Y-115024285D02*
X70382380Y-115024285D01*
X70382380Y-114643333D01*
X70430000Y-114548095D01*
X70477619Y-114500476D01*
X70572857Y-114452857D01*
X70715714Y-114452857D01*
X70810952Y-114500476D01*
X70858571Y-114548095D01*
X70906190Y-114643333D01*
X70906190Y-115024285D01*
X71382380Y-113500476D02*
X71382380Y-114071904D01*
X71382380Y-113786190D02*
X70382380Y-113786190D01*
X70525238Y-113881428D01*
X70620476Y-113976666D01*
X70668095Y-114071904D01*
X71382380Y-112548095D02*
X71382380Y-113119523D01*
X71382380Y-112833809D02*
X70382380Y-112833809D01*
X70525238Y-112929047D01*
X70620476Y-113024285D01*
X70668095Y-113119523D01*
X26952380Y-114672857D02*
X26476190Y-115006190D01*
X26952380Y-115244285D02*
X25952380Y-115244285D01*
X25952380Y-114863333D01*
X26000000Y-114768095D01*
X26047619Y-114720476D01*
X26142857Y-114672857D01*
X26285714Y-114672857D01*
X26380952Y-114720476D01*
X26428571Y-114768095D01*
X26476190Y-114863333D01*
X26476190Y-115244285D01*
X26952380Y-113720476D02*
X26952380Y-114291904D01*
X26952380Y-114006190D02*
X25952380Y-114006190D01*
X26095238Y-114101428D01*
X26190476Y-114196666D01*
X26238095Y-114291904D01*
X25952380Y-113387142D02*
X25952380Y-112768095D01*
X26333333Y-113101428D01*
X26333333Y-112958571D01*
X26380952Y-112863333D01*
X26428571Y-112815714D01*
X26523809Y-112768095D01*
X26761904Y-112768095D01*
X26857142Y-112815714D01*
X26904761Y-112863333D01*
X26952380Y-112958571D01*
X26952380Y-113244285D01*
X26904761Y-113339523D01*
X26857142Y-113387142D01*
X-16317619Y-114822857D02*
X-16793809Y-115156190D01*
X-16317619Y-115394285D02*
X-17317619Y-115394285D01*
X-17317619Y-115013333D01*
X-17270000Y-114918095D01*
X-17222380Y-114870476D01*
X-17127142Y-114822857D01*
X-16984285Y-114822857D01*
X-16889047Y-114870476D01*
X-16841428Y-114918095D01*
X-16793809Y-115013333D01*
X-16793809Y-115394285D01*
X-16317619Y-113870476D02*
X-16317619Y-114441904D01*
X-16317619Y-114156190D02*
X-17317619Y-114156190D01*
X-17174761Y-114251428D01*
X-17079523Y-114346666D01*
X-17031904Y-114441904D01*
X-17317619Y-112965714D02*
X-17317619Y-113441904D01*
X-16841428Y-113489523D01*
X-16889047Y-113441904D01*
X-16936666Y-113346666D01*
X-16936666Y-113108571D01*
X-16889047Y-113013333D01*
X-16841428Y-112965714D01*
X-16746190Y-112918095D01*
X-16508095Y-112918095D01*
X-16412857Y-112965714D01*
X-16365238Y-113013333D01*
X-16317619Y-113108571D01*
X-16317619Y-113346666D01*
X-16365238Y-113441904D01*
X-16412857Y-113489523D01*
X-11451428Y-136413333D02*
X-11451428Y-136746666D01*
X-10927619Y-136746666D02*
X-11927619Y-136746666D01*
X-11927619Y-136270476D01*
X-11832380Y-135937142D02*
X-11880000Y-135889523D01*
X-11927619Y-135794285D01*
X-11927619Y-135556190D01*
X-11880000Y-135460952D01*
X-11832380Y-135413333D01*
X-11737142Y-135365714D01*
X-11641904Y-135365714D01*
X-11499047Y-135413333D01*
X-10927619Y-135984761D01*
X-10927619Y-135365714D01*
X32278571Y-136103333D02*
X32278571Y-136436666D01*
X32802380Y-136436666D02*
X31802380Y-136436666D01*
X31802380Y-135960476D01*
X32135714Y-135150952D02*
X32802380Y-135150952D01*
X31754761Y-135389047D02*
X32469047Y-135627142D01*
X32469047Y-135008095D01*
X76178571Y-136193333D02*
X76178571Y-136526666D01*
X76702380Y-136526666D02*
X75702380Y-136526666D01*
X75702380Y-136050476D01*
X75702380Y-135240952D02*
X75702380Y-135431428D01*
X75750000Y-135526666D01*
X75797619Y-135574285D01*
X75940476Y-135669523D01*
X76130952Y-135717142D01*
X76511904Y-135717142D01*
X76607142Y-135669523D01*
X76654761Y-135621904D01*
X76702380Y-135526666D01*
X76702380Y-135336190D01*
X76654761Y-135240952D01*
X76607142Y-135193333D01*
X76511904Y-135145714D01*
X76273809Y-135145714D01*
X76178571Y-135193333D01*
X76130952Y-135240952D01*
X76083333Y-135336190D01*
X76083333Y-135526666D01*
X76130952Y-135621904D01*
X76178571Y-135669523D01*
X76273809Y-135717142D01*
X119558571Y-136303333D02*
X119558571Y-136636666D01*
X120082380Y-136636666D02*
X119082380Y-136636666D01*
X119082380Y-136160476D01*
X119510952Y-135636666D02*
X119463333Y-135731904D01*
X119415714Y-135779523D01*
X119320476Y-135827142D01*
X119272857Y-135827142D01*
X119177619Y-135779523D01*
X119130000Y-135731904D01*
X119082380Y-135636666D01*
X119082380Y-135446190D01*
X119130000Y-135350952D01*
X119177619Y-135303333D01*
X119272857Y-135255714D01*
X119320476Y-135255714D01*
X119415714Y-135303333D01*
X119463333Y-135350952D01*
X119510952Y-135446190D01*
X119510952Y-135636666D01*
X119558571Y-135731904D01*
X119606190Y-135779523D01*
X119701428Y-135827142D01*
X119891904Y-135827142D01*
X119987142Y-135779523D01*
X120034761Y-135731904D01*
X120082380Y-135636666D01*
X120082380Y-135446190D01*
X120034761Y-135350952D01*
X119987142Y-135303333D01*
X119891904Y-135255714D01*
X119701428Y-135255714D01*
X119606190Y-135303333D01*
X119558571Y-135350952D01*
X119510952Y-135446190D01*
X250778571Y-136879523D02*
X250778571Y-137212857D01*
X251302380Y-137212857D02*
X250302380Y-137212857D01*
X250302380Y-136736666D01*
X251302380Y-135831904D02*
X251302380Y-136403333D01*
X251302380Y-136117619D02*
X250302380Y-136117619D01*
X250445238Y-136212857D01*
X250540476Y-136308095D01*
X250588095Y-136403333D01*
X250302380Y-135212857D02*
X250302380Y-135117619D01*
X250350000Y-135022380D01*
X250397619Y-134974761D01*
X250492857Y-134927142D01*
X250683333Y-134879523D01*
X250921428Y-134879523D01*
X251111904Y-134927142D01*
X251207142Y-134974761D01*
X251254761Y-135022380D01*
X251302380Y-135117619D01*
X251302380Y-135212857D01*
X251254761Y-135308095D01*
X251207142Y-135355714D01*
X251111904Y-135403333D01*
X250921428Y-135450952D01*
X250683333Y-135450952D01*
X250492857Y-135403333D01*
X250397619Y-135355714D01*
X250350000Y-135308095D01*
X250302380Y-135212857D01*
X295028571Y-136699523D02*
X295028571Y-137032857D01*
X295552380Y-137032857D02*
X294552380Y-137032857D01*
X294552380Y-136556666D01*
X295552380Y-135651904D02*
X295552380Y-136223333D01*
X295552380Y-135937619D02*
X294552380Y-135937619D01*
X294695238Y-136032857D01*
X294790476Y-136128095D01*
X294838095Y-136223333D01*
X294647619Y-135270952D02*
X294600000Y-135223333D01*
X294552380Y-135128095D01*
X294552380Y-134890000D01*
X294600000Y-134794761D01*
X294647619Y-134747142D01*
X294742857Y-134699523D01*
X294838095Y-134699523D01*
X294980952Y-134747142D01*
X295552380Y-135318571D01*
X295552380Y-134699523D01*
X206968571Y-136689523D02*
X206968571Y-137022857D01*
X207492380Y-137022857D02*
X206492380Y-137022857D01*
X206492380Y-136546666D01*
X207492380Y-135641904D02*
X207492380Y-136213333D01*
X207492380Y-135927619D02*
X206492380Y-135927619D01*
X206635238Y-136022857D01*
X206730476Y-136118095D01*
X206778095Y-136213333D01*
X206825714Y-134784761D02*
X207492380Y-134784761D01*
X206444761Y-135022857D02*
X207159047Y-135260952D01*
X207159047Y-134641904D01*
X163308571Y-136609523D02*
X163308571Y-136942857D01*
X163832380Y-136942857D02*
X162832380Y-136942857D01*
X162832380Y-136466666D01*
X163832380Y-135561904D02*
X163832380Y-136133333D01*
X163832380Y-135847619D02*
X162832380Y-135847619D01*
X162975238Y-135942857D01*
X163070476Y-136038095D01*
X163118095Y-136133333D01*
X162832380Y-134704761D02*
X162832380Y-134895238D01*
X162880000Y-134990476D01*
X162927619Y-135038095D01*
X163070476Y-135133333D01*
X163260952Y-135180952D01*
X163641904Y-135180952D01*
X163737142Y-135133333D01*
X163784761Y-135085714D01*
X163832380Y-134990476D01*
X163832380Y-134800000D01*
X163784761Y-134704761D01*
X163737142Y-134657142D01*
X163641904Y-134609523D01*
X163403809Y-134609523D01*
X163308571Y-134657142D01*
X163260952Y-134704761D01*
X163213333Y-134800000D01*
X163213333Y-134990476D01*
X163260952Y-135085714D01*
X163308571Y-135133333D01*
X163403809Y-135180952D01*
D14*
G36*
X181864000Y-105486200D02*
G01*
X169748200Y-105486200D01*
X169748200Y-94970600D01*
X181864000Y-94970600D01*
X181864000Y-105486200D01*
G37*
X181864000Y-105486200D02*
X169748200Y-105486200D01*
X169748200Y-94970600D01*
X181864000Y-94970600D01*
X181864000Y-105486200D01*
M02*
