G04 #@! TF.GenerationSoftware,KiCad,Pcbnew,5.1.5-52549c5~84~ubuntu18.04.1*
G04 #@! TF.CreationDate,2020-02-28T01:04:36-05:00*
G04 #@! TF.ProjectId,DA_Board_2,44415f42-6f61-4726-945f-322e6b696361,rev?*
G04 #@! TF.SameCoordinates,Original*
G04 #@! TF.FileFunction,Profile,NP*
%FSLAX46Y46*%
G04 Gerber Fmt 4.6, Leading zero omitted, Abs format (unit mm)*
G04 Created by KiCad (PCBNEW 5.1.5-52549c5~84~ubuntu18.04.1) date 2020-02-28 01:04:36*
%MOMM*%
%LPD*%
G04 APERTURE LIST*
%ADD10C,0.200000*%
G04 APERTURE END LIST*
D10*
X139505474Y-140841458D02*
X160103999Y-140841458D01*
X136408431Y-144998023D02*
X136408431Y-143938500D01*
X-19474001Y-140841458D02*
G75*
G02X-22649001Y-137666458I0J3175000D01*
G01*
X267472431Y-144998023D02*
X267472431Y-143938500D01*
X267472431Y-144998023D02*
G75*
G02X260935299Y-148222882I-4064000J0D01*
G01*
X267472432Y-143938500D02*
G75*
G02X270569474Y-140841458I3097042J0D01*
G01*
X116416000Y-140841457D02*
G75*
G02X123285600Y-143172334I-1J-11288543D01*
G01*
X52129474Y-140841458D02*
X116415999Y-140841458D01*
X46924231Y-144998023D02*
G75*
G03X46924231Y-144998023I-1955800J0D01*
G01*
X180096432Y-143938500D02*
G75*
G02X183193474Y-140841458I3097042J0D01*
G01*
X180096431Y-144998023D02*
X180096431Y-143938500D01*
X-22649001Y-91438458D02*
G75*
G02X-19474001Y-88263458I3175000J0D01*
G01*
X49032431Y-144998023D02*
X49032431Y-143938500D01*
X247480000Y-140841458D02*
G75*
G02X254349600Y-143172334I0J-11288542D01*
G01*
X134300231Y-144998023D02*
G75*
G03X134300231Y-144998023I-1955800J0D01*
G01*
X-17581700Y-91438458D02*
G75*
G03X-17581700Y-91438458I-1892301J0D01*
G01*
X265364231Y-144998023D02*
G75*
G03X265364231Y-144998023I-1955800J0D01*
G01*
X314281999Y-88263458D02*
X-19474001Y-88263458D01*
X314281999Y-88263458D02*
G75*
G02X317456999Y-91438458I0J-3175000D01*
G01*
X317456999Y-137666458D02*
X317456999Y-91438458D01*
X123285600Y-143172334D02*
X129871299Y-148222882D01*
X49032432Y-143938500D02*
G75*
G02X52129474Y-140841458I3097042J0D01*
G01*
X180096431Y-144998023D02*
G75*
G02X173559299Y-148222882I-4064000J0D01*
G01*
X270569474Y-140841458D02*
X314281999Y-140841458D01*
X316174299Y-91438458D02*
G75*
G03X316174299Y-91438458I-1892300J0D01*
G01*
X136408431Y-144998023D02*
G75*
G02X129871299Y-148222882I-4064000J0D01*
G01*
X160104000Y-140841457D02*
G75*
G02X166973600Y-143172334I-1J-11288543D01*
G01*
X35909600Y-143172334D02*
X42495299Y-148222882D01*
X166973600Y-143172334D02*
X173559299Y-148222882D01*
X136408432Y-143938500D02*
G75*
G02X139505474Y-140841458I3097042J0D01*
G01*
X-22649001Y-137666458D02*
X-22649001Y-91438458D01*
X254349600Y-143172334D02*
X260935299Y-148222882D01*
X49032431Y-144998023D02*
G75*
G02X42495299Y-148222882I-4064000J0D01*
G01*
X183193474Y-140841458D02*
X247480000Y-140841458D01*
X177988231Y-144998023D02*
G75*
G03X177988231Y-144998023I-1955800J0D01*
G01*
X317456999Y-137666458D02*
G75*
G02X314281999Y-140841458I-3175000J0D01*
G01*
X-19474001Y-140841458D02*
X29040000Y-140841458D01*
X29040000Y-140841458D02*
G75*
G02X35909600Y-143172334I0J-11288542D01*
G01*
M02*
