G04 #@! TF.GenerationSoftware,KiCad,Pcbnew,5.1.5-52549c5~84~ubuntu18.04.1*
G04 #@! TF.CreationDate,2020-02-28T01:04:36-05:00*
G04 #@! TF.ProjectId,DA_Board_2,44415f42-6f61-4726-945f-322e6b696361,rev?*
G04 #@! TF.SameCoordinates,Original*
G04 #@! TF.FileFunction,Copper,L1,Top*
G04 #@! TF.FilePolarity,Positive*
%FSLAX46Y46*%
G04 Gerber Fmt 4.6, Leading zero omitted, Abs format (unit mm)*
G04 Created by KiCad (PCBNEW 5.1.5-52549c5~84~ubuntu18.04.1) date 2020-02-28 01:04:36*
%MOMM*%
%LPD*%
G04 APERTURE LIST*
%ADD10R,1.200000X1.200000*%
%ADD11R,3.500000X1.780000*%
%ADD12C,1.300000*%
%ADD13C,2.000000*%
%ADD14R,1.300000X0.700000*%
%ADD15R,1.500000X4.000000*%
%ADD16R,0.800000X0.900000*%
%ADD17R,5.000000X8.000000*%
%ADD18R,7.870000X8.510000*%
%ADD19R,1.650000X3.810000*%
%ADD20C,0.100000*%
%ADD21C,0.800000*%
%ADD22C,0.254000*%
%ADD23C,0.508000*%
G04 APERTURE END LIST*
D10*
X303631600Y-125798400D03*
X303631600Y-127998400D03*
X259029200Y-128143000D03*
X259029200Y-125943000D03*
X214960200Y-125519000D03*
X214960200Y-127719000D03*
X171627800Y-125823800D03*
X171627800Y-128023800D03*
X128117600Y-127693600D03*
X128117600Y-125493600D03*
X84785200Y-127388800D03*
X84785200Y-125188800D03*
X40614600Y-127617400D03*
X40614600Y-125417400D03*
X-2997200Y-125689000D03*
X-2997200Y-127889000D03*
D11*
X302641000Y-131340000D03*
X302641000Y-136620000D03*
X258040000Y-136800000D03*
X258040000Y-131520000D03*
X214096600Y-131330000D03*
X214096600Y-136610000D03*
X170205400Y-136530000D03*
X170205400Y-131250000D03*
X126644400Y-131420000D03*
X126644400Y-136700000D03*
X83489800Y-136590000D03*
X83489800Y-131310000D03*
X39293800Y-131220000D03*
X39293800Y-136500000D03*
X-4343400Y-136810000D03*
X-4343400Y-131530000D03*
D12*
X-1473200Y-101244400D03*
X-1473200Y-98704400D03*
X-1473200Y-96164400D03*
X-1473200Y-103784400D03*
X1066800Y-97434400D03*
X1066800Y-99974400D03*
X1066800Y-102514400D03*
X1066800Y-105054400D03*
X-1473200Y-106324400D03*
X1066800Y-107594400D03*
X-1473200Y-108864400D03*
X1066800Y-110134400D03*
D13*
X326800Y-94764400D03*
X9610500Y-94751700D03*
D12*
X10350500Y-110121700D03*
X7810500Y-108851700D03*
X10350500Y-107581700D03*
X7810500Y-106311700D03*
X10350500Y-105041700D03*
X10350500Y-102501700D03*
X10350500Y-99961700D03*
X10350500Y-97421700D03*
X7810500Y-103771700D03*
X7810500Y-96151700D03*
X7810500Y-98691700D03*
X7810500Y-101231700D03*
X-10388600Y-101269800D03*
X-10388600Y-98729800D03*
X-10388600Y-96189800D03*
X-10388600Y-103809800D03*
X-7848600Y-97459800D03*
X-7848600Y-99999800D03*
X-7848600Y-102539800D03*
X-7848600Y-105079800D03*
X-10388600Y-106349800D03*
X-7848600Y-107619800D03*
D13*
X-8588600Y-94789800D03*
D12*
X16446500Y-101282500D03*
X16446500Y-98742500D03*
X16446500Y-96202500D03*
X16446500Y-103822500D03*
X18986500Y-97472500D03*
X18986500Y-100012500D03*
X18986500Y-102552500D03*
X18986500Y-105092500D03*
X16446500Y-106362500D03*
X18986500Y-107632500D03*
X16446500Y-108902500D03*
X18986500Y-110172500D03*
D13*
X18246500Y-94802500D03*
D14*
X301193200Y-128280200D03*
X301193200Y-126380200D03*
X257048000Y-126481800D03*
X257048000Y-128381800D03*
X212953600Y-126050000D03*
X212953600Y-127950000D03*
X169672000Y-128280200D03*
X169672000Y-126380200D03*
X126136400Y-126034800D03*
X126136400Y-127934800D03*
X82854800Y-127630000D03*
X82854800Y-125730000D03*
X38608000Y-125973800D03*
X38608000Y-127873800D03*
X-5003800Y-128127800D03*
X-5003800Y-126227800D03*
D15*
X273738600Y-138150600D03*
X270738600Y-138150600D03*
X276425400Y-138226800D03*
X279425400Y-138226800D03*
X285268800Y-138303000D03*
X282268800Y-138303000D03*
X182575200Y-137706100D03*
X185575200Y-137706100D03*
X191511000Y-137782300D03*
X188511000Y-137782300D03*
X194513200Y-137833100D03*
X197513200Y-137833100D03*
X98464500Y-137883900D03*
X95464500Y-137883900D03*
X101003100Y-137909300D03*
X104003100Y-137909300D03*
X109616500Y-137960100D03*
X106616500Y-137960100D03*
X7515600Y-137769600D03*
X10515600Y-137769600D03*
X16484600Y-137795000D03*
X13484600Y-137795000D03*
X19404200Y-137820400D03*
X22404200Y-137820400D03*
D16*
X297030000Y-129860000D03*
X295980000Y-131860000D03*
X298080000Y-131860000D03*
X254130000Y-132350000D03*
X252030000Y-132350000D03*
X253080000Y-130350000D03*
X208710000Y-130250000D03*
X207660000Y-132250000D03*
X209760000Y-132250000D03*
X164940000Y-129930000D03*
X163890000Y-131930000D03*
X165990000Y-131930000D03*
X122380000Y-131890000D03*
X120280000Y-131890000D03*
X121330000Y-129890000D03*
X79110000Y-131730000D03*
X77010000Y-131730000D03*
X78060000Y-129730000D03*
X35200000Y-132230000D03*
X33100000Y-132230000D03*
X34150000Y-130230000D03*
X-9630000Y-130260000D03*
X-10680000Y-132260000D03*
X-8580000Y-132260000D03*
D17*
X290601400Y-136525000D03*
X246913400Y-136499600D03*
X203200000Y-136499600D03*
X159537400Y-136474200D03*
X115849400Y-136474200D03*
X72161400Y-136398000D03*
X28473400Y-136448800D03*
X-15214600Y-136372600D03*
D18*
X295414700Y-118325900D03*
D19*
X297954700Y-125950900D03*
X292874700Y-125950900D03*
D18*
X251256800Y-118440200D03*
D19*
X253796800Y-126065200D03*
X248716800Y-126065200D03*
D18*
X207492600Y-118320900D03*
D19*
X210032600Y-125945900D03*
X204952600Y-125945900D03*
D18*
X163652200Y-118071900D03*
D19*
X166192200Y-125696900D03*
X161112200Y-125696900D03*
D18*
X120205500Y-117754400D03*
D19*
X122745500Y-125379400D03*
X117665500Y-125379400D03*
D18*
X77063600Y-117843300D03*
D19*
X79603600Y-125468300D03*
X74523600Y-125468300D03*
D18*
X32816800Y-117609700D03*
D19*
X35356800Y-125234700D03*
X30276800Y-125234700D03*
D18*
X-10731500Y-117868700D03*
D19*
X-8191500Y-125493700D03*
X-13271500Y-125493700D03*
G04 #@! TA.AperFunction,SMDPad,CuDef*
D20*
G36*
X-8910496Y-136856204D02*
G01*
X-8886227Y-136859804D01*
X-8862429Y-136865765D01*
X-8839329Y-136874030D01*
X-8817151Y-136884520D01*
X-8796107Y-136897133D01*
X-8776402Y-136911747D01*
X-8758223Y-136928223D01*
X-8741747Y-136946402D01*
X-8727133Y-136966107D01*
X-8714520Y-136987151D01*
X-8704030Y-137009329D01*
X-8695765Y-137032429D01*
X-8689804Y-137056227D01*
X-8686204Y-137080496D01*
X-8685000Y-137105000D01*
X-8685000Y-137855000D01*
X-8686204Y-137879504D01*
X-8689804Y-137903773D01*
X-8695765Y-137927571D01*
X-8704030Y-137950671D01*
X-8714520Y-137972849D01*
X-8727133Y-137993893D01*
X-8741747Y-138013598D01*
X-8758223Y-138031777D01*
X-8776402Y-138048253D01*
X-8796107Y-138062867D01*
X-8817151Y-138075480D01*
X-8839329Y-138085970D01*
X-8862429Y-138094235D01*
X-8886227Y-138100196D01*
X-8910496Y-138103796D01*
X-8935000Y-138105000D01*
X-10185000Y-138105000D01*
X-10209504Y-138103796D01*
X-10233773Y-138100196D01*
X-10257571Y-138094235D01*
X-10280671Y-138085970D01*
X-10302849Y-138075480D01*
X-10323893Y-138062867D01*
X-10343598Y-138048253D01*
X-10361777Y-138031777D01*
X-10378253Y-138013598D01*
X-10392867Y-137993893D01*
X-10405480Y-137972849D01*
X-10415970Y-137950671D01*
X-10424235Y-137927571D01*
X-10430196Y-137903773D01*
X-10433796Y-137879504D01*
X-10435000Y-137855000D01*
X-10435000Y-137105000D01*
X-10433796Y-137080496D01*
X-10430196Y-137056227D01*
X-10424235Y-137032429D01*
X-10415970Y-137009329D01*
X-10405480Y-136987151D01*
X-10392867Y-136966107D01*
X-10378253Y-136946402D01*
X-10361777Y-136928223D01*
X-10343598Y-136911747D01*
X-10323893Y-136897133D01*
X-10302849Y-136884520D01*
X-10280671Y-136874030D01*
X-10257571Y-136865765D01*
X-10233773Y-136859804D01*
X-10209504Y-136856204D01*
X-10185000Y-136855000D01*
X-8935000Y-136855000D01*
X-8910496Y-136856204D01*
G37*
G04 #@! TD.AperFunction*
G04 #@! TA.AperFunction,SMDPad,CuDef*
G36*
X-8910496Y-134056204D02*
G01*
X-8886227Y-134059804D01*
X-8862429Y-134065765D01*
X-8839329Y-134074030D01*
X-8817151Y-134084520D01*
X-8796107Y-134097133D01*
X-8776402Y-134111747D01*
X-8758223Y-134128223D01*
X-8741747Y-134146402D01*
X-8727133Y-134166107D01*
X-8714520Y-134187151D01*
X-8704030Y-134209329D01*
X-8695765Y-134232429D01*
X-8689804Y-134256227D01*
X-8686204Y-134280496D01*
X-8685000Y-134305000D01*
X-8685000Y-135055000D01*
X-8686204Y-135079504D01*
X-8689804Y-135103773D01*
X-8695765Y-135127571D01*
X-8704030Y-135150671D01*
X-8714520Y-135172849D01*
X-8727133Y-135193893D01*
X-8741747Y-135213598D01*
X-8758223Y-135231777D01*
X-8776402Y-135248253D01*
X-8796107Y-135262867D01*
X-8817151Y-135275480D01*
X-8839329Y-135285970D01*
X-8862429Y-135294235D01*
X-8886227Y-135300196D01*
X-8910496Y-135303796D01*
X-8935000Y-135305000D01*
X-10185000Y-135305000D01*
X-10209504Y-135303796D01*
X-10233773Y-135300196D01*
X-10257571Y-135294235D01*
X-10280671Y-135285970D01*
X-10302849Y-135275480D01*
X-10323893Y-135262867D01*
X-10343598Y-135248253D01*
X-10361777Y-135231777D01*
X-10378253Y-135213598D01*
X-10392867Y-135193893D01*
X-10405480Y-135172849D01*
X-10415970Y-135150671D01*
X-10424235Y-135127571D01*
X-10430196Y-135103773D01*
X-10433796Y-135079504D01*
X-10435000Y-135055000D01*
X-10435000Y-134305000D01*
X-10433796Y-134280496D01*
X-10430196Y-134256227D01*
X-10424235Y-134232429D01*
X-10415970Y-134209329D01*
X-10405480Y-134187151D01*
X-10392867Y-134166107D01*
X-10378253Y-134146402D01*
X-10361777Y-134128223D01*
X-10343598Y-134111747D01*
X-10323893Y-134097133D01*
X-10302849Y-134084520D01*
X-10280671Y-134074030D01*
X-10257571Y-134065765D01*
X-10233773Y-134059804D01*
X-10209504Y-134056204D01*
X-10185000Y-134055000D01*
X-8935000Y-134055000D01*
X-8910496Y-134056204D01*
G37*
G04 #@! TD.AperFunction*
G04 #@! TA.AperFunction,SMDPad,CuDef*
G36*
X34819504Y-133746204D02*
G01*
X34843773Y-133749804D01*
X34867571Y-133755765D01*
X34890671Y-133764030D01*
X34912849Y-133774520D01*
X34933893Y-133787133D01*
X34953598Y-133801747D01*
X34971777Y-133818223D01*
X34988253Y-133836402D01*
X35002867Y-133856107D01*
X35015480Y-133877151D01*
X35025970Y-133899329D01*
X35034235Y-133922429D01*
X35040196Y-133946227D01*
X35043796Y-133970496D01*
X35045000Y-133995000D01*
X35045000Y-134745000D01*
X35043796Y-134769504D01*
X35040196Y-134793773D01*
X35034235Y-134817571D01*
X35025970Y-134840671D01*
X35015480Y-134862849D01*
X35002867Y-134883893D01*
X34988253Y-134903598D01*
X34971777Y-134921777D01*
X34953598Y-134938253D01*
X34933893Y-134952867D01*
X34912849Y-134965480D01*
X34890671Y-134975970D01*
X34867571Y-134984235D01*
X34843773Y-134990196D01*
X34819504Y-134993796D01*
X34795000Y-134995000D01*
X33545000Y-134995000D01*
X33520496Y-134993796D01*
X33496227Y-134990196D01*
X33472429Y-134984235D01*
X33449329Y-134975970D01*
X33427151Y-134965480D01*
X33406107Y-134952867D01*
X33386402Y-134938253D01*
X33368223Y-134921777D01*
X33351747Y-134903598D01*
X33337133Y-134883893D01*
X33324520Y-134862849D01*
X33314030Y-134840671D01*
X33305765Y-134817571D01*
X33299804Y-134793773D01*
X33296204Y-134769504D01*
X33295000Y-134745000D01*
X33295000Y-133995000D01*
X33296204Y-133970496D01*
X33299804Y-133946227D01*
X33305765Y-133922429D01*
X33314030Y-133899329D01*
X33324520Y-133877151D01*
X33337133Y-133856107D01*
X33351747Y-133836402D01*
X33368223Y-133818223D01*
X33386402Y-133801747D01*
X33406107Y-133787133D01*
X33427151Y-133774520D01*
X33449329Y-133764030D01*
X33472429Y-133755765D01*
X33496227Y-133749804D01*
X33520496Y-133746204D01*
X33545000Y-133745000D01*
X34795000Y-133745000D01*
X34819504Y-133746204D01*
G37*
G04 #@! TD.AperFunction*
G04 #@! TA.AperFunction,SMDPad,CuDef*
G36*
X34819504Y-136546204D02*
G01*
X34843773Y-136549804D01*
X34867571Y-136555765D01*
X34890671Y-136564030D01*
X34912849Y-136574520D01*
X34933893Y-136587133D01*
X34953598Y-136601747D01*
X34971777Y-136618223D01*
X34988253Y-136636402D01*
X35002867Y-136656107D01*
X35015480Y-136677151D01*
X35025970Y-136699329D01*
X35034235Y-136722429D01*
X35040196Y-136746227D01*
X35043796Y-136770496D01*
X35045000Y-136795000D01*
X35045000Y-137545000D01*
X35043796Y-137569504D01*
X35040196Y-137593773D01*
X35034235Y-137617571D01*
X35025970Y-137640671D01*
X35015480Y-137662849D01*
X35002867Y-137683893D01*
X34988253Y-137703598D01*
X34971777Y-137721777D01*
X34953598Y-137738253D01*
X34933893Y-137752867D01*
X34912849Y-137765480D01*
X34890671Y-137775970D01*
X34867571Y-137784235D01*
X34843773Y-137790196D01*
X34819504Y-137793796D01*
X34795000Y-137795000D01*
X33545000Y-137795000D01*
X33520496Y-137793796D01*
X33496227Y-137790196D01*
X33472429Y-137784235D01*
X33449329Y-137775970D01*
X33427151Y-137765480D01*
X33406107Y-137752867D01*
X33386402Y-137738253D01*
X33368223Y-137721777D01*
X33351747Y-137703598D01*
X33337133Y-137683893D01*
X33324520Y-137662849D01*
X33314030Y-137640671D01*
X33305765Y-137617571D01*
X33299804Y-137593773D01*
X33296204Y-137569504D01*
X33295000Y-137545000D01*
X33295000Y-136795000D01*
X33296204Y-136770496D01*
X33299804Y-136746227D01*
X33305765Y-136722429D01*
X33314030Y-136699329D01*
X33324520Y-136677151D01*
X33337133Y-136656107D01*
X33351747Y-136636402D01*
X33368223Y-136618223D01*
X33386402Y-136601747D01*
X33406107Y-136587133D01*
X33427151Y-136574520D01*
X33449329Y-136564030D01*
X33472429Y-136555765D01*
X33496227Y-136549804D01*
X33520496Y-136546204D01*
X33545000Y-136545000D01*
X34795000Y-136545000D01*
X34819504Y-136546204D01*
G37*
G04 #@! TD.AperFunction*
G04 #@! TA.AperFunction,SMDPad,CuDef*
G36*
X78719504Y-136636204D02*
G01*
X78743773Y-136639804D01*
X78767571Y-136645765D01*
X78790671Y-136654030D01*
X78812849Y-136664520D01*
X78833893Y-136677133D01*
X78853598Y-136691747D01*
X78871777Y-136708223D01*
X78888253Y-136726402D01*
X78902867Y-136746107D01*
X78915480Y-136767151D01*
X78925970Y-136789329D01*
X78934235Y-136812429D01*
X78940196Y-136836227D01*
X78943796Y-136860496D01*
X78945000Y-136885000D01*
X78945000Y-137635000D01*
X78943796Y-137659504D01*
X78940196Y-137683773D01*
X78934235Y-137707571D01*
X78925970Y-137730671D01*
X78915480Y-137752849D01*
X78902867Y-137773893D01*
X78888253Y-137793598D01*
X78871777Y-137811777D01*
X78853598Y-137828253D01*
X78833893Y-137842867D01*
X78812849Y-137855480D01*
X78790671Y-137865970D01*
X78767571Y-137874235D01*
X78743773Y-137880196D01*
X78719504Y-137883796D01*
X78695000Y-137885000D01*
X77445000Y-137885000D01*
X77420496Y-137883796D01*
X77396227Y-137880196D01*
X77372429Y-137874235D01*
X77349329Y-137865970D01*
X77327151Y-137855480D01*
X77306107Y-137842867D01*
X77286402Y-137828253D01*
X77268223Y-137811777D01*
X77251747Y-137793598D01*
X77237133Y-137773893D01*
X77224520Y-137752849D01*
X77214030Y-137730671D01*
X77205765Y-137707571D01*
X77199804Y-137683773D01*
X77196204Y-137659504D01*
X77195000Y-137635000D01*
X77195000Y-136885000D01*
X77196204Y-136860496D01*
X77199804Y-136836227D01*
X77205765Y-136812429D01*
X77214030Y-136789329D01*
X77224520Y-136767151D01*
X77237133Y-136746107D01*
X77251747Y-136726402D01*
X77268223Y-136708223D01*
X77286402Y-136691747D01*
X77306107Y-136677133D01*
X77327151Y-136664520D01*
X77349329Y-136654030D01*
X77372429Y-136645765D01*
X77396227Y-136639804D01*
X77420496Y-136636204D01*
X77445000Y-136635000D01*
X78695000Y-136635000D01*
X78719504Y-136636204D01*
G37*
G04 #@! TD.AperFunction*
G04 #@! TA.AperFunction,SMDPad,CuDef*
G36*
X78719504Y-133836204D02*
G01*
X78743773Y-133839804D01*
X78767571Y-133845765D01*
X78790671Y-133854030D01*
X78812849Y-133864520D01*
X78833893Y-133877133D01*
X78853598Y-133891747D01*
X78871777Y-133908223D01*
X78888253Y-133926402D01*
X78902867Y-133946107D01*
X78915480Y-133967151D01*
X78925970Y-133989329D01*
X78934235Y-134012429D01*
X78940196Y-134036227D01*
X78943796Y-134060496D01*
X78945000Y-134085000D01*
X78945000Y-134835000D01*
X78943796Y-134859504D01*
X78940196Y-134883773D01*
X78934235Y-134907571D01*
X78925970Y-134930671D01*
X78915480Y-134952849D01*
X78902867Y-134973893D01*
X78888253Y-134993598D01*
X78871777Y-135011777D01*
X78853598Y-135028253D01*
X78833893Y-135042867D01*
X78812849Y-135055480D01*
X78790671Y-135065970D01*
X78767571Y-135074235D01*
X78743773Y-135080196D01*
X78719504Y-135083796D01*
X78695000Y-135085000D01*
X77445000Y-135085000D01*
X77420496Y-135083796D01*
X77396227Y-135080196D01*
X77372429Y-135074235D01*
X77349329Y-135065970D01*
X77327151Y-135055480D01*
X77306107Y-135042867D01*
X77286402Y-135028253D01*
X77268223Y-135011777D01*
X77251747Y-134993598D01*
X77237133Y-134973893D01*
X77224520Y-134952849D01*
X77214030Y-134930671D01*
X77205765Y-134907571D01*
X77199804Y-134883773D01*
X77196204Y-134859504D01*
X77195000Y-134835000D01*
X77195000Y-134085000D01*
X77196204Y-134060496D01*
X77199804Y-134036227D01*
X77205765Y-134012429D01*
X77214030Y-133989329D01*
X77224520Y-133967151D01*
X77237133Y-133946107D01*
X77251747Y-133926402D01*
X77268223Y-133908223D01*
X77286402Y-133891747D01*
X77306107Y-133877133D01*
X77327151Y-133864520D01*
X77349329Y-133854030D01*
X77372429Y-133845765D01*
X77396227Y-133839804D01*
X77420496Y-133836204D01*
X77445000Y-133835000D01*
X78695000Y-133835000D01*
X78719504Y-133836204D01*
G37*
G04 #@! TD.AperFunction*
G04 #@! TA.AperFunction,SMDPad,CuDef*
G36*
X122099504Y-133946204D02*
G01*
X122123773Y-133949804D01*
X122147571Y-133955765D01*
X122170671Y-133964030D01*
X122192849Y-133974520D01*
X122213893Y-133987133D01*
X122233598Y-134001747D01*
X122251777Y-134018223D01*
X122268253Y-134036402D01*
X122282867Y-134056107D01*
X122295480Y-134077151D01*
X122305970Y-134099329D01*
X122314235Y-134122429D01*
X122320196Y-134146227D01*
X122323796Y-134170496D01*
X122325000Y-134195000D01*
X122325000Y-134945000D01*
X122323796Y-134969504D01*
X122320196Y-134993773D01*
X122314235Y-135017571D01*
X122305970Y-135040671D01*
X122295480Y-135062849D01*
X122282867Y-135083893D01*
X122268253Y-135103598D01*
X122251777Y-135121777D01*
X122233598Y-135138253D01*
X122213893Y-135152867D01*
X122192849Y-135165480D01*
X122170671Y-135175970D01*
X122147571Y-135184235D01*
X122123773Y-135190196D01*
X122099504Y-135193796D01*
X122075000Y-135195000D01*
X120825000Y-135195000D01*
X120800496Y-135193796D01*
X120776227Y-135190196D01*
X120752429Y-135184235D01*
X120729329Y-135175970D01*
X120707151Y-135165480D01*
X120686107Y-135152867D01*
X120666402Y-135138253D01*
X120648223Y-135121777D01*
X120631747Y-135103598D01*
X120617133Y-135083893D01*
X120604520Y-135062849D01*
X120594030Y-135040671D01*
X120585765Y-135017571D01*
X120579804Y-134993773D01*
X120576204Y-134969504D01*
X120575000Y-134945000D01*
X120575000Y-134195000D01*
X120576204Y-134170496D01*
X120579804Y-134146227D01*
X120585765Y-134122429D01*
X120594030Y-134099329D01*
X120604520Y-134077151D01*
X120617133Y-134056107D01*
X120631747Y-134036402D01*
X120648223Y-134018223D01*
X120666402Y-134001747D01*
X120686107Y-133987133D01*
X120707151Y-133974520D01*
X120729329Y-133964030D01*
X120752429Y-133955765D01*
X120776227Y-133949804D01*
X120800496Y-133946204D01*
X120825000Y-133945000D01*
X122075000Y-133945000D01*
X122099504Y-133946204D01*
G37*
G04 #@! TD.AperFunction*
G04 #@! TA.AperFunction,SMDPad,CuDef*
G36*
X122099504Y-136746204D02*
G01*
X122123773Y-136749804D01*
X122147571Y-136755765D01*
X122170671Y-136764030D01*
X122192849Y-136774520D01*
X122213893Y-136787133D01*
X122233598Y-136801747D01*
X122251777Y-136818223D01*
X122268253Y-136836402D01*
X122282867Y-136856107D01*
X122295480Y-136877151D01*
X122305970Y-136899329D01*
X122314235Y-136922429D01*
X122320196Y-136946227D01*
X122323796Y-136970496D01*
X122325000Y-136995000D01*
X122325000Y-137745000D01*
X122323796Y-137769504D01*
X122320196Y-137793773D01*
X122314235Y-137817571D01*
X122305970Y-137840671D01*
X122295480Y-137862849D01*
X122282867Y-137883893D01*
X122268253Y-137903598D01*
X122251777Y-137921777D01*
X122233598Y-137938253D01*
X122213893Y-137952867D01*
X122192849Y-137965480D01*
X122170671Y-137975970D01*
X122147571Y-137984235D01*
X122123773Y-137990196D01*
X122099504Y-137993796D01*
X122075000Y-137995000D01*
X120825000Y-137995000D01*
X120800496Y-137993796D01*
X120776227Y-137990196D01*
X120752429Y-137984235D01*
X120729329Y-137975970D01*
X120707151Y-137965480D01*
X120686107Y-137952867D01*
X120666402Y-137938253D01*
X120648223Y-137921777D01*
X120631747Y-137903598D01*
X120617133Y-137883893D01*
X120604520Y-137862849D01*
X120594030Y-137840671D01*
X120585765Y-137817571D01*
X120579804Y-137793773D01*
X120576204Y-137769504D01*
X120575000Y-137745000D01*
X120575000Y-136995000D01*
X120576204Y-136970496D01*
X120579804Y-136946227D01*
X120585765Y-136922429D01*
X120594030Y-136899329D01*
X120604520Y-136877151D01*
X120617133Y-136856107D01*
X120631747Y-136836402D01*
X120648223Y-136818223D01*
X120666402Y-136801747D01*
X120686107Y-136787133D01*
X120707151Y-136774520D01*
X120729329Y-136764030D01*
X120752429Y-136755765D01*
X120776227Y-136749804D01*
X120800496Y-136746204D01*
X120825000Y-136745000D01*
X122075000Y-136745000D01*
X122099504Y-136746204D01*
G37*
G04 #@! TD.AperFunction*
G04 #@! TA.AperFunction,SMDPad,CuDef*
G36*
X253319504Y-136846204D02*
G01*
X253343773Y-136849804D01*
X253367571Y-136855765D01*
X253390671Y-136864030D01*
X253412849Y-136874520D01*
X253433893Y-136887133D01*
X253453598Y-136901747D01*
X253471777Y-136918223D01*
X253488253Y-136936402D01*
X253502867Y-136956107D01*
X253515480Y-136977151D01*
X253525970Y-136999329D01*
X253534235Y-137022429D01*
X253540196Y-137046227D01*
X253543796Y-137070496D01*
X253545000Y-137095000D01*
X253545000Y-137845000D01*
X253543796Y-137869504D01*
X253540196Y-137893773D01*
X253534235Y-137917571D01*
X253525970Y-137940671D01*
X253515480Y-137962849D01*
X253502867Y-137983893D01*
X253488253Y-138003598D01*
X253471777Y-138021777D01*
X253453598Y-138038253D01*
X253433893Y-138052867D01*
X253412849Y-138065480D01*
X253390671Y-138075970D01*
X253367571Y-138084235D01*
X253343773Y-138090196D01*
X253319504Y-138093796D01*
X253295000Y-138095000D01*
X252045000Y-138095000D01*
X252020496Y-138093796D01*
X251996227Y-138090196D01*
X251972429Y-138084235D01*
X251949329Y-138075970D01*
X251927151Y-138065480D01*
X251906107Y-138052867D01*
X251886402Y-138038253D01*
X251868223Y-138021777D01*
X251851747Y-138003598D01*
X251837133Y-137983893D01*
X251824520Y-137962849D01*
X251814030Y-137940671D01*
X251805765Y-137917571D01*
X251799804Y-137893773D01*
X251796204Y-137869504D01*
X251795000Y-137845000D01*
X251795000Y-137095000D01*
X251796204Y-137070496D01*
X251799804Y-137046227D01*
X251805765Y-137022429D01*
X251814030Y-136999329D01*
X251824520Y-136977151D01*
X251837133Y-136956107D01*
X251851747Y-136936402D01*
X251868223Y-136918223D01*
X251886402Y-136901747D01*
X251906107Y-136887133D01*
X251927151Y-136874520D01*
X251949329Y-136864030D01*
X251972429Y-136855765D01*
X251996227Y-136849804D01*
X252020496Y-136846204D01*
X252045000Y-136845000D01*
X253295000Y-136845000D01*
X253319504Y-136846204D01*
G37*
G04 #@! TD.AperFunction*
G04 #@! TA.AperFunction,SMDPad,CuDef*
G36*
X253319504Y-134046204D02*
G01*
X253343773Y-134049804D01*
X253367571Y-134055765D01*
X253390671Y-134064030D01*
X253412849Y-134074520D01*
X253433893Y-134087133D01*
X253453598Y-134101747D01*
X253471777Y-134118223D01*
X253488253Y-134136402D01*
X253502867Y-134156107D01*
X253515480Y-134177151D01*
X253525970Y-134199329D01*
X253534235Y-134222429D01*
X253540196Y-134246227D01*
X253543796Y-134270496D01*
X253545000Y-134295000D01*
X253545000Y-135045000D01*
X253543796Y-135069504D01*
X253540196Y-135093773D01*
X253534235Y-135117571D01*
X253525970Y-135140671D01*
X253515480Y-135162849D01*
X253502867Y-135183893D01*
X253488253Y-135203598D01*
X253471777Y-135221777D01*
X253453598Y-135238253D01*
X253433893Y-135252867D01*
X253412849Y-135265480D01*
X253390671Y-135275970D01*
X253367571Y-135284235D01*
X253343773Y-135290196D01*
X253319504Y-135293796D01*
X253295000Y-135295000D01*
X252045000Y-135295000D01*
X252020496Y-135293796D01*
X251996227Y-135290196D01*
X251972429Y-135284235D01*
X251949329Y-135275970D01*
X251927151Y-135265480D01*
X251906107Y-135252867D01*
X251886402Y-135238253D01*
X251868223Y-135221777D01*
X251851747Y-135203598D01*
X251837133Y-135183893D01*
X251824520Y-135162849D01*
X251814030Y-135140671D01*
X251805765Y-135117571D01*
X251799804Y-135093773D01*
X251796204Y-135069504D01*
X251795000Y-135045000D01*
X251795000Y-134295000D01*
X251796204Y-134270496D01*
X251799804Y-134246227D01*
X251805765Y-134222429D01*
X251814030Y-134199329D01*
X251824520Y-134177151D01*
X251837133Y-134156107D01*
X251851747Y-134136402D01*
X251868223Y-134118223D01*
X251886402Y-134101747D01*
X251906107Y-134087133D01*
X251927151Y-134074520D01*
X251949329Y-134064030D01*
X251972429Y-134055765D01*
X251996227Y-134049804D01*
X252020496Y-134046204D01*
X252045000Y-134045000D01*
X253295000Y-134045000D01*
X253319504Y-134046204D01*
G37*
G04 #@! TD.AperFunction*
G04 #@! TA.AperFunction,SMDPad,CuDef*
G36*
X297569504Y-133866204D02*
G01*
X297593773Y-133869804D01*
X297617571Y-133875765D01*
X297640671Y-133884030D01*
X297662849Y-133894520D01*
X297683893Y-133907133D01*
X297703598Y-133921747D01*
X297721777Y-133938223D01*
X297738253Y-133956402D01*
X297752867Y-133976107D01*
X297765480Y-133997151D01*
X297775970Y-134019329D01*
X297784235Y-134042429D01*
X297790196Y-134066227D01*
X297793796Y-134090496D01*
X297795000Y-134115000D01*
X297795000Y-134865000D01*
X297793796Y-134889504D01*
X297790196Y-134913773D01*
X297784235Y-134937571D01*
X297775970Y-134960671D01*
X297765480Y-134982849D01*
X297752867Y-135003893D01*
X297738253Y-135023598D01*
X297721777Y-135041777D01*
X297703598Y-135058253D01*
X297683893Y-135072867D01*
X297662849Y-135085480D01*
X297640671Y-135095970D01*
X297617571Y-135104235D01*
X297593773Y-135110196D01*
X297569504Y-135113796D01*
X297545000Y-135115000D01*
X296295000Y-135115000D01*
X296270496Y-135113796D01*
X296246227Y-135110196D01*
X296222429Y-135104235D01*
X296199329Y-135095970D01*
X296177151Y-135085480D01*
X296156107Y-135072867D01*
X296136402Y-135058253D01*
X296118223Y-135041777D01*
X296101747Y-135023598D01*
X296087133Y-135003893D01*
X296074520Y-134982849D01*
X296064030Y-134960671D01*
X296055765Y-134937571D01*
X296049804Y-134913773D01*
X296046204Y-134889504D01*
X296045000Y-134865000D01*
X296045000Y-134115000D01*
X296046204Y-134090496D01*
X296049804Y-134066227D01*
X296055765Y-134042429D01*
X296064030Y-134019329D01*
X296074520Y-133997151D01*
X296087133Y-133976107D01*
X296101747Y-133956402D01*
X296118223Y-133938223D01*
X296136402Y-133921747D01*
X296156107Y-133907133D01*
X296177151Y-133894520D01*
X296199329Y-133884030D01*
X296222429Y-133875765D01*
X296246227Y-133869804D01*
X296270496Y-133866204D01*
X296295000Y-133865000D01*
X297545000Y-133865000D01*
X297569504Y-133866204D01*
G37*
G04 #@! TD.AperFunction*
G04 #@! TA.AperFunction,SMDPad,CuDef*
G36*
X297569504Y-136666204D02*
G01*
X297593773Y-136669804D01*
X297617571Y-136675765D01*
X297640671Y-136684030D01*
X297662849Y-136694520D01*
X297683893Y-136707133D01*
X297703598Y-136721747D01*
X297721777Y-136738223D01*
X297738253Y-136756402D01*
X297752867Y-136776107D01*
X297765480Y-136797151D01*
X297775970Y-136819329D01*
X297784235Y-136842429D01*
X297790196Y-136866227D01*
X297793796Y-136890496D01*
X297795000Y-136915000D01*
X297795000Y-137665000D01*
X297793796Y-137689504D01*
X297790196Y-137713773D01*
X297784235Y-137737571D01*
X297775970Y-137760671D01*
X297765480Y-137782849D01*
X297752867Y-137803893D01*
X297738253Y-137823598D01*
X297721777Y-137841777D01*
X297703598Y-137858253D01*
X297683893Y-137872867D01*
X297662849Y-137885480D01*
X297640671Y-137895970D01*
X297617571Y-137904235D01*
X297593773Y-137910196D01*
X297569504Y-137913796D01*
X297545000Y-137915000D01*
X296295000Y-137915000D01*
X296270496Y-137913796D01*
X296246227Y-137910196D01*
X296222429Y-137904235D01*
X296199329Y-137895970D01*
X296177151Y-137885480D01*
X296156107Y-137872867D01*
X296136402Y-137858253D01*
X296118223Y-137841777D01*
X296101747Y-137823598D01*
X296087133Y-137803893D01*
X296074520Y-137782849D01*
X296064030Y-137760671D01*
X296055765Y-137737571D01*
X296049804Y-137713773D01*
X296046204Y-137689504D01*
X296045000Y-137665000D01*
X296045000Y-136915000D01*
X296046204Y-136890496D01*
X296049804Y-136866227D01*
X296055765Y-136842429D01*
X296064030Y-136819329D01*
X296074520Y-136797151D01*
X296087133Y-136776107D01*
X296101747Y-136756402D01*
X296118223Y-136738223D01*
X296136402Y-136721747D01*
X296156107Y-136707133D01*
X296177151Y-136694520D01*
X296199329Y-136684030D01*
X296222429Y-136675765D01*
X296246227Y-136669804D01*
X296270496Y-136666204D01*
X296295000Y-136665000D01*
X297545000Y-136665000D01*
X297569504Y-136666204D01*
G37*
G04 #@! TD.AperFunction*
G04 #@! TA.AperFunction,SMDPad,CuDef*
G36*
X209509504Y-133856204D02*
G01*
X209533773Y-133859804D01*
X209557571Y-133865765D01*
X209580671Y-133874030D01*
X209602849Y-133884520D01*
X209623893Y-133897133D01*
X209643598Y-133911747D01*
X209661777Y-133928223D01*
X209678253Y-133946402D01*
X209692867Y-133966107D01*
X209705480Y-133987151D01*
X209715970Y-134009329D01*
X209724235Y-134032429D01*
X209730196Y-134056227D01*
X209733796Y-134080496D01*
X209735000Y-134105000D01*
X209735000Y-134855000D01*
X209733796Y-134879504D01*
X209730196Y-134903773D01*
X209724235Y-134927571D01*
X209715970Y-134950671D01*
X209705480Y-134972849D01*
X209692867Y-134993893D01*
X209678253Y-135013598D01*
X209661777Y-135031777D01*
X209643598Y-135048253D01*
X209623893Y-135062867D01*
X209602849Y-135075480D01*
X209580671Y-135085970D01*
X209557571Y-135094235D01*
X209533773Y-135100196D01*
X209509504Y-135103796D01*
X209485000Y-135105000D01*
X208235000Y-135105000D01*
X208210496Y-135103796D01*
X208186227Y-135100196D01*
X208162429Y-135094235D01*
X208139329Y-135085970D01*
X208117151Y-135075480D01*
X208096107Y-135062867D01*
X208076402Y-135048253D01*
X208058223Y-135031777D01*
X208041747Y-135013598D01*
X208027133Y-134993893D01*
X208014520Y-134972849D01*
X208004030Y-134950671D01*
X207995765Y-134927571D01*
X207989804Y-134903773D01*
X207986204Y-134879504D01*
X207985000Y-134855000D01*
X207985000Y-134105000D01*
X207986204Y-134080496D01*
X207989804Y-134056227D01*
X207995765Y-134032429D01*
X208004030Y-134009329D01*
X208014520Y-133987151D01*
X208027133Y-133966107D01*
X208041747Y-133946402D01*
X208058223Y-133928223D01*
X208076402Y-133911747D01*
X208096107Y-133897133D01*
X208117151Y-133884520D01*
X208139329Y-133874030D01*
X208162429Y-133865765D01*
X208186227Y-133859804D01*
X208210496Y-133856204D01*
X208235000Y-133855000D01*
X209485000Y-133855000D01*
X209509504Y-133856204D01*
G37*
G04 #@! TD.AperFunction*
G04 #@! TA.AperFunction,SMDPad,CuDef*
G36*
X209509504Y-136656204D02*
G01*
X209533773Y-136659804D01*
X209557571Y-136665765D01*
X209580671Y-136674030D01*
X209602849Y-136684520D01*
X209623893Y-136697133D01*
X209643598Y-136711747D01*
X209661777Y-136728223D01*
X209678253Y-136746402D01*
X209692867Y-136766107D01*
X209705480Y-136787151D01*
X209715970Y-136809329D01*
X209724235Y-136832429D01*
X209730196Y-136856227D01*
X209733796Y-136880496D01*
X209735000Y-136905000D01*
X209735000Y-137655000D01*
X209733796Y-137679504D01*
X209730196Y-137703773D01*
X209724235Y-137727571D01*
X209715970Y-137750671D01*
X209705480Y-137772849D01*
X209692867Y-137793893D01*
X209678253Y-137813598D01*
X209661777Y-137831777D01*
X209643598Y-137848253D01*
X209623893Y-137862867D01*
X209602849Y-137875480D01*
X209580671Y-137885970D01*
X209557571Y-137894235D01*
X209533773Y-137900196D01*
X209509504Y-137903796D01*
X209485000Y-137905000D01*
X208235000Y-137905000D01*
X208210496Y-137903796D01*
X208186227Y-137900196D01*
X208162429Y-137894235D01*
X208139329Y-137885970D01*
X208117151Y-137875480D01*
X208096107Y-137862867D01*
X208076402Y-137848253D01*
X208058223Y-137831777D01*
X208041747Y-137813598D01*
X208027133Y-137793893D01*
X208014520Y-137772849D01*
X208004030Y-137750671D01*
X207995765Y-137727571D01*
X207989804Y-137703773D01*
X207986204Y-137679504D01*
X207985000Y-137655000D01*
X207985000Y-136905000D01*
X207986204Y-136880496D01*
X207989804Y-136856227D01*
X207995765Y-136832429D01*
X208004030Y-136809329D01*
X208014520Y-136787151D01*
X208027133Y-136766107D01*
X208041747Y-136746402D01*
X208058223Y-136728223D01*
X208076402Y-136711747D01*
X208096107Y-136697133D01*
X208117151Y-136684520D01*
X208139329Y-136674030D01*
X208162429Y-136665765D01*
X208186227Y-136659804D01*
X208210496Y-136656204D01*
X208235000Y-136655000D01*
X209485000Y-136655000D01*
X209509504Y-136656204D01*
G37*
G04 #@! TD.AperFunction*
G04 #@! TA.AperFunction,SMDPad,CuDef*
G36*
X165849504Y-136576204D02*
G01*
X165873773Y-136579804D01*
X165897571Y-136585765D01*
X165920671Y-136594030D01*
X165942849Y-136604520D01*
X165963893Y-136617133D01*
X165983598Y-136631747D01*
X166001777Y-136648223D01*
X166018253Y-136666402D01*
X166032867Y-136686107D01*
X166045480Y-136707151D01*
X166055970Y-136729329D01*
X166064235Y-136752429D01*
X166070196Y-136776227D01*
X166073796Y-136800496D01*
X166075000Y-136825000D01*
X166075000Y-137575000D01*
X166073796Y-137599504D01*
X166070196Y-137623773D01*
X166064235Y-137647571D01*
X166055970Y-137670671D01*
X166045480Y-137692849D01*
X166032867Y-137713893D01*
X166018253Y-137733598D01*
X166001777Y-137751777D01*
X165983598Y-137768253D01*
X165963893Y-137782867D01*
X165942849Y-137795480D01*
X165920671Y-137805970D01*
X165897571Y-137814235D01*
X165873773Y-137820196D01*
X165849504Y-137823796D01*
X165825000Y-137825000D01*
X164575000Y-137825000D01*
X164550496Y-137823796D01*
X164526227Y-137820196D01*
X164502429Y-137814235D01*
X164479329Y-137805970D01*
X164457151Y-137795480D01*
X164436107Y-137782867D01*
X164416402Y-137768253D01*
X164398223Y-137751777D01*
X164381747Y-137733598D01*
X164367133Y-137713893D01*
X164354520Y-137692849D01*
X164344030Y-137670671D01*
X164335765Y-137647571D01*
X164329804Y-137623773D01*
X164326204Y-137599504D01*
X164325000Y-137575000D01*
X164325000Y-136825000D01*
X164326204Y-136800496D01*
X164329804Y-136776227D01*
X164335765Y-136752429D01*
X164344030Y-136729329D01*
X164354520Y-136707151D01*
X164367133Y-136686107D01*
X164381747Y-136666402D01*
X164398223Y-136648223D01*
X164416402Y-136631747D01*
X164436107Y-136617133D01*
X164457151Y-136604520D01*
X164479329Y-136594030D01*
X164502429Y-136585765D01*
X164526227Y-136579804D01*
X164550496Y-136576204D01*
X164575000Y-136575000D01*
X165825000Y-136575000D01*
X165849504Y-136576204D01*
G37*
G04 #@! TD.AperFunction*
G04 #@! TA.AperFunction,SMDPad,CuDef*
G36*
X165849504Y-133776204D02*
G01*
X165873773Y-133779804D01*
X165897571Y-133785765D01*
X165920671Y-133794030D01*
X165942849Y-133804520D01*
X165963893Y-133817133D01*
X165983598Y-133831747D01*
X166001777Y-133848223D01*
X166018253Y-133866402D01*
X166032867Y-133886107D01*
X166045480Y-133907151D01*
X166055970Y-133929329D01*
X166064235Y-133952429D01*
X166070196Y-133976227D01*
X166073796Y-134000496D01*
X166075000Y-134025000D01*
X166075000Y-134775000D01*
X166073796Y-134799504D01*
X166070196Y-134823773D01*
X166064235Y-134847571D01*
X166055970Y-134870671D01*
X166045480Y-134892849D01*
X166032867Y-134913893D01*
X166018253Y-134933598D01*
X166001777Y-134951777D01*
X165983598Y-134968253D01*
X165963893Y-134982867D01*
X165942849Y-134995480D01*
X165920671Y-135005970D01*
X165897571Y-135014235D01*
X165873773Y-135020196D01*
X165849504Y-135023796D01*
X165825000Y-135025000D01*
X164575000Y-135025000D01*
X164550496Y-135023796D01*
X164526227Y-135020196D01*
X164502429Y-135014235D01*
X164479329Y-135005970D01*
X164457151Y-134995480D01*
X164436107Y-134982867D01*
X164416402Y-134968253D01*
X164398223Y-134951777D01*
X164381747Y-134933598D01*
X164367133Y-134913893D01*
X164354520Y-134892849D01*
X164344030Y-134870671D01*
X164335765Y-134847571D01*
X164329804Y-134823773D01*
X164326204Y-134799504D01*
X164325000Y-134775000D01*
X164325000Y-134025000D01*
X164326204Y-134000496D01*
X164329804Y-133976227D01*
X164335765Y-133952429D01*
X164344030Y-133929329D01*
X164354520Y-133907151D01*
X164367133Y-133886107D01*
X164381747Y-133866402D01*
X164398223Y-133848223D01*
X164416402Y-133831747D01*
X164436107Y-133817133D01*
X164457151Y-133804520D01*
X164479329Y-133794030D01*
X164502429Y-133785765D01*
X164526227Y-133779804D01*
X164550496Y-133776204D01*
X164575000Y-133775000D01*
X165825000Y-133775000D01*
X165849504Y-133776204D01*
G37*
G04 #@! TD.AperFunction*
D21*
X300046662Y-129857500D03*
X287261300Y-136486900D03*
X241300000Y-136652000D03*
X255892300Y-129895600D03*
X211759800Y-129555800D03*
X199580500Y-136372600D03*
X155054300Y-136575800D03*
X167932100Y-129311400D03*
X124460000Y-129463800D03*
X111912400Y-136448800D03*
X67398900Y-136448800D03*
X81038700Y-129603500D03*
X36830000Y-129133600D03*
X24180800Y-133781800D03*
X-15214600Y-130378200D03*
X-1930400Y-129057400D03*
X19405600Y-134874000D03*
X13487400Y-134924800D03*
X7569200Y-133527800D03*
X106817733Y-134940600D03*
X32893000Y-125907800D03*
X-6350000Y-124180600D03*
X270738600Y-135496300D03*
X282295600Y-135559800D03*
X188544200Y-134861300D03*
X92430600Y-130416300D03*
X276428200Y-135521700D03*
X101229450Y-134915200D03*
X194551300Y-134924800D03*
X182460900Y-132588000D03*
X158820000Y-129810000D03*
X71020000Y-129680000D03*
X-11580000Y-131090000D03*
X245490000Y-130350000D03*
X22818362Y-131343400D03*
X115440000Y-130180000D03*
X205040000Y-130590000D03*
X291980000Y-130570000D03*
X9017000Y-137261600D03*
X23761700Y-140169900D03*
X96939100Y-139522200D03*
X111912400Y-140157200D03*
X184099200Y-139928600D03*
X199351900Y-140131800D03*
X272275300Y-139776200D03*
X77343000Y-125577600D03*
X120396000Y-126047500D03*
X163931600Y-126403100D03*
X207225900Y-126085600D03*
X251409200Y-126580900D03*
X295490900Y-126377700D03*
D22*
X303631600Y-126141800D02*
X303631600Y-125798400D01*
X301493200Y-128280200D02*
X303631600Y-126141800D01*
X301193200Y-128280200D02*
X301493200Y-128280200D01*
D23*
X292874700Y-128363900D02*
X294370800Y-129860000D01*
X296122000Y-129860000D02*
X297030000Y-129860000D01*
X294370800Y-129860000D02*
X296122000Y-129860000D01*
X292874700Y-125950900D02*
X292874700Y-128363900D01*
D22*
X303631600Y-128852400D02*
X303484000Y-129000000D01*
X303631600Y-127998400D02*
X303631600Y-128852400D01*
X297030000Y-129156000D02*
X297030000Y-129860000D01*
X297186000Y-129000000D02*
X297030000Y-129156000D01*
X303484000Y-129000000D02*
X297186000Y-129000000D01*
D23*
X248716800Y-128478200D02*
X248716800Y-126065200D01*
X250588600Y-130350000D02*
X248716800Y-128478200D01*
X253080000Y-130350000D02*
X250588600Y-130350000D01*
D22*
X258857601Y-129168599D02*
X259029200Y-128997000D01*
X253080000Y-129646000D02*
X253557401Y-129168599D01*
X259029200Y-128997000D02*
X259029200Y-128143000D01*
X253557401Y-129168599D02*
X258857601Y-129168599D01*
X253080000Y-130350000D02*
X253080000Y-129646000D01*
X258175200Y-125943000D02*
X259029200Y-125943000D01*
X258025001Y-126093199D02*
X258175200Y-125943000D01*
X258025001Y-127704799D02*
X258025001Y-126093199D01*
X257348000Y-128381800D02*
X258025001Y-127704799D01*
X257048000Y-128381800D02*
X257348000Y-128381800D01*
X213857600Y-126621600D02*
X214960200Y-125519000D01*
X213253600Y-127950000D02*
X213857600Y-127346000D01*
X213857600Y-127346000D02*
X213857600Y-126621600D01*
X212953600Y-127950000D02*
X213253600Y-127950000D01*
X205549000Y-125989000D02*
X208388800Y-128828800D01*
X204470000Y-125989000D02*
X205549000Y-125989000D01*
X214704400Y-128828800D02*
X214960200Y-128573000D01*
X214960200Y-128573000D02*
X214960200Y-127719000D01*
X208388800Y-128828800D02*
X214704400Y-128828800D01*
D23*
X204952600Y-128358900D02*
X204952600Y-125945900D01*
X206843700Y-130250000D02*
X204952600Y-128358900D01*
X208710000Y-130250000D02*
X206843700Y-130250000D01*
D22*
X170773800Y-125823800D02*
X171627800Y-125823800D01*
X170649001Y-125948599D02*
X170773800Y-125823800D01*
X170649001Y-127603199D02*
X170649001Y-125948599D01*
X169972000Y-128280200D02*
X170649001Y-127603199D01*
X169672000Y-128280200D02*
X169972000Y-128280200D01*
X168281061Y-128584399D02*
X166417601Y-128584399D01*
X168653863Y-128957201D02*
X168281061Y-128584399D01*
X171548399Y-128957201D02*
X168653863Y-128957201D01*
X171627800Y-128877800D02*
X171548399Y-128957201D01*
X171627800Y-128023800D02*
X171627800Y-128877800D01*
D23*
X162932300Y-129930000D02*
X161112200Y-128109900D01*
X161112200Y-128109900D02*
X161112200Y-125696900D01*
X164940000Y-129930000D02*
X162932300Y-129930000D01*
X165327601Y-128584399D02*
X166417601Y-128584399D01*
X164940000Y-128972000D02*
X165327601Y-128584399D01*
X164940000Y-129930000D02*
X164940000Y-128972000D01*
D22*
X127928401Y-128736799D02*
X122348601Y-128736799D01*
X128117600Y-128547600D02*
X127928401Y-128736799D01*
X128117600Y-127693600D02*
X128117600Y-128547600D01*
D23*
X117665500Y-127792400D02*
X117665500Y-125379400D01*
X119763100Y-129890000D02*
X117665500Y-127792400D01*
X121330000Y-129890000D02*
X119763100Y-129890000D01*
X122238000Y-129890000D02*
X121330000Y-129890000D01*
X122348601Y-129779399D02*
X122238000Y-129890000D01*
X122348601Y-128736799D02*
X122348601Y-129779399D01*
D22*
X127589100Y-126022100D02*
X128117600Y-125493600D01*
X127584200Y-126022100D02*
X127589100Y-126022100D01*
X127113401Y-126492899D02*
X127584200Y-126022100D01*
X127113401Y-127257799D02*
X127113401Y-126492899D01*
X126436400Y-127934800D02*
X127113401Y-127257799D01*
X126136400Y-127934800D02*
X126436400Y-127934800D01*
X83196903Y-128876499D02*
X78774901Y-128876499D01*
X84684602Y-127388800D02*
X83196903Y-128876499D01*
X84785200Y-127388800D02*
X84684602Y-127388800D01*
D23*
X74523600Y-127101600D02*
X74523600Y-125468300D01*
X77152000Y-129730000D02*
X74523600Y-127101600D01*
X78060000Y-129730000D02*
X77152000Y-129730000D01*
X78774901Y-129015099D02*
X78060000Y-129730000D01*
X78774901Y-128876499D02*
X78774901Y-129015099D01*
D22*
X84785200Y-125699600D02*
X84785200Y-125188800D01*
X83758800Y-127026000D02*
X83758800Y-126726000D01*
X83758800Y-126726000D02*
X84785200Y-125699600D01*
X83154800Y-127630000D02*
X83758800Y-127026000D01*
X82854800Y-127630000D02*
X83154800Y-127630000D01*
X30226000Y-125912800D02*
X31305000Y-125912800D01*
X40614600Y-128471400D02*
X40614600Y-127617400D01*
X40104800Y-128981200D02*
X40614600Y-128471400D01*
X37426900Y-128168400D02*
X38239700Y-128981200D01*
X33560600Y-128168400D02*
X37426900Y-128168400D01*
X31305000Y-125912800D02*
X33560600Y-128168400D01*
X38239700Y-128981200D02*
X40104800Y-128981200D01*
D23*
X30276800Y-127647700D02*
X30276800Y-125234700D01*
X32859100Y-130230000D02*
X30276800Y-127647700D01*
X34150000Y-130230000D02*
X32859100Y-130230000D01*
D22*
X40614600Y-125867200D02*
X40614600Y-125417400D01*
X39512000Y-127269800D02*
X39512000Y-126969800D01*
X39512000Y-126969800D02*
X40614600Y-125867200D01*
X38908000Y-127873800D02*
X39512000Y-127269800D01*
X38608000Y-127873800D02*
X38908000Y-127873800D01*
X-4099800Y-126791600D02*
X-2997200Y-125689000D01*
X-4099800Y-127523800D02*
X-4099800Y-126791600D01*
X-4703800Y-128127800D02*
X-4099800Y-127523800D01*
X-5003800Y-128127800D02*
X-4703800Y-128127800D01*
X-12306800Y-126090600D02*
X-13385800Y-126090600D01*
X-9592599Y-128804801D02*
X-12306800Y-126090600D01*
X-2997200Y-128743000D02*
X-3059001Y-128804801D01*
X-3059001Y-128804801D02*
X-9592599Y-128804801D01*
X-2997200Y-127889000D02*
X-2997200Y-128743000D01*
D23*
X-9630000Y-130260000D02*
X-10850000Y-130260000D01*
X-10850000Y-130260000D02*
X-13170000Y-127940000D01*
X-13238200Y-127940000D02*
X-13271500Y-127906700D01*
X-13271500Y-127906700D02*
X-13271500Y-125493700D01*
X-13170000Y-127940000D02*
X-13238200Y-127940000D01*
D22*
X300046662Y-129891662D02*
X300046662Y-129857500D01*
X301781000Y-131626000D02*
X300046662Y-129891662D01*
X302641000Y-131626000D02*
X301781000Y-131626000D01*
X302260000Y-136525000D02*
X302641000Y-136906000D01*
X287299400Y-136525000D02*
X287261300Y-136486900D01*
X290601400Y-136525000D02*
X287299400Y-136525000D01*
D23*
X293609400Y-136525000D02*
X294484400Y-137400000D01*
X290601400Y-136525000D02*
X293609400Y-136525000D01*
X294594400Y-137290000D02*
X296920000Y-137290000D01*
X294484400Y-137400000D02*
X294594400Y-137290000D01*
X302257000Y-137290000D02*
X302641000Y-136906000D01*
X296920000Y-137290000D02*
X302257000Y-137290000D01*
D22*
X246761000Y-136652000D02*
X246913400Y-136499600D01*
X241300000Y-136652000D02*
X246761000Y-136652000D01*
D23*
X249921400Y-136499600D02*
X250970000Y-137548200D01*
X246913400Y-136499600D02*
X249921400Y-136499600D01*
X251048200Y-137470000D02*
X252670000Y-137470000D01*
X250970000Y-137548200D02*
X251048200Y-137470000D01*
X257144400Y-137470000D02*
X258064000Y-136550400D01*
X252670000Y-137470000D02*
X257144400Y-137470000D01*
D22*
X257635400Y-131270400D02*
X258064000Y-131270400D01*
X258064000Y-131270400D02*
X257292500Y-131270400D01*
X255917700Y-129895600D02*
X255892300Y-129895600D01*
X257292500Y-131270400D02*
X255917700Y-129895600D01*
X214096600Y-129770800D02*
X214096600Y-130914800D01*
X213881600Y-129555800D02*
X214096600Y-129770800D01*
X211759800Y-129555800D02*
X213881600Y-129555800D01*
X203073000Y-136372600D02*
X203200000Y-136499600D01*
X199580500Y-136372600D02*
X203073000Y-136372600D01*
D23*
X203200000Y-136499600D02*
X206208000Y-136499600D01*
X206988400Y-137280000D02*
X208860000Y-137280000D01*
X206208000Y-136499600D02*
X206988400Y-137280000D01*
X213426600Y-137280000D02*
X214096600Y-136610000D01*
X208860000Y-137280000D02*
X213426600Y-137280000D01*
D22*
X159435800Y-136575800D02*
X159537400Y-136474200D01*
X155054300Y-136575800D02*
X159435800Y-136575800D01*
D23*
X162545400Y-136474200D02*
X163290000Y-137218800D01*
X159537400Y-136474200D02*
X162545400Y-136474200D01*
X163308800Y-137200000D02*
X165200000Y-137200000D01*
X163290000Y-137218800D02*
X163308800Y-137200000D01*
X169535400Y-137200000D02*
X170205400Y-136530000D01*
X165200000Y-137200000D02*
X169535400Y-137200000D01*
D22*
X169713300Y-131092600D02*
X170205400Y-131092600D01*
X167932100Y-129311400D02*
X169713300Y-131092600D01*
X126644400Y-130762400D02*
X125733200Y-130762400D01*
X124460000Y-129489200D02*
X124460000Y-129463800D01*
X125733200Y-130762400D02*
X124460000Y-129489200D01*
X111937800Y-136474200D02*
X111912400Y-136448800D01*
X115849400Y-136474200D02*
X111937800Y-136474200D01*
D23*
X115849400Y-136474200D02*
X116985200Y-137610000D01*
X117225200Y-137370000D02*
X121450000Y-137370000D01*
X116985200Y-137610000D02*
X117225200Y-137370000D01*
X125974400Y-137370000D02*
X126644400Y-136700000D01*
X121450000Y-137370000D02*
X125974400Y-137370000D01*
D22*
X72110600Y-136448800D02*
X72161400Y-136398000D01*
X67398900Y-136448800D02*
X72110600Y-136448800D01*
D23*
X72161400Y-136398000D02*
X73778000Y-136398000D01*
X74640000Y-137260000D02*
X78070000Y-137260000D01*
X73778000Y-136398000D02*
X74640000Y-137260000D01*
X82819800Y-137260000D02*
X83489800Y-136590000D01*
X78070000Y-137260000D02*
X82819800Y-137260000D01*
X81783300Y-129603500D02*
X83489800Y-131310000D01*
X81038700Y-129603500D02*
X81783300Y-129603500D01*
D22*
X36855800Y-129133600D02*
X36830000Y-129133600D01*
X38433800Y-130711600D02*
X36855800Y-129133600D01*
X39293800Y-130711600D02*
X38433800Y-130711600D01*
X24180800Y-134347485D02*
X24180800Y-133781800D01*
X24180800Y-134910200D02*
X24180800Y-134347485D01*
X25719400Y-136448800D02*
X24180800Y-134910200D01*
X28473400Y-136448800D02*
X25719400Y-136448800D01*
D23*
X28473400Y-136448800D02*
X30148800Y-136448800D01*
X30870000Y-137170000D02*
X34170000Y-137170000D01*
X30148800Y-136448800D02*
X30870000Y-137170000D01*
X38623800Y-137170000D02*
X39293800Y-136500000D01*
X34170000Y-137170000D02*
X38623800Y-137170000D01*
D22*
X-15214600Y-136372600D02*
X-15214600Y-130378200D01*
D23*
X-15214600Y-136372600D02*
X-14107400Y-136372600D01*
X-13000000Y-137480000D02*
X-9560000Y-137480000D01*
X-14107400Y-136372600D02*
X-13000000Y-137480000D01*
X-5013400Y-137480000D02*
X-4343400Y-136810000D01*
X-9560000Y-137480000D02*
X-5013400Y-137480000D01*
D22*
X-3889400Y-131016400D02*
X-4343400Y-131016400D01*
X-1930400Y-129057400D02*
X-3889400Y-131016400D01*
X19404200Y-134875400D02*
X19405600Y-134874000D01*
X19404200Y-137820400D02*
X19404200Y-134875400D01*
X13484600Y-134927600D02*
X13487400Y-134924800D01*
X13484600Y-137795000D02*
X13484600Y-134927600D01*
X7569200Y-137716000D02*
X7515600Y-137769600D01*
X7569200Y-133527800D02*
X7569200Y-137716000D01*
X106616500Y-135141833D02*
X106817733Y-134940600D01*
X106616500Y-137960100D02*
X106616500Y-135141833D01*
X38547000Y-125912800D02*
X38608000Y-125973800D01*
X35306000Y-125912800D02*
X38547000Y-125912800D01*
X35301000Y-125907800D02*
X35306000Y-125912800D01*
X32893000Y-125907800D02*
X35301000Y-125907800D01*
X-5141000Y-126090600D02*
X-5003800Y-126227800D01*
X-8305800Y-126090600D02*
X-5141000Y-126090600D01*
X-8260000Y-126090600D02*
X-8305800Y-126090600D01*
X-6350000Y-124180600D02*
X-8260000Y-126090600D01*
X270522700Y-137934700D02*
X270738600Y-138150600D01*
X270738600Y-138150600D02*
X270738600Y-135496300D01*
X282295600Y-138276200D02*
X282268800Y-138303000D01*
X282295600Y-135559800D02*
X282295600Y-138276200D01*
X188511000Y-134894500D02*
X188544200Y-134861300D01*
X188511000Y-137782300D02*
X188511000Y-134894500D01*
X92830599Y-130816299D02*
X92830599Y-130828999D01*
X92430600Y-130416300D02*
X92830599Y-130816299D01*
X95464500Y-133462900D02*
X95464500Y-137883900D01*
X92830599Y-130828999D02*
X95464500Y-133462900D01*
X276425400Y-135524500D02*
X276428200Y-135521700D01*
X276425400Y-138226800D02*
X276425400Y-135524500D01*
X101003100Y-135141550D02*
X101229450Y-134915200D01*
X101003100Y-137909300D02*
X101003100Y-135141550D01*
X194551300Y-137795000D02*
X194513200Y-137833100D01*
X194551300Y-134924800D02*
X194551300Y-137795000D01*
X182435500Y-137566400D02*
X182575200Y-137706100D01*
X182460900Y-132588000D02*
X182460900Y-137756900D01*
X163890000Y-131930000D02*
X160940000Y-131930000D01*
X160940000Y-131930000D02*
X158820000Y-129810000D01*
X77010000Y-131730000D02*
X72860000Y-131730000D01*
X72860000Y-131730000D02*
X71020000Y-129890000D01*
X71020000Y-129890000D02*
X71020000Y-129680000D01*
X-10680000Y-132260000D02*
X-10680000Y-131990000D01*
X-10680000Y-131990000D02*
X-11580000Y-131090000D01*
D23*
X252030000Y-132350000D02*
X250740000Y-132350000D01*
X250740000Y-132350000D02*
X249000000Y-130610000D01*
X249000000Y-130610000D02*
X245750000Y-130610000D01*
X245750000Y-130610000D02*
X245490000Y-130350000D01*
D22*
X32446000Y-132230000D02*
X31559400Y-131343400D01*
X31559400Y-131343400D02*
X22818362Y-131343400D01*
X33100000Y-132230000D02*
X32446000Y-132230000D01*
X120280000Y-131890000D02*
X117150000Y-131890000D01*
X117150000Y-131890000D02*
X115440000Y-130180000D01*
D23*
X206752000Y-132250000D02*
X205212000Y-130710000D01*
X207660000Y-132250000D02*
X206752000Y-132250000D01*
D22*
X205212000Y-130710000D02*
X205160000Y-130710000D01*
X205160000Y-130710000D02*
X205040000Y-130590000D01*
D23*
X295072000Y-131860000D02*
X293782000Y-130570000D01*
X295980000Y-131860000D02*
X295072000Y-131860000D01*
X293782000Y-130570000D02*
X291980000Y-130570000D01*
D22*
X10007600Y-137261600D02*
X10515600Y-137769600D01*
X9017000Y-137261600D02*
X10007600Y-137261600D01*
X22404200Y-139070400D02*
X22404200Y-137820400D01*
X23503700Y-140169900D02*
X23761700Y-140169900D01*
X22404200Y-139070400D02*
X23503700Y-140169900D01*
X96939100Y-139409300D02*
X98464500Y-137883900D01*
X96939100Y-139522200D02*
X96939100Y-139409300D01*
X104003100Y-137909300D02*
X104003100Y-136659300D01*
X98464500Y-136633900D02*
X98464500Y-137883900D01*
X104003100Y-136659300D02*
X102611500Y-135267700D01*
X99589400Y-135509000D02*
X99606100Y-135509000D01*
X99589400Y-135509000D02*
X98464500Y-136633900D01*
X99606100Y-135509000D02*
X100926900Y-134188200D01*
X101532000Y-134188200D02*
X102611500Y-135267700D01*
X100926900Y-134188200D02*
X101532000Y-134188200D01*
X109616500Y-136710100D02*
X109616500Y-137960100D01*
X107120000Y-134213600D02*
X109616500Y-136710100D01*
X104003100Y-136659300D02*
X104988300Y-135674100D01*
X104990900Y-135674100D02*
X106451400Y-134213600D01*
X104988300Y-135674100D02*
X104990900Y-135674100D01*
X106451400Y-134213600D02*
X107120000Y-134213600D01*
X185575200Y-138452600D02*
X185575200Y-137706100D01*
X184099200Y-139928600D02*
X185575200Y-138452600D01*
X109715300Y-137960100D02*
X109616500Y-137960100D01*
X111912400Y-140157200D02*
X109715300Y-137960100D01*
X191511000Y-136532300D02*
X191511000Y-137782300D01*
X189065300Y-134086600D02*
X191511000Y-136532300D01*
X187972700Y-134086600D02*
X189065300Y-134086600D01*
X185575200Y-136484100D02*
X187972700Y-134086600D01*
X185575200Y-137706100D02*
X185575200Y-136484100D01*
X191511000Y-137782300D02*
X191511000Y-136631600D01*
X191511000Y-136631600D02*
X194005200Y-134137400D01*
X197513200Y-136583100D02*
X197513200Y-137833100D01*
X195067500Y-134137400D02*
X197513200Y-136583100D01*
X194005200Y-134137400D02*
X195067500Y-134137400D01*
X197513200Y-139083100D02*
X198561900Y-140131800D01*
X198561900Y-140131800D02*
X199351900Y-140131800D01*
X197513200Y-137833100D02*
X197513200Y-139083100D01*
X272275300Y-139613900D02*
X273738600Y-138150600D01*
X272275300Y-139776200D02*
X272275300Y-139613900D01*
X273738600Y-138150600D02*
X273738600Y-136992100D01*
X273738600Y-136992100D02*
X275996400Y-134734300D01*
X279425400Y-136976800D02*
X279425400Y-138226800D01*
X277182900Y-134734300D02*
X279425400Y-136976800D01*
X275996400Y-134734300D02*
X277182900Y-134734300D01*
X279425400Y-138226800D02*
X279425400Y-136893300D01*
X279425400Y-136893300D02*
X281546300Y-134772400D01*
X285268800Y-137053000D02*
X285268800Y-138303000D01*
X282988200Y-134772400D02*
X285268800Y-137053000D01*
X281546300Y-134772400D02*
X282988200Y-134772400D01*
X10515600Y-137769600D02*
X10515600Y-136575800D01*
X10515600Y-136575800D02*
X12941300Y-134150100D01*
X16484600Y-136545000D02*
X16484600Y-137795000D01*
X14089700Y-134150100D02*
X16484600Y-136545000D01*
X12941300Y-134150100D02*
X14089700Y-134150100D01*
X16484600Y-137795000D02*
X16484600Y-136664700D01*
X19002301Y-134146999D02*
X19986699Y-134146999D01*
X16484600Y-136664700D02*
X19002301Y-134146999D01*
X22404200Y-136570400D02*
X22404200Y-137820400D01*
X19986699Y-134152899D02*
X22404200Y-136570400D01*
X19986699Y-134146999D02*
X19986699Y-134152899D01*
X79573200Y-125577600D02*
X79603600Y-125608000D01*
X77343000Y-125577600D02*
X79573200Y-125577600D01*
X82732800Y-125608000D02*
X82854800Y-125730000D01*
X79603600Y-125608000D02*
X82732800Y-125608000D01*
X122674300Y-126047500D02*
X122783600Y-125938200D01*
X120396000Y-126047500D02*
X122674300Y-126047500D01*
X122880200Y-126034800D02*
X122783600Y-125938200D01*
X126136400Y-126034800D02*
X122880200Y-126034800D01*
X166184500Y-126403100D02*
X166319200Y-126268400D01*
X163931600Y-126403100D02*
X166184500Y-126403100D01*
X166431000Y-126380200D02*
X166319200Y-126268400D01*
X169672000Y-126380200D02*
X166431000Y-126380200D01*
X209453400Y-126085600D02*
X209550000Y-125989000D01*
X207225900Y-126085600D02*
X209453400Y-126085600D01*
X212892600Y-125989000D02*
X212953600Y-126050000D01*
X209550000Y-125989000D02*
X212892600Y-125989000D01*
X253585900Y-126580900D02*
X253771400Y-126395400D01*
X251409200Y-126580900D02*
X253585900Y-126580900D01*
X253857800Y-126481800D02*
X253771400Y-126395400D01*
X257048000Y-126481800D02*
X253857800Y-126481800D01*
X297977600Y-126380200D02*
X297891200Y-126293800D01*
X297807300Y-126377700D02*
X297891200Y-126293800D01*
D23*
X295917700Y-125950900D02*
X295490900Y-126377700D01*
X297954700Y-125950900D02*
X295917700Y-125950900D01*
D22*
X300763900Y-125950900D02*
X301193200Y-126380200D01*
X297954700Y-125950900D02*
X300763900Y-125950900D01*
D23*
X-9560000Y-133240000D02*
X-8580000Y-132260000D01*
X-9560000Y-134680000D02*
X-9560000Y-133240000D01*
X34170000Y-133260000D02*
X35200000Y-132230000D01*
X34170000Y-134370000D02*
X34170000Y-133260000D01*
X78070000Y-132770000D02*
X79110000Y-131730000D01*
X78070000Y-134460000D02*
X78070000Y-132770000D01*
X121450000Y-132820000D02*
X122380000Y-131890000D01*
X121450000Y-134570000D02*
X121450000Y-132820000D01*
X252670000Y-133810000D02*
X254130000Y-132350000D01*
X252670000Y-134670000D02*
X252670000Y-133810000D01*
X296920000Y-133020000D02*
X298080000Y-131860000D01*
X296920000Y-134490000D02*
X296920000Y-133020000D01*
X208860000Y-133150000D02*
X209760000Y-132250000D01*
X208860000Y-134480000D02*
X208860000Y-133150000D01*
X165200000Y-132720000D02*
X165990000Y-131930000D01*
X165200000Y-134400000D02*
X165200000Y-132720000D01*
D22*
G36*
X270919575Y-89242185D02*
G01*
X270919575Y-123061984D01*
X227330000Y-122714758D01*
X227330000Y-88998458D01*
X227770647Y-88998458D01*
X270919575Y-89242185D01*
G37*
X270919575Y-89242185D02*
X270919575Y-123061984D01*
X227330000Y-122714758D01*
X227330000Y-88998458D01*
X227770647Y-88998458D01*
X270919575Y-89242185D01*
G36*
X226370249Y-122739853D02*
G01*
X186282791Y-122960703D01*
X186068505Y-89242277D01*
X226130754Y-89046667D01*
X226370249Y-122739853D01*
G37*
X226370249Y-122739853D02*
X186282791Y-122960703D01*
X186068505Y-89242277D01*
X226130754Y-89046667D01*
X226370249Y-122739853D01*
G36*
X185431750Y-122870173D02*
G01*
X142607920Y-122888321D01*
X142507079Y-89193314D01*
X185179647Y-89067853D01*
X185431750Y-122870173D01*
G37*
X185431750Y-122870173D02*
X142607920Y-122888321D01*
X142507079Y-89193314D01*
X185179647Y-89067853D01*
X185431750Y-122870173D01*
G36*
X141453822Y-89302764D02*
G01*
X141781545Y-123064550D01*
X99415317Y-122531185D01*
X99339689Y-89148118D01*
X141453822Y-89302764D01*
G37*
X141453822Y-89302764D02*
X141781545Y-123064550D01*
X99415317Y-122531185D01*
X99339689Y-89148118D01*
X141453822Y-89302764D01*
G36*
X98255012Y-89274149D02*
G01*
X98645754Y-122890546D01*
X57302044Y-122568682D01*
X57207510Y-89110060D01*
X98255012Y-89274149D01*
G37*
X98255012Y-89274149D02*
X98645754Y-122890546D01*
X57302044Y-122568682D01*
X57207510Y-89110060D01*
X98255012Y-89274149D01*
G36*
X56083099Y-122808587D02*
G01*
X36434443Y-122744722D01*
X36425980Y-122740198D01*
X36306282Y-122703888D01*
X36181800Y-122691628D01*
X34531800Y-122691628D01*
X34407318Y-122703888D01*
X34295625Y-122737770D01*
X31305940Y-122728052D01*
X31226282Y-122703888D01*
X31101800Y-122691628D01*
X29451800Y-122691628D01*
X29327318Y-122703888D01*
X29269480Y-122721433D01*
X21171975Y-122695113D01*
X21246028Y-89267613D01*
X56056314Y-89078491D01*
X56083099Y-122808587D01*
G37*
X56083099Y-122808587D02*
X36434443Y-122744722D01*
X36425980Y-122740198D01*
X36306282Y-122703888D01*
X36181800Y-122691628D01*
X34531800Y-122691628D01*
X34407318Y-122703888D01*
X34295625Y-122737770D01*
X31305940Y-122728052D01*
X31226282Y-122703888D01*
X31101800Y-122691628D01*
X29451800Y-122691628D01*
X29327318Y-122703888D01*
X29269480Y-122721433D01*
X21171975Y-122695113D01*
X21246028Y-89267613D01*
X56056314Y-89078491D01*
X56083099Y-122808587D01*
G36*
X-12217400Y-109143691D02*
G01*
X-12214981Y-109168470D01*
X-12207774Y-109192300D01*
X-12196057Y-109214267D01*
X-12180279Y-109233526D01*
X-12161048Y-109249336D01*
X-12139101Y-109261091D01*
X-12115283Y-109268338D01*
X-12090400Y-109270800D01*
X-6223000Y-109270800D01*
X-6222515Y-109270799D01*
X-3023814Y-109258590D01*
X-3047994Y-111809596D01*
X-3045789Y-111834395D01*
X-3038788Y-111858287D01*
X-3027261Y-111880353D01*
X-3011650Y-111899747D01*
X-2992555Y-111915723D01*
X-2970711Y-111927667D01*
X-2946956Y-111935119D01*
X-2920788Y-111937800D01*
X19814316Y-111899908D01*
X20152532Y-130301343D01*
X355816Y-130201043D01*
X368300Y-122898117D01*
X365902Y-122873336D01*
X358716Y-122849500D01*
X347017Y-122827523D01*
X331256Y-122808251D01*
X312038Y-122792424D01*
X290101Y-122780651D01*
X266289Y-122773383D01*
X241193Y-122770900D01*
X-14821007Y-122783600D01*
X-21831751Y-122783600D01*
X-21914001Y-99650867D01*
X-21914001Y-94462032D01*
X-15544561Y-94437200D01*
X-12204809Y-94437200D01*
X-12217400Y-109143691D01*
G37*
X-12217400Y-109143691D02*
X-12214981Y-109168470D01*
X-12207774Y-109192300D01*
X-12196057Y-109214267D01*
X-12180279Y-109233526D01*
X-12161048Y-109249336D01*
X-12139101Y-109261091D01*
X-12115283Y-109268338D01*
X-12090400Y-109270800D01*
X-6223000Y-109270800D01*
X-6222515Y-109270799D01*
X-3023814Y-109258590D01*
X-3047994Y-111809596D01*
X-3045789Y-111834395D01*
X-3038788Y-111858287D01*
X-3027261Y-111880353D01*
X-3011650Y-111899747D01*
X-2992555Y-111915723D01*
X-2970711Y-111927667D01*
X-2946956Y-111935119D01*
X-2920788Y-111937800D01*
X19814316Y-111899908D01*
X20152532Y-130301343D01*
X355816Y-130201043D01*
X368300Y-122898117D01*
X365902Y-122873336D01*
X358716Y-122849500D01*
X347017Y-122827523D01*
X331256Y-122808251D01*
X312038Y-122792424D01*
X290101Y-122780651D01*
X266289Y-122773383D01*
X241193Y-122770900D01*
X-14821007Y-122783600D01*
X-21831751Y-122783600D01*
X-21914001Y-99650867D01*
X-21914001Y-94462032D01*
X-15544561Y-94437200D01*
X-12204809Y-94437200D01*
X-12217400Y-109143691D01*
G36*
X311493547Y-89255398D02*
G01*
X311518302Y-94094950D01*
X311520869Y-94119713D01*
X311528217Y-94143500D01*
X311540066Y-94165397D01*
X311555958Y-94184561D01*
X311575284Y-94200256D01*
X311597300Y-94211880D01*
X311621161Y-94218985D01*
X311645300Y-94221300D01*
X316722000Y-94221300D01*
X316721999Y-122759929D01*
X291362868Y-122986800D01*
X272072005Y-122974183D01*
X272046795Y-89192304D01*
X311493547Y-89255398D01*
G37*
X311493547Y-89255398D02*
X311518302Y-94094950D01*
X311520869Y-94119713D01*
X311528217Y-94143500D01*
X311540066Y-94165397D01*
X311555958Y-94184561D01*
X311575284Y-94200256D01*
X311597300Y-94211880D01*
X311621161Y-94218985D01*
X311645300Y-94221300D01*
X316722000Y-94221300D01*
X316721999Y-122759929D01*
X291362868Y-122986800D01*
X272072005Y-122974183D01*
X272046795Y-89192304D01*
X311493547Y-89255398D01*
M02*
