G04 #@! TF.GenerationSoftware,KiCad,Pcbnew,5.1.5-52549c5~84~ubuntu18.04.1*
G04 #@! TF.CreationDate,2020-02-28T01:04:36-05:00*
G04 #@! TF.ProjectId,DA_Board_2,44415f42-6f61-4726-945f-322e6b696361,rev?*
G04 #@! TF.SameCoordinates,Original*
G04 #@! TF.FileFunction,Soldermask,Top*
G04 #@! TF.FilePolarity,Negative*
%FSLAX46Y46*%
G04 Gerber Fmt 4.6, Leading zero omitted, Abs format (unit mm)*
G04 Created by KiCad (PCBNEW 5.1.5-52549c5~84~ubuntu18.04.1) date 2020-02-28 01:04:36*
%MOMM*%
%LPD*%
G04 APERTURE LIST*
%ADD10C,0.100000*%
G04 APERTURE END LIST*
D10*
G36*
X293101400Y-140525000D02*
G01*
X288101400Y-140525000D01*
X288101400Y-132525000D01*
X293101400Y-132525000D01*
X293101400Y-140525000D01*
G37*
G36*
X249413400Y-140499600D02*
G01*
X244413400Y-140499600D01*
X244413400Y-132499600D01*
X249413400Y-132499600D01*
X249413400Y-140499600D01*
G37*
G36*
X205700000Y-140499600D02*
G01*
X200700000Y-140499600D01*
X200700000Y-132499600D01*
X205700000Y-132499600D01*
X205700000Y-140499600D01*
G37*
G36*
X118349400Y-140474200D02*
G01*
X113349400Y-140474200D01*
X113349400Y-132474200D01*
X118349400Y-132474200D01*
X118349400Y-140474200D01*
G37*
G36*
X162037400Y-140474200D02*
G01*
X157037400Y-140474200D01*
X157037400Y-132474200D01*
X162037400Y-132474200D01*
X162037400Y-140474200D01*
G37*
G36*
X30973400Y-140448800D02*
G01*
X25973400Y-140448800D01*
X25973400Y-132448800D01*
X30973400Y-132448800D01*
X30973400Y-140448800D01*
G37*
G36*
X74661400Y-140398000D02*
G01*
X69661400Y-140398000D01*
X69661400Y-132398000D01*
X74661400Y-132398000D01*
X74661400Y-140398000D01*
G37*
G36*
X-12714600Y-140372600D02*
G01*
X-17714600Y-140372600D01*
X-17714600Y-132372600D01*
X-12714600Y-132372600D01*
X-12714600Y-140372600D01*
G37*
G36*
X286018800Y-140303000D02*
G01*
X284518800Y-140303000D01*
X284518800Y-136303000D01*
X286018800Y-136303000D01*
X286018800Y-140303000D01*
G37*
G36*
X283018800Y-140303000D02*
G01*
X281518800Y-140303000D01*
X281518800Y-136303000D01*
X283018800Y-136303000D01*
X283018800Y-140303000D01*
G37*
G36*
X277175400Y-140226800D02*
G01*
X275675400Y-140226800D01*
X275675400Y-136226800D01*
X277175400Y-136226800D01*
X277175400Y-140226800D01*
G37*
G36*
X280175400Y-140226800D02*
G01*
X278675400Y-140226800D01*
X278675400Y-136226800D01*
X280175400Y-136226800D01*
X280175400Y-140226800D01*
G37*
G36*
X271488600Y-140150600D02*
G01*
X269988600Y-140150600D01*
X269988600Y-136150600D01*
X271488600Y-136150600D01*
X271488600Y-140150600D01*
G37*
G36*
X274488600Y-140150600D02*
G01*
X272988600Y-140150600D01*
X272988600Y-136150600D01*
X274488600Y-136150600D01*
X274488600Y-140150600D01*
G37*
G36*
X107366500Y-139960100D02*
G01*
X105866500Y-139960100D01*
X105866500Y-135960100D01*
X107366500Y-135960100D01*
X107366500Y-139960100D01*
G37*
G36*
X110366500Y-139960100D02*
G01*
X108866500Y-139960100D01*
X108866500Y-135960100D01*
X110366500Y-135960100D01*
X110366500Y-139960100D01*
G37*
G36*
X104753100Y-139909300D02*
G01*
X103253100Y-139909300D01*
X103253100Y-135909300D01*
X104753100Y-135909300D01*
X104753100Y-139909300D01*
G37*
G36*
X101753100Y-139909300D02*
G01*
X100253100Y-139909300D01*
X100253100Y-135909300D01*
X101753100Y-135909300D01*
X101753100Y-139909300D01*
G37*
G36*
X96214500Y-139883900D02*
G01*
X94714500Y-139883900D01*
X94714500Y-135883900D01*
X96214500Y-135883900D01*
X96214500Y-139883900D01*
G37*
G36*
X99214500Y-139883900D02*
G01*
X97714500Y-139883900D01*
X97714500Y-135883900D01*
X99214500Y-135883900D01*
X99214500Y-139883900D01*
G37*
G36*
X198263200Y-139833100D02*
G01*
X196763200Y-139833100D01*
X196763200Y-135833100D01*
X198263200Y-135833100D01*
X198263200Y-139833100D01*
G37*
G36*
X195263200Y-139833100D02*
G01*
X193763200Y-139833100D01*
X193763200Y-135833100D01*
X195263200Y-135833100D01*
X195263200Y-139833100D01*
G37*
G36*
X20154200Y-139820400D02*
G01*
X18654200Y-139820400D01*
X18654200Y-135820400D01*
X20154200Y-135820400D01*
X20154200Y-139820400D01*
G37*
G36*
X23154200Y-139820400D02*
G01*
X21654200Y-139820400D01*
X21654200Y-135820400D01*
X23154200Y-135820400D01*
X23154200Y-139820400D01*
G37*
G36*
X14234600Y-139795000D02*
G01*
X12734600Y-139795000D01*
X12734600Y-135795000D01*
X14234600Y-135795000D01*
X14234600Y-139795000D01*
G37*
G36*
X17234600Y-139795000D02*
G01*
X15734600Y-139795000D01*
X15734600Y-135795000D01*
X17234600Y-135795000D01*
X17234600Y-139795000D01*
G37*
G36*
X192261000Y-139782300D02*
G01*
X190761000Y-139782300D01*
X190761000Y-135782300D01*
X192261000Y-135782300D01*
X192261000Y-139782300D01*
G37*
G36*
X189261000Y-139782300D02*
G01*
X187761000Y-139782300D01*
X187761000Y-135782300D01*
X189261000Y-135782300D01*
X189261000Y-139782300D01*
G37*
G36*
X11265600Y-139769600D02*
G01*
X9765600Y-139769600D01*
X9765600Y-135769600D01*
X11265600Y-135769600D01*
X11265600Y-139769600D01*
G37*
G36*
X8265600Y-139769600D02*
G01*
X6765600Y-139769600D01*
X6765600Y-135769600D01*
X8265600Y-135769600D01*
X8265600Y-139769600D01*
G37*
G36*
X183325200Y-139706100D02*
G01*
X181825200Y-139706100D01*
X181825200Y-135706100D01*
X183325200Y-135706100D01*
X183325200Y-139706100D01*
G37*
G36*
X186325200Y-139706100D02*
G01*
X184825200Y-139706100D01*
X184825200Y-135706100D01*
X186325200Y-135706100D01*
X186325200Y-139706100D01*
G37*
G36*
X-8825976Y-136858955D02*
G01*
X-8793262Y-136868879D01*
X-8763115Y-136884993D01*
X-8736685Y-136906685D01*
X-8714993Y-136933115D01*
X-8698879Y-136963262D01*
X-8688955Y-136995976D01*
X-8685000Y-137036138D01*
X-8685000Y-137923862D01*
X-8688955Y-137964024D01*
X-8698879Y-137996738D01*
X-8714993Y-138026885D01*
X-8736685Y-138053315D01*
X-8763115Y-138075007D01*
X-8793262Y-138091121D01*
X-8825976Y-138101045D01*
X-8866138Y-138105000D01*
X-10253862Y-138105000D01*
X-10294024Y-138101045D01*
X-10326738Y-138091121D01*
X-10356885Y-138075007D01*
X-10383315Y-138053315D01*
X-10405007Y-138026885D01*
X-10421121Y-137996738D01*
X-10431045Y-137964024D01*
X-10435000Y-137923862D01*
X-10435000Y-137036138D01*
X-10431045Y-136995976D01*
X-10421121Y-136963262D01*
X-10405007Y-136933115D01*
X-10383315Y-136906685D01*
X-10356885Y-136884993D01*
X-10326738Y-136868879D01*
X-10294024Y-136858955D01*
X-10253862Y-136855000D01*
X-8866138Y-136855000D01*
X-8825976Y-136858955D01*
G37*
G36*
X253404024Y-136848955D02*
G01*
X253436738Y-136858879D01*
X253466885Y-136874993D01*
X253493315Y-136896685D01*
X253515007Y-136923115D01*
X253531121Y-136953262D01*
X253541045Y-136985976D01*
X253545000Y-137026138D01*
X253545000Y-137913862D01*
X253541045Y-137954024D01*
X253531121Y-137986738D01*
X253515007Y-138016885D01*
X253493315Y-138043315D01*
X253466885Y-138065007D01*
X253436738Y-138081121D01*
X253404024Y-138091045D01*
X253363862Y-138095000D01*
X251976138Y-138095000D01*
X251935976Y-138091045D01*
X251903262Y-138081121D01*
X251873115Y-138065007D01*
X251846685Y-138043315D01*
X251824993Y-138016885D01*
X251808879Y-137986738D01*
X251798955Y-137954024D01*
X251795000Y-137913862D01*
X251795000Y-137026138D01*
X251798955Y-136985976D01*
X251808879Y-136953262D01*
X251824993Y-136923115D01*
X251846685Y-136896685D01*
X251873115Y-136874993D01*
X251903262Y-136858879D01*
X251935976Y-136848955D01*
X251976138Y-136845000D01*
X253363862Y-136845000D01*
X253404024Y-136848955D01*
G37*
G36*
X122184024Y-136748955D02*
G01*
X122216738Y-136758879D01*
X122246885Y-136774993D01*
X122273315Y-136796685D01*
X122295007Y-136823115D01*
X122311121Y-136853262D01*
X122321045Y-136885976D01*
X122325000Y-136926138D01*
X122325000Y-137813862D01*
X122321045Y-137854024D01*
X122311121Y-137886738D01*
X122295007Y-137916885D01*
X122273315Y-137943315D01*
X122246885Y-137965007D01*
X122216738Y-137981121D01*
X122184024Y-137991045D01*
X122143862Y-137995000D01*
X120756138Y-137995000D01*
X120715976Y-137991045D01*
X120683262Y-137981121D01*
X120653115Y-137965007D01*
X120626685Y-137943315D01*
X120604993Y-137916885D01*
X120588879Y-137886738D01*
X120578955Y-137854024D01*
X120575000Y-137813862D01*
X120575000Y-136926138D01*
X120578955Y-136885976D01*
X120588879Y-136853262D01*
X120604993Y-136823115D01*
X120626685Y-136796685D01*
X120653115Y-136774993D01*
X120683262Y-136758879D01*
X120715976Y-136748955D01*
X120756138Y-136745000D01*
X122143862Y-136745000D01*
X122184024Y-136748955D01*
G37*
G36*
X297654024Y-136668955D02*
G01*
X297686738Y-136678879D01*
X297716885Y-136694993D01*
X297743315Y-136716685D01*
X297765007Y-136743115D01*
X297781121Y-136773262D01*
X297791045Y-136805976D01*
X297795000Y-136846138D01*
X297795000Y-137733862D01*
X297791045Y-137774024D01*
X297781121Y-137806738D01*
X297765007Y-137836885D01*
X297743315Y-137863315D01*
X297716885Y-137885007D01*
X297686738Y-137901121D01*
X297654024Y-137911045D01*
X297613862Y-137915000D01*
X296226138Y-137915000D01*
X296185976Y-137911045D01*
X296153262Y-137901121D01*
X296123115Y-137885007D01*
X296096685Y-137863315D01*
X296074993Y-137836885D01*
X296058879Y-137806738D01*
X296048955Y-137774024D01*
X296045000Y-137733862D01*
X296045000Y-136846138D01*
X296048955Y-136805976D01*
X296058879Y-136773262D01*
X296074993Y-136743115D01*
X296096685Y-136716685D01*
X296123115Y-136694993D01*
X296153262Y-136678879D01*
X296185976Y-136668955D01*
X296226138Y-136665000D01*
X297613862Y-136665000D01*
X297654024Y-136668955D01*
G37*
G36*
X209594024Y-136658955D02*
G01*
X209626738Y-136668879D01*
X209656885Y-136684993D01*
X209683315Y-136706685D01*
X209705007Y-136733115D01*
X209721121Y-136763262D01*
X209731045Y-136795976D01*
X209735000Y-136836138D01*
X209735000Y-137723862D01*
X209731045Y-137764024D01*
X209721121Y-137796738D01*
X209705007Y-137826885D01*
X209683315Y-137853315D01*
X209656885Y-137875007D01*
X209626738Y-137891121D01*
X209594024Y-137901045D01*
X209553862Y-137905000D01*
X208166138Y-137905000D01*
X208125976Y-137901045D01*
X208093262Y-137891121D01*
X208063115Y-137875007D01*
X208036685Y-137853315D01*
X208014993Y-137826885D01*
X207998879Y-137796738D01*
X207988955Y-137764024D01*
X207985000Y-137723862D01*
X207985000Y-136836138D01*
X207988955Y-136795976D01*
X207998879Y-136763262D01*
X208014993Y-136733115D01*
X208036685Y-136706685D01*
X208063115Y-136684993D01*
X208093262Y-136668879D01*
X208125976Y-136658955D01*
X208166138Y-136655000D01*
X209553862Y-136655000D01*
X209594024Y-136658955D01*
G37*
G36*
X78804024Y-136638955D02*
G01*
X78836738Y-136648879D01*
X78866885Y-136664993D01*
X78893315Y-136686685D01*
X78915007Y-136713115D01*
X78931121Y-136743262D01*
X78941045Y-136775976D01*
X78945000Y-136816138D01*
X78945000Y-137703862D01*
X78941045Y-137744024D01*
X78931121Y-137776738D01*
X78915007Y-137806885D01*
X78893315Y-137833315D01*
X78866885Y-137855007D01*
X78836738Y-137871121D01*
X78804024Y-137881045D01*
X78763862Y-137885000D01*
X77376138Y-137885000D01*
X77335976Y-137881045D01*
X77303262Y-137871121D01*
X77273115Y-137855007D01*
X77246685Y-137833315D01*
X77224993Y-137806885D01*
X77208879Y-137776738D01*
X77198955Y-137744024D01*
X77195000Y-137703862D01*
X77195000Y-136816138D01*
X77198955Y-136775976D01*
X77208879Y-136743262D01*
X77224993Y-136713115D01*
X77246685Y-136686685D01*
X77273115Y-136664993D01*
X77303262Y-136648879D01*
X77335976Y-136638955D01*
X77376138Y-136635000D01*
X78763862Y-136635000D01*
X78804024Y-136638955D01*
G37*
G36*
X165934024Y-136578955D02*
G01*
X165966738Y-136588879D01*
X165996885Y-136604993D01*
X166023315Y-136626685D01*
X166045007Y-136653115D01*
X166061121Y-136683262D01*
X166071045Y-136715976D01*
X166075000Y-136756138D01*
X166075000Y-137643862D01*
X166071045Y-137684024D01*
X166061121Y-137716738D01*
X166045007Y-137746885D01*
X166023315Y-137773315D01*
X165996885Y-137795007D01*
X165966738Y-137811121D01*
X165934024Y-137821045D01*
X165893862Y-137825000D01*
X164506138Y-137825000D01*
X164465976Y-137821045D01*
X164433262Y-137811121D01*
X164403115Y-137795007D01*
X164376685Y-137773315D01*
X164354993Y-137746885D01*
X164338879Y-137716738D01*
X164328955Y-137684024D01*
X164325000Y-137643862D01*
X164325000Y-136756138D01*
X164328955Y-136715976D01*
X164338879Y-136683262D01*
X164354993Y-136653115D01*
X164376685Y-136626685D01*
X164403115Y-136604993D01*
X164433262Y-136588879D01*
X164465976Y-136578955D01*
X164506138Y-136575000D01*
X165893862Y-136575000D01*
X165934024Y-136578955D01*
G37*
G36*
X34904024Y-136548955D02*
G01*
X34936738Y-136558879D01*
X34966885Y-136574993D01*
X34993315Y-136596685D01*
X35015007Y-136623115D01*
X35031121Y-136653262D01*
X35041045Y-136685976D01*
X35045000Y-136726138D01*
X35045000Y-137613862D01*
X35041045Y-137654024D01*
X35031121Y-137686738D01*
X35015007Y-137716885D01*
X34993315Y-137743315D01*
X34966885Y-137765007D01*
X34936738Y-137781121D01*
X34904024Y-137791045D01*
X34863862Y-137795000D01*
X33476138Y-137795000D01*
X33435976Y-137791045D01*
X33403262Y-137781121D01*
X33373115Y-137765007D01*
X33346685Y-137743315D01*
X33324993Y-137716885D01*
X33308879Y-137686738D01*
X33298955Y-137654024D01*
X33295000Y-137613862D01*
X33295000Y-136726138D01*
X33298955Y-136685976D01*
X33308879Y-136653262D01*
X33324993Y-136623115D01*
X33346685Y-136596685D01*
X33373115Y-136574993D01*
X33403262Y-136558879D01*
X33435976Y-136548955D01*
X33476138Y-136545000D01*
X34863862Y-136545000D01*
X34904024Y-136548955D01*
G37*
G36*
X-2593400Y-137700000D02*
G01*
X-6093400Y-137700000D01*
X-6093400Y-135920000D01*
X-2593400Y-135920000D01*
X-2593400Y-137700000D01*
G37*
G36*
X259790000Y-137690000D02*
G01*
X256290000Y-137690000D01*
X256290000Y-135910000D01*
X259790000Y-135910000D01*
X259790000Y-137690000D01*
G37*
G36*
X128394400Y-137590000D02*
G01*
X124894400Y-137590000D01*
X124894400Y-135810000D01*
X128394400Y-135810000D01*
X128394400Y-137590000D01*
G37*
G36*
X304391000Y-137510000D02*
G01*
X300891000Y-137510000D01*
X300891000Y-135730000D01*
X304391000Y-135730000D01*
X304391000Y-137510000D01*
G37*
G36*
X215846600Y-137500000D02*
G01*
X212346600Y-137500000D01*
X212346600Y-135720000D01*
X215846600Y-135720000D01*
X215846600Y-137500000D01*
G37*
G36*
X85239800Y-137480000D02*
G01*
X81739800Y-137480000D01*
X81739800Y-135700000D01*
X85239800Y-135700000D01*
X85239800Y-137480000D01*
G37*
G36*
X171955400Y-137420000D02*
G01*
X168455400Y-137420000D01*
X168455400Y-135640000D01*
X171955400Y-135640000D01*
X171955400Y-137420000D01*
G37*
G36*
X41043800Y-137390000D02*
G01*
X37543800Y-137390000D01*
X37543800Y-135610000D01*
X41043800Y-135610000D01*
X41043800Y-137390000D01*
G37*
G36*
X-8825976Y-134058955D02*
G01*
X-8793262Y-134068879D01*
X-8763115Y-134084993D01*
X-8736685Y-134106685D01*
X-8714993Y-134133115D01*
X-8698879Y-134163262D01*
X-8688955Y-134195976D01*
X-8685000Y-134236138D01*
X-8685000Y-135123862D01*
X-8688955Y-135164024D01*
X-8698879Y-135196738D01*
X-8714993Y-135226885D01*
X-8736685Y-135253315D01*
X-8763115Y-135275007D01*
X-8793262Y-135291121D01*
X-8825976Y-135301045D01*
X-8866138Y-135305000D01*
X-10253862Y-135305000D01*
X-10294024Y-135301045D01*
X-10326738Y-135291121D01*
X-10356885Y-135275007D01*
X-10383315Y-135253315D01*
X-10405007Y-135226885D01*
X-10421121Y-135196738D01*
X-10431045Y-135164024D01*
X-10435000Y-135123862D01*
X-10435000Y-134236138D01*
X-10431045Y-134195976D01*
X-10421121Y-134163262D01*
X-10405007Y-134133115D01*
X-10383315Y-134106685D01*
X-10356885Y-134084993D01*
X-10326738Y-134068879D01*
X-10294024Y-134058955D01*
X-10253862Y-134055000D01*
X-8866138Y-134055000D01*
X-8825976Y-134058955D01*
G37*
G36*
X253404024Y-134048955D02*
G01*
X253436738Y-134058879D01*
X253466885Y-134074993D01*
X253493315Y-134096685D01*
X253515007Y-134123115D01*
X253531121Y-134153262D01*
X253541045Y-134185976D01*
X253545000Y-134226138D01*
X253545000Y-135113862D01*
X253541045Y-135154024D01*
X253531121Y-135186738D01*
X253515007Y-135216885D01*
X253493315Y-135243315D01*
X253466885Y-135265007D01*
X253436738Y-135281121D01*
X253404024Y-135291045D01*
X253363862Y-135295000D01*
X251976138Y-135295000D01*
X251935976Y-135291045D01*
X251903262Y-135281121D01*
X251873115Y-135265007D01*
X251846685Y-135243315D01*
X251824993Y-135216885D01*
X251808879Y-135186738D01*
X251798955Y-135154024D01*
X251795000Y-135113862D01*
X251795000Y-134226138D01*
X251798955Y-134185976D01*
X251808879Y-134153262D01*
X251824993Y-134123115D01*
X251846685Y-134096685D01*
X251873115Y-134074993D01*
X251903262Y-134058879D01*
X251935976Y-134048955D01*
X251976138Y-134045000D01*
X253363862Y-134045000D01*
X253404024Y-134048955D01*
G37*
G36*
X122184024Y-133948955D02*
G01*
X122216738Y-133958879D01*
X122246885Y-133974993D01*
X122273315Y-133996685D01*
X122295007Y-134023115D01*
X122311121Y-134053262D01*
X122321045Y-134085976D01*
X122325000Y-134126138D01*
X122325000Y-135013862D01*
X122321045Y-135054024D01*
X122311121Y-135086738D01*
X122295007Y-135116885D01*
X122273315Y-135143315D01*
X122246885Y-135165007D01*
X122216738Y-135181121D01*
X122184024Y-135191045D01*
X122143862Y-135195000D01*
X120756138Y-135195000D01*
X120715976Y-135191045D01*
X120683262Y-135181121D01*
X120653115Y-135165007D01*
X120626685Y-135143315D01*
X120604993Y-135116885D01*
X120588879Y-135086738D01*
X120578955Y-135054024D01*
X120575000Y-135013862D01*
X120575000Y-134126138D01*
X120578955Y-134085976D01*
X120588879Y-134053262D01*
X120604993Y-134023115D01*
X120626685Y-133996685D01*
X120653115Y-133974993D01*
X120683262Y-133958879D01*
X120715976Y-133948955D01*
X120756138Y-133945000D01*
X122143862Y-133945000D01*
X122184024Y-133948955D01*
G37*
G36*
X297654024Y-133868955D02*
G01*
X297686738Y-133878879D01*
X297716885Y-133894993D01*
X297743315Y-133916685D01*
X297765007Y-133943115D01*
X297781121Y-133973262D01*
X297791045Y-134005976D01*
X297795000Y-134046138D01*
X297795000Y-134933862D01*
X297791045Y-134974024D01*
X297781121Y-135006738D01*
X297765007Y-135036885D01*
X297743315Y-135063315D01*
X297716885Y-135085007D01*
X297686738Y-135101121D01*
X297654024Y-135111045D01*
X297613862Y-135115000D01*
X296226138Y-135115000D01*
X296185976Y-135111045D01*
X296153262Y-135101121D01*
X296123115Y-135085007D01*
X296096685Y-135063315D01*
X296074993Y-135036885D01*
X296058879Y-135006738D01*
X296048955Y-134974024D01*
X296045000Y-134933862D01*
X296045000Y-134046138D01*
X296048955Y-134005976D01*
X296058879Y-133973262D01*
X296074993Y-133943115D01*
X296096685Y-133916685D01*
X296123115Y-133894993D01*
X296153262Y-133878879D01*
X296185976Y-133868955D01*
X296226138Y-133865000D01*
X297613862Y-133865000D01*
X297654024Y-133868955D01*
G37*
G36*
X209594024Y-133858955D02*
G01*
X209626738Y-133868879D01*
X209656885Y-133884993D01*
X209683315Y-133906685D01*
X209705007Y-133933115D01*
X209721121Y-133963262D01*
X209731045Y-133995976D01*
X209735000Y-134036138D01*
X209735000Y-134923862D01*
X209731045Y-134964024D01*
X209721121Y-134996738D01*
X209705007Y-135026885D01*
X209683315Y-135053315D01*
X209656885Y-135075007D01*
X209626738Y-135091121D01*
X209594024Y-135101045D01*
X209553862Y-135105000D01*
X208166138Y-135105000D01*
X208125976Y-135101045D01*
X208093262Y-135091121D01*
X208063115Y-135075007D01*
X208036685Y-135053315D01*
X208014993Y-135026885D01*
X207998879Y-134996738D01*
X207988955Y-134964024D01*
X207985000Y-134923862D01*
X207985000Y-134036138D01*
X207988955Y-133995976D01*
X207998879Y-133963262D01*
X208014993Y-133933115D01*
X208036685Y-133906685D01*
X208063115Y-133884993D01*
X208093262Y-133868879D01*
X208125976Y-133858955D01*
X208166138Y-133855000D01*
X209553862Y-133855000D01*
X209594024Y-133858955D01*
G37*
G36*
X78804024Y-133838955D02*
G01*
X78836738Y-133848879D01*
X78866885Y-133864993D01*
X78893315Y-133886685D01*
X78915007Y-133913115D01*
X78931121Y-133943262D01*
X78941045Y-133975976D01*
X78945000Y-134016138D01*
X78945000Y-134903862D01*
X78941045Y-134944024D01*
X78931121Y-134976738D01*
X78915007Y-135006885D01*
X78893315Y-135033315D01*
X78866885Y-135055007D01*
X78836738Y-135071121D01*
X78804024Y-135081045D01*
X78763862Y-135085000D01*
X77376138Y-135085000D01*
X77335976Y-135081045D01*
X77303262Y-135071121D01*
X77273115Y-135055007D01*
X77246685Y-135033315D01*
X77224993Y-135006885D01*
X77208879Y-134976738D01*
X77198955Y-134944024D01*
X77195000Y-134903862D01*
X77195000Y-134016138D01*
X77198955Y-133975976D01*
X77208879Y-133943262D01*
X77224993Y-133913115D01*
X77246685Y-133886685D01*
X77273115Y-133864993D01*
X77303262Y-133848879D01*
X77335976Y-133838955D01*
X77376138Y-133835000D01*
X78763862Y-133835000D01*
X78804024Y-133838955D01*
G37*
G36*
X165934024Y-133778955D02*
G01*
X165966738Y-133788879D01*
X165996885Y-133804993D01*
X166023315Y-133826685D01*
X166045007Y-133853115D01*
X166061121Y-133883262D01*
X166071045Y-133915976D01*
X166075000Y-133956138D01*
X166075000Y-134843862D01*
X166071045Y-134884024D01*
X166061121Y-134916738D01*
X166045007Y-134946885D01*
X166023315Y-134973315D01*
X165996885Y-134995007D01*
X165966738Y-135011121D01*
X165934024Y-135021045D01*
X165893862Y-135025000D01*
X164506138Y-135025000D01*
X164465976Y-135021045D01*
X164433262Y-135011121D01*
X164403115Y-134995007D01*
X164376685Y-134973315D01*
X164354993Y-134946885D01*
X164338879Y-134916738D01*
X164328955Y-134884024D01*
X164325000Y-134843862D01*
X164325000Y-133956138D01*
X164328955Y-133915976D01*
X164338879Y-133883262D01*
X164354993Y-133853115D01*
X164376685Y-133826685D01*
X164403115Y-133804993D01*
X164433262Y-133788879D01*
X164465976Y-133778955D01*
X164506138Y-133775000D01*
X165893862Y-133775000D01*
X165934024Y-133778955D01*
G37*
G36*
X34904024Y-133748955D02*
G01*
X34936738Y-133758879D01*
X34966885Y-133774993D01*
X34993315Y-133796685D01*
X35015007Y-133823115D01*
X35031121Y-133853262D01*
X35041045Y-133885976D01*
X35045000Y-133926138D01*
X35045000Y-134813862D01*
X35041045Y-134854024D01*
X35031121Y-134886738D01*
X35015007Y-134916885D01*
X34993315Y-134943315D01*
X34966885Y-134965007D01*
X34936738Y-134981121D01*
X34904024Y-134991045D01*
X34863862Y-134995000D01*
X33476138Y-134995000D01*
X33435976Y-134991045D01*
X33403262Y-134981121D01*
X33373115Y-134965007D01*
X33346685Y-134943315D01*
X33324993Y-134916885D01*
X33308879Y-134886738D01*
X33298955Y-134854024D01*
X33295000Y-134813862D01*
X33295000Y-133926138D01*
X33298955Y-133885976D01*
X33308879Y-133853262D01*
X33324993Y-133823115D01*
X33346685Y-133796685D01*
X33373115Y-133774993D01*
X33403262Y-133758879D01*
X33435976Y-133748955D01*
X33476138Y-133745000D01*
X34863862Y-133745000D01*
X34904024Y-133748955D01*
G37*
G36*
X254530000Y-132800000D02*
G01*
X253730000Y-132800000D01*
X253730000Y-131900000D01*
X254530000Y-131900000D01*
X254530000Y-132800000D01*
G37*
G36*
X252430000Y-132800000D02*
G01*
X251630000Y-132800000D01*
X251630000Y-131900000D01*
X252430000Y-131900000D01*
X252430000Y-132800000D01*
G37*
G36*
X-8180000Y-132710000D02*
G01*
X-8980000Y-132710000D01*
X-8980000Y-131810000D01*
X-8180000Y-131810000D01*
X-8180000Y-132710000D01*
G37*
G36*
X-10280000Y-132710000D02*
G01*
X-11080000Y-132710000D01*
X-11080000Y-131810000D01*
X-10280000Y-131810000D01*
X-10280000Y-132710000D01*
G37*
G36*
X208060000Y-132700000D02*
G01*
X207260000Y-132700000D01*
X207260000Y-131800000D01*
X208060000Y-131800000D01*
X208060000Y-132700000D01*
G37*
G36*
X210160000Y-132700000D02*
G01*
X209360000Y-132700000D01*
X209360000Y-131800000D01*
X210160000Y-131800000D01*
X210160000Y-132700000D01*
G37*
G36*
X35600000Y-132680000D02*
G01*
X34800000Y-132680000D01*
X34800000Y-131780000D01*
X35600000Y-131780000D01*
X35600000Y-132680000D01*
G37*
G36*
X33500000Y-132680000D02*
G01*
X32700000Y-132680000D01*
X32700000Y-131780000D01*
X33500000Y-131780000D01*
X33500000Y-132680000D01*
G37*
G36*
X-2593400Y-132420000D02*
G01*
X-6093400Y-132420000D01*
X-6093400Y-130640000D01*
X-2593400Y-130640000D01*
X-2593400Y-132420000D01*
G37*
G36*
X259790000Y-132410000D02*
G01*
X256290000Y-132410000D01*
X256290000Y-130630000D01*
X259790000Y-130630000D01*
X259790000Y-132410000D01*
G37*
G36*
X164290000Y-132380000D02*
G01*
X163490000Y-132380000D01*
X163490000Y-131480000D01*
X164290000Y-131480000D01*
X164290000Y-132380000D01*
G37*
G36*
X166390000Y-132380000D02*
G01*
X165590000Y-132380000D01*
X165590000Y-131480000D01*
X166390000Y-131480000D01*
X166390000Y-132380000D01*
G37*
G36*
X122780000Y-132340000D02*
G01*
X121980000Y-132340000D01*
X121980000Y-131440000D01*
X122780000Y-131440000D01*
X122780000Y-132340000D01*
G37*
G36*
X120680000Y-132340000D02*
G01*
X119880000Y-132340000D01*
X119880000Y-131440000D01*
X120680000Y-131440000D01*
X120680000Y-132340000D01*
G37*
G36*
X128394400Y-132310000D02*
G01*
X124894400Y-132310000D01*
X124894400Y-130530000D01*
X128394400Y-130530000D01*
X128394400Y-132310000D01*
G37*
G36*
X298480000Y-132310000D02*
G01*
X297680000Y-132310000D01*
X297680000Y-131410000D01*
X298480000Y-131410000D01*
X298480000Y-132310000D01*
G37*
G36*
X296380000Y-132310000D02*
G01*
X295580000Y-132310000D01*
X295580000Y-131410000D01*
X296380000Y-131410000D01*
X296380000Y-132310000D01*
G37*
G36*
X304391000Y-132230000D02*
G01*
X300891000Y-132230000D01*
X300891000Y-130450000D01*
X304391000Y-130450000D01*
X304391000Y-132230000D01*
G37*
G36*
X215846600Y-132220000D02*
G01*
X212346600Y-132220000D01*
X212346600Y-130440000D01*
X215846600Y-130440000D01*
X215846600Y-132220000D01*
G37*
G36*
X85239800Y-132200000D02*
G01*
X81739800Y-132200000D01*
X81739800Y-130420000D01*
X85239800Y-130420000D01*
X85239800Y-132200000D01*
G37*
G36*
X77410000Y-132180000D02*
G01*
X76610000Y-132180000D01*
X76610000Y-131280000D01*
X77410000Y-131280000D01*
X77410000Y-132180000D01*
G37*
G36*
X79510000Y-132180000D02*
G01*
X78710000Y-132180000D01*
X78710000Y-131280000D01*
X79510000Y-131280000D01*
X79510000Y-132180000D01*
G37*
G36*
X171955400Y-132140000D02*
G01*
X168455400Y-132140000D01*
X168455400Y-130360000D01*
X171955400Y-130360000D01*
X171955400Y-132140000D01*
G37*
G36*
X41043800Y-132110000D02*
G01*
X37543800Y-132110000D01*
X37543800Y-130330000D01*
X41043800Y-130330000D01*
X41043800Y-132110000D01*
G37*
G36*
X253480000Y-130800000D02*
G01*
X252680000Y-130800000D01*
X252680000Y-129900000D01*
X253480000Y-129900000D01*
X253480000Y-130800000D01*
G37*
G36*
X-9230000Y-130710000D02*
G01*
X-10030000Y-130710000D01*
X-10030000Y-129810000D01*
X-9230000Y-129810000D01*
X-9230000Y-130710000D01*
G37*
G36*
X209110000Y-130700000D02*
G01*
X208310000Y-130700000D01*
X208310000Y-129800000D01*
X209110000Y-129800000D01*
X209110000Y-130700000D01*
G37*
G36*
X34550000Y-130680000D02*
G01*
X33750000Y-130680000D01*
X33750000Y-129780000D01*
X34550000Y-129780000D01*
X34550000Y-130680000D01*
G37*
G36*
X165340000Y-130380000D02*
G01*
X164540000Y-130380000D01*
X164540000Y-129480000D01*
X165340000Y-129480000D01*
X165340000Y-130380000D01*
G37*
G36*
X121730000Y-130340000D02*
G01*
X120930000Y-130340000D01*
X120930000Y-129440000D01*
X121730000Y-129440000D01*
X121730000Y-130340000D01*
G37*
G36*
X297430000Y-130310000D02*
G01*
X296630000Y-130310000D01*
X296630000Y-129410000D01*
X297430000Y-129410000D01*
X297430000Y-130310000D01*
G37*
G36*
X78460000Y-130180000D02*
G01*
X77660000Y-130180000D01*
X77660000Y-129280000D01*
X78460000Y-129280000D01*
X78460000Y-130180000D01*
G37*
G36*
X259629200Y-128743000D02*
G01*
X258429200Y-128743000D01*
X258429200Y-127543000D01*
X259629200Y-127543000D01*
X259629200Y-128743000D01*
G37*
G36*
X257698000Y-128731800D02*
G01*
X256398000Y-128731800D01*
X256398000Y-128031800D01*
X257698000Y-128031800D01*
X257698000Y-128731800D01*
G37*
G36*
X301843200Y-128630200D02*
G01*
X300543200Y-128630200D01*
X300543200Y-127930200D01*
X301843200Y-127930200D01*
X301843200Y-128630200D01*
G37*
G36*
X170322000Y-128630200D02*
G01*
X169022000Y-128630200D01*
X169022000Y-127930200D01*
X170322000Y-127930200D01*
X170322000Y-128630200D01*
G37*
G36*
X172227800Y-128623800D02*
G01*
X171027800Y-128623800D01*
X171027800Y-127423800D01*
X172227800Y-127423800D01*
X172227800Y-128623800D01*
G37*
G36*
X304231600Y-128598400D02*
G01*
X303031600Y-128598400D01*
X303031600Y-127398400D01*
X304231600Y-127398400D01*
X304231600Y-128598400D01*
G37*
G36*
X-2397200Y-128489000D02*
G01*
X-3597200Y-128489000D01*
X-3597200Y-127289000D01*
X-2397200Y-127289000D01*
X-2397200Y-128489000D01*
G37*
G36*
X-4353800Y-128477800D02*
G01*
X-5653800Y-128477800D01*
X-5653800Y-127777800D01*
X-4353800Y-127777800D01*
X-4353800Y-128477800D01*
G37*
G36*
X215560200Y-128319000D02*
G01*
X214360200Y-128319000D01*
X214360200Y-127119000D01*
X215560200Y-127119000D01*
X215560200Y-128319000D01*
G37*
G36*
X213603600Y-128300000D02*
G01*
X212303600Y-128300000D01*
X212303600Y-127600000D01*
X213603600Y-127600000D01*
X213603600Y-128300000D01*
G37*
G36*
X128717600Y-128293600D02*
G01*
X127517600Y-128293600D01*
X127517600Y-127093600D01*
X128717600Y-127093600D01*
X128717600Y-128293600D01*
G37*
G36*
X126786400Y-128284800D02*
G01*
X125486400Y-128284800D01*
X125486400Y-127584800D01*
X126786400Y-127584800D01*
X126786400Y-128284800D01*
G37*
G36*
X39258000Y-128223800D02*
G01*
X37958000Y-128223800D01*
X37958000Y-127523800D01*
X39258000Y-127523800D01*
X39258000Y-128223800D01*
G37*
G36*
X41214600Y-128217400D02*
G01*
X40014600Y-128217400D01*
X40014600Y-127017400D01*
X41214600Y-127017400D01*
X41214600Y-128217400D01*
G37*
G36*
X85385200Y-127988800D02*
G01*
X84185200Y-127988800D01*
X84185200Y-126788800D01*
X85385200Y-126788800D01*
X85385200Y-127988800D01*
G37*
G36*
X83504800Y-127980000D02*
G01*
X82204800Y-127980000D01*
X82204800Y-127280000D01*
X83504800Y-127280000D01*
X83504800Y-127980000D01*
G37*
G36*
X254621800Y-127970200D02*
G01*
X252971800Y-127970200D01*
X252971800Y-124160200D01*
X254621800Y-124160200D01*
X254621800Y-127970200D01*
G37*
G36*
X249541800Y-127970200D02*
G01*
X247891800Y-127970200D01*
X247891800Y-124160200D01*
X249541800Y-124160200D01*
X249541800Y-127970200D01*
G37*
G36*
X298779700Y-127855900D02*
G01*
X297129700Y-127855900D01*
X297129700Y-124045900D01*
X298779700Y-124045900D01*
X298779700Y-127855900D01*
G37*
G36*
X293699700Y-127855900D02*
G01*
X292049700Y-127855900D01*
X292049700Y-124045900D01*
X293699700Y-124045900D01*
X293699700Y-127855900D01*
G37*
G36*
X210857600Y-127850900D02*
G01*
X209207600Y-127850900D01*
X209207600Y-124040900D01*
X210857600Y-124040900D01*
X210857600Y-127850900D01*
G37*
G36*
X205777600Y-127850900D02*
G01*
X204127600Y-127850900D01*
X204127600Y-124040900D01*
X205777600Y-124040900D01*
X205777600Y-127850900D01*
G37*
G36*
X167017200Y-127601900D02*
G01*
X165367200Y-127601900D01*
X165367200Y-123791900D01*
X167017200Y-123791900D01*
X167017200Y-127601900D01*
G37*
G36*
X161937200Y-127601900D02*
G01*
X160287200Y-127601900D01*
X160287200Y-123791900D01*
X161937200Y-123791900D01*
X161937200Y-127601900D01*
G37*
G36*
X-12446500Y-127398700D02*
G01*
X-14096500Y-127398700D01*
X-14096500Y-123588700D01*
X-12446500Y-123588700D01*
X-12446500Y-127398700D01*
G37*
G36*
X-7366500Y-127398700D02*
G01*
X-9016500Y-127398700D01*
X-9016500Y-123588700D01*
X-7366500Y-123588700D01*
X-7366500Y-127398700D01*
G37*
G36*
X80428600Y-127373300D02*
G01*
X78778600Y-127373300D01*
X78778600Y-123563300D01*
X80428600Y-123563300D01*
X80428600Y-127373300D01*
G37*
G36*
X75348600Y-127373300D02*
G01*
X73698600Y-127373300D01*
X73698600Y-123563300D01*
X75348600Y-123563300D01*
X75348600Y-127373300D01*
G37*
G36*
X123570500Y-127284400D02*
G01*
X121920500Y-127284400D01*
X121920500Y-123474400D01*
X123570500Y-123474400D01*
X123570500Y-127284400D01*
G37*
G36*
X118490500Y-127284400D02*
G01*
X116840500Y-127284400D01*
X116840500Y-123474400D01*
X118490500Y-123474400D01*
X118490500Y-127284400D01*
G37*
G36*
X31101800Y-127139700D02*
G01*
X29451800Y-127139700D01*
X29451800Y-123329700D01*
X31101800Y-123329700D01*
X31101800Y-127139700D01*
G37*
G36*
X36181800Y-127139700D02*
G01*
X34531800Y-127139700D01*
X34531800Y-123329700D01*
X36181800Y-123329700D01*
X36181800Y-127139700D01*
G37*
G36*
X257698000Y-126831800D02*
G01*
X256398000Y-126831800D01*
X256398000Y-126131800D01*
X257698000Y-126131800D01*
X257698000Y-126831800D01*
G37*
G36*
X301843200Y-126730200D02*
G01*
X300543200Y-126730200D01*
X300543200Y-126030200D01*
X301843200Y-126030200D01*
X301843200Y-126730200D01*
G37*
G36*
X170322000Y-126730200D02*
G01*
X169022000Y-126730200D01*
X169022000Y-126030200D01*
X170322000Y-126030200D01*
X170322000Y-126730200D01*
G37*
G36*
X-4353800Y-126577800D02*
G01*
X-5653800Y-126577800D01*
X-5653800Y-125877800D01*
X-4353800Y-125877800D01*
X-4353800Y-126577800D01*
G37*
G36*
X259629200Y-126543000D02*
G01*
X258429200Y-126543000D01*
X258429200Y-125343000D01*
X259629200Y-125343000D01*
X259629200Y-126543000D01*
G37*
G36*
X172227800Y-126423800D02*
G01*
X171027800Y-126423800D01*
X171027800Y-125223800D01*
X172227800Y-125223800D01*
X172227800Y-126423800D01*
G37*
G36*
X213603600Y-126400000D02*
G01*
X212303600Y-126400000D01*
X212303600Y-125700000D01*
X213603600Y-125700000D01*
X213603600Y-126400000D01*
G37*
G36*
X304231600Y-126398400D02*
G01*
X303031600Y-126398400D01*
X303031600Y-125198400D01*
X304231600Y-125198400D01*
X304231600Y-126398400D01*
G37*
G36*
X126786400Y-126384800D02*
G01*
X125486400Y-126384800D01*
X125486400Y-125684800D01*
X126786400Y-125684800D01*
X126786400Y-126384800D01*
G37*
G36*
X39258000Y-126323800D02*
G01*
X37958000Y-126323800D01*
X37958000Y-125623800D01*
X39258000Y-125623800D01*
X39258000Y-126323800D01*
G37*
G36*
X-2397200Y-126289000D02*
G01*
X-3597200Y-126289000D01*
X-3597200Y-125089000D01*
X-2397200Y-125089000D01*
X-2397200Y-126289000D01*
G37*
G36*
X215560200Y-126119000D02*
G01*
X214360200Y-126119000D01*
X214360200Y-124919000D01*
X215560200Y-124919000D01*
X215560200Y-126119000D01*
G37*
G36*
X128717600Y-126093600D02*
G01*
X127517600Y-126093600D01*
X127517600Y-124893600D01*
X128717600Y-124893600D01*
X128717600Y-126093600D01*
G37*
G36*
X83504800Y-126080000D02*
G01*
X82204800Y-126080000D01*
X82204800Y-125380000D01*
X83504800Y-125380000D01*
X83504800Y-126080000D01*
G37*
G36*
X41214600Y-126017400D02*
G01*
X40014600Y-126017400D01*
X40014600Y-124817400D01*
X41214600Y-124817400D01*
X41214600Y-126017400D01*
G37*
G36*
X85385200Y-125788800D02*
G01*
X84185200Y-125788800D01*
X84185200Y-124588800D01*
X85385200Y-124588800D01*
X85385200Y-125788800D01*
G37*
G36*
X255191800Y-122695200D02*
G01*
X247321800Y-122695200D01*
X247321800Y-114185200D01*
X255191800Y-114185200D01*
X255191800Y-122695200D01*
G37*
G36*
X299349700Y-122580900D02*
G01*
X291479700Y-122580900D01*
X291479700Y-114070900D01*
X299349700Y-114070900D01*
X299349700Y-122580900D01*
G37*
G36*
X211427600Y-122575900D02*
G01*
X203557600Y-122575900D01*
X203557600Y-114065900D01*
X211427600Y-114065900D01*
X211427600Y-122575900D01*
G37*
G36*
X167587200Y-122326900D02*
G01*
X159717200Y-122326900D01*
X159717200Y-113816900D01*
X167587200Y-113816900D01*
X167587200Y-122326900D01*
G37*
G36*
X-6796500Y-122123700D02*
G01*
X-14666500Y-122123700D01*
X-14666500Y-113613700D01*
X-6796500Y-113613700D01*
X-6796500Y-122123700D01*
G37*
G36*
X80998600Y-122098300D02*
G01*
X73128600Y-122098300D01*
X73128600Y-113588300D01*
X80998600Y-113588300D01*
X80998600Y-122098300D01*
G37*
G36*
X124140500Y-122009400D02*
G01*
X116270500Y-122009400D01*
X116270500Y-113499400D01*
X124140500Y-113499400D01*
X124140500Y-122009400D01*
G37*
G36*
X36751800Y-121864700D02*
G01*
X28881800Y-121864700D01*
X28881800Y-113354700D01*
X36751800Y-113354700D01*
X36751800Y-121864700D01*
G37*
G36*
X19134238Y-109539153D02*
G01*
X19176098Y-109547479D01*
X19202410Y-109558378D01*
X19294389Y-109596477D01*
X19294390Y-109596478D01*
X19400851Y-109667612D01*
X19491388Y-109758149D01*
X19528579Y-109813810D01*
X19562523Y-109864611D01*
X19611521Y-109982903D01*
X19636500Y-110108479D01*
X19636500Y-110236521D01*
X19611521Y-110362097D01*
X19562523Y-110480389D01*
X19562522Y-110480390D01*
X19491388Y-110586851D01*
X19400851Y-110677388D01*
X19370417Y-110697723D01*
X19294389Y-110748523D01*
X19225096Y-110777225D01*
X19176098Y-110797521D01*
X19134238Y-110805847D01*
X19050521Y-110822500D01*
X18922479Y-110822500D01*
X18838762Y-110805847D01*
X18796902Y-110797521D01*
X18747904Y-110777225D01*
X18678611Y-110748523D01*
X18602583Y-110697723D01*
X18572149Y-110677388D01*
X18481612Y-110586851D01*
X18410478Y-110480390D01*
X18410477Y-110480389D01*
X18361479Y-110362097D01*
X18336500Y-110236521D01*
X18336500Y-110108479D01*
X18361479Y-109982903D01*
X18410477Y-109864611D01*
X18444421Y-109813810D01*
X18481612Y-109758149D01*
X18572149Y-109667612D01*
X18678610Y-109596478D01*
X18678611Y-109596477D01*
X18770590Y-109558378D01*
X18796902Y-109547479D01*
X18838762Y-109539153D01*
X18922479Y-109522500D01*
X19050521Y-109522500D01*
X19134238Y-109539153D01*
G37*
G36*
X1214538Y-109501053D02*
G01*
X1256398Y-109509379D01*
X1288074Y-109522500D01*
X1374689Y-109558377D01*
X1374690Y-109558378D01*
X1481151Y-109629512D01*
X1571688Y-109720049D01*
X1597145Y-109758149D01*
X1642823Y-109826511D01*
X1691821Y-109944803D01*
X1716800Y-110070379D01*
X1716800Y-110198421D01*
X1691821Y-110323997D01*
X1642823Y-110442289D01*
X1642822Y-110442290D01*
X1571688Y-110548751D01*
X1481151Y-110639288D01*
X1410016Y-110686818D01*
X1374689Y-110710423D01*
X1305396Y-110739125D01*
X1256398Y-110759421D01*
X1214538Y-110767747D01*
X1130821Y-110784400D01*
X1002779Y-110784400D01*
X919062Y-110767747D01*
X877202Y-110759421D01*
X828204Y-110739125D01*
X758911Y-110710423D01*
X723584Y-110686818D01*
X652449Y-110639288D01*
X561912Y-110548751D01*
X490778Y-110442290D01*
X490777Y-110442289D01*
X441779Y-110323997D01*
X416800Y-110198421D01*
X416800Y-110070379D01*
X441779Y-109944803D01*
X490777Y-109826511D01*
X536455Y-109758149D01*
X561912Y-109720049D01*
X652449Y-109629512D01*
X758910Y-109558378D01*
X758911Y-109558377D01*
X845526Y-109522500D01*
X877202Y-109509379D01*
X919062Y-109501053D01*
X1002779Y-109484400D01*
X1130821Y-109484400D01*
X1214538Y-109501053D01*
G37*
G36*
X10478367Y-109484400D02*
G01*
X10540098Y-109496679D01*
X10589096Y-109516975D01*
X10658389Y-109545677D01*
X10668600Y-109552500D01*
X10764851Y-109616812D01*
X10855388Y-109707349D01*
X10902918Y-109778484D01*
X10926523Y-109813811D01*
X10975521Y-109932103D01*
X11000500Y-110057679D01*
X11000500Y-110185721D01*
X10975521Y-110311297D01*
X10926523Y-110429589D01*
X10926522Y-110429590D01*
X10855388Y-110536051D01*
X10764851Y-110626588D01*
X10693716Y-110674118D01*
X10658389Y-110697723D01*
X10627728Y-110710423D01*
X10540098Y-110746721D01*
X10498238Y-110755047D01*
X10414521Y-110771700D01*
X10286479Y-110771700D01*
X10202762Y-110755047D01*
X10160902Y-110746721D01*
X10073272Y-110710423D01*
X10042611Y-110697723D01*
X10007284Y-110674118D01*
X9936149Y-110626588D01*
X9845612Y-110536051D01*
X9774478Y-110429590D01*
X9774477Y-110429589D01*
X9725479Y-110311297D01*
X9700500Y-110185721D01*
X9700500Y-110057679D01*
X9725479Y-109932103D01*
X9774477Y-109813811D01*
X9798082Y-109778484D01*
X9845612Y-109707349D01*
X9936149Y-109616812D01*
X10032400Y-109552500D01*
X10042611Y-109545677D01*
X10111904Y-109516975D01*
X10160902Y-109496679D01*
X10222633Y-109484400D01*
X10286479Y-109471700D01*
X10414521Y-109471700D01*
X10478367Y-109484400D01*
G37*
G36*
X16594238Y-108269153D02*
G01*
X16636098Y-108277479D01*
X16662410Y-108288378D01*
X16754389Y-108326477D01*
X16754390Y-108326478D01*
X16860851Y-108397612D01*
X16951388Y-108488149D01*
X16988579Y-108543810D01*
X17022523Y-108594611D01*
X17071521Y-108712903D01*
X17096500Y-108838479D01*
X17096500Y-108966521D01*
X17071521Y-109092097D01*
X17022523Y-109210389D01*
X17022522Y-109210390D01*
X16951388Y-109316851D01*
X16860851Y-109407388D01*
X16830417Y-109427723D01*
X16754389Y-109478523D01*
X16685096Y-109507225D01*
X16636098Y-109527521D01*
X16594238Y-109535847D01*
X16510521Y-109552500D01*
X16382479Y-109552500D01*
X16298762Y-109535847D01*
X16256902Y-109527521D01*
X16207904Y-109507225D01*
X16138611Y-109478523D01*
X16062583Y-109427723D01*
X16032149Y-109407388D01*
X15941612Y-109316851D01*
X15870478Y-109210390D01*
X15870477Y-109210389D01*
X15821479Y-109092097D01*
X15796500Y-108966521D01*
X15796500Y-108838479D01*
X15821479Y-108712903D01*
X15870477Y-108594611D01*
X15904421Y-108543810D01*
X15941612Y-108488149D01*
X16032149Y-108397612D01*
X16138610Y-108326478D01*
X16138611Y-108326477D01*
X16230590Y-108288378D01*
X16256902Y-108277479D01*
X16298762Y-108269153D01*
X16382479Y-108252500D01*
X16510521Y-108252500D01*
X16594238Y-108269153D01*
G37*
G36*
X-1325462Y-108231053D02*
G01*
X-1283602Y-108239379D01*
X-1251926Y-108252500D01*
X-1165311Y-108288377D01*
X-1165310Y-108288378D01*
X-1058849Y-108359512D01*
X-968312Y-108450049D01*
X-942855Y-108488149D01*
X-897177Y-108556511D01*
X-848179Y-108674803D01*
X-823200Y-108800379D01*
X-823200Y-108928421D01*
X-848179Y-109053997D01*
X-897177Y-109172289D01*
X-897178Y-109172290D01*
X-968312Y-109278751D01*
X-1058849Y-109369288D01*
X-1129984Y-109416818D01*
X-1165311Y-109440423D01*
X-1234604Y-109469125D01*
X-1283602Y-109489421D01*
X-1320091Y-109496679D01*
X-1409179Y-109514400D01*
X-1537221Y-109514400D01*
X-1626309Y-109496679D01*
X-1662798Y-109489421D01*
X-1711796Y-109469125D01*
X-1781089Y-109440423D01*
X-1816416Y-109416818D01*
X-1887551Y-109369288D01*
X-1978088Y-109278751D01*
X-2049222Y-109172290D01*
X-2049223Y-109172289D01*
X-2098221Y-109053997D01*
X-2123200Y-108928421D01*
X-2123200Y-108800379D01*
X-2098221Y-108674803D01*
X-2049223Y-108556511D01*
X-2003545Y-108488149D01*
X-1978088Y-108450049D01*
X-1887551Y-108359512D01*
X-1781090Y-108288378D01*
X-1781089Y-108288377D01*
X-1694474Y-108252500D01*
X-1662798Y-108239379D01*
X-1620938Y-108231053D01*
X-1537221Y-108214400D01*
X-1409179Y-108214400D01*
X-1325462Y-108231053D01*
G37*
G36*
X7938367Y-108214400D02*
G01*
X8000098Y-108226679D01*
X8043896Y-108244821D01*
X8118389Y-108275677D01*
X8128600Y-108282500D01*
X8224851Y-108346812D01*
X8315388Y-108437349D01*
X8362918Y-108508484D01*
X8386523Y-108543811D01*
X8435521Y-108662103D01*
X8460500Y-108787679D01*
X8460500Y-108915721D01*
X8435521Y-109041297D01*
X8386523Y-109159589D01*
X8386522Y-109159590D01*
X8315388Y-109266051D01*
X8224851Y-109356588D01*
X8153716Y-109404118D01*
X8118389Y-109427723D01*
X8087728Y-109440423D01*
X8000098Y-109476721D01*
X7961493Y-109484400D01*
X7874521Y-109501700D01*
X7746479Y-109501700D01*
X7659507Y-109484400D01*
X7620902Y-109476721D01*
X7533272Y-109440423D01*
X7502611Y-109427723D01*
X7467284Y-109404118D01*
X7396149Y-109356588D01*
X7305612Y-109266051D01*
X7234478Y-109159590D01*
X7234477Y-109159589D01*
X7185479Y-109041297D01*
X7160500Y-108915721D01*
X7160500Y-108787679D01*
X7185479Y-108662103D01*
X7234477Y-108543811D01*
X7258082Y-108508484D01*
X7305612Y-108437349D01*
X7396149Y-108346812D01*
X7492400Y-108282500D01*
X7502611Y-108275677D01*
X7577104Y-108244821D01*
X7620902Y-108226679D01*
X7682633Y-108214400D01*
X7746479Y-108201700D01*
X7874521Y-108201700D01*
X7938367Y-108214400D01*
G37*
G36*
X19134238Y-106999153D02*
G01*
X19176098Y-107007479D01*
X19202410Y-107018378D01*
X19294389Y-107056477D01*
X19294390Y-107056478D01*
X19400851Y-107127612D01*
X19491388Y-107218149D01*
X19528579Y-107273810D01*
X19562523Y-107324611D01*
X19611521Y-107442903D01*
X19636500Y-107568479D01*
X19636500Y-107696521D01*
X19611521Y-107822097D01*
X19562523Y-107940389D01*
X19562522Y-107940390D01*
X19491388Y-108046851D01*
X19400851Y-108137388D01*
X19370417Y-108157723D01*
X19294389Y-108208523D01*
X19225096Y-108237225D01*
X19176098Y-108257521D01*
X19134238Y-108265847D01*
X19050521Y-108282500D01*
X18922479Y-108282500D01*
X18838762Y-108265847D01*
X18796902Y-108257521D01*
X18747904Y-108237225D01*
X18678611Y-108208523D01*
X18602583Y-108157723D01*
X18572149Y-108137388D01*
X18481612Y-108046851D01*
X18410478Y-107940390D01*
X18410477Y-107940389D01*
X18361479Y-107822097D01*
X18336500Y-107696521D01*
X18336500Y-107568479D01*
X18361479Y-107442903D01*
X18410477Y-107324611D01*
X18444421Y-107273810D01*
X18481612Y-107218149D01*
X18572149Y-107127612D01*
X18678610Y-107056478D01*
X18678611Y-107056477D01*
X18770590Y-107018378D01*
X18796902Y-107007479D01*
X18838762Y-106999153D01*
X18922479Y-106982500D01*
X19050521Y-106982500D01*
X19134238Y-106999153D01*
G37*
G36*
X-7720733Y-106982500D02*
G01*
X-7659002Y-106994779D01*
X-7610004Y-107015075D01*
X-7540711Y-107043777D01*
X-7540710Y-107043778D01*
X-7434249Y-107114912D01*
X-7343712Y-107205449D01*
X-7335226Y-107218150D01*
X-7272577Y-107311911D01*
X-7223579Y-107430203D01*
X-7198600Y-107555779D01*
X-7198600Y-107683821D01*
X-7215253Y-107767538D01*
X-7218526Y-107783997D01*
X-7223579Y-107809397D01*
X-7272577Y-107927689D01*
X-7272578Y-107927690D01*
X-7343712Y-108034151D01*
X-7434249Y-108124688D01*
X-7483689Y-108157722D01*
X-7540711Y-108195823D01*
X-7571372Y-108208523D01*
X-7659002Y-108244821D01*
X-7697607Y-108252500D01*
X-7784579Y-108269800D01*
X-7912621Y-108269800D01*
X-7999593Y-108252500D01*
X-8038198Y-108244821D01*
X-8125828Y-108208523D01*
X-8156489Y-108195823D01*
X-8213511Y-108157722D01*
X-8262951Y-108124688D01*
X-8353488Y-108034151D01*
X-8424622Y-107927690D01*
X-8424623Y-107927689D01*
X-8473621Y-107809397D01*
X-8478673Y-107783997D01*
X-8481947Y-107767538D01*
X-8498600Y-107683821D01*
X-8498600Y-107555779D01*
X-8473621Y-107430203D01*
X-8424623Y-107311911D01*
X-8361974Y-107218150D01*
X-8353488Y-107205449D01*
X-8262951Y-107114912D01*
X-8156490Y-107043778D01*
X-8156489Y-107043777D01*
X-8087196Y-107015075D01*
X-8038198Y-106994779D01*
X-7976467Y-106982500D01*
X-7912621Y-106969800D01*
X-7784579Y-106969800D01*
X-7720733Y-106982500D01*
G37*
G36*
X1214538Y-106961053D02*
G01*
X1256398Y-106969379D01*
X1288074Y-106982500D01*
X1374689Y-107018377D01*
X1374690Y-107018378D01*
X1481151Y-107089512D01*
X1571688Y-107180049D01*
X1588660Y-107205450D01*
X1642823Y-107286511D01*
X1653344Y-107311911D01*
X1691821Y-107404802D01*
X1699399Y-107442902D01*
X1716800Y-107530379D01*
X1716800Y-107658421D01*
X1691821Y-107783997D01*
X1642823Y-107902289D01*
X1619218Y-107937616D01*
X1571688Y-108008751D01*
X1481151Y-108099288D01*
X1410016Y-108146818D01*
X1374689Y-108170423D01*
X1313370Y-108195822D01*
X1256398Y-108219421D01*
X1219909Y-108226679D01*
X1130821Y-108244400D01*
X1002779Y-108244400D01*
X913691Y-108226679D01*
X877202Y-108219421D01*
X820230Y-108195822D01*
X758911Y-108170423D01*
X723584Y-108146818D01*
X652449Y-108099288D01*
X561912Y-108008751D01*
X514382Y-107937616D01*
X490777Y-107902289D01*
X441779Y-107783997D01*
X416800Y-107658421D01*
X416800Y-107530379D01*
X434201Y-107442902D01*
X441779Y-107404802D01*
X480256Y-107311911D01*
X490777Y-107286511D01*
X544940Y-107205450D01*
X561912Y-107180049D01*
X652449Y-107089512D01*
X758910Y-107018378D01*
X758911Y-107018377D01*
X845526Y-106982500D01*
X877202Y-106969379D01*
X919062Y-106961053D01*
X1002779Y-106944400D01*
X1130821Y-106944400D01*
X1214538Y-106961053D01*
G37*
G36*
X10478367Y-106944400D02*
G01*
X10540098Y-106956679D01*
X10583896Y-106974821D01*
X10658389Y-107005677D01*
X10668600Y-107012500D01*
X10764851Y-107076812D01*
X10855388Y-107167349D01*
X10902918Y-107238484D01*
X10926523Y-107273811D01*
X10975521Y-107392103D01*
X11000500Y-107517679D01*
X11000500Y-107645721D01*
X10975521Y-107771297D01*
X10926523Y-107889589D01*
X10926522Y-107889590D01*
X10855388Y-107996051D01*
X10764851Y-108086588D01*
X10693716Y-108134118D01*
X10658389Y-108157723D01*
X10627728Y-108170423D01*
X10540098Y-108206721D01*
X10501493Y-108214400D01*
X10414521Y-108231700D01*
X10286479Y-108231700D01*
X10199507Y-108214400D01*
X10160902Y-108206721D01*
X10073272Y-108170423D01*
X10042611Y-108157723D01*
X10007284Y-108134118D01*
X9936149Y-108086588D01*
X9845612Y-107996051D01*
X9774478Y-107889590D01*
X9774477Y-107889589D01*
X9725479Y-107771297D01*
X9700500Y-107645721D01*
X9700500Y-107517679D01*
X9725479Y-107392103D01*
X9774477Y-107273811D01*
X9798082Y-107238484D01*
X9845612Y-107167349D01*
X9936149Y-107076812D01*
X10032400Y-107012500D01*
X10042611Y-107005677D01*
X10117104Y-106974821D01*
X10160902Y-106956679D01*
X10222633Y-106944400D01*
X10286479Y-106931700D01*
X10414521Y-106931700D01*
X10478367Y-106944400D01*
G37*
G36*
X16594238Y-105729153D02*
G01*
X16636098Y-105737479D01*
X16662410Y-105748378D01*
X16754389Y-105786477D01*
X16754390Y-105786478D01*
X16860851Y-105857612D01*
X16951388Y-105948149D01*
X16988579Y-106003810D01*
X17022523Y-106054611D01*
X17071521Y-106172903D01*
X17096500Y-106298479D01*
X17096500Y-106426521D01*
X17071521Y-106552097D01*
X17022523Y-106670389D01*
X17022522Y-106670390D01*
X16951388Y-106776851D01*
X16860851Y-106867388D01*
X16830417Y-106887723D01*
X16754389Y-106938523D01*
X16685096Y-106967225D01*
X16636098Y-106987521D01*
X16599609Y-106994779D01*
X16510521Y-107012500D01*
X16382479Y-107012500D01*
X16293391Y-106994779D01*
X16256902Y-106987521D01*
X16207904Y-106967225D01*
X16138611Y-106938523D01*
X16062583Y-106887723D01*
X16032149Y-106867388D01*
X15941612Y-106776851D01*
X15870478Y-106670390D01*
X15870477Y-106670389D01*
X15821479Y-106552097D01*
X15796500Y-106426521D01*
X15796500Y-106298479D01*
X15821479Y-106172903D01*
X15870477Y-106054611D01*
X15904421Y-106003810D01*
X15941612Y-105948149D01*
X16032149Y-105857612D01*
X16138610Y-105786478D01*
X16138611Y-105786477D01*
X16230590Y-105748378D01*
X16256902Y-105737479D01*
X16298762Y-105729153D01*
X16382479Y-105712500D01*
X16510521Y-105712500D01*
X16594238Y-105729153D01*
G37*
G36*
X-10260733Y-105712500D02*
G01*
X-10199002Y-105724779D01*
X-10150004Y-105745075D01*
X-10080711Y-105773777D01*
X-10080710Y-105773778D01*
X-9974249Y-105844912D01*
X-9883712Y-105935449D01*
X-9875226Y-105948150D01*
X-9812577Y-106041911D01*
X-9763579Y-106160203D01*
X-9738600Y-106285779D01*
X-9738600Y-106413821D01*
X-9755253Y-106497538D01*
X-9758526Y-106513997D01*
X-9763579Y-106539397D01*
X-9812577Y-106657689D01*
X-9812578Y-106657690D01*
X-9883712Y-106764151D01*
X-9974249Y-106854688D01*
X-10023689Y-106887722D01*
X-10080711Y-106925823D01*
X-10111372Y-106938523D01*
X-10199002Y-106974821D01*
X-10237607Y-106982500D01*
X-10324579Y-106999800D01*
X-10452621Y-106999800D01*
X-10539593Y-106982500D01*
X-10578198Y-106974821D01*
X-10665828Y-106938523D01*
X-10696489Y-106925823D01*
X-10753511Y-106887722D01*
X-10802951Y-106854688D01*
X-10893488Y-106764151D01*
X-10964622Y-106657690D01*
X-10964623Y-106657689D01*
X-11013621Y-106539397D01*
X-11018673Y-106513997D01*
X-11021947Y-106497538D01*
X-11038600Y-106413821D01*
X-11038600Y-106285779D01*
X-11013621Y-106160203D01*
X-10964623Y-106041911D01*
X-10901974Y-105948150D01*
X-10893488Y-105935449D01*
X-10802951Y-105844912D01*
X-10696490Y-105773778D01*
X-10696489Y-105773777D01*
X-10627196Y-105745075D01*
X-10578198Y-105724779D01*
X-10516467Y-105712500D01*
X-10452621Y-105699800D01*
X-10324579Y-105699800D01*
X-10260733Y-105712500D01*
G37*
G36*
X-1325462Y-105691053D02*
G01*
X-1283602Y-105699379D01*
X-1251926Y-105712500D01*
X-1165311Y-105748377D01*
X-1165310Y-105748378D01*
X-1058849Y-105819512D01*
X-968312Y-105910049D01*
X-951340Y-105935450D01*
X-897177Y-106016511D01*
X-886656Y-106041911D01*
X-848179Y-106134802D01*
X-840601Y-106172902D01*
X-823200Y-106260379D01*
X-823200Y-106388421D01*
X-848179Y-106513997D01*
X-897177Y-106632289D01*
X-920782Y-106667616D01*
X-968312Y-106738751D01*
X-1058849Y-106829288D01*
X-1129984Y-106876818D01*
X-1165311Y-106900423D01*
X-1226630Y-106925822D01*
X-1283602Y-106949421D01*
X-1320091Y-106956679D01*
X-1409179Y-106974400D01*
X-1537221Y-106974400D01*
X-1626309Y-106956679D01*
X-1662798Y-106949421D01*
X-1719770Y-106925822D01*
X-1781089Y-106900423D01*
X-1816416Y-106876818D01*
X-1887551Y-106829288D01*
X-1978088Y-106738751D01*
X-2025618Y-106667616D01*
X-2049223Y-106632289D01*
X-2098221Y-106513997D01*
X-2123200Y-106388421D01*
X-2123200Y-106260379D01*
X-2105799Y-106172902D01*
X-2098221Y-106134802D01*
X-2059744Y-106041911D01*
X-2049223Y-106016511D01*
X-1995060Y-105935450D01*
X-1978088Y-105910049D01*
X-1887551Y-105819512D01*
X-1781090Y-105748378D01*
X-1781089Y-105748377D01*
X-1694474Y-105712500D01*
X-1662798Y-105699379D01*
X-1620938Y-105691053D01*
X-1537221Y-105674400D01*
X-1409179Y-105674400D01*
X-1325462Y-105691053D01*
G37*
G36*
X7938367Y-105674400D02*
G01*
X8000098Y-105686679D01*
X8043896Y-105704821D01*
X8118389Y-105735677D01*
X8128600Y-105742500D01*
X8224851Y-105806812D01*
X8315388Y-105897349D01*
X8362918Y-105968484D01*
X8386523Y-106003811D01*
X8435521Y-106122103D01*
X8460500Y-106247679D01*
X8460500Y-106375721D01*
X8435521Y-106501297D01*
X8386523Y-106619589D01*
X8386522Y-106619590D01*
X8315388Y-106726051D01*
X8224851Y-106816588D01*
X8153716Y-106864118D01*
X8118389Y-106887723D01*
X8087728Y-106900423D01*
X8000098Y-106936721D01*
X7961493Y-106944400D01*
X7874521Y-106961700D01*
X7746479Y-106961700D01*
X7659507Y-106944400D01*
X7620902Y-106936721D01*
X7533272Y-106900423D01*
X7502611Y-106887723D01*
X7467284Y-106864118D01*
X7396149Y-106816588D01*
X7305612Y-106726051D01*
X7234478Y-106619590D01*
X7234477Y-106619589D01*
X7185479Y-106501297D01*
X7160500Y-106375721D01*
X7160500Y-106247679D01*
X7185479Y-106122103D01*
X7234477Y-106003811D01*
X7258082Y-105968484D01*
X7305612Y-105897349D01*
X7396149Y-105806812D01*
X7492400Y-105742500D01*
X7502611Y-105735677D01*
X7577104Y-105704821D01*
X7620902Y-105686679D01*
X7682633Y-105674400D01*
X7746479Y-105661700D01*
X7874521Y-105661700D01*
X7938367Y-105674400D01*
G37*
G36*
X19134238Y-104459153D02*
G01*
X19176098Y-104467479D01*
X19202410Y-104478378D01*
X19294389Y-104516477D01*
X19294390Y-104516478D01*
X19400851Y-104587612D01*
X19491388Y-104678149D01*
X19528579Y-104733810D01*
X19562523Y-104784611D01*
X19611521Y-104902903D01*
X19636500Y-105028479D01*
X19636500Y-105156521D01*
X19611521Y-105282097D01*
X19562523Y-105400389D01*
X19562522Y-105400390D01*
X19491388Y-105506851D01*
X19400851Y-105597388D01*
X19370417Y-105617723D01*
X19294389Y-105668523D01*
X19225096Y-105697225D01*
X19176098Y-105717521D01*
X19139609Y-105724779D01*
X19050521Y-105742500D01*
X18922479Y-105742500D01*
X18833391Y-105724779D01*
X18796902Y-105717521D01*
X18747904Y-105697225D01*
X18678611Y-105668523D01*
X18602583Y-105617723D01*
X18572149Y-105597388D01*
X18481612Y-105506851D01*
X18410478Y-105400390D01*
X18410477Y-105400389D01*
X18361479Y-105282097D01*
X18336500Y-105156521D01*
X18336500Y-105028479D01*
X18361479Y-104902903D01*
X18410477Y-104784611D01*
X18444421Y-104733810D01*
X18481612Y-104678149D01*
X18572149Y-104587612D01*
X18678610Y-104516478D01*
X18678611Y-104516477D01*
X18770590Y-104478378D01*
X18796902Y-104467479D01*
X18838762Y-104459153D01*
X18922479Y-104442500D01*
X19050521Y-104442500D01*
X19134238Y-104459153D01*
G37*
G36*
X-7720733Y-104442500D02*
G01*
X-7659002Y-104454779D01*
X-7610004Y-104475075D01*
X-7540711Y-104503777D01*
X-7540710Y-104503778D01*
X-7434249Y-104574912D01*
X-7343712Y-104665449D01*
X-7335226Y-104678150D01*
X-7272577Y-104771911D01*
X-7223579Y-104890203D01*
X-7198600Y-105015779D01*
X-7198600Y-105143821D01*
X-7215253Y-105227538D01*
X-7218526Y-105243997D01*
X-7223579Y-105269397D01*
X-7272577Y-105387689D01*
X-7272578Y-105387690D01*
X-7343712Y-105494151D01*
X-7434249Y-105584688D01*
X-7483689Y-105617722D01*
X-7540711Y-105655823D01*
X-7571372Y-105668523D01*
X-7659002Y-105704821D01*
X-7697607Y-105712500D01*
X-7784579Y-105729800D01*
X-7912621Y-105729800D01*
X-7999593Y-105712500D01*
X-8038198Y-105704821D01*
X-8125828Y-105668523D01*
X-8156489Y-105655823D01*
X-8213511Y-105617722D01*
X-8262951Y-105584688D01*
X-8353488Y-105494151D01*
X-8424622Y-105387690D01*
X-8424623Y-105387689D01*
X-8473621Y-105269397D01*
X-8478673Y-105243997D01*
X-8481947Y-105227538D01*
X-8498600Y-105143821D01*
X-8498600Y-105015779D01*
X-8473621Y-104890203D01*
X-8424623Y-104771911D01*
X-8361974Y-104678150D01*
X-8353488Y-104665449D01*
X-8262951Y-104574912D01*
X-8156490Y-104503778D01*
X-8156489Y-104503777D01*
X-8087196Y-104475075D01*
X-8038198Y-104454779D01*
X-7976467Y-104442500D01*
X-7912621Y-104429800D01*
X-7784579Y-104429800D01*
X-7720733Y-104442500D01*
G37*
G36*
X1214538Y-104421053D02*
G01*
X1256398Y-104429379D01*
X1288074Y-104442500D01*
X1374689Y-104478377D01*
X1374690Y-104478378D01*
X1481151Y-104549512D01*
X1571688Y-104640049D01*
X1588660Y-104665450D01*
X1642823Y-104746511D01*
X1653344Y-104771911D01*
X1691821Y-104864802D01*
X1699399Y-104902902D01*
X1716800Y-104990379D01*
X1716800Y-105118421D01*
X1691821Y-105243997D01*
X1642823Y-105362289D01*
X1619218Y-105397616D01*
X1571688Y-105468751D01*
X1481151Y-105559288D01*
X1410016Y-105606818D01*
X1374689Y-105630423D01*
X1313370Y-105655822D01*
X1256398Y-105679421D01*
X1219909Y-105686679D01*
X1130821Y-105704400D01*
X1002779Y-105704400D01*
X913691Y-105686679D01*
X877202Y-105679421D01*
X820230Y-105655822D01*
X758911Y-105630423D01*
X723584Y-105606818D01*
X652449Y-105559288D01*
X561912Y-105468751D01*
X514382Y-105397616D01*
X490777Y-105362289D01*
X441779Y-105243997D01*
X416800Y-105118421D01*
X416800Y-104990379D01*
X434201Y-104902902D01*
X441779Y-104864802D01*
X480256Y-104771911D01*
X490777Y-104746511D01*
X544940Y-104665450D01*
X561912Y-104640049D01*
X652449Y-104549512D01*
X758910Y-104478378D01*
X758911Y-104478377D01*
X845526Y-104442500D01*
X877202Y-104429379D01*
X919062Y-104421053D01*
X1002779Y-104404400D01*
X1130821Y-104404400D01*
X1214538Y-104421053D01*
G37*
G36*
X10478367Y-104404400D02*
G01*
X10540098Y-104416679D01*
X10583896Y-104434821D01*
X10658389Y-104465677D01*
X10668600Y-104472500D01*
X10764851Y-104536812D01*
X10855388Y-104627349D01*
X10902918Y-104698484D01*
X10926523Y-104733811D01*
X10975521Y-104852103D01*
X11000500Y-104977679D01*
X11000500Y-105105721D01*
X10975521Y-105231297D01*
X10926523Y-105349589D01*
X10926522Y-105349590D01*
X10855388Y-105456051D01*
X10764851Y-105546588D01*
X10693716Y-105594118D01*
X10658389Y-105617723D01*
X10627728Y-105630423D01*
X10540098Y-105666721D01*
X10501493Y-105674400D01*
X10414521Y-105691700D01*
X10286479Y-105691700D01*
X10199507Y-105674400D01*
X10160902Y-105666721D01*
X10073272Y-105630423D01*
X10042611Y-105617723D01*
X10007284Y-105594118D01*
X9936149Y-105546588D01*
X9845612Y-105456051D01*
X9774478Y-105349590D01*
X9774477Y-105349589D01*
X9725479Y-105231297D01*
X9700500Y-105105721D01*
X9700500Y-104977679D01*
X9725479Y-104852103D01*
X9774477Y-104733811D01*
X9798082Y-104698484D01*
X9845612Y-104627349D01*
X9936149Y-104536812D01*
X10032400Y-104472500D01*
X10042611Y-104465677D01*
X10117104Y-104434821D01*
X10160902Y-104416679D01*
X10222633Y-104404400D01*
X10286479Y-104391700D01*
X10414521Y-104391700D01*
X10478367Y-104404400D01*
G37*
G36*
X16594238Y-103189153D02*
G01*
X16636098Y-103197479D01*
X16662410Y-103208378D01*
X16754389Y-103246477D01*
X16754390Y-103246478D01*
X16860851Y-103317612D01*
X16951388Y-103408149D01*
X16988579Y-103463810D01*
X17022523Y-103514611D01*
X17071521Y-103632903D01*
X17096500Y-103758479D01*
X17096500Y-103886521D01*
X17071521Y-104012097D01*
X17022523Y-104130389D01*
X17022522Y-104130390D01*
X16951388Y-104236851D01*
X16860851Y-104327388D01*
X16830417Y-104347723D01*
X16754389Y-104398523D01*
X16685096Y-104427225D01*
X16636098Y-104447521D01*
X16599609Y-104454779D01*
X16510521Y-104472500D01*
X16382479Y-104472500D01*
X16293391Y-104454779D01*
X16256902Y-104447521D01*
X16207904Y-104427225D01*
X16138611Y-104398523D01*
X16062583Y-104347723D01*
X16032149Y-104327388D01*
X15941612Y-104236851D01*
X15870478Y-104130390D01*
X15870477Y-104130389D01*
X15821479Y-104012097D01*
X15796500Y-103886521D01*
X15796500Y-103758479D01*
X15821479Y-103632903D01*
X15870477Y-103514611D01*
X15904421Y-103463810D01*
X15941612Y-103408149D01*
X16032149Y-103317612D01*
X16138610Y-103246478D01*
X16138611Y-103246477D01*
X16230590Y-103208378D01*
X16256902Y-103197479D01*
X16298762Y-103189153D01*
X16382479Y-103172500D01*
X16510521Y-103172500D01*
X16594238Y-103189153D01*
G37*
G36*
X-10260733Y-103172500D02*
G01*
X-10199002Y-103184779D01*
X-10150004Y-103205075D01*
X-10080711Y-103233777D01*
X-10080710Y-103233778D01*
X-9974249Y-103304912D01*
X-9883712Y-103395449D01*
X-9875226Y-103408150D01*
X-9812577Y-103501911D01*
X-9763579Y-103620203D01*
X-9738600Y-103745779D01*
X-9738600Y-103873821D01*
X-9755253Y-103957538D01*
X-9758526Y-103973997D01*
X-9763579Y-103999397D01*
X-9812577Y-104117689D01*
X-9812578Y-104117690D01*
X-9883712Y-104224151D01*
X-9974249Y-104314688D01*
X-10023689Y-104347722D01*
X-10080711Y-104385823D01*
X-10111372Y-104398523D01*
X-10199002Y-104434821D01*
X-10237607Y-104442500D01*
X-10324579Y-104459800D01*
X-10452621Y-104459800D01*
X-10539593Y-104442500D01*
X-10578198Y-104434821D01*
X-10665828Y-104398523D01*
X-10696489Y-104385823D01*
X-10753511Y-104347722D01*
X-10802951Y-104314688D01*
X-10893488Y-104224151D01*
X-10964622Y-104117690D01*
X-10964623Y-104117689D01*
X-11013621Y-103999397D01*
X-11018673Y-103973997D01*
X-11021947Y-103957538D01*
X-11038600Y-103873821D01*
X-11038600Y-103745779D01*
X-11013621Y-103620203D01*
X-10964623Y-103501911D01*
X-10901974Y-103408150D01*
X-10893488Y-103395449D01*
X-10802951Y-103304912D01*
X-10696490Y-103233778D01*
X-10696489Y-103233777D01*
X-10627196Y-103205075D01*
X-10578198Y-103184779D01*
X-10516467Y-103172500D01*
X-10452621Y-103159800D01*
X-10324579Y-103159800D01*
X-10260733Y-103172500D01*
G37*
G36*
X-1325462Y-103151053D02*
G01*
X-1283602Y-103159379D01*
X-1251926Y-103172500D01*
X-1165311Y-103208377D01*
X-1165310Y-103208378D01*
X-1058849Y-103279512D01*
X-968312Y-103370049D01*
X-951340Y-103395450D01*
X-897177Y-103476511D01*
X-886656Y-103501911D01*
X-848179Y-103594802D01*
X-840601Y-103632902D01*
X-823200Y-103720379D01*
X-823200Y-103848421D01*
X-848179Y-103973997D01*
X-897177Y-104092289D01*
X-920782Y-104127616D01*
X-968312Y-104198751D01*
X-1058849Y-104289288D01*
X-1129984Y-104336818D01*
X-1165311Y-104360423D01*
X-1226630Y-104385822D01*
X-1283602Y-104409421D01*
X-1320091Y-104416679D01*
X-1409179Y-104434400D01*
X-1537221Y-104434400D01*
X-1626309Y-104416679D01*
X-1662798Y-104409421D01*
X-1719770Y-104385822D01*
X-1781089Y-104360423D01*
X-1816416Y-104336818D01*
X-1887551Y-104289288D01*
X-1978088Y-104198751D01*
X-2025618Y-104127616D01*
X-2049223Y-104092289D01*
X-2098221Y-103973997D01*
X-2123200Y-103848421D01*
X-2123200Y-103720379D01*
X-2105799Y-103632902D01*
X-2098221Y-103594802D01*
X-2059744Y-103501911D01*
X-2049223Y-103476511D01*
X-1995060Y-103395450D01*
X-1978088Y-103370049D01*
X-1887551Y-103279512D01*
X-1781090Y-103208378D01*
X-1781089Y-103208377D01*
X-1694474Y-103172500D01*
X-1662798Y-103159379D01*
X-1620938Y-103151053D01*
X-1537221Y-103134400D01*
X-1409179Y-103134400D01*
X-1325462Y-103151053D01*
G37*
G36*
X7938367Y-103134400D02*
G01*
X8000098Y-103146679D01*
X8043896Y-103164821D01*
X8118389Y-103195677D01*
X8128600Y-103202500D01*
X8224851Y-103266812D01*
X8315388Y-103357349D01*
X8362918Y-103428484D01*
X8386523Y-103463811D01*
X8435521Y-103582103D01*
X8460500Y-103707679D01*
X8460500Y-103835721D01*
X8435521Y-103961297D01*
X8386523Y-104079589D01*
X8386522Y-104079590D01*
X8315388Y-104186051D01*
X8224851Y-104276588D01*
X8153716Y-104324118D01*
X8118389Y-104347723D01*
X8087728Y-104360423D01*
X8000098Y-104396721D01*
X7961493Y-104404400D01*
X7874521Y-104421700D01*
X7746479Y-104421700D01*
X7659507Y-104404400D01*
X7620902Y-104396721D01*
X7533272Y-104360423D01*
X7502611Y-104347723D01*
X7467284Y-104324118D01*
X7396149Y-104276588D01*
X7305612Y-104186051D01*
X7234478Y-104079590D01*
X7234477Y-104079589D01*
X7185479Y-103961297D01*
X7160500Y-103835721D01*
X7160500Y-103707679D01*
X7185479Y-103582103D01*
X7234477Y-103463811D01*
X7258082Y-103428484D01*
X7305612Y-103357349D01*
X7396149Y-103266812D01*
X7492400Y-103202500D01*
X7502611Y-103195677D01*
X7577104Y-103164821D01*
X7620902Y-103146679D01*
X7682633Y-103134400D01*
X7746479Y-103121700D01*
X7874521Y-103121700D01*
X7938367Y-103134400D01*
G37*
G36*
X19134238Y-101919153D02*
G01*
X19176098Y-101927479D01*
X19202410Y-101938378D01*
X19294389Y-101976477D01*
X19294390Y-101976478D01*
X19400851Y-102047612D01*
X19491388Y-102138149D01*
X19528579Y-102193810D01*
X19562523Y-102244611D01*
X19611521Y-102362903D01*
X19636500Y-102488479D01*
X19636500Y-102616521D01*
X19611521Y-102742097D01*
X19562523Y-102860389D01*
X19562522Y-102860390D01*
X19491388Y-102966851D01*
X19400851Y-103057388D01*
X19370417Y-103077723D01*
X19294389Y-103128523D01*
X19225096Y-103157225D01*
X19176098Y-103177521D01*
X19139609Y-103184779D01*
X19050521Y-103202500D01*
X18922479Y-103202500D01*
X18833391Y-103184779D01*
X18796902Y-103177521D01*
X18747904Y-103157225D01*
X18678611Y-103128523D01*
X18602583Y-103077723D01*
X18572149Y-103057388D01*
X18481612Y-102966851D01*
X18410478Y-102860390D01*
X18410477Y-102860389D01*
X18361479Y-102742097D01*
X18336500Y-102616521D01*
X18336500Y-102488479D01*
X18361479Y-102362903D01*
X18410477Y-102244611D01*
X18444421Y-102193810D01*
X18481612Y-102138149D01*
X18572149Y-102047612D01*
X18678610Y-101976478D01*
X18678611Y-101976477D01*
X18770590Y-101938378D01*
X18796902Y-101927479D01*
X18838762Y-101919153D01*
X18922479Y-101902500D01*
X19050521Y-101902500D01*
X19134238Y-101919153D01*
G37*
G36*
X-7720733Y-101902500D02*
G01*
X-7659002Y-101914779D01*
X-7610004Y-101935075D01*
X-7540711Y-101963777D01*
X-7540710Y-101963778D01*
X-7434249Y-102034912D01*
X-7343712Y-102125449D01*
X-7335226Y-102138150D01*
X-7272577Y-102231911D01*
X-7223579Y-102350203D01*
X-7198600Y-102475779D01*
X-7198600Y-102603821D01*
X-7215253Y-102687538D01*
X-7218526Y-102703997D01*
X-7223579Y-102729397D01*
X-7272577Y-102847689D01*
X-7272578Y-102847690D01*
X-7343712Y-102954151D01*
X-7434249Y-103044688D01*
X-7483689Y-103077722D01*
X-7540711Y-103115823D01*
X-7571372Y-103128523D01*
X-7659002Y-103164821D01*
X-7697607Y-103172500D01*
X-7784579Y-103189800D01*
X-7912621Y-103189800D01*
X-7999593Y-103172500D01*
X-8038198Y-103164821D01*
X-8125828Y-103128523D01*
X-8156489Y-103115823D01*
X-8213511Y-103077722D01*
X-8262951Y-103044688D01*
X-8353488Y-102954151D01*
X-8424622Y-102847690D01*
X-8424623Y-102847689D01*
X-8473621Y-102729397D01*
X-8478673Y-102703997D01*
X-8481947Y-102687538D01*
X-8498600Y-102603821D01*
X-8498600Y-102475779D01*
X-8473621Y-102350203D01*
X-8424623Y-102231911D01*
X-8361974Y-102138150D01*
X-8353488Y-102125449D01*
X-8262951Y-102034912D01*
X-8156490Y-101963778D01*
X-8156489Y-101963777D01*
X-8087196Y-101935075D01*
X-8038198Y-101914779D01*
X-7976467Y-101902500D01*
X-7912621Y-101889800D01*
X-7784579Y-101889800D01*
X-7720733Y-101902500D01*
G37*
G36*
X1214538Y-101881053D02*
G01*
X1256398Y-101889379D01*
X1288074Y-101902500D01*
X1374689Y-101938377D01*
X1374690Y-101938378D01*
X1481151Y-102009512D01*
X1571688Y-102100049D01*
X1588660Y-102125450D01*
X1642823Y-102206511D01*
X1653344Y-102231911D01*
X1691821Y-102324802D01*
X1699399Y-102362902D01*
X1716800Y-102450379D01*
X1716800Y-102578421D01*
X1691821Y-102703997D01*
X1642823Y-102822289D01*
X1619218Y-102857616D01*
X1571688Y-102928751D01*
X1481151Y-103019288D01*
X1410016Y-103066818D01*
X1374689Y-103090423D01*
X1313370Y-103115822D01*
X1256398Y-103139421D01*
X1219909Y-103146679D01*
X1130821Y-103164400D01*
X1002779Y-103164400D01*
X913691Y-103146679D01*
X877202Y-103139421D01*
X820230Y-103115822D01*
X758911Y-103090423D01*
X723584Y-103066818D01*
X652449Y-103019288D01*
X561912Y-102928751D01*
X514382Y-102857616D01*
X490777Y-102822289D01*
X441779Y-102703997D01*
X416800Y-102578421D01*
X416800Y-102450379D01*
X434201Y-102362902D01*
X441779Y-102324802D01*
X480256Y-102231911D01*
X490777Y-102206511D01*
X544940Y-102125450D01*
X561912Y-102100049D01*
X652449Y-102009512D01*
X758910Y-101938378D01*
X758911Y-101938377D01*
X845526Y-101902500D01*
X877202Y-101889379D01*
X919062Y-101881053D01*
X1002779Y-101864400D01*
X1130821Y-101864400D01*
X1214538Y-101881053D01*
G37*
G36*
X10478367Y-101864400D02*
G01*
X10540098Y-101876679D01*
X10583896Y-101894821D01*
X10658389Y-101925677D01*
X10668600Y-101932500D01*
X10764851Y-101996812D01*
X10855388Y-102087349D01*
X10902918Y-102158484D01*
X10926523Y-102193811D01*
X10975521Y-102312103D01*
X11000500Y-102437679D01*
X11000500Y-102565721D01*
X10975521Y-102691297D01*
X10926523Y-102809589D01*
X10926522Y-102809590D01*
X10855388Y-102916051D01*
X10764851Y-103006588D01*
X10693716Y-103054118D01*
X10658389Y-103077723D01*
X10627728Y-103090423D01*
X10540098Y-103126721D01*
X10501493Y-103134400D01*
X10414521Y-103151700D01*
X10286479Y-103151700D01*
X10199507Y-103134400D01*
X10160902Y-103126721D01*
X10073272Y-103090423D01*
X10042611Y-103077723D01*
X10007284Y-103054118D01*
X9936149Y-103006588D01*
X9845612Y-102916051D01*
X9774478Y-102809590D01*
X9774477Y-102809589D01*
X9725479Y-102691297D01*
X9700500Y-102565721D01*
X9700500Y-102437679D01*
X9725479Y-102312103D01*
X9774477Y-102193811D01*
X9798082Y-102158484D01*
X9845612Y-102087349D01*
X9936149Y-101996812D01*
X10032400Y-101932500D01*
X10042611Y-101925677D01*
X10117104Y-101894821D01*
X10160902Y-101876679D01*
X10222633Y-101864400D01*
X10286479Y-101851700D01*
X10414521Y-101851700D01*
X10478367Y-101864400D01*
G37*
G36*
X16594238Y-100649153D02*
G01*
X16636098Y-100657479D01*
X16662410Y-100668378D01*
X16754389Y-100706477D01*
X16754390Y-100706478D01*
X16860851Y-100777612D01*
X16951388Y-100868149D01*
X16988579Y-100923810D01*
X17022523Y-100974611D01*
X17071521Y-101092903D01*
X17096500Y-101218479D01*
X17096500Y-101346521D01*
X17071521Y-101472097D01*
X17022523Y-101590389D01*
X17022522Y-101590390D01*
X16951388Y-101696851D01*
X16860851Y-101787388D01*
X16830417Y-101807723D01*
X16754389Y-101858523D01*
X16685096Y-101887225D01*
X16636098Y-101907521D01*
X16599609Y-101914779D01*
X16510521Y-101932500D01*
X16382479Y-101932500D01*
X16293391Y-101914779D01*
X16256902Y-101907521D01*
X16207904Y-101887225D01*
X16138611Y-101858523D01*
X16062583Y-101807723D01*
X16032149Y-101787388D01*
X15941612Y-101696851D01*
X15870478Y-101590390D01*
X15870477Y-101590389D01*
X15821479Y-101472097D01*
X15796500Y-101346521D01*
X15796500Y-101218479D01*
X15821479Y-101092903D01*
X15870477Y-100974611D01*
X15904421Y-100923810D01*
X15941612Y-100868149D01*
X16032149Y-100777612D01*
X16138610Y-100706478D01*
X16138611Y-100706477D01*
X16230590Y-100668378D01*
X16256902Y-100657479D01*
X16298762Y-100649153D01*
X16382479Y-100632500D01*
X16510521Y-100632500D01*
X16594238Y-100649153D01*
G37*
G36*
X-10260733Y-100632500D02*
G01*
X-10199002Y-100644779D01*
X-10150004Y-100665075D01*
X-10080711Y-100693777D01*
X-10080710Y-100693778D01*
X-9974249Y-100764912D01*
X-9883712Y-100855449D01*
X-9875226Y-100868150D01*
X-9812577Y-100961911D01*
X-9763579Y-101080203D01*
X-9738600Y-101205779D01*
X-9738600Y-101333821D01*
X-9755253Y-101417538D01*
X-9758526Y-101433997D01*
X-9763579Y-101459397D01*
X-9812577Y-101577689D01*
X-9812578Y-101577690D01*
X-9883712Y-101684151D01*
X-9974249Y-101774688D01*
X-10023689Y-101807722D01*
X-10080711Y-101845823D01*
X-10111372Y-101858523D01*
X-10199002Y-101894821D01*
X-10237607Y-101902500D01*
X-10324579Y-101919800D01*
X-10452621Y-101919800D01*
X-10539593Y-101902500D01*
X-10578198Y-101894821D01*
X-10665828Y-101858523D01*
X-10696489Y-101845823D01*
X-10753511Y-101807722D01*
X-10802951Y-101774688D01*
X-10893488Y-101684151D01*
X-10964622Y-101577690D01*
X-10964623Y-101577689D01*
X-11013621Y-101459397D01*
X-11018673Y-101433997D01*
X-11021947Y-101417538D01*
X-11038600Y-101333821D01*
X-11038600Y-101205779D01*
X-11013621Y-101080203D01*
X-10964623Y-100961911D01*
X-10901974Y-100868150D01*
X-10893488Y-100855449D01*
X-10802951Y-100764912D01*
X-10696490Y-100693778D01*
X-10696489Y-100693777D01*
X-10627196Y-100665075D01*
X-10578198Y-100644779D01*
X-10516467Y-100632500D01*
X-10452621Y-100619800D01*
X-10324579Y-100619800D01*
X-10260733Y-100632500D01*
G37*
G36*
X-1325462Y-100611053D02*
G01*
X-1283602Y-100619379D01*
X-1251926Y-100632500D01*
X-1165311Y-100668377D01*
X-1165310Y-100668378D01*
X-1058849Y-100739512D01*
X-968312Y-100830049D01*
X-951340Y-100855450D01*
X-897177Y-100936511D01*
X-886656Y-100961911D01*
X-848179Y-101054802D01*
X-840601Y-101092902D01*
X-823200Y-101180379D01*
X-823200Y-101308421D01*
X-848179Y-101433997D01*
X-897177Y-101552289D01*
X-920782Y-101587616D01*
X-968312Y-101658751D01*
X-1058849Y-101749288D01*
X-1129984Y-101796818D01*
X-1165311Y-101820423D01*
X-1226630Y-101845822D01*
X-1283602Y-101869421D01*
X-1320091Y-101876679D01*
X-1409179Y-101894400D01*
X-1537221Y-101894400D01*
X-1626309Y-101876679D01*
X-1662798Y-101869421D01*
X-1719770Y-101845822D01*
X-1781089Y-101820423D01*
X-1816416Y-101796818D01*
X-1887551Y-101749288D01*
X-1978088Y-101658751D01*
X-2025618Y-101587616D01*
X-2049223Y-101552289D01*
X-2098221Y-101433997D01*
X-2123200Y-101308421D01*
X-2123200Y-101180379D01*
X-2105799Y-101092902D01*
X-2098221Y-101054802D01*
X-2059744Y-100961911D01*
X-2049223Y-100936511D01*
X-1995060Y-100855450D01*
X-1978088Y-100830049D01*
X-1887551Y-100739512D01*
X-1781090Y-100668378D01*
X-1781089Y-100668377D01*
X-1694474Y-100632500D01*
X-1662798Y-100619379D01*
X-1620938Y-100611053D01*
X-1537221Y-100594400D01*
X-1409179Y-100594400D01*
X-1325462Y-100611053D01*
G37*
G36*
X7938367Y-100594400D02*
G01*
X8000098Y-100606679D01*
X8043896Y-100624821D01*
X8118389Y-100655677D01*
X8128600Y-100662500D01*
X8224851Y-100726812D01*
X8315388Y-100817349D01*
X8362918Y-100888484D01*
X8386523Y-100923811D01*
X8435521Y-101042103D01*
X8460500Y-101167679D01*
X8460500Y-101295721D01*
X8435521Y-101421297D01*
X8386523Y-101539589D01*
X8386522Y-101539590D01*
X8315388Y-101646051D01*
X8224851Y-101736588D01*
X8153716Y-101784118D01*
X8118389Y-101807723D01*
X8087728Y-101820423D01*
X8000098Y-101856721D01*
X7961493Y-101864400D01*
X7874521Y-101881700D01*
X7746479Y-101881700D01*
X7659507Y-101864400D01*
X7620902Y-101856721D01*
X7533272Y-101820423D01*
X7502611Y-101807723D01*
X7467284Y-101784118D01*
X7396149Y-101736588D01*
X7305612Y-101646051D01*
X7234478Y-101539590D01*
X7234477Y-101539589D01*
X7185479Y-101421297D01*
X7160500Y-101295721D01*
X7160500Y-101167679D01*
X7185479Y-101042103D01*
X7234477Y-100923811D01*
X7258082Y-100888484D01*
X7305612Y-100817349D01*
X7396149Y-100726812D01*
X7492400Y-100662500D01*
X7502611Y-100655677D01*
X7577104Y-100624821D01*
X7620902Y-100606679D01*
X7682633Y-100594400D01*
X7746479Y-100581700D01*
X7874521Y-100581700D01*
X7938367Y-100594400D01*
G37*
G36*
X19134238Y-99379153D02*
G01*
X19176098Y-99387479D01*
X19202410Y-99398378D01*
X19294389Y-99436477D01*
X19294390Y-99436478D01*
X19400851Y-99507612D01*
X19491388Y-99598149D01*
X19528579Y-99653810D01*
X19562523Y-99704611D01*
X19611521Y-99822903D01*
X19636500Y-99948479D01*
X19636500Y-100076521D01*
X19611521Y-100202097D01*
X19562523Y-100320389D01*
X19562522Y-100320390D01*
X19491388Y-100426851D01*
X19400851Y-100517388D01*
X19370417Y-100537723D01*
X19294389Y-100588523D01*
X19225096Y-100617225D01*
X19176098Y-100637521D01*
X19139609Y-100644779D01*
X19050521Y-100662500D01*
X18922479Y-100662500D01*
X18833391Y-100644779D01*
X18796902Y-100637521D01*
X18747904Y-100617225D01*
X18678611Y-100588523D01*
X18602583Y-100537723D01*
X18572149Y-100517388D01*
X18481612Y-100426851D01*
X18410478Y-100320390D01*
X18410477Y-100320389D01*
X18361479Y-100202097D01*
X18336500Y-100076521D01*
X18336500Y-99948479D01*
X18361479Y-99822903D01*
X18410477Y-99704611D01*
X18444421Y-99653810D01*
X18481612Y-99598149D01*
X18572149Y-99507612D01*
X18678610Y-99436478D01*
X18678611Y-99436477D01*
X18770590Y-99398378D01*
X18796902Y-99387479D01*
X18838762Y-99379153D01*
X18922479Y-99362500D01*
X19050521Y-99362500D01*
X19134238Y-99379153D01*
G37*
G36*
X-7720733Y-99362500D02*
G01*
X-7659002Y-99374779D01*
X-7610004Y-99395075D01*
X-7540711Y-99423777D01*
X-7540710Y-99423778D01*
X-7434249Y-99494912D01*
X-7343712Y-99585449D01*
X-7335226Y-99598150D01*
X-7272577Y-99691911D01*
X-7223579Y-99810203D01*
X-7198600Y-99935779D01*
X-7198600Y-100063821D01*
X-7215253Y-100147538D01*
X-7218526Y-100163997D01*
X-7223579Y-100189397D01*
X-7272577Y-100307689D01*
X-7272578Y-100307690D01*
X-7343712Y-100414151D01*
X-7434249Y-100504688D01*
X-7483689Y-100537722D01*
X-7540711Y-100575823D01*
X-7571372Y-100588523D01*
X-7659002Y-100624821D01*
X-7697607Y-100632500D01*
X-7784579Y-100649800D01*
X-7912621Y-100649800D01*
X-7999593Y-100632500D01*
X-8038198Y-100624821D01*
X-8125828Y-100588523D01*
X-8156489Y-100575823D01*
X-8213511Y-100537722D01*
X-8262951Y-100504688D01*
X-8353488Y-100414151D01*
X-8424622Y-100307690D01*
X-8424623Y-100307689D01*
X-8473621Y-100189397D01*
X-8478673Y-100163997D01*
X-8481947Y-100147538D01*
X-8498600Y-100063821D01*
X-8498600Y-99935779D01*
X-8473621Y-99810203D01*
X-8424623Y-99691911D01*
X-8361974Y-99598150D01*
X-8353488Y-99585449D01*
X-8262951Y-99494912D01*
X-8156490Y-99423778D01*
X-8156489Y-99423777D01*
X-8087196Y-99395075D01*
X-8038198Y-99374779D01*
X-7976467Y-99362500D01*
X-7912621Y-99349800D01*
X-7784579Y-99349800D01*
X-7720733Y-99362500D01*
G37*
G36*
X1214538Y-99341053D02*
G01*
X1256398Y-99349379D01*
X1288074Y-99362500D01*
X1374689Y-99398377D01*
X1374690Y-99398378D01*
X1481151Y-99469512D01*
X1571688Y-99560049D01*
X1588660Y-99585450D01*
X1642823Y-99666511D01*
X1653344Y-99691911D01*
X1691821Y-99784802D01*
X1699399Y-99822902D01*
X1716800Y-99910379D01*
X1716800Y-100038421D01*
X1691821Y-100163997D01*
X1642823Y-100282289D01*
X1619218Y-100317616D01*
X1571688Y-100388751D01*
X1481151Y-100479288D01*
X1410016Y-100526818D01*
X1374689Y-100550423D01*
X1313370Y-100575822D01*
X1256398Y-100599421D01*
X1219909Y-100606679D01*
X1130821Y-100624400D01*
X1002779Y-100624400D01*
X913691Y-100606679D01*
X877202Y-100599421D01*
X820230Y-100575822D01*
X758911Y-100550423D01*
X723584Y-100526818D01*
X652449Y-100479288D01*
X561912Y-100388751D01*
X514382Y-100317616D01*
X490777Y-100282289D01*
X441779Y-100163997D01*
X416800Y-100038421D01*
X416800Y-99910379D01*
X434201Y-99822902D01*
X441779Y-99784802D01*
X480256Y-99691911D01*
X490777Y-99666511D01*
X544940Y-99585450D01*
X561912Y-99560049D01*
X652449Y-99469512D01*
X758910Y-99398378D01*
X758911Y-99398377D01*
X845526Y-99362500D01*
X877202Y-99349379D01*
X919062Y-99341053D01*
X1002779Y-99324400D01*
X1130821Y-99324400D01*
X1214538Y-99341053D01*
G37*
G36*
X10478367Y-99324400D02*
G01*
X10540098Y-99336679D01*
X10583896Y-99354821D01*
X10658389Y-99385677D01*
X10668600Y-99392500D01*
X10764851Y-99456812D01*
X10855388Y-99547349D01*
X10902918Y-99618484D01*
X10926523Y-99653811D01*
X10975521Y-99772103D01*
X11000500Y-99897679D01*
X11000500Y-100025721D01*
X10975521Y-100151297D01*
X10926523Y-100269589D01*
X10926522Y-100269590D01*
X10855388Y-100376051D01*
X10764851Y-100466588D01*
X10693716Y-100514118D01*
X10658389Y-100537723D01*
X10627728Y-100550423D01*
X10540098Y-100586721D01*
X10501493Y-100594400D01*
X10414521Y-100611700D01*
X10286479Y-100611700D01*
X10199507Y-100594400D01*
X10160902Y-100586721D01*
X10073272Y-100550423D01*
X10042611Y-100537723D01*
X10007284Y-100514118D01*
X9936149Y-100466588D01*
X9845612Y-100376051D01*
X9774478Y-100269590D01*
X9774477Y-100269589D01*
X9725479Y-100151297D01*
X9700500Y-100025721D01*
X9700500Y-99897679D01*
X9725479Y-99772103D01*
X9774477Y-99653811D01*
X9798082Y-99618484D01*
X9845612Y-99547349D01*
X9936149Y-99456812D01*
X10032400Y-99392500D01*
X10042611Y-99385677D01*
X10117104Y-99354821D01*
X10160902Y-99336679D01*
X10222633Y-99324400D01*
X10286479Y-99311700D01*
X10414521Y-99311700D01*
X10478367Y-99324400D01*
G37*
G36*
X16594238Y-98109153D02*
G01*
X16636098Y-98117479D01*
X16662410Y-98128378D01*
X16754389Y-98166477D01*
X16754390Y-98166478D01*
X16860851Y-98237612D01*
X16951388Y-98328149D01*
X16988579Y-98383810D01*
X17022523Y-98434611D01*
X17071521Y-98552903D01*
X17096500Y-98678479D01*
X17096500Y-98806521D01*
X17071521Y-98932097D01*
X17022523Y-99050389D01*
X17022522Y-99050390D01*
X16951388Y-99156851D01*
X16860851Y-99247388D01*
X16830417Y-99267723D01*
X16754389Y-99318523D01*
X16685096Y-99347225D01*
X16636098Y-99367521D01*
X16599609Y-99374779D01*
X16510521Y-99392500D01*
X16382479Y-99392500D01*
X16293391Y-99374779D01*
X16256902Y-99367521D01*
X16207904Y-99347225D01*
X16138611Y-99318523D01*
X16062583Y-99267723D01*
X16032149Y-99247388D01*
X15941612Y-99156851D01*
X15870478Y-99050390D01*
X15870477Y-99050389D01*
X15821479Y-98932097D01*
X15796500Y-98806521D01*
X15796500Y-98678479D01*
X15821479Y-98552903D01*
X15870477Y-98434611D01*
X15904421Y-98383810D01*
X15941612Y-98328149D01*
X16032149Y-98237612D01*
X16138610Y-98166478D01*
X16138611Y-98166477D01*
X16230590Y-98128378D01*
X16256902Y-98117479D01*
X16298762Y-98109153D01*
X16382479Y-98092500D01*
X16510521Y-98092500D01*
X16594238Y-98109153D01*
G37*
G36*
X-10260733Y-98092500D02*
G01*
X-10199002Y-98104779D01*
X-10150004Y-98125075D01*
X-10080711Y-98153777D01*
X-10080710Y-98153778D01*
X-9974249Y-98224912D01*
X-9883712Y-98315449D01*
X-9875226Y-98328150D01*
X-9812577Y-98421911D01*
X-9763579Y-98540203D01*
X-9738600Y-98665779D01*
X-9738600Y-98793821D01*
X-9755253Y-98877538D01*
X-9758526Y-98893997D01*
X-9763579Y-98919397D01*
X-9812577Y-99037689D01*
X-9812578Y-99037690D01*
X-9883712Y-99144151D01*
X-9974249Y-99234688D01*
X-10023689Y-99267722D01*
X-10080711Y-99305823D01*
X-10111372Y-99318523D01*
X-10199002Y-99354821D01*
X-10237607Y-99362500D01*
X-10324579Y-99379800D01*
X-10452621Y-99379800D01*
X-10539593Y-99362500D01*
X-10578198Y-99354821D01*
X-10665828Y-99318523D01*
X-10696489Y-99305823D01*
X-10753511Y-99267722D01*
X-10802951Y-99234688D01*
X-10893488Y-99144151D01*
X-10964622Y-99037690D01*
X-10964623Y-99037689D01*
X-11013621Y-98919397D01*
X-11018673Y-98893997D01*
X-11021947Y-98877538D01*
X-11038600Y-98793821D01*
X-11038600Y-98665779D01*
X-11013621Y-98540203D01*
X-10964623Y-98421911D01*
X-10901974Y-98328150D01*
X-10893488Y-98315449D01*
X-10802951Y-98224912D01*
X-10696490Y-98153778D01*
X-10696489Y-98153777D01*
X-10627196Y-98125075D01*
X-10578198Y-98104779D01*
X-10516467Y-98092500D01*
X-10452621Y-98079800D01*
X-10324579Y-98079800D01*
X-10260733Y-98092500D01*
G37*
G36*
X-1325462Y-98071053D02*
G01*
X-1283602Y-98079379D01*
X-1251926Y-98092500D01*
X-1165311Y-98128377D01*
X-1165310Y-98128378D01*
X-1058849Y-98199512D01*
X-968312Y-98290049D01*
X-951340Y-98315450D01*
X-897177Y-98396511D01*
X-886656Y-98421911D01*
X-848179Y-98514802D01*
X-840601Y-98552902D01*
X-823200Y-98640379D01*
X-823200Y-98768421D01*
X-848179Y-98893997D01*
X-897177Y-99012289D01*
X-920782Y-99047616D01*
X-968312Y-99118751D01*
X-1058849Y-99209288D01*
X-1129984Y-99256818D01*
X-1165311Y-99280423D01*
X-1226630Y-99305822D01*
X-1283602Y-99329421D01*
X-1320091Y-99336679D01*
X-1409179Y-99354400D01*
X-1537221Y-99354400D01*
X-1626309Y-99336679D01*
X-1662798Y-99329421D01*
X-1719770Y-99305822D01*
X-1781089Y-99280423D01*
X-1816416Y-99256818D01*
X-1887551Y-99209288D01*
X-1978088Y-99118751D01*
X-2025618Y-99047616D01*
X-2049223Y-99012289D01*
X-2098221Y-98893997D01*
X-2123200Y-98768421D01*
X-2123200Y-98640379D01*
X-2105799Y-98552902D01*
X-2098221Y-98514802D01*
X-2059744Y-98421911D01*
X-2049223Y-98396511D01*
X-1995060Y-98315450D01*
X-1978088Y-98290049D01*
X-1887551Y-98199512D01*
X-1781090Y-98128378D01*
X-1781089Y-98128377D01*
X-1694474Y-98092500D01*
X-1662798Y-98079379D01*
X-1620938Y-98071053D01*
X-1537221Y-98054400D01*
X-1409179Y-98054400D01*
X-1325462Y-98071053D01*
G37*
G36*
X7938367Y-98054400D02*
G01*
X8000098Y-98066679D01*
X8043896Y-98084821D01*
X8118389Y-98115677D01*
X8128600Y-98122500D01*
X8224851Y-98186812D01*
X8315388Y-98277349D01*
X8362918Y-98348484D01*
X8386523Y-98383811D01*
X8435521Y-98502103D01*
X8460500Y-98627679D01*
X8460500Y-98755721D01*
X8435521Y-98881297D01*
X8386523Y-98999589D01*
X8386522Y-98999590D01*
X8315388Y-99106051D01*
X8224851Y-99196588D01*
X8153716Y-99244118D01*
X8118389Y-99267723D01*
X8087728Y-99280423D01*
X8000098Y-99316721D01*
X7961493Y-99324400D01*
X7874521Y-99341700D01*
X7746479Y-99341700D01*
X7659507Y-99324400D01*
X7620902Y-99316721D01*
X7533272Y-99280423D01*
X7502611Y-99267723D01*
X7467284Y-99244118D01*
X7396149Y-99196588D01*
X7305612Y-99106051D01*
X7234478Y-98999590D01*
X7234477Y-98999589D01*
X7185479Y-98881297D01*
X7160500Y-98755721D01*
X7160500Y-98627679D01*
X7185479Y-98502103D01*
X7234477Y-98383811D01*
X7258082Y-98348484D01*
X7305612Y-98277349D01*
X7396149Y-98186812D01*
X7492400Y-98122500D01*
X7502611Y-98115677D01*
X7577104Y-98084821D01*
X7620902Y-98066679D01*
X7682633Y-98054400D01*
X7746479Y-98041700D01*
X7874521Y-98041700D01*
X7938367Y-98054400D01*
G37*
G36*
X19134238Y-96839153D02*
G01*
X19176098Y-96847479D01*
X19202410Y-96858378D01*
X19294389Y-96896477D01*
X19294390Y-96896478D01*
X19400851Y-96967612D01*
X19491388Y-97058149D01*
X19528579Y-97113810D01*
X19562523Y-97164611D01*
X19611521Y-97282903D01*
X19636500Y-97408479D01*
X19636500Y-97536521D01*
X19611521Y-97662097D01*
X19562523Y-97780389D01*
X19562522Y-97780390D01*
X19491388Y-97886851D01*
X19400851Y-97977388D01*
X19370417Y-97997723D01*
X19294389Y-98048523D01*
X19225096Y-98077225D01*
X19176098Y-98097521D01*
X19139609Y-98104779D01*
X19050521Y-98122500D01*
X18922479Y-98122500D01*
X18833391Y-98104779D01*
X18796902Y-98097521D01*
X18747904Y-98077225D01*
X18678611Y-98048523D01*
X18602583Y-97997723D01*
X18572149Y-97977388D01*
X18481612Y-97886851D01*
X18410478Y-97780390D01*
X18410477Y-97780389D01*
X18361479Y-97662097D01*
X18336500Y-97536521D01*
X18336500Y-97408479D01*
X18361479Y-97282903D01*
X18410477Y-97164611D01*
X18444421Y-97113810D01*
X18481612Y-97058149D01*
X18572149Y-96967612D01*
X18678610Y-96896478D01*
X18678611Y-96896477D01*
X18770590Y-96858378D01*
X18796902Y-96847479D01*
X18838762Y-96839153D01*
X18922479Y-96822500D01*
X19050521Y-96822500D01*
X19134238Y-96839153D01*
G37*
G36*
X-7720733Y-96822500D02*
G01*
X-7659002Y-96834779D01*
X-7610004Y-96855075D01*
X-7540711Y-96883777D01*
X-7540710Y-96883778D01*
X-7434249Y-96954912D01*
X-7343712Y-97045449D01*
X-7335226Y-97058150D01*
X-7272577Y-97151911D01*
X-7223579Y-97270203D01*
X-7198600Y-97395779D01*
X-7198600Y-97523821D01*
X-7215253Y-97607538D01*
X-7218526Y-97623997D01*
X-7223579Y-97649397D01*
X-7272577Y-97767689D01*
X-7272578Y-97767690D01*
X-7343712Y-97874151D01*
X-7434249Y-97964688D01*
X-7483689Y-97997722D01*
X-7540711Y-98035823D01*
X-7571372Y-98048523D01*
X-7659002Y-98084821D01*
X-7697607Y-98092500D01*
X-7784579Y-98109800D01*
X-7912621Y-98109800D01*
X-7999593Y-98092500D01*
X-8038198Y-98084821D01*
X-8125828Y-98048523D01*
X-8156489Y-98035823D01*
X-8213511Y-97997722D01*
X-8262951Y-97964688D01*
X-8353488Y-97874151D01*
X-8424622Y-97767690D01*
X-8424623Y-97767689D01*
X-8473621Y-97649397D01*
X-8478673Y-97623997D01*
X-8481947Y-97607538D01*
X-8498600Y-97523821D01*
X-8498600Y-97395779D01*
X-8473621Y-97270203D01*
X-8424623Y-97151911D01*
X-8361974Y-97058150D01*
X-8353488Y-97045449D01*
X-8262951Y-96954912D01*
X-8156490Y-96883778D01*
X-8156489Y-96883777D01*
X-8087196Y-96855075D01*
X-8038198Y-96834779D01*
X-7976467Y-96822500D01*
X-7912621Y-96809800D01*
X-7784579Y-96809800D01*
X-7720733Y-96822500D01*
G37*
G36*
X1214538Y-96801053D02*
G01*
X1256398Y-96809379D01*
X1288074Y-96822500D01*
X1374689Y-96858377D01*
X1374690Y-96858378D01*
X1481151Y-96929512D01*
X1571688Y-97020049D01*
X1588660Y-97045450D01*
X1642823Y-97126511D01*
X1653344Y-97151911D01*
X1691821Y-97244802D01*
X1699399Y-97282902D01*
X1716800Y-97370379D01*
X1716800Y-97498421D01*
X1691821Y-97623997D01*
X1642823Y-97742289D01*
X1619218Y-97777616D01*
X1571688Y-97848751D01*
X1481151Y-97939288D01*
X1410016Y-97986818D01*
X1374689Y-98010423D01*
X1313370Y-98035822D01*
X1256398Y-98059421D01*
X1219909Y-98066679D01*
X1130821Y-98084400D01*
X1002779Y-98084400D01*
X913691Y-98066679D01*
X877202Y-98059421D01*
X820230Y-98035822D01*
X758911Y-98010423D01*
X723584Y-97986818D01*
X652449Y-97939288D01*
X561912Y-97848751D01*
X514382Y-97777616D01*
X490777Y-97742289D01*
X441779Y-97623997D01*
X416800Y-97498421D01*
X416800Y-97370379D01*
X434201Y-97282902D01*
X441779Y-97244802D01*
X480256Y-97151911D01*
X490777Y-97126511D01*
X544940Y-97045450D01*
X561912Y-97020049D01*
X652449Y-96929512D01*
X758910Y-96858378D01*
X758911Y-96858377D01*
X845526Y-96822500D01*
X877202Y-96809379D01*
X919062Y-96801053D01*
X1002779Y-96784400D01*
X1130821Y-96784400D01*
X1214538Y-96801053D01*
G37*
G36*
X10478367Y-96784400D02*
G01*
X10540098Y-96796679D01*
X10583896Y-96814821D01*
X10658389Y-96845677D01*
X10668600Y-96852500D01*
X10764851Y-96916812D01*
X10855388Y-97007349D01*
X10902918Y-97078484D01*
X10926523Y-97113811D01*
X10975521Y-97232103D01*
X11000500Y-97357679D01*
X11000500Y-97485721D01*
X10975521Y-97611297D01*
X10926523Y-97729589D01*
X10926522Y-97729590D01*
X10855388Y-97836051D01*
X10764851Y-97926588D01*
X10693716Y-97974118D01*
X10658389Y-97997723D01*
X10627728Y-98010423D01*
X10540098Y-98046721D01*
X10501493Y-98054400D01*
X10414521Y-98071700D01*
X10286479Y-98071700D01*
X10199507Y-98054400D01*
X10160902Y-98046721D01*
X10073272Y-98010423D01*
X10042611Y-97997723D01*
X10007284Y-97974118D01*
X9936149Y-97926588D01*
X9845612Y-97836051D01*
X9774478Y-97729590D01*
X9774477Y-97729589D01*
X9725479Y-97611297D01*
X9700500Y-97485721D01*
X9700500Y-97357679D01*
X9725479Y-97232103D01*
X9774477Y-97113811D01*
X9798082Y-97078484D01*
X9845612Y-97007349D01*
X9936149Y-96916812D01*
X10032400Y-96852500D01*
X10042611Y-96845677D01*
X10117104Y-96814821D01*
X10160902Y-96796679D01*
X10222633Y-96784400D01*
X10286479Y-96771700D01*
X10414521Y-96771700D01*
X10478367Y-96784400D01*
G37*
G36*
X16581159Y-95566551D02*
G01*
X16636098Y-95577479D01*
X16662410Y-95588378D01*
X16754389Y-95626477D01*
X16754390Y-95626478D01*
X16860851Y-95697612D01*
X16951388Y-95788149D01*
X16988579Y-95843810D01*
X17022523Y-95894611D01*
X17071521Y-96012903D01*
X17096500Y-96138479D01*
X17096500Y-96266521D01*
X17071521Y-96392097D01*
X17022523Y-96510389D01*
X17022522Y-96510390D01*
X16951388Y-96616851D01*
X16860851Y-96707388D01*
X16830417Y-96727723D01*
X16754389Y-96778523D01*
X16685096Y-96807225D01*
X16636098Y-96827521D01*
X16599609Y-96834779D01*
X16510521Y-96852500D01*
X16382479Y-96852500D01*
X16293391Y-96834779D01*
X16256902Y-96827521D01*
X16207904Y-96807225D01*
X16138611Y-96778523D01*
X16062583Y-96727723D01*
X16032149Y-96707388D01*
X15941612Y-96616851D01*
X15870478Y-96510390D01*
X15870477Y-96510389D01*
X15821479Y-96392097D01*
X15796500Y-96266521D01*
X15796500Y-96138479D01*
X15821479Y-96012903D01*
X15870477Y-95894611D01*
X15904421Y-95843810D01*
X15941612Y-95788149D01*
X16032149Y-95697612D01*
X16138610Y-95626478D01*
X16138611Y-95626477D01*
X16230590Y-95588378D01*
X16256902Y-95577479D01*
X16311841Y-95566551D01*
X16382479Y-95552500D01*
X16510521Y-95552500D01*
X16581159Y-95566551D01*
G37*
G36*
X-10260733Y-95552500D02*
G01*
X-10199002Y-95564779D01*
X-10172690Y-95575678D01*
X-10080711Y-95613777D01*
X-10080710Y-95613778D01*
X-9974249Y-95684912D01*
X-9883712Y-95775449D01*
X-9838035Y-95843810D01*
X-9812577Y-95881911D01*
X-9763579Y-96000203D01*
X-9738600Y-96125779D01*
X-9738600Y-96253821D01*
X-9755253Y-96337538D01*
X-9758526Y-96353997D01*
X-9763579Y-96379397D01*
X-9812577Y-96497689D01*
X-9812578Y-96497690D01*
X-9883712Y-96604151D01*
X-9974249Y-96694688D01*
X-10023689Y-96727722D01*
X-10080711Y-96765823D01*
X-10111372Y-96778523D01*
X-10199002Y-96814821D01*
X-10237607Y-96822500D01*
X-10324579Y-96839800D01*
X-10452621Y-96839800D01*
X-10539593Y-96822500D01*
X-10578198Y-96814821D01*
X-10665828Y-96778523D01*
X-10696489Y-96765823D01*
X-10753511Y-96727722D01*
X-10802951Y-96694688D01*
X-10893488Y-96604151D01*
X-10964622Y-96497690D01*
X-10964623Y-96497689D01*
X-11013621Y-96379397D01*
X-11018673Y-96353997D01*
X-11021947Y-96337538D01*
X-11038600Y-96253821D01*
X-11038600Y-96125779D01*
X-11013621Y-96000203D01*
X-10964623Y-95881911D01*
X-10939165Y-95843810D01*
X-10893488Y-95775449D01*
X-10802951Y-95684912D01*
X-10696490Y-95613778D01*
X-10696489Y-95613777D01*
X-10604510Y-95575678D01*
X-10578198Y-95564779D01*
X-10516467Y-95552500D01*
X-10452621Y-95539800D01*
X-10324579Y-95539800D01*
X-10260733Y-95552500D01*
G37*
G36*
X-1338541Y-95528451D02*
G01*
X-1283602Y-95539379D01*
X-1251926Y-95552500D01*
X-1165311Y-95588377D01*
X-1165310Y-95588378D01*
X-1058849Y-95659512D01*
X-968312Y-95750049D01*
X-951340Y-95775450D01*
X-897177Y-95856511D01*
X-886656Y-95881911D01*
X-848179Y-95974802D01*
X-840601Y-96012902D01*
X-823200Y-96100379D01*
X-823200Y-96228421D01*
X-848179Y-96353997D01*
X-897177Y-96472289D01*
X-920782Y-96507616D01*
X-968312Y-96578751D01*
X-1058849Y-96669288D01*
X-1129984Y-96716818D01*
X-1165311Y-96740423D01*
X-1226630Y-96765822D01*
X-1283602Y-96789421D01*
X-1320091Y-96796679D01*
X-1409179Y-96814400D01*
X-1537221Y-96814400D01*
X-1626309Y-96796679D01*
X-1662798Y-96789421D01*
X-1719770Y-96765822D01*
X-1781089Y-96740423D01*
X-1816416Y-96716818D01*
X-1887551Y-96669288D01*
X-1978088Y-96578751D01*
X-2025618Y-96507616D01*
X-2049223Y-96472289D01*
X-2098221Y-96353997D01*
X-2123200Y-96228421D01*
X-2123200Y-96100379D01*
X-2105799Y-96012902D01*
X-2098221Y-95974802D01*
X-2059744Y-95881911D01*
X-2049223Y-95856511D01*
X-1995060Y-95775450D01*
X-1978088Y-95750049D01*
X-1887551Y-95659512D01*
X-1781090Y-95588378D01*
X-1781089Y-95588377D01*
X-1694474Y-95552500D01*
X-1662798Y-95539379D01*
X-1607859Y-95528451D01*
X-1537221Y-95514400D01*
X-1409179Y-95514400D01*
X-1338541Y-95528451D01*
G37*
G36*
X7938367Y-95514400D02*
G01*
X8000098Y-95526679D01*
X8030758Y-95539379D01*
X8118389Y-95575677D01*
X8137396Y-95588377D01*
X8224851Y-95646812D01*
X8315388Y-95737349D01*
X8350434Y-95789800D01*
X8386523Y-95843811D01*
X8435521Y-95962103D01*
X8460500Y-96087679D01*
X8460500Y-96215721D01*
X8435521Y-96341297D01*
X8386523Y-96459589D01*
X8386522Y-96459590D01*
X8315388Y-96566051D01*
X8224851Y-96656588D01*
X8153716Y-96704118D01*
X8118389Y-96727723D01*
X8087728Y-96740423D01*
X8000098Y-96776721D01*
X7961493Y-96784400D01*
X7874521Y-96801700D01*
X7746479Y-96801700D01*
X7659507Y-96784400D01*
X7620902Y-96776721D01*
X7533272Y-96740423D01*
X7502611Y-96727723D01*
X7467284Y-96704118D01*
X7396149Y-96656588D01*
X7305612Y-96566051D01*
X7234478Y-96459590D01*
X7234477Y-96459589D01*
X7185479Y-96341297D01*
X7160500Y-96215721D01*
X7160500Y-96087679D01*
X7185479Y-95962103D01*
X7234477Y-95843811D01*
X7270566Y-95789800D01*
X7305612Y-95737349D01*
X7396149Y-95646812D01*
X7483604Y-95588377D01*
X7502611Y-95575677D01*
X7590242Y-95539379D01*
X7620902Y-95526679D01*
X7682633Y-95514400D01*
X7746479Y-95501700D01*
X7874521Y-95501700D01*
X7938367Y-95514400D01*
G37*
G36*
X18473790Y-93828119D02*
G01*
X18538189Y-93840929D01*
X18720178Y-93916311D01*
X18883963Y-94025749D01*
X19023251Y-94165037D01*
X19132689Y-94328822D01*
X19208071Y-94510811D01*
X19208071Y-94510812D01*
X19243974Y-94691307D01*
X19246500Y-94704009D01*
X19246500Y-94900991D01*
X19208071Y-95094189D01*
X19132689Y-95276178D01*
X19023251Y-95439963D01*
X18883963Y-95579251D01*
X18720178Y-95688689D01*
X18538189Y-95764071D01*
X18480987Y-95775449D01*
X18344993Y-95802500D01*
X18148007Y-95802500D01*
X18012013Y-95775449D01*
X17954811Y-95764071D01*
X17772822Y-95688689D01*
X17609037Y-95579251D01*
X17469749Y-95439963D01*
X17360311Y-95276178D01*
X17284929Y-95094189D01*
X17246500Y-94900991D01*
X17246500Y-94704009D01*
X17249027Y-94691307D01*
X17284929Y-94510812D01*
X17284929Y-94510811D01*
X17360311Y-94328822D01*
X17469749Y-94165037D01*
X17609037Y-94025749D01*
X17772822Y-93916311D01*
X17954811Y-93840929D01*
X18019210Y-93828119D01*
X18148007Y-93802500D01*
X18344993Y-93802500D01*
X18473790Y-93828119D01*
G37*
G36*
X-8361310Y-93815419D02*
G01*
X-8296911Y-93828229D01*
X-8114922Y-93903611D01*
X-7951137Y-94013049D01*
X-7811849Y-94152337D01*
X-7702411Y-94316122D01*
X-7637550Y-94472711D01*
X-7627029Y-94498112D01*
X-7588600Y-94691307D01*
X-7588600Y-94888293D01*
X-7614219Y-95017090D01*
X-7627029Y-95081489D01*
X-7702411Y-95263478D01*
X-7811849Y-95427263D01*
X-7951137Y-95566551D01*
X-8114922Y-95675989D01*
X-8296911Y-95751371D01*
X-8360759Y-95764071D01*
X-8490107Y-95789800D01*
X-8687093Y-95789800D01*
X-8816441Y-95764071D01*
X-8880289Y-95751371D01*
X-9062278Y-95675989D01*
X-9226063Y-95566551D01*
X-9365351Y-95427263D01*
X-9474789Y-95263478D01*
X-9550171Y-95081489D01*
X-9562981Y-95017090D01*
X-9588600Y-94888293D01*
X-9588600Y-94691307D01*
X-9550171Y-94498112D01*
X-9539650Y-94472711D01*
X-9474789Y-94316122D01*
X-9365351Y-94152337D01*
X-9226063Y-94013049D01*
X-9062278Y-93903611D01*
X-8880289Y-93828229D01*
X-8815890Y-93815419D01*
X-8687093Y-93789800D01*
X-8490107Y-93789800D01*
X-8361310Y-93815419D01*
G37*
G36*
X552987Y-93789800D02*
G01*
X618489Y-93802829D01*
X800478Y-93878211D01*
X964263Y-93987649D01*
X1103551Y-94126937D01*
X1212989Y-94290722D01*
X1288371Y-94472711D01*
X1295949Y-94510811D01*
X1326800Y-94665907D01*
X1326800Y-94862893D01*
X1319222Y-94900991D01*
X1288371Y-95056089D01*
X1212989Y-95238078D01*
X1103551Y-95401863D01*
X964263Y-95541151D01*
X800478Y-95650589D01*
X618489Y-95725971D01*
X561287Y-95737349D01*
X425293Y-95764400D01*
X228307Y-95764400D01*
X92313Y-95737349D01*
X35111Y-95725971D01*
X-146878Y-95650589D01*
X-310663Y-95541151D01*
X-449951Y-95401863D01*
X-559389Y-95238078D01*
X-634771Y-95056089D01*
X-665622Y-94900991D01*
X-673200Y-94862893D01*
X-673200Y-94665907D01*
X-642349Y-94510811D01*
X-634771Y-94472711D01*
X-559389Y-94290722D01*
X-449951Y-94126937D01*
X-310663Y-93987649D01*
X-146878Y-93878211D01*
X35111Y-93802829D01*
X100613Y-93789800D01*
X228307Y-93764400D01*
X425293Y-93764400D01*
X552987Y-93789800D01*
G37*
G36*
X9837790Y-93777319D02*
G01*
X9902189Y-93790129D01*
X10084178Y-93865511D01*
X10247963Y-93974949D01*
X10387251Y-94114237D01*
X10496689Y-94278022D01*
X10572071Y-94460011D01*
X10572071Y-94460012D01*
X10610500Y-94653207D01*
X10610500Y-94850193D01*
X10600395Y-94900993D01*
X10572071Y-95043389D01*
X10496689Y-95225378D01*
X10387251Y-95389163D01*
X10247963Y-95528451D01*
X10084178Y-95637889D01*
X9902189Y-95713271D01*
X9838341Y-95725971D01*
X9708993Y-95751700D01*
X9512007Y-95751700D01*
X9382659Y-95725971D01*
X9318811Y-95713271D01*
X9136822Y-95637889D01*
X8973037Y-95528451D01*
X8833749Y-95389163D01*
X8724311Y-95225378D01*
X8648929Y-95043389D01*
X8620605Y-94900993D01*
X8610500Y-94850193D01*
X8610500Y-94653207D01*
X8648929Y-94460012D01*
X8648929Y-94460011D01*
X8724311Y-94278022D01*
X8833749Y-94114237D01*
X8973037Y-93974949D01*
X9136822Y-93865511D01*
X9318811Y-93790129D01*
X9383210Y-93777319D01*
X9512007Y-93751700D01*
X9708993Y-93751700D01*
X9837790Y-93777319D01*
G37*
M02*
