G04 #@! TF.GenerationSoftware,KiCad,Pcbnew,5.1.5-52549c5~84~ubuntu18.04.1*
G04 #@! TF.CreationDate,2020-02-28T12:30:24-05:00*
G04 #@! TF.ProjectId,BMS_peripheral_v2,424d535f-7065-4726-9970-686572616c5f,rev?*
G04 #@! TF.SameCoordinates,Original*
G04 #@! TF.FileFunction,Soldermask,Bot*
G04 #@! TF.FilePolarity,Negative*
%FSLAX46Y46*%
G04 Gerber Fmt 4.6, Leading zero omitted, Abs format (unit mm)*
G04 Created by KiCad (PCBNEW 5.1.5-52549c5~84~ubuntu18.04.1) date 2020-02-28 12:30:24*
%MOMM*%
%LPD*%
G04 APERTURE LIST*
%ADD10C,0.100000*%
G04 APERTURE END LIST*
D10*
G36*
X212466338Y-374956453D02*
G01*
X212508198Y-374964779D01*
X212557196Y-374985075D01*
X212626489Y-375013777D01*
X212661816Y-375037382D01*
X212732951Y-375084912D01*
X212823488Y-375175449D01*
X212871018Y-375246584D01*
X212894623Y-375281911D01*
X212943621Y-375400203D01*
X212968600Y-375525779D01*
X212968600Y-375653821D01*
X212943621Y-375779397D01*
X212894623Y-375897689D01*
X212894622Y-375897690D01*
X212823488Y-376004151D01*
X212732951Y-376094688D01*
X212661816Y-376142218D01*
X212626489Y-376165823D01*
X212557196Y-376194525D01*
X212508198Y-376214821D01*
X212466338Y-376223147D01*
X212382621Y-376239800D01*
X212254579Y-376239800D01*
X212170862Y-376223147D01*
X212129002Y-376214821D01*
X212080004Y-376194525D01*
X212010711Y-376165823D01*
X211975384Y-376142218D01*
X211904249Y-376094688D01*
X211813712Y-376004151D01*
X211742578Y-375897690D01*
X211742577Y-375897689D01*
X211693579Y-375779397D01*
X211668600Y-375653821D01*
X211668600Y-375525779D01*
X211693579Y-375400203D01*
X211742577Y-375281911D01*
X211766182Y-375246584D01*
X211813712Y-375175449D01*
X211904249Y-375084912D01*
X211975384Y-375037382D01*
X212010711Y-375013777D01*
X212080004Y-374985075D01*
X212129002Y-374964779D01*
X212170862Y-374956453D01*
X212254579Y-374939800D01*
X212382621Y-374939800D01*
X212466338Y-374956453D01*
G37*
G36*
X209926338Y-374956453D02*
G01*
X209968198Y-374964779D01*
X210017196Y-374985075D01*
X210086489Y-375013777D01*
X210121816Y-375037382D01*
X210192951Y-375084912D01*
X210283488Y-375175449D01*
X210331018Y-375246584D01*
X210354623Y-375281911D01*
X210403621Y-375400203D01*
X210428600Y-375525779D01*
X210428600Y-375653821D01*
X210403621Y-375779397D01*
X210354623Y-375897689D01*
X210354622Y-375897690D01*
X210283488Y-376004151D01*
X210192951Y-376094688D01*
X210121816Y-376142218D01*
X210086489Y-376165823D01*
X210017196Y-376194525D01*
X209968198Y-376214821D01*
X209926338Y-376223147D01*
X209842621Y-376239800D01*
X209714579Y-376239800D01*
X209630862Y-376223147D01*
X209589002Y-376214821D01*
X209540004Y-376194525D01*
X209470711Y-376165823D01*
X209435384Y-376142218D01*
X209364249Y-376094688D01*
X209273712Y-376004151D01*
X209202578Y-375897690D01*
X209202577Y-375897689D01*
X209153579Y-375779397D01*
X209128600Y-375653821D01*
X209128600Y-375525779D01*
X209153579Y-375400203D01*
X209202577Y-375281911D01*
X209226182Y-375246584D01*
X209273712Y-375175449D01*
X209364249Y-375084912D01*
X209435384Y-375037382D01*
X209470711Y-375013777D01*
X209540004Y-374985075D01*
X209589002Y-374964779D01*
X209630862Y-374956453D01*
X209714579Y-374939800D01*
X209842621Y-374939800D01*
X209926338Y-374956453D01*
G37*
G36*
X207335890Y-373575419D02*
G01*
X207400289Y-373588229D01*
X207582278Y-373663611D01*
X207746063Y-373773049D01*
X207885351Y-373912337D01*
X207994789Y-374076122D01*
X208070171Y-374258111D01*
X208108600Y-374451309D01*
X208108600Y-374648291D01*
X208070171Y-374841489D01*
X207994789Y-375023478D01*
X207885351Y-375187263D01*
X207746063Y-375326551D01*
X207582278Y-375435989D01*
X207400289Y-375511371D01*
X207335890Y-375524181D01*
X207207093Y-375549800D01*
X207010107Y-375549800D01*
X206881310Y-375524181D01*
X206816911Y-375511371D01*
X206634922Y-375435989D01*
X206471137Y-375326551D01*
X206331849Y-375187263D01*
X206222411Y-375023478D01*
X206147029Y-374841489D01*
X206108600Y-374648291D01*
X206108600Y-374451309D01*
X206147029Y-374258111D01*
X206222411Y-374076122D01*
X206331849Y-373912337D01*
X206471137Y-373773049D01*
X206634922Y-373663611D01*
X206816911Y-373588229D01*
X206881310Y-373575419D01*
X207010107Y-373549800D01*
X207207093Y-373549800D01*
X207335890Y-373575419D01*
G37*
G36*
X211196338Y-372416453D02*
G01*
X211238198Y-372424779D01*
X211287196Y-372445075D01*
X211356489Y-372473777D01*
X211356490Y-372473778D01*
X211462951Y-372544912D01*
X211553488Y-372635449D01*
X211601018Y-372706584D01*
X211624623Y-372741911D01*
X211673621Y-372860203D01*
X211698600Y-372985779D01*
X211698600Y-373113821D01*
X211673621Y-373239397D01*
X211624623Y-373357689D01*
X211624622Y-373357690D01*
X211553488Y-373464151D01*
X211462951Y-373554688D01*
X211391816Y-373602218D01*
X211356489Y-373625823D01*
X211287196Y-373654525D01*
X211238198Y-373674821D01*
X211196338Y-373683147D01*
X211112621Y-373699800D01*
X210984579Y-373699800D01*
X210900862Y-373683147D01*
X210859002Y-373674821D01*
X210810004Y-373654525D01*
X210740711Y-373625823D01*
X210705384Y-373602218D01*
X210634249Y-373554688D01*
X210543712Y-373464151D01*
X210472578Y-373357690D01*
X210472577Y-373357689D01*
X210423579Y-373239397D01*
X210398600Y-373113821D01*
X210398600Y-372985779D01*
X210423579Y-372860203D01*
X210472577Y-372741911D01*
X210496182Y-372706584D01*
X210543712Y-372635449D01*
X210634249Y-372544912D01*
X210740710Y-372473778D01*
X210740711Y-372473777D01*
X210810004Y-372445075D01*
X210859002Y-372424779D01*
X210900862Y-372416453D01*
X210984579Y-372399800D01*
X211112621Y-372399800D01*
X211196338Y-372416453D01*
G37*
G36*
X208656338Y-372416453D02*
G01*
X208698198Y-372424779D01*
X208747196Y-372445075D01*
X208816489Y-372473777D01*
X208816490Y-372473778D01*
X208922951Y-372544912D01*
X209013488Y-372635449D01*
X209061018Y-372706584D01*
X209084623Y-372741911D01*
X209133621Y-372860203D01*
X209158600Y-372985779D01*
X209158600Y-373113821D01*
X209133621Y-373239397D01*
X209084623Y-373357689D01*
X209084622Y-373357690D01*
X209013488Y-373464151D01*
X208922951Y-373554688D01*
X208851816Y-373602218D01*
X208816489Y-373625823D01*
X208747196Y-373654525D01*
X208698198Y-373674821D01*
X208656338Y-373683147D01*
X208572621Y-373699800D01*
X208444579Y-373699800D01*
X208360862Y-373683147D01*
X208319002Y-373674821D01*
X208270004Y-373654525D01*
X208200711Y-373625823D01*
X208165384Y-373602218D01*
X208094249Y-373554688D01*
X208003712Y-373464151D01*
X207932578Y-373357690D01*
X207932577Y-373357689D01*
X207883579Y-373239397D01*
X207858600Y-373113821D01*
X207858600Y-372985779D01*
X207883579Y-372860203D01*
X207932577Y-372741911D01*
X207956182Y-372706584D01*
X208003712Y-372635449D01*
X208094249Y-372544912D01*
X208200710Y-372473778D01*
X208200711Y-372473777D01*
X208270004Y-372445075D01*
X208319002Y-372424779D01*
X208360862Y-372416453D01*
X208444579Y-372399800D01*
X208572621Y-372399800D01*
X208656338Y-372416453D01*
G37*
G36*
X183307138Y-269317853D02*
G01*
X183348998Y-269326179D01*
X183397996Y-269346475D01*
X183467289Y-269375177D01*
X183467290Y-269375178D01*
X183573751Y-269446312D01*
X183664288Y-269536849D01*
X183711818Y-269607984D01*
X183735423Y-269643311D01*
X183784421Y-269761603D01*
X183809400Y-269887179D01*
X183809400Y-270015221D01*
X183784421Y-270140797D01*
X183735423Y-270259089D01*
X183735422Y-270259090D01*
X183664288Y-270365551D01*
X183573751Y-270456088D01*
X183502616Y-270503618D01*
X183467289Y-270527223D01*
X183397996Y-270555925D01*
X183348998Y-270576221D01*
X183307138Y-270584547D01*
X183223421Y-270601200D01*
X183095379Y-270601200D01*
X183011662Y-270584547D01*
X182969802Y-270576221D01*
X182920804Y-270555925D01*
X182851511Y-270527223D01*
X182816184Y-270503618D01*
X182745049Y-270456088D01*
X182654512Y-270365551D01*
X182583378Y-270259090D01*
X182583377Y-270259089D01*
X182534379Y-270140797D01*
X182509400Y-270015221D01*
X182509400Y-269887179D01*
X182534379Y-269761603D01*
X182583377Y-269643311D01*
X182606982Y-269607984D01*
X182654512Y-269536849D01*
X182745049Y-269446312D01*
X182851510Y-269375178D01*
X182851511Y-269375177D01*
X182920804Y-269346475D01*
X182969802Y-269326179D01*
X183011662Y-269317853D01*
X183095379Y-269301200D01*
X183223421Y-269301200D01*
X183307138Y-269317853D01*
G37*
G36*
X185847138Y-268047853D02*
G01*
X185888998Y-268056179D01*
X185937996Y-268076475D01*
X186007289Y-268105177D01*
X186007290Y-268105178D01*
X186113751Y-268176312D01*
X186204288Y-268266849D01*
X186251818Y-268337984D01*
X186275423Y-268373311D01*
X186324421Y-268491603D01*
X186349400Y-268617179D01*
X186349400Y-268745221D01*
X186324421Y-268870797D01*
X186275423Y-268989089D01*
X186275422Y-268989090D01*
X186204288Y-269095551D01*
X186113751Y-269186088D01*
X186042616Y-269233618D01*
X186007289Y-269257223D01*
X185937996Y-269285925D01*
X185888998Y-269306221D01*
X185847138Y-269314547D01*
X185763421Y-269331200D01*
X185635379Y-269331200D01*
X185551662Y-269314547D01*
X185509802Y-269306221D01*
X185460804Y-269285925D01*
X185391511Y-269257223D01*
X185356184Y-269233618D01*
X185285049Y-269186088D01*
X185194512Y-269095551D01*
X185123378Y-268989090D01*
X185123377Y-268989089D01*
X185074379Y-268870797D01*
X185049400Y-268745221D01*
X185049400Y-268617179D01*
X185074379Y-268491603D01*
X185123377Y-268373311D01*
X185146982Y-268337984D01*
X185194512Y-268266849D01*
X185285049Y-268176312D01*
X185391510Y-268105178D01*
X185391511Y-268105177D01*
X185460804Y-268076475D01*
X185509802Y-268056179D01*
X185551662Y-268047853D01*
X185635379Y-268031200D01*
X185763421Y-268031200D01*
X185847138Y-268047853D01*
G37*
G36*
X183307138Y-266777853D02*
G01*
X183348998Y-266786179D01*
X183397996Y-266806475D01*
X183467289Y-266835177D01*
X183467290Y-266835178D01*
X183573751Y-266906312D01*
X183664288Y-266996849D01*
X183711818Y-267067984D01*
X183735423Y-267103311D01*
X183784421Y-267221603D01*
X183809400Y-267347179D01*
X183809400Y-267475221D01*
X183784421Y-267600797D01*
X183735423Y-267719089D01*
X183735422Y-267719090D01*
X183664288Y-267825551D01*
X183573751Y-267916088D01*
X183502616Y-267963618D01*
X183467289Y-267987223D01*
X183397996Y-268015925D01*
X183348998Y-268036221D01*
X183307138Y-268044547D01*
X183223421Y-268061200D01*
X183095379Y-268061200D01*
X183011662Y-268044547D01*
X182969802Y-268036221D01*
X182920804Y-268015925D01*
X182851511Y-267987223D01*
X182816184Y-267963618D01*
X182745049Y-267916088D01*
X182654512Y-267825551D01*
X182583378Y-267719090D01*
X182583377Y-267719089D01*
X182534379Y-267600797D01*
X182509400Y-267475221D01*
X182509400Y-267347179D01*
X182534379Y-267221603D01*
X182583377Y-267103311D01*
X182606982Y-267067984D01*
X182654512Y-266996849D01*
X182745049Y-266906312D01*
X182851510Y-266835178D01*
X182851511Y-266835177D01*
X182920804Y-266806475D01*
X182969802Y-266786179D01*
X183011662Y-266777853D01*
X183095379Y-266761200D01*
X183223421Y-266761200D01*
X183307138Y-266777853D01*
G37*
G36*
X185847138Y-265507853D02*
G01*
X185888998Y-265516179D01*
X185937996Y-265536475D01*
X186007289Y-265565177D01*
X186007290Y-265565178D01*
X186113751Y-265636312D01*
X186204288Y-265726849D01*
X186251818Y-265797984D01*
X186275423Y-265833311D01*
X186324421Y-265951603D01*
X186349400Y-266077179D01*
X186349400Y-266205221D01*
X186324421Y-266330797D01*
X186275423Y-266449089D01*
X186275422Y-266449090D01*
X186204288Y-266555551D01*
X186113751Y-266646088D01*
X186042616Y-266693618D01*
X186007289Y-266717223D01*
X185937996Y-266745925D01*
X185888998Y-266766221D01*
X185847138Y-266774547D01*
X185763421Y-266791200D01*
X185635379Y-266791200D01*
X185551662Y-266774547D01*
X185509802Y-266766221D01*
X185460804Y-266745925D01*
X185391511Y-266717223D01*
X185356184Y-266693618D01*
X185285049Y-266646088D01*
X185194512Y-266555551D01*
X185123378Y-266449090D01*
X185123377Y-266449089D01*
X185074379Y-266330797D01*
X185049400Y-266205221D01*
X185049400Y-266077179D01*
X185074379Y-265951603D01*
X185123377Y-265833311D01*
X185146982Y-265797984D01*
X185194512Y-265726849D01*
X185285049Y-265636312D01*
X185391510Y-265565178D01*
X185391511Y-265565177D01*
X185460804Y-265536475D01*
X185509802Y-265516179D01*
X185551662Y-265507853D01*
X185635379Y-265491200D01*
X185763421Y-265491200D01*
X185847138Y-265507853D01*
G37*
G36*
X183307138Y-264237853D02*
G01*
X183348998Y-264246179D01*
X183397996Y-264266475D01*
X183467289Y-264295177D01*
X183467290Y-264295178D01*
X183573751Y-264366312D01*
X183664288Y-264456849D01*
X183711818Y-264527984D01*
X183735423Y-264563311D01*
X183784421Y-264681603D01*
X183809400Y-264807179D01*
X183809400Y-264935221D01*
X183784421Y-265060797D01*
X183735423Y-265179089D01*
X183735422Y-265179090D01*
X183664288Y-265285551D01*
X183573751Y-265376088D01*
X183502616Y-265423618D01*
X183467289Y-265447223D01*
X183397996Y-265475925D01*
X183348998Y-265496221D01*
X183307138Y-265504547D01*
X183223421Y-265521200D01*
X183095379Y-265521200D01*
X183011662Y-265504547D01*
X182969802Y-265496221D01*
X182920804Y-265475925D01*
X182851511Y-265447223D01*
X182816184Y-265423618D01*
X182745049Y-265376088D01*
X182654512Y-265285551D01*
X182583378Y-265179090D01*
X182583377Y-265179089D01*
X182534379Y-265060797D01*
X182509400Y-264935221D01*
X182509400Y-264807179D01*
X182534379Y-264681603D01*
X182583377Y-264563311D01*
X182606982Y-264527984D01*
X182654512Y-264456849D01*
X182745049Y-264366312D01*
X182851510Y-264295178D01*
X182851511Y-264295177D01*
X182920804Y-264266475D01*
X182969802Y-264246179D01*
X183011662Y-264237853D01*
X183095379Y-264221200D01*
X183223421Y-264221200D01*
X183307138Y-264237853D01*
G37*
G36*
X185847138Y-262967853D02*
G01*
X185888998Y-262976179D01*
X185937996Y-262996475D01*
X186007289Y-263025177D01*
X186007290Y-263025178D01*
X186113751Y-263096312D01*
X186204288Y-263186849D01*
X186251818Y-263257984D01*
X186275423Y-263293311D01*
X186324421Y-263411603D01*
X186349400Y-263537179D01*
X186349400Y-263665221D01*
X186324421Y-263790797D01*
X186275423Y-263909089D01*
X186275422Y-263909090D01*
X186204288Y-264015551D01*
X186113751Y-264106088D01*
X186042616Y-264153618D01*
X186007289Y-264177223D01*
X185937996Y-264205925D01*
X185888998Y-264226221D01*
X185847138Y-264234547D01*
X185763421Y-264251200D01*
X185635379Y-264251200D01*
X185551662Y-264234547D01*
X185509802Y-264226221D01*
X185460804Y-264205925D01*
X185391511Y-264177223D01*
X185356184Y-264153618D01*
X185285049Y-264106088D01*
X185194512Y-264015551D01*
X185123378Y-263909090D01*
X185123377Y-263909089D01*
X185074379Y-263790797D01*
X185049400Y-263665221D01*
X185049400Y-263537179D01*
X185074379Y-263411603D01*
X185123377Y-263293311D01*
X185146982Y-263257984D01*
X185194512Y-263186849D01*
X185285049Y-263096312D01*
X185391510Y-263025178D01*
X185391511Y-263025177D01*
X185460804Y-262996475D01*
X185509802Y-262976179D01*
X185551662Y-262967853D01*
X185635379Y-262951200D01*
X185763421Y-262951200D01*
X185847138Y-262967853D01*
G37*
G36*
X183307138Y-261697853D02*
G01*
X183348998Y-261706179D01*
X183397996Y-261726475D01*
X183467289Y-261755177D01*
X183467290Y-261755178D01*
X183573751Y-261826312D01*
X183664288Y-261916849D01*
X183711818Y-261987984D01*
X183735423Y-262023311D01*
X183784421Y-262141603D01*
X183809400Y-262267179D01*
X183809400Y-262395221D01*
X183784421Y-262520797D01*
X183735423Y-262639089D01*
X183735422Y-262639090D01*
X183664288Y-262745551D01*
X183573751Y-262836088D01*
X183502616Y-262883618D01*
X183467289Y-262907223D01*
X183397996Y-262935925D01*
X183348998Y-262956221D01*
X183307138Y-262964547D01*
X183223421Y-262981200D01*
X183095379Y-262981200D01*
X183011662Y-262964547D01*
X182969802Y-262956221D01*
X182920804Y-262935925D01*
X182851511Y-262907223D01*
X182816184Y-262883618D01*
X182745049Y-262836088D01*
X182654512Y-262745551D01*
X182583378Y-262639090D01*
X182583377Y-262639089D01*
X182534379Y-262520797D01*
X182509400Y-262395221D01*
X182509400Y-262267179D01*
X182534379Y-262141603D01*
X182583377Y-262023311D01*
X182606982Y-261987984D01*
X182654512Y-261916849D01*
X182745049Y-261826312D01*
X182851510Y-261755178D01*
X182851511Y-261755177D01*
X182920804Y-261726475D01*
X182969802Y-261706179D01*
X183011662Y-261697853D01*
X183095379Y-261681200D01*
X183223421Y-261681200D01*
X183307138Y-261697853D01*
G37*
G36*
X185847138Y-260427853D02*
G01*
X185888998Y-260436179D01*
X185937996Y-260456475D01*
X186007289Y-260485177D01*
X186007290Y-260485178D01*
X186113751Y-260556312D01*
X186204288Y-260646849D01*
X186251818Y-260717984D01*
X186275423Y-260753311D01*
X186324421Y-260871603D01*
X186349400Y-260997179D01*
X186349400Y-261125221D01*
X186324421Y-261250797D01*
X186275423Y-261369089D01*
X186275422Y-261369090D01*
X186204288Y-261475551D01*
X186113751Y-261566088D01*
X186042616Y-261613618D01*
X186007289Y-261637223D01*
X185937996Y-261665925D01*
X185888998Y-261686221D01*
X185847138Y-261694547D01*
X185763421Y-261711200D01*
X185635379Y-261711200D01*
X185551662Y-261694547D01*
X185509802Y-261686221D01*
X185460804Y-261665925D01*
X185391511Y-261637223D01*
X185356184Y-261613618D01*
X185285049Y-261566088D01*
X185194512Y-261475551D01*
X185123378Y-261369090D01*
X185123377Y-261369089D01*
X185074379Y-261250797D01*
X185049400Y-261125221D01*
X185049400Y-260997179D01*
X185074379Y-260871603D01*
X185123377Y-260753311D01*
X185146982Y-260717984D01*
X185194512Y-260646849D01*
X185285049Y-260556312D01*
X185391510Y-260485178D01*
X185391511Y-260485177D01*
X185460804Y-260456475D01*
X185509802Y-260436179D01*
X185551662Y-260427853D01*
X185635379Y-260411200D01*
X185763421Y-260411200D01*
X185847138Y-260427853D01*
G37*
G36*
X183307138Y-259157853D02*
G01*
X183348998Y-259166179D01*
X183397996Y-259186475D01*
X183467289Y-259215177D01*
X183467290Y-259215178D01*
X183573751Y-259286312D01*
X183664288Y-259376849D01*
X183711818Y-259447984D01*
X183735423Y-259483311D01*
X183784421Y-259601603D01*
X183809400Y-259727179D01*
X183809400Y-259855221D01*
X183784421Y-259980797D01*
X183735423Y-260099089D01*
X183735422Y-260099090D01*
X183664288Y-260205551D01*
X183573751Y-260296088D01*
X183502616Y-260343618D01*
X183467289Y-260367223D01*
X183397996Y-260395925D01*
X183348998Y-260416221D01*
X183307138Y-260424547D01*
X183223421Y-260441200D01*
X183095379Y-260441200D01*
X183011662Y-260424547D01*
X182969802Y-260416221D01*
X182920804Y-260395925D01*
X182851511Y-260367223D01*
X182816184Y-260343618D01*
X182745049Y-260296088D01*
X182654512Y-260205551D01*
X182583378Y-260099090D01*
X182583377Y-260099089D01*
X182534379Y-259980797D01*
X182509400Y-259855221D01*
X182509400Y-259727179D01*
X182534379Y-259601603D01*
X182583377Y-259483311D01*
X182606982Y-259447984D01*
X182654512Y-259376849D01*
X182745049Y-259286312D01*
X182851510Y-259215178D01*
X182851511Y-259215177D01*
X182920804Y-259186475D01*
X182969802Y-259166179D01*
X183011662Y-259157853D01*
X183095379Y-259141200D01*
X183223421Y-259141200D01*
X183307138Y-259157853D01*
G37*
G36*
X185847138Y-257887853D02*
G01*
X185888998Y-257896179D01*
X185937996Y-257916475D01*
X186007289Y-257945177D01*
X186007290Y-257945178D01*
X186113751Y-258016312D01*
X186204288Y-258106849D01*
X186251818Y-258177984D01*
X186275423Y-258213311D01*
X186324421Y-258331603D01*
X186349400Y-258457179D01*
X186349400Y-258585221D01*
X186324421Y-258710797D01*
X186275423Y-258829089D01*
X186275422Y-258829090D01*
X186204288Y-258935551D01*
X186113751Y-259026088D01*
X186042616Y-259073618D01*
X186007289Y-259097223D01*
X185937996Y-259125925D01*
X185888998Y-259146221D01*
X185847138Y-259154547D01*
X185763421Y-259171200D01*
X185635379Y-259171200D01*
X185551662Y-259154547D01*
X185509802Y-259146221D01*
X185460804Y-259125925D01*
X185391511Y-259097223D01*
X185356184Y-259073618D01*
X185285049Y-259026088D01*
X185194512Y-258935551D01*
X185123378Y-258829090D01*
X185123377Y-258829089D01*
X185074379Y-258710797D01*
X185049400Y-258585221D01*
X185049400Y-258457179D01*
X185074379Y-258331603D01*
X185123377Y-258213311D01*
X185146982Y-258177984D01*
X185194512Y-258106849D01*
X185285049Y-258016312D01*
X185391510Y-257945178D01*
X185391511Y-257945177D01*
X185460804Y-257916475D01*
X185509802Y-257896179D01*
X185551662Y-257887853D01*
X185635379Y-257871200D01*
X185763421Y-257871200D01*
X185847138Y-257887853D01*
G37*
G36*
X183307138Y-256617853D02*
G01*
X183348998Y-256626179D01*
X183397996Y-256646475D01*
X183467289Y-256675177D01*
X183467290Y-256675178D01*
X183573751Y-256746312D01*
X183664288Y-256836849D01*
X183711818Y-256907984D01*
X183735423Y-256943311D01*
X183784421Y-257061603D01*
X183809400Y-257187179D01*
X183809400Y-257315221D01*
X183784421Y-257440797D01*
X183735423Y-257559089D01*
X183735422Y-257559090D01*
X183664288Y-257665551D01*
X183573751Y-257756088D01*
X183502616Y-257803618D01*
X183467289Y-257827223D01*
X183397996Y-257855925D01*
X183348998Y-257876221D01*
X183307138Y-257884547D01*
X183223421Y-257901200D01*
X183095379Y-257901200D01*
X183011662Y-257884547D01*
X182969802Y-257876221D01*
X182920804Y-257855925D01*
X182851511Y-257827223D01*
X182816184Y-257803618D01*
X182745049Y-257756088D01*
X182654512Y-257665551D01*
X182583378Y-257559090D01*
X182583377Y-257559089D01*
X182534379Y-257440797D01*
X182509400Y-257315221D01*
X182509400Y-257187179D01*
X182534379Y-257061603D01*
X182583377Y-256943311D01*
X182606982Y-256907984D01*
X182654512Y-256836849D01*
X182745049Y-256746312D01*
X182851510Y-256675178D01*
X182851511Y-256675177D01*
X182920804Y-256646475D01*
X182969802Y-256626179D01*
X183011662Y-256617853D01*
X183095379Y-256601200D01*
X183223421Y-256601200D01*
X183307138Y-256617853D01*
G37*
G36*
X185847138Y-255347853D02*
G01*
X185888998Y-255356179D01*
X185937996Y-255376475D01*
X186007289Y-255405177D01*
X186007290Y-255405178D01*
X186113751Y-255476312D01*
X186204288Y-255566849D01*
X186251818Y-255637984D01*
X186275423Y-255673311D01*
X186324421Y-255791603D01*
X186349400Y-255917179D01*
X186349400Y-256045221D01*
X186324421Y-256170797D01*
X186275423Y-256289089D01*
X186275422Y-256289090D01*
X186204288Y-256395551D01*
X186113751Y-256486088D01*
X186042616Y-256533618D01*
X186007289Y-256557223D01*
X185937996Y-256585925D01*
X185888998Y-256606221D01*
X185847138Y-256614547D01*
X185763421Y-256631200D01*
X185635379Y-256631200D01*
X185551662Y-256614547D01*
X185509802Y-256606221D01*
X185460804Y-256585925D01*
X185391511Y-256557223D01*
X185356184Y-256533618D01*
X185285049Y-256486088D01*
X185194512Y-256395551D01*
X185123378Y-256289090D01*
X185123377Y-256289089D01*
X185074379Y-256170797D01*
X185049400Y-256045221D01*
X185049400Y-255917179D01*
X185074379Y-255791603D01*
X185123377Y-255673311D01*
X185146982Y-255637984D01*
X185194512Y-255566849D01*
X185285049Y-255476312D01*
X185391510Y-255405178D01*
X185391511Y-255405177D01*
X185460804Y-255376475D01*
X185509802Y-255356179D01*
X185551662Y-255347853D01*
X185635379Y-255331200D01*
X185763421Y-255331200D01*
X185847138Y-255347853D01*
G37*
G36*
X184126690Y-253606819D02*
G01*
X184191089Y-253619629D01*
X184373078Y-253695011D01*
X184536863Y-253804449D01*
X184676151Y-253943737D01*
X184785589Y-254107522D01*
X184860971Y-254289511D01*
X184899400Y-254482709D01*
X184899400Y-254679691D01*
X184860971Y-254872889D01*
X184785589Y-255054878D01*
X184676151Y-255218663D01*
X184536863Y-255357951D01*
X184373078Y-255467389D01*
X184191089Y-255542771D01*
X184126690Y-255555581D01*
X183997893Y-255581200D01*
X183800907Y-255581200D01*
X183672110Y-255555581D01*
X183607711Y-255542771D01*
X183425722Y-255467389D01*
X183261937Y-255357951D01*
X183122649Y-255218663D01*
X183013211Y-255054878D01*
X182937829Y-254872889D01*
X182899400Y-254679691D01*
X182899400Y-254482709D01*
X182937829Y-254289511D01*
X183013211Y-254107522D01*
X183122649Y-253943737D01*
X183261937Y-253804449D01*
X183425722Y-253695011D01*
X183607711Y-253619629D01*
X183672110Y-253606819D01*
X183800907Y-253581200D01*
X183997893Y-253581200D01*
X184126690Y-253606819D01*
G37*
G36*
X183484938Y-241631853D02*
G01*
X183526798Y-241640179D01*
X183575796Y-241660475D01*
X183645089Y-241689177D01*
X183645090Y-241689178D01*
X183751551Y-241760312D01*
X183842088Y-241850849D01*
X183889618Y-241921984D01*
X183913223Y-241957311D01*
X183962221Y-242075603D01*
X183987200Y-242201179D01*
X183987200Y-242329221D01*
X183962221Y-242454797D01*
X183913223Y-242573089D01*
X183913222Y-242573090D01*
X183842088Y-242679551D01*
X183751551Y-242770088D01*
X183680416Y-242817618D01*
X183645089Y-242841223D01*
X183575796Y-242869925D01*
X183526798Y-242890221D01*
X183484938Y-242898547D01*
X183401221Y-242915200D01*
X183273179Y-242915200D01*
X183189462Y-242898547D01*
X183147602Y-242890221D01*
X183098604Y-242869925D01*
X183029311Y-242841223D01*
X182993984Y-242817618D01*
X182922849Y-242770088D01*
X182832312Y-242679551D01*
X182761178Y-242573090D01*
X182761177Y-242573089D01*
X182712179Y-242454797D01*
X182687200Y-242329221D01*
X182687200Y-242201179D01*
X182712179Y-242075603D01*
X182761177Y-241957311D01*
X182784782Y-241921984D01*
X182832312Y-241850849D01*
X182922849Y-241760312D01*
X183029310Y-241689178D01*
X183029311Y-241689177D01*
X183098604Y-241660475D01*
X183147602Y-241640179D01*
X183189462Y-241631853D01*
X183273179Y-241615200D01*
X183401221Y-241615200D01*
X183484938Y-241631853D01*
G37*
G36*
X186024938Y-240361853D02*
G01*
X186066798Y-240370179D01*
X186115796Y-240390475D01*
X186185089Y-240419177D01*
X186185090Y-240419178D01*
X186291551Y-240490312D01*
X186382088Y-240580849D01*
X186429618Y-240651984D01*
X186453223Y-240687311D01*
X186502221Y-240805603D01*
X186527200Y-240931179D01*
X186527200Y-241059221D01*
X186502221Y-241184797D01*
X186453223Y-241303089D01*
X186453222Y-241303090D01*
X186382088Y-241409551D01*
X186291551Y-241500088D01*
X186220416Y-241547618D01*
X186185089Y-241571223D01*
X186115796Y-241599925D01*
X186066798Y-241620221D01*
X186024938Y-241628547D01*
X185941221Y-241645200D01*
X185813179Y-241645200D01*
X185729462Y-241628547D01*
X185687602Y-241620221D01*
X185638604Y-241599925D01*
X185569311Y-241571223D01*
X185533984Y-241547618D01*
X185462849Y-241500088D01*
X185372312Y-241409551D01*
X185301178Y-241303090D01*
X185301177Y-241303089D01*
X185252179Y-241184797D01*
X185227200Y-241059221D01*
X185227200Y-240931179D01*
X185252179Y-240805603D01*
X185301177Y-240687311D01*
X185324782Y-240651984D01*
X185372312Y-240580849D01*
X185462849Y-240490312D01*
X185569310Y-240419178D01*
X185569311Y-240419177D01*
X185638604Y-240390475D01*
X185687602Y-240370179D01*
X185729462Y-240361853D01*
X185813179Y-240345200D01*
X185941221Y-240345200D01*
X186024938Y-240361853D01*
G37*
G36*
X183484938Y-239091853D02*
G01*
X183526798Y-239100179D01*
X183575796Y-239120475D01*
X183645089Y-239149177D01*
X183645090Y-239149178D01*
X183751551Y-239220312D01*
X183842088Y-239310849D01*
X183889618Y-239381984D01*
X183913223Y-239417311D01*
X183962221Y-239535603D01*
X183987200Y-239661179D01*
X183987200Y-239789221D01*
X183962221Y-239914797D01*
X183913223Y-240033089D01*
X183913222Y-240033090D01*
X183842088Y-240139551D01*
X183751551Y-240230088D01*
X183680416Y-240277618D01*
X183645089Y-240301223D01*
X183575796Y-240329925D01*
X183526798Y-240350221D01*
X183484938Y-240358547D01*
X183401221Y-240375200D01*
X183273179Y-240375200D01*
X183189462Y-240358547D01*
X183147602Y-240350221D01*
X183098604Y-240329925D01*
X183029311Y-240301223D01*
X182993984Y-240277618D01*
X182922849Y-240230088D01*
X182832312Y-240139551D01*
X182761178Y-240033090D01*
X182761177Y-240033089D01*
X182712179Y-239914797D01*
X182687200Y-239789221D01*
X182687200Y-239661179D01*
X182712179Y-239535603D01*
X182761177Y-239417311D01*
X182784782Y-239381984D01*
X182832312Y-239310849D01*
X182922849Y-239220312D01*
X183029310Y-239149178D01*
X183029311Y-239149177D01*
X183098604Y-239120475D01*
X183147602Y-239100179D01*
X183189462Y-239091853D01*
X183273179Y-239075200D01*
X183401221Y-239075200D01*
X183484938Y-239091853D01*
G37*
G36*
X186024938Y-237821853D02*
G01*
X186066798Y-237830179D01*
X186115796Y-237850475D01*
X186185089Y-237879177D01*
X186185090Y-237879178D01*
X186291551Y-237950312D01*
X186382088Y-238040849D01*
X186429618Y-238111984D01*
X186453223Y-238147311D01*
X186502221Y-238265603D01*
X186527200Y-238391179D01*
X186527200Y-238519221D01*
X186502221Y-238644797D01*
X186453223Y-238763089D01*
X186453222Y-238763090D01*
X186382088Y-238869551D01*
X186291551Y-238960088D01*
X186220416Y-239007618D01*
X186185089Y-239031223D01*
X186115796Y-239059925D01*
X186066798Y-239080221D01*
X186024938Y-239088547D01*
X185941221Y-239105200D01*
X185813179Y-239105200D01*
X185729462Y-239088547D01*
X185687602Y-239080221D01*
X185638604Y-239059925D01*
X185569311Y-239031223D01*
X185533984Y-239007618D01*
X185462849Y-238960088D01*
X185372312Y-238869551D01*
X185301178Y-238763090D01*
X185301177Y-238763089D01*
X185252179Y-238644797D01*
X185227200Y-238519221D01*
X185227200Y-238391179D01*
X185252179Y-238265603D01*
X185301177Y-238147311D01*
X185324782Y-238111984D01*
X185372312Y-238040849D01*
X185462849Y-237950312D01*
X185569310Y-237879178D01*
X185569311Y-237879177D01*
X185638604Y-237850475D01*
X185687602Y-237830179D01*
X185729462Y-237821853D01*
X185813179Y-237805200D01*
X185941221Y-237805200D01*
X186024938Y-237821853D01*
G37*
G36*
X183484938Y-236551853D02*
G01*
X183526798Y-236560179D01*
X183575796Y-236580475D01*
X183645089Y-236609177D01*
X183645090Y-236609178D01*
X183751551Y-236680312D01*
X183842088Y-236770849D01*
X183889618Y-236841984D01*
X183913223Y-236877311D01*
X183962221Y-236995603D01*
X183987200Y-237121179D01*
X183987200Y-237249221D01*
X183962221Y-237374797D01*
X183913223Y-237493089D01*
X183913222Y-237493090D01*
X183842088Y-237599551D01*
X183751551Y-237690088D01*
X183680416Y-237737618D01*
X183645089Y-237761223D01*
X183575796Y-237789925D01*
X183526798Y-237810221D01*
X183484938Y-237818547D01*
X183401221Y-237835200D01*
X183273179Y-237835200D01*
X183189462Y-237818547D01*
X183147602Y-237810221D01*
X183098604Y-237789925D01*
X183029311Y-237761223D01*
X182993984Y-237737618D01*
X182922849Y-237690088D01*
X182832312Y-237599551D01*
X182761178Y-237493090D01*
X182761177Y-237493089D01*
X182712179Y-237374797D01*
X182687200Y-237249221D01*
X182687200Y-237121179D01*
X182712179Y-236995603D01*
X182761177Y-236877311D01*
X182784782Y-236841984D01*
X182832312Y-236770849D01*
X182922849Y-236680312D01*
X183029310Y-236609178D01*
X183029311Y-236609177D01*
X183098604Y-236580475D01*
X183147602Y-236560179D01*
X183189462Y-236551853D01*
X183273179Y-236535200D01*
X183401221Y-236535200D01*
X183484938Y-236551853D01*
G37*
G36*
X186024938Y-235281853D02*
G01*
X186066798Y-235290179D01*
X186115796Y-235310475D01*
X186185089Y-235339177D01*
X186185090Y-235339178D01*
X186291551Y-235410312D01*
X186382088Y-235500849D01*
X186429618Y-235571984D01*
X186453223Y-235607311D01*
X186502221Y-235725603D01*
X186527200Y-235851179D01*
X186527200Y-235979221D01*
X186502221Y-236104797D01*
X186453223Y-236223089D01*
X186453222Y-236223090D01*
X186382088Y-236329551D01*
X186291551Y-236420088D01*
X186220416Y-236467618D01*
X186185089Y-236491223D01*
X186115796Y-236519925D01*
X186066798Y-236540221D01*
X186024938Y-236548547D01*
X185941221Y-236565200D01*
X185813179Y-236565200D01*
X185729462Y-236548547D01*
X185687602Y-236540221D01*
X185638604Y-236519925D01*
X185569311Y-236491223D01*
X185533984Y-236467618D01*
X185462849Y-236420088D01*
X185372312Y-236329551D01*
X185301178Y-236223090D01*
X185301177Y-236223089D01*
X185252179Y-236104797D01*
X185227200Y-235979221D01*
X185227200Y-235851179D01*
X185252179Y-235725603D01*
X185301177Y-235607311D01*
X185324782Y-235571984D01*
X185372312Y-235500849D01*
X185462849Y-235410312D01*
X185569310Y-235339178D01*
X185569311Y-235339177D01*
X185638604Y-235310475D01*
X185687602Y-235290179D01*
X185729462Y-235281853D01*
X185813179Y-235265200D01*
X185941221Y-235265200D01*
X186024938Y-235281853D01*
G37*
G36*
X183484938Y-234011853D02*
G01*
X183526798Y-234020179D01*
X183575796Y-234040475D01*
X183645089Y-234069177D01*
X183645090Y-234069178D01*
X183751551Y-234140312D01*
X183842088Y-234230849D01*
X183889618Y-234301984D01*
X183913223Y-234337311D01*
X183962221Y-234455603D01*
X183987200Y-234581179D01*
X183987200Y-234709221D01*
X183962221Y-234834797D01*
X183913223Y-234953089D01*
X183913222Y-234953090D01*
X183842088Y-235059551D01*
X183751551Y-235150088D01*
X183680416Y-235197618D01*
X183645089Y-235221223D01*
X183575796Y-235249925D01*
X183526798Y-235270221D01*
X183484938Y-235278547D01*
X183401221Y-235295200D01*
X183273179Y-235295200D01*
X183189462Y-235278547D01*
X183147602Y-235270221D01*
X183098604Y-235249925D01*
X183029311Y-235221223D01*
X182993984Y-235197618D01*
X182922849Y-235150088D01*
X182832312Y-235059551D01*
X182761178Y-234953090D01*
X182761177Y-234953089D01*
X182712179Y-234834797D01*
X182687200Y-234709221D01*
X182687200Y-234581179D01*
X182712179Y-234455603D01*
X182761177Y-234337311D01*
X182784782Y-234301984D01*
X182832312Y-234230849D01*
X182922849Y-234140312D01*
X183029310Y-234069178D01*
X183029311Y-234069177D01*
X183098604Y-234040475D01*
X183147602Y-234020179D01*
X183189462Y-234011853D01*
X183273179Y-233995200D01*
X183401221Y-233995200D01*
X183484938Y-234011853D01*
G37*
G36*
X186024938Y-232741853D02*
G01*
X186066798Y-232750179D01*
X186115796Y-232770475D01*
X186185089Y-232799177D01*
X186185090Y-232799178D01*
X186291551Y-232870312D01*
X186382088Y-232960849D01*
X186429618Y-233031984D01*
X186453223Y-233067311D01*
X186502221Y-233185603D01*
X186527200Y-233311179D01*
X186527200Y-233439221D01*
X186502221Y-233564797D01*
X186453223Y-233683089D01*
X186453222Y-233683090D01*
X186382088Y-233789551D01*
X186291551Y-233880088D01*
X186220416Y-233927618D01*
X186185089Y-233951223D01*
X186115796Y-233979925D01*
X186066798Y-234000221D01*
X186024938Y-234008547D01*
X185941221Y-234025200D01*
X185813179Y-234025200D01*
X185729462Y-234008547D01*
X185687602Y-234000221D01*
X185638604Y-233979925D01*
X185569311Y-233951223D01*
X185533984Y-233927618D01*
X185462849Y-233880088D01*
X185372312Y-233789551D01*
X185301178Y-233683090D01*
X185301177Y-233683089D01*
X185252179Y-233564797D01*
X185227200Y-233439221D01*
X185227200Y-233311179D01*
X185252179Y-233185603D01*
X185301177Y-233067311D01*
X185324782Y-233031984D01*
X185372312Y-232960849D01*
X185462849Y-232870312D01*
X185569310Y-232799178D01*
X185569311Y-232799177D01*
X185638604Y-232770475D01*
X185687602Y-232750179D01*
X185729462Y-232741853D01*
X185813179Y-232725200D01*
X185941221Y-232725200D01*
X186024938Y-232741853D01*
G37*
G36*
X183484938Y-231471853D02*
G01*
X183526798Y-231480179D01*
X183575796Y-231500475D01*
X183645089Y-231529177D01*
X183645090Y-231529178D01*
X183751551Y-231600312D01*
X183842088Y-231690849D01*
X183889618Y-231761984D01*
X183913223Y-231797311D01*
X183962221Y-231915603D01*
X183987200Y-232041179D01*
X183987200Y-232169221D01*
X183962221Y-232294797D01*
X183913223Y-232413089D01*
X183913222Y-232413090D01*
X183842088Y-232519551D01*
X183751551Y-232610088D01*
X183680416Y-232657618D01*
X183645089Y-232681223D01*
X183575796Y-232709925D01*
X183526798Y-232730221D01*
X183484938Y-232738547D01*
X183401221Y-232755200D01*
X183273179Y-232755200D01*
X183189462Y-232738547D01*
X183147602Y-232730221D01*
X183098604Y-232709925D01*
X183029311Y-232681223D01*
X182993984Y-232657618D01*
X182922849Y-232610088D01*
X182832312Y-232519551D01*
X182761178Y-232413090D01*
X182761177Y-232413089D01*
X182712179Y-232294797D01*
X182687200Y-232169221D01*
X182687200Y-232041179D01*
X182712179Y-231915603D01*
X182761177Y-231797311D01*
X182784782Y-231761984D01*
X182832312Y-231690849D01*
X182922849Y-231600312D01*
X183029310Y-231529178D01*
X183029311Y-231529177D01*
X183098604Y-231500475D01*
X183147602Y-231480179D01*
X183189462Y-231471853D01*
X183273179Y-231455200D01*
X183401221Y-231455200D01*
X183484938Y-231471853D01*
G37*
G36*
X186024938Y-230201853D02*
G01*
X186066798Y-230210179D01*
X186115796Y-230230475D01*
X186185089Y-230259177D01*
X186185090Y-230259178D01*
X186291551Y-230330312D01*
X186382088Y-230420849D01*
X186429618Y-230491984D01*
X186453223Y-230527311D01*
X186502221Y-230645603D01*
X186527200Y-230771179D01*
X186527200Y-230899221D01*
X186502221Y-231024797D01*
X186453223Y-231143089D01*
X186453222Y-231143090D01*
X186382088Y-231249551D01*
X186291551Y-231340088D01*
X186220416Y-231387618D01*
X186185089Y-231411223D01*
X186115796Y-231439925D01*
X186066798Y-231460221D01*
X186024938Y-231468547D01*
X185941221Y-231485200D01*
X185813179Y-231485200D01*
X185729462Y-231468547D01*
X185687602Y-231460221D01*
X185638604Y-231439925D01*
X185569311Y-231411223D01*
X185533984Y-231387618D01*
X185462849Y-231340088D01*
X185372312Y-231249551D01*
X185301178Y-231143090D01*
X185301177Y-231143089D01*
X185252179Y-231024797D01*
X185227200Y-230899221D01*
X185227200Y-230771179D01*
X185252179Y-230645603D01*
X185301177Y-230527311D01*
X185324782Y-230491984D01*
X185372312Y-230420849D01*
X185462849Y-230330312D01*
X185569310Y-230259178D01*
X185569311Y-230259177D01*
X185638604Y-230230475D01*
X185687602Y-230210179D01*
X185729462Y-230201853D01*
X185813179Y-230185200D01*
X185941221Y-230185200D01*
X186024938Y-230201853D01*
G37*
G36*
X184304490Y-228460819D02*
G01*
X184368889Y-228473629D01*
X184550878Y-228549011D01*
X184714663Y-228658449D01*
X184853951Y-228797737D01*
X184963389Y-228961522D01*
X185038771Y-229143511D01*
X185077200Y-229336709D01*
X185077200Y-229533691D01*
X185038771Y-229726889D01*
X184963389Y-229908878D01*
X184853951Y-230072663D01*
X184714663Y-230211951D01*
X184550878Y-230321389D01*
X184368889Y-230396771D01*
X184304490Y-230409581D01*
X184175693Y-230435200D01*
X183978707Y-230435200D01*
X183849910Y-230409581D01*
X183785511Y-230396771D01*
X183603522Y-230321389D01*
X183439737Y-230211951D01*
X183300449Y-230072663D01*
X183191011Y-229908878D01*
X183115629Y-229726889D01*
X183077200Y-229533691D01*
X183077200Y-229336709D01*
X183115629Y-229143511D01*
X183191011Y-228961522D01*
X183300449Y-228797737D01*
X183439737Y-228658449D01*
X183603522Y-228549011D01*
X183785511Y-228473629D01*
X183849910Y-228460819D01*
X183978707Y-228435200D01*
X184175693Y-228435200D01*
X184304490Y-228460819D01*
G37*
G36*
X183535738Y-215774653D02*
G01*
X183577598Y-215782979D01*
X183626596Y-215803275D01*
X183695889Y-215831977D01*
X183695890Y-215831978D01*
X183802351Y-215903112D01*
X183892888Y-215993649D01*
X183940418Y-216064784D01*
X183964023Y-216100111D01*
X184013021Y-216218403D01*
X184038000Y-216343979D01*
X184038000Y-216472021D01*
X184013021Y-216597597D01*
X183964023Y-216715889D01*
X183964022Y-216715890D01*
X183892888Y-216822351D01*
X183802351Y-216912888D01*
X183731216Y-216960418D01*
X183695889Y-216984023D01*
X183626596Y-217012725D01*
X183577598Y-217033021D01*
X183535738Y-217041347D01*
X183452021Y-217058000D01*
X183323979Y-217058000D01*
X183240262Y-217041347D01*
X183198402Y-217033021D01*
X183149404Y-217012725D01*
X183080111Y-216984023D01*
X183044784Y-216960418D01*
X182973649Y-216912888D01*
X182883112Y-216822351D01*
X182811978Y-216715890D01*
X182811977Y-216715889D01*
X182762979Y-216597597D01*
X182738000Y-216472021D01*
X182738000Y-216343979D01*
X182762979Y-216218403D01*
X182811977Y-216100111D01*
X182835582Y-216064784D01*
X182883112Y-215993649D01*
X182973649Y-215903112D01*
X183080110Y-215831978D01*
X183080111Y-215831977D01*
X183149404Y-215803275D01*
X183198402Y-215782979D01*
X183240262Y-215774653D01*
X183323979Y-215758000D01*
X183452021Y-215758000D01*
X183535738Y-215774653D01*
G37*
G36*
X186075738Y-214504653D02*
G01*
X186117598Y-214512979D01*
X186166596Y-214533275D01*
X186235889Y-214561977D01*
X186235890Y-214561978D01*
X186342351Y-214633112D01*
X186432888Y-214723649D01*
X186480418Y-214794784D01*
X186504023Y-214830111D01*
X186553021Y-214948403D01*
X186578000Y-215073979D01*
X186578000Y-215202021D01*
X186553021Y-215327597D01*
X186504023Y-215445889D01*
X186504022Y-215445890D01*
X186432888Y-215552351D01*
X186342351Y-215642888D01*
X186271216Y-215690418D01*
X186235889Y-215714023D01*
X186166596Y-215742725D01*
X186117598Y-215763021D01*
X186075738Y-215771347D01*
X185992021Y-215788000D01*
X185863979Y-215788000D01*
X185780262Y-215771347D01*
X185738402Y-215763021D01*
X185689404Y-215742725D01*
X185620111Y-215714023D01*
X185584784Y-215690418D01*
X185513649Y-215642888D01*
X185423112Y-215552351D01*
X185351978Y-215445890D01*
X185351977Y-215445889D01*
X185302979Y-215327597D01*
X185278000Y-215202021D01*
X185278000Y-215073979D01*
X185302979Y-214948403D01*
X185351977Y-214830111D01*
X185375582Y-214794784D01*
X185423112Y-214723649D01*
X185513649Y-214633112D01*
X185620110Y-214561978D01*
X185620111Y-214561977D01*
X185689404Y-214533275D01*
X185738402Y-214512979D01*
X185780262Y-214504653D01*
X185863979Y-214488000D01*
X185992021Y-214488000D01*
X186075738Y-214504653D01*
G37*
G36*
X183535738Y-213234653D02*
G01*
X183577598Y-213242979D01*
X183626596Y-213263275D01*
X183695889Y-213291977D01*
X183695890Y-213291978D01*
X183802351Y-213363112D01*
X183892888Y-213453649D01*
X183940418Y-213524784D01*
X183964023Y-213560111D01*
X184013021Y-213678403D01*
X184038000Y-213803979D01*
X184038000Y-213932021D01*
X184013021Y-214057597D01*
X183964023Y-214175889D01*
X183964022Y-214175890D01*
X183892888Y-214282351D01*
X183802351Y-214372888D01*
X183731216Y-214420418D01*
X183695889Y-214444023D01*
X183626596Y-214472725D01*
X183577598Y-214493021D01*
X183535738Y-214501347D01*
X183452021Y-214518000D01*
X183323979Y-214518000D01*
X183240262Y-214501347D01*
X183198402Y-214493021D01*
X183149404Y-214472725D01*
X183080111Y-214444023D01*
X183044784Y-214420418D01*
X182973649Y-214372888D01*
X182883112Y-214282351D01*
X182811978Y-214175890D01*
X182811977Y-214175889D01*
X182762979Y-214057597D01*
X182738000Y-213932021D01*
X182738000Y-213803979D01*
X182762979Y-213678403D01*
X182811977Y-213560111D01*
X182835582Y-213524784D01*
X182883112Y-213453649D01*
X182973649Y-213363112D01*
X183080110Y-213291978D01*
X183080111Y-213291977D01*
X183149404Y-213263275D01*
X183198402Y-213242979D01*
X183240262Y-213234653D01*
X183323979Y-213218000D01*
X183452021Y-213218000D01*
X183535738Y-213234653D01*
G37*
G36*
X186075738Y-211964653D02*
G01*
X186117598Y-211972979D01*
X186166596Y-211993275D01*
X186235889Y-212021977D01*
X186235890Y-212021978D01*
X186342351Y-212093112D01*
X186432888Y-212183649D01*
X186480418Y-212254784D01*
X186504023Y-212290111D01*
X186553021Y-212408403D01*
X186578000Y-212533979D01*
X186578000Y-212662021D01*
X186553021Y-212787597D01*
X186504023Y-212905889D01*
X186504022Y-212905890D01*
X186432888Y-213012351D01*
X186342351Y-213102888D01*
X186271216Y-213150418D01*
X186235889Y-213174023D01*
X186166596Y-213202725D01*
X186117598Y-213223021D01*
X186075738Y-213231347D01*
X185992021Y-213248000D01*
X185863979Y-213248000D01*
X185780262Y-213231347D01*
X185738402Y-213223021D01*
X185689404Y-213202725D01*
X185620111Y-213174023D01*
X185584784Y-213150418D01*
X185513649Y-213102888D01*
X185423112Y-213012351D01*
X185351978Y-212905890D01*
X185351977Y-212905889D01*
X185302979Y-212787597D01*
X185278000Y-212662021D01*
X185278000Y-212533979D01*
X185302979Y-212408403D01*
X185351977Y-212290111D01*
X185375582Y-212254784D01*
X185423112Y-212183649D01*
X185513649Y-212093112D01*
X185620110Y-212021978D01*
X185620111Y-212021977D01*
X185689404Y-211993275D01*
X185738402Y-211972979D01*
X185780262Y-211964653D01*
X185863979Y-211948000D01*
X185992021Y-211948000D01*
X186075738Y-211964653D01*
G37*
G36*
X183535738Y-210694653D02*
G01*
X183577598Y-210702979D01*
X183626596Y-210723275D01*
X183695889Y-210751977D01*
X183695890Y-210751978D01*
X183802351Y-210823112D01*
X183892888Y-210913649D01*
X183940418Y-210984784D01*
X183964023Y-211020111D01*
X184013021Y-211138403D01*
X184038000Y-211263979D01*
X184038000Y-211392021D01*
X184013021Y-211517597D01*
X183964023Y-211635889D01*
X183964022Y-211635890D01*
X183892888Y-211742351D01*
X183802351Y-211832888D01*
X183731216Y-211880418D01*
X183695889Y-211904023D01*
X183626596Y-211932725D01*
X183577598Y-211953021D01*
X183535738Y-211961347D01*
X183452021Y-211978000D01*
X183323979Y-211978000D01*
X183240262Y-211961347D01*
X183198402Y-211953021D01*
X183149404Y-211932725D01*
X183080111Y-211904023D01*
X183044784Y-211880418D01*
X182973649Y-211832888D01*
X182883112Y-211742351D01*
X182811978Y-211635890D01*
X182811977Y-211635889D01*
X182762979Y-211517597D01*
X182738000Y-211392021D01*
X182738000Y-211263979D01*
X182762979Y-211138403D01*
X182811977Y-211020111D01*
X182835582Y-210984784D01*
X182883112Y-210913649D01*
X182973649Y-210823112D01*
X183080110Y-210751978D01*
X183080111Y-210751977D01*
X183149404Y-210723275D01*
X183198402Y-210702979D01*
X183240262Y-210694653D01*
X183323979Y-210678000D01*
X183452021Y-210678000D01*
X183535738Y-210694653D01*
G37*
G36*
X186075738Y-209424653D02*
G01*
X186117598Y-209432979D01*
X186166596Y-209453275D01*
X186235889Y-209481977D01*
X186235890Y-209481978D01*
X186342351Y-209553112D01*
X186432888Y-209643649D01*
X186480418Y-209714784D01*
X186504023Y-209750111D01*
X186553021Y-209868403D01*
X186578000Y-209993979D01*
X186578000Y-210122021D01*
X186553021Y-210247597D01*
X186504023Y-210365889D01*
X186504022Y-210365890D01*
X186432888Y-210472351D01*
X186342351Y-210562888D01*
X186271216Y-210610418D01*
X186235889Y-210634023D01*
X186166596Y-210662725D01*
X186117598Y-210683021D01*
X186075738Y-210691347D01*
X185992021Y-210708000D01*
X185863979Y-210708000D01*
X185780262Y-210691347D01*
X185738402Y-210683021D01*
X185689404Y-210662725D01*
X185620111Y-210634023D01*
X185584784Y-210610418D01*
X185513649Y-210562888D01*
X185423112Y-210472351D01*
X185351978Y-210365890D01*
X185351977Y-210365889D01*
X185302979Y-210247597D01*
X185278000Y-210122021D01*
X185278000Y-209993979D01*
X185302979Y-209868403D01*
X185351977Y-209750111D01*
X185375582Y-209714784D01*
X185423112Y-209643649D01*
X185513649Y-209553112D01*
X185620110Y-209481978D01*
X185620111Y-209481977D01*
X185689404Y-209453275D01*
X185738402Y-209432979D01*
X185780262Y-209424653D01*
X185863979Y-209408000D01*
X185992021Y-209408000D01*
X186075738Y-209424653D01*
G37*
G36*
X183535738Y-208154653D02*
G01*
X183577598Y-208162979D01*
X183626596Y-208183275D01*
X183695889Y-208211977D01*
X183695890Y-208211978D01*
X183802351Y-208283112D01*
X183892888Y-208373649D01*
X183940418Y-208444784D01*
X183964023Y-208480111D01*
X184013021Y-208598403D01*
X184038000Y-208723979D01*
X184038000Y-208852021D01*
X184013021Y-208977597D01*
X183964023Y-209095889D01*
X183964022Y-209095890D01*
X183892888Y-209202351D01*
X183802351Y-209292888D01*
X183731216Y-209340418D01*
X183695889Y-209364023D01*
X183626596Y-209392725D01*
X183577598Y-209413021D01*
X183535738Y-209421347D01*
X183452021Y-209438000D01*
X183323979Y-209438000D01*
X183240262Y-209421347D01*
X183198402Y-209413021D01*
X183149404Y-209392725D01*
X183080111Y-209364023D01*
X183044784Y-209340418D01*
X182973649Y-209292888D01*
X182883112Y-209202351D01*
X182811978Y-209095890D01*
X182811977Y-209095889D01*
X182762979Y-208977597D01*
X182738000Y-208852021D01*
X182738000Y-208723979D01*
X182762979Y-208598403D01*
X182811977Y-208480111D01*
X182835582Y-208444784D01*
X182883112Y-208373649D01*
X182973649Y-208283112D01*
X183080110Y-208211978D01*
X183080111Y-208211977D01*
X183149404Y-208183275D01*
X183198402Y-208162979D01*
X183240262Y-208154653D01*
X183323979Y-208138000D01*
X183452021Y-208138000D01*
X183535738Y-208154653D01*
G37*
G36*
X186075738Y-206884653D02*
G01*
X186117598Y-206892979D01*
X186166596Y-206913275D01*
X186235889Y-206941977D01*
X186235890Y-206941978D01*
X186342351Y-207013112D01*
X186432888Y-207103649D01*
X186480418Y-207174784D01*
X186504023Y-207210111D01*
X186553021Y-207328403D01*
X186578000Y-207453979D01*
X186578000Y-207582021D01*
X186553021Y-207707597D01*
X186504023Y-207825889D01*
X186504022Y-207825890D01*
X186432888Y-207932351D01*
X186342351Y-208022888D01*
X186271216Y-208070418D01*
X186235889Y-208094023D01*
X186166596Y-208122725D01*
X186117598Y-208143021D01*
X186075738Y-208151347D01*
X185992021Y-208168000D01*
X185863979Y-208168000D01*
X185780262Y-208151347D01*
X185738402Y-208143021D01*
X185689404Y-208122725D01*
X185620111Y-208094023D01*
X185584784Y-208070418D01*
X185513649Y-208022888D01*
X185423112Y-207932351D01*
X185351978Y-207825890D01*
X185351977Y-207825889D01*
X185302979Y-207707597D01*
X185278000Y-207582021D01*
X185278000Y-207453979D01*
X185302979Y-207328403D01*
X185351977Y-207210111D01*
X185375582Y-207174784D01*
X185423112Y-207103649D01*
X185513649Y-207013112D01*
X185620110Y-206941978D01*
X185620111Y-206941977D01*
X185689404Y-206913275D01*
X185738402Y-206892979D01*
X185780262Y-206884653D01*
X185863979Y-206868000D01*
X185992021Y-206868000D01*
X186075738Y-206884653D01*
G37*
G36*
X183535738Y-205614653D02*
G01*
X183577598Y-205622979D01*
X183626596Y-205643275D01*
X183695889Y-205671977D01*
X183695890Y-205671978D01*
X183802351Y-205743112D01*
X183892888Y-205833649D01*
X183940418Y-205904784D01*
X183964023Y-205940111D01*
X184013021Y-206058403D01*
X184038000Y-206183979D01*
X184038000Y-206312021D01*
X184013021Y-206437597D01*
X183964023Y-206555889D01*
X183964022Y-206555890D01*
X183892888Y-206662351D01*
X183802351Y-206752888D01*
X183731216Y-206800418D01*
X183695889Y-206824023D01*
X183626596Y-206852725D01*
X183577598Y-206873021D01*
X183535738Y-206881347D01*
X183452021Y-206898000D01*
X183323979Y-206898000D01*
X183240262Y-206881347D01*
X183198402Y-206873021D01*
X183149404Y-206852725D01*
X183080111Y-206824023D01*
X183044784Y-206800418D01*
X182973649Y-206752888D01*
X182883112Y-206662351D01*
X182811978Y-206555890D01*
X182811977Y-206555889D01*
X182762979Y-206437597D01*
X182738000Y-206312021D01*
X182738000Y-206183979D01*
X182762979Y-206058403D01*
X182811977Y-205940111D01*
X182835582Y-205904784D01*
X182883112Y-205833649D01*
X182973649Y-205743112D01*
X183080110Y-205671978D01*
X183080111Y-205671977D01*
X183149404Y-205643275D01*
X183198402Y-205622979D01*
X183240262Y-205614653D01*
X183323979Y-205598000D01*
X183452021Y-205598000D01*
X183535738Y-205614653D01*
G37*
G36*
X186075738Y-204344653D02*
G01*
X186117598Y-204352979D01*
X186166596Y-204373275D01*
X186235889Y-204401977D01*
X186235890Y-204401978D01*
X186342351Y-204473112D01*
X186432888Y-204563649D01*
X186480418Y-204634784D01*
X186504023Y-204670111D01*
X186553021Y-204788403D01*
X186578000Y-204913979D01*
X186578000Y-205042021D01*
X186553021Y-205167597D01*
X186504023Y-205285889D01*
X186504022Y-205285890D01*
X186432888Y-205392351D01*
X186342351Y-205482888D01*
X186271216Y-205530418D01*
X186235889Y-205554023D01*
X186166596Y-205582725D01*
X186117598Y-205603021D01*
X186075738Y-205611347D01*
X185992021Y-205628000D01*
X185863979Y-205628000D01*
X185780262Y-205611347D01*
X185738402Y-205603021D01*
X185689404Y-205582725D01*
X185620111Y-205554023D01*
X185584784Y-205530418D01*
X185513649Y-205482888D01*
X185423112Y-205392351D01*
X185351978Y-205285890D01*
X185351977Y-205285889D01*
X185302979Y-205167597D01*
X185278000Y-205042021D01*
X185278000Y-204913979D01*
X185302979Y-204788403D01*
X185351977Y-204670111D01*
X185375582Y-204634784D01*
X185423112Y-204563649D01*
X185513649Y-204473112D01*
X185620110Y-204401978D01*
X185620111Y-204401977D01*
X185689404Y-204373275D01*
X185738402Y-204352979D01*
X185780262Y-204344653D01*
X185863979Y-204328000D01*
X185992021Y-204328000D01*
X186075738Y-204344653D01*
G37*
G36*
X183535738Y-203074653D02*
G01*
X183577598Y-203082979D01*
X183626596Y-203103275D01*
X183695889Y-203131977D01*
X183695890Y-203131978D01*
X183802351Y-203203112D01*
X183892888Y-203293649D01*
X183940418Y-203364784D01*
X183964023Y-203400111D01*
X184013021Y-203518403D01*
X184038000Y-203643979D01*
X184038000Y-203772021D01*
X184013021Y-203897597D01*
X183964023Y-204015889D01*
X183964022Y-204015890D01*
X183892888Y-204122351D01*
X183802351Y-204212888D01*
X183731216Y-204260418D01*
X183695889Y-204284023D01*
X183626596Y-204312725D01*
X183577598Y-204333021D01*
X183535738Y-204341347D01*
X183452021Y-204358000D01*
X183323979Y-204358000D01*
X183240262Y-204341347D01*
X183198402Y-204333021D01*
X183149404Y-204312725D01*
X183080111Y-204284023D01*
X183044784Y-204260418D01*
X182973649Y-204212888D01*
X182883112Y-204122351D01*
X182811978Y-204015890D01*
X182811977Y-204015889D01*
X182762979Y-203897597D01*
X182738000Y-203772021D01*
X182738000Y-203643979D01*
X182762979Y-203518403D01*
X182811977Y-203400111D01*
X182835582Y-203364784D01*
X182883112Y-203293649D01*
X182973649Y-203203112D01*
X183080110Y-203131978D01*
X183080111Y-203131977D01*
X183149404Y-203103275D01*
X183198402Y-203082979D01*
X183240262Y-203074653D01*
X183323979Y-203058000D01*
X183452021Y-203058000D01*
X183535738Y-203074653D01*
G37*
G36*
X186075738Y-201804653D02*
G01*
X186117598Y-201812979D01*
X186166596Y-201833275D01*
X186235889Y-201861977D01*
X186235890Y-201861978D01*
X186342351Y-201933112D01*
X186432888Y-202023649D01*
X186480418Y-202094784D01*
X186504023Y-202130111D01*
X186553021Y-202248403D01*
X186578000Y-202373979D01*
X186578000Y-202502021D01*
X186553021Y-202627597D01*
X186504023Y-202745889D01*
X186504022Y-202745890D01*
X186432888Y-202852351D01*
X186342351Y-202942888D01*
X186271216Y-202990418D01*
X186235889Y-203014023D01*
X186166596Y-203042725D01*
X186117598Y-203063021D01*
X186075738Y-203071347D01*
X185992021Y-203088000D01*
X185863979Y-203088000D01*
X185780262Y-203071347D01*
X185738402Y-203063021D01*
X185689404Y-203042725D01*
X185620111Y-203014023D01*
X185584784Y-202990418D01*
X185513649Y-202942888D01*
X185423112Y-202852351D01*
X185351978Y-202745890D01*
X185351977Y-202745889D01*
X185302979Y-202627597D01*
X185278000Y-202502021D01*
X185278000Y-202373979D01*
X185302979Y-202248403D01*
X185351977Y-202130111D01*
X185375582Y-202094784D01*
X185423112Y-202023649D01*
X185513649Y-201933112D01*
X185620110Y-201861978D01*
X185620111Y-201861977D01*
X185689404Y-201833275D01*
X185738402Y-201812979D01*
X185780262Y-201804653D01*
X185863979Y-201788000D01*
X185992021Y-201788000D01*
X186075738Y-201804653D01*
G37*
G36*
X183535738Y-200534653D02*
G01*
X183577598Y-200542979D01*
X183626596Y-200563275D01*
X183695889Y-200591977D01*
X183695890Y-200591978D01*
X183802351Y-200663112D01*
X183892888Y-200753649D01*
X183940418Y-200824784D01*
X183964023Y-200860111D01*
X184013021Y-200978403D01*
X184038000Y-201103979D01*
X184038000Y-201232021D01*
X184013021Y-201357597D01*
X183964023Y-201475889D01*
X183964022Y-201475890D01*
X183892888Y-201582351D01*
X183802351Y-201672888D01*
X183731216Y-201720418D01*
X183695889Y-201744023D01*
X183626596Y-201772725D01*
X183577598Y-201793021D01*
X183535738Y-201801347D01*
X183452021Y-201818000D01*
X183323979Y-201818000D01*
X183240262Y-201801347D01*
X183198402Y-201793021D01*
X183149404Y-201772725D01*
X183080111Y-201744023D01*
X183044784Y-201720418D01*
X182973649Y-201672888D01*
X182883112Y-201582351D01*
X182811978Y-201475890D01*
X182811977Y-201475889D01*
X182762979Y-201357597D01*
X182738000Y-201232021D01*
X182738000Y-201103979D01*
X182762979Y-200978403D01*
X182811977Y-200860111D01*
X182835582Y-200824784D01*
X182883112Y-200753649D01*
X182973649Y-200663112D01*
X183080110Y-200591978D01*
X183080111Y-200591977D01*
X183149404Y-200563275D01*
X183198402Y-200542979D01*
X183240262Y-200534653D01*
X183323979Y-200518000D01*
X183452021Y-200518000D01*
X183535738Y-200534653D01*
G37*
G36*
X186075738Y-199264653D02*
G01*
X186117598Y-199272979D01*
X186166596Y-199293275D01*
X186235889Y-199321977D01*
X186235890Y-199321978D01*
X186342351Y-199393112D01*
X186432888Y-199483649D01*
X186480418Y-199554784D01*
X186504023Y-199590111D01*
X186553021Y-199708403D01*
X186578000Y-199833979D01*
X186578000Y-199962021D01*
X186553021Y-200087597D01*
X186504023Y-200205889D01*
X186504022Y-200205890D01*
X186432888Y-200312351D01*
X186342351Y-200402888D01*
X186271216Y-200450418D01*
X186235889Y-200474023D01*
X186166596Y-200502725D01*
X186117598Y-200523021D01*
X186075738Y-200531347D01*
X185992021Y-200548000D01*
X185863979Y-200548000D01*
X185780262Y-200531347D01*
X185738402Y-200523021D01*
X185689404Y-200502725D01*
X185620111Y-200474023D01*
X185584784Y-200450418D01*
X185513649Y-200402888D01*
X185423112Y-200312351D01*
X185351978Y-200205890D01*
X185351977Y-200205889D01*
X185302979Y-200087597D01*
X185278000Y-199962021D01*
X185278000Y-199833979D01*
X185302979Y-199708403D01*
X185351977Y-199590111D01*
X185375582Y-199554784D01*
X185423112Y-199483649D01*
X185513649Y-199393112D01*
X185620110Y-199321978D01*
X185620111Y-199321977D01*
X185689404Y-199293275D01*
X185738402Y-199272979D01*
X185780262Y-199264653D01*
X185863979Y-199248000D01*
X185992021Y-199248000D01*
X186075738Y-199264653D01*
G37*
G36*
X183535738Y-197994653D02*
G01*
X183577598Y-198002979D01*
X183626596Y-198023275D01*
X183695889Y-198051977D01*
X183695890Y-198051978D01*
X183802351Y-198123112D01*
X183892888Y-198213649D01*
X183940418Y-198284784D01*
X183964023Y-198320111D01*
X184013021Y-198438403D01*
X184038000Y-198563979D01*
X184038000Y-198692021D01*
X184013021Y-198817597D01*
X183964023Y-198935889D01*
X183964022Y-198935890D01*
X183892888Y-199042351D01*
X183802351Y-199132888D01*
X183731216Y-199180418D01*
X183695889Y-199204023D01*
X183626596Y-199232725D01*
X183577598Y-199253021D01*
X183535738Y-199261347D01*
X183452021Y-199278000D01*
X183323979Y-199278000D01*
X183240262Y-199261347D01*
X183198402Y-199253021D01*
X183149404Y-199232725D01*
X183080111Y-199204023D01*
X183044784Y-199180418D01*
X182973649Y-199132888D01*
X182883112Y-199042351D01*
X182811978Y-198935890D01*
X182811977Y-198935889D01*
X182762979Y-198817597D01*
X182738000Y-198692021D01*
X182738000Y-198563979D01*
X182762979Y-198438403D01*
X182811977Y-198320111D01*
X182835582Y-198284784D01*
X182883112Y-198213649D01*
X182973649Y-198123112D01*
X183080110Y-198051978D01*
X183080111Y-198051977D01*
X183149404Y-198023275D01*
X183198402Y-198002979D01*
X183240262Y-197994653D01*
X183323979Y-197978000D01*
X183452021Y-197978000D01*
X183535738Y-197994653D01*
G37*
G36*
X186075738Y-196724653D02*
G01*
X186117598Y-196732979D01*
X186166596Y-196753275D01*
X186235889Y-196781977D01*
X186235890Y-196781978D01*
X186342351Y-196853112D01*
X186432888Y-196943649D01*
X186480418Y-197014784D01*
X186504023Y-197050111D01*
X186553021Y-197168403D01*
X186578000Y-197293979D01*
X186578000Y-197422021D01*
X186553021Y-197547597D01*
X186504023Y-197665889D01*
X186504022Y-197665890D01*
X186432888Y-197772351D01*
X186342351Y-197862888D01*
X186271216Y-197910418D01*
X186235889Y-197934023D01*
X186166596Y-197962725D01*
X186117598Y-197983021D01*
X186075738Y-197991347D01*
X185992021Y-198008000D01*
X185863979Y-198008000D01*
X185780262Y-197991347D01*
X185738402Y-197983021D01*
X185689404Y-197962725D01*
X185620111Y-197934023D01*
X185584784Y-197910418D01*
X185513649Y-197862888D01*
X185423112Y-197772351D01*
X185351978Y-197665890D01*
X185351977Y-197665889D01*
X185302979Y-197547597D01*
X185278000Y-197422021D01*
X185278000Y-197293979D01*
X185302979Y-197168403D01*
X185351977Y-197050111D01*
X185375582Y-197014784D01*
X185423112Y-196943649D01*
X185513649Y-196853112D01*
X185620110Y-196781978D01*
X185620111Y-196781977D01*
X185689404Y-196753275D01*
X185738402Y-196732979D01*
X185780262Y-196724653D01*
X185863979Y-196708000D01*
X185992021Y-196708000D01*
X186075738Y-196724653D01*
G37*
G36*
X184355290Y-194983619D02*
G01*
X184419689Y-194996429D01*
X184601678Y-195071811D01*
X184765463Y-195181249D01*
X184904751Y-195320537D01*
X185014189Y-195484322D01*
X185089571Y-195666311D01*
X185128000Y-195859509D01*
X185128000Y-196056491D01*
X185089571Y-196249689D01*
X185014189Y-196431678D01*
X184904751Y-196595463D01*
X184765463Y-196734751D01*
X184601678Y-196844189D01*
X184419689Y-196919571D01*
X184355290Y-196932381D01*
X184226493Y-196958000D01*
X184029507Y-196958000D01*
X183900710Y-196932381D01*
X183836311Y-196919571D01*
X183654322Y-196844189D01*
X183490537Y-196734751D01*
X183351249Y-196595463D01*
X183241811Y-196431678D01*
X183166429Y-196249689D01*
X183128000Y-196056491D01*
X183128000Y-195859509D01*
X183166429Y-195666311D01*
X183241811Y-195484322D01*
X183351249Y-195320537D01*
X183490537Y-195181249D01*
X183654322Y-195071811D01*
X183836311Y-194996429D01*
X183900710Y-194983619D01*
X184029507Y-194958000D01*
X184226493Y-194958000D01*
X184355290Y-194983619D01*
G37*
G36*
X183688138Y-186767853D02*
G01*
X183729998Y-186776179D01*
X183778996Y-186796475D01*
X183848289Y-186825177D01*
X183848290Y-186825178D01*
X183954751Y-186896312D01*
X184045288Y-186986849D01*
X184092818Y-187057984D01*
X184116423Y-187093311D01*
X184165421Y-187211603D01*
X184190400Y-187337179D01*
X184190400Y-187465221D01*
X184165421Y-187590797D01*
X184116423Y-187709089D01*
X184116422Y-187709090D01*
X184045288Y-187815551D01*
X183954751Y-187906088D01*
X183883616Y-187953618D01*
X183848289Y-187977223D01*
X183778996Y-188005925D01*
X183729998Y-188026221D01*
X183688138Y-188034547D01*
X183604421Y-188051200D01*
X183476379Y-188051200D01*
X183392662Y-188034547D01*
X183350802Y-188026221D01*
X183301804Y-188005925D01*
X183232511Y-187977223D01*
X183197184Y-187953618D01*
X183126049Y-187906088D01*
X183035512Y-187815551D01*
X182964378Y-187709090D01*
X182964377Y-187709089D01*
X182915379Y-187590797D01*
X182890400Y-187465221D01*
X182890400Y-187337179D01*
X182915379Y-187211603D01*
X182964377Y-187093311D01*
X182987982Y-187057984D01*
X183035512Y-186986849D01*
X183126049Y-186896312D01*
X183232510Y-186825178D01*
X183232511Y-186825177D01*
X183301804Y-186796475D01*
X183350802Y-186776179D01*
X183392662Y-186767853D01*
X183476379Y-186751200D01*
X183604421Y-186751200D01*
X183688138Y-186767853D01*
G37*
G36*
X186228138Y-185497853D02*
G01*
X186269998Y-185506179D01*
X186318996Y-185526475D01*
X186388289Y-185555177D01*
X186388290Y-185555178D01*
X186494751Y-185626312D01*
X186585288Y-185716849D01*
X186632818Y-185787984D01*
X186656423Y-185823311D01*
X186705421Y-185941603D01*
X186730400Y-186067179D01*
X186730400Y-186195221D01*
X186705421Y-186320797D01*
X186656423Y-186439089D01*
X186656422Y-186439090D01*
X186585288Y-186545551D01*
X186494751Y-186636088D01*
X186423616Y-186683618D01*
X186388289Y-186707223D01*
X186318996Y-186735925D01*
X186269998Y-186756221D01*
X186228138Y-186764547D01*
X186144421Y-186781200D01*
X186016379Y-186781200D01*
X185932662Y-186764547D01*
X185890802Y-186756221D01*
X185841804Y-186735925D01*
X185772511Y-186707223D01*
X185737184Y-186683618D01*
X185666049Y-186636088D01*
X185575512Y-186545551D01*
X185504378Y-186439090D01*
X185504377Y-186439089D01*
X185455379Y-186320797D01*
X185430400Y-186195221D01*
X185430400Y-186067179D01*
X185455379Y-185941603D01*
X185504377Y-185823311D01*
X185527982Y-185787984D01*
X185575512Y-185716849D01*
X185666049Y-185626312D01*
X185772510Y-185555178D01*
X185772511Y-185555177D01*
X185841804Y-185526475D01*
X185890802Y-185506179D01*
X185932662Y-185497853D01*
X186016379Y-185481200D01*
X186144421Y-185481200D01*
X186228138Y-185497853D01*
G37*
G36*
X183688138Y-184227853D02*
G01*
X183729998Y-184236179D01*
X183778996Y-184256475D01*
X183848289Y-184285177D01*
X183848290Y-184285178D01*
X183954751Y-184356312D01*
X184045288Y-184446849D01*
X184092818Y-184517984D01*
X184116423Y-184553311D01*
X184165421Y-184671603D01*
X184190400Y-184797179D01*
X184190400Y-184925221D01*
X184165421Y-185050797D01*
X184116423Y-185169089D01*
X184116422Y-185169090D01*
X184045288Y-185275551D01*
X183954751Y-185366088D01*
X183883616Y-185413618D01*
X183848289Y-185437223D01*
X183778996Y-185465925D01*
X183729998Y-185486221D01*
X183688138Y-185494547D01*
X183604421Y-185511200D01*
X183476379Y-185511200D01*
X183392662Y-185494547D01*
X183350802Y-185486221D01*
X183301804Y-185465925D01*
X183232511Y-185437223D01*
X183197184Y-185413618D01*
X183126049Y-185366088D01*
X183035512Y-185275551D01*
X182964378Y-185169090D01*
X182964377Y-185169089D01*
X182915379Y-185050797D01*
X182890400Y-184925221D01*
X182890400Y-184797179D01*
X182915379Y-184671603D01*
X182964377Y-184553311D01*
X182987982Y-184517984D01*
X183035512Y-184446849D01*
X183126049Y-184356312D01*
X183232510Y-184285178D01*
X183232511Y-184285177D01*
X183301804Y-184256475D01*
X183350802Y-184236179D01*
X183392662Y-184227853D01*
X183476379Y-184211200D01*
X183604421Y-184211200D01*
X183688138Y-184227853D01*
G37*
G36*
X186228138Y-182957853D02*
G01*
X186269998Y-182966179D01*
X186318996Y-182986475D01*
X186388289Y-183015177D01*
X186388290Y-183015178D01*
X186494751Y-183086312D01*
X186585288Y-183176849D01*
X186632818Y-183247984D01*
X186656423Y-183283311D01*
X186705421Y-183401603D01*
X186730400Y-183527179D01*
X186730400Y-183655221D01*
X186705421Y-183780797D01*
X186656423Y-183899089D01*
X186656422Y-183899090D01*
X186585288Y-184005551D01*
X186494751Y-184096088D01*
X186423616Y-184143618D01*
X186388289Y-184167223D01*
X186318996Y-184195925D01*
X186269998Y-184216221D01*
X186228138Y-184224547D01*
X186144421Y-184241200D01*
X186016379Y-184241200D01*
X185932662Y-184224547D01*
X185890802Y-184216221D01*
X185841804Y-184195925D01*
X185772511Y-184167223D01*
X185737184Y-184143618D01*
X185666049Y-184096088D01*
X185575512Y-184005551D01*
X185504378Y-183899090D01*
X185504377Y-183899089D01*
X185455379Y-183780797D01*
X185430400Y-183655221D01*
X185430400Y-183527179D01*
X185455379Y-183401603D01*
X185504377Y-183283311D01*
X185527982Y-183247984D01*
X185575512Y-183176849D01*
X185666049Y-183086312D01*
X185772510Y-183015178D01*
X185772511Y-183015177D01*
X185841804Y-182986475D01*
X185890802Y-182966179D01*
X185932662Y-182957853D01*
X186016379Y-182941200D01*
X186144421Y-182941200D01*
X186228138Y-182957853D01*
G37*
G36*
X183688138Y-181687853D02*
G01*
X183729998Y-181696179D01*
X183778996Y-181716475D01*
X183848289Y-181745177D01*
X183848290Y-181745178D01*
X183954751Y-181816312D01*
X184045288Y-181906849D01*
X184092818Y-181977984D01*
X184116423Y-182013311D01*
X184165421Y-182131603D01*
X184190400Y-182257179D01*
X184190400Y-182385221D01*
X184165421Y-182510797D01*
X184116423Y-182629089D01*
X184116422Y-182629090D01*
X184045288Y-182735551D01*
X183954751Y-182826088D01*
X183883616Y-182873618D01*
X183848289Y-182897223D01*
X183778996Y-182925925D01*
X183729998Y-182946221D01*
X183688138Y-182954547D01*
X183604421Y-182971200D01*
X183476379Y-182971200D01*
X183392662Y-182954547D01*
X183350802Y-182946221D01*
X183301804Y-182925925D01*
X183232511Y-182897223D01*
X183197184Y-182873618D01*
X183126049Y-182826088D01*
X183035512Y-182735551D01*
X182964378Y-182629090D01*
X182964377Y-182629089D01*
X182915379Y-182510797D01*
X182890400Y-182385221D01*
X182890400Y-182257179D01*
X182915379Y-182131603D01*
X182964377Y-182013311D01*
X182987982Y-181977984D01*
X183035512Y-181906849D01*
X183126049Y-181816312D01*
X183232510Y-181745178D01*
X183232511Y-181745177D01*
X183301804Y-181716475D01*
X183350802Y-181696179D01*
X183392662Y-181687853D01*
X183476379Y-181671200D01*
X183604421Y-181671200D01*
X183688138Y-181687853D01*
G37*
G36*
X186228138Y-180417853D02*
G01*
X186269998Y-180426179D01*
X186318996Y-180446475D01*
X186388289Y-180475177D01*
X186388290Y-180475178D01*
X186494751Y-180546312D01*
X186585288Y-180636849D01*
X186632818Y-180707984D01*
X186656423Y-180743311D01*
X186705421Y-180861603D01*
X186730400Y-180987179D01*
X186730400Y-181115221D01*
X186705421Y-181240797D01*
X186656423Y-181359089D01*
X186656422Y-181359090D01*
X186585288Y-181465551D01*
X186494751Y-181556088D01*
X186423616Y-181603618D01*
X186388289Y-181627223D01*
X186318996Y-181655925D01*
X186269998Y-181676221D01*
X186228138Y-181684547D01*
X186144421Y-181701200D01*
X186016379Y-181701200D01*
X185932662Y-181684547D01*
X185890802Y-181676221D01*
X185841804Y-181655925D01*
X185772511Y-181627223D01*
X185737184Y-181603618D01*
X185666049Y-181556088D01*
X185575512Y-181465551D01*
X185504378Y-181359090D01*
X185504377Y-181359089D01*
X185455379Y-181240797D01*
X185430400Y-181115221D01*
X185430400Y-180987179D01*
X185455379Y-180861603D01*
X185504377Y-180743311D01*
X185527982Y-180707984D01*
X185575512Y-180636849D01*
X185666049Y-180546312D01*
X185772510Y-180475178D01*
X185772511Y-180475177D01*
X185841804Y-180446475D01*
X185890802Y-180426179D01*
X185932662Y-180417853D01*
X186016379Y-180401200D01*
X186144421Y-180401200D01*
X186228138Y-180417853D01*
G37*
G36*
X183688138Y-179147853D02*
G01*
X183729998Y-179156179D01*
X183778996Y-179176475D01*
X183848289Y-179205177D01*
X183848290Y-179205178D01*
X183954751Y-179276312D01*
X184045288Y-179366849D01*
X184092818Y-179437984D01*
X184116423Y-179473311D01*
X184165421Y-179591603D01*
X184190400Y-179717179D01*
X184190400Y-179845221D01*
X184165421Y-179970797D01*
X184116423Y-180089089D01*
X184116422Y-180089090D01*
X184045288Y-180195551D01*
X183954751Y-180286088D01*
X183883616Y-180333618D01*
X183848289Y-180357223D01*
X183778996Y-180385925D01*
X183729998Y-180406221D01*
X183688138Y-180414547D01*
X183604421Y-180431200D01*
X183476379Y-180431200D01*
X183392662Y-180414547D01*
X183350802Y-180406221D01*
X183301804Y-180385925D01*
X183232511Y-180357223D01*
X183197184Y-180333618D01*
X183126049Y-180286088D01*
X183035512Y-180195551D01*
X182964378Y-180089090D01*
X182964377Y-180089089D01*
X182915379Y-179970797D01*
X182890400Y-179845221D01*
X182890400Y-179717179D01*
X182915379Y-179591603D01*
X182964377Y-179473311D01*
X182987982Y-179437984D01*
X183035512Y-179366849D01*
X183126049Y-179276312D01*
X183232510Y-179205178D01*
X183232511Y-179205177D01*
X183301804Y-179176475D01*
X183350802Y-179156179D01*
X183392662Y-179147853D01*
X183476379Y-179131200D01*
X183604421Y-179131200D01*
X183688138Y-179147853D01*
G37*
G36*
X186228138Y-177877853D02*
G01*
X186269998Y-177886179D01*
X186318996Y-177906475D01*
X186388289Y-177935177D01*
X186388290Y-177935178D01*
X186494751Y-178006312D01*
X186585288Y-178096849D01*
X186632818Y-178167984D01*
X186656423Y-178203311D01*
X186705421Y-178321603D01*
X186730400Y-178447179D01*
X186730400Y-178575221D01*
X186705421Y-178700797D01*
X186656423Y-178819089D01*
X186656422Y-178819090D01*
X186585288Y-178925551D01*
X186494751Y-179016088D01*
X186423616Y-179063618D01*
X186388289Y-179087223D01*
X186318996Y-179115925D01*
X186269998Y-179136221D01*
X186228138Y-179144547D01*
X186144421Y-179161200D01*
X186016379Y-179161200D01*
X185932662Y-179144547D01*
X185890802Y-179136221D01*
X185841804Y-179115925D01*
X185772511Y-179087223D01*
X185737184Y-179063618D01*
X185666049Y-179016088D01*
X185575512Y-178925551D01*
X185504378Y-178819090D01*
X185504377Y-178819089D01*
X185455379Y-178700797D01*
X185430400Y-178575221D01*
X185430400Y-178447179D01*
X185455379Y-178321603D01*
X185504377Y-178203311D01*
X185527982Y-178167984D01*
X185575512Y-178096849D01*
X185666049Y-178006312D01*
X185772510Y-177935178D01*
X185772511Y-177935177D01*
X185841804Y-177906475D01*
X185890802Y-177886179D01*
X185932662Y-177877853D01*
X186016379Y-177861200D01*
X186144421Y-177861200D01*
X186228138Y-177877853D01*
G37*
G36*
X183688138Y-176607853D02*
G01*
X183729998Y-176616179D01*
X183778996Y-176636475D01*
X183848289Y-176665177D01*
X183848290Y-176665178D01*
X183954751Y-176736312D01*
X184045288Y-176826849D01*
X184092818Y-176897984D01*
X184116423Y-176933311D01*
X184165421Y-177051603D01*
X184190400Y-177177179D01*
X184190400Y-177305221D01*
X184165421Y-177430797D01*
X184116423Y-177549089D01*
X184116422Y-177549090D01*
X184045288Y-177655551D01*
X183954751Y-177746088D01*
X183883616Y-177793618D01*
X183848289Y-177817223D01*
X183778996Y-177845925D01*
X183729998Y-177866221D01*
X183688138Y-177874547D01*
X183604421Y-177891200D01*
X183476379Y-177891200D01*
X183392662Y-177874547D01*
X183350802Y-177866221D01*
X183301804Y-177845925D01*
X183232511Y-177817223D01*
X183197184Y-177793618D01*
X183126049Y-177746088D01*
X183035512Y-177655551D01*
X182964378Y-177549090D01*
X182964377Y-177549089D01*
X182915379Y-177430797D01*
X182890400Y-177305221D01*
X182890400Y-177177179D01*
X182915379Y-177051603D01*
X182964377Y-176933311D01*
X182987982Y-176897984D01*
X183035512Y-176826849D01*
X183126049Y-176736312D01*
X183232510Y-176665178D01*
X183232511Y-176665177D01*
X183301804Y-176636475D01*
X183350802Y-176616179D01*
X183392662Y-176607853D01*
X183476379Y-176591200D01*
X183604421Y-176591200D01*
X183688138Y-176607853D01*
G37*
G36*
X186228138Y-175337853D02*
G01*
X186269998Y-175346179D01*
X186318996Y-175366475D01*
X186388289Y-175395177D01*
X186388290Y-175395178D01*
X186494751Y-175466312D01*
X186585288Y-175556849D01*
X186632818Y-175627984D01*
X186656423Y-175663311D01*
X186705421Y-175781603D01*
X186730400Y-175907179D01*
X186730400Y-176035221D01*
X186705421Y-176160797D01*
X186656423Y-176279089D01*
X186656422Y-176279090D01*
X186585288Y-176385551D01*
X186494751Y-176476088D01*
X186423616Y-176523618D01*
X186388289Y-176547223D01*
X186318996Y-176575925D01*
X186269998Y-176596221D01*
X186228138Y-176604547D01*
X186144421Y-176621200D01*
X186016379Y-176621200D01*
X185932662Y-176604547D01*
X185890802Y-176596221D01*
X185841804Y-176575925D01*
X185772511Y-176547223D01*
X185737184Y-176523618D01*
X185666049Y-176476088D01*
X185575512Y-176385551D01*
X185504378Y-176279090D01*
X185504377Y-176279089D01*
X185455379Y-176160797D01*
X185430400Y-176035221D01*
X185430400Y-175907179D01*
X185455379Y-175781603D01*
X185504377Y-175663311D01*
X185527982Y-175627984D01*
X185575512Y-175556849D01*
X185666049Y-175466312D01*
X185772510Y-175395178D01*
X185772511Y-175395177D01*
X185841804Y-175366475D01*
X185890802Y-175346179D01*
X185932662Y-175337853D01*
X186016379Y-175321200D01*
X186144421Y-175321200D01*
X186228138Y-175337853D01*
G37*
G36*
X183688138Y-174067853D02*
G01*
X183729998Y-174076179D01*
X183778996Y-174096475D01*
X183848289Y-174125177D01*
X183848290Y-174125178D01*
X183954751Y-174196312D01*
X184045288Y-174286849D01*
X184092818Y-174357984D01*
X184116423Y-174393311D01*
X184165421Y-174511603D01*
X184190400Y-174637179D01*
X184190400Y-174765221D01*
X184165421Y-174890797D01*
X184116423Y-175009089D01*
X184116422Y-175009090D01*
X184045288Y-175115551D01*
X183954751Y-175206088D01*
X183883616Y-175253618D01*
X183848289Y-175277223D01*
X183778996Y-175305925D01*
X183729998Y-175326221D01*
X183688138Y-175334547D01*
X183604421Y-175351200D01*
X183476379Y-175351200D01*
X183392662Y-175334547D01*
X183350802Y-175326221D01*
X183301804Y-175305925D01*
X183232511Y-175277223D01*
X183197184Y-175253618D01*
X183126049Y-175206088D01*
X183035512Y-175115551D01*
X182964378Y-175009090D01*
X182964377Y-175009089D01*
X182915379Y-174890797D01*
X182890400Y-174765221D01*
X182890400Y-174637179D01*
X182915379Y-174511603D01*
X182964377Y-174393311D01*
X182987982Y-174357984D01*
X183035512Y-174286849D01*
X183126049Y-174196312D01*
X183232510Y-174125178D01*
X183232511Y-174125177D01*
X183301804Y-174096475D01*
X183350802Y-174076179D01*
X183392662Y-174067853D01*
X183476379Y-174051200D01*
X183604421Y-174051200D01*
X183688138Y-174067853D01*
G37*
G36*
X186228138Y-172797853D02*
G01*
X186269998Y-172806179D01*
X186318996Y-172826475D01*
X186388289Y-172855177D01*
X186388290Y-172855178D01*
X186494751Y-172926312D01*
X186585288Y-173016849D01*
X186632818Y-173087984D01*
X186656423Y-173123311D01*
X186705421Y-173241603D01*
X186730400Y-173367179D01*
X186730400Y-173495221D01*
X186705421Y-173620797D01*
X186656423Y-173739089D01*
X186656422Y-173739090D01*
X186585288Y-173845551D01*
X186494751Y-173936088D01*
X186423616Y-173983618D01*
X186388289Y-174007223D01*
X186318996Y-174035925D01*
X186269998Y-174056221D01*
X186228138Y-174064547D01*
X186144421Y-174081200D01*
X186016379Y-174081200D01*
X185932662Y-174064547D01*
X185890802Y-174056221D01*
X185841804Y-174035925D01*
X185772511Y-174007223D01*
X185737184Y-173983618D01*
X185666049Y-173936088D01*
X185575512Y-173845551D01*
X185504378Y-173739090D01*
X185504377Y-173739089D01*
X185455379Y-173620797D01*
X185430400Y-173495221D01*
X185430400Y-173367179D01*
X185455379Y-173241603D01*
X185504377Y-173123311D01*
X185527982Y-173087984D01*
X185575512Y-173016849D01*
X185666049Y-172926312D01*
X185772510Y-172855178D01*
X185772511Y-172855177D01*
X185841804Y-172826475D01*
X185890802Y-172806179D01*
X185932662Y-172797853D01*
X186016379Y-172781200D01*
X186144421Y-172781200D01*
X186228138Y-172797853D01*
G37*
G36*
X184507690Y-171056819D02*
G01*
X184572089Y-171069629D01*
X184754078Y-171145011D01*
X184917863Y-171254449D01*
X185057151Y-171393737D01*
X185166589Y-171557522D01*
X185241971Y-171739511D01*
X185280400Y-171932709D01*
X185280400Y-172129691D01*
X185241971Y-172322889D01*
X185166589Y-172504878D01*
X185057151Y-172668663D01*
X184917863Y-172807951D01*
X184754078Y-172917389D01*
X184572089Y-172992771D01*
X184507690Y-173005581D01*
X184378893Y-173031200D01*
X184181907Y-173031200D01*
X184053110Y-173005581D01*
X183988711Y-172992771D01*
X183806722Y-172917389D01*
X183642937Y-172807951D01*
X183503649Y-172668663D01*
X183394211Y-172504878D01*
X183318829Y-172322889D01*
X183280400Y-172129691D01*
X183280400Y-171932709D01*
X183318829Y-171739511D01*
X183394211Y-171557522D01*
X183503649Y-171393737D01*
X183642937Y-171254449D01*
X183806722Y-171145011D01*
X183988711Y-171069629D01*
X184053110Y-171056819D01*
X184181907Y-171031200D01*
X184378893Y-171031200D01*
X184507690Y-171056819D01*
G37*
G36*
X183688138Y-161875853D02*
G01*
X183729998Y-161884179D01*
X183778996Y-161904475D01*
X183848289Y-161933177D01*
X183848290Y-161933178D01*
X183954751Y-162004312D01*
X184045288Y-162094849D01*
X184092818Y-162165984D01*
X184116423Y-162201311D01*
X184165421Y-162319603D01*
X184190400Y-162445179D01*
X184190400Y-162573221D01*
X184165421Y-162698797D01*
X184116423Y-162817089D01*
X184116422Y-162817090D01*
X184045288Y-162923551D01*
X183954751Y-163014088D01*
X183883616Y-163061618D01*
X183848289Y-163085223D01*
X183778996Y-163113925D01*
X183729998Y-163134221D01*
X183688138Y-163142547D01*
X183604421Y-163159200D01*
X183476379Y-163159200D01*
X183392662Y-163142547D01*
X183350802Y-163134221D01*
X183301804Y-163113925D01*
X183232511Y-163085223D01*
X183197184Y-163061618D01*
X183126049Y-163014088D01*
X183035512Y-162923551D01*
X182964378Y-162817090D01*
X182964377Y-162817089D01*
X182915379Y-162698797D01*
X182890400Y-162573221D01*
X182890400Y-162445179D01*
X182915379Y-162319603D01*
X182964377Y-162201311D01*
X182987982Y-162165984D01*
X183035512Y-162094849D01*
X183126049Y-162004312D01*
X183232510Y-161933178D01*
X183232511Y-161933177D01*
X183301804Y-161904475D01*
X183350802Y-161884179D01*
X183392662Y-161875853D01*
X183476379Y-161859200D01*
X183604421Y-161859200D01*
X183688138Y-161875853D01*
G37*
G36*
X186228138Y-160605853D02*
G01*
X186269998Y-160614179D01*
X186318996Y-160634475D01*
X186388289Y-160663177D01*
X186388290Y-160663178D01*
X186494751Y-160734312D01*
X186585288Y-160824849D01*
X186632818Y-160895984D01*
X186656423Y-160931311D01*
X186705421Y-161049603D01*
X186730400Y-161175179D01*
X186730400Y-161303221D01*
X186705421Y-161428797D01*
X186656423Y-161547089D01*
X186656422Y-161547090D01*
X186585288Y-161653551D01*
X186494751Y-161744088D01*
X186423616Y-161791618D01*
X186388289Y-161815223D01*
X186318996Y-161843925D01*
X186269998Y-161864221D01*
X186228138Y-161872547D01*
X186144421Y-161889200D01*
X186016379Y-161889200D01*
X185932662Y-161872547D01*
X185890802Y-161864221D01*
X185841804Y-161843925D01*
X185772511Y-161815223D01*
X185737184Y-161791618D01*
X185666049Y-161744088D01*
X185575512Y-161653551D01*
X185504378Y-161547090D01*
X185504377Y-161547089D01*
X185455379Y-161428797D01*
X185430400Y-161303221D01*
X185430400Y-161175179D01*
X185455379Y-161049603D01*
X185504377Y-160931311D01*
X185527982Y-160895984D01*
X185575512Y-160824849D01*
X185666049Y-160734312D01*
X185772510Y-160663178D01*
X185772511Y-160663177D01*
X185841804Y-160634475D01*
X185890802Y-160614179D01*
X185932662Y-160605853D01*
X186016379Y-160589200D01*
X186144421Y-160589200D01*
X186228138Y-160605853D01*
G37*
G36*
X183688138Y-159335853D02*
G01*
X183729998Y-159344179D01*
X183778996Y-159364475D01*
X183848289Y-159393177D01*
X183848290Y-159393178D01*
X183954751Y-159464312D01*
X184045288Y-159554849D01*
X184092818Y-159625984D01*
X184116423Y-159661311D01*
X184165421Y-159779603D01*
X184190400Y-159905179D01*
X184190400Y-160033221D01*
X184165421Y-160158797D01*
X184116423Y-160277089D01*
X184116422Y-160277090D01*
X184045288Y-160383551D01*
X183954751Y-160474088D01*
X183883616Y-160521618D01*
X183848289Y-160545223D01*
X183778996Y-160573925D01*
X183729998Y-160594221D01*
X183688138Y-160602547D01*
X183604421Y-160619200D01*
X183476379Y-160619200D01*
X183392662Y-160602547D01*
X183350802Y-160594221D01*
X183301804Y-160573925D01*
X183232511Y-160545223D01*
X183197184Y-160521618D01*
X183126049Y-160474088D01*
X183035512Y-160383551D01*
X182964378Y-160277090D01*
X182964377Y-160277089D01*
X182915379Y-160158797D01*
X182890400Y-160033221D01*
X182890400Y-159905179D01*
X182915379Y-159779603D01*
X182964377Y-159661311D01*
X182987982Y-159625984D01*
X183035512Y-159554849D01*
X183126049Y-159464312D01*
X183232510Y-159393178D01*
X183232511Y-159393177D01*
X183301804Y-159364475D01*
X183350802Y-159344179D01*
X183392662Y-159335853D01*
X183476379Y-159319200D01*
X183604421Y-159319200D01*
X183688138Y-159335853D01*
G37*
G36*
X186228138Y-158065853D02*
G01*
X186269998Y-158074179D01*
X186318996Y-158094475D01*
X186388289Y-158123177D01*
X186388290Y-158123178D01*
X186494751Y-158194312D01*
X186585288Y-158284849D01*
X186632818Y-158355984D01*
X186656423Y-158391311D01*
X186705421Y-158509603D01*
X186730400Y-158635179D01*
X186730400Y-158763221D01*
X186705421Y-158888797D01*
X186656423Y-159007089D01*
X186656422Y-159007090D01*
X186585288Y-159113551D01*
X186494751Y-159204088D01*
X186423616Y-159251618D01*
X186388289Y-159275223D01*
X186318996Y-159303925D01*
X186269998Y-159324221D01*
X186228138Y-159332547D01*
X186144421Y-159349200D01*
X186016379Y-159349200D01*
X185932662Y-159332547D01*
X185890802Y-159324221D01*
X185841804Y-159303925D01*
X185772511Y-159275223D01*
X185737184Y-159251618D01*
X185666049Y-159204088D01*
X185575512Y-159113551D01*
X185504378Y-159007090D01*
X185504377Y-159007089D01*
X185455379Y-158888797D01*
X185430400Y-158763221D01*
X185430400Y-158635179D01*
X185455379Y-158509603D01*
X185504377Y-158391311D01*
X185527982Y-158355984D01*
X185575512Y-158284849D01*
X185666049Y-158194312D01*
X185772510Y-158123178D01*
X185772511Y-158123177D01*
X185841804Y-158094475D01*
X185890802Y-158074179D01*
X185932662Y-158065853D01*
X186016379Y-158049200D01*
X186144421Y-158049200D01*
X186228138Y-158065853D01*
G37*
G36*
X183688138Y-156795853D02*
G01*
X183729998Y-156804179D01*
X183778996Y-156824475D01*
X183848289Y-156853177D01*
X183848290Y-156853178D01*
X183954751Y-156924312D01*
X184045288Y-157014849D01*
X184092818Y-157085984D01*
X184116423Y-157121311D01*
X184165421Y-157239603D01*
X184190400Y-157365179D01*
X184190400Y-157493221D01*
X184165421Y-157618797D01*
X184116423Y-157737089D01*
X184116422Y-157737090D01*
X184045288Y-157843551D01*
X183954751Y-157934088D01*
X183883616Y-157981618D01*
X183848289Y-158005223D01*
X183778996Y-158033925D01*
X183729998Y-158054221D01*
X183688138Y-158062547D01*
X183604421Y-158079200D01*
X183476379Y-158079200D01*
X183392662Y-158062547D01*
X183350802Y-158054221D01*
X183301804Y-158033925D01*
X183232511Y-158005223D01*
X183197184Y-157981618D01*
X183126049Y-157934088D01*
X183035512Y-157843551D01*
X182964378Y-157737090D01*
X182964377Y-157737089D01*
X182915379Y-157618797D01*
X182890400Y-157493221D01*
X182890400Y-157365179D01*
X182915379Y-157239603D01*
X182964377Y-157121311D01*
X182987982Y-157085984D01*
X183035512Y-157014849D01*
X183126049Y-156924312D01*
X183232510Y-156853178D01*
X183232511Y-156853177D01*
X183301804Y-156824475D01*
X183350802Y-156804179D01*
X183392662Y-156795853D01*
X183476379Y-156779200D01*
X183604421Y-156779200D01*
X183688138Y-156795853D01*
G37*
G36*
X186228138Y-155525853D02*
G01*
X186269998Y-155534179D01*
X186318996Y-155554475D01*
X186388289Y-155583177D01*
X186388290Y-155583178D01*
X186494751Y-155654312D01*
X186585288Y-155744849D01*
X186632818Y-155815984D01*
X186656423Y-155851311D01*
X186705421Y-155969603D01*
X186730400Y-156095179D01*
X186730400Y-156223221D01*
X186705421Y-156348797D01*
X186656423Y-156467089D01*
X186656422Y-156467090D01*
X186585288Y-156573551D01*
X186494751Y-156664088D01*
X186423616Y-156711618D01*
X186388289Y-156735223D01*
X186318996Y-156763925D01*
X186269998Y-156784221D01*
X186228138Y-156792547D01*
X186144421Y-156809200D01*
X186016379Y-156809200D01*
X185932662Y-156792547D01*
X185890802Y-156784221D01*
X185841804Y-156763925D01*
X185772511Y-156735223D01*
X185737184Y-156711618D01*
X185666049Y-156664088D01*
X185575512Y-156573551D01*
X185504378Y-156467090D01*
X185504377Y-156467089D01*
X185455379Y-156348797D01*
X185430400Y-156223221D01*
X185430400Y-156095179D01*
X185455379Y-155969603D01*
X185504377Y-155851311D01*
X185527982Y-155815984D01*
X185575512Y-155744849D01*
X185666049Y-155654312D01*
X185772510Y-155583178D01*
X185772511Y-155583177D01*
X185841804Y-155554475D01*
X185890802Y-155534179D01*
X185932662Y-155525853D01*
X186016379Y-155509200D01*
X186144421Y-155509200D01*
X186228138Y-155525853D01*
G37*
G36*
X183688138Y-154255853D02*
G01*
X183729998Y-154264179D01*
X183778996Y-154284475D01*
X183848289Y-154313177D01*
X183848290Y-154313178D01*
X183954751Y-154384312D01*
X184045288Y-154474849D01*
X184092818Y-154545984D01*
X184116423Y-154581311D01*
X184165421Y-154699603D01*
X184190400Y-154825179D01*
X184190400Y-154953221D01*
X184165421Y-155078797D01*
X184116423Y-155197089D01*
X184116422Y-155197090D01*
X184045288Y-155303551D01*
X183954751Y-155394088D01*
X183883616Y-155441618D01*
X183848289Y-155465223D01*
X183778996Y-155493925D01*
X183729998Y-155514221D01*
X183688138Y-155522547D01*
X183604421Y-155539200D01*
X183476379Y-155539200D01*
X183392662Y-155522547D01*
X183350802Y-155514221D01*
X183301804Y-155493925D01*
X183232511Y-155465223D01*
X183197184Y-155441618D01*
X183126049Y-155394088D01*
X183035512Y-155303551D01*
X182964378Y-155197090D01*
X182964377Y-155197089D01*
X182915379Y-155078797D01*
X182890400Y-154953221D01*
X182890400Y-154825179D01*
X182915379Y-154699603D01*
X182964377Y-154581311D01*
X182987982Y-154545984D01*
X183035512Y-154474849D01*
X183126049Y-154384312D01*
X183232510Y-154313178D01*
X183232511Y-154313177D01*
X183301804Y-154284475D01*
X183350802Y-154264179D01*
X183392662Y-154255853D01*
X183476379Y-154239200D01*
X183604421Y-154239200D01*
X183688138Y-154255853D01*
G37*
G36*
X186228138Y-152985853D02*
G01*
X186269998Y-152994179D01*
X186318996Y-153014475D01*
X186388289Y-153043177D01*
X186388290Y-153043178D01*
X186494751Y-153114312D01*
X186585288Y-153204849D01*
X186632818Y-153275984D01*
X186656423Y-153311311D01*
X186705421Y-153429603D01*
X186730400Y-153555179D01*
X186730400Y-153683221D01*
X186705421Y-153808797D01*
X186656423Y-153927089D01*
X186656422Y-153927090D01*
X186585288Y-154033551D01*
X186494751Y-154124088D01*
X186423616Y-154171618D01*
X186388289Y-154195223D01*
X186318996Y-154223925D01*
X186269998Y-154244221D01*
X186228138Y-154252547D01*
X186144421Y-154269200D01*
X186016379Y-154269200D01*
X185932662Y-154252547D01*
X185890802Y-154244221D01*
X185841804Y-154223925D01*
X185772511Y-154195223D01*
X185737184Y-154171618D01*
X185666049Y-154124088D01*
X185575512Y-154033551D01*
X185504378Y-153927090D01*
X185504377Y-153927089D01*
X185455379Y-153808797D01*
X185430400Y-153683221D01*
X185430400Y-153555179D01*
X185455379Y-153429603D01*
X185504377Y-153311311D01*
X185527982Y-153275984D01*
X185575512Y-153204849D01*
X185666049Y-153114312D01*
X185772510Y-153043178D01*
X185772511Y-153043177D01*
X185841804Y-153014475D01*
X185890802Y-152994179D01*
X185932662Y-152985853D01*
X186016379Y-152969200D01*
X186144421Y-152969200D01*
X186228138Y-152985853D01*
G37*
G36*
X183688138Y-151715853D02*
G01*
X183729998Y-151724179D01*
X183778996Y-151744475D01*
X183848289Y-151773177D01*
X183848290Y-151773178D01*
X183954751Y-151844312D01*
X184045288Y-151934849D01*
X184092818Y-152005984D01*
X184116423Y-152041311D01*
X184165421Y-152159603D01*
X184190400Y-152285179D01*
X184190400Y-152413221D01*
X184165421Y-152538797D01*
X184116423Y-152657089D01*
X184116422Y-152657090D01*
X184045288Y-152763551D01*
X183954751Y-152854088D01*
X183883616Y-152901618D01*
X183848289Y-152925223D01*
X183778996Y-152953925D01*
X183729998Y-152974221D01*
X183688138Y-152982547D01*
X183604421Y-152999200D01*
X183476379Y-152999200D01*
X183392662Y-152982547D01*
X183350802Y-152974221D01*
X183301804Y-152953925D01*
X183232511Y-152925223D01*
X183197184Y-152901618D01*
X183126049Y-152854088D01*
X183035512Y-152763551D01*
X182964378Y-152657090D01*
X182964377Y-152657089D01*
X182915379Y-152538797D01*
X182890400Y-152413221D01*
X182890400Y-152285179D01*
X182915379Y-152159603D01*
X182964377Y-152041311D01*
X182987982Y-152005984D01*
X183035512Y-151934849D01*
X183126049Y-151844312D01*
X183232510Y-151773178D01*
X183232511Y-151773177D01*
X183301804Y-151744475D01*
X183350802Y-151724179D01*
X183392662Y-151715853D01*
X183476379Y-151699200D01*
X183604421Y-151699200D01*
X183688138Y-151715853D01*
G37*
G36*
X186228138Y-150445853D02*
G01*
X186269998Y-150454179D01*
X186318996Y-150474475D01*
X186388289Y-150503177D01*
X186388290Y-150503178D01*
X186494751Y-150574312D01*
X186585288Y-150664849D01*
X186632818Y-150735984D01*
X186656423Y-150771311D01*
X186705421Y-150889603D01*
X186730400Y-151015179D01*
X186730400Y-151143221D01*
X186705421Y-151268797D01*
X186656423Y-151387089D01*
X186656422Y-151387090D01*
X186585288Y-151493551D01*
X186494751Y-151584088D01*
X186423616Y-151631618D01*
X186388289Y-151655223D01*
X186318996Y-151683925D01*
X186269998Y-151704221D01*
X186228138Y-151712547D01*
X186144421Y-151729200D01*
X186016379Y-151729200D01*
X185932662Y-151712547D01*
X185890802Y-151704221D01*
X185841804Y-151683925D01*
X185772511Y-151655223D01*
X185737184Y-151631618D01*
X185666049Y-151584088D01*
X185575512Y-151493551D01*
X185504378Y-151387090D01*
X185504377Y-151387089D01*
X185455379Y-151268797D01*
X185430400Y-151143221D01*
X185430400Y-151015179D01*
X185455379Y-150889603D01*
X185504377Y-150771311D01*
X185527982Y-150735984D01*
X185575512Y-150664849D01*
X185666049Y-150574312D01*
X185772510Y-150503178D01*
X185772511Y-150503177D01*
X185841804Y-150474475D01*
X185890802Y-150454179D01*
X185932662Y-150445853D01*
X186016379Y-150429200D01*
X186144421Y-150429200D01*
X186228138Y-150445853D01*
G37*
G36*
X183688138Y-149175853D02*
G01*
X183729998Y-149184179D01*
X183778996Y-149204475D01*
X183848289Y-149233177D01*
X183848290Y-149233178D01*
X183954751Y-149304312D01*
X184045288Y-149394849D01*
X184092818Y-149465984D01*
X184116423Y-149501311D01*
X184165421Y-149619603D01*
X184190400Y-149745179D01*
X184190400Y-149873221D01*
X184165421Y-149998797D01*
X184116423Y-150117089D01*
X184116422Y-150117090D01*
X184045288Y-150223551D01*
X183954751Y-150314088D01*
X183883616Y-150361618D01*
X183848289Y-150385223D01*
X183778996Y-150413925D01*
X183729998Y-150434221D01*
X183688138Y-150442547D01*
X183604421Y-150459200D01*
X183476379Y-150459200D01*
X183392662Y-150442547D01*
X183350802Y-150434221D01*
X183301804Y-150413925D01*
X183232511Y-150385223D01*
X183197184Y-150361618D01*
X183126049Y-150314088D01*
X183035512Y-150223551D01*
X182964378Y-150117090D01*
X182964377Y-150117089D01*
X182915379Y-149998797D01*
X182890400Y-149873221D01*
X182890400Y-149745179D01*
X182915379Y-149619603D01*
X182964377Y-149501311D01*
X182987982Y-149465984D01*
X183035512Y-149394849D01*
X183126049Y-149304312D01*
X183232510Y-149233178D01*
X183232511Y-149233177D01*
X183301804Y-149204475D01*
X183350802Y-149184179D01*
X183392662Y-149175853D01*
X183476379Y-149159200D01*
X183604421Y-149159200D01*
X183688138Y-149175853D01*
G37*
G36*
X186228138Y-147905853D02*
G01*
X186269998Y-147914179D01*
X186318996Y-147934475D01*
X186388289Y-147963177D01*
X186388290Y-147963178D01*
X186494751Y-148034312D01*
X186585288Y-148124849D01*
X186632818Y-148195984D01*
X186656423Y-148231311D01*
X186705421Y-148349603D01*
X186730400Y-148475179D01*
X186730400Y-148603221D01*
X186705421Y-148728797D01*
X186656423Y-148847089D01*
X186656422Y-148847090D01*
X186585288Y-148953551D01*
X186494751Y-149044088D01*
X186423616Y-149091618D01*
X186388289Y-149115223D01*
X186318996Y-149143925D01*
X186269998Y-149164221D01*
X186228138Y-149172547D01*
X186144421Y-149189200D01*
X186016379Y-149189200D01*
X185932662Y-149172547D01*
X185890802Y-149164221D01*
X185841804Y-149143925D01*
X185772511Y-149115223D01*
X185737184Y-149091618D01*
X185666049Y-149044088D01*
X185575512Y-148953551D01*
X185504378Y-148847090D01*
X185504377Y-148847089D01*
X185455379Y-148728797D01*
X185430400Y-148603221D01*
X185430400Y-148475179D01*
X185455379Y-148349603D01*
X185504377Y-148231311D01*
X185527982Y-148195984D01*
X185575512Y-148124849D01*
X185666049Y-148034312D01*
X185772510Y-147963178D01*
X185772511Y-147963177D01*
X185841804Y-147934475D01*
X185890802Y-147914179D01*
X185932662Y-147905853D01*
X186016379Y-147889200D01*
X186144421Y-147889200D01*
X186228138Y-147905853D01*
G37*
G36*
X184507690Y-146164819D02*
G01*
X184572089Y-146177629D01*
X184754078Y-146253011D01*
X184917863Y-146362449D01*
X185057151Y-146501737D01*
X185166589Y-146665522D01*
X185241971Y-146847511D01*
X185280400Y-147040709D01*
X185280400Y-147237691D01*
X185241971Y-147430889D01*
X185166589Y-147612878D01*
X185057151Y-147776663D01*
X184917863Y-147915951D01*
X184754078Y-148025389D01*
X184572089Y-148100771D01*
X184507690Y-148113581D01*
X184378893Y-148139200D01*
X184181907Y-148139200D01*
X184053110Y-148113581D01*
X183988711Y-148100771D01*
X183806722Y-148025389D01*
X183642937Y-147915951D01*
X183503649Y-147776663D01*
X183394211Y-147612878D01*
X183318829Y-147430889D01*
X183280400Y-147237691D01*
X183280400Y-147040709D01*
X183318829Y-146847511D01*
X183394211Y-146665522D01*
X183503649Y-146501737D01*
X183642937Y-146362449D01*
X183806722Y-146253011D01*
X183988711Y-146177629D01*
X184053110Y-146164819D01*
X184181907Y-146139200D01*
X184378893Y-146139200D01*
X184507690Y-146164819D01*
G37*
M02*
