G04 #@! TF.GenerationSoftware,KiCad,Pcbnew,5.1.5-52549c5~84~ubuntu18.04.1*
G04 #@! TF.CreationDate,2020-02-28T12:30:24-05:00*
G04 #@! TF.ProjectId,BMS_peripheral_v2,424d535f-7065-4726-9970-686572616c5f,rev?*
G04 #@! TF.SameCoordinates,Original*
G04 #@! TF.FileFunction,Paste,Top*
G04 #@! TF.FilePolarity,Positive*
%FSLAX46Y46*%
G04 Gerber Fmt 4.6, Leading zero omitted, Abs format (unit mm)*
G04 Created by KiCad (PCBNEW 5.1.5-52549c5~84~ubuntu18.04.1) date 2020-02-28 12:30:24*
%MOMM*%
%LPD*%
G04 APERTURE LIST*
%ADD10R,1.000000X1.250000*%
%ADD11R,1.650000X3.430000*%
%ADD12R,2.920000X1.270000*%
%ADD13R,1.500000X2.000000*%
%ADD14R,3.800000X2.000000*%
%ADD15R,1.060000X0.650000*%
%ADD16R,0.700000X1.300000*%
%ADD17R,0.400000X1.200000*%
%ADD18R,1.250000X1.000000*%
%ADD19R,2.000000X1.500000*%
%ADD20R,2.000000X3.800000*%
%ADD21R,1.300000X0.700000*%
%ADD22R,1.500000X0.250000*%
%ADD23R,0.650000X0.400000*%
%ADD24R,0.400000X0.650000*%
%ADD25R,2.700000X1.000000*%
%ADD26R,4.500000X3.000000*%
%ADD27R,3.000000X4.500000*%
G04 APERTURE END LIST*
D10*
X205095600Y-323138800D03*
X207095600Y-323138800D03*
D11*
X180404000Y-317962000D03*
X180404000Y-328722000D03*
D12*
X185864000Y-321842000D03*
X185864000Y-324842000D03*
D13*
X189978000Y-358292800D03*
X194578000Y-358292800D03*
X192278000Y-358292800D03*
D14*
X192278000Y-351992800D03*
D15*
X215298200Y-295061600D03*
X215298200Y-296961600D03*
X213098200Y-296961600D03*
X213098200Y-296011600D03*
X213098200Y-295061600D03*
D16*
X194508080Y-230858060D03*
X196408080Y-230858060D03*
X188376520Y-232064560D03*
X190276520Y-232064560D03*
X194645240Y-181030880D03*
X196545240Y-181030880D03*
X188363820Y-182338980D03*
X190263820Y-182338980D03*
X194645240Y-183545480D03*
X196545240Y-183545480D03*
X188376520Y-235882180D03*
X190276520Y-235882180D03*
X194122000Y-237190280D03*
X196022000Y-237190280D03*
X188376520Y-238447580D03*
X190276520Y-238447580D03*
D17*
X200736200Y-291144000D03*
X200101200Y-291144000D03*
X199466200Y-291144000D03*
X198831200Y-291144000D03*
X198196200Y-291144000D03*
X197561200Y-291144000D03*
X196926200Y-291144000D03*
X196291200Y-291144000D03*
X196291200Y-285944000D03*
X196926200Y-285944000D03*
X197561200Y-285944000D03*
X198196200Y-285944000D03*
X198831200Y-285944000D03*
X199466200Y-285944000D03*
X200101200Y-285944000D03*
X200736200Y-285944000D03*
D18*
X198221600Y-296148000D03*
X198221600Y-294148000D03*
D10*
X219720480Y-319438000D03*
X217720480Y-319438000D03*
X217720480Y-317271592D03*
X219720480Y-317271592D03*
X219720480Y-315105190D03*
X217720480Y-315105190D03*
X217720480Y-312938788D03*
X219720480Y-312938788D03*
X219720480Y-310772386D03*
X217720480Y-310772386D03*
X217720480Y-308605984D03*
X219720480Y-308605984D03*
X219720480Y-306439582D03*
X217720480Y-306439582D03*
X217720480Y-304273180D03*
X219720480Y-304273180D03*
X182200000Y-358900000D03*
X184200000Y-358900000D03*
X184200000Y-361414285D03*
X182200000Y-361414285D03*
X182200000Y-363928570D03*
X184200000Y-363928570D03*
X184200000Y-366442855D03*
X182200000Y-366442855D03*
X182200000Y-368957140D03*
X184200000Y-368957140D03*
X184200000Y-371471425D03*
X182200000Y-371471425D03*
X182200000Y-373985710D03*
X184200000Y-373985710D03*
X184200000Y-376500000D03*
X182200000Y-376500000D03*
X192471800Y-299821600D03*
X194471800Y-299821600D03*
D18*
X184454000Y-354624800D03*
X184454000Y-356624800D03*
D10*
X200971400Y-308102000D03*
X202971400Y-308102000D03*
X200955400Y-310134000D03*
X202955400Y-310134000D03*
X199866000Y-369824000D03*
X197866000Y-369824000D03*
X200955400Y-312166000D03*
X202955400Y-312166000D03*
X199882000Y-367538000D03*
X197882000Y-367538000D03*
X189137800Y-302615600D03*
X187137800Y-302615600D03*
D18*
X184454000Y-352814800D03*
X184454000Y-350814800D03*
D10*
X217027000Y-323113400D03*
X215027000Y-323113400D03*
X216100600Y-365132200D03*
X218100600Y-365132200D03*
D18*
X209796800Y-364575600D03*
X209796800Y-362575600D03*
D10*
X223580200Y-342569800D03*
X221580200Y-342569800D03*
D18*
X208737200Y-319497200D03*
X208737200Y-321497200D03*
D10*
X223418600Y-360560200D03*
X221418600Y-360560200D03*
X223580200Y-344652600D03*
X221580200Y-344652600D03*
D18*
X217246200Y-296249600D03*
X217246200Y-294249600D03*
X206159100Y-296249600D03*
X206159100Y-294249600D03*
D10*
X200447400Y-304800000D03*
X202447400Y-304800000D03*
D19*
X189942000Y-295771600D03*
X189942000Y-291171600D03*
X189942000Y-293471600D03*
D20*
X183642000Y-293471600D03*
D16*
X195158320Y-197271640D03*
X197058320Y-197271640D03*
X188625440Y-198462900D03*
X190525440Y-198462900D03*
X195158320Y-199820348D03*
X197058320Y-199820348D03*
X188625440Y-201027211D03*
X190525440Y-201027211D03*
X195158320Y-202369056D03*
X197058320Y-202369056D03*
X188625440Y-203591522D03*
X190525440Y-203591522D03*
X195158320Y-204917764D03*
X197058320Y-204917764D03*
X188625440Y-206155833D03*
X190525440Y-206155833D03*
X195158320Y-207466472D03*
X197058320Y-207466472D03*
X188625440Y-208720144D03*
X190525440Y-208720144D03*
X195158320Y-210015180D03*
X197058320Y-210015180D03*
X188625440Y-211284455D03*
X190525440Y-211284455D03*
X195158320Y-212563888D03*
X197058320Y-212563888D03*
X188625440Y-213848766D03*
X190525440Y-213848766D03*
X195158320Y-215112600D03*
X197058320Y-215112600D03*
X188625440Y-216413080D03*
X190525440Y-216413080D03*
X209450000Y-152400000D03*
X207550000Y-152400000D03*
X209350000Y-256000000D03*
X207450000Y-256000000D03*
X209450000Y-155650000D03*
X207550000Y-155650000D03*
X209350000Y-259175000D03*
X207450000Y-259175000D03*
X209450000Y-158900000D03*
X207550000Y-158900000D03*
X209350000Y-262350000D03*
X207450000Y-262350000D03*
X209450000Y-162150000D03*
X207550000Y-162150000D03*
X209350000Y-265525000D03*
X207450000Y-265525000D03*
X209350000Y-175950000D03*
X207450000Y-175950000D03*
X209350000Y-178812500D03*
X207450000Y-178812500D03*
X209350000Y-268700000D03*
X207450000Y-268700000D03*
X209350000Y-181675000D03*
X207450000Y-181675000D03*
X209350000Y-231700000D03*
X207450000Y-231700000D03*
X209350000Y-184537500D03*
X207450000Y-184537500D03*
X209350000Y-235183333D03*
X207450000Y-235183333D03*
X209350000Y-187400000D03*
X207450000Y-187400000D03*
X209350000Y-238666666D03*
X207450000Y-238666666D03*
X209350000Y-242150000D03*
X207450000Y-242150000D03*
X194421800Y-297789600D03*
X192521800Y-297789600D03*
D21*
X186740000Y-356574800D03*
X186740000Y-354674800D03*
X203225400Y-314264000D03*
X203225400Y-316164000D03*
D16*
X202930800Y-363702600D03*
X201030800Y-363702600D03*
X209184200Y-295249600D03*
X211084200Y-295249600D03*
D21*
X200939400Y-314198000D03*
X200939400Y-316098000D03*
D16*
X197601800Y-363702600D03*
X199501800Y-363702600D03*
X209184200Y-297535600D03*
X211084200Y-297535600D03*
X187187800Y-299567600D03*
X189087800Y-299567600D03*
D21*
X186740000Y-350864800D03*
X186740000Y-352764800D03*
D16*
X194723980Y-148516340D03*
X196623980Y-148516340D03*
X194723980Y-158694120D03*
X196623980Y-158694120D03*
X188358740Y-149773640D03*
X190258740Y-149773640D03*
X194447080Y-263565640D03*
X196347080Y-263565640D03*
X194723980Y-151071580D03*
X196623980Y-151071580D03*
X187893920Y-264891520D03*
X189793920Y-264891520D03*
X187893920Y-257248660D03*
X189793920Y-257248660D03*
X194447080Y-266146280D03*
X196347080Y-266146280D03*
X215184400Y-326492800D03*
X213284400Y-326492800D03*
X218715000Y-326467400D03*
X216815000Y-326467400D03*
X206218200Y-326467400D03*
X204318200Y-326467400D03*
X209840200Y-326467400D03*
X207940200Y-326467400D03*
X216325800Y-360571200D03*
X214425800Y-360571200D03*
X219881800Y-360571200D03*
X217981800Y-360571200D03*
X209163000Y-360622000D03*
X207263000Y-360622000D03*
X212719000Y-360622000D03*
X210819000Y-360622000D03*
X194447080Y-258470400D03*
X196347080Y-258470400D03*
X188358740Y-162168840D03*
X190258740Y-162168840D03*
X187893920Y-259829300D03*
X189793920Y-259829300D03*
X194645240Y-173393100D03*
X196545240Y-173393100D03*
X194723980Y-156179520D03*
X196623980Y-156179520D03*
X188363820Y-174597060D03*
X190263820Y-174597060D03*
X188358740Y-157396180D03*
X190258740Y-157396180D03*
X187893920Y-269915640D03*
X189793920Y-269915640D03*
X200497400Y-302514000D03*
X202397400Y-302514000D03*
D22*
X206114400Y-314360000D03*
X206114400Y-313860000D03*
X206114400Y-313360000D03*
X206114400Y-312860000D03*
X206114400Y-312360000D03*
X206114400Y-311860000D03*
X206114400Y-311360000D03*
X206114400Y-310860000D03*
X206114400Y-310360000D03*
X206114400Y-309860000D03*
X206114400Y-309360000D03*
X206114400Y-308860000D03*
X206114400Y-308360000D03*
X206114400Y-307860000D03*
X206114400Y-307360000D03*
X206114400Y-306860000D03*
X206114400Y-306360000D03*
X206114400Y-305860000D03*
X206114400Y-305360000D03*
X206114400Y-304860000D03*
X206114400Y-304360000D03*
X206114400Y-303860000D03*
X206114400Y-303360000D03*
X213579400Y-302860000D03*
X213579400Y-303360000D03*
X213579400Y-303860000D03*
X213579400Y-304360000D03*
X213579400Y-304860000D03*
X213579400Y-305360000D03*
X213579400Y-305860000D03*
X213579400Y-306360000D03*
X213579400Y-306860000D03*
X213579400Y-307360000D03*
X213579400Y-307860000D03*
X213579400Y-308360000D03*
X213579400Y-308860000D03*
X213579400Y-309360000D03*
X213579400Y-309860000D03*
X213579400Y-310360000D03*
X213579400Y-310860000D03*
X213579400Y-311360000D03*
X213579400Y-311860000D03*
X213579400Y-312360000D03*
X213579400Y-312860000D03*
X213579400Y-313360000D03*
X213579400Y-313860000D03*
X213579400Y-314360000D03*
X206114400Y-302860000D03*
X194977000Y-362550000D03*
X194977000Y-363050000D03*
X194977000Y-363550000D03*
X194977000Y-364050000D03*
X194977000Y-364550000D03*
X194977000Y-365050000D03*
X194977000Y-365550000D03*
X194977000Y-366050000D03*
X194977000Y-366550000D03*
X194977000Y-367050000D03*
X194977000Y-367550000D03*
X194977000Y-368050000D03*
X194977000Y-368550000D03*
X194977000Y-369050000D03*
X194977000Y-369550000D03*
X194977000Y-370050000D03*
X194977000Y-370550000D03*
X194977000Y-371050000D03*
X194977000Y-371550000D03*
X194977000Y-372050000D03*
X194977000Y-372550000D03*
X194977000Y-373050000D03*
X194977000Y-373550000D03*
X187512000Y-374050000D03*
X187512000Y-373550000D03*
X187512000Y-373050000D03*
X187512000Y-372550000D03*
X187512000Y-372050000D03*
X187512000Y-371550000D03*
X187512000Y-371050000D03*
X187512000Y-370550000D03*
X187512000Y-370050000D03*
X187512000Y-369550000D03*
X187512000Y-369050000D03*
X187512000Y-368550000D03*
X187512000Y-368050000D03*
X187512000Y-367550000D03*
X187512000Y-367050000D03*
X187512000Y-366550000D03*
X187512000Y-366050000D03*
X187512000Y-365550000D03*
X187512000Y-365050000D03*
X187512000Y-364550000D03*
X187512000Y-364050000D03*
X187512000Y-363550000D03*
X187512000Y-363050000D03*
X187512000Y-362550000D03*
X194977000Y-374050000D03*
D23*
X213167000Y-285760400D03*
X213167000Y-287060400D03*
X211267000Y-286410400D03*
X211267000Y-287060400D03*
X211267000Y-285760400D03*
D17*
X219951300Y-291245600D03*
X219316300Y-291245600D03*
X218681300Y-291245600D03*
X218046300Y-291245600D03*
X217411300Y-291245600D03*
X216776300Y-291245600D03*
X216141300Y-291245600D03*
X215506300Y-291245600D03*
X215506300Y-286045600D03*
X216141300Y-286045600D03*
X216776300Y-286045600D03*
X217411300Y-286045600D03*
X218046300Y-286045600D03*
X218681300Y-286045600D03*
X219316300Y-286045600D03*
X219951300Y-286045600D03*
X208768950Y-291245600D03*
X208133950Y-291245600D03*
X207498950Y-291245600D03*
X206863950Y-291245600D03*
X206228950Y-291245600D03*
X205593950Y-291245600D03*
X204958950Y-291245600D03*
X204323950Y-291245600D03*
X204323950Y-286045600D03*
X204958950Y-286045600D03*
X205593950Y-286045600D03*
X206228950Y-286045600D03*
X206863950Y-286045600D03*
X207498950Y-286045600D03*
X208133950Y-286045600D03*
X208768950Y-286045600D03*
D24*
X202067400Y-298262000D03*
X203367400Y-298262000D03*
X202717400Y-300162000D03*
X203367400Y-300162000D03*
X202067400Y-300162000D03*
D11*
X180404000Y-339298000D03*
X180404000Y-350058000D03*
D12*
X185864000Y-343178000D03*
X185864000Y-346178000D03*
D25*
X218709200Y-330813400D03*
X206639200Y-330813400D03*
X218709200Y-332813400D03*
X206639200Y-332813400D03*
X218709200Y-334813400D03*
X206639200Y-334813400D03*
X218709200Y-336813400D03*
X206639200Y-336813400D03*
X218709200Y-338813400D03*
X206639200Y-338813400D03*
X218709200Y-340813400D03*
X206639200Y-340813400D03*
X218709200Y-346840800D03*
X206639200Y-346840800D03*
X218709200Y-348840800D03*
X206639200Y-348840800D03*
X218709200Y-350840800D03*
X206639200Y-350840800D03*
X218709200Y-352840800D03*
X206639200Y-352840800D03*
X218709200Y-354840800D03*
X206639200Y-354840800D03*
X218709200Y-356840800D03*
X206639200Y-356840800D03*
D26*
X198551800Y-351917000D03*
X192608200Y-287070800D03*
D27*
X193725800Y-291998400D03*
D26*
X198551800Y-355701600D03*
X221843600Y-324510400D03*
X198551800Y-359308400D03*
X206222600Y-365328200D03*
D27*
X212140800Y-321259200D03*
D26*
X198729600Y-322503800D03*
X198729600Y-319074800D03*
X198551800Y-347802200D03*
X198551800Y-340868000D03*
X198551800Y-332917800D03*
X198551800Y-327152000D03*
M02*
