G04 #@! TF.GenerationSoftware,KiCad,Pcbnew,5.1.5-52549c5~84~ubuntu18.04.1*
G04 #@! TF.CreationDate,2020-02-28T12:30:24-05:00*
G04 #@! TF.ProjectId,BMS_peripheral_v2,424d535f-7065-4726-9970-686572616c5f,rev?*
G04 #@! TF.SameCoordinates,Original*
G04 #@! TF.FileFunction,Legend,Bot*
G04 #@! TF.FilePolarity,Positive*
%FSLAX46Y46*%
G04 Gerber Fmt 4.6, Leading zero omitted, Abs format (unit mm)*
G04 Created by KiCad (PCBNEW 5.1.5-52549c5~84~ubuntu18.04.1) date 2020-02-28 12:30:24*
%MOMM*%
%LPD*%
G04 APERTURE LIST*
%ADD10C,0.150000*%
G04 APERTURE END LIST*
D10*
X182008000Y-219348000D02*
X182008000Y-194418000D01*
X187308000Y-219348000D02*
X187308000Y-194418000D01*
X187308000Y-194418000D02*
X182008000Y-194418000D01*
X187308000Y-219348000D02*
X182008000Y-219348000D01*
X181957200Y-245205200D02*
X181957200Y-227895200D01*
X187257200Y-245205200D02*
X187257200Y-227895200D01*
X187257200Y-227895200D02*
X181957200Y-227895200D01*
X187257200Y-245205200D02*
X181957200Y-245205200D01*
X182160400Y-165449200D02*
X182160400Y-145599200D01*
X187460400Y-165449200D02*
X187460400Y-145599200D01*
X187460400Y-145599200D02*
X182160400Y-145599200D01*
X187460400Y-165449200D02*
X182160400Y-165449200D01*
X181779400Y-272891200D02*
X181779400Y-253041200D01*
X187079400Y-272891200D02*
X187079400Y-253041200D01*
X187079400Y-253041200D02*
X181779400Y-253041200D01*
X187079400Y-272891200D02*
X181779400Y-272891200D01*
X182160400Y-190341200D02*
X182160400Y-170491200D01*
X187460400Y-190341200D02*
X187460400Y-170491200D01*
X187460400Y-170491200D02*
X182160400Y-170491200D01*
X187460400Y-190341200D02*
X182160400Y-190341200D01*
X215258600Y-376969800D02*
X205568600Y-376969800D01*
X215258600Y-371669800D02*
X205568600Y-371669800D01*
X205568600Y-371669800D02*
X205568600Y-376969800D01*
X215258600Y-371669800D02*
X215258600Y-376969800D01*
X213040980Y-377796466D02*
X213755266Y-377796466D01*
X213898123Y-377748847D01*
X213993361Y-377653609D01*
X214040980Y-377510752D01*
X214040980Y-377415514D01*
X213469552Y-378415514D02*
X213421933Y-378320276D01*
X213374314Y-378272657D01*
X213279076Y-378225038D01*
X213231457Y-378225038D01*
X213136219Y-378272657D01*
X213088600Y-378320276D01*
X213040980Y-378415514D01*
X213040980Y-378605990D01*
X213088600Y-378701228D01*
X213136219Y-378748847D01*
X213231457Y-378796466D01*
X213279076Y-378796466D01*
X213374314Y-378748847D01*
X213421933Y-378701228D01*
X213469552Y-378605990D01*
X213469552Y-378415514D01*
X213517171Y-378320276D01*
X213564790Y-378272657D01*
X213660028Y-378225038D01*
X213850504Y-378225038D01*
X213945742Y-378272657D01*
X213993361Y-378320276D01*
X214040980Y-378415514D01*
X214040980Y-378605990D01*
X213993361Y-378701228D01*
X213945742Y-378748847D01*
X213850504Y-378796466D01*
X213660028Y-378796466D01*
X213564790Y-378748847D01*
X213517171Y-378701228D01*
X213469552Y-378605990D01*
X205150980Y-373335514D02*
X205150980Y-372764085D01*
X205150980Y-373049800D02*
X204150980Y-373049800D01*
X204293838Y-372954561D01*
X204389076Y-372859323D01*
X204436695Y-372764085D01*
X215914314Y-375780276D02*
X216580980Y-375780276D01*
X215533361Y-375542180D02*
X216247647Y-375304085D01*
X216247647Y-375923133D01*
M02*
